<?xml version="1.0" standalone="no"?>
<!DOCTYPE svg PUBLIC "-//W3C//DTD SVG 20010904//EN"
 "http://www.w3.org/TR/2001/REC-SVG-20010904/DTD/svg10.dtd">
<svg version="1.0" xmlns="http://www.w3.org/2000/svg"
 width="2707.000000pt" height="2707.000000pt" viewBox="0 0 2707.000000 2707.000000"
 preserveAspectRatio="xMidYMid meet">
<metadata>
Created by potrace 1.11, written by Peter Selinger 2001-2013
</metadata>
<g transform="translate(0.000000,2707.000000) scale(0.100000,-0.100000)"
fill="#000000" stroke="none">
<path d="M18848 27055 c-48 -8 -107 -19 -130 -26 -24 -6 -50 -13 -58 -14 -111
-24 -350 -128 -488 -212 -470 -286 -769 -730 -829 -1228 -13 -108 -5 -407 12
-434 1 -3 6 -24 9 -46 23 -143 95 -346 182 -510 26 -49 53 -103 61 -118 10
-18 12 -32 5 -40 -8 -10 -102 -172 -482 -832 -10 -16 -68 -118 -130 -225 -62
-107 -145 -251 -185 -320 -40 -69 -114 -197 -165 -285 -99 -171 -119 -205
-149 -259 -16 -28 -192 -332 -267 -463 -11 -18 -52 -90 -93 -160 -41 -70 -83
-144 -94 -163 -11 -19 -78 -136 -150 -260 -72 -124 -189 -326 -260 -450 -71
-124 -230 -399 -353 -611 -122 -212 -231 -401 -242 -420 -11 -19 -33 -58 -51
-87 -17 -29 -31 -56 -31 -59 0 -4 -6 -14 -14 -22 -7 -9 -31 -47 -51 -86 -21
-38 -41 -74 -46 -80 -7 -9 -89 -153 -146 -255 -14 -25 -47 -81 -73 -125 -46
-78 -298 -515 -337 -585 -11 -19 -40 -69 -65 -110 -24 -41 -47 -82 -51 -90 -4
-8 -20 -36 -35 -61 -15 -25 -73 -127 -130 -226 l-103 -179 -192 77 c-302 120
-514 191 -812 270 -122 33 -356 86 -413 95 -20 3 -45 7 -54 10 -23 7 -53 13
-128 24 -36 6 -76 13 -90 15 -14 3 -45 7 -70 11 -25 3 -52 7 -60 9 -8 2 -46 7
-85 11 -38 3 -79 8 -90 10 -11 2 -51 7 -90 10 -38 3 -86 7 -105 9 -222 27
-861 27 -1155 0 -115 -10 -174 -16 -206 -21 -20 -2 -54 -7 -75 -9 -21 -3 -55
-7 -74 -10 -19 -3 -53 -7 -75 -10 -39 -5 -200 -32 -240 -40 -11 -2 -33 -7 -50
-10 -38 -7 -124 -24 -150 -29 -11 -3 -34 -8 -51 -11 -21 -5 -35 -2 -45 8 -13
13 -135 148 -170 189 -9 10 -50 55 -91 101 -65 71 -109 120 -288 321 -19 22
-48 54 -64 70 -15 17 -56 62 -90 101 -63 71 -162 182 -181 201 -5 6 -37 41
-70 79 -33 38 -69 78 -80 89 -11 12 -56 62 -99 111 -44 50 -86 97 -93 105 -11
12 -17 13 -35 1 -20 -12 -34 -20 -126 -72 -20 -12 -181 -105 -357 -206 -176
-102 -367 -212 -425 -246 -58 -33 -136 -79 -175 -102 -38 -23 -77 -44 -85 -48
-8 -5 -24 -13 -35 -20 -11 -7 -78 -46 -150 -87 -71 -41 -138 -79 -147 -85 -9
-5 -29 -17 -45 -26 -30 -17 -58 -33 -313 -181 -91 -53 -183 -106 -205 -118
-107 -62 -213 -123 -245 -142 -19 -11 -145 -83 -280 -161 -135 -77 -249 -143
-253 -147 -7 -6 46 -177 183 -590 26 -80 105 -320 175 -535 70 -214 147 -450
171 -524 50 -150 51 -127 -15 -201 -13 -14 -42 -47 -64 -74 -23 -26 -52 -60
-65 -75 -53 -59 -223 -273 -292 -366 -61 -82 -280 -404 -327 -480 -179 -293
-319 -563 -481 -925 -58 -130 -225 -583 -238 -644 -4 -21 -21 -35 -44 -37 -8
0 -22 -2 -30 -4 -13 -3 -66 -14 -148 -30 -13 -2 -32 -7 -42 -10 -10 -3 -29 -8
-42 -10 -13 -3 -45 -9 -73 -15 -27 -6 -59 -12 -70 -14 -11 -2 -65 -14 -120
-25 -55 -12 -111 -24 -125 -26 -31 -6 -53 -11 -110 -24 -25 -5 -56 -12 -70
-15 -14 -2 -70 -14 -125 -26 -55 -12 -109 -23 -120 -25 -132 -27 -274 -57
-290 -60 -11 -3 -30 -7 -42 -10 -35 -8 -56 -12 -223 -47 -85 -17 -157 -35
-160 -39 -4 -6 -5 -3291 -1 -3310 0 -3 7 -6 14 -7 23 -3 62 -10 232 -47 225
-48 495 -105 520 -111 11 -2 45 -9 75 -15 30 -5 64 -12 75 -15 11 -2 31 -6 45
-9 14 -3 45 -10 70 -15 25 -5 54 -11 65 -14 11 -2 54 -11 95 -20 41 -9 107
-23 145 -31 39 -8 81 -17 95 -20 14 -3 34 -7 45 -9 31 -7 219 -46 241 -50 52
-11 106 -25 108 -28 2 -1 28 -78 59 -169 218 -651 520 -1240 931 -1819 66 -94
272 -361 308 -400 13 -14 36 -41 52 -60 27 -33 146 -168 173 -195 10 -10 4
-39 -28 -136 -62 -190 -242 -741 -313 -959 -171 -518 -227 -692 -224 -695 4
-4 476 -278 528 -306 19 -11 51 -29 70 -40 39 -24 405 -235 460 -266 19 -11
193 -112 385 -223 193 -112 368 -213 390 -225 22 -13 123 -71 225 -130 102
-59 205 -119 230 -133 25 -14 57 -33 72 -43 14 -11 29 -19 32 -19 3 0 70 -38
149 -83 78 -46 165 -96 192 -111 28 -16 69 -40 93 -54 37 -21 45 -23 56 -11 7
8 46 52 87 98 41 46 83 94 94 106 11 11 36 39 55 60 19 22 73 83 120 135 47
52 99 110 115 129 17 19 37 41 46 50 8 9 71 79 139 156 69 77 141 158 162 180
20 22 45 49 55 61 33 39 167 187 265 295 104 114 97 110 173 88 17 -4 46 -11
65 -14 19 -3 94 -17 165 -30 72 -13 153 -27 180 -31 28 -4 52 -8 55 -9 3 0 37
-5 75 -9 39 -5 79 -10 89 -12 11 -2 47 -6 80 -9 34 -2 85 -8 115 -11 122 -14
419 -27 621 -27 151 -1 407 8 520 18 19 1 71 5 115 9 44 3 91 8 105 11 14 2
54 7 90 10 36 4 94 11 130 16 36 6 76 12 90 14 35 5 161 25 185 30 523 100
1004 242 1439 424 54 22 100 41 101 41 3 0 69 -111 111 -185 6 -11 141 -243
299 -515 159 -272 298 -513 310 -535 12 -22 54 -95 94 -162 39 -67 71 -126 71
-131 0 -6 4 -12 8 -14 6 -2 177 -294 268 -456 29 -54 282 -491 346 -600 l55
-94 -77 -151 c-106 -210 -173 -420 -198 -622 -14 -115 -7 -345 14 -460 22
-123 83 -304 139 -416 29 -57 123 -211 134 -219 3 -3 17 -21 31 -40 95 -136
321 -341 485 -441 222 -135 505 -240 715 -265 118 -14 165 -17 250 -18 354 0
676 108 955 323 69 53 215 196 265 260 19 24 40 48 46 55 26 28 145 219 182
291 85 168 149 359 168 500 3 28 8 54 11 58 9 15 11 310 2 382 -46 403 -205
738 -486 1028 -301 311 -698 487 -1133 503 -80 3 -150 7 -156 9 -7 2 -18 16
-26 32 -19 36 -244 426 -275 475 -12 21 -23 40 -23 44 0 3 -8 18 -18 32 -11
15 -33 52 -49 82 -48 86 -464 804 -600 1035 -36 60 -79 135 -95 165 -17 30
-38 66 -47 80 -23 35 -37 60 -59 100 -11 19 -77 134 -147 255 -70 121 -136
236 -147 255 -11 19 -33 58 -48 85 l-29 51 137 106 c76 59 149 117 164 130 14
13 67 59 119 103 267 228 583 552 815 836 657 803 1126 1742 1374 2749 35 143
59 250 66 300 3 19 7 41 10 49 2 8 7 30 10 50 2 20 7 45 9 57 3 12 7 39 10 60
4 21 8 50 11 64 2 14 7 45 10 70 3 25 7 56 10 70 2 14 7 48 10 75 3 28 7 55 9
61 3 9 403 12 1560 12 l1557 0 26 -46 c41 -68 122 -190 174 -258 72 -94 242
-262 318 -314 12 -8 34 -25 48 -37 15 -13 30 -23 34 -23 4 0 26 -13 50 -29
137 -91 379 -180 568 -207 589 -86 1214 161 1628 641 179 208 322 509 368 775
14 82 13 425 -2 505 -79 424 -295 808 -596 1062 -313 263 -673 396 -1078 398
-243 0 -368 -18 -575 -86 -96 -32 -291 -124 -365 -173 -179 -118 -371 -300
-460 -435 -8 -13 -26 -40 -41 -60 -14 -20 -40 -63 -59 -96 -18 -33 -35 -62
-37 -64 -2 -3 -3063 -5 -3109 -2 -6 1 -14 27 -18 59 -6 56 -10 87 -22 167 -3
22 -8 54 -10 70 -2 17 -8 53 -14 80 -10 55 -17 92 -26 145 -3 19 -15 76 -26
125 -11 50 -21 101 -24 115 -2 14 -22 93 -44 175 -22 83 -42 159 -45 170 -38
160 -190 588 -297 840 -65 153 -223 479 -285 590 -22 39 -53 95 -70 125 -99
180 -290 472 -449 687 -73 99 -288 370 -303 383 -3 3 -42 45 -86 95 -288 323
-592 606 -937 872 l-117 91 18 33 c17 32 140 245 160 279 5 8 50 85 99 170
155 271 237 413 285 493 26 43 47 80 47 82 0 1 37 65 81 141 45 77 91 157 103
179 21 37 691 1198 826 1430 199 343 380 658 380 663 0 3 6 13 14 21 8 9 27
40 42 69 16 29 34 61 39 70 6 9 37 64 70 122 33 57 65 114 72 125 7 11 15 27
19 35 4 8 19 33 33 55 14 22 33 55 43 73 10 17 26 47 36 65 10 17 29 50 43 72
14 22 29 47 33 55 4 8 12 24 19 35 7 11 39 68 72 125 33 58 64 113 70 122 5 9
23 41 39 70 15 29 33 60 40 68 6 8 16 25 23 36 17 31 229 399 298 519 32 55
106 183 165 285 58 102 204 355 324 563 l218 377 92 0 c835 5 1529 599 1675
1438 15 86 18 144 16 292 -4 202 -5 210 -36 343 -101 433 -391 852 -749 1082
-166 107 -370 190 -535 220 -16 2 -41 8 -55 11 -54 14 -434 13 -522 -1z
m-7343 -11089 c22 -3 63 -8 90 -11 28 -2 70 -7 95 -10 70 -8 241 -36 280 -45
19 -5 52 -11 72 -14 21 -3 73 -15 115 -27 82 -22 102 -27 143 -35 62 -13 416
-137 524 -184 243 -106 422 -200 561 -295 50 -34 171 -117 270 -185 251 -171
340 -245 560 -465 77 -77 160 -165 185 -195 25 -29 59 -70 76 -89 72 -82 235
-309 318 -443 227 -363 396 -768 517 -1238 22 -84 68 -314 83 -410 10 -58 19
-116 21 -130 4 -23 12 -93 20 -165 25 -224 25 -537 1 -760 -9 -77 -18 -145
-26 -195 -5 -30 -12 -70 -15 -87 -18 -112 -37 -204 -70 -332 -64 -253 -159
-530 -256 -746 -12 -27 -23 -52 -24 -55 0 -3 -23 -50 -50 -105 -116 -237 -275
-491 -447 -712 -50 -64 -96 -123 -102 -129 -6 -6 -31 -36 -56 -65 -70 -85
-346 -357 -445 -440 -176 -147 -350 -274 -538 -393 -31 -20 -59 -36 -61 -36
-2 0 -33 -18 -68 -39 -55 -33 -263 -143 -278 -146 -3 -1 -36 -16 -75 -34 -378
-177 -912 -324 -1330 -366 -267 -27 -693 -27 -910 0 -16 2 -57 6 -90 10 -33 4
-69 9 -80 11 -11 3 -37 7 -57 9 -21 2 -73 11 -115 20 -43 9 -89 19 -103 21
-95 18 -171 38 -360 95 -368 110 -783 307 -1110 525 -125 84 -129 86 -244 173
-228 171 -478 408 -666 631 -30 36 -58 67 -61 70 -17 14 -215 288 -271 375
-122 188 -348 615 -348 658 0 7 -4 17 -9 23 -11 11 -99 250 -134 359 -37 121
-66 217 -71 245 -3 14 -12 52 -20 86 -8 34 -17 72 -19 85 -3 13 -12 62 -21
109 -8 47 -17 99 -20 115 -39 258 -46 340 -50 620 -4 297 11 483 60 770 35
205 40 231 86 400 117 437 313 869 577 1270 36 55 68 102 71 105 3 3 30 39 60
80 48 67 133 174 215 270 82 97 405 407 515 495 163 130 161 129 325 238 134
90 223 145 310 192 118 64 346 176 370 181 6 1 46 18 90 37 205 88 564 194
815 240 139 26 194 35 263 42 32 4 66 8 75 10 9 1 67 6 127 10 61 4 112 9 114
11 6 6 548 -4 596 -10z"/>
</g>
</svg>
