<?xml version="1.0" standalone="no"?>
<!DOCTYPE svg PUBLIC "-//W3C//DTD SVG 20010904//EN"
 "http://www.w3.org/TR/2001/REC-SVG-20010904/DTD/svg10.dtd">
<svg version="1.0" xmlns="http://www.w3.org/2000/svg"
 width="916.000000pt" height="916.000000pt" viewBox="0 0 916.000000 916.000000"
 preserveAspectRatio="xMidYMid meet">
<metadata>
Created by potrace 1.11, written by Peter Selinger 2001-2013
</metadata>
<g transform="translate(0.000000,916.000000) scale(0.100000,-0.100000)"
fill="#000000" stroke="none">
<path d="M4799 7858 c-21 -43 -52 -101 -67 -130 -16 -29 -64 -120 -107 -203
-43 -82 -86 -165 -97 -182 -11 -18 -16 -33 -11 -33 4 0 3 -4 -3 -8 -6 -4 -22
-29 -35 -57 -14 -27 -56 -108 -94 -180 -38 -71 -90 -172 -115 -222 -26 -51
-53 -99 -59 -107 -7 -8 -14 -22 -15 -29 -1 -8 -6 -21 -12 -28 -6 -8 -43 -79
-84 -159 -40 -80 -77 -146 -81 -148 -5 -2 -9 -8 -9 -13 0 -11 -16 -43 -90
-184 -50 -95 -81 -154 -255 -490 -41 -77 -96 -183 -123 -235 -28 -52 -85 -162
-127 -245 -43 -82 -81 -154 -85 -160 -4 -5 -47 -86 -95 -180 -170 -327 -199
-383 -378 -725 -33 -63 -76 -146 -97 -185 -20 -38 -66 -126 -101 -195 -35 -69
-68 -128 -74 -132 -5 -4 -6 -8 -1 -8 5 0 4 -6 -1 -12 -6 -7 -41 -71 -78 -143
-126 -240 -151 -289 -235 -450 -46 -88 -88 -163 -94 -167 -6 -4 -7 -8 -3 -8 5
0 -3 -20 -16 -45 l-26 -45 42 -1 c182 -2 1319 -1 1321 2 1 2 16 31 33 64 17
33 55 107 86 165 132 253 193 372 242 465 29 55 79 152 112 215 33 63 86 165
118 225 32 61 83 160 115 220 147 283 183 351 192 363 6 6 7 12 3 12 -4 0 -3
6 3 13 12 15 51 88 123 227 29 58 56 107 59 110 3 3 12 21 20 40 7 19 19 42
26 50 6 8 22 39 34 68 12 28 26 52 31 52 5 0 9 8 9 18 0 10 4 22 9 28 4 5 43
77 86 159 43 83 81 154 86 159 5 6 9 18 9 27 0 10 4 19 8 21 5 2 22 30 39 63
34 68 147 285 203 390 20 39 64 122 96 185 32 63 62 117 67 118 4 2 7 9 7 15
0 13 66 143 92 180 11 15 16 27 12 27 -3 0 -2 6 3 13 6 6 45 80 88 162 43 83
97 186 120 230 48 89 156 298 219 420 23 44 43 82 46 85 3 3 23 41 45 85 66
130 220 427 243 468 15 25 18 37 9 38 -6 1 -313 2 -681 2 l-668 2 -39 -77z"/>
<path d="M2716 7150 c-7 -8 -24 -37 -38 -65 -13 -27 -53 -104 -88 -170 -87
-166 -189 -362 -247 -475 -26 -52 -50 -97 -53 -100 -3 -3 -35 -63 -71 -135
-37 -71 -78 -150 -91 -175 -26 -49 -39 -74 -55 -105 -5 -11 -37 -72 -70 -135
-33 -63 -91 -173 -128 -245 -37 -71 -91 -175 -120 -230 -29 -55 -81 -154 -115
-220 -34 -66 -87 -166 -117 -223 -30 -57 -75 -145 -101 -195 -25 -51 -51 -95
-57 -99 -5 -4 -6 -8 -1 -8 5 0 4 -6 -2 -12 -5 -7 -44 -79 -85 -159 -42 -81
-89 -171 -105 -200 -16 -30 -68 -130 -117 -224 -48 -93 -104 -201 -125 -240
-21 -38 -64 -119 -95 -180 -86 -166 -225 -431 -266 -510 -21 -38 -56 -106 -78
-150 -23 -44 -72 -138 -109 -210 -38 -71 -95 -182 -128 -245 -32 -63 -62 -117
-65 -120 -3 -3 -11 -21 -19 -40 -8 -19 -16 -37 -19 -40 -4 -3 -13 -18 -21 -35
-8 -16 -25 -47 -37 -67 -13 -21 -20 -38 -17 -38 4 0 1 -8 -7 -17 -12 -15 -41
-71 -51 -101 -2 -4 301 -7 672 -8 603 0 676 1 686 15 6 9 40 72 76 141 36 69
94 179 128 245 34 66 86 165 115 220 29 55 83 159 120 230 77 148 148 283 227
435 31 58 86 164 123 235 37 72 89 171 115 220 26 50 78 149 115 220 37 72 93
180 125 240 156 298 207 396 239 460 20 39 41 73 46 77 6 4 6 8 1 8 -5 0 -4 6
2 13 5 6 40 71 78 142 37 72 100 193 141 270 40 77 88 169 106 205 17 36 34
67 37 70 3 3 20 37 39 75 19 39 43 82 53 98 11 15 17 27 14 27 -2 0 13 32 34
70 21 39 42 80 45 90 4 11 11 20 16 20 5 0 9 8 9 18 0 10 4 22 9 27 5 6 37 64
71 130 35 66 86 165 115 220 29 55 87 168 130 250 43 83 94 182 115 220 20 39
70 133 110 210 40 77 90 173 111 213 22 39 36 73 31 73 -4 1 -308 2 -675 3
-584 1 -670 -1 -681 -14z"/>
<path d="M7779 7160 c-5 -3 -36 -60 -70 -126 -34 -65 -77 -148 -96 -184 -38
-70 -184 -351 -255 -490 -24 -47 -45 -87 -48 -90 -3 -3 -23 -41 -46 -85 -50
-98 -170 -328 -234 -450 -26 -49 -80 -153 -120 -230 -40 -77 -96 -185 -125
-240 -29 -55 -82 -156 -117 -225 -36 -69 -89 -170 -118 -225 -29 -55 -82 -156
-118 -225 -35 -69 -86 -165 -112 -215 -26 -49 -84 -162 -130 -250 -45 -88 -95
-182 -110 -210 -15 -27 -65 -122 -110 -210 -46 -88 -99 -191 -119 -228 -20
-37 -59 -112 -86 -165 -28 -53 -88 -169 -134 -257 -46 -88 -104 -198 -128
-245 -24 -46 -49 -90 -55 -97 -6 -7 -7 -13 -3 -13 4 0 3 -6 -3 -12 -5 -7 -36
-62 -67 -123 -31 -60 -61 -114 -66 -120 -5 -5 -9 -17 -9 -26 0 -10 -4 -19 -8
-21 -4 -1 -27 -41 -51 -88 -24 -47 -72 -140 -107 -206 -35 -67 -64 -124 -64
-126 0 -3 305 -4 678 -4 l679 0 39 75 c21 42 61 116 87 165 26 49 49 94 50
100 1 6 5 13 8 16 3 3 12 19 21 35 28 56 170 330 208 400 20 39 75 142 120
230 80 156 144 278 220 420 37 69 127 242 252 485 64 124 141 271 243 465 29
55 81 154 115 220 34 66 86 165 115 220 29 55 81 154 115 220 34 66 84 161
110 210 26 50 91 176 145 280 54 105 101 195 105 200 4 6 56 105 115 220 59
116 111 215 115 220 4 6 36 66 71 135 35 69 69 128 74 132 6 4 6 8 1 8 -5 0
-4 6 1 13 6 6 45 80 88 162 43 83 98 188 123 235 126 239 162 310 162 317 0 9
-1336 12 -1351 3z"/>
<path d="M5728 6392 c-42 -4 -41 -1 -183 -277 -94 -182 -236 -454 -370 -710
-32 -60 -62 -119 -68 -130 -6 -11 -14 -27 -19 -35 -5 -8 -22 -42 -39 -75 -17
-33 -52 -100 -78 -150 -54 -103 -177 -338 -261 -500 -106 -205 -224 -430 -262
-500 -20 -38 -49 -95 -64 -125 -15 -30 -38 -72 -51 -92 -13 -21 -21 -38 -18
-38 2 0 -8 -21 -23 -47 -15 -27 -48 -88 -72 -138 -25 -49 -47 -92 -50 -95 -3
-3 -26 -45 -51 -95 -47 -93 -155 -299 -242 -465 -89 -169 -210 -401 -355 -680
-24 -47 -60 -116 -80 -155 -20 -38 -40 -71 -44 -73 -5 -2 -8 -11 -8 -21 0 -9
-4 -21 -9 -26 -5 -6 -46 -82 -91 -170 -46 -88 -97 -187 -115 -220 -82 -153
-185 -353 -185 -361 0 -5 295 -9 676 -9 l676 0 57 110 c32 61 90 173 131 250
120 231 162 309 172 322 6 7 7 13 3 13 -4 0 -3 6 2 13 10 12 65 114 168 312
100 192 186 356 248 475 84 160 129 247 237 455 52 99 111 212 131 250 20 39
65 124 99 190 59 114 126 242 230 440 26 50 78 149 115 220 37 72 91 175 120
230 29 55 83 159 120 230 37 72 89 171 115 220 26 50 78 149 115 220 37 72 89
171 115 220 26 50 78 149 115 220 157 303 188 361 198 373 5 6 6 12 2 12 -4 0
-3 6 4 13 6 8 29 49 52 93 23 43 68 130 101 192 32 61 58 112 56 112 -18 3
-1293 4 -1320 2z"/>
</g>
</svg>
