<svg xmlns="http://www.w3.org/2000/svg" viewBox="0 0 500 500"><defs><style>.cls-1{fill:#f5fdff;}.cls-2{fill:none;stroke:#00ceff;stroke-miterlimit:10;stroke-width:4px;}.cls-3{fill:#00ceff;}</style></defs><g id="Existing"><g id="Icons_Widget_Illustration" data-name="Icons Widget Illustration"><g id="ic-users"><g id="Oval"><circle class="cls-1" cx="250" cy="250" r="189.967"/><circle class="cls-2" cx="250" cy="250" r="186.903"/></g></g></g><g id="icons_Q2" data-name="icons Q2"><path id="Path_497" data-name="Path 497" class="cls-3" d="M159.752,255.809h0a10.316,10.316,0,0,1,10.316-10.316h10.309a10.317,10.317,0,0,1,10.317,10.316h0a10.316,10.316,0,0,1-10.317,10.316H170.068A10.316,10.316,0,0,1,159.752,255.809Zm10.316-51.567h10.309a10.317,10.317,0,0,0,10.317-10.316h0a10.317,10.317,0,0,0-10.317-10.317H170.068a10.317,10.317,0,0,0-10.316,10.317h0A10.316,10.316,0,0,0,170.068,204.242Zm0,123.767h10.309a10.317,10.317,0,0,0,10.317-10.316h0a10.317,10.317,0,0,0-10.317-10.317H170.068a10.317,10.317,0,0,0-10.316,10.317h0A10.316,10.316,0,0,0,170.068,328.009ZM226.8,266.125H329.932a10.316,10.316,0,0,0,10.316-10.316h0a10.316,10.316,0,0,0-10.316-10.316H226.79a10.316,10.316,0,0,0-10.316,10.316h0a10.316,10.316,0,0,0,10.316,10.309Zm0-61.883H329.932a10.316,10.316,0,0,0,10.316-10.316h0a10.317,10.317,0,0,0-10.316-10.317H226.79a10.316,10.316,0,0,0-10.316,10.317h0a10.316,10.316,0,0,0,10.316,10.309Zm0,123.767H329.932a10.316,10.316,0,0,0,10.316-10.316h0a10.317,10.317,0,0,0-10.316-10.317H226.79a10.316,10.316,0,0,0-10.316,10.317h0A10.316,10.316,0,0,0,226.79,328Z"/></g></g></svg>