<svg xmlns="http://www.w3.org/2000/svg" viewBox="0 0 500 500"><defs><style>.cls-1{fill:#f5fdff;}.cls-2,.cls-3{fill:none;}.cls-2{stroke:#00ceff;stroke-miterlimit:10;stroke-width:4px;}.cls-4{fill:#00ceff;}</style></defs><g id="Existing"><g id="Icons_Widget_Illustration" data-name="Icons Widget Illustration"><g id="ic-users"><g id="Oval"><circle class="cls-1" cx="250" cy="250" r="189.967"/><circle class="cls-2" cx="250" cy="250" r="186.903"/></g></g></g><g id="Layer_2-2" data-name="Layer 2-2"><g id="invisible_box-2" data-name="invisible box-2"><rect id="Rectangle_642" data-name="Rectangle 642" class="cls-3" x="133.184" y="133.184" width="233.632" height="233.632"/></g><g id="icons_Q2" data-name="icons Q2"><path id="Path_496" data-name="Path 496" class="cls-4" d="M250,142.919a106.594,106.594,0,1,0,75.859,31.222A106.595,106.595,0,0,0,250,142.919Zm78.364,68.142h-23.85a135.3,135.3,0,0,0-14.6-38.938A90.041,90.041,0,0,1,328.364,211.061ZM337.612,250a85.167,85.167,0,0,1-2.434,19.469H307.434c.487-6.327.974-12.655.974-19.469s-.487-13.142-.974-19.469h27.744A85.167,85.167,0,0,1,337.612,250Zm-175.224,0a85.167,85.167,0,0,1,2.434-19.469h27.744c-.487,6.327-.974,12.655-.974,19.469s.487,13.142.974,19.469H164.822A85.167,85.167,0,0,1,162.388,250Zm48.673,0c0-6.814.487-13.142.974-19.469h28.23v38.938h-28.23C211.548,263.142,211.061,256.814,211.061,250ZM259.735,165.8a56.977,56.977,0,0,1,14.6,18.009,105.682,105.682,0,0,1,10.221,27.257H259.735Zm-19.47,0v45.266H215.442A105.682,105.682,0,0,1,225.663,183.8,56.977,56.977,0,0,1,240.265,165.8Zm0,123.144v45.266a56.977,56.977,0,0,1-14.6-18.009,105.682,105.682,0,0,1-10.221-27.257Zm19.47,45.266V288.939h24.823A105.682,105.682,0,0,1,274.337,316.2,56.977,56.977,0,0,1,259.735,334.205Zm0-64.736V230.531h28.23c.487,6.327.974,12.655.974,19.469s-.487,13.142-.974,19.469Zm-49.647-97.346a135.3,135.3,0,0,0-14.6,38.938h-23.85A90.041,90.041,0,0,1,210.088,172.123ZM171.636,288.939h23.85a135.3,135.3,0,0,0,14.6,38.938A90.041,90.041,0,0,1,171.636,288.939Zm118.276,38.938a135.3,135.3,0,0,0,14.6-38.938h23.85A90.041,90.041,0,0,1,289.912,327.877Z"/></g></g></g></svg>