<svg xmlns="http://www.w3.org/2000/svg" viewBox="0 0 500 500"><defs><style>.cls-1{fill:#f5fdff;}.cls-2,.cls-3{fill:none;}.cls-2{stroke:#00ceff;stroke-miterlimit:10;stroke-width:4px;}.cls-4{fill:#00ceff;}</style></defs><g id="Existing"><g id="Icons_Widget_Illustration" data-name="Icons Widget Illustration"><g id="ic-users"><g id="Oval"><circle class="cls-1" cx="250" cy="250" r="189.967"/><circle class="cls-2" cx="250" cy="250" r="186.903"/></g></g></g><g id="Layer_2-2" data-name="Layer 2-2"><g id="invisible_box-2" data-name="invisible box-2"><rect id="Rectangle_644" data-name="Rectangle 644" class="cls-3" x="133.184" y="138.993" width="233.632" height="233.632"/></g><g id="icons_Q2" data-name="icons Q2"><path id="Path_498" data-name="Path 498" class="cls-4" d="M142.921,255.816A107.079,107.079,0,0,0,345.892,303.03a9.7,9.7,0,0,0-17.041-9.263A86.637,86.637,0,0,1,250,343.414a87.612,87.612,0,1,1,65.224-146.02h-25.8a10.225,10.225,0,0,0-10.218,8.246,9.734,9.734,0,0,0,9.73,11.235h48.671a9.737,9.737,0,0,0,9.737-9.737V158.955a10.218,10.218,0,0,0-8.246-10.218,9.735,9.735,0,0,0-11.221,9.73v23.851a107.079,107.079,0,0,0-184.961,73.5Z"/><path id="Path_499" data-name="Path 499" class="cls-4" d="M298.678,294.75a8.242,8.242,0,0,1-4.865-1.457L240.27,261.162V207.138a9.737,9.737,0,0,1,19.467,0v43.291l43.806,26.283a9.7,9.7,0,0,1-4.865,18.011Z"/></g></g></g></svg>