<svg xmlns="http://www.w3.org/2000/svg" viewBox="0 0 500 500"><defs><style>.cls-1{fill:#f5fdff;}.cls-2,.cls-3{fill:none;}.cls-2{stroke:#00ceff;stroke-miterlimit:10;stroke-width:4px;}.cls-4{fill:#00ceff;}</style></defs><g id="Existing"><g id="Icons_Widget_Illustration" data-name="Icons Widget Illustration"><g id="ic-users"><g id="Oval"><circle class="cls-1" cx="250" cy="250" r="189.967"/><circle class="cls-2" cx="250" cy="250" r="186.903"/></g></g></g><g id="Layer_2" data-name="Layer 2"><g id="invisible_box" data-name="invisible box"><rect id="Rectangle_645" data-name="Rectangle 645" class="cls-3" x="138.286" y="138.286" width="223.427" height="223.427"/></g><g id="icons_Q2" data-name="icons Q2"><g id="Group_420" data-name="Group 420"><path id="Path_500" data-name="Path 500" class="cls-4" d="M245.78,169.454,324.923,248.6v76.338H248.591l-79.143-79.149,76.338-76.338m0-22.479a9.367,9.367,0,0,0-6.554,2.811L149.78,239.232a8.9,8.9,0,0,0-.539,12.575q.258.281.539.539L241.1,343.66h93.188a9.365,9.365,0,0,0,9.365-9.366V241.106L252.34,149.787a9.365,9.365,0,0,0-6.56-2.812Z"/><circle id="Ellipse_46" data-name="Ellipse 46" class="cls-4" cx="281.025" cy="281.032" r="18.619"/></g></g></g></g></svg>