<svg xmlns="http://www.w3.org/2000/svg" viewBox="0 0 500 500"><defs><style>.cls-1{fill:#f5fdff;}.cls-2{fill:none;stroke:#00ceff;stroke-miterlimit:10;stroke-width:4px;}.cls-3{fill:#00c7f9;}</style></defs><g id="Existing"><g id="Icons_Widget_Illustration" data-name="Icons Widget Illustration"><g id="ic-users"><g id="Oval"><circle class="cls-1" cx="250" cy="250" r="189.967"/><circle class="cls-2" cx="250" cy="250" r="186.903"/></g></g></g><g id="icons_Q2" data-name="icons Q2"><path id="Path_501" data-name="Path 501" class="cls-3" d="M205.842,249.994a44.158,44.158,0,1,0-44.158-44.158h0A44.158,44.158,0,0,0,205.842,249.994Zm0-68.69a24.532,24.532,0,1,1-24.532,24.532A24.532,24.532,0,0,1,205.842,181.3Z"/><path id="Path_502" data-name="Path 502" class="cls-3" d="M303.971,249.994a34.345,34.345,0,1,0-34.345-34.345,34.345,34.345,0,0,0,34.345,34.345Zm0-49.065a14.72,14.72,0,1,1-14.719,14.72,14.229,14.229,0,0,1,13.72-14.72Q303.472,200.913,303.971,200.929Z"/><path id="Path_503" data-name="Path 503" class="cls-3" d="M357.942,276.489l-4.416-2.944a96.166,96.166,0,0,0-99.11,0l-3.925,2.944a120.7,120.7,0,0,0-39.743-6.863,114.814,114.814,0,0,0-64.274,19.135l-4.416,2.938v36.8a9.813,9.813,0,0,0,9.813,9.813H269.626a9.813,9.813,0,0,0,9.813-9.813v-9.812h68.69a9.814,9.814,0,0,0,9.813-9.813Zm-98.129,42.2H161.684v-16.2a97.525,97.525,0,0,1,98.129,0Zm78.5-19.626H279.439V291.7l-4.416-2.944-2.944-1.963a75.069,75.069,0,0,1,66.237.981Z"/></g></g></svg>