<svg id="Layer_1" data-name="Layer 1" xmlns="http://www.w3.org/2000/svg" viewBox="0 0 300 300"><defs><style>.cls-1{fill:#e6e6e6;}.cls-2{fill:#5e5e5e;}</style></defs><path class="cls-1" d="M150.644,24.109c.5,0,.983.032,1.478.038V7.26h-2.955V24.147C149.661,24.141,150.149,24.109,150.644,24.109Z"/><path class="cls-1" d="M158.334,24.35c.494.031.979.095,1.472.131l1.06-16.853-2.949-.186L156.857,24.3C157.35,24.321,157.839,24.319,158.334,24.35Z"/><path class="cls-1" d="M165.993,25.074c.492.063.972.156,1.461.223l2.117-16.753-2.932-.37-2.117,16.753C165.013,24.983,165.5,25.012,165.993,25.074Z"/><path class="cls-1" d="M173.592,26.278c.487.093.96.216,1.444.314L178.2,10.005l-2.9-.554-3.165,16.587C172.62,26.126,173.105,26.185,173.592,26.278Z"/><path class="cls-1" d="M181.1,27.956c.48.123.944.276,1.422.405L186.721,12l-2.862-.734-4.2,16.356C180.139,27.743,180.62,27.833,181.1,27.956Z"/><path class="cls-1" d="M188.488,30.1c.471.154.925.335,1.394.494L195.1,14.535l-2.811-.913-5.218,16.06C187.543,29.83,188.017,29.95,188.488,30.1Z"/><path class="cls-1" d="M195.727,32.708c.46.183.9.393,1.359.58l6.217-15.7L200.555,16.5l-6.216,15.7C194.8,32.377,195.266,32.526,195.727,32.708Z"/><path class="cls-1" d="M202.787,35.764c.449.211.876.448,1.321.664l7.19-15.28-2.674-1.258-7.19,15.279C201.884,35.375,202.339,35.553,202.787,35.764Z"/><path class="cls-1" d="M209.642,39.257c.435.239.846.5,1.277.745l8.135-14.8-2.59-1.423-8.135,14.8C208.765,38.812,209.208,39.018,209.642,39.257Z"/><path class="cls-1" d="M216.264,43.173c.419.266.813.554,1.228.824l9.048-14.258-2.5-1.583L215,42.414C215.417,42.674,215.846,42.907,216.264,43.173Z"/><path class="cls-1" d="M222.628,47.5c.4.291.776.6,1.172.9l9.926-13.662L231.335,33,221.41,46.66C221.813,46.946,222.227,47.206,222.628,47.5Z"/><path class="cls-1" d="M228.706,52.213c.382.316.737.652,1.115.971l10.764-13.011-2.277-1.884L227.544,51.3C227.928,51.611,228.325,51.9,228.706,52.213Z"/><path class="cls-1" d="M234.477,57.3c.362.339.695.7,1.051,1.039l11.56-12.31-2.154-2.023-11.56,12.31C233.738,56.651,234.116,56.961,234.477,57.3Z"/><path class="cls-1" d="M239.918,62.741c.339.361.649.739.983,1.1l12.31-11.56-2.023-2.154-12.31,11.56C239.221,62.046,239.578,62.379,239.918,62.741Z"/><path class="cls-1" d="M245.005,68.512c.316.382.6.778.913,1.162L258.929,58.91l-1.884-2.276L244.034,67.4C244.353,67.775,244.689,68.13,245.005,68.512Z"/><path class="cls-1" d="M249.721,74.591c.291.4.551.814.837,1.217l13.662-9.925-1.737-2.391-13.661,9.926C249.116,73.814,249.429,74.19,249.721,74.591Z"/><path class="cls-1" d="M254.045,80.954c.265.418.5.847.759,1.268l14.258-9.048-1.583-2.5-14.258,9.049C253.491,80.141,253.779,80.535,254.045,80.954Z"/><path class="cls-1" d="M257.961,87.576c.239.434.445.877.679,1.313l14.8-8.135-1.423-2.59-14.8,8.136C257.459,86.73,257.722,87.142,257.961,87.576Z"/><path class="cls-1" d="M261.454,94.431c.211.448.389.9.595,1.353l15.279-7.19L276.07,85.92l-15.279,7.19C261.006,93.555,261.243,93.982,261.454,94.431Z"/><path class="cls-1" d="M264.51,101.491c.182.461.331.927.508,1.389l15.7-6.217-1.088-2.748-15.7,6.217C264.117,100.589,264.327,101.031,264.51,101.491Z"/><path class="cls-1" d="M267.116,108.73c.153.471.272.946.42,1.417l16.06-5.218-.913-2.811-16.06,5.219C266.781,107.805,266.962,108.259,267.116,108.73Z"/><path class="cls-1" d="M269.262,116.118c.123.48.213.961.33,1.441l16.357-4.2-.735-2.862-16.356,4.2C268.986,115.174,269.139,115.638,269.262,116.118Z"/><path class="cls-1" d="M270.94,123.626c.093.487.152.972.24,1.459l16.587-3.164-.554-2.9-16.587,3.164C270.724,122.666,270.847,123.14,270.94,123.626Z"/><path class="cls-1" d="M272.144,131.225c.062.492.091.98.147,1.471l16.753-2.117-.37-2.932-16.753,2.117C271.988,130.253,272.081,130.733,272.144,131.225Z"/><path class="cls-1" d="M272.868,138.885c.031.494.029.983.054,1.476l16.854-1.06-.186-2.949-16.853,1.06C272.773,137.905,272.837,138.39,272.868,138.885Z"/><path class="cls-1" d="M273.109,146.574c0,.495-.032.983-.038,1.477h16.887V145.1H273.071C273.077,145.591,273.109,146.078,273.109,146.574Z"/><path class="cls-1" d="M272.868,154.264c-.031.494-.095.979-.131,1.472l16.853,1.06.186-2.949-16.854-1.06C272.9,153.28,272.9,153.769,272.868,154.264Z"/><path class="cls-1" d="M272.144,161.923c-.063.492-.156.972-.223,1.461l16.753,2.117.37-2.932-16.753-2.117C272.235,160.943,272.206,161.431,272.144,161.923Z"/><path class="cls-1" d="M270.94,169.522c-.093.487-.216.959-.314,1.444l16.587,3.164.554-2.9-16.587-3.164C271.092,168.55,271.033,169.035,270.94,169.522Z"/><path class="cls-1" d="M269.262,177.03c-.123.48-.276.944-.4,1.422l16.356,4.2.735-2.862-16.357-4.2C269.475,176.07,269.385,176.55,269.262,177.03Z"/><path class="cls-1" d="M267.116,184.418c-.154.471-.335.925-.493,1.393l16.06,5.219.913-2.811L267.536,183C267.388,183.473,267.269,183.947,267.116,184.418Z"/><path class="cls-1" d="M264.51,191.657c-.183.46-.393.9-.58,1.359l15.7,6.217,1.088-2.748-15.7-6.216C264.841,190.73,264.692,191.2,264.51,191.657Z"/><path class="cls-1" d="M261.454,198.717c-.211.449-.448.876-.663,1.321l15.279,7.19,1.258-2.674-15.279-7.19C261.843,197.813,261.665,198.269,261.454,198.717Z"/><path class="cls-1" d="M257.961,205.572c-.239.434-.5.846-.745,1.277l14.8,8.135,1.423-2.59-14.8-8.135C258.406,204.7,258.2,205.138,257.961,205.572Z"/><path class="cls-1" d="M254.045,212.194c-.266.419-.554.813-.824,1.227l14.258,9.048,1.583-2.5L254.8,210.926C254.544,211.347,254.31,211.776,254.045,212.194Z"/><path class="cls-1" d="M249.721,218.557c-.292.4-.6.777-.9,1.173l13.661,9.926,1.737-2.391-13.662-9.925C250.272,217.743,250.012,218.156,249.721,218.557Z"/><path class="cls-1" d="M245.005,224.636c-.316.382-.652.737-.971,1.115l13.011,10.763,1.884-2.276-13.011-10.764C245.607,223.858,245.321,224.254,245.005,224.636Z"/><path class="cls-1" d="M239.918,230.407c-.34.362-.7.695-1.04,1.051l12.31,11.56,2.023-2.154L240.9,229.3C240.567,229.668,240.257,230.046,239.918,230.407Z"/><path class="cls-1" d="M234.477,235.847c-.361.34-.739.65-1.1.984l11.56,12.31,2.154-2.023-11.56-12.31C235.172,235.15,234.839,235.508,234.477,235.847Z"/><path class="cls-1" d="M228.706,240.935c-.381.316-.778.6-1.162.913l10.764,13.011,2.277-1.884-10.764-13.011C229.443,240.283,229.088,240.619,228.706,240.935Z"/><path class="cls-1" d="M222.628,245.65c-.4.292-.815.552-1.218.838l9.925,13.662,2.391-1.737L223.8,244.751C223.4,245.046,223.028,245.359,222.628,245.65Z"/><path class="cls-1" d="M216.264,249.975c-.418.266-.847.5-1.267.76l9.048,14.257,2.5-1.583-9.048-14.258C217.077,249.42,216.683,249.71,216.264,249.975Z"/><path class="cls-1" d="M209.642,253.891c-.434.239-.877.445-1.313.679l8.135,14.8,2.59-1.424-8.135-14.8C210.488,253.389,210.077,253.653,209.642,253.891Z"/><path class="cls-1" d="M202.787,257.384c-.448.211-.9.389-1.353.595l7.19,15.279L211.3,272l-7.19-15.28C203.663,256.936,203.236,257.173,202.787,257.384Z"/><path class="cls-1" d="M195.727,260.439c-.461.183-.927.332-1.388.509l6.216,15.7,2.748-1.088-6.217-15.7C196.629,260.047,196.187,260.257,195.727,260.439Z"/><path class="cls-1" d="M188.488,263.046c-.471.152-.945.272-1.417.42l5.218,16.06,2.811-.913-5.218-16.06C189.413,262.71,188.959,262.892,188.488,263.046Z"/><path class="cls-1" d="M181.1,265.192c-.48.123-.961.213-1.441.33l4.2,16.356,2.862-.735-4.2-16.355C182.044,264.916,181.58,265.069,181.1,265.192Z"/><path class="cls-1" d="M173.592,266.87c-.487.093-.972.152-1.459.24L175.3,283.7l2.9-.554-3.164-16.587C174.552,266.654,174.079,266.777,173.592,266.87Z"/><path class="cls-1" d="M165.993,268.074c-.492.062-.98.091-1.471.147l2.117,16.753,2.932-.37-2.117-16.753C166.965,267.918,166.485,268.012,165.993,268.074Z"/><path class="cls-1" d="M158.334,268.8c-.5.031-.984.029-1.477.055l1.06,16.853,2.949-.186-1.06-16.853C159.313,268.7,158.828,268.766,158.334,268.8Z"/><path class="cls-1" d="M150.644,269.04c-.5,0-.983-.033-1.477-.039v16.887h2.955V269C151.627,269.007,151.14,269.04,150.644,269.04Z"/><path class="cls-1" d="M142.954,268.8c-.494-.032-.979-.1-1.472-.131l-1.06,16.853,2.949.186,1.061-16.853C143.938,268.827,143.449,268.829,142.954,268.8Z"/><path class="cls-1" d="M135.295,268.074c-.492-.062-.971-.156-1.461-.223L131.718,284.6l2.931.37,2.117-16.753C136.275,268.165,135.787,268.136,135.295,268.074Z"/><path class="cls-1" d="M127.7,266.87c-.487-.093-.959-.216-1.444-.314l-3.164,16.587,2.9.554,3.164-16.587C128.668,267.022,128.183,266.963,127.7,266.87Z"/><path class="cls-1" d="M120.188,265.192c-.48-.123-.944-.276-1.421-.4l-4.2,16.355,2.862.735,4.2-16.356C121.149,265.4,120.668,265.315,120.188,265.192Z"/><path class="cls-1" d="M112.8,263.046c-.471-.154-.925-.336-1.393-.493l-5.218,16.06,2.81.913,5.218-16.06C113.745,263.318,113.272,263.2,112.8,263.046Z"/><path class="cls-1" d="M105.562,260.439c-.461-.182-.9-.392-1.36-.579l-6.216,15.7,2.747,1.088,6.216-15.7C106.488,260.771,106.022,260.622,105.562,260.439Z"/><path class="cls-1" d="M98.5,257.384c-.449-.211-.876-.448-1.321-.664L89.99,272l2.674,1.258,7.19-15.279C99.405,257.773,98.949,257.6,98.5,257.384Z"/><path class="cls-1" d="M91.646,253.891c-.434-.238-.846-.5-1.277-.745l-8.135,14.8,2.59,1.424,8.135-14.8C92.523,254.336,92.08,254.13,91.646,253.891Z"/><path class="cls-1" d="M85.024,249.975c-.418-.265-.813-.555-1.227-.824l-9.048,14.258,2.494,1.583,9.049-14.257C85.872,250.474,85.442,250.241,85.024,249.975Z"/><path class="cls-1" d="M78.661,245.65c-.4-.291-.777-.6-1.173-.9l-9.926,13.662,2.391,1.737,9.926-13.662C79.476,246.2,79.062,245.942,78.661,245.65Z"/><path class="cls-1" d="M72.582,240.935c-.382-.316-.737-.652-1.115-.971L60.7,252.975l2.277,1.884,10.764-13.011C73.36,241.537,72.964,241.251,72.582,240.935Z"/><path class="cls-1" d="M66.811,235.847c-.361-.339-.7-.7-1.051-1.039L54.2,247.118l2.154,2.023,11.56-12.31C67.55,236.5,67.172,236.187,66.811,235.847Z"/><path class="cls-1" d="M61.371,230.407c-.339-.361-.65-.739-.984-1.1l-12.31,11.56,2.023,2.154,12.31-11.56C62.068,231.1,61.71,230.769,61.371,230.407Z"/><path class="cls-1" d="M56.283,224.636c-.316-.382-.6-.778-.913-1.162L42.359,234.238l1.884,2.276,13.011-10.763C56.935,225.373,56.6,225.018,56.283,224.636Z"/><path class="cls-1" d="M51.568,218.557c-.292-.4-.552-.814-.838-1.217l-13.662,9.925,1.738,2.391,13.661-9.926C52.172,219.334,51.859,218.958,51.568,218.557Z"/><path class="cls-1" d="M47.243,212.194c-.265-.418-.5-.847-.76-1.268l-14.257,9.048,1.583,2.5,14.258-9.048C47.8,213.007,47.509,212.613,47.243,212.194Z"/><path class="cls-1" d="M43.327,205.572c-.239-.434-.445-.877-.679-1.313l-14.8,8.135,1.423,2.59,14.8-8.135C43.829,206.418,43.565,206.006,43.327,205.572Z"/><path class="cls-1" d="M39.834,198.717c-.211-.448-.389-.9-.594-1.353l-15.28,7.19,1.258,2.674,15.28-7.19C40.282,199.593,40.045,199.166,39.834,198.717Z"/><path class="cls-1" d="M36.779,191.657c-.183-.461-.332-.927-.509-1.388l-15.7,6.216,1.088,2.748,15.7-6.217C37.171,192.559,36.961,192.117,36.779,191.657Z"/><path class="cls-1" d="M34.173,184.418c-.154-.471-.273-.945-.421-1.417l-16.06,5.218.913,2.811,16.06-5.219C34.508,185.343,34.326,184.889,34.173,184.418Z"/><path class="cls-1" d="M32.026,177.03c-.123-.48-.213-.96-.331-1.441l-16.355,4.2.735,2.862,16.355-4.2C32.3,177.974,32.149,177.51,32.026,177.03Z"/><path class="cls-1" d="M30.348,169.522c-.093-.487-.152-.972-.239-1.459l-16.588,3.164.554,2.9,16.587-3.164C30.564,170.481,30.441,170.009,30.348,169.522Z"/><path class="cls-1" d="M29.144,161.923c-.062-.492-.09-.98-.147-1.471l-16.754,2.117.371,2.932,16.753-2.117C29.3,162.9,29.206,162.415,29.144,161.923Z"/><path class="cls-1" d="M28.42,154.264c-.031-.5-.029-.984-.055-1.477l-16.853,1.06L11.7,156.8l16.853-1.06C28.514,155.243,28.452,154.758,28.42,154.264Z"/><path class="cls-1" d="M28.179,146.574c0-.5.032-.983.038-1.478H11.33v2.955H28.217C28.211,147.557,28.179,147.069,28.179,146.574Z"/><path class="cls-1" d="M28.42,138.885c.032-.5.094-.98.131-1.473L11.7,136.352l-.186,2.949,16.853,1.06C28.391,139.868,28.389,139.379,28.42,138.885Z"/><path class="cls-1" d="M29.144,131.225c.062-.492.156-.972.223-1.461l-16.753-2.117-.371,2.932L29,132.7C29.054,132.205,29.082,131.717,29.144,131.225Z"/><path class="cls-1" d="M30.348,123.626c.093-.486.216-.96.314-1.444l-16.587-3.164-.554,2.9,16.588,3.164C30.2,124.6,30.255,124.113,30.348,123.626Z"/><path class="cls-1" d="M32.026,116.118c.123-.48.276-.944.4-1.422l-16.355-4.2-.735,2.862,16.355,4.2C31.813,117.079,31.9,116.6,32.026,116.118Z"/><path class="cls-1" d="M34.173,108.73c.153-.471.335-.925.492-1.393l-16.06-5.219-.913,2.811,16.06,5.218C33.9,109.676,34.019,109.2,34.173,108.73Z"/><path class="cls-1" d="M36.779,101.491c.182-.46.392-.9.579-1.359l-15.7-6.217-1.088,2.748,15.7,6.217C36.447,102.418,36.6,101.952,36.779,101.491Z"/><path class="cls-1" d="M39.834,94.431c.211-.449.448-.876.664-1.321l-15.28-7.19L23.96,88.594l15.28,7.19C39.445,95.334,39.623,94.879,39.834,94.431Z"/><path class="cls-1" d="M43.327,87.576c.238-.434.5-.846.745-1.276l-14.8-8.136-1.423,2.59,14.8,8.135C42.882,88.453,43.088,88.01,43.327,87.576Z"/><path class="cls-1" d="M47.243,80.954c.266-.419.555-.813.824-1.227L33.809,70.678l-1.583,2.5,14.257,9.048C46.744,81.8,46.978,81.372,47.243,80.954Z"/><path class="cls-1" d="M51.568,74.591c.291-.4.6-.777.9-1.173L38.806,63.492l-1.738,2.391L50.73,75.808C51.016,75.405,51.276,74.991,51.568,74.591Z"/><path class="cls-1" d="M56.283,68.512c.316-.382.652-.737.971-1.114L44.243,56.634,42.359,58.91,55.37,69.674C55.681,69.29,55.967,68.894,56.283,68.512Z"/><path class="cls-1" d="M61.371,62.741c.339-.362.7-.7,1.039-1.051L50.1,50.13l-2.023,2.154,12.31,11.56C60.721,63.48,61.032,63.1,61.371,62.741Z"/><path class="cls-1" d="M66.811,57.3c.361-.34.739-.65,1.1-.984l-11.56-12.31L54.2,46.03,65.76,58.34C66.116,58,66.45,57.64,66.811,57.3Z"/><path class="cls-1" d="M72.582,52.213c.382-.316.778-.6,1.163-.912L62.981,38.289,60.7,40.173,71.467,53.184C71.845,52.865,72.2,52.529,72.582,52.213Z"/><path class="cls-1" d="M78.661,47.5c.4-.292.815-.552,1.218-.838L69.953,33l-2.391,1.737L77.488,48.4C77.884,48.1,78.26,47.789,78.661,47.5Z"/><path class="cls-1" d="M85.024,43.173c.418-.266.848-.5,1.268-.759L77.243,28.156l-2.494,1.583L83.8,44C84.211,43.727,84.606,43.439,85.024,43.173Z"/><path class="cls-1" d="M91.646,39.257c.434-.239.877-.445,1.313-.679l-8.135-14.8L82.234,25.2,90.369,40C90.8,39.759,91.212,39.5,91.646,39.257Z"/><path class="cls-1" d="M98.5,35.764c.448-.211.9-.389,1.353-.6L92.664,19.89,89.99,21.148l7.19,15.28C97.625,36.212,98.052,35.975,98.5,35.764Z"/><path class="cls-1" d="M105.562,32.708c.46-.182.926-.331,1.387-.508l-6.216-15.7-2.747,1.088,6.216,15.7C104.659,33.1,105.1,32.891,105.562,32.708Z"/><path class="cls-1" d="M112.8,30.1c.472-.152.945-.272,1.417-.42L109,13.622l-2.81.913L111.407,30.6C111.875,30.437,112.329,30.256,112.8,30.1Z"/><path class="cls-1" d="M120.188,27.956c.48-.123.961-.213,1.441-.33l-4.2-16.356L114.567,12l4.2,16.357C119.244,28.232,119.708,28.079,120.188,27.956Z"/><path class="cls-1" d="M127.7,26.278c.487-.093.972-.152,1.459-.24L125.991,9.451l-2.9.554,3.164,16.587C126.737,26.494,127.209,26.371,127.7,26.278Z"/><path class="cls-1" d="M135.295,25.074c.492-.062.98-.091,1.471-.147L134.649,8.174l-2.931.37L133.834,25.3C134.324,25.23,134.8,25.137,135.295,25.074Z"/><path class="cls-1" d="M142.954,24.35c.5-.031.984-.029,1.478-.054L143.371,7.442l-2.949.186,1.06,16.853C141.975,24.445,142.46,24.381,142.954,24.35Z"/><path class="cls-2" d="M115.125,144.353c0-27.045,4.51-32.654,12.822-32.654s12.821,5.609,12.821,32.654-4.506,32.756-12.821,32.756S115.125,171.4,115.125,144.353Zm18.433,0c0-23.938-2-26.144-5.611-26.144s-5.608,2.206-5.608,26.144,2,26.245,5.608,26.245S133.558,168.293,133.558,144.353Z"/><path class="cls-2" d="M145.381,127.025c0-10.418,3.306-15.728,9.92-15.728,6.81,0,9.915,5.31,9.915,15.728,0,10.317-3.105,15.726-9.915,15.726C148.687,142.751,145.381,137.342,145.381,127.025Zm4.209,47.58,28.146-60.4a2.893,2.893,0,0,1,2.507-1.9h2c1.1,0,1.8.8,1.3,1.9l-28.15,60.4a2.883,2.883,0,0,1-2.5,1.9h-2C149.793,176.508,149.088,175.706,149.59,174.605Zm9.718-47.58c0-6.813-.7-10.317-4.007-10.317-3.208,0-4.008,3.5-4.008,10.317,0,6.71.8,10.317,4.008,10.317C158.607,137.342,159.308,133.735,159.308,127.025Zm8.612,34.759c0-10.419,3.306-15.726,9.919-15.726,6.811,0,9.915,5.307,9.915,15.726,0,10.316-3.1,15.726-9.915,15.726C171.226,177.51,167.92,172.1,167.92,161.784Zm13.926,0c0-6.813-.705-10.318-4.007-10.318-3.207,0-4.007,3.5-4.007,10.318,0,6.709.8,10.316,4.007,10.316C181.141,172.1,181.846,168.493,181.846,161.784Z"/></svg>