<svg id="Layer_1" data-name="Layer 1" xmlns="http://www.w3.org/2000/svg" viewBox="0 0 300 300"><defs><style>.cls-1{fill:#f21b16;}.cls-2{fill:#e6e6e6;}.cls-3{fill:#5e5e5e;}</style></defs><path class="cls-1" d="M223.078,43.934a121.94,121.94,0,0,0-66.766-19.787l-1.369.009-.214-16.887,1.583-.008A138.756,138.756,0,0,1,232.3,29.79Z"/><path class="cls-2" d="M228.3,47.5c.4.291.776.6,1.173.9L239.4,34.735,237.005,33,227.079,46.66C227.482,46.946,227.9,47.206,228.3,47.5Z"/><path class="cls-2" d="M234.376,52.213c.382.316.737.652,1.114.971l10.764-13.011-2.277-1.884L233.213,51.3C233.6,51.611,233.994,51.9,234.376,52.213Z"/><path class="cls-2" d="M240.147,57.3c.361.339.694.7,1.051,1.039l11.559-12.31L250.6,44.007l-11.56,12.31C239.408,56.651,239.786,56.961,240.147,57.3Z"/><path class="cls-2" d="M245.587,62.741c.339.361.649.739.984,1.1l12.309-11.56-2.023-2.154L244.548,61.69C244.89,62.046,245.248,62.379,245.587,62.741Z"/><path class="cls-2" d="M250.674,68.512c.317.382.6.778.913,1.162L264.6,58.91l-1.883-2.276L249.7,67.4C250.023,67.775,250.359,68.13,250.674,68.512Z"/><path class="cls-2" d="M255.39,74.591c.291.4.552.814.838,1.217l13.661-9.925-1.737-2.391-13.661,9.926C254.786,73.814,255.1,74.19,255.39,74.591Z"/><path class="cls-2" d="M259.714,80.954c.266.418.5.847.76,1.268l14.258-9.048-1.584-2.5-14.257,9.049C259.16,80.141,259.449,80.535,259.714,80.954Z"/><path class="cls-2" d="M263.631,87.576c.239.434.445.877.678,1.313l14.8-8.135-1.424-2.59-14.8,8.136C263.128,86.73,263.392,87.142,263.631,87.576Z"/><path class="cls-2" d="M267.124,94.431c.21.448.389.9.594,1.353L283,88.594l-1.258-2.674L266.46,93.11C266.675,93.555,266.913,93.982,267.124,94.431Z"/><path class="cls-2" d="M270.179,101.491c.182.461.332.927.508,1.389l15.7-6.217L285.3,93.915l-15.7,6.217C269.787,100.589,270,101.031,270.179,101.491Z"/><path class="cls-2" d="M272.785,108.73c.153.471.273.946.42,1.417l16.06-5.218-.913-2.811-16.06,5.219C272.45,107.805,272.632,108.259,272.785,108.73Z"/><path class="cls-2" d="M274.931,116.118c.124.48.213.961.331,1.441l16.356-4.2-.735-2.862-16.356,4.2C274.655,115.174,274.808,115.638,274.931,116.118Z"/><path class="cls-2" d="M276.61,123.626c.092.487.152.972.239,1.459l16.588-3.164-.554-2.9L276.3,122.182C276.393,122.666,276.517,123.14,276.61,123.626Z"/><path class="cls-2" d="M277.813,131.225c.062.492.091.98.148,1.471l16.753-2.117-.371-2.932-16.753,2.117C277.657,130.253,277.751,130.733,277.813,131.225Z"/><path class="cls-2" d="M278.537,138.885c.031.494.029.983.055,1.476l16.853-1.06-.186-2.949-16.853,1.06C278.443,137.905,278.506,138.39,278.537,138.885Z"/><path class="cls-2" d="M278.779,146.574c0,.495-.033.983-.038,1.477h16.886V145.1H278.741C278.746,145.591,278.779,146.078,278.779,146.574Z"/><path class="cls-2" d="M278.537,154.264c-.031.494-.094.979-.131,1.472l16.853,1.06.186-2.949-16.853-1.06C278.566,153.28,278.568,153.769,278.537,154.264Z"/><path class="cls-2" d="M277.813,161.923c-.062.492-.156.972-.223,1.461l16.753,2.117.371-2.932-16.753-2.117C277.9,160.943,277.875,161.431,277.813,161.923Z"/><path class="cls-2" d="M276.61,169.522c-.093.487-.217.959-.315,1.444l16.588,3.164.554-2.9-16.588-3.164C276.762,168.55,276.7,169.035,276.61,169.522Z"/><path class="cls-2" d="M274.931,177.03c-.123.48-.276.944-.4,1.422l16.356,4.2.735-2.862-16.356-4.2C275.144,176.07,275.055,176.55,274.931,177.03Z"/><path class="cls-2" d="M272.785,184.418c-.153.471-.335.925-.493,1.393l16.06,5.219.913-2.811L273.205,183C273.058,183.473,272.938,183.947,272.785,184.418Z"/><path class="cls-2" d="M270.179,191.657c-.183.46-.392.9-.579,1.359l15.7,6.217,1.088-2.748-15.7-6.216C270.511,190.73,270.361,191.2,270.179,191.657Z"/><path class="cls-2" d="M267.124,198.717c-.211.449-.449.876-.664,1.321l15.279,7.19L283,204.554l-15.279-7.19C267.513,197.813,267.334,198.269,267.124,198.717Z"/><path class="cls-2" d="M263.631,205.572c-.239.434-.5.846-.746,1.277l14.8,8.135,1.424-2.59-14.8-8.135C264.076,204.7,263.87,205.138,263.631,205.572Z"/><path class="cls-2" d="M259.714,212.194c-.265.419-.554.813-.823,1.227l14.257,9.048,1.584-2.5-14.258-9.048C260.214,211.347,259.98,211.776,259.714,212.194Z"/><path class="cls-2" d="M255.39,218.557c-.291.4-.6.777-.9,1.173l13.661,9.926,1.737-2.391-13.661-9.925C255.942,217.743,255.681,218.156,255.39,218.557Z"/><path class="cls-2" d="M250.674,224.636c-.315.382-.651.737-.971,1.115l13.012,10.763,1.883-2.276-13.011-10.764C251.276,223.858,250.991,224.254,250.674,224.636Z"/><path class="cls-2" d="M245.587,230.407c-.339.362-.7.695-1.039,1.051l12.309,11.56,2.023-2.154L246.571,229.3C246.236,229.668,245.926,230.046,245.587,230.407Z"/><path class="cls-2" d="M240.147,235.847c-.361.34-.739.65-1.1.984l11.56,12.31,2.154-2.023L241.2,234.808C240.841,235.15,240.508,235.508,240.147,235.847Z"/><path class="cls-2" d="M234.376,240.935c-.382.316-.778.6-1.163.913l10.764,13.011,2.277-1.884L235.49,239.964C235.113,240.283,234.758,240.619,234.376,240.935Z"/><path class="cls-2" d="M228.3,245.65c-.4.292-.815.552-1.218.838l9.926,13.662,2.39-1.737-9.925-13.662C229.073,245.046,228.7,245.359,228.3,245.65Z"/><path class="cls-2" d="M221.934,249.975c-.419.266-.848.5-1.268.76l9.048,14.257,2.5-1.583-9.048-14.258C222.747,249.42,222.352,249.71,221.934,249.975Z"/><path class="cls-2" d="M215.312,253.891c-.435.239-.878.445-1.313.679l8.135,14.8,2.589-1.424-8.135-14.8C216.158,253.389,215.746,253.653,215.312,253.891Z"/><path class="cls-2" d="M208.457,257.384c-.449.211-.9.389-1.354.595l7.19,15.279L216.967,272l-7.19-15.28C209.332,256.936,208.905,257.173,208.457,257.384Z"/><path class="cls-2" d="M201.4,260.439c-.461.183-.926.332-1.388.509l6.216,15.7,2.748-1.088-6.216-15.7C202.3,260.047,201.857,260.257,201.4,260.439Z"/><path class="cls-2" d="M194.157,263.046c-.471.152-.945.272-1.417.42l5.219,16.06,2.81-.913-5.218-16.06C195.082,262.71,194.628,262.892,194.157,263.046Z"/><path class="cls-2" d="M186.769,265.192c-.48.123-.96.213-1.44.33l4.2,16.356,2.863-.735-4.2-16.355C187.714,264.916,187.249,265.069,186.769,265.192Z"/><path class="cls-2" d="M179.261,266.87c-.487.093-.972.152-1.458.24l3.164,16.587,2.9-.554-3.164-16.587C180.221,266.654,179.748,266.777,179.261,266.87Z"/><path class="cls-2" d="M171.662,268.074c-.491.062-.979.091-1.47.147l2.116,16.753,2.932-.37-2.117-16.753C172.634,267.918,172.154,268.012,171.662,268.074Z"/><path class="cls-2" d="M164,268.8c-.495.031-.983.029-1.477.055l1.06,16.853,2.95-.186-1.061-16.853C164.983,268.7,164.5,268.766,164,268.8Z"/><path class="cls-2" d="M156.313,269.04c-.495,0-.983-.033-1.477-.039v16.887h2.955V269C157.3,269.007,156.809,269.04,156.313,269.04Z"/><path class="cls-2" d="M148.624,268.8c-.5-.032-.98-.1-1.472-.131l-1.061,16.853,2.949.186,1.061-16.853C149.607,268.827,149.118,268.829,148.624,268.8Z"/><path class="cls-2" d="M140.964,268.074c-.491-.062-.971-.156-1.461-.223L137.387,284.6l2.932.37,2.116-16.753C141.944,268.165,141.456,268.136,140.964,268.074Z"/><path class="cls-2" d="M133.366,266.87c-.487-.093-.96-.216-1.444-.314l-3.165,16.587,2.9.554,3.164-16.587C134.338,267.022,133.853,266.963,133.366,266.87Z"/><path class="cls-2" d="M125.858,265.192c-.48-.123-.945-.276-1.422-.4l-4.2,16.355,2.862.735,4.2-16.356C126.818,265.4,126.338,265.315,125.858,265.192Z"/><path class="cls-2" d="M118.469,263.046c-.471-.154-.925-.336-1.393-.493l-5.218,16.06,2.81.913,5.219-16.06C119.415,263.318,118.941,263.2,118.469,263.046Z"/><path class="cls-2" d="M111.231,260.439c-.461-.182-.9-.392-1.36-.579l-6.216,15.7,2.747,1.088,6.217-15.7C112.157,260.771,111.692,260.622,111.231,260.439Z"/><path class="cls-2" d="M104.17,257.384c-.448-.211-.876-.448-1.321-.664L95.66,272l2.674,1.258,7.189-15.279C105.074,257.773,104.619,257.6,104.17,257.384Z"/><path class="cls-2" d="M97.315,253.891c-.434-.238-.846-.5-1.276-.745l-8.135,14.8,2.589,1.424,8.136-14.8C98.193,254.336,97.75,254.13,97.315,253.891Z"/><path class="cls-2" d="M90.693,249.975c-.418-.265-.812-.555-1.227-.824l-9.048,14.258,2.495,1.583,9.048-14.257C91.541,250.474,91.112,250.241,90.693,249.975Z"/><path class="cls-2" d="M84.33,245.65c-.4-.291-.776-.6-1.173-.9l-9.926,13.662,2.391,1.737,9.926-13.662C85.145,246.2,84.731,245.942,84.33,245.65Z"/><path class="cls-2" d="M78.251,240.935c-.382-.316-.737-.652-1.114-.971L66.373,252.975l2.277,1.884,10.764-13.011C79.03,241.537,78.633,241.251,78.251,240.935Z"/><path class="cls-2" d="M72.48,235.847c-.361-.339-.694-.7-1.051-1.039l-11.56,12.31,2.155,2.023,11.559-12.31C73.219,236.5,72.842,236.187,72.48,235.847Z"/><path class="cls-2" d="M67.04,230.407c-.339-.361-.649-.739-.984-1.1l-12.309,11.56,2.022,2.154,12.31-11.56C67.737,231.1,67.379,230.769,67.04,230.407Z"/><path class="cls-2" d="M61.952,224.636c-.316-.382-.6-.778-.912-1.162L48.029,234.238l1.883,2.276,13.011-10.763C62.6,225.373,62.268,225.018,61.952,224.636Z"/><path class="cls-2" d="M57.237,218.557c-.292-.4-.552-.814-.838-1.217l-13.661,9.925,1.737,2.391,13.661-9.926C57.841,219.334,57.528,218.958,57.237,218.557Z"/><path class="cls-2" d="M52.913,212.194c-.266-.418-.5-.847-.76-1.268L37.9,219.974l1.584,2.5,14.257-9.048C53.467,213.007,53.178,212.613,52.913,212.194Z"/><path class="cls-2" d="M49,205.572c-.238-.434-.445-.877-.678-1.313l-14.8,8.135,1.424,2.59,14.8-8.135C49.5,206.418,49.235,206.006,49,205.572Z"/><path class="cls-2" d="M45.5,198.717c-.211-.448-.39-.9-.595-1.353l-15.28,7.19,1.258,2.674,15.28-7.19C45.952,199.593,45.715,199.166,45.5,198.717Z"/><path class="cls-2" d="M42.448,191.657c-.182-.461-.332-.927-.509-1.388l-15.7,6.216,1.088,2.748,15.7-6.217C42.84,192.559,42.63,192.117,42.448,191.657Z"/><path class="cls-2" d="M39.842,184.418c-.153-.471-.273-.945-.42-1.417l-16.06,5.218.913,2.811,16.06-5.219C40.177,185.343,39.995,184.889,39.842,184.418Z"/><path class="cls-2" d="M37.7,177.03c-.124-.48-.213-.96-.331-1.441l-16.356,4.2.735,2.862,16.356-4.2C37.972,177.974,37.819,177.51,37.7,177.03Z"/><path class="cls-2" d="M36.017,169.522c-.093-.487-.152-.972-.239-1.459L19.19,171.227l.554,2.9,16.588-3.164C36.233,170.481,36.11,170.009,36.017,169.522Z"/><path class="cls-2" d="M34.814,161.923c-.062-.492-.091-.98-.148-1.471l-16.753,2.117.37,2.932,16.754-2.117C34.969,162.9,34.876,162.415,34.814,161.923Z"/><path class="cls-2" d="M34.09,154.264c-.031-.5-.03-.984-.055-1.477l-16.853,1.06.185,2.949,16.853-1.06C34.184,155.243,34.121,154.758,34.09,154.264Z"/><path class="cls-2" d="M33.848,146.574c0-.5.033-.983.038-1.478H17v2.955H33.886C33.881,147.557,33.848,147.069,33.848,146.574Z"/><path class="cls-2" d="M34.09,138.885c.031-.5.094-.98.13-1.473l-16.853-1.06-.185,2.949,16.853,1.06C34.06,139.868,34.059,139.379,34.09,138.885Z"/><path class="cls-2" d="M34.814,131.225c.062-.492.155-.972.223-1.461l-16.754-2.117-.37,2.932L34.666,132.7C34.723,132.205,34.752,131.717,34.814,131.225Z"/><path class="cls-2" d="M36.017,123.626c.093-.486.216-.96.315-1.444l-16.588-3.164-.554,2.9,16.588,3.164C35.865,124.6,35.924,124.113,36.017,123.626Z"/><path class="cls-2" d="M37.7,116.118c.123-.48.276-.944.4-1.422l-16.356-4.2-.735,2.862,16.356,4.2C37.483,117.079,37.572,116.6,37.7,116.118Z"/><path class="cls-2" d="M39.842,108.73c.153-.471.335-.925.493-1.393l-16.06-5.219-.913,2.811,16.06,5.218C39.569,109.676,39.689,109.2,39.842,108.73Z"/><path class="cls-2" d="M42.448,101.491c.182-.46.392-.9.579-1.359l-15.7-6.217-1.088,2.748,15.7,6.217C42.116,102.418,42.266,101.952,42.448,101.491Z"/><path class="cls-2" d="M45.5,94.431c.211-.449.448-.876.663-1.321l-15.28-7.19-1.258,2.674,15.28,7.19C45.114,95.334,45.293,94.879,45.5,94.431Z"/><path class="cls-2" d="M49,87.576c.239-.434.5-.846.745-1.276l-14.8-8.136-1.424,2.59,14.8,8.135C48.551,88.453,48.758,88.01,49,87.576Z"/><path class="cls-2" d="M52.913,80.954c.265-.419.554-.813.823-1.227L39.479,70.678l-1.584,2.5,14.258,9.048C52.413,81.8,52.647,81.372,52.913,80.954Z"/><path class="cls-2" d="M57.237,74.591c.291-.4.6-.777.9-1.173L44.475,63.492l-1.737,2.391L56.4,75.808C56.685,75.405,56.945,74.991,57.237,74.591Z"/><path class="cls-2" d="M61.952,68.512c.316-.382.652-.737.971-1.114L49.912,56.634,48.029,58.91,61.04,69.674C61.35,69.29,61.636,68.894,61.952,68.512Z"/><path class="cls-2" d="M67.04,62.741c.339-.362.7-.7,1.039-1.051L55.769,50.13l-2.022,2.154,12.309,11.56C66.391,63.48,66.7,63.1,67.04,62.741Z"/><path class="cls-2" d="M72.48,57.3c.362-.34.739-.65,1.1-.984L62.024,44.007,59.869,46.03l11.56,12.31C71.786,58,72.119,57.64,72.48,57.3Z"/><path class="cls-2" d="M78.251,52.213c.382-.316.779-.6,1.163-.912L68.65,38.289l-2.277,1.884L77.137,53.184C77.514,52.865,77.869,52.529,78.251,52.213Z"/><path class="cls-2" d="M84.33,47.5c.4-.292.815-.552,1.218-.838L75.622,33l-2.391,1.737L83.157,48.4C83.554,48.1,83.929,47.789,84.33,47.5Z"/><path class="cls-2" d="M90.693,43.173c.419-.266.848-.5,1.268-.759L82.913,28.156l-2.495,1.583L89.466,44C89.881,43.727,90.275,43.439,90.693,43.173Z"/><path class="cls-2" d="M97.315,39.257c.435-.239.878-.445,1.314-.679l-8.136-14.8L87.9,25.2,96.039,40C96.469,39.759,96.881,39.5,97.315,39.257Z"/><path class="cls-2" d="M104.17,35.764c.449-.211.9-.389,1.353-.6L98.334,19.89,95.66,21.148l7.189,15.28C103.294,36.212,103.722,35.975,104.17,35.764Z"/><path class="cls-2" d="M111.231,32.708c.461-.182.926-.331,1.388-.508L106.4,16.5l-2.747,1.088,6.216,15.7C110.328,33.1,110.77,32.891,111.231,32.708Z"/><path class="cls-2" d="M118.469,30.1c.472-.152.946-.272,1.418-.42l-5.219-16.06-2.81.913L117.076,30.6C117.544,30.437,118,30.256,118.469,30.1Z"/><path class="cls-2" d="M125.858,27.956c.48-.123.96-.213,1.44-.33L123.1,11.27,120.236,12l4.2,16.357C124.913,28.232,125.378,28.079,125.858,27.956Z"/><path class="cls-2" d="M133.366,26.278c.487-.093.972-.152,1.458-.24L131.66,9.451l-2.9.554,3.165,16.587C132.406,26.494,132.879,26.371,133.366,26.278Z"/><path class="cls-2" d="M140.964,25.074c.492-.062.98-.091,1.471-.147L140.319,8.174l-2.932.37L139.5,25.3C139.993,25.23,140.473,25.137,140.964,25.074Z"/><path class="cls-2" d="M148.624,24.35c.494-.031.983-.029,1.477-.054L149.04,7.442l-2.949.186,1.061,16.853C147.644,24.445,148.129,24.381,148.624,24.35Z"/><path class="cls-3" d="M132.709,111.7c-7.812,0-12.619,4.908-12.619,19.331s4.407,19.334,11.618,19.334c2.506,0,5.709-1.2,7.115-3.907,0,17.33-.705,24.341-6.41,24.341-4.21,0-5.113-4.208-4.812-9.116.1-2.1-.5-3.3-2-3.3h-2.3a2.373,2.373,0,0,0-2.507,2.705c0,12.219,4.309,16.026,11.623,16.026,12.92,0,13.32-13.223,13.32-37.262C145.733,119.612,142.826,111.7,132.709,111.7Zm0,32.654c-3.1,0-5.409-1.7-5.409-13.323s2.3-13.322,5.409-13.322,6.011,1.7,6.011,13.322S135.818,144.353,132.709,144.353Z"/><path class="cls-3" d="M170.18,127.025c0-10.418-3.1-15.728-9.915-15.728-6.613,0-9.919,5.31-9.919,15.728,0,10.317,3.306,15.726,9.919,15.726C167.076,142.751,170.18,137.342,170.18,127.025Zm-13.922,0c0-6.813.8-10.317,4.007-10.317,3.307,0,4.007,3.5,4.007,10.317,0,6.71-.7,10.317-4.007,10.317C157.058,137.342,156.258,133.735,156.258,127.025Z"/><path class="cls-3" d="M187.211,112.3h-2a2.893,2.893,0,0,0-2.506,1.9l-28.145,60.4c-.5,1.1.2,1.9,1.3,1.9h2a2.884,2.884,0,0,0,2.5-1.9l28.15-60.4C189.013,113.1,188.312,112.3,187.211,112.3Z"/><path class="cls-3" d="M182.8,146.058c-6.613,0-9.919,5.307-9.919,15.726,0,10.316,3.306,15.726,9.919,15.726,6.811,0,9.915-5.41,9.915-15.726C192.719,151.365,189.615,146.058,182.8,146.058Zm0,26.042c-3.207,0-4.007-3.607-4.007-10.316,0-6.813.8-10.318,4.007-10.318,3.3,0,4.007,3.5,4.007,10.318C186.811,168.493,186.106,172.1,182.8,172.1Z"/></svg>