<svg id="Layer_1" data-name="Layer 1" xmlns="http://www.w3.org/2000/svg" viewBox="0 0 300 300"><defs><style>.cls-1{fill:#31f431;}.cls-2{fill:#5e5e5e;}</style></defs><path class="cls-1" d="M156.316,291.561C79.5,291.561,17,229.065,17,152.247A139.176,139.176,0,0,1,149.142,13.114L150,29.976a122.56,122.56,0,1,0,6.316-.156l-1.336.008L154.7,12.941l1.617-.008c76.818,0,139.314,62.5,139.314,139.314S233.134,291.561,156.316,291.561Z"/><path class="cls-2" d="M117.488,117.369c-7.812,0-12.619,4.906-12.619,19.331s4.407,19.335,11.618,19.335c2.506,0,5.709-1.2,7.115-3.908,0,17.328-.7,24.341-6.41,24.341-4.21,0-5.113-4.206-4.812-9.116.1-2.1-.5-3.306-2-3.306h-2.3a2.372,2.372,0,0,0-2.506,2.7c0,12.224,4.308,16.029,11.622,16.029,12.92,0,13.32-13.221,13.32-37.265C130.512,125.28,127.605,117.369,117.488,117.369Zm0,32.656c-3.1,0-5.409-1.7-5.409-13.325s2.305-13.32,5.409-13.32,6.011,1.7,6.011,13.32S120.6,150.025,117.488,150.025Z"/><path class="cls-2" d="M147.947,117.369c-7.813,0-12.62,4.906-12.62,19.331s4.407,19.335,11.618,19.335c2.507,0,5.71-1.2,7.116-3.908,0,17.328-.705,24.341-6.411,24.341-4.209,0-5.112-4.206-4.811-9.116.1-2.1-.5-3.306-2-3.306h-2.3a2.373,2.373,0,0,0-2.506,2.7c0,12.224,4.308,16.029,11.622,16.029,12.92,0,13.32-13.221,13.32-37.265C160.97,125.28,158.064,117.369,147.947,117.369Zm0,32.656c-3.1,0-5.409-1.7-5.409-13.325s2.3-13.32,5.409-13.32,6.011,1.7,6.011,13.32S151.055,150.025,147.947,150.025Z"/><path class="cls-2" d="M185.418,132.693c0-10.418-3.1-15.724-9.915-15.724-6.613,0-9.919,5.306-9.919,15.724,0,10.319,3.306,15.728,9.919,15.728C182.314,148.421,185.418,143.012,185.418,132.693Zm-13.922,0c0-6.811.8-10.315,4.007-10.315,3.306,0,4.007,3.5,4.007,10.315,0,6.712-.7,10.319-4.007,10.319C172.3,143.012,171.5,139.405,171.5,132.693Z"/><path class="cls-2" d="M202.449,117.971h-2a2.892,2.892,0,0,0-2.507,1.9l-28.145,60.4c-.5,1.1.2,1.9,1.3,1.9h2a2.879,2.879,0,0,0,2.5-1.9l28.149-60.4C204.25,118.771,203.549,117.971,202.449,117.971Z"/><path class="cls-2" d="M198.042,151.727c-6.614,0-9.92,5.306-9.92,15.724,0,10.319,3.306,15.728,9.92,15.728,6.81,0,9.915-5.409,9.915-15.728C207.957,157.033,204.852,151.727,198.042,151.727Zm0,26.043c-3.208,0-4.008-3.607-4.008-10.319,0-6.811.8-10.315,4.008-10.315,3.3,0,4.007,3.5,4.007,10.315C202.049,174.163,201.344,177.77,198.042,177.77Z"/></svg>