<svg id="Layer_1" data-name="Layer 1" xmlns="http://www.w3.org/2000/svg" viewBox="0 0 300 300"><defs><style>.cls-1{fill:#31f431;}.cls-2{fill:#5e5e5e;}</style></defs><path class="cls-1" d="M150,289.087c-76.818,0-139.314-62.5-139.314-139.314S73.183,10.459,150,10.459s139.312,62.5,139.312,139.314S226.817,289.087,150,289.087Zm0-261.741A122.427,122.427,0,1,0,272.426,149.773,122.565,122.565,0,0,0,150,27.346Z"/><path class="cls-2" d="M98.253,179.708H94.846a1.842,1.842,0,0,1-1.9-1.9V129.323H88.736a1.841,1.841,0,0,1-1.9-1.9v-2.2a1.841,1.841,0,0,1,1.9-1.9h.9c3,0,4.706-1.6,4.706-5.208v-.7A1.843,1.843,0,0,1,96.25,115.5h2a1.843,1.843,0,0,1,1.9,1.905v60.4A1.842,1.842,0,0,1,98.253,179.708Z"/><path class="cls-2" d="M108.172,147.553c0-27.045,4.509-32.654,12.822-32.654s12.821,5.609,12.821,32.654-4.506,32.757-12.821,32.757S108.172,174.6,108.172,147.553Zm18.433,0c0-23.939-2-26.144-5.611-26.144s-5.609,2.2-5.609,26.144,2,26.245,5.609,26.245S126.605,171.493,126.605,147.553Z"/><path class="cls-2" d="M140.035,147.553c0-27.045,4.507-32.654,12.821-32.654s12.822,5.609,12.822,32.654-4.507,32.757-12.822,32.757S140.035,174.6,140.035,147.553Zm18.432,0c0-23.939-2-26.144-5.611-26.144s-5.609,2.2-5.609,26.144,2,26.245,5.609,26.245S158.467,171.493,158.467,147.553Z"/><path class="cls-2" d="M170.3,130.226c0-10.419,3.305-15.729,9.917-15.729,6.811,0,9.915,5.31,9.915,15.729,0,10.316-3.1,15.726-9.915,15.726C173.6,145.952,170.3,140.542,170.3,130.226Zm4.207,47.579,28.148-60.4a2.885,2.885,0,0,1,2.5-1.905h2c1.1,0,1.8.8,1.3,1.905l-28.148,60.4a2.886,2.886,0,0,1-2.5,1.9h-2C174.7,179.708,174,178.906,174.5,177.805Zm9.715-47.579c0-6.813-.7-10.318-4.005-10.318-3.2,0-4.007,3.5-4.007,10.318,0,6.709.8,10.316,4.007,10.316C183.517,140.542,184.217,136.935,184.217,130.226Zm8.615,34.758c0-10.418,3.306-15.726,9.917-15.726,6.813,0,9.917,5.308,9.917,15.726,0,10.317-3.1,15.726-9.917,15.726C196.138,180.71,192.832,175.3,192.832,164.984Zm13.924,0c0-6.813-.7-10.317-4.007-10.317-3.2,0-4,3.5-4,10.317,0,6.709.8,10.317,4,10.317C206.055,175.3,206.756,171.693,206.756,164.984Z"/></svg>