<svg id="Layer_1" data-name="Layer 1" xmlns="http://www.w3.org/2000/svg" viewBox="0 0 300 300"><defs><style>.cls-1{fill:#f21b16;}.cls-2{fill:#e6e6e6;}.cls-3{fill:#5e5e5e;}</style></defs><path class="cls-1" d="M223.716,48.965a121.4,121.4,0,0,0-73.07-24.188l-1.373.008L149.058,7.9l1.588-.009a138.171,138.171,0,0,1,83.163,27.536Z"/><path class="cls-2" d="M228.706,52.843c.382.316.737.652,1.115.971L240.585,40.8l-2.277-1.884L227.544,51.93C227.928,52.241,228.325,52.527,228.706,52.843Z"/><path class="cls-2" d="M234.477,57.931c.362.339.695.7,1.051,1.039l11.56-12.31-2.154-2.023-11.56,12.31C233.738,57.281,234.116,57.592,234.477,57.931Z"/><path class="cls-2" d="M239.918,63.371c.339.361.649.739.983,1.1l12.31-11.56-2.023-2.154-12.31,11.56C239.221,62.676,239.578,63.01,239.918,63.371Z"/><path class="cls-2" d="M245.005,69.142c.316.382.6.778.913,1.163l13.011-10.764-1.884-2.277L244.034,68.027C244.353,68.405,244.689,68.76,245.005,69.142Z"/><path class="cls-2" d="M249.721,75.221c.291.4.551.814.837,1.218l13.662-9.926-1.737-2.391-13.661,9.926C249.116,74.444,249.429,74.82,249.721,75.221Z"/><path class="cls-2" d="M254.045,81.584c.265.418.5.848.759,1.268L269.062,73.8l-1.583-2.495-14.258,9.049C253.491,80.771,253.779,81.166,254.045,81.584Z"/><path class="cls-2" d="M257.961,88.206c.239.434.445.877.679,1.313l14.8-8.135-1.423-2.59-14.8,8.135C257.459,87.36,257.722,87.772,257.961,88.206Z"/><path class="cls-2" d="M261.454,95.061c.211.448.389.9.595,1.353l15.279-7.19L276.07,86.55l-15.279,7.19C261.006,94.185,261.243,94.612,261.454,95.061Z"/><path class="cls-2" d="M264.51,102.122c.182.46.331.926.508,1.387l15.7-6.216-1.088-2.747-15.7,6.216C264.117,101.219,264.327,101.661,264.51,102.122Z"/><path class="cls-2" d="M267.116,109.36c.153.472.272.945.42,1.417l16.06-5.218-.913-2.81-16.06,5.218C266.781,108.435,266.962,108.889,267.116,109.36Z"/><path class="cls-2" d="M269.262,116.748c.123.48.213.961.33,1.441l16.357-4.2-.735-2.862-16.356,4.2C268.986,115.8,269.139,116.268,269.262,116.748Z"/><path class="cls-2" d="M270.94,124.256c.093.487.152.972.24,1.459l16.587-3.164-.554-2.9-16.587,3.164C270.724,123.3,270.847,123.769,270.94,124.256Z"/><path class="cls-2" d="M272.144,131.855c.062.492.091.98.147,1.471l16.753-2.117-.37-2.932-16.753,2.117C271.988,130.884,272.081,131.363,272.144,131.855Z"/><path class="cls-2" d="M272.868,139.514c.031.495.029.984.054,1.478l16.854-1.061-.186-2.949-16.853,1.06C272.773,138.535,272.837,139.02,272.868,139.514Z"/><path class="cls-2" d="M273.109,147.2c0,.5-.032.983-.038,1.478h16.887v-2.955H273.071C273.077,146.221,273.109,146.709,273.109,147.2Z"/><path class="cls-2" d="M272.868,154.894c-.031.494-.095.979-.131,1.472l16.853,1.06.186-2.949-16.854-1.06C272.9,153.91,272.9,154.4,272.868,154.894Z"/><path class="cls-2" d="M272.144,162.553c-.063.492-.156.972-.223,1.461l16.753,2.117.37-2.932-16.753-2.117C272.235,161.573,272.206,162.061,272.144,162.553Z"/><path class="cls-2" d="M270.94,170.152c-.093.486-.216.96-.314,1.444l16.587,3.164.554-2.9-16.587-3.165C271.092,169.18,271.033,169.665,270.94,170.152Z"/><path class="cls-2" d="M269.262,177.66c-.123.48-.276.944-.4,1.422l16.356,4.2.735-2.862-16.357-4.2C269.475,176.7,269.385,177.18,269.262,177.66Z"/><path class="cls-2" d="M267.116,185.048c-.154.471-.335.925-.493,1.393l16.06,5.219.913-2.811-16.06-5.218C267.388,184.1,267.269,184.577,267.116,185.048Z"/><path class="cls-2" d="M264.51,192.286c-.183.461-.393.9-.58,1.36l15.7,6.217,1.088-2.748-15.7-6.216C264.841,191.36,264.692,191.826,264.51,192.286Z"/><path class="cls-2" d="M261.454,199.347c-.211.449-.448.876-.663,1.321l15.279,7.19,1.258-2.674-15.279-7.19C261.843,198.444,261.665,198.9,261.454,199.347Z"/><path class="cls-2" d="M257.961,206.2c-.239.435-.5.846-.745,1.276l14.8,8.136,1.423-2.59-14.8-8.135C258.406,205.325,258.2,205.768,257.961,206.2Z"/><path class="cls-2" d="M254.045,212.824c-.266.419-.554.813-.824,1.228l14.258,9.048,1.583-2.5L254.8,211.556C254.544,211.977,254.31,212.406,254.045,212.824Z"/><path class="cls-2" d="M249.721,219.188c-.292.4-.6.776-.9,1.172l13.661,9.926,1.737-2.391-13.662-9.925C250.272,218.373,250.012,218.787,249.721,219.188Z"/><path class="cls-2" d="M245.005,225.266c-.316.382-.652.737-.971,1.115l13.011,10.764,1.884-2.277L245.918,224.1C245.607,224.488,245.321,224.885,245.005,225.266Z"/><path class="cls-2" d="M239.918,231.037c-.34.362-.7.695-1.04,1.051l12.31,11.56,2.023-2.154-12.31-11.56C240.567,230.3,240.257,230.676,239.918,231.037Z"/><path class="cls-2" d="M234.477,236.477c-.361.34-.739.65-1.1.984l11.56,12.31,2.154-2.023-11.56-12.31C235.172,235.781,234.839,236.138,234.477,236.477Z"/><path class="cls-2" d="M228.706,241.565c-.381.316-.778.6-1.162.913l10.764,13.011,2.277-1.884-10.764-13.011C229.443,240.913,229.088,241.249,228.706,241.565Z"/><path class="cls-2" d="M222.628,246.281c-.4.291-.815.551-1.218.837l9.925,13.662,2.391-1.737L223.8,245.382C223.4,245.676,223.028,245.989,222.628,246.281Z"/><path class="cls-2" d="M216.264,250.605c-.418.265-.847.5-1.267.759l9.048,14.258,2.5-1.583-9.048-14.258C217.077,250.051,216.683,250.339,216.264,250.605Z"/><path class="cls-2" d="M209.642,254.521c-.434.239-.877.445-1.313.679l8.135,14.8,2.59-1.423-8.135-14.8C210.488,254.019,210.077,254.282,209.642,254.521Z"/><path class="cls-2" d="M202.787,258.014c-.448.211-.9.389-1.353.595l7.19,15.279,2.674-1.258-7.19-15.28C203.663,257.566,203.236,257.8,202.787,258.014Z"/><path class="cls-2" d="M195.727,261.07c-.461.182-.927.331-1.388.508l6.216,15.7,2.748-1.088-6.217-15.7C196.629,260.677,196.187,260.887,195.727,261.07Z"/><path class="cls-2" d="M188.488,263.676c-.471.153-.945.272-1.417.42l5.218,16.06,2.811-.913-5.218-16.06C189.413,263.341,188.959,263.522,188.488,263.676Z"/><path class="cls-2" d="M181.1,265.822c-.48.123-.961.213-1.441.33l4.2,16.357,2.862-.735-4.2-16.356C182.044,265.546,181.58,265.7,181.1,265.822Z"/><path class="cls-2" d="M173.592,267.5c-.487.093-.972.152-1.459.24l3.165,16.587,2.9-.554-3.164-16.587C174.552,267.284,174.079,267.407,173.592,267.5Z"/><path class="cls-2" d="M165.993,268.7c-.492.062-.98.091-1.471.147l2.117,16.753,2.932-.37-2.117-16.753C166.965,268.548,166.485,268.641,165.993,268.7Z"/><path class="cls-2" d="M158.334,269.428c-.5.031-.984.029-1.477.054l1.06,16.854,2.949-.186-1.06-16.853C159.313,269.333,158.828,269.4,158.334,269.428Z"/><path class="cls-2" d="M150.644,269.669c-.5,0-.983-.032-1.477-.038v16.887h2.955V269.631C151.627,269.637,151.14,269.669,150.644,269.669Z"/><path class="cls-2" d="M142.954,269.428c-.494-.031-.979-.095-1.472-.131l-1.06,16.853,2.949.186,1.061-16.854C143.938,269.457,143.449,269.459,142.954,269.428Z"/><path class="cls-2" d="M135.295,268.7c-.492-.063-.971-.156-1.461-.223l-2.116,16.753,2.931.37,2.117-16.753C136.275,268.8,135.787,268.766,135.295,268.7Z"/><path class="cls-2" d="M127.7,267.5c-.487-.093-.959-.216-1.444-.314l-3.164,16.587,2.9.554,3.164-16.587C128.668,267.652,128.183,267.593,127.7,267.5Z"/><path class="cls-2" d="M120.188,265.822c-.48-.123-.944-.276-1.421-.4l-4.2,16.356,2.862.735,4.2-16.357C121.149,266.035,120.668,265.945,120.188,265.822Z"/><path class="cls-2" d="M112.8,263.676c-.471-.154-.925-.335-1.393-.493l-5.218,16.06,2.81.913,5.218-16.06C113.745,263.948,113.272,263.829,112.8,263.676Z"/><path class="cls-2" d="M105.562,261.07c-.461-.183-.9-.393-1.36-.58l-6.216,15.7,2.747,1.088,6.216-15.7C106.488,261.4,106.022,261.252,105.562,261.07Z"/><path class="cls-2" d="M98.5,258.014c-.449-.211-.876-.448-1.321-.664l-7.19,15.28,2.674,1.258,7.19-15.279C99.405,258.4,98.949,258.225,98.5,258.014Z"/><path class="cls-2" d="M91.646,254.521c-.434-.239-.846-.5-1.277-.745l-8.135,14.8L84.824,270l8.135-14.8C92.523,254.966,92.08,254.76,91.646,254.521Z"/><path class="cls-2" d="M85.024,250.605c-.418-.266-.813-.554-1.227-.824l-9.048,14.258,2.494,1.583,9.049-14.258C85.872,251.1,85.442,250.87,85.024,250.605Z"/><path class="cls-2" d="M78.661,246.281c-.4-.292-.777-.605-1.173-.9l-9.926,13.661,2.391,1.737,9.926-13.662C79.476,246.832,79.062,246.572,78.661,246.281Z"/><path class="cls-2" d="M72.582,241.565c-.382-.316-.737-.652-1.115-.971L60.7,253.605l2.277,1.884,10.764-13.011C73.36,242.167,72.964,241.881,72.582,241.565Z"/><path class="cls-2" d="M66.811,236.477c-.361-.339-.7-.7-1.051-1.039L54.2,247.748l2.154,2.023,11.56-12.31C67.55,237.127,67.172,236.817,66.811,236.477Z"/><path class="cls-2" d="M61.371,231.037c-.339-.361-.65-.739-.984-1.1l-12.31,11.56,2.023,2.154,12.31-11.56C62.068,231.732,61.71,231.4,61.371,231.037Z"/><path class="cls-2" d="M56.283,225.266c-.316-.381-.6-.778-.913-1.162L42.359,234.868l1.884,2.277,13.011-10.764C56.935,226,56.6,225.648,56.283,225.266Z"/><path class="cls-2" d="M51.568,219.188c-.292-.4-.552-.815-.838-1.218L37.068,227.9l1.738,2.391,13.661-9.926C52.172,219.964,51.859,219.588,51.568,219.188Z"/><path class="cls-2" d="M47.243,212.824c-.265-.418-.5-.847-.76-1.268l-14.257,9.049,1.583,2.5,14.258-9.048C47.8,213.637,47.509,213.243,47.243,212.824Z"/><path class="cls-2" d="M43.327,206.2c-.239-.434-.445-.877-.679-1.313l-14.8,8.135,1.423,2.59,14.8-8.136C43.829,207.048,43.565,206.637,43.327,206.2Z"/><path class="cls-2" d="M39.834,199.347c-.211-.448-.389-.9-.594-1.353l-15.28,7.19,1.258,2.674,15.28-7.19C40.282,200.223,40.045,199.8,39.834,199.347Z"/><path class="cls-2" d="M36.779,192.286c-.183-.46-.332-.926-.509-1.387l-15.7,6.216,1.088,2.748,15.7-6.217C37.171,193.189,36.961,192.747,36.779,192.286Z"/><path class="cls-2" d="M34.173,185.048c-.154-.471-.273-.945-.421-1.417l-16.06,5.218.913,2.811,16.06-5.219C34.508,185.973,34.326,185.519,34.173,185.048Z"/><path class="cls-2" d="M32.026,177.66c-.123-.48-.213-.961-.331-1.441l-16.355,4.2.735,2.862,16.355-4.2C32.3,178.6,32.149,178.14,32.026,177.66Z"/><path class="cls-2" d="M30.348,170.152c-.093-.487-.152-.972-.239-1.459l-16.588,3.165.554,2.9L30.662,171.6C30.564,171.112,30.441,170.638,30.348,170.152Z"/><path class="cls-2" d="M29.144,162.553c-.062-.492-.09-.98-.147-1.471L12.243,163.2l.371,2.932,16.753-2.117C29.3,163.525,29.206,163.045,29.144,162.553Z"/><path class="cls-2" d="M28.42,154.894c-.031-.5-.029-.984-.055-1.477l-16.853,1.06.186,2.949,16.853-1.06C28.514,155.873,28.452,155.388,28.42,154.894Z"/><path class="cls-2" d="M28.179,147.2c0-.5.032-.983.038-1.477H11.33v2.955H28.217C28.211,148.187,28.179,147.7,28.179,147.2Z"/><path class="cls-2" d="M28.42,139.514c.032-.494.094-.979.131-1.472L11.7,136.982l-.186,2.949,16.853,1.061C28.391,140.5,28.389,140.009,28.42,139.514Z"/><path class="cls-2" d="M29.144,131.855c.062-.492.156-.971.223-1.461l-16.753-2.117-.371,2.932L29,133.326C29.054,132.835,29.082,132.347,29.144,131.855Z"/><path class="cls-2" d="M30.348,124.256c.093-.487.216-.959.314-1.444l-16.587-3.164-.554,2.9,16.588,3.164C30.2,125.228,30.255,124.743,30.348,124.256Z"/><path class="cls-2" d="M32.026,116.748c.123-.48.276-.944.4-1.421l-16.355-4.2-.735,2.862,16.355,4.2C31.813,117.709,31.9,117.228,32.026,116.748Z"/><path class="cls-2" d="M34.173,109.36c.153-.471.335-.925.492-1.393l-16.06-5.218-.913,2.81,16.06,5.218C33.9,110.305,34.019,109.832,34.173,109.36Z"/><path class="cls-2" d="M36.779,102.122c.182-.461.392-.9.579-1.36l-15.7-6.216-1.088,2.747,15.7,6.216C36.447,103.048,36.6,102.582,36.779,102.122Z"/><path class="cls-2" d="M39.834,95.061c.211-.449.448-.876.664-1.321l-15.28-7.19L23.96,89.224l15.28,7.19C39.445,95.965,39.623,95.509,39.834,95.061Z"/><path class="cls-2" d="M43.327,88.206c.238-.434.5-.846.745-1.277l-14.8-8.135-1.423,2.59,14.8,8.135C42.882,89.083,43.088,88.64,43.327,88.206Z"/><path class="cls-2" d="M47.243,81.584c.266-.418.555-.813.824-1.227L33.809,71.308,32.226,73.8l14.257,9.049C46.744,82.432,46.978,82,47.243,81.584Z"/><path class="cls-2" d="M51.568,75.221c.291-.4.6-.777.9-1.173L38.806,64.122l-1.738,2.391L50.73,76.439C51.016,76.035,51.276,75.622,51.568,75.221Z"/><path class="cls-2" d="M56.283,69.142c.316-.382.652-.737.971-1.115L44.243,57.264l-1.884,2.277L55.37,70.305C55.681,69.92,55.967,69.524,56.283,69.142Z"/><path class="cls-2" d="M61.371,63.371c.339-.361.7-.7,1.039-1.051L50.1,50.76l-2.023,2.154,12.31,11.56C60.721,64.11,61.032,63.732,61.371,63.371Z"/><path class="cls-2" d="M66.811,57.931c.361-.339.739-.65,1.1-.984l-11.56-12.31L54.2,46.66,65.76,58.97C66.116,58.628,66.45,58.27,66.811,57.931Z"/><path class="cls-2" d="M72.582,52.843c.382-.316.778-.6,1.163-.913L62.981,38.919,60.7,40.8,71.467,53.814C71.845,53.5,72.2,53.159,72.582,52.843Z"/><path class="cls-2" d="M78.661,48.128c.4-.292.815-.552,1.218-.838L69.953,33.628l-2.391,1.737,9.926,13.662C77.884,48.732,78.26,48.419,78.661,48.128Z"/><path class="cls-2" d="M85.024,43.8c.418-.265.848-.5,1.268-.76L77.243,28.786l-2.494,1.583L83.8,44.627C84.211,44.358,84.606,44.069,85.024,43.8Z"/><path class="cls-2" d="M91.646,39.887c.434-.239.877-.445,1.313-.679l-8.135-14.8-2.59,1.423,8.135,14.8C90.8,40.389,91.212,40.125,91.646,39.887Z"/><path class="cls-2" d="M98.5,36.394c.448-.211.9-.389,1.353-.594l-7.19-15.28L89.99,21.778l7.19,15.28C97.625,36.842,98.052,36.6,98.5,36.394Z"/><path class="cls-2" d="M105.562,33.339c.46-.183.926-.332,1.387-.509l-6.216-15.7-2.747,1.088,6.216,15.7C104.659,33.731,105.1,33.521,105.562,33.339Z"/><path class="cls-2" d="M112.8,30.733c.472-.154.945-.273,1.417-.421L109,14.252l-2.81.913,5.218,16.06C111.875,31.067,112.329,30.886,112.8,30.733Z"/><path class="cls-2" d="M120.188,28.586c.48-.123.961-.213,1.441-.331l-4.2-16.355-2.862.735,4.2,16.355C119.244,28.862,119.708,28.709,120.188,28.586Z"/><path class="cls-2" d="M127.7,26.908c.487-.093.972-.152,1.459-.239l-3.164-16.588-2.9.554,3.164,16.587C126.737,27.124,127.209,27,127.7,26.908Z"/><path class="cls-2" d="M135.295,25.7c.492-.062.98-.09,1.471-.147L134.649,8.8l-2.931.371,2.116,16.753C134.324,25.86,134.8,25.766,135.295,25.7Z"/><path class="cls-2" d="M142.954,24.98c.5-.031.984-.029,1.478-.055L143.371,8.072l-2.949.186,1.06,16.853C141.975,25.074,142.46,25.012,142.954,24.98Z"/><path class="cls-3" d="M114.824,112.928h-2a1.844,1.844,0,0,0-1.9,1.905v.7c0,3.6-1.7,5.209-4.709,5.209h-.9a1.841,1.841,0,0,0-1.905,1.9v2.2a1.841,1.841,0,0,0,1.905,1.9h4.2v48.482a1.842,1.842,0,0,0,1.9,1.9h3.406a1.841,1.841,0,0,0,1.9-1.9v-60.4A1.841,1.841,0,0,0,114.824,112.928Z"/><path class="cls-3" d="M137.565,112.328c-8.312,0-12.822,5.609-12.822,32.654s4.51,32.757,12.822,32.757,12.821-5.71,12.821-32.757S145.88,112.328,137.565,112.328Zm0,58.9c-3.6,0-5.607-2.3-5.607-26.245s2-26.144,5.607-26.144,5.611,2.206,5.611,26.144S141.172,171.227,137.565,171.227Z"/><path class="cls-3" d="M174.834,127.655c0-10.419-3.1-15.729-9.915-15.729-6.613,0-9.919,5.31-9.919,15.729,0,10.316,3.306,15.726,9.919,15.726C171.729,143.381,174.834,137.971,174.834,127.655Zm-13.922,0c0-6.813.8-10.318,4.007-10.318,3.306,0,4.007,3.5,4.007,10.318,0,6.709-.7,10.316-4.007,10.316C161.711,137.971,160.912,134.364,160.912,127.655Z"/><path class="cls-3" d="M191.865,112.928h-2a2.888,2.888,0,0,0-2.507,1.905l-28.145,60.4c-.5,1.1.2,1.9,1.3,1.9h2a2.884,2.884,0,0,0,2.5-1.9l28.149-60.4C193.666,113.73,192.965,112.928,191.865,112.928Z"/><path class="cls-3" d="M187.457,146.687c-6.613,0-9.919,5.308-9.919,15.726,0,10.317,3.306,15.726,9.919,15.726,6.811,0,9.916-5.409,9.916-15.726C197.373,152,194.268,146.687,187.457,146.687Zm0,26.043c-3.207,0-4.007-3.608-4.007-10.317,0-6.813.8-10.317,4.007-10.317,3.3,0,4.008,3.5,4.008,10.317C191.465,169.122,190.76,172.73,187.457,172.73Z"/></svg>