<svg id="Layer_1" data-name="Layer 1" xmlns="http://www.w3.org/2000/svg" viewBox="0 0 300 300"><defs><style>.cls-1{fill:#f21b16;}.cls-2{fill:#e6e6e6;}.cls-3{fill:#5e5e5e;}</style></defs><path class="cls-1" d="M236.713,58.911a121.838,121.838,0,0,0-84.808-34.134l-1.373.008L150.318,7.9l1.587-.009a138.649,138.649,0,0,1,96.508,38.842Z"/><path class="cls-2" d="M241.178,63.371c.339.361.649.739.983,1.1l12.31-11.56-2.023-2.154-12.31,11.56C240.481,62.676,240.838,63.01,241.178,63.371Z"/><path class="cls-2" d="M246.266,69.142c.315.382.6.778.912,1.163L260.19,59.541l-1.884-2.277L245.294,68.027C245.613,68.405,245.95,68.76,246.266,69.142Z"/><path class="cls-2" d="M250.981,75.221c.291.4.552.814.837,1.218l13.662-9.926-1.737-2.391-13.661,9.926C250.377,74.444,250.69,74.82,250.981,75.221Z"/><path class="cls-2" d="M255.306,81.584c.265.418.5.848.759,1.268L270.323,73.8l-1.584-2.495-14.258,9.049C254.751,80.771,255.04,81.166,255.306,81.584Z"/><path class="cls-2" d="M259.221,88.206c.239.434.446.877.679,1.313l14.8-8.135-1.424-2.59-14.8,8.135C258.72,87.36,258.983,87.772,259.221,88.206Z"/><path class="cls-2" d="M262.715,95.061c.211.448.389.9.594,1.353l15.279-7.19L277.33,86.55l-15.279,7.19C262.266,94.185,262.5,94.612,262.715,95.061Z"/><path class="cls-2" d="M265.77,102.122c.182.46.331.926.508,1.387l15.7-6.216-1.088-2.747-15.7,6.216C265.377,101.219,265.587,101.661,265.77,102.122Z"/><path class="cls-2" d="M268.376,109.36c.153.472.273.945.42,1.417l16.06-5.218-.913-2.81-16.06,5.218C268.041,108.435,268.223,108.889,268.376,109.36Z"/><path class="cls-2" d="M270.522,116.748c.124.48.213.961.331,1.441l16.356-4.2-.735-2.862-16.356,4.2C270.246,115.8,270.4,116.268,270.522,116.748Z"/><path class="cls-2" d="M272.2,124.256c.092.487.152.972.239,1.459l16.587-3.164-.553-2.9-16.588,3.164C271.984,123.3,272.108,123.769,272.2,124.256Z"/><path class="cls-2" d="M273.4,131.855c.062.492.091.98.147,1.471l16.754-2.117-.371-2.932-16.753,2.117C273.249,130.884,273.342,131.363,273.4,131.855Z"/><path class="cls-2" d="M274.128,139.514c.031.495.029.984.055,1.478l16.853-1.061-.186-2.949L274,138.042C274.034,138.535,274.1,139.02,274.128,139.514Z"/><path class="cls-2" d="M274.37,147.2c0,.5-.033.983-.038,1.478h16.886v-2.955H274.332C274.337,146.221,274.37,146.709,274.37,147.2Z"/><path class="cls-2" d="M274.128,154.894c-.031.494-.094.979-.131,1.472l16.853,1.06.186-2.949-16.853-1.06C274.157,153.91,274.159,154.4,274.128,154.894Z"/><path class="cls-2" d="M273.4,162.553c-.062.492-.155.972-.223,1.461l16.753,2.117.371-2.932-16.754-2.117C273.5,161.573,273.466,162.061,273.4,162.553Z"/><path class="cls-2" d="M272.2,170.152c-.093.486-.217.96-.315,1.444l16.588,3.164.553-2.9-16.587-3.165C272.353,169.18,272.293,169.665,272.2,170.152Z"/><path class="cls-2" d="M270.522,177.66c-.123.48-.276.944-.4,1.422l16.356,4.2.735-2.862-16.356-4.2C270.735,176.7,270.646,177.18,270.522,177.66Z"/><path class="cls-2" d="M268.376,185.048c-.153.471-.335.925-.493,1.393l16.06,5.219.913-2.811-16.06-5.218C268.649,184.1,268.529,184.577,268.376,185.048Z"/><path class="cls-2" d="M265.77,192.286c-.183.461-.393.9-.58,1.36l15.7,6.217,1.088-2.748-15.7-6.216C266.1,191.36,265.952,191.826,265.77,192.286Z"/><path class="cls-2" d="M262.715,199.347c-.212.449-.449.876-.664,1.321l15.279,7.19,1.258-2.674-15.279-7.19C263.1,198.444,262.926,198.9,262.715,199.347Z"/><path class="cls-2" d="M259.221,206.2c-.238.435-.5.846-.745,1.276l14.8,8.136,1.424-2.59-14.8-8.135C259.667,205.325,259.46,205.768,259.221,206.2Z"/><path class="cls-2" d="M255.306,212.824c-.266.419-.555.813-.825,1.228l14.258,9.048,1.584-2.5-14.258-9.049C255.805,211.977,255.571,212.406,255.306,212.824Z"/><path class="cls-2" d="M250.981,219.188c-.291.4-.6.776-.9,1.172l13.661,9.926,1.737-2.391-13.662-9.925C251.533,218.373,251.272,218.787,250.981,219.188Z"/><path class="cls-2" d="M246.266,225.266c-.316.382-.653.737-.972,1.115l13.012,10.764,1.884-2.277L247.178,224.1C246.867,224.488,246.581,224.885,246.266,225.266Z"/><path class="cls-2" d="M241.178,231.037c-.34.362-.7.695-1.04,1.051l12.31,11.56,2.023-2.154-12.31-11.56C241.827,230.3,241.517,230.676,241.178,231.037Z"/><path class="cls-2" d="M235.738,236.477c-.362.34-.739.65-1.1.984l11.559,12.31,2.154-2.023-11.559-12.31C236.432,235.781,236.1,236.138,235.738,236.477Z"/><path class="cls-2" d="M229.967,241.565c-.382.316-.779.6-1.163.913l10.764,13.011,2.277-1.884-10.764-13.011C230.7,240.913,230.348,241.249,229.967,241.565Z"/><path class="cls-2" d="M223.888,246.281c-.4.291-.815.551-1.218.837L232.6,260.78l2.39-1.737-9.925-13.661C224.664,245.676,224.289,245.989,223.888,246.281Z"/><path class="cls-2" d="M217.524,250.605c-.418.265-.847.5-1.267.759l9.048,14.258,2.5-1.583-9.048-14.258C218.338,250.051,217.943,250.339,217.524,250.605Z"/><path class="cls-2" d="M210.9,254.521c-.434.239-.877.445-1.312.679l8.135,14.8,2.589-1.423-8.135-14.8C211.748,254.019,211.337,254.282,210.9,254.521Z"/><path class="cls-2" d="M204.048,258.014c-.449.211-.9.389-1.354.595l7.191,15.279,2.673-1.258-7.19-15.28C204.923,257.566,204.5,257.8,204.048,258.014Z"/><path class="cls-2" d="M196.987,261.07c-.461.182-.926.331-1.388.508l6.216,15.7,2.748-1.088-6.216-15.7C197.889,260.677,197.448,260.887,196.987,261.07Z"/><path class="cls-2" d="M189.748,263.676c-.471.153-.945.272-1.417.42l5.218,16.06,2.811-.913-5.218-16.06C190.674,263.341,190.22,263.522,189.748,263.676Z"/><path class="cls-2" d="M182.36,265.822c-.48.123-.96.213-1.44.33l4.2,16.357,2.862-.735-4.2-16.356C183.305,265.546,182.84,265.7,182.36,265.822Z"/><path class="cls-2" d="M174.852,267.5c-.487.093-.972.152-1.458.24l3.164,16.587,2.9-.554L176.3,267.186C175.812,267.284,175.339,267.407,174.852,267.5Z"/><path class="cls-2" d="M167.253,268.7c-.491.062-.979.091-1.47.147L167.9,285.6l2.932-.37-2.117-16.753C168.225,268.548,167.745,268.641,167.253,268.7Z"/><path class="cls-2" d="M159.594,269.428c-.494.031-.983.029-1.477.054l1.06,16.854,2.95-.186L161.066,269.3C160.573,269.333,160.089,269.4,159.594,269.428Z"/><path class="cls-2" d="M151.9,269.669c-.5,0-.983-.032-1.477-.038v16.887h2.955V269.631C152.888,269.637,152.4,269.669,151.9,269.669Z"/><path class="cls-2" d="M144.215,269.428c-.5-.031-.979-.095-1.473-.131l-1.06,16.853,2.95.186,1.06-16.854C145.2,269.457,144.709,269.459,144.215,269.428Z"/><path class="cls-2" d="M136.555,268.7c-.491-.063-.971-.156-1.461-.223l-2.116,16.753,2.932.37,2.116-16.753C137.535,268.8,137.047,268.766,136.555,268.7Z"/><path class="cls-2" d="M128.957,267.5c-.487-.093-.96-.216-1.444-.314l-3.165,16.587,2.9.554,3.164-16.587C129.929,267.652,129.444,267.593,128.957,267.5Z"/><path class="cls-2" d="M121.449,265.822c-.48-.123-.945-.276-1.422-.4l-4.2,16.356,2.863.735,4.2-16.357C122.409,266.035,121.929,265.945,121.449,265.822Z"/><path class="cls-2" d="M114.061,263.676c-.472-.154-.926-.335-1.394-.493l-5.218,16.06,2.81.913,5.219-16.06C115.006,263.948,114.532,263.829,114.061,263.676Z"/><path class="cls-2" d="M106.822,261.07c-.461-.183-.9-.393-1.36-.58l-6.216,15.7,2.747,1.088,6.217-15.7C107.748,261.4,107.283,261.252,106.822,261.07Z"/><path class="cls-2" d="M99.761,258.014c-.448-.211-.876-.448-1.321-.664l-7.19,15.28,2.674,1.258,7.19-15.279C100.665,258.4,100.21,258.225,99.761,258.014Z"/><path class="cls-2" d="M92.906,254.521c-.434-.239-.846-.5-1.276-.745l-8.135,14.8L86.084,270l8.135-14.8C93.784,254.966,93.341,254.76,92.906,254.521Z"/><path class="cls-2" d="M86.284,250.605c-.418-.266-.813-.554-1.227-.824l-9.048,14.258,2.5,1.583,9.048-14.258C87.132,251.1,86.7,250.87,86.284,250.605Z"/><path class="cls-2" d="M79.921,246.281c-.4-.292-.777-.605-1.173-.9l-9.925,13.661,2.39,1.737,9.926-13.662C80.736,246.832,80.322,246.572,79.921,246.281Z"/><path class="cls-2" d="M73.842,241.565c-.382-.316-.737-.652-1.114-.971L61.964,253.605l2.277,1.884,10.764-13.011C74.621,242.167,74.224,241.881,73.842,241.565Z"/><path class="cls-2" d="M68.071,236.477c-.361-.339-.694-.7-1.051-1.039l-11.56,12.31,2.155,2.023,11.559-12.31C68.81,237.127,68.433,236.817,68.071,236.477Z"/><path class="cls-2" d="M62.631,231.037c-.339-.361-.65-.739-.984-1.1l-12.309,11.56,2.023,2.154,12.309-11.56C63.328,231.732,62.97,231.4,62.631,231.037Z"/><path class="cls-2" d="M57.543,225.266c-.316-.381-.6-.778-.912-1.162L43.619,234.868l1.884,2.277,13.011-10.764C58.2,226,57.859,225.648,57.543,225.266Z"/><path class="cls-2" d="M52.828,219.188c-.292-.4-.552-.815-.838-1.218L38.328,227.9l1.738,2.391,13.661-9.926C53.432,219.964,53.119,219.588,52.828,219.188Z"/><path class="cls-2" d="M48.5,212.824c-.265-.418-.5-.847-.759-1.268l-14.258,9.049,1.583,2.5,14.259-9.048C49.058,213.637,48.769,213.243,48.5,212.824Z"/><path class="cls-2" d="M44.587,206.2c-.238-.434-.445-.877-.678-1.313l-14.8,8.135,1.424,2.59,14.8-8.136C45.089,207.048,44.826,206.637,44.587,206.2Z"/><path class="cls-2" d="M41.094,199.347c-.211-.448-.389-.9-.594-1.353l-15.28,7.19,1.259,2.674,15.279-7.19C41.542,200.223,41.306,199.8,41.094,199.347Z"/><path class="cls-2" d="M38.039,192.286c-.182-.46-.332-.926-.508-1.387l-15.7,6.216,1.088,2.748,15.7-6.217C38.431,193.189,38.221,192.747,38.039,192.286Z"/><path class="cls-2" d="M35.433,185.048c-.153-.471-.273-.945-.421-1.417l-16.06,5.218.914,2.811,16.06-5.219C35.768,185.973,35.586,185.519,35.433,185.048Z"/><path class="cls-2" d="M33.287,177.66c-.124-.48-.214-.961-.331-1.441l-16.356,4.2.735,2.862,16.356-4.2C33.563,178.6,33.41,178.14,33.287,177.66Z"/><path class="cls-2" d="M31.608,170.152c-.093-.487-.152-.972-.239-1.459l-16.588,3.165.554,2.9L31.923,171.6C31.825,171.112,31.7,170.638,31.608,170.152Z"/><path class="cls-2" d="M30.405,162.553c-.063-.492-.091-.98-.148-1.471L13.5,163.2l.37,2.932,16.754-2.117C30.56,163.525,30.467,163.045,30.405,162.553Z"/><path class="cls-2" d="M29.681,154.894c-.031-.5-.03-.984-.055-1.477l-16.853,1.06.185,2.949,16.853-1.06C29.775,155.873,29.712,155.388,29.681,154.894Z"/><path class="cls-2" d="M29.439,147.2c0-.5.033-.983.038-1.477H12.59v2.955H29.477C29.472,148.187,29.439,147.7,29.439,147.2Z"/><path class="cls-2" d="M29.681,139.514c.031-.494.094-.979.13-1.472l-16.853-1.06-.185,2.949,16.853,1.061C29.651,140.5,29.65,140.009,29.681,139.514Z"/><path class="cls-2" d="M30.405,131.855c.062-.492.155-.971.223-1.461l-16.754-2.117-.37,2.932,16.753,2.117C30.314,132.835,30.342,132.347,30.405,131.855Z"/><path class="cls-2" d="M31.608,124.256c.093-.487.217-.959.315-1.444l-16.588-3.164-.554,2.9,16.588,3.164C31.456,125.228,31.515,124.743,31.608,124.256Z"/><path class="cls-2" d="M33.287,116.748c.123-.48.276-.944.4-1.421l-16.356-4.2-.735,2.862,16.356,4.2C33.073,117.709,33.163,117.228,33.287,116.748Z"/><path class="cls-2" d="M35.433,109.36c.153-.471.335-.925.493-1.393l-16.06-5.218-.914,2.81,16.06,5.218C35.16,110.305,35.28,109.832,35.433,109.36Z"/><path class="cls-2" d="M38.039,102.122c.182-.461.392-.9.58-1.36l-15.7-6.216L21.83,97.293l15.7,6.216C37.707,103.048,37.857,102.582,38.039,102.122Z"/><path class="cls-2" d="M41.094,95.061c.212-.449.448-.876.664-1.321L26.479,86.55,25.22,89.224l15.28,7.19C40.705,95.965,40.883,95.509,41.094,95.061Z"/><path class="cls-2" d="M44.587,88.206c.239-.434.5-.846.746-1.277l-14.8-8.135-1.424,2.59,14.8,8.135C44.142,89.083,44.349,88.64,44.587,88.206Z"/><path class="cls-2" d="M48.5,81.584c.266-.418.555-.813.825-1.227L35.069,71.308,33.486,73.8l14.258,9.049C48,82.432,48.238,82,48.5,81.584Z"/><path class="cls-2" d="M52.828,75.221c.291-.4.6-.777.9-1.173L40.066,64.122l-1.738,2.391L51.99,76.439C52.276,76.035,52.536,75.622,52.828,75.221Z"/><path class="cls-2" d="M57.543,69.142c.316-.382.652-.737.971-1.115L45.5,57.264l-1.884,2.277L56.631,70.305C56.942,69.92,57.227,69.524,57.543,69.142Z"/><path class="cls-2" d="M62.631,63.371c.339-.361.7-.7,1.039-1.051L51.361,50.76l-2.023,2.154,12.309,11.56C61.981,64.11,62.292,63.732,62.631,63.371Z"/><path class="cls-2" d="M68.071,57.931c.362-.339.739-.65,1.1-.984L57.615,44.637,55.46,46.66,67.02,58.97C67.377,58.628,67.71,58.27,68.071,57.931Z"/><path class="cls-2" d="M73.842,52.843c.382-.316.779-.6,1.163-.913L64.241,38.919,61.964,40.8,72.728,53.814C73.105,53.5,73.46,53.159,73.842,52.843Z"/><path class="cls-2" d="M79.921,48.128c.4-.292.815-.552,1.218-.838L71.213,33.628l-2.39,1.737,9.925,13.662C79.144,48.732,79.52,48.419,79.921,48.128Z"/><path class="cls-2" d="M86.284,43.8c.418-.265.848-.5,1.268-.76L78.5,28.786l-2.5,1.583,9.048,14.258C85.471,44.358,85.866,44.069,86.284,43.8Z"/><path class="cls-2" d="M92.906,39.887c.435-.239.878-.445,1.313-.679l-8.135-14.8L83.5,25.834l8.135,14.8C92.06,40.389,92.472,40.125,92.906,39.887Z"/><path class="cls-2" d="M99.761,36.394c.449-.211.9-.389,1.353-.594l-7.19-15.28L91.25,21.778l7.19,15.28C98.885,36.842,99.313,36.6,99.761,36.394Z"/><path class="cls-2" d="M106.822,33.339c.461-.183.926-.332,1.388-.509l-6.217-15.7-2.747,1.088,6.216,15.7C105.92,33.731,106.361,33.521,106.822,33.339Z"/><path class="cls-2" d="M114.061,30.733c.471-.154.945-.273,1.417-.421l-5.219-16.06-2.81.913,5.218,16.06C113.135,31.067,113.589,30.886,114.061,30.733Z"/><path class="cls-2" d="M121.449,28.586c.48-.123.96-.213,1.44-.331L118.69,11.9l-2.863.735,4.2,16.355C120.5,28.862,120.969,28.709,121.449,28.586Z"/><path class="cls-2" d="M128.957,26.908c.487-.093.972-.152,1.458-.239l-3.164-16.588-2.9.554,3.165,16.587C128,27.124,128.47,27,128.957,26.908Z"/><path class="cls-2" d="M136.555,25.7c.492-.062.98-.09,1.471-.147L135.91,8.8l-2.932.371,2.116,16.753C135.584,25.86,136.064,25.766,136.555,25.7Z"/><path class="cls-2" d="M144.215,24.98c.494-.031.983-.029,1.477-.055l-1.06-16.853-2.95.186,1.06,16.853C143.236,25.074,143.72,25.012,144.215,24.98Z"/><path class="cls-3" d="M117.938,112.928h-2a1.844,1.844,0,0,0-1.9,1.905v.7c0,3.6-1.7,5.209-4.708,5.209h-.9a1.841,1.841,0,0,0-1.905,1.9v2.2a1.841,1.841,0,0,0,1.905,1.9h4.2v48.482a1.842,1.842,0,0,0,1.905,1.9h3.405a1.841,1.841,0,0,0,1.9-1.9v-60.4A1.841,1.841,0,0,0,117.938,112.928Z"/><path class="cls-3" d="M138.576,112.328c-8.014,0-12.322,3.806-12.322,16.027a2.373,2.373,0,0,0,2.506,2.705h2.4c1.5,0,2.1-1.2,2-3.307-.3-4.908.4-9.115,5.108-9.115,3.806,0,5.71,2.5,5.71,9.917,0,13.925-10.719,25.443-17.229,41.169a7.828,7.828,0,0,0-.6,3.206v2.4a1.737,1.737,0,0,0,1.806,1.8H148.6a1.841,1.841,0,0,0,1.9-1.9v-2.605a1.841,1.841,0,0,0-1.9-1.9H133.468C138.976,156.6,151.2,143.78,151.2,129.557,151.2,117.337,146.69,112.328,138.576,112.328Z"/><path class="cls-3" d="M186.865,146.687c-6.612,0-9.919,5.308-9.919,15.726,0,10.317,3.307,15.726,9.919,15.726,6.811,0,9.915-5.409,9.915-15.726C196.78,152,193.676,146.687,186.865,146.687Zm0,26.043c-3.207,0-4.007-3.608-4.007-10.317,0-6.813.8-10.317,4.007-10.317,3.3,0,4.007,3.5,4.007,10.317C190.872,169.122,190.167,172.73,186.865,172.73Z"/><path class="cls-3" d="M191.272,112.928h-2a2.893,2.893,0,0,0-2.507,1.905l-28.145,60.4c-.5,1.1.2,1.9,1.3,1.9h2a2.884,2.884,0,0,0,2.5-1.9l28.149-60.4C193.074,113.73,192.373,112.928,191.272,112.928Z"/><path class="cls-3" d="M174.242,127.655c0-10.419-3.1-15.729-9.916-15.729-6.612,0-9.919,5.31-9.919,15.729,0,10.316,3.307,15.726,9.919,15.726C171.137,143.381,174.242,137.971,174.242,127.655Zm-13.923,0c0-6.813.8-10.318,4.007-10.318,3.307,0,4.008,3.5,4.008,10.318,0,6.709-.7,10.316-4.008,10.316C161.119,137.971,160.319,134.364,160.319,127.655Z"/></svg>