<svg id="Layer_1" data-name="Layer 1" xmlns="http://www.w3.org/2000/svg" viewBox="0 0 300 300"><defs><style>.cls-1{fill:#f21b16;}.cls-2{fill:#e6e6e6;}.cls-3{fill:#5e5e5e;}</style></defs><path class="cls-1" d="M242.759,64.452a122.767,122.767,0,0,0-90.224-39.675l-1.369.008L150.951,7.9l1.584-.009A139.713,139.713,0,0,1,255.2,53.032Z"/><path class="cls-2" d="M246.9,69.142c.315.382.6.778.912,1.163l13.011-10.764-1.883-2.277L245.925,68.027C246.244,68.405,246.58,68.76,246.9,69.142Z"/><path class="cls-2" d="M251.611,75.221c.292.4.551.814.838,1.218l13.661-9.926-1.737-2.391-13.661,9.926C251.007,74.444,251.32,74.82,251.611,75.221Z"/><path class="cls-2" d="M255.935,81.584c.266.418.5.848.76,1.268L270.953,73.8l-1.584-2.495-14.258,9.049C255.381,80.771,255.67,81.166,255.935,81.584Z"/><path class="cls-2" d="M259.852,88.206c.238.434.445.877.678,1.313l14.8-8.135-1.424-2.59-14.8,8.135C259.349,87.36,259.613,87.772,259.852,88.206Z"/><path class="cls-2" d="M263.344,95.061c.211.448.39.9.6,1.353l15.279-7.19L277.96,86.55l-15.279,7.19C262.9,94.185,263.133,94.612,263.344,95.061Z"/><path class="cls-2" d="M266.4,102.122c.182.46.332.926.508,1.387l15.7-6.216-1.088-2.747-15.7,6.216C266.008,101.219,266.218,101.661,266.4,102.122Z"/><path class="cls-2" d="M269.006,109.36c.153.472.273.945.42,1.417l16.06-5.218-.913-2.81-16.06,5.218C268.671,108.435,268.853,108.889,269.006,109.36Z"/><path class="cls-2" d="M271.152,116.748c.124.48.213.961.331,1.441l16.356-4.2-.735-2.862-16.356,4.2C270.876,115.8,271.029,116.268,271.152,116.748Z"/><path class="cls-2" d="M272.831,124.256c.093.487.152.972.239,1.459l16.587-3.164-.553-2.9-16.588,3.164C272.614,123.3,272.738,123.769,272.831,124.256Z"/><path class="cls-2" d="M274.034,131.855c.062.492.091.98.148,1.471l16.753-2.117-.37-2.932-16.754,2.117C273.879,130.884,273.972,131.363,274.034,131.855Z"/><path class="cls-2" d="M274.758,139.514c.031.495.029.984.055,1.478l16.853-1.061-.185-2.949-16.853,1.06C274.664,138.535,274.727,139.02,274.758,139.514Z"/><path class="cls-2" d="M275,147.2c0,.5-.033.983-.038,1.478h16.886v-2.955H274.962C274.967,146.221,275,146.709,275,147.2Z"/><path class="cls-2" d="M274.758,154.894c-.031.494-.094.979-.13,1.472l16.853,1.06.185-2.949-16.853-1.06C274.787,153.91,274.789,154.4,274.758,154.894Z"/><path class="cls-2" d="M274.034,162.553c-.062.492-.155.972-.223,1.461l16.754,2.117.37-2.932-16.753-2.117C274.125,161.573,274.1,162.061,274.034,162.553Z"/><path class="cls-2" d="M272.831,170.152c-.093.486-.217.96-.315,1.444L289.1,174.76l.553-2.9-16.587-3.165C272.983,169.18,272.924,169.665,272.831,170.152Z"/><path class="cls-2" d="M271.152,177.66c-.123.48-.276.944-.4,1.422l16.356,4.2.735-2.862-16.356-4.2C271.365,176.7,271.276,177.18,271.152,177.66Z"/><path class="cls-2" d="M269.006,185.048c-.153.471-.335.925-.493,1.393l16.06,5.219.913-2.811-16.06-5.218C269.279,184.1,269.159,184.577,269.006,185.048Z"/><path class="cls-2" d="M266.4,192.286c-.182.461-.392.9-.58,1.36l15.7,6.217,1.088-2.748-15.7-6.216C266.732,191.36,266.582,191.826,266.4,192.286Z"/><path class="cls-2" d="M263.344,199.347c-.211.449-.448.876-.663,1.321l15.279,7.19,1.258-2.674-15.279-7.19C263.734,198.444,263.555,198.9,263.344,199.347Z"/><path class="cls-2" d="M259.852,206.2c-.239.435-.5.846-.745,1.276l14.8,8.136,1.424-2.59-14.8-8.135C260.3,205.325,260.09,205.768,259.852,206.2Z"/><path class="cls-2" d="M255.935,212.824c-.265.419-.554.813-.824,1.228l14.258,9.048,1.584-2.5L256.7,211.556C256.435,211.977,256.2,212.406,255.935,212.824Z"/><path class="cls-2" d="M251.611,219.188c-.291.4-.6.776-.9,1.172l13.661,9.926,1.737-2.391-13.661-9.925C252.162,218.373,251.9,218.787,251.611,219.188Z"/><path class="cls-2" d="M246.9,225.266c-.316.382-.652.737-.971,1.115l13.011,10.764,1.883-2.277L247.808,224.1C247.5,224.488,247.211,224.885,246.9,225.266Z"/><path class="cls-2" d="M241.808,231.037c-.339.362-.7.695-1.039,1.051l12.309,11.56,2.023-2.154-12.309-11.56C242.457,230.3,242.147,230.676,241.808,231.037Z"/><path class="cls-2" d="M236.368,236.477c-.362.34-.74.65-1.1.984l11.559,12.31,2.155-2.023-11.56-12.31C237.062,235.781,236.729,236.138,236.368,236.477Z"/><path class="cls-2" d="M230.6,241.565c-.382.316-.779.6-1.163.913L240.2,255.489l2.277-1.884-10.764-13.011C231.334,240.913,230.979,241.249,230.6,241.565Z"/><path class="cls-2" d="M224.518,246.281c-.4.291-.815.551-1.218.837l9.926,13.662,2.39-1.737-9.925-13.661C225.294,245.676,224.919,245.989,224.518,246.281Z"/><path class="cls-2" d="M218.155,250.605c-.419.265-.848.5-1.268.759l9.048,14.258,2.5-1.583-9.048-14.258C218.967,250.051,218.573,250.339,218.155,250.605Z"/><path class="cls-2" d="M211.533,254.521c-.435.239-.878.445-1.314.679l8.135,14.8,2.59-1.423-8.135-14.8C212.379,254.019,211.967,254.282,211.533,254.521Z"/><path class="cls-2" d="M204.678,258.014c-.449.211-.9.389-1.353.595l7.189,15.279,2.674-1.258L206,257.35C205.554,257.566,205.126,257.8,204.678,258.014Z"/><path class="cls-2" d="M197.617,261.07c-.461.182-.926.331-1.388.508l6.217,15.7,2.747-1.088-6.216-15.7C198.519,260.677,198.078,260.887,197.617,261.07Z"/><path class="cls-2" d="M190.379,263.676c-.472.153-.946.272-1.418.42l5.219,16.06,2.81-.913-5.218-16.06C191.3,263.341,190.85,263.522,190.379,263.676Z"/><path class="cls-2" d="M182.99,265.822c-.48.123-.96.213-1.44.33l4.2,16.357,2.862-.735-4.2-16.356C183.935,265.546,183.47,265.7,182.99,265.822Z"/><path class="cls-2" d="M175.482,267.5c-.487.093-.972.152-1.459.24l3.165,16.587,2.9-.554-3.165-16.587C176.442,267.284,175.969,267.407,175.482,267.5Z"/><path class="cls-2" d="M167.884,268.7c-.492.062-.98.091-1.471.147l2.116,16.753,2.932-.37-2.116-16.753C168.855,268.548,168.375,268.641,167.884,268.7Z"/><path class="cls-2" d="M160.224,269.428c-.495.031-.983.029-1.477.054l1.06,16.854,2.95-.186L161.7,269.3C161.2,269.333,160.719,269.4,160.224,269.428Z"/><path class="cls-2" d="M152.535,269.669c-.5,0-.984-.032-1.478-.038v16.887h2.955V269.631C153.518,269.637,153.03,269.669,152.535,269.669Z"/><path class="cls-2" d="M144.845,269.428c-.5-.031-.98-.095-1.473-.131l-1.06,16.853,2.95.186,1.06-16.854C145.828,269.457,145.339,269.459,144.845,269.428Z"/><path class="cls-2" d="M137.186,268.7c-.492-.063-.972-.156-1.462-.223l-2.116,16.753,2.932.37,2.116-16.753C138.165,268.8,137.677,268.766,137.186,268.7Z"/><path class="cls-2" d="M129.587,267.5c-.487-.093-.96-.216-1.445-.314l-3.164,16.587,2.9.554,3.164-16.587C130.559,267.652,130.073,267.593,129.587,267.5Z"/><path class="cls-2" d="M122.078,265.822c-.48-.123-.944-.276-1.421-.4l-4.2,16.356,2.863.735,4.2-16.357C123.039,266.035,122.558,265.945,122.078,265.822Z"/><path class="cls-2" d="M114.691,263.676c-.472-.154-.926-.335-1.394-.493l-5.218,16.06,2.81.913,5.218-16.06C115.636,263.948,115.162,263.829,114.691,263.676Z"/><path class="cls-2" d="M107.452,261.07c-.461-.183-.9-.393-1.36-.58l-6.216,15.7,2.747,1.088,6.217-15.7C108.378,261.4,107.913,261.252,107.452,261.07Z"/><path class="cls-2" d="M100.391,258.014c-.448-.211-.875-.448-1.32-.664l-7.19,15.28,2.673,1.258,7.191-15.279C101.3,258.4,100.84,258.225,100.391,258.014Z"/><path class="cls-2" d="M93.536,254.521c-.434-.239-.846-.5-1.276-.745l-8.135,14.8L86.714,270l8.135-14.8C94.414,254.966,93.97,254.76,93.536,254.521Z"/><path class="cls-2" d="M86.914,250.605c-.418-.266-.813-.554-1.227-.824l-9.048,14.258,2.5,1.583,9.048-14.258C87.762,251.1,87.333,250.87,86.914,250.605Z"/><path class="cls-2" d="M80.551,246.281c-.4-.292-.776-.605-1.173-.9l-9.926,13.661,2.391,1.737,9.926-13.662C81.366,246.832,80.952,246.572,80.551,246.281Z"/><path class="cls-2" d="M74.472,241.565c-.382-.316-.737-.652-1.114-.971L62.594,253.605l2.277,1.884,10.764-13.011C75.25,242.167,74.854,241.881,74.472,241.565Z"/><path class="cls-2" d="M68.7,236.477c-.361-.339-.694-.7-1.051-1.039l-11.559,12.31,2.154,2.023L69.8,237.461C69.44,237.127,69.062,236.817,68.7,236.477Z"/><path class="cls-2" d="M63.261,231.037c-.339-.361-.649-.739-.984-1.1l-12.309,11.56,2.023,2.154L64.3,232.088C63.958,231.732,63.6,231.4,63.261,231.037Z"/><path class="cls-2" d="M58.173,225.266c-.316-.381-.6-.778-.912-1.162L44.249,234.868l1.884,2.277,13.011-10.764C58.825,226,58.489,225.648,58.173,225.266Z"/><path class="cls-2" d="M53.458,219.188c-.291-.4-.552-.815-.838-1.218L38.959,227.9l1.737,2.391,13.661-9.926C54.062,219.964,53.749,219.588,53.458,219.188Z"/><path class="cls-2" d="M49.133,212.824c-.265-.418-.5-.847-.759-1.268l-14.258,9.049,1.584,2.5,14.257-9.048C49.688,213.637,49.4,213.243,49.133,212.824Z"/><path class="cls-2" d="M45.217,206.2c-.239-.434-.445-.877-.678-1.313l-14.8,8.135,1.424,2.59,14.8-8.136C45.719,207.048,45.456,206.637,45.217,206.2Z"/><path class="cls-2" d="M41.724,199.347c-.211-.448-.389-.9-.594-1.353l-15.279,7.19,1.258,2.674,15.279-7.19C42.173,200.223,41.936,199.8,41.724,199.347Z"/><path class="cls-2" d="M38.669,192.286c-.182-.46-.332-.926-.509-1.387l-15.7,6.216,1.088,2.748,15.7-6.217C39.061,193.189,38.852,192.747,38.669,192.286Z"/><path class="cls-2" d="M36.063,185.048c-.153-.471-.273-.945-.42-1.417l-16.06,5.218.913,2.811,16.06-5.219C36.4,185.973,36.216,185.519,36.063,185.048Z"/><path class="cls-2" d="M33.916,177.66c-.123-.48-.212-.961-.33-1.441l-16.356,4.2.735,2.862,16.356-4.2C34.193,178.6,34.04,178.14,33.916,177.66Z"/><path class="cls-2" d="M32.238,170.152c-.092-.487-.152-.972-.239-1.459l-16.588,3.165.554,2.9L32.552,171.6C32.454,171.112,32.331,170.638,32.238,170.152Z"/><path class="cls-2" d="M31.035,162.553c-.062-.492-.091-.98-.148-1.471L14.134,163.2l.371,2.932,16.753-2.117C31.19,163.525,31.1,163.045,31.035,162.553Z"/><path class="cls-2" d="M30.311,154.894c-.031-.5-.029-.984-.055-1.477L13.4,154.477l.185,2.949,16.854-1.06C30.405,155.873,30.342,155.388,30.311,154.894Z"/><path class="cls-2" d="M30.069,147.2c0-.5.033-.983.038-1.477H13.221v2.955H30.107C30.1,148.187,30.069,147.7,30.069,147.2Z"/><path class="cls-2" d="M30.311,139.514c.031-.494.094-.979.131-1.472l-16.854-1.06-.185,2.949,16.853,1.061C30.282,140.5,30.28,140.009,30.311,139.514Z"/><path class="cls-2" d="M31.035,131.855c.062-.492.155-.971.223-1.461l-16.753-2.117-.371,2.932,16.753,2.117C30.944,132.835,30.973,132.347,31.035,131.855Z"/><path class="cls-2" d="M32.238,124.256c.093-.487.216-.959.314-1.444l-16.587-3.164-.554,2.9L32,125.715C32.086,125.228,32.146,124.743,32.238,124.256Z"/><path class="cls-2" d="M33.916,116.748c.124-.48.277-.944.405-1.421l-16.356-4.2-.735,2.862,16.356,4.2C33.7,117.709,33.793,117.228,33.916,116.748Z"/><path class="cls-2" d="M36.063,109.36c.153-.471.335-.925.493-1.393L20.5,102.749l-.913,2.81,16.06,5.218C35.79,110.305,35.91,109.832,36.063,109.36Z"/><path class="cls-2" d="M38.669,102.122c.183-.461.392-.9.579-1.36l-15.7-6.216L22.46,97.293l15.7,6.216C38.337,103.048,38.487,102.582,38.669,102.122Z"/><path class="cls-2" d="M41.724,95.061c.212-.449.449-.876.664-1.321L27.109,86.55l-1.258,2.674,15.279,7.19C41.335,95.965,41.513,95.509,41.724,95.061Z"/><path class="cls-2" d="M45.217,88.206c.239-.434.5-.846.745-1.277l-14.8-8.135-1.424,2.59,14.8,8.135C44.772,89.083,44.978,88.64,45.217,88.206Z"/><path class="cls-2" d="M49.133,81.584c.266-.418.555-.813.824-1.227L35.7,71.308,34.116,73.8l14.258,9.049C48.634,82.432,48.868,82,49.133,81.584Z"/><path class="cls-2" d="M53.458,75.221c.291-.4.6-.777.9-1.173L40.7,64.122l-1.737,2.391L52.62,76.439C52.906,76.035,53.167,75.622,53.458,75.221Z"/><path class="cls-2" d="M58.173,69.142c.316-.382.652-.737.971-1.115L46.133,57.264l-1.884,2.277L57.261,70.305C57.572,69.92,57.857,69.524,58.173,69.142Z"/><path class="cls-2" d="M63.261,63.371c.339-.361.7-.7,1.039-1.051L51.991,50.76l-2.023,2.154,12.309,11.56C62.612,64.11,62.922,63.732,63.261,63.371Z"/><path class="cls-2" d="M68.7,57.931c.361-.339.739-.65,1.1-.984L58.245,44.637,56.091,46.66,67.65,58.97C68.007,58.628,68.34,58.27,68.7,57.931Z"/><path class="cls-2" d="M74.472,52.843c.382-.316.778-.6,1.163-.913L64.871,38.919,62.594,40.8,73.358,53.814C73.735,53.5,74.09,53.159,74.472,52.843Z"/><path class="cls-2" d="M80.551,48.128c.4-.292.815-.552,1.218-.838L71.843,33.628l-2.391,1.737,9.926,13.662C79.775,48.732,80.15,48.419,80.551,48.128Z"/><path class="cls-2" d="M86.914,43.8c.419-.265.848-.5,1.268-.76L79.134,28.786l-2.5,1.583,9.048,14.258C86.1,44.358,86.5,44.069,86.914,43.8Z"/><path class="cls-2" d="M93.536,39.887c.434-.239.878-.445,1.313-.679l-8.135-14.8-2.589,1.423,8.135,14.8C92.69,40.389,93.1,40.125,93.536,39.887Z"/><path class="cls-2" d="M100.391,36.394c.449-.211.9-.389,1.354-.594L94.554,20.52l-2.673,1.258,7.19,15.28C99.516,36.842,99.943,36.6,100.391,36.394Z"/><path class="cls-2" d="M107.452,33.339c.461-.183.926-.332,1.388-.509l-6.217-15.7-2.747,1.088,6.216,15.7C106.55,33.731,106.991,33.521,107.452,33.339Z"/><path class="cls-2" d="M114.691,30.733c.471-.154.945-.273,1.416-.421l-5.218-16.06-2.81.913,5.218,16.06C113.765,31.067,114.219,30.886,114.691,30.733Z"/><path class="cls-2" d="M122.078,28.586c.48-.123.961-.213,1.441-.331L119.32,11.9l-2.863.735,4.2,16.355C121.134,28.862,121.6,28.709,122.078,28.586Z"/><path class="cls-2" d="M129.587,26.908c.486-.093.972-.152,1.458-.239l-3.164-16.588-2.9.554,3.164,16.587C128.627,27.124,129.1,27,129.587,26.908Z"/><path class="cls-2" d="M137.186,25.7c.491-.062.979-.09,1.47-.147L136.54,8.8l-2.932.371,2.116,16.753C136.214,25.86,136.694,25.766,137.186,25.7Z"/><path class="cls-2" d="M144.845,24.98c.494-.031.983-.029,1.477-.055l-1.06-16.853-2.95.186,1.06,16.853C143.865,25.074,144.35,25.012,144.845,24.98Z"/><path class="cls-3" d="M118.114,112.928h-2a1.844,1.844,0,0,0-1.9,1.905v.7c0,3.6-1.7,5.209-4.708,5.209h-.9a1.841,1.841,0,0,0-1.905,1.9v2.2a1.841,1.841,0,0,0,1.905,1.9h4.2v48.482a1.842,1.842,0,0,0,1.905,1.9h3.405a1.841,1.841,0,0,0,1.9-1.9v-60.4A1.841,1.841,0,0,0,118.114,112.928Z"/><path class="cls-3" d="M145.963,143.881c2.906-2.2,4.91-6.511,4.91-14.124,0-12.42-4.609-17.429-12.121-17.429-8.014,0-12.021,3.806-12.021,16.027a2.373,2.373,0,0,0,2.506,2.705h2.4c1.5,0,2.1-1.2,2-3.307-.3-4.908.4-9.115,4.807-9.115,3.006,0,5.211,1.5,5.211,11.119,0,10.117-1.9,11.42-4.708,11.42h-2.807a1.841,1.841,0,0,0-1.9,1.9v2.1a1.841,1.841,0,0,0,1.9,1.9h2.807c3.1,0,5.409,1.3,5.409,12.321s-2.205,12.019-5.71,12.019c-4.407,0-5.31-4.306-5.009-10.216.1-2.1-.5-3.306-2-3.306h-2.4a2.372,2.372,0,0,0-2.506,2.7c0,13.222,4.007,17.13,12.021,17.13,7.512,0,12.822-4.409,12.822-18.331C151.574,150.892,149.368,146.186,145.963,143.881Z"/><path class="cls-3" d="M175.32,127.655c0-10.419-3.1-15.729-9.914-15.729-6.613,0-9.92,5.31-9.92,15.729,0,10.316,3.307,15.726,9.92,15.726C172.216,143.381,175.32,137.971,175.32,127.655Zm-13.922,0c0-6.813.8-10.318,4.008-10.318,3.306,0,4.007,3.5,4.007,10.318,0,6.709-.7,10.316-4.007,10.316C162.2,137.971,161.4,134.364,161.4,127.655Z"/><path class="cls-3" d="M187.944,146.687c-6.612,0-9.919,5.308-9.919,15.726,0,10.317,3.307,15.726,9.919,15.726,6.811,0,9.915-5.409,9.915-15.726C197.859,152,194.755,146.687,187.944,146.687Zm0,26.043c-3.207,0-4.007-3.608-4.007-10.317,0-6.813.8-10.317,4.007-10.317,3.3,0,4.007,3.5,4.007,10.317C191.951,169.122,191.246,172.73,187.944,172.73Z"/><path class="cls-3" d="M192.351,112.928h-2a2.888,2.888,0,0,0-2.507,1.905l-28.145,60.4c-.5,1.1.2,1.9,1.3,1.9h2a2.882,2.882,0,0,0,2.5-1.9l28.15-60.4C194.153,113.73,193.452,112.928,192.351,112.928Z"/></svg>