<svg id="Layer_1" data-name="Layer 1" xmlns="http://www.w3.org/2000/svg" viewBox="0 0 300 300"><defs><style>.cls-1{fill:#f21b16;}.cls-2{fill:#e6e6e6;}.cls-3{fill:#5e5e5e;}</style></defs><path class="cls-1" d="M248.377,70.238a121.984,121.984,0,0,0-95.213-45.461l-1.369.008L151.581,7.9l1.583-.009A138.812,138.812,0,0,1,261.5,59.614Z"/><path class="cls-2" d="M252.241,75.221c.292.4.552.814.838,1.218l13.662-9.926L265,64.122l-13.661,9.926C251.637,74.444,251.95,74.82,252.241,75.221Z"/><path class="cls-2" d="M256.566,81.584c.265.418.5.848.759,1.268L271.583,73.8,270,71.308l-14.258,9.049C256.011,80.771,256.3,81.166,256.566,81.584Z"/><path class="cls-2" d="M260.482,88.206c.239.434.445.877.678,1.313l14.8-8.135-1.423-2.59-14.8,8.135C259.98,87.36,260.243,87.772,260.482,88.206Z"/><path class="cls-2" d="M263.975,95.061c.211.448.389.9.594,1.353l15.28-7.19L278.59,86.55l-15.279,7.19C263.527,94.185,263.764,94.612,263.975,95.061Z"/><path class="cls-2" d="M267.03,102.122c.183.46.332.926.508,1.387l15.7-6.216-1.087-2.747-15.7,6.216C266.638,101.219,266.848,101.661,267.03,102.122Z"/><path class="cls-2" d="M269.636,109.36c.153.472.273.945.421,1.417l16.06-5.218-.914-2.81-16.059,5.218C269.3,108.435,269.483,108.889,269.636,109.36Z"/><path class="cls-2" d="M271.783,116.748c.123.48.213.961.33,1.441l16.356-4.2-.735-2.862-16.356,4.2C271.506,115.8,271.659,116.268,271.783,116.748Z"/><path class="cls-2" d="M273.461,124.256c.093.487.152.972.239,1.459l16.588-3.164-.554-2.9-16.587,3.164C273.244,123.3,273.368,123.769,273.461,124.256Z"/><path class="cls-2" d="M274.664,131.855c.063.492.091.98.148,1.471l16.753-2.117-.37-2.932-16.754,2.117C274.509,130.884,274.6,131.363,274.664,131.855Z"/><path class="cls-2" d="M275.388,139.514c.031.495.03.984.055,1.478l16.853-1.061-.185-2.949-16.853,1.06C275.294,138.535,275.357,139.02,275.388,139.514Z"/><path class="cls-2" d="M275.63,147.2c0,.5-.032.983-.038,1.478h16.887v-2.955H275.592C275.6,146.221,275.63,146.709,275.63,147.2Z"/><path class="cls-2" d="M275.388,154.894c-.031.494-.094.979-.13,1.472l16.853,1.06.185-2.949-16.853-1.06C275.418,153.91,275.419,154.4,275.388,154.894Z"/><path class="cls-2" d="M274.664,162.553c-.062.492-.155.972-.223,1.461l16.754,2.117.37-2.932-16.753-2.117C274.755,161.573,274.727,162.061,274.664,162.553Z"/><path class="cls-2" d="M273.461,170.152c-.093.486-.217.96-.314,1.444l16.587,3.164.554-2.9L273.7,168.693C273.613,169.18,273.554,169.665,273.461,170.152Z"/><path class="cls-2" d="M271.783,177.66c-.124.48-.277.944-.405,1.422l16.356,4.2.735-2.862-16.356-4.2C272,176.7,271.906,177.18,271.783,177.66Z"/><path class="cls-2" d="M269.636,185.048c-.153.471-.335.925-.492,1.393L285.2,191.66l.914-2.811-16.06-5.218C269.909,184.1,269.789,184.577,269.636,185.048Z"/><path class="cls-2" d="M267.03,192.286c-.182.461-.392.9-.579,1.36l15.7,6.217,1.087-2.748-15.7-6.216C267.362,191.36,267.213,191.826,267.03,192.286Z"/><path class="cls-2" d="M263.975,199.347c-.211.449-.448.876-.664,1.321l15.279,7.19,1.259-2.674-15.28-7.19C264.364,198.444,264.186,198.9,263.975,199.347Z"/><path class="cls-2" d="M260.482,206.2c-.239.435-.5.846-.745,1.276l14.8,8.136,1.423-2.59-14.8-8.135C260.927,205.325,260.721,205.768,260.482,206.2Z"/><path class="cls-2" d="M256.566,212.824c-.266.419-.555.813-.824,1.228L270,223.1l1.583-2.5-14.258-9.049C257.065,211.977,256.831,212.406,256.566,212.824Z"/><path class="cls-2" d="M252.241,219.188c-.291.4-.6.776-.9,1.172L265,230.286l1.738-2.391-13.662-9.925C252.793,218.373,252.533,218.787,252.241,219.188Z"/><path class="cls-2" d="M247.526,225.266c-.316.382-.652.737-.971,1.115l13.011,10.764,1.884-2.277L248.439,224.1C248.127,224.488,247.842,224.885,247.526,225.266Z"/><path class="cls-2" d="M242.438,231.037c-.339.362-.7.695-1.039,1.051l12.309,11.56,2.023-2.154-12.309-11.56C243.088,230.3,242.777,230.676,242.438,231.037Z"/><path class="cls-2" d="M237,236.477c-.361.34-.739.65-1.1.984l11.56,12.31,2.154-2.023-11.56-12.31C237.692,235.781,237.359,236.138,237,236.477Z"/><path class="cls-2" d="M231.227,241.565c-.382.316-.778.6-1.163.913l10.764,13.011,2.277-1.884-10.764-13.011C231.964,240.913,231.609,241.249,231.227,241.565Z"/><path class="cls-2" d="M225.148,246.281c-.4.291-.815.551-1.218.837l9.926,13.662,2.391-1.737-9.926-13.661C225.925,245.676,225.549,245.989,225.148,246.281Z"/><path class="cls-2" d="M218.785,250.605c-.418.265-.848.5-1.268.759l9.048,14.258,2.5-1.583-9.048-14.258C219.6,250.051,219.2,250.339,218.785,250.605Z"/><path class="cls-2" d="M212.163,254.521c-.434.239-.878.445-1.313.679l8.135,14.8,2.59-1.423-8.136-14.8C213.009,254.019,212.6,254.282,212.163,254.521Z"/><path class="cls-2" d="M205.308,258.014c-.448.211-.9.389-1.353.595l7.19,15.279,2.674-1.258-7.19-15.28C206.184,257.566,205.756,257.8,205.308,258.014Z"/><path class="cls-2" d="M198.247,261.07c-.46.182-.926.331-1.387.508l6.216,15.7,2.747-1.088-6.216-15.7C199.149,260.677,198.708,260.887,198.247,261.07Z"/><path class="cls-2" d="M191.009,263.676c-.472.153-.946.272-1.417.42l5.218,16.06,2.81-.913-5.218-16.06C191.934,263.341,191.48,263.522,191.009,263.676Z"/><path class="cls-2" d="M183.621,265.822c-.48.123-.961.213-1.441.33l4.2,16.357,2.863-.735-4.2-16.356C184.565,265.546,184.1,265.7,183.621,265.822Z"/><path class="cls-2" d="M176.112,267.5c-.486.093-.971.152-1.458.24l3.164,16.587,2.9-.554-3.164-16.587C177.072,267.284,176.6,267.407,176.112,267.5Z"/><path class="cls-2" d="M168.514,268.7c-.492.062-.98.091-1.471.147l2.116,16.753,2.932-.37-2.116-16.753C169.485,268.548,169.005,268.641,168.514,268.7Z"/><path class="cls-2" d="M160.855,269.428c-.495.031-.984.029-1.478.054l1.061,16.854,2.949-.186-1.06-16.853C161.834,269.333,161.349,269.4,160.855,269.428Z"/><path class="cls-2" d="M153.165,269.669c-.5,0-.984-.032-1.478-.038v16.887h2.955V269.631C154.148,269.637,153.661,269.669,153.165,269.669Z"/><path class="cls-2" d="M145.475,269.428c-.5-.031-.979-.095-1.472-.131l-1.06,16.853,2.949.186,1.06-16.854C146.458,269.457,145.969,269.459,145.475,269.428Z"/><path class="cls-2" d="M137.816,268.7c-.492-.063-.972-.156-1.461-.223l-2.117,16.753,2.932.37,2.117-16.753C138.795,268.8,138.307,268.766,137.816,268.7Z"/><path class="cls-2" d="M130.217,267.5c-.487-.093-.96-.216-1.444-.314l-3.164,16.587,2.9.554,3.164-16.587C131.189,267.652,130.7,267.593,130.217,267.5Z"/><path class="cls-2" d="M122.709,265.822c-.48-.123-.945-.276-1.422-.4l-4.2,16.356,2.862.735,4.2-16.357C123.67,266.035,123.189,265.945,122.709,265.822Z"/><path class="cls-2" d="M115.321,263.676c-.472-.154-.925-.335-1.394-.493l-5.218,16.06,2.811.913,5.218-16.06C116.266,263.948,115.792,263.829,115.321,263.676Z"/><path class="cls-2" d="M108.082,261.07c-.461-.183-.9-.393-1.36-.58l-6.216,15.7,2.748,1.088,6.216-15.7C109.008,261.4,108.543,261.252,108.082,261.07Z"/><path class="cls-2" d="M101.021,258.014c-.448-.211-.875-.448-1.32-.664l-7.19,15.28,2.674,1.258,7.19-15.279C101.925,258.4,101.47,258.225,101.021,258.014Z"/><path class="cls-2" d="M94.167,254.521c-.435-.239-.846-.5-1.277-.745l-8.135,14.8L87.345,270l8.135-14.8C95.044,254.966,94.6,254.76,94.167,254.521Z"/><path class="cls-2" d="M87.545,250.605c-.419-.266-.813-.554-1.228-.824l-9.048,14.258,2.495,1.583,9.048-14.258C88.392,251.1,87.963,250.87,87.545,250.605Z"/><path class="cls-2" d="M81.181,246.281c-.4-.292-.776-.605-1.173-.9l-9.925,13.661,2.39,1.737L82.4,247.118C82,246.832,81.582,246.572,81.181,246.281Z"/><path class="cls-2" d="M75.1,241.565c-.381-.316-.736-.652-1.114-.971L63.224,253.605l2.277,1.884,10.764-13.011C75.881,242.167,75.484,241.881,75.1,241.565Z"/><path class="cls-2" d="M69.331,236.477c-.361-.339-.694-.7-1.05-1.039l-11.56,12.31,2.154,2.023,11.559-12.31C70.07,237.127,69.693,236.817,69.331,236.477Z"/><path class="cls-2" d="M63.891,231.037c-.339-.361-.649-.739-.983-1.1L50.6,241.494l2.023,2.154,12.31-11.56C64.588,231.732,64.231,231.4,63.891,231.037Z"/><path class="cls-2" d="M58.8,225.266c-.315-.381-.6-.778-.912-1.162L44.88,234.868l1.883,2.277,13.012-10.764C59.456,226,59.12,225.648,58.8,225.266Z"/><path class="cls-2" d="M54.088,219.188c-.291-.4-.552-.815-.837-1.218L39.589,227.9l1.737,2.391,13.661-9.926C54.692,219.964,54.38,219.588,54.088,219.188Z"/><path class="cls-2" d="M49.764,212.824c-.266-.418-.5-.847-.76-1.268l-14.258,9.049,1.584,2.5,14.258-9.048C50.318,213.637,50.03,213.243,49.764,212.824Z"/><path class="cls-2" d="M45.848,206.2c-.239-.434-.446-.877-.679-1.313l-14.8,8.135,1.424,2.59,14.8-8.136C46.35,207.048,46.086,206.637,45.848,206.2Z"/><path class="cls-2" d="M42.355,199.347c-.211-.448-.39-.9-.595-1.353l-15.279,7.19,1.258,2.674,15.279-7.19C42.8,200.223,42.566,199.8,42.355,199.347Z"/><path class="cls-2" d="M39.3,192.286c-.182-.46-.331-.926-.508-1.387l-15.7,6.216,1.088,2.748,15.7-6.217C39.692,193.189,39.482,192.747,39.3,192.286Z"/><path class="cls-2" d="M36.693,185.048c-.153-.471-.273-.945-.42-1.417l-16.06,5.218.913,2.811,16.06-5.219C37.028,185.973,36.846,185.519,36.693,185.048Z"/><path class="cls-2" d="M34.547,177.66c-.124-.48-.213-.961-.331-1.441l-16.356,4.2.735,2.862,16.356-4.2C34.823,178.6,34.67,178.14,34.547,177.66Z"/><path class="cls-2" d="M32.869,170.152c-.093-.487-.153-.972-.24-1.459l-16.587,3.165.554,2.9L33.183,171.6C33.085,171.112,32.962,170.638,32.869,170.152Z"/><path class="cls-2" d="M31.665,162.553c-.062-.492-.091-.98-.147-1.471L14.764,163.2l.371,2.932,16.753-2.117C31.82,163.525,31.727,163.045,31.665,162.553Z"/><path class="cls-2" d="M30.941,154.894c-.031-.5-.029-.984-.055-1.477l-16.853,1.06.186,2.949,16.853-1.06C31.035,155.873,30.972,155.388,30.941,154.894Z"/><path class="cls-2" d="M30.7,147.2c0-.5.032-.983.038-1.477H13.851v2.955H30.738C30.732,148.187,30.7,147.7,30.7,147.2Z"/><path class="cls-2" d="M30.941,139.514c.031-.494.094-.979.131-1.472l-16.853-1.06-.186,2.949,16.853,1.061C30.912,140.5,30.91,140.009,30.941,139.514Z"/><path class="cls-2" d="M31.665,131.855c.062-.492.155-.971.223-1.461l-16.753-2.117-.371,2.932,16.754,2.117C31.574,132.835,31.6,132.347,31.665,131.855Z"/><path class="cls-2" d="M32.869,124.256c.093-.487.216-.959.314-1.444L16.6,119.648l-.554,2.9,16.587,3.164C32.716,125.228,32.776,124.743,32.869,124.256Z"/><path class="cls-2" d="M34.547,116.748c.123-.48.276-.944.4-1.421l-16.356-4.2-.735,2.862,16.356,4.2C34.334,117.709,34.423,117.228,34.547,116.748Z"/><path class="cls-2" d="M36.693,109.36c.153-.471.335-.925.493-1.393l-16.06-5.218-.913,2.81,16.06,5.218C36.42,110.305,36.54,109.832,36.693,109.36Z"/><path class="cls-2" d="M39.3,102.122c.183-.461.393-.9.58-1.36l-15.7-6.216L23.09,97.293l15.7,6.216C38.968,103.048,39.117,102.582,39.3,102.122Z"/><path class="cls-2" d="M42.355,95.061c.211-.449.448-.876.663-1.321L27.739,86.55l-1.258,2.674,15.279,7.19C41.965,95.965,42.144,95.509,42.355,95.061Z"/><path class="cls-2" d="M45.848,88.206c.238-.434.5-.846.745-1.277L31.8,78.794l-1.424,2.59,14.8,8.135C45.4,89.083,45.609,88.64,45.848,88.206Z"/><path class="cls-2" d="M49.764,81.584c.266-.418.554-.813.824-1.227L36.33,71.308,34.746,73.8,49,82.852C49.265,82.432,49.5,82,49.764,81.584Z"/><path class="cls-2" d="M54.088,75.221c.292-.4.6-.777.9-1.173L41.326,64.122l-1.737,2.391,13.662,9.926C53.536,76.035,53.8,75.622,54.088,75.221Z"/><path class="cls-2" d="M58.8,69.142c.317-.382.653-.737.972-1.115L46.763,57.264,44.88,59.541,57.891,70.305C58.2,69.92,58.488,69.524,58.8,69.142Z"/><path class="cls-2" d="M63.891,63.371c.34-.361.7-.7,1.04-1.051L52.621,50.76,50.6,52.914l12.31,11.56C63.242,64.11,63.552,63.732,63.891,63.371Z"/><path class="cls-2" d="M69.331,57.931c.362-.339.739-.65,1.1-.984L58.875,44.637,56.721,46.66l11.56,12.31C68.637,58.628,68.97,58.27,69.331,57.931Z"/><path class="cls-2" d="M75.1,52.843c.382-.316.779-.6,1.163-.913L65.5,38.919,63.224,40.8,73.988,53.814C74.366,53.5,74.721,53.159,75.1,52.843Z"/><path class="cls-2" d="M81.181,48.128c.4-.292.815-.552,1.218-.838L72.473,33.628l-2.39,1.737,9.925,13.662C80.405,48.732,80.78,48.419,81.181,48.128Z"/><path class="cls-2" d="M87.545,43.8c.418-.265.847-.5,1.267-.76L79.764,28.786l-2.495,1.583,9.048,14.258C86.732,44.358,87.126,44.069,87.545,43.8Z"/><path class="cls-2" d="M94.167,39.887c.434-.239.877-.445,1.313-.679l-8.135-14.8-2.59,1.423,8.135,14.8C93.321,40.389,93.732,40.125,94.167,39.887Z"/><path class="cls-2" d="M101.021,36.394c.449-.211.9-.389,1.354-.594l-7.19-15.28-2.674,1.258,7.19,15.28C100.146,36.842,100.573,36.6,101.021,36.394Z"/><path class="cls-2" d="M108.082,33.339c.461-.183.926-.332,1.388-.509l-6.216-15.7-2.748,1.088,6.216,15.7C107.18,33.731,107.621,33.521,108.082,33.339Z"/><path class="cls-2" d="M115.321,30.733c.471-.154.945-.273,1.417-.421l-5.218-16.06-2.811.913,5.218,16.06C114.4,31.067,114.849,30.886,115.321,30.733Z"/><path class="cls-2" d="M122.709,28.586c.48-.123.961-.213,1.441-.331L119.95,11.9l-2.862.735,4.2,16.355C121.764,28.862,122.229,28.709,122.709,28.586Z"/><path class="cls-2" d="M130.217,26.908c.487-.093.972-.152,1.458-.239l-3.164-16.588-2.9.554,3.164,16.587C129.257,27.124,129.73,27,130.217,26.908Z"/><path class="cls-2" d="M137.816,25.7c.491-.062.979-.09,1.471-.147L137.17,8.8l-2.932.371,2.117,16.753C136.844,25.86,137.324,25.766,137.816,25.7Z"/><path class="cls-2" d="M145.475,24.98c.494-.031.983-.029,1.477-.055l-1.06-16.853-2.949.186L144,25.111C144.5,25.074,144.98,25.012,145.475,24.98Z"/><path class="cls-3" d="M119.049,112.928h-2a1.844,1.844,0,0,0-1.9,1.905v.7c0,3.6-1.7,5.209-4.709,5.209h-.9a1.84,1.84,0,0,0-1.9,1.9v2.2a1.84,1.84,0,0,0,1.9,1.9h4.206v48.482a1.842,1.842,0,0,0,1.9,1.9h3.406a1.84,1.84,0,0,0,1.9-1.9v-60.4A1.841,1.841,0,0,0,119.049,112.928Z"/><path class="cls-3" d="M151.906,156.6H148V145.184a1.844,1.844,0,0,0-1.9-1.9H142.89a1.84,1.84,0,0,0-1.9,1.9V156.6h-7.714l9.915-37.863a19.8,19.8,0,0,0,.8-4.007,1.737,1.737,0,0,0-1.806-1.8h-3.1a1.952,1.952,0,0,0-2,1.7L126.865,155.6a17.935,17.935,0,0,0-.6,3.206v2.405a1.735,1.735,0,0,0,1.806,1.8H140.99v12.221a1.841,1.841,0,0,0,1.9,1.9H146.1a1.844,1.844,0,0,0,1.9-1.9V163.013h3.9a1.843,1.843,0,0,0,1.905-1.9v-2.6A1.845,1.845,0,0,0,151.906,156.6Z"/><path class="cls-3" d="M175.653,127.655c0-10.419-3.1-15.729-9.915-15.729-6.613,0-9.919,5.31-9.919,15.729,0,10.316,3.306,15.726,9.919,15.726C172.549,143.381,175.653,137.971,175.653,127.655Zm-13.922,0c0-6.813.8-10.318,4.007-10.318,3.306,0,4.007,3.5,4.007,10.318,0,6.709-.7,10.316-4.007,10.316C162.531,137.971,161.731,134.364,161.731,127.655Z"/><path class="cls-3" d="M188.277,146.687c-6.613,0-9.919,5.308-9.919,15.726,0,10.317,3.306,15.726,9.919,15.726,6.811,0,9.915-5.409,9.915-15.726C198.192,152,195.088,146.687,188.277,146.687Zm0,26.043c-3.208,0-4.007-3.608-4.007-10.317,0-6.813.8-10.317,4.007-10.317,3.3,0,4.007,3.5,4.007,10.317C192.284,169.122,191.579,172.73,188.277,172.73Z"/><path class="cls-3" d="M192.684,112.928h-2a2.888,2.888,0,0,0-2.506,1.905l-28.146,60.4c-.5,1.1.2,1.9,1.3,1.9h2a2.884,2.884,0,0,0,2.5-1.9l28.15-60.4C194.486,113.73,193.785,112.928,192.684,112.928Z"/></svg>