<svg id="Layer_1" data-name="Layer 1" xmlns="http://www.w3.org/2000/svg" viewBox="0 0 300 300"><defs><style>.cls-1{fill:#f21b16;}.cls-2{fill:#e6e6e6;}.cls-3{fill:#5e5e5e;}</style></defs><path class="cls-1" d="M253.662,76.366a122.757,122.757,0,0,0-99.869-51.589l-1.368.008L152.21,7.9l1.583-.009a139.656,139.656,0,0,1,113.63,58.693Z"/><path class="cls-2" d="M257.2,81.584c.265.418.5.848.759,1.268L272.213,73.8l-1.583-2.495-14.258,9.049C256.641,80.771,256.93,81.166,257.2,81.584Z"/><path class="cls-2" d="M261.112,88.206c.239.434.445.877.678,1.313l14.8-8.135-1.424-2.59-14.8,8.135C260.61,87.36,260.873,87.772,261.112,88.206Z"/><path class="cls-2" d="M264.605,95.061c.211.448.389.9.594,1.353l15.28-7.19-1.258-2.674-15.28,7.19C264.157,94.185,264.394,94.612,264.605,95.061Z"/><path class="cls-2" d="M267.66,102.122c.183.46.332.926.509,1.387l15.7-6.216-1.087-2.747-15.7,6.216C267.268,101.219,267.478,101.661,267.66,102.122Z"/><path class="cls-2" d="M270.266,109.36c.153.472.273.945.421,1.417l16.059-5.218-.913-2.81-16.06,5.218C269.931,108.435,270.113,108.889,270.266,109.36Z"/><path class="cls-2" d="M272.413,116.748c.123.48.213.961.33,1.441l16.356-4.2-.735-2.862-16.356,4.2C272.137,115.8,272.29,116.268,272.413,116.748Z"/><path class="cls-2" d="M274.091,124.256c.093.487.152.972.239,1.459l16.588-3.164-.554-2.9-16.587,3.164C273.875,123.3,274,123.769,274.091,124.256Z"/><path class="cls-2" d="M275.294,131.855c.063.492.091.98.148,1.471l16.753-2.117-.37-2.932-16.753,2.117C275.139,130.884,275.232,131.363,275.294,131.855Z"/><path class="cls-2" d="M276.018,139.514c.032.495.03.984.055,1.478l16.854-1.061-.186-2.949-16.853,1.06C275.924,138.535,275.987,139.02,276.018,139.514Z"/><path class="cls-2" d="M276.26,147.2c0,.5-.033.983-.038,1.478h16.886v-2.955H276.222C276.227,146.221,276.26,146.709,276.26,147.2Z"/><path class="cls-2" d="M276.018,154.894c-.031.494-.094.979-.13,1.472l16.853,1.06.186-2.949-16.854-1.06C276.048,153.91,276.05,154.4,276.018,154.894Z"/><path class="cls-2" d="M275.294,162.553c-.062.492-.155.972-.222,1.461l16.753,2.117.37-2.932-16.753-2.117C275.385,161.573,275.357,162.061,275.294,162.553Z"/><path class="cls-2" d="M274.091,170.152c-.093.486-.216.96-.314,1.444l16.587,3.164.554-2.9-16.588-3.165C274.243,169.18,274.184,169.665,274.091,170.152Z"/><path class="cls-2" d="M272.413,177.66c-.123.48-.276.944-.405,1.422l16.356,4.2.735-2.862-16.356-4.2C272.626,176.7,272.536,177.18,272.413,177.66Z"/><path class="cls-2" d="M270.266,185.048c-.153.471-.335.925-.493,1.393l16.06,5.219.913-2.811-16.059-5.218C270.539,184.1,270.419,184.577,270.266,185.048Z"/><path class="cls-2" d="M267.66,192.286c-.182.461-.392.9-.579,1.36l15.7,6.217,1.087-2.748-15.7-6.216C267.992,191.36,267.843,191.826,267.66,192.286Z"/><path class="cls-2" d="M264.605,199.347c-.211.449-.448.876-.664,1.321l15.28,7.19,1.258-2.674-15.28-7.19C264.994,198.444,264.816,198.9,264.605,199.347Z"/><path class="cls-2" d="M261.112,206.2c-.239.435-.5.846-.745,1.276l14.8,8.136,1.424-2.59-14.8-8.135C261.557,205.325,261.351,205.768,261.112,206.2Z"/><path class="cls-2" d="M257.2,212.824c-.266.419-.555.813-.824,1.228L270.63,223.1l1.583-2.5-14.258-9.049C257.7,211.977,257.461,212.406,257.2,212.824Z"/><path class="cls-2" d="M252.871,219.188c-.291.4-.6.776-.9,1.172l13.662,9.926,1.736-2.391-13.661-9.925C253.423,218.373,253.163,218.787,252.871,219.188Z"/><path class="cls-2" d="M248.156,225.266c-.316.382-.652.737-.971,1.115L260.2,237.145l1.883-2.277L249.068,224.1C248.758,224.488,248.472,224.885,248.156,225.266Z"/><path class="cls-2" d="M243.068,231.037c-.339.362-.7.695-1.039,1.051l12.31,11.56,2.023-2.154-12.31-11.56C243.718,230.3,243.407,230.676,243.068,231.037Z"/><path class="cls-2" d="M237.628,236.477c-.361.34-.739.65-1.1.984l11.559,12.31,2.155-2.023-11.56-12.31C238.323,235.781,237.989,236.138,237.628,236.477Z"/><path class="cls-2" d="M231.857,241.565c-.382.316-.778.6-1.163.913l10.764,13.011,2.277-1.884-10.764-13.011C232.594,240.913,232.239,241.249,231.857,241.565Z"/><path class="cls-2" d="M225.778,246.281c-.4.291-.815.551-1.218.837l9.926,13.662,2.391-1.737-9.926-13.661C226.554,245.676,226.179,245.989,225.778,246.281Z"/><path class="cls-2" d="M219.415,250.605c-.419.265-.848.5-1.268.759l9.048,14.258,2.5-1.583-9.048-14.258C220.228,250.051,219.833,250.339,219.415,250.605Z"/><path class="cls-2" d="M212.793,254.521c-.435.239-.877.445-1.313.679l8.135,14.8,2.59-1.423-8.136-14.8C213.639,254.019,213.227,254.282,212.793,254.521Z"/><path class="cls-2" d="M205.938,258.014c-.449.211-.9.389-1.353.595l7.19,15.279,2.674-1.258-7.19-15.28C206.814,257.566,206.386,257.8,205.938,258.014Z"/><path class="cls-2" d="M198.877,261.07c-.461.182-.926.331-1.388.508l6.217,15.7,2.747-1.088-6.216-15.7C199.78,260.677,199.338,260.887,198.877,261.07Z"/><path class="cls-2" d="M191.639,263.676c-.472.153-.946.272-1.418.42l5.219,16.06,2.81-.913-5.218-16.06C192.564,263.341,192.11,263.522,191.639,263.676Z"/><path class="cls-2" d="M184.251,265.822c-.48.123-.961.213-1.441.33l4.2,16.357,2.862-.735-4.2-16.356C185.2,265.546,184.731,265.7,184.251,265.822Z"/><path class="cls-2" d="M176.743,267.5c-.488.093-.973.152-1.459.24l3.164,16.587,2.9-.554-3.164-16.587C177.7,267.284,177.229,267.407,176.743,267.5Z"/><path class="cls-2" d="M169.144,268.7c-.492.062-.98.091-1.471.147L169.79,285.6l2.932-.37-2.117-16.753C170.115,268.548,169.636,268.641,169.144,268.7Z"/><path class="cls-2" d="M161.484,269.428c-.494.031-.983.029-1.477.054l1.061,16.854,2.949-.186L162.956,269.3C162.464,269.333,161.979,269.4,161.484,269.428Z"/><path class="cls-2" d="M153.795,269.669c-.5,0-.983-.032-1.478-.038v16.887h2.955V269.631C154.778,269.637,154.29,269.669,153.795,269.669Z"/><path class="cls-2" d="M146.1,269.428c-.494-.031-.979-.095-1.472-.131l-1.061,16.853,2.95.186,1.06-16.854C147.089,269.457,146.6,269.459,146.1,269.428Z"/><path class="cls-2" d="M138.446,268.7c-.492-.063-.972-.156-1.461-.223l-2.117,16.753,2.932.37,2.116-16.753C139.426,268.8,138.937,268.766,138.446,268.7Z"/><path class="cls-2" d="M130.847,267.5c-.487-.093-.96-.216-1.444-.314l-3.165,16.587,2.9.554,3.165-16.587C131.819,267.652,131.334,267.593,130.847,267.5Z"/><path class="cls-2" d="M123.339,265.822c-.48-.123-.944-.276-1.422-.4l-4.2,16.356,2.863.735,4.2-16.357C124.3,266.035,123.819,265.945,123.339,265.822Z"/><path class="cls-2" d="M115.951,263.676c-.471-.154-.925-.335-1.393-.493l-5.219,16.06,2.811.913,5.218-16.06C116.9,263.948,116.422,263.829,115.951,263.676Z"/><path class="cls-2" d="M108.712,261.07c-.461-.183-.9-.393-1.359-.58l-6.217,15.7,2.748,1.088,6.216-15.7C109.639,261.4,109.173,261.252,108.712,261.07Z"/><path class="cls-2" d="M101.652,258.014c-.449-.211-.876-.448-1.321-.664l-7.19,15.28,2.674,1.258,7.19-15.279C102.555,258.4,102.1,258.225,101.652,258.014Z"/><path class="cls-2" d="M94.8,254.521c-.435-.239-.846-.5-1.277-.745l-8.135,14.8L87.975,270l8.135-14.8C95.674,254.966,95.231,254.76,94.8,254.521Z"/><path class="cls-2" d="M88.175,250.605c-.419-.266-.813-.554-1.228-.824L77.9,264.039l2.5,1.583,9.049-14.258C89.022,251.1,88.593,250.87,88.175,250.605Z"/><path class="cls-2" d="M81.811,246.281c-.4-.292-.776-.605-1.172-.9l-9.926,13.661L73.1,260.78l9.925-13.662C82.626,246.832,82.212,246.572,81.811,246.281Z"/><path class="cls-2" d="M75.733,241.565c-.383-.316-.738-.652-1.115-.971L63.854,253.605l2.277,1.884L76.9,242.478C76.511,242.167,76.114,241.881,75.733,241.565Z"/><path class="cls-2" d="M69.962,236.477c-.362-.339-.7-.7-1.052-1.039l-11.559,12.31,2.154,2.023,11.56-12.31C70.7,237.127,70.323,236.817,69.962,236.477Z"/><path class="cls-2" d="M64.522,231.037c-.34-.361-.65-.739-.985-1.1l-12.309,11.56,2.023,2.154,12.31-11.56C65.218,231.732,64.861,231.4,64.522,231.037Z"/><path class="cls-2" d="M59.434,225.266c-.316-.381-.6-.778-.913-1.162L45.51,234.868l1.884,2.277,13.011-10.764C60.085,226,59.749,225.648,59.434,225.266Z"/><path class="cls-2" d="M54.718,219.188c-.291-.4-.551-.815-.837-1.218L40.219,227.9l1.737,2.391,13.661-9.926C55.323,219.964,55.009,219.588,54.718,219.188Z"/><path class="cls-2" d="M50.394,212.824c-.266-.418-.5-.847-.76-1.268l-14.257,9.049,1.583,2.5,14.258-9.048C50.948,213.637,50.659,213.243,50.394,212.824Z"/><path class="cls-2" d="M46.477,206.2c-.238-.434-.444-.877-.678-1.313L31,213.024l1.424,2.59,14.8-8.136C46.98,207.048,46.716,206.637,46.477,206.2Z"/><path class="cls-2" d="M42.985,199.347c-.211-.448-.389-.9-.595-1.353l-15.279,7.19,1.258,2.674,15.28-7.19C43.433,200.223,43.2,199.8,42.985,199.347Z"/><path class="cls-2" d="M39.929,192.286c-.182-.46-.332-.926-.508-1.387l-15.7,6.216,1.088,2.748,15.7-6.217C40.321,193.189,40.112,192.747,39.929,192.286Z"/><path class="cls-2" d="M37.323,185.048c-.153-.471-.272-.945-.42-1.417l-16.06,5.218.913,2.811,16.06-5.219C37.658,185.973,37.477,185.519,37.323,185.048Z"/><path class="cls-2" d="M35.177,177.66c-.123-.48-.213-.961-.33-1.441l-16.357,4.2.735,2.862,16.356-4.2C35.453,178.6,35.3,178.14,35.177,177.66Z"/><path class="cls-2" d="M33.5,170.152c-.092-.487-.151-.972-.239-1.459l-16.587,3.165.553,2.9L33.813,171.6C33.715,171.112,33.591,170.638,33.5,170.152Z"/><path class="cls-2" d="M32.3,162.553c-.062-.492-.091-.98-.147-1.471L15.394,163.2l.371,2.932,16.753-2.117C32.451,163.525,32.357,163.045,32.3,162.553Z"/><path class="cls-2" d="M31.571,154.894c-.031-.5-.029-.984-.055-1.477l-16.853,1.06.186,2.949,16.853-1.06C31.665,155.873,31.6,155.388,31.571,154.894Z"/><path class="cls-2" d="M31.329,147.2c0-.5.033-.983.038-1.477H14.481v2.955H31.367C31.362,148.187,31.329,147.7,31.329,147.2Z"/><path class="cls-2" d="M31.571,139.514c.031-.494.094-.979.131-1.472l-16.853-1.06-.186,2.949,16.853,1.061C31.542,140.5,31.54,140.009,31.571,139.514Z"/><path class="cls-2" d="M32.3,131.855c.062-.492.156-.971.223-1.461l-16.753-2.117-.371,2.932,16.754,2.117C32.2,132.835,32.233,132.347,32.3,131.855Z"/><path class="cls-2" d="M33.5,124.256c.093-.487.217-.959.315-1.444l-16.588-3.164-.553,2.9,16.587,3.164C33.347,125.228,33.406,124.743,33.5,124.256Z"/><path class="cls-2" d="M35.177,116.748c.123-.48.276-.944.4-1.421l-16.356-4.2-.735,2.862,16.357,4.2C34.964,117.709,35.054,117.228,35.177,116.748Z"/><path class="cls-2" d="M37.323,109.36c.154-.471.335-.925.493-1.393l-16.06-5.218-.913,2.81,16.06,5.218C37.051,110.305,37.17,109.832,37.323,109.36Z"/><path class="cls-2" d="M39.929,102.122c.183-.461.392-.9.58-1.36l-15.7-6.216L23.72,97.293l15.7,6.216C39.6,103.048,39.747,102.582,39.929,102.122Z"/><path class="cls-2" d="M42.985,95.061c.211-.449.448-.876.664-1.321l-15.28-7.19-1.258,2.674,15.279,7.19C42.6,95.965,42.774,95.509,42.985,95.061Z"/><path class="cls-2" d="M46.477,88.206c.239-.434.5-.846.746-1.277l-14.8-8.135L31,81.384l14.8,8.135C46.033,89.083,46.239,88.64,46.477,88.206Z"/><path class="cls-2" d="M50.394,81.584c.265-.418.554-.813.824-1.227L36.96,71.308,35.377,73.8l14.257,9.049C49.894,82.432,50.128,82,50.394,81.584Z"/><path class="cls-2" d="M54.718,75.221c.291-.4.6-.777.9-1.173L41.956,64.122l-1.737,2.391,13.662,9.926C54.167,76.035,54.427,75.622,54.718,75.221Z"/><path class="cls-2" d="M59.434,69.142c.315-.382.651-.737.971-1.115L47.394,57.264,45.51,59.541,58.521,70.305C58.832,69.92,59.118,69.524,59.434,69.142Z"/><path class="cls-2" d="M64.522,63.371c.339-.361.7-.7,1.039-1.051L53.251,50.76l-2.023,2.154,12.309,11.56C63.872,64.11,64.182,63.732,64.522,63.371Z"/><path class="cls-2" d="M69.962,57.931c.361-.339.738-.65,1.1-.984l-11.56-12.31L57.351,46.66,68.91,58.97C69.267,58.628,69.6,58.27,69.962,57.931Z"/><path class="cls-2" d="M75.733,52.843c.381-.316.778-.6,1.162-.913L66.131,38.919,63.854,40.8,74.618,53.814C75,53.5,75.35,53.159,75.733,52.843Z"/><path class="cls-2" d="M81.811,48.128c.4-.292.815-.552,1.218-.838L73.1,33.628l-2.391,1.737,9.926,13.662C81.035,48.732,81.411,48.419,81.811,48.128Z"/><path class="cls-2" d="M88.175,43.8c.418-.265.847-.5,1.268-.76L80.394,28.786l-2.5,1.583,9.048,14.258C87.362,44.358,87.756,44.069,88.175,43.8Z"/><path class="cls-2" d="M94.8,39.887c.434-.239.877-.445,1.313-.679l-8.135-14.8-2.59,1.423,8.135,14.8C93.951,40.389,94.362,40.125,94.8,39.887Z"/><path class="cls-2" d="M101.652,36.394c.448-.211.9-.389,1.353-.594l-7.19-15.28-2.674,1.258,7.19,15.28C100.776,36.842,101.2,36.6,101.652,36.394Z"/><path class="cls-2" d="M108.712,33.339c.461-.183.927-.332,1.388-.509l-6.216-15.7-2.748,1.088,6.217,15.7C107.81,33.731,108.251,33.521,108.712,33.339Z"/><path class="cls-2" d="M115.951,30.733c.471-.154.945-.273,1.417-.421l-5.218-16.06-2.811.913,5.219,16.06C115.026,31.067,115.48,30.886,115.951,30.733Z"/><path class="cls-2" d="M123.339,28.586c.48-.123.96-.213,1.44-.331L120.58,11.9l-2.863.735,4.2,16.355C122.4,28.862,122.859,28.709,123.339,28.586Z"/><path class="cls-2" d="M130.847,26.908c.487-.093.972-.152,1.459-.239l-3.165-16.588-2.9.554L129.4,27.222C129.887,27.124,130.36,27,130.847,26.908Z"/><path class="cls-2" d="M138.446,25.7c.491-.062.98-.09,1.47-.147L137.8,8.8l-2.932.371,2.117,16.753C137.474,25.86,137.954,25.766,138.446,25.7Z"/><path class="cls-2" d="M146.1,24.98c.5-.031.984-.029,1.477-.055l-1.06-16.853-2.95.186,1.061,16.853C145.126,25.074,145.611,25.012,146.1,24.98Z"/><path class="cls-3" d="M119.229,112.928h-2a1.845,1.845,0,0,0-1.905,1.905v.7c0,3.6-1.7,5.209-4.708,5.209h-.9a1.841,1.841,0,0,0-1.905,1.9v2.2a1.841,1.841,0,0,0,1.905,1.9h4.2v48.482a1.842,1.842,0,0,0,1.905,1.9h3.405a1.84,1.84,0,0,0,1.9-1.9v-60.4A1.841,1.841,0,0,0,119.229,112.928Z"/><path class="cls-3" d="M142.473,135.467a8.4,8.4,0,0,0-5.211,1.9V119.339h13.625a1.839,1.839,0,0,0,1.9-1.9v-2.6a1.841,1.841,0,0,0-1.9-1.905H132.153a1.844,1.844,0,0,0-1.9,1.905v33.256a2.2,2.2,0,0,0,2.408,2.4h1.7c1.4,0,1.8-1.1,1.8-3,0-3.206,1.4-6.009,4.807-6.009,3.706,0,5.512,2.6,5.512,15.124,0,12.622-2.3,14.926-5.611,14.926-5.611,0-5.009-6.11-4.807-9.216.1-2.1-.5-3.305-2-3.305h-2.4a2.374,2.374,0,0,0-2.507,2.7c0,10.317,2.606,16.027,12.022,16.027,8.814,0,12.121-6.512,12.121-21.137S150.186,135.467,142.473,135.467Z"/><path class="cls-3" d="M176.736,127.655c0-10.419-3.1-15.729-9.915-15.729-6.613,0-9.919,5.31-9.919,15.729,0,10.316,3.306,15.726,9.919,15.726C173.632,143.381,176.736,137.971,176.736,127.655Zm-13.922,0c0-6.813.8-10.318,4.007-10.318,3.307,0,4.008,3.5,4.008,10.318,0,6.709-.7,10.316-4.008,10.316C163.614,137.971,162.814,134.364,162.814,127.655Z"/><path class="cls-3" d="M193.767,112.928h-2a2.887,2.887,0,0,0-2.507,1.905l-28.146,60.4c-.5,1.1.2,1.9,1.3,1.9h2a2.883,2.883,0,0,0,2.5-1.9l28.15-60.4C195.569,113.73,194.868,112.928,193.767,112.928Z"/><path class="cls-3" d="M189.36,146.687c-6.613,0-9.919,5.308-9.919,15.726,0,10.317,3.306,15.726,9.919,15.726,6.811,0,9.915-5.409,9.915-15.726C199.275,152,196.171,146.687,189.36,146.687Zm0,26.043c-3.208,0-4.007-3.608-4.007-10.317,0-6.813.8-10.317,4.007-10.317,3.3,0,4.007,3.5,4.007,10.317C193.367,169.122,192.662,172.73,189.36,172.73Z"/></svg>