<svg id="Layer_1" data-name="Layer 1" xmlns="http://www.w3.org/2000/svg" viewBox="0 0 300 300"><defs><style>.cls-1{fill:#f21b16;}.cls-2{fill:#e6e6e6;}.cls-3{fill:#5e5e5e;}</style></defs><path class="cls-1" d="M258.55,82.773a121.8,121.8,0,0,0-104.123-58l-1.373.008L152.84,7.9l1.587-.009A138.575,138.575,0,0,1,272.9,73.872Z"/><path class="cls-2" d="M261.742,88.206c.239.434.446.877.679,1.313l14.8-8.135-1.424-2.59L261,86.929C261.24,87.36,261.5,87.772,261.742,88.206Z"/><path class="cls-2" d="M265.235,95.061c.211.448.389.9.595,1.353l15.279-7.19-1.258-2.674-15.279,7.19C264.787,94.185,265.024,94.612,265.235,95.061Z"/><path class="cls-2" d="M268.29,102.122c.183.46.332.926.509,1.387l15.7-6.216-1.088-2.747-15.7,6.216C267.9,101.219,268.108,101.661,268.29,102.122Z"/><path class="cls-2" d="M270.9,109.36c.154.472.274.945.421,1.417l16.06-5.218-.913-2.81-16.06,5.218C270.562,108.435,270.744,108.889,270.9,109.36Z"/><path class="cls-2" d="M273.043,116.748c.123.48.213.961.331,1.441l16.355-4.2-.735-2.862-16.355,4.2C272.767,115.8,272.92,116.268,273.043,116.748Z"/><path class="cls-2" d="M274.721,124.256c.093.487.153.972.24,1.459l16.587-3.164-.554-2.9-16.587,3.164C274.505,123.3,274.628,123.769,274.721,124.256Z"/><path class="cls-2" d="M275.925,131.855c.062.492.091.98.147,1.471l16.754-2.117-.371-2.932L275.7,130.394C275.769,130.884,275.863,131.363,275.925,131.855Z"/><path class="cls-2" d="M276.649,139.514c.031.495.029.984.055,1.478l16.853-1.061-.186-2.949-16.853,1.06C276.555,138.535,276.618,139.02,276.649,139.514Z"/><path class="cls-2" d="M276.89,147.2c0,.5-.032.983-.038,1.478h16.887v-2.955H276.852C276.858,146.221,276.89,146.709,276.89,147.2Z"/><path class="cls-2" d="M276.649,154.894c-.031.494-.094.979-.131,1.472l16.853,1.06.186-2.949-16.853-1.06C276.678,153.91,276.68,154.4,276.649,154.894Z"/><path class="cls-2" d="M275.925,162.553c-.062.492-.156.972-.223,1.461l16.753,2.117.371-2.932-16.754-2.117C276.016,161.573,275.987,162.061,275.925,162.553Z"/><path class="cls-2" d="M274.721,170.152c-.093.486-.216.96-.314,1.444l16.587,3.164.554-2.9-16.587-3.165C274.874,169.18,274.814,169.665,274.721,170.152Z"/><path class="cls-2" d="M273.043,177.66c-.123.48-.276.944-.4,1.422l16.355,4.2.735-2.862-16.355-4.2C273.256,176.7,273.166,177.18,273.043,177.66Z"/><path class="cls-2" d="M270.9,185.048c-.152.471-.334.925-.492,1.393l16.06,5.219.913-2.811-16.06-5.218C271.17,184.1,271.05,184.577,270.9,185.048Z"/><path class="cls-2" d="M268.29,192.286c-.182.461-.392.9-.579,1.36l15.7,6.217,1.088-2.748L268.8,190.9C268.622,191.36,268.473,191.826,268.29,192.286Z"/><path class="cls-2" d="M265.235,199.347c-.211.449-.448.876-.663,1.321l15.279,7.19,1.258-2.674-15.279-7.19C265.624,198.444,265.446,198.9,265.235,199.347Z"/><path class="cls-2" d="M261.742,206.2c-.238.435-.5.846-.745,1.276l14.8,8.136,1.424-2.59-14.8-8.135C262.188,205.325,261.981,205.768,261.742,206.2Z"/><path class="cls-2" d="M257.826,212.824c-.266.419-.555.813-.824,1.228L271.26,223.1l1.583-2.5-14.257-9.049C258.325,211.977,258.091,212.406,257.826,212.824Z"/><path class="cls-2" d="M253.5,219.188c-.292.4-.6.776-.9,1.172l13.662,9.926L268,227.9l-13.662-9.925C254.053,218.373,253.793,218.787,253.5,219.188Z"/><path class="cls-2" d="M248.786,225.266c-.316.382-.652.737-.971,1.115l13.012,10.764,1.883-2.277L249.7,224.1C249.388,224.488,249.1,224.885,248.786,225.266Z"/><path class="cls-2" d="M243.7,231.037c-.34.362-.7.695-1.04,1.051l12.31,11.56,2.023-2.154-12.31-11.56C244.348,230.3,244.038,230.676,243.7,231.037Z"/><path class="cls-2" d="M238.259,236.477c-.362.34-.74.65-1.1.984l11.56,12.31,2.154-2.023-11.56-12.31C238.953,235.781,238.619,236.138,238.259,236.477Z"/><path class="cls-2" d="M232.488,241.565c-.383.316-.779.6-1.164.913l10.764,13.011,2.278-1.884L233.6,240.594C233.224,240.913,232.869,241.249,232.488,241.565Z"/><path class="cls-2" d="M226.408,246.281c-.4.291-.814.551-1.218.837l9.926,13.662,2.391-1.737-9.926-13.661C227.185,245.676,226.809,245.989,226.408,246.281Z"/><path class="cls-2" d="M220.045,250.605c-.418.265-.848.5-1.268.759l9.049,14.258,2.5-1.583-9.049-14.258C220.858,250.051,220.464,250.339,220.045,250.605Z"/><path class="cls-2" d="M213.423,254.521c-.434.239-.877.445-1.313.679l8.135,14.8,2.59-1.423-8.135-14.8C214.269,254.019,213.857,254.282,213.423,254.521Z"/><path class="cls-2" d="M206.568,258.014c-.448.211-.9.389-1.353.595l7.19,15.279,2.674-1.258-7.19-15.28C207.444,257.566,207.017,257.8,206.568,258.014Z"/><path class="cls-2" d="M199.507,261.07c-.46.182-.926.331-1.387.508l6.216,15.7,2.747-1.088-6.215-15.7C200.41,260.677,199.968,260.887,199.507,261.07Z"/><path class="cls-2" d="M192.269,263.676c-.472.153-.945.272-1.417.42l5.218,16.06,2.81-.913-5.218-16.06C193.194,263.341,192.74,263.522,192.269,263.676Z"/><path class="cls-2" d="M184.881,265.822c-.48.123-.961.213-1.441.33l4.2,16.357,2.862-.735-4.2-16.356C185.825,265.546,185.361,265.7,184.881,265.822Z"/><path class="cls-2" d="M177.373,267.5c-.487.093-.972.152-1.459.24l3.164,16.587,2.9-.554-3.164-16.587C178.332,267.284,177.86,267.407,177.373,267.5Z"/><path class="cls-2" d="M169.774,268.7c-.492.062-.979.091-1.471.147L170.42,285.6l2.932-.37-2.117-16.753C170.745,268.548,170.266,268.641,169.774,268.7Z"/><path class="cls-2" d="M162.115,269.428c-.5.031-.984.029-1.477.054l1.06,16.854,2.949-.186-1.06-16.853C163.094,269.333,162.61,269.4,162.115,269.428Z"/><path class="cls-2" d="M154.425,269.669c-.5,0-.983-.032-1.478-.038v16.887H155.9V269.631C155.408,269.637,154.921,269.669,154.425,269.669Z"/><path class="cls-2" d="M146.735,269.428c-.494-.031-.979-.095-1.472-.131L144.2,286.15l2.949.186,1.06-16.854C147.719,269.457,147.23,269.459,146.735,269.428Z"/><path class="cls-2" d="M139.076,268.7c-.491-.063-.971-.156-1.461-.223L135.5,285.234l2.931.37,2.117-16.753C140.056,268.8,139.568,268.766,139.076,268.7Z"/><path class="cls-2" d="M131.477,267.5c-.486-.093-.96-.216-1.444-.314l-3.164,16.587,2.9.554,3.165-16.587C132.449,267.652,131.964,267.593,131.477,267.5Z"/><path class="cls-2" d="M123.969,265.822c-.48-.123-.944-.276-1.422-.4l-4.2,16.356,2.862.735,4.2-16.357C124.93,266.035,124.449,265.945,123.969,265.822Z"/><path class="cls-2" d="M116.581,263.676c-.471-.154-.925-.335-1.393-.493l-5.218,16.06,2.81.913L118,264.1C117.526,263.948,117.053,263.829,116.581,263.676Z"/><path class="cls-2" d="M109.343,261.07c-.461-.183-.9-.393-1.36-.58l-6.217,15.7,2.748,1.088,6.216-15.7C110.269,261.4,109.8,261.252,109.343,261.07Z"/><path class="cls-2" d="M102.282,258.014c-.448-.211-.876-.448-1.321-.664l-7.19,15.28,2.674,1.258,7.19-15.279C103.185,258.4,102.73,258.225,102.282,258.014Z"/><path class="cls-2" d="M95.427,254.521c-.435-.239-.846-.5-1.276-.745l-8.136,14.8L88.605,270l8.135-14.8C96.3,254.966,95.861,254.76,95.427,254.521Z"/><path class="cls-2" d="M88.805,250.605c-.419-.266-.813-.554-1.227-.824l-9.049,14.258,2.5,1.583,9.049-14.258C89.652,251.1,89.223,250.87,88.805,250.605Z"/><path class="cls-2" d="M82.442,246.281c-.4-.292-.777-.605-1.173-.9l-9.926,13.661,2.391,1.737,9.925-13.662C83.256,246.832,82.843,246.572,82.442,246.281Z"/><path class="cls-2" d="M76.363,241.565c-.382-.316-.737-.652-1.115-.971L64.484,253.605l2.278,1.884,10.763-13.011C77.141,242.167,76.744,241.881,76.363,241.565Z"/><path class="cls-2" d="M70.592,236.477c-.362-.339-.695-.7-1.051-1.039l-11.56,12.31,2.154,2.023,11.56-12.31C71.331,237.127,70.953,236.817,70.592,236.477Z"/><path class="cls-2" d="M65.152,231.037c-.34-.361-.65-.739-.984-1.1l-12.31,11.56,2.023,2.154,12.31-11.56C65.848,231.732,65.491,231.4,65.152,231.037Z"/><path class="cls-2" d="M60.064,225.266c-.316-.381-.6-.778-.913-1.162L46.14,234.868l1.884,2.277,13.011-10.764C60.716,226,60.38,225.648,60.064,225.266Z"/><path class="cls-2" d="M55.348,219.188c-.291-.4-.551-.815-.837-1.218L40.849,227.9l1.737,2.391,13.662-9.926C55.953,219.964,55.64,219.588,55.348,219.188Z"/><path class="cls-2" d="M51.024,212.824c-.265-.418-.5-.847-.759-1.268l-14.258,9.049,1.583,2.5,14.258-9.048C51.578,213.637,51.29,213.243,51.024,212.824Z"/><path class="cls-2" d="M47.108,206.2c-.239-.434-.445-.877-.679-1.313l-14.8,8.135,1.423,2.59,14.8-8.136C47.61,207.048,47.347,206.637,47.108,206.2Z"/><path class="cls-2" d="M43.615,199.347c-.211-.448-.389-.9-.595-1.353l-15.279,7.19L29,207.858l15.28-7.19C44.063,200.223,43.826,199.8,43.615,199.347Z"/><path class="cls-2" d="M40.56,192.286c-.183-.46-.332-.926-.509-1.387l-15.7,6.216,1.088,2.748,15.7-6.217C40.952,193.189,40.742,192.747,40.56,192.286Z"/><path class="cls-2" d="M37.954,185.048c-.154-.471-.273-.945-.421-1.417l-16.06,5.218.913,2.811,16.06-5.219C38.288,185.973,38.107,185.519,37.954,185.048Z"/><path class="cls-2" d="M35.807,177.66c-.123-.48-.213-.961-.33-1.441l-16.356,4.2.734,2.862,16.356-4.2C36.083,178.6,35.931,178.14,35.807,177.66Z"/><path class="cls-2" d="M34.129,170.152c-.093-.487-.152-.972-.24-1.459L17.3,171.858l.554,2.9L34.443,171.6C34.345,171.112,34.222,170.638,34.129,170.152Z"/><path class="cls-2" d="M32.925,162.553c-.062-.492-.091-.98-.147-1.471L16.025,163.2l.37,2.932,16.754-2.117C33.081,163.525,32.988,163.045,32.925,162.553Z"/><path class="cls-2" d="M32.2,154.894c-.031-.5-.029-.984-.054-1.477l-16.853,1.06.185,2.949,16.853-1.06C32.3,155.873,32.232,155.388,32.2,154.894Z"/><path class="cls-2" d="M31.96,147.2c0-.5.032-.983.038-1.477H15.111v2.955H32C31.992,148.187,31.96,147.7,31.96,147.2Z"/><path class="cls-2" d="M32.2,139.514c.031-.494.095-.979.131-1.472l-16.853-1.06-.185,2.949,16.853,1.061C32.172,140.5,32.17,140.009,32.2,139.514Z"/><path class="cls-2" d="M32.925,131.855c.063-.492.156-.971.224-1.461L16.4,128.277l-.37,2.932,16.753,2.117C32.834,132.835,32.863,132.347,32.925,131.855Z"/><path class="cls-2" d="M34.129,124.256c.093-.487.216-.959.314-1.444l-16.587-3.164-.554,2.9,16.587,3.164C33.977,125.228,34.036,124.743,34.129,124.256Z"/><path class="cls-2" d="M35.807,116.748c.124-.48.276-.944.4-1.421l-16.356-4.2-.734,2.862,16.356,4.2C35.594,117.709,35.684,117.228,35.807,116.748Z"/><path class="cls-2" d="M37.954,109.36c.153-.471.334-.925.492-1.393l-16.06-5.218-.913,2.81,16.06,5.218C37.681,110.305,37.8,109.832,37.954,109.36Z"/><path class="cls-2" d="M40.56,102.122c.182-.461.392-.9.579-1.36l-15.7-6.216L24.35,97.293l15.7,6.216C40.228,103.048,40.377,102.582,40.56,102.122Z"/><path class="cls-2" d="M43.615,95.061c.211-.449.448-.876.664-1.321L29,86.55l-1.258,2.674,15.279,7.19C43.226,95.965,43.4,95.509,43.615,95.061Z"/><path class="cls-2" d="M47.108,88.206c.239-.434.5-.846.745-1.277l-14.8-8.135-1.423,2.59,14.8,8.135C46.663,89.083,46.869,88.64,47.108,88.206Z"/><path class="cls-2" d="M51.024,81.584c.266-.418.554-.813.824-1.227L37.59,71.308,36.007,73.8l14.258,9.049C50.525,82.432,50.759,82,51.024,81.584Z"/><path class="cls-2" d="M55.348,75.221c.292-.4.605-.777.9-1.173L42.586,64.122l-1.737,2.391,13.662,9.926C54.8,76.035,55.057,75.622,55.348,75.221Z"/><path class="cls-2" d="M60.064,69.142c.316-.382.652-.737.971-1.115L48.024,57.264,46.14,59.541,59.151,70.305C59.462,69.92,59.748,69.524,60.064,69.142Z"/><path class="cls-2" d="M65.152,63.371c.339-.361.7-.7,1.039-1.051L53.881,50.76l-2.023,2.154,12.31,11.56C64.5,64.11,64.812,63.732,65.152,63.371Z"/><path class="cls-2" d="M70.592,57.931c.361-.339.739-.65,1.1-.984l-11.56-12.31L57.981,46.66l11.56,12.31C69.9,58.628,70.23,58.27,70.592,57.931Z"/><path class="cls-2" d="M76.363,52.843c.381-.316.778-.6,1.162-.913L66.762,38.919,64.484,40.8,75.248,53.814C75.626,53.5,75.981,53.159,76.363,52.843Z"/><path class="cls-2" d="M82.442,48.128c.4-.292.814-.552,1.217-.838L73.734,33.628l-2.391,1.737,9.926,13.662C81.665,48.732,82.041,48.419,82.442,48.128Z"/><path class="cls-2" d="M88.805,43.8c.418-.265.847-.5,1.268-.76L81.024,28.786l-2.5,1.583,9.049,14.258C87.992,44.358,88.386,44.069,88.805,43.8Z"/><path class="cls-2" d="M95.427,39.887c.434-.239.877-.445,1.313-.679l-8.135-14.8-2.59,1.423,8.136,14.8C94.581,40.389,94.992,40.125,95.427,39.887Z"/><path class="cls-2" d="M102.282,36.394c.448-.211.9-.389,1.353-.594l-7.19-15.28-2.674,1.258,7.19,15.28C101.406,36.842,101.834,36.6,102.282,36.394Z"/><path class="cls-2" d="M109.343,33.339c.46-.183.926-.332,1.387-.509l-6.216-15.7-2.748,1.088,6.217,15.7C108.44,33.731,108.882,33.521,109.343,33.339Z"/><path class="cls-2" d="M116.581,30.733c.472-.154.945-.273,1.417-.421l-5.218-16.06-2.81.913,5.218,16.06C115.656,31.067,116.11,30.886,116.581,30.733Z"/><path class="cls-2" d="M123.969,28.586c.48-.123.961-.213,1.441-.331L121.21,11.9l-2.862.735,4.2,16.355C123.025,28.862,123.489,28.709,123.969,28.586Z"/><path class="cls-2" d="M131.477,26.908c.487-.093.972-.152,1.459-.239l-3.165-16.588-2.9.554,3.164,16.587C130.517,27.124,130.991,27,131.477,26.908Z"/><path class="cls-2" d="M139.076,25.7c.492-.062.98-.09,1.471-.147L138.43,8.8l-2.931.371,2.116,16.753C138.1,25.86,138.585,25.766,139.076,25.7Z"/><path class="cls-2" d="M146.735,24.98c.495-.031.984-.029,1.477-.055l-1.06-16.853-2.949.186,1.06,16.853C145.756,25.074,146.241,25.012,146.735,24.98Z"/><path class="cls-3" d="M119.306,112.93h-2a1.844,1.844,0,0,0-1.9,1.9v.7c0,3.605-1.7,5.209-4.708,5.209h-.9a1.841,1.841,0,0,0-1.905,1.9v2.2a1.841,1.841,0,0,0,1.905,1.9H114v48.483a1.841,1.841,0,0,0,1.9,1.9h3.406a1.841,1.841,0,0,0,1.9-1.9v-60.4A1.841,1.841,0,0,0,119.306,112.93Z"/><path class="cls-3" d="M143.25,139.075c-2.506,0-5.709,1.2-7.111,3.907,0-17.329.7-24.342,6.411-24.342,4.2,0,5.108,4.207,4.807,9.115-.1,2.105.5,3.307,2,3.307h2.3a2.37,2.37,0,0,0,2.5-2.7c0-12.222-4.308-16.027-11.617-16.027-12.925,0-13.325,13.221-13.325,37.263,0,20.233,2.907,28.147,13.024,28.147,7.812,0,12.619-4.91,12.619-19.333S150.461,139.075,143.25,139.075Zm-1,32.655c-3.1,0-6.011-1.7-6.011-13.322s2.906-13.323,6.011-13.323,5.409,1.7,5.409,13.323S145.353,171.73,142.249,171.73Z"/><path class="cls-3" d="M177.914,127.657c0-10.418-3.1-15.728-9.915-15.728-6.613,0-9.919,5.31-9.919,15.728,0,10.317,3.306,15.726,9.919,15.726C174.81,143.383,177.914,137.974,177.914,127.657Zm-13.922,0c0-6.813.8-10.318,4.007-10.318,3.307,0,4.007,3.5,4.007,10.318,0,6.709-.7,10.317-4.007,10.317C164.792,137.974,163.992,134.366,163.992,127.657Z"/><path class="cls-3" d="M194.945,112.93h-2a2.89,2.89,0,0,0-2.506,1.9l-28.146,60.4c-.5,1.1.2,1.9,1.3,1.9h2a2.885,2.885,0,0,0,2.5-1.9l28.15-60.4C196.746,113.732,196.046,112.93,194.945,112.93Z"/><path class="cls-3" d="M190.538,146.687c-6.613,0-9.92,5.31-9.92,15.728,0,10.317,3.307,15.726,9.92,15.726,6.81,0,9.915-5.409,9.915-15.726C200.453,152,197.348,146.687,190.538,146.687Zm0,26.045c-3.208,0-4.008-3.6-4.008-10.317,0-6.813.8-10.317,4.008-10.317,3.3,0,4.007,3.5,4.007,10.317C194.545,169.127,193.84,172.732,190.538,172.732Z"/></svg>