<svg id="Layer_1" data-name="Layer 1" xmlns="http://www.w3.org/2000/svg" viewBox="0 0 300 300"><defs><style>.cls-1{fill:#f21b16;}.cls-2{fill:#e6e6e6;}.cls-3{fill:#5e5e5e;}</style></defs><path class="cls-1" d="M263.021,89.433A122.343,122.343,0,0,0,155.057,24.777l-1.373.008L153.469,7.9l1.588-.009A139.206,139.206,0,0,1,277.9,81.452Z"/><path class="cls-2" d="M265.865,95.061c.211.448.389.9.595,1.353l15.279-7.19-1.258-2.674L265.2,93.74C265.417,94.185,265.654,94.612,265.865,95.061Z"/><path class="cls-2" d="M268.921,102.122c.182.46.331.926.508,1.387l15.7-6.216-1.088-2.747-15.7,6.216C268.528,101.219,268.738,101.661,268.921,102.122Z"/><path class="cls-2" d="M271.527,109.36c.153.472.272.945.42,1.417l16.06-5.218-.913-2.81-16.06,5.218C271.192,108.435,271.374,108.889,271.527,109.36Z"/><path class="cls-2" d="M273.673,116.748c.123.48.213.961.331,1.441l16.355-4.2-.734-2.862-16.356,4.2C273.4,115.8,273.55,116.268,273.673,116.748Z"/><path class="cls-2" d="M275.351,124.256c.093.487.153.972.24,1.459l16.587-3.164-.553-2.9-16.588,3.164C275.135,123.3,275.258,123.769,275.351,124.256Z"/><path class="cls-2" d="M276.555,131.855c.062.492.091.98.147,1.471l16.754-2.117-.371-2.932-16.753,2.117C276.4,130.884,276.493,131.363,276.555,131.855Z"/><path class="cls-2" d="M277.279,139.514c.031.495.029.984.055,1.478l16.853-1.061L294,136.982l-16.853,1.06C277.185,138.535,277.248,139.02,277.279,139.514Z"/><path class="cls-2" d="M277.521,147.2c0,.5-.033.983-.038,1.478h16.886v-2.955H277.483C277.488,146.221,277.521,146.709,277.521,147.2Z"/><path class="cls-2" d="M277.279,154.894c-.031.494-.094.979-.131,1.472L294,157.426l.186-2.949-16.853-1.06C277.308,153.91,277.31,154.4,277.279,154.894Z"/><path class="cls-2" d="M276.555,162.553c-.062.492-.156.972-.223,1.461l16.753,2.117.371-2.932L276.7,161.082C276.646,161.573,276.617,162.061,276.555,162.553Z"/><path class="cls-2" d="M275.351,170.152c-.093.486-.216.96-.314,1.444l16.588,3.164.553-2.9-16.587-3.165C275.5,169.18,275.444,169.665,275.351,170.152Z"/><path class="cls-2" d="M273.673,177.66c-.123.48-.276.944-.4,1.422l16.356,4.2.734-2.862L274,176.219C273.886,176.7,273.8,177.18,273.673,177.66Z"/><path class="cls-2" d="M271.527,185.048c-.153.471-.335.925-.493,1.393l16.06,5.219.913-2.811-16.06-5.218C271.8,184.1,271.68,184.577,271.527,185.048Z"/><path class="cls-2" d="M268.921,192.286c-.183.461-.393.9-.58,1.36l15.7,6.217,1.088-2.748-15.7-6.216C269.252,191.36,269.1,191.826,268.921,192.286Z"/><path class="cls-2" d="M265.865,199.347c-.211.449-.448.876-.664,1.321l15.28,7.19,1.258-2.674-15.279-7.19C266.254,198.444,266.076,198.9,265.865,199.347Z"/><path class="cls-2" d="M262.373,206.2c-.239.435-.5.846-.746,1.276l14.8,8.136,1.424-2.59-14.8-8.135C262.818,205.325,262.611,205.768,262.373,206.2Z"/><path class="cls-2" d="M258.456,212.824c-.265.419-.554.813-.824,1.228L271.89,223.1l1.583-2.5-14.257-9.049C258.956,211.977,258.722,212.406,258.456,212.824Z"/><path class="cls-2" d="M254.132,219.188c-.292.4-.605.776-.9,1.172l13.662,9.926,1.737-2.391L254.97,217.97C254.683,218.373,254.423,218.787,254.132,219.188Z"/><path class="cls-2" d="M249.416,225.266c-.315.382-.651.737-.971,1.115l13.011,10.764,1.884-2.277L250.329,224.1C250.018,224.488,249.732,224.885,249.416,225.266Z"/><path class="cls-2" d="M244.328,231.037c-.339.362-.7.695-1.038,1.051l12.309,11.56,2.023-2.154-12.31-11.56C244.978,230.3,244.668,230.676,244.328,231.037Z"/><path class="cls-2" d="M238.888,236.477c-.361.34-.739.65-1.1.984l11.56,12.31,2.154-2.023-11.559-12.31C239.583,235.781,239.25,236.138,238.888,236.477Z"/><path class="cls-2" d="M233.118,241.565c-.383.316-.779.6-1.163.913l10.764,13.011L245,253.605l-10.763-13.011C233.855,240.913,233.5,241.249,233.118,241.565Z"/><path class="cls-2" d="M227.038,246.281c-.4.291-.814.551-1.217.837l9.925,13.662,2.391-1.737-9.925-13.661C227.815,245.676,227.439,245.989,227.038,246.281Z"/><path class="cls-2" d="M220.676,250.605c-.419.265-.848.5-1.269.759l9.049,14.258,2.5-1.583L221.9,249.781C221.488,250.051,221.094,250.339,220.676,250.605Z"/><path class="cls-2" d="M214.053,254.521c-.434.239-.877.445-1.313.679l8.135,14.8,2.59-1.423-8.135-14.8C214.9,254.019,214.487,254.282,214.053,254.521Z"/><path class="cls-2" d="M207.2,258.014c-.448.211-.9.389-1.353.595l7.19,15.279,2.674-1.258-7.19-15.28C208.074,257.566,207.647,257.8,207.2,258.014Z"/><path class="cls-2" d="M200.138,261.07c-.461.182-.927.331-1.388.508l6.216,15.7,2.748-1.088-6.216-15.7C201.04,260.677,200.6,260.887,200.138,261.07Z"/><path class="cls-2" d="M192.9,263.676c-.471.153-.945.272-1.417.42l5.218,16.06,2.811-.913-5.219-16.06C193.824,263.341,193.37,263.522,192.9,263.676Z"/><path class="cls-2" d="M185.511,265.822c-.48.123-.96.213-1.44.33l4.2,16.357,2.862-.735-4.2-16.356C186.455,265.546,185.991,265.7,185.511,265.822Z"/><path class="cls-2" d="M178,267.5c-.487.093-.972.152-1.459.24l3.164,16.587,2.9-.554-3.164-16.587C178.963,267.284,178.49,267.407,178,267.5Z"/><path class="cls-2" d="M170.4,268.7c-.491.062-.98.091-1.471.147L171.05,285.6l2.932-.37-2.117-16.753C171.376,268.548,170.9,268.641,170.4,268.7Z"/><path class="cls-2" d="M162.745,269.428c-.5.031-.984.029-1.477.054l1.06,16.854,2.949-.186-1.06-16.853C163.724,269.333,163.239,269.4,162.745,269.428Z"/><path class="cls-2" d="M155.055,269.669c-.5,0-.983-.032-1.477-.038v16.887h2.955V269.631C156.038,269.637,155.551,269.669,155.055,269.669Z"/><path class="cls-2" d="M147.366,269.428c-.5-.031-.98-.095-1.473-.131l-1.06,16.853,2.949.186,1.06-16.854C148.349,269.457,147.86,269.459,147.366,269.428Z"/><path class="cls-2" d="M139.706,268.7c-.492-.063-.972-.156-1.461-.223l-2.117,16.753,2.932.37,2.117-16.753C140.686,268.8,140.2,268.766,139.706,268.7Z"/><path class="cls-2" d="M132.107,267.5c-.486-.093-.959-.216-1.444-.314L127.5,283.773l2.9.554,3.164-16.587C133.08,267.652,132.594,267.593,132.107,267.5Z"/><path class="cls-2" d="M124.6,265.822c-.48-.123-.944-.276-1.422-.4l-4.2,16.356,2.862.735,4.2-16.357C125.56,266.035,125.079,265.945,124.6,265.822Z"/><path class="cls-2" d="M117.211,263.676c-.471-.154-.925-.335-1.393-.493l-5.219,16.06,2.811.913,5.218-16.06C118.157,263.948,117.683,263.829,117.211,263.676Z"/><path class="cls-2" d="M109.972,261.07c-.46-.183-.9-.393-1.359-.58l-6.217,15.7,2.748,1.088,6.217-15.7C110.9,261.4,110.433,261.252,109.972,261.07Z"/><path class="cls-2" d="M102.912,258.014c-.448-.211-.876-.448-1.321-.664L94.4,272.63l2.674,1.258,7.19-15.279C103.816,258.4,103.36,258.225,102.912,258.014Z"/><path class="cls-2" d="M96.057,254.521c-.434-.239-.846-.5-1.277-.745l-8.135,14.8L89.235,270l8.135-14.8C96.934,254.966,96.491,254.76,96.057,254.521Z"/><path class="cls-2" d="M89.435,250.605c-.419-.266-.813-.554-1.227-.824L79.16,264.039l2.5,1.583L90.7,251.364C90.282,251.1,89.854,250.87,89.435,250.605Z"/><path class="cls-2" d="M83.072,246.281c-.4-.292-.777-.605-1.173-.9l-9.926,13.661,2.391,1.737,9.925-13.662C83.887,246.832,83.473,246.572,83.072,246.281Z"/><path class="cls-2" d="M76.993,241.565c-.382-.316-.737-.652-1.114-.971L65.115,253.605l2.276,1.884,10.764-13.011C77.771,242.167,77.375,241.881,76.993,241.565Z"/><path class="cls-2" d="M71.222,236.477c-.362-.339-.695-.7-1.051-1.039l-11.56,12.31,2.154,2.023,11.56-12.31C71.961,237.127,71.583,236.817,71.222,236.477Z"/><path class="cls-2" d="M65.782,231.037c-.34-.361-.65-.739-.984-1.1l-12.31,11.56,2.023,2.154,12.31-11.56C66.479,231.732,66.121,231.4,65.782,231.037Z"/><path class="cls-2" d="M60.694,225.266c-.316-.381-.6-.778-.913-1.162L46.77,234.868l1.884,2.277,13.011-10.764C61.346,226,61.01,225.648,60.694,225.266Z"/><path class="cls-2" d="M55.979,219.188c-.292-.4-.552-.815-.838-1.218L41.479,227.9l1.737,2.391,13.662-9.926C56.583,219.964,56.27,219.588,55.979,219.188Z"/><path class="cls-2" d="M51.654,212.824c-.266-.418-.5-.847-.759-1.268l-14.258,9.049,1.583,2.5,14.258-9.048C52.209,213.637,51.92,213.243,51.654,212.824Z"/><path class="cls-2" d="M47.738,206.2c-.239-.434-.445-.877-.679-1.313l-14.8,8.135,1.423,2.59,14.8-8.136C48.24,207.048,47.977,206.637,47.738,206.2Z"/><path class="cls-2" d="M44.245,199.347c-.211-.448-.389-.9-.595-1.353l-15.279,7.19,1.258,2.674,15.28-7.19C44.693,200.223,44.456,199.8,44.245,199.347Z"/><path class="cls-2" d="M41.19,192.286c-.183-.46-.332-.926-.509-1.387l-15.7,6.216,1.088,2.748,15.7-6.217C41.582,193.189,41.372,192.747,41.19,192.286Z"/><path class="cls-2" d="M38.583,185.048c-.152-.471-.272-.945-.42-1.417L22.1,188.849l.913,2.811,16.061-5.219C38.919,185.973,38.737,185.519,38.583,185.048Z"/><path class="cls-2" d="M36.437,177.66c-.123-.48-.213-.961-.33-1.441l-16.356,4.2.735,2.862,16.356-4.2C36.713,178.6,36.56,178.14,36.437,177.66Z"/><path class="cls-2" d="M34.759,170.152c-.093-.487-.152-.972-.24-1.459l-16.587,3.165.554,2.9L35.073,171.6C34.975,171.112,34.852,170.638,34.759,170.152Z"/><path class="cls-2" d="M33.555,162.553c-.062-.492-.091-.98-.147-1.471L16.655,163.2l.37,2.932,16.753-2.117C33.711,163.525,33.618,163.045,33.555,162.553Z"/><path class="cls-2" d="M32.831,154.894c-.031-.5-.029-.984-.054-1.477l-16.854,1.06.186,2.949,16.853-1.06C32.926,155.873,32.863,155.388,32.831,154.894Z"/><path class="cls-2" d="M32.59,147.2c0-.5.032-.983.038-1.477H15.741v2.955H32.628C32.622,148.187,32.59,147.7,32.59,147.2Z"/><path class="cls-2" d="M32.831,139.514c.032-.494.095-.979.131-1.472l-16.853-1.06-.186,2.949,16.854,1.061C32.8,140.5,32.8,140.009,32.831,139.514Z"/><path class="cls-2" d="M33.555,131.855c.063-.492.156-.971.223-1.461l-16.753-2.117-.37,2.932,16.753,2.117C33.464,132.835,33.493,132.347,33.555,131.855Z"/><path class="cls-2" d="M34.759,124.256c.093-.487.216-.959.314-1.444l-16.587-3.164-.554,2.9,16.587,3.164C34.607,125.228,34.666,124.743,34.759,124.256Z"/><path class="cls-2" d="M36.437,116.748c.123-.48.276-.944.405-1.421l-16.356-4.2-.735,2.862,16.356,4.2C36.224,117.709,36.314,117.228,36.437,116.748Z"/><path class="cls-2" d="M38.583,109.36c.154-.471.336-.925.494-1.393l-16.061-5.218-.913,2.81,16.06,5.218C38.311,110.305,38.431,109.832,38.583,109.36Z"/><path class="cls-2" d="M41.19,102.122c.182-.461.392-.9.579-1.36l-15.7-6.216L24.98,97.293l15.7,6.216C40.858,103.048,41.007,102.582,41.19,102.122Z"/><path class="cls-2" d="M44.245,95.061c.211-.449.448-.876.664-1.321l-15.28-7.19-1.258,2.674,15.279,7.19C43.856,95.965,44.034,95.509,44.245,95.061Z"/><path class="cls-2" d="M47.738,88.206c.239-.434.5-.846.745-1.277l-14.8-8.135-1.423,2.59,14.8,8.135C47.293,89.083,47.5,88.64,47.738,88.206Z"/><path class="cls-2" d="M51.654,81.584c.266-.418.555-.813.824-1.227L38.22,71.308,36.637,73.8,50.9,82.852C51.155,82.432,51.388,82,51.654,81.584Z"/><path class="cls-2" d="M55.979,75.221c.291-.4.6-.777.9-1.173L43.216,64.122l-1.737,2.391,13.662,9.926C55.427,76.035,55.687,75.622,55.979,75.221Z"/><path class="cls-2" d="M60.694,69.142c.316-.382.652-.737.971-1.115L48.654,57.264,46.77,59.541,59.781,70.305C60.092,69.92,60.378,69.524,60.694,69.142Z"/><path class="cls-2" d="M65.782,63.371c.339-.361.7-.7,1.039-1.051L54.511,50.76l-2.023,2.154L64.8,64.474C65.132,64.11,65.442,63.732,65.782,63.371Z"/><path class="cls-2" d="M71.222,57.931c.361-.339.739-.65,1.1-.984l-11.56-12.31L58.611,46.66l11.56,12.31C70.527,58.628,70.86,58.27,71.222,57.931Z"/><path class="cls-2" d="M76.993,52.843c.382-.316.778-.6,1.162-.913L67.391,38.919,65.115,40.8,75.879,53.814C76.256,53.5,76.611,53.159,76.993,52.843Z"/><path class="cls-2" d="M83.072,48.128c.4-.292.815-.552,1.217-.838L74.364,33.628l-2.391,1.737L81.9,49.027C82.3,48.732,82.671,48.419,83.072,48.128Z"/><path class="cls-2" d="M89.435,43.8c.419-.265.847-.5,1.268-.76L81.655,28.786l-2.5,1.583,9.048,14.258C88.622,44.358,89.016,44.069,89.435,43.8Z"/><path class="cls-2" d="M96.057,39.887c.434-.239.877-.445,1.313-.679l-8.135-14.8-2.59,1.423,8.135,14.8C95.211,40.389,95.623,40.125,96.057,39.887Z"/><path class="cls-2" d="M102.912,36.394c.448-.211.9-.389,1.353-.594l-7.19-15.28L94.4,21.778l7.19,15.28C102.036,36.842,102.464,36.6,102.912,36.394Z"/><path class="cls-2" d="M109.972,33.339c.461-.183.927-.332,1.389-.509l-6.217-15.7L102.4,18.217l6.217,15.7C109.07,33.731,109.512,33.521,109.972,33.339Z"/><path class="cls-2" d="M117.211,30.733c.472-.154.946-.273,1.417-.421l-5.218-16.06-2.811.913,5.219,16.06C116.286,31.067,116.74,30.886,117.211,30.733Z"/><path class="cls-2" d="M124.6,28.586c.48-.123.961-.213,1.441-.331L121.84,11.9l-2.862.735,4.2,16.355C123.655,28.862,124.119,28.709,124.6,28.586Z"/><path class="cls-2" d="M132.107,26.908c.487-.093.973-.152,1.459-.239L130.4,10.081l-2.9.554,3.164,16.587C131.148,27.124,131.621,27,132.107,26.908Z"/><path class="cls-2" d="M139.706,25.7c.492-.062.98-.09,1.471-.147L139.06,8.8l-2.932.371,2.117,16.753C138.734,25.86,139.214,25.766,139.706,25.7Z"/><path class="cls-2" d="M147.366,24.98c.494-.031.983-.029,1.476-.055l-1.06-16.853-2.949.186,1.06,16.853C146.386,25.074,146.871,25.012,147.366,24.98Z"/><path class="cls-3" d="M122.492,112.928h-2a1.845,1.845,0,0,0-1.905,1.905v.7c0,3.6-1.7,5.209-4.708,5.209h-.9a1.84,1.84,0,0,0-1.905,1.9v2.2a1.84,1.84,0,0,0,1.905,1.9h4.2v48.482a1.842,1.842,0,0,0,1.905,1.9h3.406a1.841,1.841,0,0,0,1.9-1.9v-60.4A1.841,1.841,0,0,0,122.492,112.928Z"/><path class="cls-3" d="M151.944,112.928H131.71a1.845,1.845,0,0,0-1.905,1.905v2.6a1.843,1.843,0,0,0,1.905,1.9h14.825l-13.523,51.989a20.06,20.06,0,0,0-.8,4,1.736,1.736,0,0,0,1.8,1.8h3.307a1.952,1.952,0,0,0,2-1.7l13.823-55.094a18.2,18.2,0,0,0,.6-3.2v-2.4A1.736,1.736,0,0,0,151.944,112.928Z"/><path class="cls-3" d="M175.992,127.655c0-10.419-3.1-15.729-9.915-15.729-6.613,0-9.919,5.31-9.919,15.729,0,10.316,3.306,15.726,9.919,15.726C172.887,143.381,175.992,137.971,175.992,127.655Zm-13.923,0c0-6.813.8-10.318,4.008-10.318,3.306,0,4.007,3.5,4.007,10.318,0,6.709-.7,10.316-4.007,10.316C162.869,137.971,162.069,134.364,162.069,127.655Z"/><path class="cls-3" d="M193.022,112.928h-2a2.888,2.888,0,0,0-2.507,1.905l-28.146,60.4c-.5,1.1.2,1.9,1.3,1.9h2a2.883,2.883,0,0,0,2.5-1.9l28.15-60.4C194.824,113.73,194.123,112.928,193.022,112.928Z"/><path class="cls-3" d="M188.615,146.687c-6.613,0-9.919,5.308-9.919,15.726,0,10.317,3.306,15.726,9.919,15.726,6.811,0,9.916-5.409,9.916-15.726C198.531,152,195.426,146.687,188.615,146.687Zm0,26.043c-3.207,0-4.007-3.608-4.007-10.317,0-6.813.8-10.317,4.007-10.317,3.3,0,4.008,3.5,4.008,10.317C192.623,169.122,191.918,172.73,188.615,172.73Z"/></svg>