<svg id="Layer_1" data-name="Layer 1" xmlns="http://www.w3.org/2000/svg" viewBox="0 0 300 300"><defs><style>.cls-1{fill:#f21b16;}.cls-2{fill:#e6e6e6;}.cls-3{fill:#5e5e5e;}</style></defs><path class="cls-1" d="M267.073,96.322A122.81,122.81,0,0,0,155.686,24.777l-1.373.008L154.1,7.9l1.587-.009A139.726,139.726,0,0,1,282.426,89.3Z"/><path class="cls-2" d="M269.551,102.122c.182.46.331.926.508,1.387l15.7-6.216-1.088-2.747-15.7,6.216C269.158,101.219,269.368,101.661,269.551,102.122Z"/><path class="cls-2" d="M272.157,109.36c.153.472.273.945.421,1.417l16.059-5.218-.913-2.81-16.06,5.218C271.822,108.435,272,108.889,272.157,109.36Z"/><path class="cls-2" d="M274.3,116.748c.124.48.214.961.331,1.441l16.356-4.2-.735-2.862-16.356,4.2C274.027,115.8,274.18,116.268,274.3,116.748Z"/><path class="cls-2" d="M275.981,124.256c.093.487.153.972.24,1.459l16.587-3.164-.553-2.9-16.588,3.164C275.765,123.3,275.889,123.769,275.981,124.256Z"/><path class="cls-2" d="M277.185,131.855c.062.492.091.98.148,1.471l16.753-2.117-.37-2.932-16.754,2.117C277.03,130.884,277.123,131.363,277.185,131.855Z"/><path class="cls-2" d="M277.909,139.514c.031.495.03.984.055,1.478l16.853-1.061-.185-2.949-16.853,1.06C277.815,138.535,277.878,139.02,277.909,139.514Z"/><path class="cls-2" d="M278.151,147.2c0,.5-.033.983-.038,1.478H295v-2.955H278.113C278.118,146.221,278.151,146.709,278.151,147.2Z"/><path class="cls-2" d="M277.909,154.894c-.031.494-.094.979-.13,1.472l16.853,1.06.185-2.949-16.853-1.06C277.939,153.91,277.94,154.4,277.909,154.894Z"/><path class="cls-2" d="M277.185,162.553c-.062.492-.155.972-.223,1.461l16.754,2.117.37-2.932-16.753-2.117C277.276,161.573,277.247,162.061,277.185,162.553Z"/><path class="cls-2" d="M275.981,170.152c-.092.486-.216.96-.314,1.444l16.588,3.164.553-2.9-16.587-3.165C276.134,169.18,276.074,169.665,275.981,170.152Z"/><path class="cls-2" d="M274.3,177.66c-.123.48-.276.944-.4,1.422l16.356,4.2.735-2.862-16.356-4.2C274.517,176.7,274.427,177.18,274.3,177.66Z"/><path class="cls-2" d="M272.157,185.048c-.153.471-.335.925-.493,1.393l16.06,5.219.913-2.811-16.059-5.218C272.43,184.1,272.31,184.577,272.157,185.048Z"/><path class="cls-2" d="M269.551,192.286c-.183.461-.393.9-.58,1.36l15.7,6.217,1.088-2.748-15.7-6.216C269.882,191.36,269.733,191.826,269.551,192.286Z"/><path class="cls-2" d="M266.5,199.347c-.211.449-.448.876-.663,1.321l15.279,7.19,1.259-2.674-15.28-7.19C266.885,198.444,266.706,198.9,266.5,199.347Z"/><path class="cls-2" d="M263,206.2c-.239.435-.5.846-.746,1.276l14.8,8.136,1.424-2.59-14.8-8.135C263.448,205.325,263.241,205.768,263,206.2Z"/><path class="cls-2" d="M259.086,212.824c-.265.419-.554.813-.824,1.228L272.52,223.1l1.584-2.5-14.258-9.049C259.586,211.977,259.352,212.406,259.086,212.824Z"/><path class="cls-2" d="M254.762,219.188c-.291.4-.6.776-.9,1.172l13.661,9.926,1.737-2.391L255.6,217.97C255.314,218.373,255.054,218.787,254.762,219.188Z"/><path class="cls-2" d="M250.047,225.266c-.316.382-.652.737-.972,1.115l13.012,10.764,1.883-2.277L250.959,224.1C250.648,224.488,250.362,224.885,250.047,225.266Z"/><path class="cls-2" d="M244.959,231.037c-.339.362-.7.695-1.039,1.051l12.309,11.56,2.023-2.154-12.31-11.56C245.608,230.3,245.3,230.676,244.959,231.037Z"/><path class="cls-2" d="M239.519,236.477c-.362.34-.739.65-1.1.984l11.559,12.31,2.155-2.023-11.56-12.31C240.213,235.781,239.88,236.138,239.519,236.477Z"/><path class="cls-2" d="M233.748,241.565c-.382.316-.779.6-1.163.913l10.764,13.011,2.277-1.884-10.764-13.011C234.485,240.913,234.13,241.249,233.748,241.565Z"/><path class="cls-2" d="M227.669,246.281c-.4.291-.815.551-1.218.837l9.926,13.662,2.39-1.737-9.925-13.661C228.445,245.676,228.07,245.989,227.669,246.281Z"/><path class="cls-2" d="M221.306,250.605c-.419.265-.848.5-1.268.759l9.048,14.258,2.495-1.583-9.048-14.258C222.118,250.051,221.724,250.339,221.306,250.605Z"/><path class="cls-2" d="M214.684,254.521c-.435.239-.878.445-1.314.679l8.135,14.8,2.59-1.423-8.135-14.8C215.53,254.019,215.118,254.282,214.684,254.521Z"/><path class="cls-2" d="M207.829,258.014c-.449.211-.9.389-1.353.595l7.19,15.279,2.673-1.258-7.19-15.28C208.705,257.566,208.277,257.8,207.829,258.014Z"/><path class="cls-2" d="M200.768,261.07c-.461.182-.926.331-1.388.508l6.216,15.7,2.748-1.088-6.216-15.7C201.67,260.677,201.229,260.887,200.768,261.07Z"/><path class="cls-2" d="M193.529,263.676c-.471.153-.945.272-1.417.42l5.219,16.06,2.81-.913-5.218-16.06C194.455,263.341,194,263.522,193.529,263.676Z"/><path class="cls-2" d="M186.141,265.822c-.48.123-.96.213-1.44.33l4.2,16.357,2.862-.735-4.2-16.356C187.086,265.546,186.621,265.7,186.141,265.822Z"/><path class="cls-2" d="M178.633,267.5c-.487.093-.972.152-1.458.24l3.164,16.587,2.9-.554-3.164-16.587C179.593,267.284,179.12,267.407,178.633,267.5Z"/><path class="cls-2" d="M171.035,268.7c-.492.062-.98.091-1.471.147L171.68,285.6l2.932-.37L172.5,268.481C172.006,268.548,171.526,268.641,171.035,268.7Z"/><path class="cls-2" d="M163.375,269.428c-.494.031-.983.029-1.477.054l1.06,16.854,2.95-.186L164.847,269.3C164.354,269.333,163.87,269.4,163.375,269.428Z"/><path class="cls-2" d="M155.686,269.669c-.5,0-.984-.032-1.478-.038v16.887h2.955V269.631C156.669,269.637,156.181,269.669,155.686,269.669Z"/><path class="cls-2" d="M148,269.428c-.5-.031-.979-.095-1.473-.131l-1.06,16.853,2.95.186,1.06-16.854C148.979,269.457,148.49,269.459,148,269.428Z"/><path class="cls-2" d="M140.337,268.7c-.492-.063-.972-.156-1.461-.223l-2.117,16.753,2.932.37,2.116-16.753C141.316,268.8,140.828,268.766,140.337,268.7Z"/><path class="cls-2" d="M132.738,267.5c-.487-.093-.96-.216-1.445-.314l-3.164,16.587,2.9.554L134.2,267.74C133.71,267.652,133.224,267.593,132.738,267.5Z"/><path class="cls-2" d="M125.23,265.822c-.48-.123-.945-.276-1.422-.4l-4.2,16.356,2.863.735,4.2-16.357C126.19,266.035,125.71,265.945,125.23,265.822Z"/><path class="cls-2" d="M117.842,263.676c-.472-.154-.926-.335-1.394-.493l-5.218,16.06,2.811.913,5.217-16.06C118.787,263.948,118.313,263.829,117.842,263.676Z"/><path class="cls-2" d="M110.6,261.07c-.461-.183-.9-.393-1.36-.58l-6.216,15.7,2.748,1.088,6.216-15.7C111.529,261.4,111.064,261.252,110.6,261.07Z"/><path class="cls-2" d="M103.542,258.014c-.448-.211-.876-.448-1.32-.664l-7.19,15.28,2.673,1.258,7.19-15.279C104.446,258.4,103.991,258.225,103.542,258.014Z"/><path class="cls-2" d="M96.688,254.521c-.435-.239-.847-.5-1.277-.745l-8.135,14.8L89.865,270,98,255.2C97.565,254.966,97.121,254.76,96.688,254.521Z"/><path class="cls-2" d="M90.065,250.605c-.418-.266-.813-.554-1.227-.824L79.79,264.039l2.495,1.583,9.048-14.258C90.913,251.1,90.484,250.87,90.065,250.605Z"/><path class="cls-2" d="M83.7,246.281c-.4-.292-.776-.605-1.173-.9L72.6,259.043l2.39,1.737,9.926-13.662C84.517,246.832,84.1,246.572,83.7,246.281Z"/><path class="cls-2" d="M77.623,241.565c-.382-.316-.737-.652-1.114-.971L65.745,253.605l2.277,1.884,10.764-13.011C78.4,242.167,78.005,241.881,77.623,241.565Z"/><path class="cls-2" d="M71.852,236.477c-.361-.339-.694-.7-1.051-1.039l-11.559,12.31,2.154,2.023,11.559-12.31C72.591,237.127,72.213,236.817,71.852,236.477Z"/><path class="cls-2" d="M66.412,231.037c-.339-.361-.649-.739-.984-1.1l-12.309,11.56,2.023,2.154,12.309-11.56C67.109,231.732,66.752,231.4,66.412,231.037Z"/><path class="cls-2" d="M61.324,225.266c-.316-.381-.6-.778-.912-1.162L47.4,234.868l1.884,2.277L62.3,226.381C61.976,226,61.64,225.648,61.324,225.266Z"/><path class="cls-2" d="M56.609,219.188c-.291-.4-.552-.815-.838-1.218L42.11,227.9l1.737,2.391,13.661-9.926C57.213,219.964,56.9,219.588,56.609,219.188Z"/><path class="cls-2" d="M52.284,212.824c-.265-.418-.5-.847-.759-1.268l-14.258,9.049,1.584,2.5,14.257-9.048C52.839,213.637,52.55,213.243,52.284,212.824Z"/><path class="cls-2" d="M48.368,206.2c-.239-.434-.445-.877-.678-1.313l-14.8,8.135,1.424,2.59,14.8-8.136C48.87,207.048,48.607,206.637,48.368,206.2Z"/><path class="cls-2" d="M44.875,199.347c-.211-.448-.389-.9-.594-1.353L29,205.184l1.259,2.674,15.279-7.19C45.324,200.223,45.087,199.8,44.875,199.347Z"/><path class="cls-2" d="M41.82,192.286c-.183-.46-.332-.926-.508-1.387l-15.7,6.216,1.088,2.748,15.7-6.217C42.212,193.189,42,192.747,41.82,192.286Z"/><path class="cls-2" d="M39.214,185.048c-.153-.471-.273-.945-.42-1.417l-16.061,5.218.914,2.811,16.06-5.219C39.549,185.973,39.367,185.519,39.214,185.048Z"/><path class="cls-2" d="M37.068,177.66c-.124-.48-.213-.961-.331-1.441l-16.356,4.2.735,2.862,16.356-4.2C37.344,178.6,37.191,178.14,37.068,177.66Z"/><path class="cls-2" d="M35.389,170.152c-.092-.487-.152-.972-.239-1.459l-16.588,3.165.554,2.9L35.7,171.6C35.606,171.112,35.482,170.638,35.389,170.152Z"/><path class="cls-2" d="M34.186,162.553c-.062-.492-.091-.98-.147-1.471L17.285,163.2l.37,2.932,16.754-2.117C34.341,163.525,34.248,163.045,34.186,162.553Z"/><path class="cls-2" d="M33.462,154.894c-.031-.5-.029-.984-.055-1.477l-16.853,1.06.186,2.949,16.853-1.06C33.556,155.873,33.493,155.388,33.462,154.894Z"/><path class="cls-2" d="M33.22,147.2c0-.5.033-.983.038-1.477H16.372v2.955H33.258C33.253,148.187,33.22,147.7,33.22,147.2Z"/><path class="cls-2" d="M33.462,139.514c.031-.494.094-.979.131-1.472l-16.853-1.06-.186,2.949,16.853,1.061C33.433,140.5,33.431,140.009,33.462,139.514Z"/><path class="cls-2" d="M34.186,131.855c.062-.492.155-.971.223-1.461l-16.754-2.117-.37,2.932,16.754,2.117C34.1,132.835,34.124,132.347,34.186,131.855Z"/><path class="cls-2" d="M35.389,124.256c.093-.487.217-.959.315-1.444l-16.588-3.164-.554,2.9,16.588,3.164C35.237,125.228,35.3,124.743,35.389,124.256Z"/><path class="cls-2" d="M37.068,116.748c.123-.48.276-.944.4-1.421l-16.356-4.2-.735,2.862,16.356,4.2C36.855,117.709,36.944,117.228,37.068,116.748Z"/><path class="cls-2" d="M39.214,109.36c.153-.471.335-.925.493-1.393l-16.06-5.218-.914,2.81,16.061,5.218C38.941,110.305,39.061,109.832,39.214,109.36Z"/><path class="cls-2" d="M41.82,102.122c.183-.461.392-.9.579-1.36L26.7,94.546l-1.088,2.747,15.7,6.216C41.488,103.048,41.637,102.582,41.82,102.122Z"/><path class="cls-2" d="M44.875,95.061c.212-.449.449-.876.664-1.321L30.26,86.55,29,89.224l15.28,7.19C44.486,95.965,44.664,95.509,44.875,95.061Z"/><path class="cls-2" d="M48.368,88.206c.239-.434.5-.846.746-1.277l-14.8-8.135-1.424,2.59,14.8,8.135C47.923,89.083,48.129,88.64,48.368,88.206Z"/><path class="cls-2" d="M52.284,81.584c.266-.418.555-.813.824-1.227L38.851,71.308,37.267,73.8l14.258,9.049C51.785,82.432,52.019,82,52.284,81.584Z"/><path class="cls-2" d="M56.609,75.221c.291-.4.6-.777.9-1.173L43.847,64.122,42.11,66.513l13.661,9.926C56.057,76.035,56.318,75.622,56.609,75.221Z"/><path class="cls-2" d="M61.324,69.142c.316-.382.652-.737.972-1.115L49.284,57.264,47.4,59.541,60.412,70.305C60.723,69.92,61.008,69.524,61.324,69.142Z"/><path class="cls-2" d="M66.412,63.371c.34-.361.7-.7,1.039-1.051L55.142,50.76l-2.023,2.154,12.309,11.56C65.763,64.11,66.073,63.732,66.412,63.371Z"/><path class="cls-2" d="M71.852,57.931c.361-.339.739-.65,1.1-.984L61.4,44.637,59.242,46.66,70.8,58.97C71.158,58.628,71.491,58.27,71.852,57.931Z"/><path class="cls-2" d="M77.623,52.843c.382-.316.779-.6,1.163-.913L68.022,38.919,65.745,40.8,76.509,53.814C76.886,53.5,77.241,53.159,77.623,52.843Z"/><path class="cls-2" d="M83.7,48.128c.4-.292.815-.552,1.218-.838L74.994,33.628,72.6,35.365l9.925,13.662C82.926,48.732,83.3,48.419,83.7,48.128Z"/><path class="cls-2" d="M90.065,43.8c.419-.265.848-.5,1.268-.76L82.285,28.786,79.79,30.369l9.048,14.258C89.252,44.358,89.647,44.069,90.065,43.8Z"/><path class="cls-2" d="M96.688,39.887c.433-.239.877-.445,1.312-.679l-8.135-14.8-2.589,1.423,8.135,14.8C95.841,40.389,96.253,40.125,96.688,39.887Z"/><path class="cls-2" d="M103.542,36.394c.449-.211.9-.389,1.353-.594l-7.19-15.28-2.673,1.258,7.19,15.28C102.666,36.842,103.094,36.6,103.542,36.394Z"/><path class="cls-2" d="M110.6,33.339c.461-.183.926-.332,1.388-.509l-6.216-15.7-2.748,1.088,6.216,15.7C109.7,33.731,110.142,33.521,110.6,33.339Z"/><path class="cls-2" d="M117.842,30.733c.471-.154.945-.273,1.416-.421l-5.217-16.06-2.811.913,5.218,16.06C116.916,31.067,117.37,30.886,117.842,30.733Z"/><path class="cls-2" d="M125.23,28.586c.48-.123.96-.213,1.44-.331l-4.2-16.355-2.863.735,4.2,16.355C124.285,28.862,124.75,28.709,125.23,28.586Z"/><path class="cls-2" d="M132.738,26.908c.486-.093.972-.152,1.458-.239l-3.164-16.588-2.9.554,3.164,16.587C131.778,27.124,132.251,27,132.738,26.908Z"/><path class="cls-2" d="M140.337,25.7c.491-.062.979-.09,1.47-.147L139.691,8.8l-2.932.371,2.117,16.753C139.365,25.86,139.845,25.766,140.337,25.7Z"/><path class="cls-2" d="M148,24.98c.494-.031.983-.029,1.477-.055l-1.06-16.853-2.95.186,1.06,16.853C147.017,25.074,147.5,25.012,148,24.98Z"/><path class="cls-3" d="M120.767,112.928h-2a1.844,1.844,0,0,0-1.9,1.905v.7c0,3.6-1.7,5.209-4.709,5.209h-.9a1.841,1.841,0,0,0-1.905,1.9v2.2a1.841,1.841,0,0,0,1.905,1.9h4.2v48.482a1.842,1.842,0,0,0,1.905,1.9h3.405a1.841,1.841,0,0,0,1.9-1.9v-60.4A1.841,1.841,0,0,0,120.767,112.928Z"/><path class="cls-3" d="M149.617,143.881c2.907-2.2,4.911-6.511,4.911-14.124,0-12.42-4.61-17.429-11.919-17.429s-11.923,5.109-11.923,17.429c0,7.613,2,11.921,4.911,14.124-3.406,2.305-5.611,7.112-5.611,15.527,0,13.221,4.806,18.331,12.623,18.331s12.619-5.11,12.619-18.331C155.228,150.892,153.023,146.186,149.617,143.881Zm-7.008-25.544c2.8,0,4.7,1.3,4.7,11.42s-1.9,11.42-4.7,11.42-4.708-1.3-4.708-11.42S139.8,118.337,142.609,118.337Zm0,53.391c-3.108,0-5.413-1.3-5.413-12.32s2.305-12.321,5.413-12.321,5.409,1.3,5.409,12.321S145.713,171.728,142.609,171.728Z"/><path class="cls-3" d="M191.6,146.687c-6.613,0-9.919,5.308-9.919,15.726,0,10.317,3.306,15.726,9.919,15.726,6.811,0,9.915-5.409,9.915-15.726C201.514,152,198.41,146.687,191.6,146.687Zm0,26.043c-3.208,0-4.007-3.608-4.007-10.317,0-6.813.8-10.317,4.007-10.317,3.3,0,4.007,3.5,4.007,10.317C195.606,169.122,194.9,172.73,191.6,172.73Z"/><path class="cls-3" d="M196.006,112.928h-2a2.893,2.893,0,0,0-2.506,1.905l-28.146,60.4c-.5,1.1.2,1.9,1.3,1.9h2a2.884,2.884,0,0,0,2.5-1.9l28.15-60.4C197.808,113.73,197.107,112.928,196.006,112.928Z"/><path class="cls-3" d="M178.975,127.655c0-10.419-3.1-15.729-9.915-15.729-6.613,0-9.919,5.31-9.919,15.729,0,10.316,3.306,15.726,9.919,15.726C175.871,143.381,178.975,137.971,178.975,127.655Zm-13.922,0c0-6.813.8-10.318,4.007-10.318,3.307,0,4.007,3.5,4.007,10.318,0,6.709-.7,10.316-4.007,10.316C165.853,137.971,165.053,134.364,165.053,127.655Z"/></svg>