<svg id="Layer_1" data-name="Layer 1" xmlns="http://www.w3.org/2000/svg" viewBox="0 0 300 300"><defs><style>.cls-1{fill:#f21b16;}.cls-2{fill:#e6e6e6;}.cls-3{fill:#5e5e5e;}</style></defs><path class="cls-1" d="M160.349,24.478c-2.984-.219-6.035-.331-9.074-.331l-1.373.009-.214-16.887,1.587-.008c3.447,0,6.918.126,10.311.375Z"/><path class="cls-2" d="M166.623,25.074c.492.063.972.156,1.462.223L170.2,8.544l-2.932-.37-2.116,16.753C165.644,24.983,166.132,25.012,166.623,25.074Z"/><path class="cls-2" d="M174.222,26.278c.487.093.96.216,1.444.314l3.164-16.587-2.9-.554-3.164,16.587C173.25,26.126,173.735,26.185,174.222,26.278Z"/><path class="cls-2" d="M181.73,27.956c.48.123.944.276,1.422.405L187.351,12l-2.862-.734-4.2,16.356C180.77,27.743,181.25,27.833,181.73,27.956Z"/><path class="cls-2" d="M189.118,30.1c.472.154.925.335,1.394.494l5.218-16.061-2.81-.913L187.7,29.682C188.173,29.83,188.647,29.95,189.118,30.1Z"/><path class="cls-2" d="M196.357,32.708c.46.183.9.393,1.36.58l6.216-15.7L201.185,16.5l-6.216,15.7C195.431,32.377,195.9,32.526,196.357,32.708Z"/><path class="cls-2" d="M203.417,35.764c.449.211.876.448,1.321.664l7.19-15.28-2.674-1.258-7.19,15.279C202.514,35.375,202.969,35.553,203.417,35.764Z"/><path class="cls-2" d="M210.273,39.257c.434.239.846.5,1.276.745l8.135-14.8-2.59-1.423-8.135,14.8C209.4,38.812,209.838,39.018,210.273,39.257Z"/><path class="cls-2" d="M216.9,43.173c.418.266.812.554,1.227.824l9.048-14.258-2.495-1.583-9.049,14.258C216.047,42.674,216.476,42.907,216.9,43.173Z"/><path class="cls-2" d="M223.257,47.5c.4.291.777.6,1.174.9l9.925-13.662L231.965,33,222.04,46.66C222.443,46.946,222.857,47.206,223.257,47.5Z"/><path class="cls-2" d="M229.337,52.213c.382.316.737.652,1.114.971l10.764-13.011-2.277-1.884L228.174,51.3C228.558,51.611,228.955,51.9,229.337,52.213Z"/><path class="cls-2" d="M235.108,57.3c.361.339.694.7,1.051,1.039l11.559-12.31-2.154-2.023L234,56.317C234.368,56.651,234.746,56.961,235.108,57.3Z"/><path class="cls-2" d="M240.548,62.741c.339.361.649.739.983,1.1l12.31-11.56-2.023-2.154L239.509,61.69C239.851,62.046,240.209,62.379,240.548,62.741Z"/><path class="cls-2" d="M245.635,68.512c.316.382.6.778.913,1.162L259.559,58.91l-1.883-2.276L244.664,67.4C244.984,67.775,245.32,68.13,245.635,68.512Z"/><path class="cls-2" d="M250.351,74.591c.291.4.551.814.838,1.217l13.661-9.925-1.737-2.391-13.662,9.926C249.746,73.814,250.059,74.19,250.351,74.591Z"/><path class="cls-2" d="M254.675,80.954c.266.418.5.847.76,1.268l14.257-9.048-1.583-2.5-14.258,9.049C254.121,80.141,254.41,80.535,254.675,80.954Z"/><path class="cls-2" d="M258.592,87.576c.238.434.445.877.678,1.313l14.8-8.135-1.424-2.59-14.8,8.136C258.089,86.73,258.353,87.142,258.592,87.576Z"/><path class="cls-2" d="M262.084,94.431c.211.448.389.9.595,1.353l15.279-7.19L276.7,85.92l-15.279,7.19C261.636,93.555,261.873,93.982,262.084,94.431Z"/><path class="cls-2" d="M265.14,101.491c.182.461.331.927.508,1.389l15.7-6.217-1.088-2.748-15.7,6.217C264.747,100.589,264.957,101.031,265.14,101.491Z"/><path class="cls-2" d="M267.746,108.73c.153.471.273.946.42,1.417l16.06-5.218-.913-2.811-16.06,5.219C267.411,107.805,267.593,108.259,267.746,108.73Z"/><path class="cls-2" d="M269.892,116.118c.123.48.213.961.331,1.441l16.356-4.2-.735-2.862-16.356,4.2C269.616,115.174,269.769,115.638,269.892,116.118Z"/><path class="cls-2" d="M271.57,123.626c.093.487.153.972.24,1.459l16.587-3.164-.553-2.9-16.588,3.164C271.354,122.666,271.477,123.14,271.57,123.626Z"/><path class="cls-2" d="M272.774,131.225c.062.492.091.98.148,1.471l16.753-2.117-.371-2.932-16.753,2.117C272.618,130.253,272.712,130.733,272.774,131.225Z"/><path class="cls-2" d="M273.5,138.885c.031.494.029.983.055,1.476l16.853-1.06-.185-2.949-16.854,1.06C273.4,137.905,273.467,138.39,273.5,138.885Z"/><path class="cls-2" d="M273.74,146.574c0,.495-.033.983-.038,1.477h16.886V145.1H273.7C273.707,145.591,273.74,146.078,273.74,146.574Z"/><path class="cls-2" d="M273.5,154.264c-.031.494-.094.979-.131,1.472l16.854,1.06.185-2.949-16.853-1.06C273.527,153.28,273.529,153.769,273.5,154.264Z"/><path class="cls-2" d="M272.774,161.923c-.062.492-.156.972-.223,1.461L289.3,165.5l.371-2.932-16.753-2.117C272.865,160.943,272.836,161.431,272.774,161.923Z"/><path class="cls-2" d="M271.57,169.522c-.093.487-.216.959-.314,1.444l16.588,3.164.553-2.9-16.587-3.164C271.723,168.55,271.663,169.035,271.57,169.522Z"/><path class="cls-2" d="M269.892,177.03c-.123.48-.276.944-.4,1.422l16.356,4.2.735-2.862-16.356-4.2C270.105,176.07,270.015,176.55,269.892,177.03Z"/><path class="cls-2" d="M267.746,184.418c-.153.471-.335.925-.493,1.393l16.06,5.219.913-2.811L268.166,183C268.019,183.473,267.9,183.947,267.746,184.418Z"/><path class="cls-2" d="M265.14,191.657c-.183.46-.393.9-.58,1.359l15.7,6.217,1.088-2.748-15.7-6.216C265.471,190.73,265.322,191.2,265.14,191.657Z"/><path class="cls-2" d="M262.084,198.717c-.211.449-.448.876-.663,1.321l15.279,7.19,1.258-2.674-15.279-7.19C262.473,197.813,262.3,198.269,262.084,198.717Z"/><path class="cls-2" d="M258.592,205.572c-.239.434-.5.846-.746,1.277l14.8,8.135,1.424-2.59-14.8-8.135C259.037,204.7,258.83,205.138,258.592,205.572Z"/><path class="cls-2" d="M254.675,212.194c-.265.419-.554.813-.824,1.227l14.258,9.048,1.583-2.5-14.257-9.048C255.175,211.347,254.941,211.776,254.675,212.194Z"/><path class="cls-2" d="M250.351,218.557c-.292.4-.6.777-.9,1.173l13.662,9.926,1.737-2.391-13.661-9.925C250.9,217.743,250.642,218.156,250.351,218.557Z"/><path class="cls-2" d="M245.635,224.636c-.315.382-.651.737-.971,1.115l13.012,10.763,1.883-2.276-13.011-10.764C246.237,223.858,245.951,224.254,245.635,224.636Z"/><path class="cls-2" d="M240.548,230.407c-.339.362-.7.695-1.039,1.051l12.309,11.56,2.023-2.154-12.31-11.56C241.2,229.668,240.887,230.046,240.548,230.407Z"/><path class="cls-2" d="M235.108,235.847c-.362.34-.74.65-1.1.984l11.56,12.31,2.154-2.023-11.559-12.31C235.8,235.15,235.469,235.508,235.108,235.847Z"/><path class="cls-2" d="M229.337,240.935c-.382.316-.779.6-1.163.913l10.764,13.011,2.277-1.884-10.764-13.011C230.074,240.283,229.719,240.619,229.337,240.935Z"/><path class="cls-2" d="M223.257,245.65c-.4.292-.814.552-1.217.838l9.925,13.662,2.391-1.737-9.925-13.662C224.034,245.046,223.658,245.359,223.257,245.65Z"/><path class="cls-2" d="M216.9,249.975c-.419.266-.848.5-1.269.76l9.049,14.257,2.495-1.583-9.048-14.258C217.707,249.42,217.313,249.71,216.9,249.975Z"/><path class="cls-2" d="M210.273,253.891c-.435.239-.878.445-1.314.679l8.135,14.8,2.59-1.424-8.135-14.8C211.119,253.389,210.707,253.653,210.273,253.891Z"/><path class="cls-2" d="M203.417,257.384c-.448.211-.9.389-1.353.595l7.19,15.279L211.928,272l-7.19-15.28C204.293,256.936,203.866,257.173,203.417,257.384Z"/><path class="cls-2" d="M196.357,260.439c-.461.183-.926.332-1.388.509l6.216,15.7,2.748-1.088-6.216-15.7C197.259,260.047,196.817,260.257,196.357,260.439Z"/><path class="cls-2" d="M189.118,263.046c-.471.152-.945.272-1.417.42l5.219,16.06,2.81-.913-5.218-16.06C190.043,262.71,189.59,262.892,189.118,263.046Z"/><path class="cls-2" d="M181.73,265.192c-.48.123-.96.213-1.44.33l4.2,16.356,2.862-.735-4.2-16.355C182.674,264.916,182.21,265.069,181.73,265.192Z"/><path class="cls-2" d="M174.222,266.87c-.487.093-.972.152-1.459.24l3.164,16.587,2.9-.554-3.164-16.587C175.182,266.654,174.709,266.777,174.222,266.87Z"/><path class="cls-2" d="M166.623,268.074c-.491.062-.979.091-1.47.147l2.116,16.753,2.932-.37-2.116-16.753C167.6,267.918,167.115,268.012,166.623,268.074Z"/><path class="cls-2" d="M158.964,268.8c-.5.031-.983.029-1.477.055l1.06,16.853,2.95-.186-1.061-16.853C159.943,268.7,159.458,268.766,158.964,268.8Z"/><path class="cls-2" d="M151.274,269.04c-.5,0-.983-.033-1.477-.039v16.887h2.955V269C152.258,269.007,151.77,269.04,151.274,269.04Z"/><path class="cls-2" d="M143.585,268.8c-.5-.032-.98-.1-1.473-.131l-1.06,16.853,2.949.186,1.06-16.853C144.568,268.827,144.079,268.829,143.585,268.8Z"/><path class="cls-2" d="M135.925,268.074c-.491-.062-.971-.156-1.461-.223L132.348,284.6l2.931.37,2.117-16.753C136.905,268.165,136.417,268.136,135.925,268.074Z"/><path class="cls-2" d="M128.326,266.87c-.486-.093-.959-.216-1.444-.314l-3.164,16.587,2.9.554,3.164-16.587C129.3,267.022,128.813,266.963,128.326,266.87Z"/><path class="cls-2" d="M120.818,265.192c-.48-.123-.944-.276-1.422-.4l-4.2,16.355,2.862.735,4.2-16.356C121.779,265.4,121.3,265.315,120.818,265.192Z"/><path class="cls-2" d="M113.43,263.046c-.471-.154-.925-.336-1.393-.493l-5.218,16.06,2.81.913,5.218-16.06C114.376,263.318,113.9,263.2,113.43,263.046Z"/><path class="cls-2" d="M106.192,260.439c-.461-.182-.9-.392-1.36-.579l-6.217,15.7,2.748,1.088,6.217-15.7C107.118,260.771,106.653,260.622,106.192,260.439Z"/><path class="cls-2" d="M99.131,257.384c-.448-.211-.876-.448-1.321-.664L90.621,272l2.673,1.258,7.19-15.279C100.035,257.773,99.579,257.6,99.131,257.384Z"/><path class="cls-2" d="M92.276,253.891c-.434-.238-.846-.5-1.276-.745l-8.135,14.8,2.589,1.424,8.135-14.8C93.154,254.336,92.71,254.13,92.276,253.891Z"/><path class="cls-2" d="M85.654,249.975c-.419-.265-.813-.555-1.227-.824l-9.048,14.258,2.495,1.583,9.048-14.257C86.5,250.474,86.073,250.241,85.654,249.975Z"/><path class="cls-2" d="M79.291,245.65c-.4-.291-.776-.6-1.173-.9l-9.926,13.662,2.391,1.737,9.925-13.662C80.106,246.2,79.692,245.942,79.291,245.65Z"/><path class="cls-2" d="M73.212,240.935c-.382-.316-.737-.652-1.114-.971L61.334,252.975l2.277,1.884,10.763-13.011C73.99,241.537,73.594,241.251,73.212,240.935Z"/><path class="cls-2" d="M67.441,235.847c-.362-.339-.7-.7-1.051-1.039l-11.56,12.31,2.154,2.023,11.56-12.31C68.18,236.5,67.8,236.187,67.441,235.847Z"/><path class="cls-2" d="M62,230.407c-.34-.361-.649-.739-.984-1.1l-12.31,11.56,2.023,2.154,12.31-11.56C62.7,231.1,62.34,230.769,62,230.407Z"/><path class="cls-2" d="M56.913,224.636c-.316-.382-.6-.778-.912-1.162L42.989,234.238l1.884,2.276,13.011-10.763C57.565,225.373,57.229,225.018,56.913,224.636Z"/><path class="cls-2" d="M52.2,218.557c-.291-.4-.552-.814-.838-1.217L37.7,227.265l1.736,2.391L53.1,219.73C52.8,219.334,52.489,218.958,52.2,218.557Z"/><path class="cls-2" d="M47.873,212.194c-.265-.418-.5-.847-.759-1.268l-14.258,9.048,1.584,2.5L48.7,213.421C48.428,213.007,48.139,212.613,47.873,212.194Z"/><path class="cls-2" d="M43.957,205.572c-.239-.434-.445-.877-.678-1.313l-14.8,8.135,1.424,2.59,14.8-8.135C44.459,206.418,44.2,206.006,43.957,205.572Z"/><path class="cls-2" d="M40.464,198.717c-.211-.448-.389-.9-.594-1.353l-15.28,7.19,1.259,2.674,15.279-7.19C40.913,199.593,40.675,199.166,40.464,198.717Z"/><path class="cls-2" d="M37.409,191.657c-.183-.461-.332-.927-.509-1.388l-15.7,6.216,1.088,2.748,15.7-6.217C37.8,192.559,37.591,192.117,37.409,191.657Z"/><path class="cls-2" d="M34.8,184.418c-.153-.471-.273-.945-.42-1.417l-16.061,5.218.914,2.811,16.06-5.219C35.138,185.343,34.956,184.889,34.8,184.418Z"/><path class="cls-2" d="M32.656,177.03c-.123-.48-.212-.96-.33-1.441l-16.356,4.2.735,2.862,16.356-4.2C32.932,177.974,32.78,177.51,32.656,177.03Z"/><path class="cls-2" d="M30.978,169.522c-.093-.487-.152-.972-.24-1.459l-16.587,3.164.554,2.9,16.587-3.164C31.194,170.481,31.071,170.009,30.978,169.522Z"/><path class="cls-2" d="M29.775,161.923c-.062-.492-.092-.98-.148-1.471l-16.753,2.117.37,2.932L30,163.384C29.93,162.9,29.837,162.415,29.775,161.923Z"/><path class="cls-2" d="M29.051,154.264c-.032-.5-.03-.984-.055-1.477l-16.853,1.06.185,2.949,16.853-1.06C29.145,155.243,29.082,154.758,29.051,154.264Z"/><path class="cls-2" d="M28.809,146.574c0-.5.033-.983.038-1.478H11.961v2.955H28.847C28.842,147.557,28.809,147.069,28.809,146.574Z"/><path class="cls-2" d="M29.051,138.885c.031-.5.094-.98.13-1.473l-16.853-1.06-.185,2.949L29,140.361C29.021,139.868,29.019,139.379,29.051,138.885Z"/><path class="cls-2" d="M29.775,131.225c.062-.492.155-.972.223-1.461l-16.754-2.117-.37,2.932L29.627,132.7C29.683,132.205,29.713,131.717,29.775,131.225Z"/><path class="cls-2" d="M30.978,123.626c.093-.486.216-.96.314-1.444l-16.587-3.164-.554,2.9,16.587,3.164C30.826,124.6,30.885,124.113,30.978,123.626Z"/><path class="cls-2" d="M32.656,116.118c.124-.48.276-.944.405-1.422L16.7,110.5l-.735,2.862,16.356,4.2C32.444,117.079,32.533,116.6,32.656,116.118Z"/><path class="cls-2" d="M34.8,108.73c.153-.471.335-.925.493-1.393l-16.06-5.219-.914,2.811,16.061,5.218C34.53,109.676,34.65,109.2,34.8,108.73Z"/><path class="cls-2" d="M37.409,101.491c.182-.46.392-.9.579-1.359l-15.7-6.217L21.2,96.663l15.7,6.217C37.077,102.418,37.226,101.952,37.409,101.491Z"/><path class="cls-2" d="M40.464,94.431c.211-.449.449-.876.664-1.321L25.849,85.92,24.59,88.594l15.28,7.19C40.075,95.334,40.253,94.879,40.464,94.431Z"/><path class="cls-2" d="M43.957,87.576c.239-.434.5-.846.745-1.276l-14.8-8.136-1.424,2.59,14.8,8.135C43.512,88.453,43.718,88.01,43.957,87.576Z"/><path class="cls-2" d="M47.873,80.954c.266-.419.555-.813.824-1.227L34.44,70.678l-1.584,2.5,14.258,9.048C47.374,81.8,47.608,81.372,47.873,80.954Z"/><path class="cls-2" d="M52.2,74.591c.291-.4.6-.777.9-1.173L39.435,63.492,37.7,65.883,51.36,75.808C51.646,75.405,51.907,74.991,52.2,74.591Z"/><path class="cls-2" d="M56.913,68.512c.316-.382.652-.737.971-1.114L44.873,56.634,42.989,58.91,56,69.674C56.311,69.29,56.6,68.894,56.913,68.512Z"/><path class="cls-2" d="M62,62.741c.339-.362.7-.7,1.039-1.051L50.73,50.13l-2.023,2.154,12.31,11.56C61.352,63.48,61.661,63.1,62,62.741Z"/><path class="cls-2" d="M67.441,57.3c.361-.34.739-.65,1.1-.984l-11.56-12.31L54.83,46.03,66.39,58.34C66.746,58,67.079,57.64,67.441,57.3Z"/><path class="cls-2" d="M73.212,52.213c.382-.316.778-.6,1.162-.912L63.611,38.289l-2.277,1.884L72.1,53.184C72.475,52.865,72.83,52.529,73.212,52.213Z"/><path class="cls-2" d="M79.291,47.5c.4-.292.815-.552,1.217-.838L70.583,33l-2.391,1.737L78.118,48.4C78.515,48.1,78.89,47.789,79.291,47.5Z"/><path class="cls-2" d="M85.654,43.173c.419-.266.848-.5,1.268-.759L77.874,28.156l-2.495,1.583L84.427,44C84.841,43.727,85.235,43.439,85.654,43.173Z"/><path class="cls-2" d="M92.276,39.257c.434-.239.878-.445,1.313-.679l-8.135-14.8L82.865,25.2,91,40C91.43,39.759,91.842,39.5,92.276,39.257Z"/><path class="cls-2" d="M99.131,35.764c.448-.211.9-.389,1.353-.6L93.294,19.89l-2.673,1.258,7.189,15.28C98.255,36.212,98.683,35.975,99.131,35.764Z"/><path class="cls-2" d="M106.192,32.708c.461-.182.926-.331,1.388-.508l-6.217-15.7-2.748,1.088,6.217,15.7C105.289,33.1,105.731,32.891,106.192,32.708Z"/><path class="cls-2" d="M113.43,30.1c.472-.152.946-.272,1.417-.42l-5.218-16.06-2.81.913L112.037,30.6C112.505,30.437,112.959,30.256,113.43,30.1Z"/><path class="cls-2" d="M120.818,27.956c.48-.123.961-.213,1.441-.33l-4.2-16.356L115.2,12l4.2,16.357C119.874,28.232,120.338,28.079,120.818,27.956Z"/><path class="cls-2" d="M128.326,26.278c.487-.093.973-.152,1.459-.24L126.621,9.451l-2.9.554,3.164,16.587C127.367,26.494,127.84,26.371,128.326,26.278Z"/><path class="cls-2" d="M135.925,25.074c.492-.062.98-.091,1.471-.147L135.279,8.174l-2.931.37L134.464,25.3C134.954,25.23,135.434,25.137,135.925,25.074Z"/><path class="cls-2" d="M143.585,24.35c.494-.031.983-.029,1.476-.054L144,7.442l-2.949.186,1.06,16.853C142.6,24.445,143.09,24.381,143.585,24.35Z"/><path class="cls-3" d="M131.383,112.3h-2a1.845,1.845,0,0,0-1.905,1.9v.7c0,3.606-1.7,5.21-4.708,5.21h-.9a1.84,1.84,0,0,0-1.905,1.9v2.2a1.841,1.841,0,0,0,1.905,1.9h4.2v48.483a1.842,1.842,0,0,0,1.905,1.9h3.405a1.841,1.841,0,0,0,1.9-1.9V114.2A1.841,1.841,0,0,0,131.383,112.3Z"/><path class="cls-3" d="M159.533,127.025c0-10.418-3.1-15.728-9.915-15.728-6.612,0-9.919,5.31-9.919,15.728,0,10.317,3.307,15.726,9.919,15.726C156.429,142.751,159.533,137.342,159.533,127.025Zm-13.922,0c0-6.813.8-10.317,4.007-10.317,3.307,0,4.007,3.5,4.007,10.317,0,6.71-.7,10.317-4.007,10.317C146.411,137.342,145.611,133.735,145.611,127.025Z"/><path class="cls-3" d="M172.157,146.058c-6.613,0-9.919,5.307-9.919,15.726,0,10.316,3.306,15.726,9.919,15.726,6.81,0,9.915-5.41,9.915-15.726C182.072,151.365,178.967,146.058,172.157,146.058Zm0,26.042c-3.207,0-4.007-3.607-4.007-10.316,0-6.813.8-10.318,4.007-10.318,3.3,0,4.007,3.5,4.007,10.318C176.164,168.493,175.459,172.1,172.157,172.1Z"/><path class="cls-3" d="M176.564,112.3h-2a2.887,2.887,0,0,0-2.506,1.9l-28.146,60.4c-.5,1.1.2,1.9,1.3,1.9h2a2.884,2.884,0,0,0,2.5-1.9l28.15-60.4C178.365,113.1,177.665,112.3,176.564,112.3Z"/></svg>