<svg id="Layer_1" data-name="Layer 1" xmlns="http://www.w3.org/2000/svg" viewBox="0 0 300 300"><defs><style>.cls-1{fill:#f21b16;}.cls-2{fill:#e6e6e6;}.cls-3{fill:#5e5e5e;}</style></defs><path class="cls-1" d="M270.683,103.413A123.175,123.175,0,0,0,156.316,24.777l-1.369.008L154.733,7.9l1.583-.009A140.153,140.153,0,0,1,286.449,97.369Z"/><path class="cls-2" d="M272.787,109.36c.153.472.273.945.42,1.417l16.06-5.218-.913-2.81-16.06,5.218C272.452,108.435,272.634,108.889,272.787,109.36Z"/><path class="cls-2" d="M274.933,116.748c.123.48.213.961.331,1.441l16.356-4.2-.735-2.862-16.356,4.2C274.658,115.8,274.81,116.268,274.933,116.748Z"/><path class="cls-2" d="M276.612,124.256c.093.487.152.972.239,1.459l16.588-3.164-.554-2.9L276.3,122.812C276.4,123.3,276.519,123.769,276.612,124.256Z"/><path class="cls-2" d="M277.815,131.855c.062.492.091.98.148,1.471l16.753-2.117-.37-2.932-16.754,2.117C277.66,130.884,277.753,131.363,277.815,131.855Z"/><path class="cls-2" d="M278.539,139.514c.031.495.029.984.055,1.478l16.853-1.061-.185-2.949-16.854,1.06C278.445,138.535,278.508,139.02,278.539,139.514Z"/><path class="cls-2" d="M278.781,147.2c0,.5-.033.983-.038,1.478h16.886v-2.955H278.743C278.748,146.221,278.781,146.709,278.781,147.2Z"/><path class="cls-2" d="M278.539,154.894c-.031.494-.094.979-.131,1.472l16.854,1.06.185-2.949-16.853-1.06C278.568,153.91,278.57,154.4,278.539,154.894Z"/><path class="cls-2" d="M277.815,162.553c-.062.492-.155.972-.223,1.461l16.754,2.117.37-2.932-16.753-2.117C277.906,161.573,277.877,162.061,277.815,162.553Z"/><path class="cls-2" d="M276.612,170.152c-.093.486-.216.96-.315,1.444l16.588,3.164.554-2.9-16.588-3.165C276.764,169.18,276.705,169.665,276.612,170.152Z"/><path class="cls-2" d="M274.933,177.66c-.123.48-.275.944-.4,1.422l16.356,4.2.735-2.862-16.356-4.2C275.146,176.7,275.056,177.18,274.933,177.66Z"/><path class="cls-2" d="M272.787,185.048c-.153.471-.335.925-.493,1.393l16.06,5.219.913-2.811-16.06-5.218C273.06,184.1,272.94,184.577,272.787,185.048Z"/><path class="cls-2" d="M270.181,192.286c-.182.461-.392.9-.579,1.36l15.7,6.217,1.088-2.748-15.7-6.216C270.513,191.36,270.363,191.826,270.181,192.286Z"/><path class="cls-2" d="M267.125,199.347c-.21.449-.448.876-.663,1.321l15.279,7.19L283,205.184l-15.279-7.19C267.515,198.444,267.336,198.9,267.125,199.347Z"/><path class="cls-2" d="M263.633,206.2c-.239.435-.5.846-.745,1.276l14.8,8.136,1.424-2.59-14.8-8.135C264.078,205.325,263.872,205.768,263.633,206.2Z"/><path class="cls-2" d="M259.716,212.824c-.265.419-.554.813-.823,1.228L273.15,223.1l1.584-2.5-14.258-9.049C260.216,211.977,259.982,212.406,259.716,212.824Z"/><path class="cls-2" d="M255.392,219.188c-.291.4-.6.776-.9,1.172l13.661,9.926,1.737-2.391L256.23,217.97C255.944,218.373,255.683,218.787,255.392,219.188Z"/><path class="cls-2" d="M250.677,225.266c-.316.382-.652.737-.971,1.115l13.011,10.764,1.883-2.277L251.589,224.1C251.279,224.488,250.993,224.885,250.677,225.266Z"/><path class="cls-2" d="M245.589,231.037c-.339.362-.7.695-1.039,1.051l12.31,11.56,2.023-2.154-12.31-11.56C246.238,230.3,245.928,230.676,245.589,231.037Z"/><path class="cls-2" d="M240.149,236.477c-.361.34-.739.65-1.1.984l11.559,12.31,2.154-2.023L241.2,235.438C240.844,235.781,240.51,236.138,240.149,236.477Z"/><path class="cls-2" d="M234.378,241.565c-.382.316-.778.6-1.163.913l10.764,13.011,2.277-1.884-10.764-13.011C235.115,240.913,234.76,241.249,234.378,241.565Z"/><path class="cls-2" d="M228.3,246.281c-.4.291-.815.551-1.218.837l9.926,13.662,2.391-1.737-9.926-13.661C229.075,245.676,228.7,245.989,228.3,246.281Z"/><path class="cls-2" d="M221.936,250.605c-.419.265-.848.5-1.268.759l9.048,14.258,2.5-1.583-9.048-14.258C222.748,250.051,222.354,250.339,221.936,250.605Z"/><path class="cls-2" d="M215.314,254.521c-.435.239-.878.445-1.314.679l8.136,14.8,2.589-1.423-8.135-14.8C216.16,254.019,215.748,254.282,215.314,254.521Z"/><path class="cls-2" d="M208.459,258.014c-.449.211-.9.389-1.353.595l7.189,15.279,2.674-1.258-7.19-15.28C209.335,257.566,208.907,257.8,208.459,258.014Z"/><path class="cls-2" d="M201.4,261.07c-.461.182-.926.331-1.388.508l6.217,15.7,2.747-1.088-6.216-15.7C202.3,260.677,201.859,260.887,201.4,261.07Z"/><path class="cls-2" d="M194.159,263.676c-.471.153-.945.272-1.417.42l5.219,16.06,2.81-.913-5.218-16.06C195.084,263.341,194.631,263.522,194.159,263.676Z"/><path class="cls-2" d="M186.771,265.822c-.48.123-.96.213-1.44.33l4.2,16.357,2.863-.735-4.2-16.356C187.716,265.546,187.252,265.7,186.771,265.822Z"/><path class="cls-2" d="M179.263,267.5c-.487.093-.972.152-1.458.24l3.164,16.587,2.9-.554-3.164-16.587C180.223,267.284,179.75,267.407,179.263,267.5Z"/><path class="cls-2" d="M171.665,268.7c-.492.062-.98.091-1.471.147L172.31,285.6l2.932-.37-2.116-16.753C172.636,268.548,172.156,268.641,171.665,268.7Z"/><path class="cls-2" d="M164.005,269.428c-.5.031-.983.029-1.477.054l1.061,16.854,2.949-.186L165.477,269.3C164.985,269.333,164.5,269.4,164.005,269.428Z"/><path class="cls-2" d="M156.315,269.669c-.5,0-.983-.032-1.477-.038v16.887h2.955V269.631C157.3,269.637,156.811,269.669,156.315,269.669Z"/><path class="cls-2" d="M148.626,269.428c-.5-.031-.98-.095-1.472-.131l-1.061,16.853,2.949.186,1.061-16.854C149.609,269.457,149.121,269.459,148.626,269.428Z"/><path class="cls-2" d="M140.966,268.7c-.491-.063-.971-.156-1.461-.223l-2.116,16.753,2.932.37,2.116-16.753C141.946,268.8,141.458,268.766,140.966,268.7Z"/><path class="cls-2" d="M133.368,267.5c-.487-.093-.96-.216-1.445-.314l-3.164,16.587,2.9.554,3.164-16.587C134.34,267.652,133.855,267.593,133.368,267.5Z"/><path class="cls-2" d="M125.86,265.822c-.481-.123-.945-.276-1.422-.4l-4.2,16.356,2.863.735,4.2-16.357C126.82,266.035,126.34,265.945,125.86,265.822Z"/><path class="cls-2" d="M118.472,263.676c-.472-.154-.925-.335-1.394-.493l-5.218,16.06,2.81.913,5.219-16.06C119.417,263.948,118.943,263.829,118.472,263.676Z"/><path class="cls-2" d="M111.233,261.07c-.461-.183-.9-.393-1.36-.58l-6.216,15.7,2.747,1.088,6.217-15.7C112.159,261.4,111.694,261.252,111.233,261.07Z"/><path class="cls-2" d="M104.172,258.014c-.448-.211-.876-.448-1.32-.664l-7.19,15.28,2.674,1.258,7.189-15.279C105.076,258.4,104.621,258.225,104.172,258.014Z"/><path class="cls-2" d="M97.317,254.521c-.434-.239-.846-.5-1.276-.745l-8.135,14.8L90.5,270l8.136-14.8C98.2,254.966,97.752,254.76,97.317,254.521Z"/><path class="cls-2" d="M90.7,250.605c-.418-.266-.812-.554-1.227-.824L80.42,264.039l2.5,1.583,9.048-14.258C91.543,251.1,91.114,250.87,90.7,250.605Z"/><path class="cls-2" d="M84.332,246.281c-.4-.292-.776-.605-1.173-.9l-9.926,13.661,2.391,1.737,9.926-13.662C85.147,246.832,84.733,246.572,84.332,246.281Z"/><path class="cls-2" d="M78.253,241.565c-.382-.316-.737-.652-1.114-.971L66.375,253.605l2.277,1.884,10.764-13.011C79.031,242.167,78.635,241.881,78.253,241.565Z"/><path class="cls-2" d="M72.482,236.477c-.361-.339-.695-.7-1.051-1.039l-11.559,12.31,2.154,2.023,11.559-12.31C73.221,237.127,72.843,236.817,72.482,236.477Z"/><path class="cls-2" d="M67.042,231.037c-.339-.361-.649-.739-.984-1.1l-12.31,11.56,2.023,2.154,12.31-11.56C67.739,231.732,67.381,231.4,67.042,231.037Z"/><path class="cls-2" d="M61.954,225.266c-.316-.381-.6-.778-.912-1.162L48.031,234.868l1.883,2.277,13.011-10.764C62.606,226,62.27,225.648,61.954,225.266Z"/><path class="cls-2" d="M57.239,219.188c-.291-.4-.552-.815-.838-1.218L42.74,227.9l1.737,2.391,13.661-9.926C57.843,219.964,57.53,219.588,57.239,219.188Z"/><path class="cls-2" d="M52.915,212.824c-.266-.418-.5-.847-.76-1.268L37.9,220.605l1.584,2.5,14.257-9.048C53.469,213.637,53.18,213.243,52.915,212.824Z"/><path class="cls-2" d="M49,206.2c-.239-.434-.445-.877-.678-1.313l-14.8,8.135,1.424,2.59,14.8-8.136C49.5,207.048,49.237,206.637,49,206.2Z"/><path class="cls-2" d="M45.506,199.347c-.211-.448-.39-.9-.595-1.353l-15.279,7.19,1.258,2.674,15.279-7.19C45.954,200.223,45.716,199.8,45.506,199.347Z"/><path class="cls-2" d="M42.45,192.286c-.182-.46-.332-.926-.509-1.387l-15.7,6.216,1.088,2.748,15.7-6.217C42.842,193.189,42.632,192.747,42.45,192.286Z"/><path class="cls-2" d="M39.844,185.048c-.153-.471-.273-.945-.42-1.417l-16.06,5.218.913,2.811,16.06-5.219C40.179,185.973,40,185.519,39.844,185.048Z"/><path class="cls-2" d="M37.7,177.66c-.123-.48-.213-.961-.331-1.441l-16.356,4.2.735,2.862,16.356-4.2C37.973,178.6,37.821,178.14,37.7,177.66Z"/><path class="cls-2" d="M36.019,170.152c-.093-.487-.152-.972-.239-1.459l-16.588,3.165.554,2.9L36.334,171.6C36.235,171.112,36.112,170.638,36.019,170.152Z"/><path class="cls-2" d="M34.816,162.553c-.062-.492-.091-.98-.148-1.471L17.915,163.2l.37,2.932,16.754-2.117C34.971,163.525,34.878,163.045,34.816,162.553Z"/><path class="cls-2" d="M34.092,154.894c-.031-.5-.029-.984-.055-1.477l-16.853,1.06.185,2.949,16.854-1.06C34.186,155.873,34.123,155.388,34.092,154.894Z"/><path class="cls-2" d="M33.85,147.2c0-.5.033-.983.038-1.477H17v2.955H33.888C33.883,148.187,33.85,147.7,33.85,147.2Z"/><path class="cls-2" d="M34.092,139.514c.031-.494.094-.979.131-1.472l-16.854-1.06-.185,2.949,16.853,1.061C34.063,140.5,34.061,140.009,34.092,139.514Z"/><path class="cls-2" d="M34.816,131.855c.062-.492.155-.971.223-1.461l-16.754-2.117-.37,2.932,16.753,2.117C34.725,132.835,34.754,132.347,34.816,131.855Z"/><path class="cls-2" d="M36.019,124.256c.093-.487.216-.959.315-1.444l-16.588-3.164-.554,2.9,16.588,3.164C35.867,125.228,35.926,124.743,36.019,124.256Z"/><path class="cls-2" d="M37.7,116.748c.123-.48.275-.944.4-1.421l-16.356-4.2-.735,2.862,16.356,4.2C37.485,117.709,37.575,117.228,37.7,116.748Z"/><path class="cls-2" d="M39.844,109.36c.153-.471.335-.925.493-1.393l-16.06-5.218-.913,2.81,16.06,5.218C39.571,110.305,39.691,109.832,39.844,109.36Z"/><path class="cls-2" d="M42.45,102.122c.182-.461.392-.9.579-1.36l-15.7-6.216-1.088,2.747,15.7,6.216C42.118,103.048,42.268,102.582,42.45,102.122Z"/><path class="cls-2" d="M45.506,95.061c.21-.449.448-.876.663-1.321L30.89,86.55l-1.258,2.674,15.279,7.19C45.116,95.965,45.3,95.509,45.506,95.061Z"/><path class="cls-2" d="M49,88.206c.239-.434.5-.846.745-1.277l-14.8-8.135-1.424,2.59,14.8,8.135C48.553,89.083,48.759,88.64,49,88.206Z"/><path class="cls-2" d="M52.915,81.584c.265-.418.554-.813.823-1.227L39.481,71.308,37.9,73.8l14.258,9.049C52.415,82.432,52.649,82,52.915,81.584Z"/><path class="cls-2" d="M57.239,75.221c.291-.4.6-.777.9-1.173L44.477,64.122,42.74,66.513,56.4,76.439C56.687,76.035,56.948,75.622,57.239,75.221Z"/><path class="cls-2" d="M61.954,69.142c.316-.382.652-.737.971-1.115L49.914,57.264l-1.883,2.277L61.042,70.305C61.352,69.92,61.638,69.524,61.954,69.142Z"/><path class="cls-2" d="M67.042,63.371c.339-.361.7-.7,1.039-1.051L55.771,50.76l-2.023,2.154,12.31,11.56C66.393,64.11,66.7,63.732,67.042,63.371Z"/><path class="cls-2" d="M72.482,57.931c.361-.339.739-.65,1.1-.984L62.026,44.637,59.872,46.66,71.431,58.97C71.787,58.628,72.121,58.27,72.482,57.931Z"/><path class="cls-2" d="M78.253,52.843c.382-.316.778-.6,1.163-.913L68.652,38.919,66.375,40.8,77.139,53.814C77.516,53.5,77.871,53.159,78.253,52.843Z"/><path class="cls-2" d="M84.332,48.128c.4-.292.815-.552,1.218-.838L75.624,33.628l-2.391,1.737,9.926,13.662C83.556,48.732,83.931,48.419,84.332,48.128Z"/><path class="cls-2" d="M90.7,43.8c.419-.265.848-.5,1.268-.76L82.915,28.786l-2.5,1.583,9.048,14.258C89.883,44.358,90.277,44.069,90.7,43.8Z"/><path class="cls-2" d="M97.317,39.887c.435-.239.878-.445,1.314-.679L90.5,24.411l-2.589,1.423,8.135,14.8C96.471,40.389,96.883,40.125,97.317,39.887Z"/><path class="cls-2" d="M104.172,36.394c.449-.211.9-.389,1.353-.594L98.336,20.52l-2.674,1.258,7.19,15.28C103.3,36.842,103.724,36.6,104.172,36.394Z"/><path class="cls-2" d="M111.233,33.339c.461-.183.926-.332,1.388-.509l-6.217-15.7-2.747,1.088,6.216,15.7C110.331,33.731,110.772,33.521,111.233,33.339Z"/><path class="cls-2" d="M118.472,30.733c.471-.154.945-.273,1.417-.421l-5.219-16.06-2.81.913,5.218,16.06C117.547,31.067,118,30.886,118.472,30.733Z"/><path class="cls-2" d="M125.86,28.586c.48-.123.96-.213,1.44-.331L123.1,11.9l-2.863.735,4.2,16.355C124.915,28.862,125.379,28.709,125.86,28.586Z"/><path class="cls-2" d="M133.368,26.908c.487-.093.972-.152,1.458-.239l-3.164-16.588-2.9.554,3.164,16.587C132.408,27.124,132.881,27,133.368,26.908Z"/><path class="cls-2" d="M140.966,25.7c.492-.062.98-.09,1.471-.147L140.321,8.8l-2.932.371,2.116,16.753C140,25.86,140.475,25.766,140.966,25.7Z"/><path class="cls-2" d="M148.626,24.98c.5-.031.983-.029,1.477-.055L149.042,8.072l-2.949.186,1.061,16.853C147.646,25.074,148.131,25.012,148.626,24.98Z"/><path class="cls-3" d="M121.194,112.928h-2a1.845,1.845,0,0,0-1.905,1.905v.7c0,3.6-1.7,5.209-4.708,5.209h-.9a1.84,1.84,0,0,0-1.9,1.9v2.2a1.84,1.84,0,0,0,1.9,1.9h4.206v48.482a1.842,1.842,0,0,0,1.9,1.9h3.405a1.841,1.841,0,0,0,1.9-1.9v-60.4A1.841,1.841,0,0,0,121.194,112.928Z"/><path class="cls-3" d="M142.332,112.328c-7.813,0-12.62,4.908-12.62,19.332s4.407,19.333,11.618,19.333c2.506,0,5.71-1.2,7.116-3.906,0,17.33-.7,24.34-6.411,24.34-4.209,0-5.112-4.207-4.811-9.115.1-2.1-.5-3.305-2-3.305h-2.3a2.374,2.374,0,0,0-2.507,2.7c0,12.22,4.308,16.027,11.622,16.027,12.92,0,13.32-13.224,13.32-37.263C155.355,120.242,152.448,112.328,142.332,112.328Zm0,32.654c-3.1,0-5.409-1.7-5.409-13.322s2.3-13.323,5.409-13.323,6.011,1.7,6.011,13.323S145.44,144.982,142.332,144.982Z"/><path class="cls-3" d="M179.8,127.655c0-10.419-3.1-15.729-9.915-15.729-6.613,0-9.92,5.31-9.92,15.729,0,10.316,3.307,15.726,9.92,15.726C176.7,143.381,179.8,137.971,179.8,127.655Zm-13.923,0c0-6.813.8-10.318,4.008-10.318,3.306,0,4.007,3.5,4.007,10.318,0,6.709-.7,10.316-4.007,10.316C166.68,137.971,165.88,134.364,165.88,127.655Z"/><path class="cls-3" d="M192.426,146.687c-6.612,0-9.919,5.308-9.919,15.726,0,10.317,3.307,15.726,9.919,15.726,6.811,0,9.915-5.409,9.915-15.726C202.341,152,199.237,146.687,192.426,146.687Zm0,26.043c-3.207,0-4.007-3.608-4.007-10.317,0-6.813.8-10.317,4.007-10.317,3.3,0,4.008,3.5,4.008,10.317C196.434,169.122,195.729,172.73,192.426,172.73Z"/><path class="cls-3" d="M196.833,112.928h-2a2.893,2.893,0,0,0-2.507,1.905l-28.145,60.4c-.5,1.1.2,1.9,1.3,1.9h2a2.882,2.882,0,0,0,2.5-1.9l28.15-60.4C198.635,113.73,197.934,112.928,196.833,112.928Z"/></svg>