<svg id="Layer_1" data-name="Layer 1" xmlns="http://www.w3.org/2000/svg" viewBox="0 0 300 300"><defs><style>.cls-1{fill:#f21b16;}.cls-2{fill:#e6e6e6;}.cls-3{fill:#5e5e5e;}</style></defs><path class="cls-1" d="M267.532,111.307a121.886,121.886,0,0,0-116.886-85.9l-1.41.008L149.1,8.528l1.55-.008a138.7,138.7,0,0,1,133.006,97.753Z"/><path class="cls-2" d="M269.262,117.378c.123.48.213.961.33,1.441l16.357-4.2-.735-2.862-16.356,4.2C268.986,116.434,269.139,116.9,269.262,117.378Z"/><path class="cls-2" d="M270.94,124.886c.093.488.152.973.24,1.459l16.587-3.164-.554-2.9-16.587,3.164C270.724,123.927,270.847,124.4,270.94,124.886Z"/><path class="cls-2" d="M272.144,132.485c.062.492.091.98.147,1.471l16.753-2.117-.37-2.931-16.753,2.116C271.988,131.514,272.081,131.994,272.144,132.485Z"/><path class="cls-2" d="M272.868,140.145c.031.494.029.983.054,1.477l16.854-1.061-.186-2.949-16.853,1.061C272.773,139.165,272.837,139.65,272.868,140.145Z"/><path class="cls-2" d="M273.109,147.834c0,.5-.032.984-.038,1.478h16.887v-2.955H273.071C273.077,146.851,273.109,147.339,273.109,147.834Z"/><path class="cls-2" d="M272.868,155.524c-.031.494-.095.98-.131,1.472l16.853,1.061.186-2.95-16.854-1.06C272.9,154.54,272.9,155.029,272.868,155.524Z"/><path class="cls-2" d="M272.144,163.183c-.063.492-.156.972-.223,1.462l16.753,2.116.37-2.932-16.753-2.116C272.235,162.2,272.206,162.692,272.144,163.183Z"/><path class="cls-2" d="M270.94,170.782c-.093.487-.216.96-.314,1.444l16.587,3.165.554-2.9-16.587-3.165C271.092,169.81,271.033,170.3,270.94,170.782Z"/><path class="cls-2" d="M269.262,178.29c-.123.48-.276.944-.4,1.422l16.356,4.2.735-2.863-16.357-4.2C269.475,177.33,269.385,177.81,269.262,178.29Z"/><path class="cls-2" d="M267.116,185.678c-.154.472-.335.925-.493,1.394l16.06,5.218.913-2.81-16.06-5.219C267.388,184.733,267.269,185.207,267.116,185.678Z"/><path class="cls-2" d="M264.51,192.917c-.183.461-.393.9-.58,1.36l15.7,6.216,1.088-2.748-15.7-6.216C264.841,191.991,264.692,192.456,264.51,192.917Z"/><path class="cls-2" d="M261.454,199.977c-.211.449-.448.876-.663,1.321l15.279,7.19,1.258-2.674-15.279-7.19C261.843,199.074,261.665,199.529,261.454,199.977Z"/><path class="cls-2" d="M257.961,206.833c-.239.434-.5.846-.745,1.276l14.8,8.135,1.423-2.589-14.8-8.136C258.406,205.955,258.2,206.4,257.961,206.833Z"/><path class="cls-2" d="M254.045,213.455c-.266.418-.554.812-.824,1.227l14.258,9.048,1.583-2.495L254.8,212.186C254.544,212.607,254.31,213.036,254.045,213.455Z"/><path class="cls-2" d="M249.721,219.818c-.292.4-.6.776-.9,1.173l13.661,9.926,1.737-2.392L250.558,218.6C250.272,219,250.012,219.417,249.721,219.818Z"/><path class="cls-2" d="M245.005,225.9c-.316.382-.652.737-.971,1.114l13.011,10.764,1.884-2.277-13.011-10.764C245.607,225.118,245.321,225.515,245.005,225.9Z"/><path class="cls-2" d="M239.918,231.668c-.34.361-.7.694-1.04,1.051l12.31,11.559,2.023-2.154-12.31-11.56C240.567,230.929,240.257,231.306,239.918,231.668Z"/><path class="cls-2" d="M234.477,237.108c-.361.339-.739.649-1.1.984l11.56,12.309,2.154-2.023-11.56-12.309C235.172,236.411,234.839,236.769,234.477,237.108Z"/><path class="cls-2" d="M228.706,242.2c-.381.316-.778.6-1.162.913l10.764,13.011,2.277-1.883-10.764-13.012C229.443,241.544,229.088,241.88,228.706,242.2Z"/><path class="cls-2" d="M222.628,246.911c-.4.291-.815.551-1.218.838l9.925,13.661,2.391-1.737L223.8,246.012C223.4,246.306,223.028,246.62,222.628,246.911Z"/><path class="cls-2" d="M216.264,251.235c-.418.266-.847.5-1.267.76l9.048,14.257,2.5-1.583-9.048-14.257C217.077,250.681,216.683,250.97,216.264,251.235Z"/><path class="cls-2" d="M209.642,255.152c-.434.238-.877.445-1.313.678l8.135,14.8,2.59-1.424-8.135-14.8C210.488,254.649,210.077,254.913,209.642,255.152Z"/><path class="cls-2" d="M202.787,258.644c-.448.211-.9.389-1.353.595l7.19,15.279,2.674-1.258-7.19-15.279C203.663,258.2,203.236,258.433,202.787,258.644Z"/><path class="cls-2" d="M195.727,261.7c-.461.182-.927.332-1.388.508l6.216,15.7,2.748-1.088-6.217-15.7C196.629,261.308,196.187,261.517,195.727,261.7Z"/><path class="cls-2" d="M188.488,264.306c-.471.153-.945.273-1.417.42l5.218,16.06,2.811-.913-5.218-16.06C189.413,263.971,188.959,264.153,188.488,264.306Z"/><path class="cls-2" d="M181.1,266.452c-.48.123-.961.213-1.441.331l4.2,16.356,2.862-.735-4.2-16.356C182.044,266.176,181.58,266.329,181.1,266.452Z"/><path class="cls-2" d="M173.592,268.131c-.487.092-.972.152-1.459.239l3.165,16.587,2.9-.553-3.164-16.588C174.552,267.914,174.079,268.038,173.592,268.131Z"/><path class="cls-2" d="M165.993,269.334c-.492.062-.98.091-1.471.148l2.117,16.753,2.932-.371-2.117-16.753C166.965,269.178,166.485,269.272,165.993,269.334Z"/><path class="cls-2" d="M158.334,270.058c-.5.031-.984.029-1.477.055l1.06,16.853,2.949-.185-1.06-16.854C159.313,269.964,158.828,270.027,158.334,270.058Z"/><path class="cls-2" d="M150.644,270.3c-.5,0-.983-.033-1.477-.038v16.886h2.955V270.262C151.627,270.267,151.14,270.3,150.644,270.3Z"/><path class="cls-2" d="M142.954,270.058c-.494-.031-.979-.094-1.472-.131l-1.06,16.854,2.949.185,1.061-16.853C143.938,270.087,143.449,270.089,142.954,270.058Z"/><path class="cls-2" d="M135.295,269.334c-.492-.062-.971-.156-1.461-.223l-2.116,16.753,2.931.371,2.117-16.753C136.275,269.425,135.787,269.4,135.295,269.334Z"/><path class="cls-2" d="M127.7,268.131c-.487-.093-.959-.217-1.444-.315L123.088,284.4l2.9.553,3.164-16.587C128.668,268.283,128.183,268.223,127.7,268.131Z"/><path class="cls-2" d="M120.188,266.452c-.48-.123-.944-.276-1.421-.4l-4.2,16.356,2.862.735,4.2-16.356C121.149,266.665,120.668,266.575,120.188,266.452Z"/><path class="cls-2" d="M112.8,264.306c-.471-.153-.925-.335-1.393-.493l-5.218,16.06,2.81.913,5.218-16.06C113.745,264.579,113.272,264.459,112.8,264.306Z"/><path class="cls-2" d="M105.562,261.7c-.461-.183-.9-.392-1.36-.579l-6.216,15.7,2.747,1.088,6.216-15.7C106.488,262.032,106.022,261.882,105.562,261.7Z"/><path class="cls-2" d="M98.5,258.644c-.449-.211-.876-.448-1.321-.663L89.99,273.26l2.674,1.258,7.19-15.279C99.405,259.033,98.949,258.855,98.5,258.644Z"/><path class="cls-2" d="M91.646,255.152c-.434-.239-.846-.5-1.277-.745l-8.135,14.8,2.59,1.424,8.135-14.8C92.523,255.6,92.08,255.39,91.646,255.152Z"/><path class="cls-2" d="M85.024,251.235c-.418-.265-.813-.554-1.227-.823l-9.048,14.257,2.494,1.583L86.292,252C85.872,251.735,85.442,251.5,85.024,251.235Z"/><path class="cls-2" d="M78.661,246.911c-.4-.291-.777-.6-1.173-.9l-9.926,13.661,2.391,1.737,9.926-13.661C79.476,247.462,79.062,247.2,78.661,246.911Z"/><path class="cls-2" d="M72.582,242.2c-.382-.315-.737-.651-1.115-.971L60.7,254.236l2.277,1.883,10.764-13.011C73.36,242.8,72.964,242.511,72.582,242.2Z"/><path class="cls-2" d="M66.811,237.108c-.361-.339-.7-.7-1.051-1.039L54.2,248.378l2.154,2.023,11.56-12.309C67.55,237.757,67.172,237.447,66.811,237.108Z"/><path class="cls-2" d="M61.371,231.668c-.339-.362-.65-.739-.984-1.1l-12.31,11.56,2.023,2.154,12.31-11.559C62.068,232.362,61.71,232.029,61.371,231.668Z"/><path class="cls-2" d="M56.283,225.9c-.316-.382-.6-.779-.913-1.163L42.359,235.5l1.884,2.277,13.011-10.764C56.935,226.634,56.6,226.279,56.283,225.9Z"/><path class="cls-2" d="M51.568,219.818c-.292-.4-.552-.815-.838-1.218l-13.662,9.925,1.738,2.392,13.661-9.926C52.172,220.594,51.859,220.218,51.568,219.818Z"/><path class="cls-2" d="M47.243,213.455c-.265-.419-.5-.848-.76-1.269l-14.257,9.049,1.583,2.495,14.258-9.048C47.8,214.267,47.509,213.873,47.243,213.455Z"/><path class="cls-2" d="M43.327,206.833c-.239-.435-.445-.878-.679-1.314l-14.8,8.136,1.423,2.589,14.8-8.135C43.829,207.679,43.565,207.267,43.327,206.833Z"/><path class="cls-2" d="M39.834,199.977c-.211-.448-.389-.9-.594-1.353l-15.28,7.19,1.258,2.674L40.5,201.3C40.282,200.853,40.045,200.426,39.834,199.977Z"/><path class="cls-2" d="M36.779,192.917c-.183-.461-.332-.926-.509-1.388l-15.7,6.216,1.088,2.748,15.7-6.216C37.171,193.819,36.961,193.378,36.779,192.917Z"/><path class="cls-2" d="M34.173,185.678c-.154-.471-.273-.945-.421-1.417l-16.06,5.219.913,2.81,16.06-5.218C34.508,186.6,34.326,186.15,34.173,185.678Z"/><path class="cls-2" d="M32.026,178.29c-.123-.48-.213-.96-.331-1.44l-16.355,4.2.735,2.863,16.355-4.2C32.3,179.234,32.149,178.77,32.026,178.29Z"/><path class="cls-2" d="M30.348,170.782c-.093-.487-.152-.972-.239-1.459l-16.588,3.165.554,2.9,16.587-3.165C30.564,171.742,30.441,171.269,30.348,170.782Z"/><path class="cls-2" d="M29.144,163.183c-.062-.491-.09-.979-.147-1.47l-16.754,2.116.371,2.932,16.753-2.116C29.3,164.155,29.206,163.675,29.144,163.183Z"/><path class="cls-2" d="M28.42,155.524c-.031-.5-.029-.984-.055-1.477l-16.853,1.06.186,2.95L28.551,157C28.514,156.5,28.452,156.018,28.42,155.524Z"/><path class="cls-2" d="M28.179,147.834c0-.5.032-.983.038-1.477H11.33v2.955H28.217C28.211,148.818,28.179,148.33,28.179,147.834Z"/><path class="cls-2" d="M28.42,140.145c.032-.5.094-.98.131-1.472L11.7,137.612l-.186,2.949,16.853,1.061C28.391,141.128,28.389,140.639,28.42,140.145Z"/><path class="cls-2" d="M29.144,132.485c.062-.491.156-.971.223-1.461l-16.753-2.116-.371,2.931L29,133.956C29.054,133.465,29.082,132.977,29.144,132.485Z"/><path class="cls-2" d="M30.348,124.886c.093-.486.216-.959.314-1.444l-16.587-3.164-.554,2.9,16.588,3.164C30.2,125.859,30.255,125.374,30.348,124.886Z"/><path class="cls-2" d="M32.026,117.378c.123-.48.276-.944.4-1.421l-16.355-4.2-.735,2.862,16.355,4.2C31.813,118.339,31.9,117.858,32.026,117.378Z"/><path class="cls-2" d="M34.173,109.99c.153-.471.335-.925.492-1.393l-16.06-5.218-.913,2.81,16.06,5.219C33.9,110.936,34.019,110.462,34.173,109.99Z"/><path class="cls-2" d="M36.779,102.752c.182-.461.392-.9.579-1.36l-15.7-6.216-1.088,2.747,15.7,6.217C36.447,103.678,36.6,103.213,36.779,102.752Z"/><path class="cls-2" d="M39.834,95.691c.211-.448.448-.876.664-1.321l-15.28-7.189L23.96,89.855l15.28,7.189C39.445,96.6,39.623,96.14,39.834,95.691Z"/><path class="cls-2" d="M43.327,88.836c.238-.434.5-.846.745-1.276l-14.8-8.135-1.423,2.589,14.8,8.135C42.882,89.714,43.088,89.271,43.327,88.836Z"/><path class="cls-2" d="M47.243,82.214c.266-.418.555-.813.824-1.227L33.809,71.939l-1.583,2.5,14.257,9.048C46.744,83.062,46.978,82.633,47.243,82.214Z"/><path class="cls-2" d="M51.568,75.851c.291-.4.6-.776.9-1.173L38.806,64.752l-1.738,2.391L50.73,77.069C51.016,76.666,51.276,76.252,51.568,75.851Z"/><path class="cls-2" d="M56.283,69.772c.316-.382.652-.737.971-1.114L44.243,57.894l-1.884,2.277L55.37,70.935C55.681,70.55,55.967,70.154,56.283,69.772Z"/><path class="cls-2" d="M61.371,64c.339-.361.7-.7,1.039-1.051L50.1,51.39l-2.023,2.155L60.387,65.1C60.721,64.74,61.032,64.362,61.371,64Z"/><path class="cls-2" d="M66.811,58.561c.361-.339.739-.649,1.1-.984l-11.56-12.31L54.2,47.29,65.76,59.6C66.116,59.258,66.45,58.9,66.811,58.561Z"/><path class="cls-2" d="M72.582,53.473c.382-.316.778-.6,1.163-.912L62.981,39.55,60.7,41.433,71.467,54.444C71.845,54.125,72.2,53.789,72.582,53.473Z"/><path class="cls-2" d="M78.661,48.758c.4-.291.815-.552,1.218-.838L69.953,34.259,67.562,36l9.926,13.661C77.884,49.362,78.26,49.049,78.661,48.758Z"/><path class="cls-2" d="M85.024,44.434c.418-.266.848-.5,1.268-.76L77.243,29.416,74.749,31,83.8,45.257C84.211,44.988,84.606,44.7,85.024,44.434Z"/><path class="cls-2" d="M91.646,40.517c.434-.239.877-.445,1.313-.678l-8.135-14.8-2.59,1.424,8.135,14.8C90.8,41.02,91.212,40.756,91.646,40.517Z"/><path class="cls-2" d="M98.5,37.024c.448-.21.9-.389,1.353-.594l-7.19-15.28L89.99,22.409l7.19,15.279C97.625,37.473,98.052,37.235,98.5,37.024Z"/><path class="cls-2" d="M105.562,33.969c.46-.182.926-.332,1.387-.509l-6.216-15.7-2.747,1.088,6.216,15.7C104.659,34.361,105.1,34.151,105.562,33.969Z"/><path class="cls-2" d="M112.8,31.363c.472-.153.945-.273,1.417-.42L109,14.883l-2.81.913,5.218,16.06C111.875,31.7,112.329,31.516,112.8,31.363Z"/><path class="cls-2" d="M120.188,29.216c.48-.123.961-.212,1.441-.33l-4.2-16.356-2.862.735,4.2,16.356C119.244,29.492,119.708,29.34,120.188,29.216Z"/><path class="cls-2" d="M127.7,27.538c.487-.093.972-.152,1.459-.239l-3.164-16.588-2.9.554,3.164,16.587C126.737,27.754,127.209,27.631,127.7,27.538Z"/><path class="cls-2" d="M135.295,26.335c.492-.062.98-.091,1.471-.148L134.649,9.434l-2.931.37,2.116,16.754C134.324,26.49,134.8,26.4,135.295,26.335Z"/><path class="cls-2" d="M142.954,25.611c.5-.032.984-.03,1.478-.055L143.371,8.7l-2.949.185,1.06,16.853C141.975,25.705,142.46,25.642,142.954,25.611Z"/><path class="cls-3" d="M111.769,112.958c-8.015,0-12.323,3.805-12.323,16.027a2.373,2.373,0,0,0,2.507,2.7h2.4c1.5,0,2.1-1.2,2-3.306-.3-4.908.4-9.115,5.108-9.115,3.8,0,5.71,2.5,5.71,9.917,0,13.924-10.719,25.443-17.229,41.169a7.807,7.807,0,0,0-.6,3.2v2.4a1.736,1.736,0,0,0,1.8,1.8h20.638a1.841,1.841,0,0,0,1.9-1.9v-2.606a1.841,1.841,0,0,0-1.9-1.9H106.661c5.508-14.125,17.728-26.946,17.728-41.169C124.389,117.967,119.882,112.958,111.769,112.958Z"/><path class="cls-3" d="M142.025,112.958c-8.311,0-12.821,5.609-12.821,32.654s4.51,32.757,12.821,32.757,12.822-5.711,12.822-32.757S150.341,112.958,142.025,112.958Zm0,58.9c-3.6,0-5.606-2.305-5.606-26.245s2-26.144,5.606-26.144,5.611,2.2,5.611,26.144S145.633,171.857,142.025,171.857Z"/><path class="cls-3" d="M179.3,128.284c0-10.418-3.1-15.728-9.914-15.728-6.613,0-9.92,5.31-9.92,15.728,0,10.317,3.307,15.726,9.92,15.726C176.194,144.01,179.3,138.6,179.3,128.284Zm-13.922,0c0-6.813.8-10.317,4.008-10.317,3.306,0,4.007,3.5,4.007,10.317,0,6.71-.7,10.317-4.007,10.317C166.176,138.6,165.376,134.994,165.376,128.284Z"/><path class="cls-3" d="M196.329,113.558h-2a2.893,2.893,0,0,0-2.507,1.9l-28.145,60.4c-.5,1.1.2,1.9,1.3,1.9h2a2.882,2.882,0,0,0,2.5-1.9l28.15-60.4C198.131,114.36,197.43,113.558,196.329,113.558Z"/><path class="cls-3" d="M191.922,147.316c-6.612,0-9.919,5.308-9.919,15.726,0,10.318,3.307,15.726,9.919,15.726,6.811,0,9.915-5.408,9.915-15.726C201.837,152.624,198.733,147.316,191.922,147.316Zm0,26.044c-3.207,0-4.007-3.608-4.007-10.318,0-6.812.8-10.316,4.007-10.316,3.3,0,4.008,3.5,4.008,10.316C195.93,169.752,195.225,173.36,191.922,173.36Z"/></svg>