<svg id="Layer_1" data-name="Layer 1" xmlns="http://www.w3.org/2000/svg" viewBox="0 0 300 300"><defs><style>.cls-1{fill:#f21b16;}.cls-2{fill:#e6e6e6;}.cls-3{fill:#5e5e5e;}</style></defs><path class="cls-1" d="M270.219,118.715A122.082,122.082,0,0,0,151.275,25.407l-1.4.008-.14-16.887,1.537-.008A138.931,138.931,0,0,1,286.627,114.712Z"/><path class="cls-2" d="M271.57,124.886c.093.488.153.973.24,1.459l16.587-3.164-.553-2.9-16.588,3.164C271.354,123.927,271.477,124.4,271.57,124.886Z"/><path class="cls-2" d="M272.774,132.485c.062.492.091.98.148,1.471l16.753-2.117-.371-2.931-16.753,2.116C272.618,131.514,272.712,131.994,272.774,132.485Z"/><path class="cls-2" d="M273.5,140.145c.031.494.029.983.055,1.477l16.853-1.061-.185-2.949-16.854,1.061C273.4,139.165,273.467,139.65,273.5,140.145Z"/><path class="cls-2" d="M273.74,147.834c0,.5-.033.984-.038,1.478h16.886v-2.955H273.7C273.707,146.851,273.74,147.339,273.74,147.834Z"/><path class="cls-2" d="M273.5,155.524c-.031.494-.094.98-.131,1.472l16.854,1.061.185-2.95-16.853-1.06C273.527,154.54,273.529,155.029,273.5,155.524Z"/><path class="cls-2" d="M272.774,163.183c-.062.492-.156.972-.223,1.462l16.753,2.116.371-2.932-16.753-2.116C272.865,162.2,272.836,162.692,272.774,163.183Z"/><path class="cls-2" d="M271.57,170.782c-.093.487-.216.96-.314,1.444l16.588,3.165.553-2.9-16.587-3.165C271.723,169.81,271.663,170.3,271.57,170.782Z"/><path class="cls-2" d="M269.892,178.29c-.123.48-.276.944-.4,1.422l16.356,4.2.735-2.863-16.356-4.2C270.105,177.33,270.015,177.81,269.892,178.29Z"/><path class="cls-2" d="M267.746,185.678c-.153.472-.335.925-.493,1.394l16.06,5.218.913-2.81-16.06-5.219C268.019,184.733,267.9,185.207,267.746,185.678Z"/><path class="cls-2" d="M265.14,192.917c-.183.461-.393.9-.58,1.36l15.7,6.216,1.088-2.748-15.7-6.216C265.471,191.991,265.322,192.456,265.14,192.917Z"/><path class="cls-2" d="M262.084,199.977c-.211.449-.448.876-.663,1.321l15.279,7.19,1.258-2.674-15.279-7.19C262.473,199.074,262.3,199.529,262.084,199.977Z"/><path class="cls-2" d="M258.592,206.833c-.239.434-.5.846-.746,1.276l14.8,8.135,1.424-2.589-14.8-8.136C259.037,205.955,258.83,206.4,258.592,206.833Z"/><path class="cls-2" d="M254.675,213.455c-.265.418-.554.812-.824,1.227l14.258,9.048,1.583-2.495-14.257-9.049C255.175,212.607,254.941,213.036,254.675,213.455Z"/><path class="cls-2" d="M250.351,219.818c-.292.4-.6.776-.9,1.173l13.662,9.926,1.737-2.392L251.189,218.6C250.9,219,250.642,219.417,250.351,219.818Z"/><path class="cls-2" d="M245.635,225.9c-.315.382-.651.737-.971,1.114l13.012,10.764,1.883-2.277-13.011-10.764C246.237,225.118,245.951,225.515,245.635,225.9Z"/><path class="cls-2" d="M240.548,231.668c-.339.361-.7.694-1.039,1.051l12.309,11.559,2.023-2.154-12.31-11.56C241.2,230.929,240.887,231.306,240.548,231.668Z"/><path class="cls-2" d="M235.108,237.108c-.362.339-.74.649-1.1.984l11.56,12.309,2.154-2.023-11.559-12.309C235.8,236.411,235.469,236.769,235.108,237.108Z"/><path class="cls-2" d="M229.337,242.2c-.382.316-.779.6-1.163.913l10.764,13.011,2.277-1.883-10.764-13.012C230.074,241.544,229.719,241.88,229.337,242.2Z"/><path class="cls-2" d="M223.257,246.911c-.4.291-.814.551-1.217.838l9.925,13.661,2.391-1.737-9.925-13.661C224.034,246.306,223.658,246.62,223.257,246.911Z"/><path class="cls-2" d="M216.9,251.235c-.419.266-.848.5-1.269.76l9.049,14.257,2.495-1.583-9.048-14.257C217.707,250.681,217.313,250.97,216.9,251.235Z"/><path class="cls-2" d="M210.273,255.152c-.435.238-.878.445-1.314.678l8.135,14.8,2.59-1.424-8.135-14.8C211.119,254.649,210.707,254.913,210.273,255.152Z"/><path class="cls-2" d="M203.417,258.644c-.448.211-.9.389-1.353.595l7.19,15.279,2.674-1.258-7.19-15.279C204.293,258.2,203.866,258.433,203.417,258.644Z"/><path class="cls-2" d="M196.357,261.7c-.461.182-.926.332-1.388.508l6.216,15.7,2.748-1.088-6.216-15.7C197.259,261.308,196.817,261.517,196.357,261.7Z"/><path class="cls-2" d="M189.118,264.306c-.471.153-.945.273-1.417.42l5.219,16.06,2.81-.913-5.218-16.06C190.043,263.971,189.59,264.153,189.118,264.306Z"/><path class="cls-2" d="M181.73,266.452c-.48.123-.96.213-1.44.331l4.2,16.356,2.862-.735-4.2-16.356C182.674,266.176,182.21,266.329,181.73,266.452Z"/><path class="cls-2" d="M174.222,268.131c-.487.092-.972.152-1.459.239l3.164,16.587,2.9-.553-3.164-16.588C175.182,267.914,174.709,268.038,174.222,268.131Z"/><path class="cls-2" d="M166.623,269.334c-.491.062-.979.091-1.47.148l2.116,16.753,2.932-.371-2.116-16.753C167.6,269.178,167.115,269.272,166.623,269.334Z"/><path class="cls-2" d="M158.964,270.058c-.5.031-.983.029-1.477.055l1.06,16.853,2.95-.185-1.061-16.854C159.943,269.964,159.458,270.027,158.964,270.058Z"/><path class="cls-2" d="M151.274,270.3c-.5,0-.983-.033-1.477-.038v16.886h2.955V270.262C152.258,270.267,151.77,270.3,151.274,270.3Z"/><path class="cls-2" d="M143.585,270.058c-.5-.031-.98-.094-1.473-.131l-1.06,16.854,2.949.185,1.06-16.853C144.568,270.087,144.079,270.089,143.585,270.058Z"/><path class="cls-2" d="M135.925,269.334c-.491-.062-.971-.156-1.461-.223l-2.116,16.753,2.931.371,2.117-16.753C136.905,269.425,136.417,269.4,135.925,269.334Z"/><path class="cls-2" d="M128.326,268.131c-.486-.093-.959-.217-1.444-.315L123.718,284.4l2.9.553,3.164-16.587C129.3,268.283,128.813,268.223,128.326,268.131Z"/><path class="cls-2" d="M120.818,266.452c-.48-.123-.944-.276-1.422-.4L115.2,282.4l2.862.735,4.2-16.356C121.779,266.665,121.3,266.575,120.818,266.452Z"/><path class="cls-2" d="M113.43,264.306c-.471-.153-.925-.335-1.393-.493l-5.218,16.06,2.81.913,5.218-16.06C114.376,264.579,113.9,264.459,113.43,264.306Z"/><path class="cls-2" d="M106.192,261.7c-.461-.183-.9-.392-1.36-.579l-6.217,15.7,2.748,1.088,6.217-15.7C107.118,262.032,106.653,261.882,106.192,261.7Z"/><path class="cls-2" d="M99.131,258.644c-.448-.211-.876-.448-1.321-.663L90.621,273.26l2.673,1.258,7.19-15.279C100.035,259.033,99.579,258.855,99.131,258.644Z"/><path class="cls-2" d="M92.276,255.152c-.434-.239-.846-.5-1.276-.745l-8.135,14.8,2.589,1.424,8.135-14.8C93.154,255.6,92.71,255.39,92.276,255.152Z"/><path class="cls-2" d="M85.654,251.235c-.419-.265-.813-.554-1.227-.823l-9.048,14.257,2.495,1.583L86.922,252C86.5,251.735,86.073,251.5,85.654,251.235Z"/><path class="cls-2" d="M79.291,246.911c-.4-.291-.776-.6-1.173-.9l-9.926,13.661,2.391,1.737,9.925-13.661C80.106,247.462,79.692,247.2,79.291,246.911Z"/><path class="cls-2" d="M73.212,242.2c-.382-.315-.737-.651-1.114-.971L61.334,254.236l2.277,1.883,10.763-13.011C73.99,242.8,73.594,242.511,73.212,242.2Z"/><path class="cls-2" d="M67.441,237.108c-.362-.339-.7-.7-1.051-1.039L54.83,248.378l2.154,2.023,11.56-12.309C68.18,237.757,67.8,237.447,67.441,237.108Z"/><path class="cls-2" d="M62,231.668c-.34-.362-.649-.739-.984-1.1l-12.31,11.56,2.023,2.154,12.31-11.559C62.7,232.362,62.34,232.029,62,231.668Z"/><path class="cls-2" d="M56.913,225.9c-.316-.382-.6-.779-.912-1.163L42.989,235.5l1.884,2.277,13.011-10.764C57.565,226.634,57.229,226.279,56.913,225.9Z"/><path class="cls-2" d="M52.2,219.818c-.291-.4-.552-.815-.838-1.218L37.7,228.525l1.736,2.392L53.1,220.991C52.8,220.594,52.489,220.218,52.2,219.818Z"/><path class="cls-2" d="M47.873,213.455c-.265-.419-.5-.848-.759-1.269l-14.258,9.049,1.584,2.495L48.7,214.682C48.428,214.267,48.139,213.873,47.873,213.455Z"/><path class="cls-2" d="M43.957,206.833c-.239-.435-.445-.878-.678-1.314l-14.8,8.136,1.424,2.589,14.8-8.135C44.459,207.679,44.2,207.267,43.957,206.833Z"/><path class="cls-2" d="M40.464,199.977c-.211-.448-.389-.9-.594-1.353l-15.28,7.19,1.259,2.674,15.279-7.19C40.913,200.853,40.675,200.426,40.464,199.977Z"/><path class="cls-2" d="M37.409,192.917c-.183-.461-.332-.926-.509-1.388l-15.7,6.216,1.088,2.748,15.7-6.216C37.8,193.819,37.591,193.378,37.409,192.917Z"/><path class="cls-2" d="M34.8,185.678c-.153-.471-.273-.945-.42-1.417L18.322,189.48l.914,2.81,16.06-5.218C35.138,186.6,34.956,186.15,34.8,185.678Z"/><path class="cls-2" d="M32.656,178.29c-.123-.48-.212-.96-.33-1.44l-16.356,4.2.735,2.863,16.356-4.2C32.932,179.234,32.78,178.77,32.656,178.29Z"/><path class="cls-2" d="M30.978,170.782c-.093-.487-.152-.972-.24-1.459l-16.587,3.165.554,2.9,16.587-3.165C31.194,171.742,31.071,171.269,30.978,170.782Z"/><path class="cls-2" d="M29.775,163.183c-.062-.491-.092-.979-.148-1.47l-16.753,2.116.37,2.932L30,164.645C29.93,164.155,29.837,163.675,29.775,163.183Z"/><path class="cls-2" d="M29.051,155.524c-.032-.5-.03-.984-.055-1.477l-16.853,1.06.185,2.95L29.181,157C29.145,156.5,29.082,156.018,29.051,155.524Z"/><path class="cls-2" d="M28.809,147.834c0-.5.033-.983.038-1.477H11.961v2.955H28.847C28.842,148.818,28.809,148.33,28.809,147.834Z"/><path class="cls-2" d="M29.051,140.145c.031-.5.094-.98.13-1.472l-16.853-1.061-.185,2.949L29,141.622C29.021,141.128,29.019,140.639,29.051,140.145Z"/><path class="cls-2" d="M29.775,132.485c.062-.491.155-.971.223-1.461l-16.754-2.116-.37,2.931,16.753,2.117C29.683,133.465,29.713,132.977,29.775,132.485Z"/><path class="cls-2" d="M30.978,124.886c.093-.486.216-.959.314-1.444l-16.587-3.164-.554,2.9,16.587,3.164C30.826,125.859,30.885,125.374,30.978,124.886Z"/><path class="cls-2" d="M32.656,117.378c.124-.48.276-.944.405-1.421l-16.356-4.2-.735,2.862,16.356,4.2C32.444,118.339,32.533,117.858,32.656,117.378Z"/><path class="cls-2" d="M34.8,109.99c.153-.471.335-.925.493-1.393l-16.06-5.218-.914,2.81,16.061,5.219C34.53,110.936,34.65,110.462,34.8,109.99Z"/><path class="cls-2" d="M37.409,102.752c.182-.461.392-.9.579-1.36l-15.7-6.216L21.2,97.923l15.7,6.217C37.077,103.678,37.226,103.213,37.409,102.752Z"/><path class="cls-2" d="M40.464,95.691c.211-.448.449-.876.664-1.321L25.849,87.181,24.59,89.855l15.28,7.189C40.075,96.6,40.253,96.14,40.464,95.691Z"/><path class="cls-2" d="M43.957,88.836c.239-.434.5-.846.745-1.276l-14.8-8.135-1.424,2.589,14.8,8.135C43.512,89.714,43.718,89.271,43.957,88.836Z"/><path class="cls-2" d="M47.873,82.214c.266-.418.555-.813.824-1.227L34.44,71.939l-1.584,2.5,14.258,9.048C47.374,83.062,47.608,82.633,47.873,82.214Z"/><path class="cls-2" d="M52.2,75.851c.291-.4.6-.776.9-1.173L39.435,64.752,37.7,67.143,51.36,77.069C51.646,76.666,51.907,76.252,52.2,75.851Z"/><path class="cls-2" d="M56.913,69.772c.316-.382.652-.737.971-1.114L44.873,57.894l-1.884,2.277L56,70.935C56.311,70.55,56.6,70.154,56.913,69.772Z"/><path class="cls-2" d="M62,64c.339-.361.7-.7,1.039-1.051L50.73,51.39l-2.023,2.155L61.017,65.1C61.352,64.74,61.661,64.362,62,64Z"/><path class="cls-2" d="M67.441,58.561c.361-.339.739-.649,1.1-.984l-11.56-12.31L54.83,47.29,66.39,59.6C66.746,59.258,67.079,58.9,67.441,58.561Z"/><path class="cls-2" d="M73.212,53.473c.382-.316.778-.6,1.162-.912L63.611,39.55l-2.277,1.883L72.1,54.444C72.475,54.125,72.83,53.789,73.212,53.473Z"/><path class="cls-2" d="M79.291,48.758c.4-.291.815-.552,1.217-.838L70.583,34.259,68.192,36l9.926,13.661C78.515,49.362,78.89,49.049,79.291,48.758Z"/><path class="cls-2" d="M85.654,44.434c.419-.266.848-.5,1.268-.76L77.874,29.416,75.379,31l9.048,14.257C84.841,44.988,85.235,44.7,85.654,44.434Z"/><path class="cls-2" d="M92.276,40.517c.434-.239.878-.445,1.313-.678l-8.135-14.8-2.589,1.424L91,41.262C91.43,41.02,91.842,40.756,92.276,40.517Z"/><path class="cls-2" d="M99.131,37.024c.448-.21.9-.389,1.353-.594l-7.19-15.28-2.673,1.259L97.81,37.688C98.255,37.473,98.683,37.235,99.131,37.024Z"/><path class="cls-2" d="M106.192,33.969c.461-.182.926-.332,1.388-.509l-6.217-15.7-2.748,1.088,6.217,15.7C105.289,34.361,105.731,34.151,106.192,33.969Z"/><path class="cls-2" d="M113.43,31.363c.472-.153.946-.273,1.417-.42l-5.218-16.06-2.81.913,5.218,16.06C112.505,31.7,112.959,31.516,113.43,31.363Z"/><path class="cls-2" d="M120.818,29.216c.48-.123.961-.212,1.441-.33l-4.2-16.356-2.862.735,4.2,16.356C119.874,29.492,120.338,29.34,120.818,29.216Z"/><path class="cls-2" d="M128.326,27.538c.487-.093.973-.152,1.459-.239l-3.164-16.588-2.9.554,3.164,16.587C127.367,27.754,127.84,27.631,128.326,27.538Z"/><path class="cls-2" d="M135.925,26.335c.492-.062.98-.091,1.471-.148L135.279,9.434l-2.931.37,2.116,16.754C134.954,26.49,135.434,26.4,135.925,26.335Z"/><path class="cls-2" d="M143.585,25.611c.494-.032.983-.03,1.476-.055L144,8.7l-2.949.185,1.06,16.853C142.6,25.705,143.09,25.642,143.585,25.611Z"/><path class="cls-3" d="M118.71,112.96c-8.014,0-12.322,3.805-12.322,16.027a2.372,2.372,0,0,0,2.506,2.7h2.4c1.5,0,2.1-1.2,2-3.306-.3-4.908.4-9.115,5.108-9.115,3.8,0,5.71,2.5,5.71,9.917,0,13.924-10.719,25.443-17.228,41.169a7.81,7.81,0,0,0-.6,3.205v2.4a1.737,1.737,0,0,0,1.8,1.8h20.634a1.841,1.841,0,0,0,1.9-1.9V173.26a1.841,1.841,0,0,0-1.9-1.9H113.6c5.508-14.125,17.728-26.946,17.728-41.169C131.33,117.969,126.824,112.96,118.71,112.96Z"/><path class="cls-3" d="M145.462,113.56h-2a1.845,1.845,0,0,0-1.905,1.905v.7c0,3.606-1.7,5.21-4.708,5.21h-.9a1.84,1.84,0,0,0-1.9,1.9v2.2a1.84,1.84,0,0,0,1.9,1.9h4.206v48.483a1.841,1.841,0,0,0,1.9,1.9h3.405a1.841,1.841,0,0,0,1.9-1.9v-60.4A1.841,1.841,0,0,0,145.462,113.56Z"/><path class="cls-3" d="M186.236,147.316c-6.613,0-9.919,5.31-9.919,15.729,0,10.316,3.306,15.726,9.919,15.726,6.811,0,9.915-5.41,9.915-15.726C196.151,152.626,193.047,147.316,186.236,147.316Zm0,26.045c-3.208,0-4.007-3.6-4.007-10.316,0-6.813.8-10.318,4.007-10.318,3.3,0,4.007,3.5,4.007,10.318C190.243,169.756,189.538,173.361,186.236,173.361Z"/><path class="cls-3" d="M190.643,113.56h-2a2.893,2.893,0,0,0-2.506,1.905l-28.146,60.4c-.5,1.1.2,1.9,1.3,1.9h2a2.884,2.884,0,0,0,2.5-1.9l28.15-60.4C192.445,114.362,191.744,113.56,190.643,113.56Z"/><path class="cls-3" d="M173.612,128.286c0-10.418-3.1-15.728-9.915-15.728-6.613,0-9.919,5.31-9.919,15.728,0,10.317,3.306,15.726,9.919,15.726C170.508,144.012,173.612,138.6,173.612,128.286Zm-13.922,0c0-6.813.8-10.317,4.007-10.317,3.306,0,4.007,3.5,4.007,10.317,0,6.71-.7,10.317-4.007,10.317C160.49,138.6,159.69,135,159.69,128.286Z"/></svg>