<svg id="Layer_1" data-name="Layer 1" xmlns="http://www.w3.org/2000/svg" viewBox="0 0 300 300"><defs><style>.cls-1{fill:#f21b16;}.cls-2{fill:#e6e6e6;}.cls-3{fill:#5e5e5e;}</style></defs><path class="cls-1" d="M272.436,126.239A122.211,122.211,0,0,0,151.905,25.407l-1.4.008-.14-16.887,1.538-.008A139.067,139.067,0,0,1,289.058,123.283Z"/><path class="cls-2" d="M273.4,132.485c.062.492.091.98.147,1.471l16.754-2.117-.371-2.931-16.753,2.116C273.249,131.514,273.342,131.994,273.4,132.485Z"/><path class="cls-2" d="M274.128,140.145c.031.494.029.983.055,1.477l16.853-1.061-.186-2.949L274,138.673C274.034,139.165,274.1,139.65,274.128,140.145Z"/><path class="cls-2" d="M274.37,147.834c0,.5-.033.984-.038,1.478h16.886v-2.955H274.332C274.337,146.851,274.37,147.339,274.37,147.834Z"/><path class="cls-2" d="M274.128,155.524c-.031.494-.094.98-.131,1.472l16.853,1.061.186-2.95-16.853-1.06C274.157,154.54,274.159,155.029,274.128,155.524Z"/><path class="cls-2" d="M273.4,163.183c-.062.492-.155.972-.223,1.462l16.753,2.116.371-2.932-16.754-2.116C273.5,162.2,273.466,162.692,273.4,163.183Z"/><path class="cls-2" d="M272.2,170.782c-.093.487-.217.96-.315,1.444l16.588,3.165.553-2.9-16.587-3.165C272.353,169.81,272.293,170.3,272.2,170.782Z"/><path class="cls-2" d="M270.522,178.29c-.123.48-.276.944-.4,1.422l16.356,4.2.735-2.863-16.356-4.2C270.735,177.33,270.646,177.81,270.522,178.29Z"/><path class="cls-2" d="M268.376,185.678c-.153.472-.335.925-.493,1.394l16.06,5.218.913-2.81-16.06-5.219C268.649,184.733,268.529,185.207,268.376,185.678Z"/><path class="cls-2" d="M265.77,192.917c-.183.461-.393.9-.58,1.36l15.7,6.216,1.088-2.748-15.7-6.216C266.1,191.991,265.952,192.456,265.77,192.917Z"/><path class="cls-2" d="M262.715,199.977c-.212.449-.449.876-.664,1.321l15.279,7.19,1.258-2.674-15.279-7.19C263.1,199.074,262.926,199.529,262.715,199.977Z"/><path class="cls-2" d="M259.221,206.833c-.238.434-.5.846-.745,1.276l14.8,8.135,1.424-2.589-14.8-8.136C259.667,205.955,259.46,206.4,259.221,206.833Z"/><path class="cls-2" d="M255.306,213.455c-.266.418-.555.812-.825,1.227l14.258,9.048,1.584-2.495-14.258-9.049C255.805,212.607,255.571,213.036,255.306,213.455Z"/><path class="cls-2" d="M250.981,219.818c-.291.4-.6.776-.9,1.173l13.661,9.926,1.737-2.392L251.818,218.6C251.533,219,251.272,219.417,250.981,219.818Z"/><path class="cls-2" d="M246.266,225.9c-.316.382-.653.737-.972,1.114l13.012,10.764,1.884-2.277-13.012-10.764C246.867,225.118,246.581,225.515,246.266,225.9Z"/><path class="cls-2" d="M241.178,231.668c-.34.361-.7.694-1.04,1.051l12.31,11.559,2.023-2.154-12.31-11.56C241.827,230.929,241.517,231.306,241.178,231.668Z"/><path class="cls-2" d="M235.738,237.108c-.362.339-.739.649-1.1.984L246.194,250.4l2.154-2.023-11.559-12.309C236.432,236.411,236.1,236.769,235.738,237.108Z"/><path class="cls-2" d="M229.967,242.2c-.382.316-.779.6-1.163.913l10.764,13.011,2.277-1.883-10.764-13.012C230.7,241.544,230.348,241.88,229.967,242.2Z"/><path class="cls-2" d="M223.888,246.911c-.4.291-.815.551-1.218.838L232.6,261.41l2.39-1.737-9.925-13.661C224.664,246.306,224.289,246.62,223.888,246.911Z"/><path class="cls-2" d="M217.524,251.235c-.418.266-.847.5-1.267.76l9.048,14.257,2.5-1.583-9.048-14.257C218.338,250.681,217.943,250.97,217.524,251.235Z"/><path class="cls-2" d="M210.9,255.152c-.434.238-.877.445-1.312.678l8.135,14.8,2.589-1.424-8.135-14.8C211.748,254.649,211.337,254.913,210.9,255.152Z"/><path class="cls-2" d="M204.048,258.644c-.449.211-.9.389-1.354.595l7.191,15.279,2.673-1.258-7.19-15.279C204.923,258.2,204.5,258.433,204.048,258.644Z"/><path class="cls-2" d="M196.987,261.7c-.461.182-.926.332-1.388.508l6.216,15.7,2.748-1.088-6.216-15.7C197.889,261.308,197.448,261.517,196.987,261.7Z"/><path class="cls-2" d="M189.748,264.306c-.471.153-.945.273-1.417.42l5.218,16.06,2.811-.913-5.218-16.06C190.674,263.971,190.22,264.153,189.748,264.306Z"/><path class="cls-2" d="M182.36,266.452c-.48.123-.96.213-1.44.331l4.2,16.356,2.862-.735-4.2-16.356C183.305,266.176,182.84,266.329,182.36,266.452Z"/><path class="cls-2" d="M174.852,268.131c-.487.092-.972.152-1.458.239l3.164,16.587,2.9-.553L176.3,267.816C175.812,267.914,175.339,268.038,174.852,268.131Z"/><path class="cls-2" d="M167.253,269.334c-.491.062-.979.091-1.47.148l2.116,16.753,2.932-.371-2.117-16.753C168.225,269.178,167.745,269.272,167.253,269.334Z"/><path class="cls-2" d="M159.594,270.058c-.494.031-.983.029-1.477.055l1.06,16.853,2.95-.185-1.061-16.854C160.573,269.964,160.089,270.027,159.594,270.058Z"/><path class="cls-2" d="M151.9,270.3c-.5,0-.983-.033-1.477-.038v16.886h2.955V270.262C152.888,270.267,152.4,270.3,151.9,270.3Z"/><path class="cls-2" d="M144.215,270.058c-.5-.031-.979-.094-1.473-.131l-1.06,16.854,2.95.185,1.06-16.853C145.2,270.087,144.709,270.089,144.215,270.058Z"/><path class="cls-2" d="M136.555,269.334c-.491-.062-.971-.156-1.461-.223l-2.116,16.753,2.932.371,2.116-16.753C137.535,269.425,137.047,269.4,136.555,269.334Z"/><path class="cls-2" d="M128.957,268.131c-.487-.093-.96-.217-1.444-.315L124.348,284.4l2.9.553,3.164-16.587C129.929,268.283,129.444,268.223,128.957,268.131Z"/><path class="cls-2" d="M121.449,266.452c-.48-.123-.945-.276-1.422-.4l-4.2,16.356,2.863.735,4.2-16.356C122.409,266.665,121.929,266.575,121.449,266.452Z"/><path class="cls-2" d="M114.061,264.306c-.472-.153-.926-.335-1.394-.493l-5.218,16.06,2.81.913,5.219-16.06C115.006,264.579,114.532,264.459,114.061,264.306Z"/><path class="cls-2" d="M106.822,261.7c-.461-.183-.9-.392-1.36-.579l-6.216,15.7,2.747,1.088,6.217-15.7C107.748,262.032,107.283,261.882,106.822,261.7Z"/><path class="cls-2" d="M99.761,258.644c-.448-.211-.876-.448-1.321-.663L91.25,273.26l2.674,1.258,7.19-15.279C100.665,259.033,100.21,258.855,99.761,258.644Z"/><path class="cls-2" d="M92.906,255.152c-.434-.239-.846-.5-1.276-.745L83.5,269.2l2.589,1.424,8.135-14.8C93.784,255.6,93.341,255.39,92.906,255.152Z"/><path class="cls-2" d="M86.284,251.235c-.418-.265-.813-.554-1.227-.823l-9.048,14.257,2.5,1.583L87.552,252C87.132,251.735,86.7,251.5,86.284,251.235Z"/><path class="cls-2" d="M79.921,246.911c-.4-.291-.777-.6-1.173-.9l-9.925,13.661,2.39,1.737,9.926-13.661C80.736,247.462,80.322,247.2,79.921,246.911Z"/><path class="cls-2" d="M73.842,242.2c-.382-.315-.737-.651-1.114-.971L61.964,254.236l2.277,1.883,10.764-13.011C74.621,242.8,74.224,242.511,73.842,242.2Z"/><path class="cls-2" d="M68.071,237.108c-.361-.339-.694-.7-1.051-1.039L55.46,248.378l2.155,2.023,11.559-12.309C68.81,237.757,68.433,237.447,68.071,237.108Z"/><path class="cls-2" d="M62.631,231.668c-.339-.362-.65-.739-.984-1.1l-12.309,11.56,2.023,2.154L63.67,232.719C63.328,232.362,62.97,232.029,62.631,231.668Z"/><path class="cls-2" d="M57.543,225.9c-.316-.382-.6-.779-.912-1.163L43.619,235.5l1.884,2.277,13.011-10.764C58.2,226.634,57.859,226.279,57.543,225.9Z"/><path class="cls-2" d="M52.828,219.818c-.292-.4-.552-.815-.838-1.218l-13.662,9.925,1.738,2.392,13.661-9.926C53.432,220.594,53.119,220.218,52.828,219.818Z"/><path class="cls-2" d="M48.5,213.455c-.265-.419-.5-.848-.759-1.269l-14.258,9.049,1.583,2.495,14.259-9.048C49.058,214.267,48.769,213.873,48.5,213.455Z"/><path class="cls-2" d="M44.587,206.833c-.238-.435-.445-.878-.678-1.314l-14.8,8.136,1.424,2.589,14.8-8.135C45.089,207.679,44.826,207.267,44.587,206.833Z"/><path class="cls-2" d="M41.094,199.977c-.211-.448-.389-.9-.594-1.353l-15.28,7.19,1.259,2.674,15.279-7.19C41.542,200.853,41.306,200.426,41.094,199.977Z"/><path class="cls-2" d="M38.039,192.917c-.182-.461-.332-.926-.508-1.388l-15.7,6.216,1.088,2.748,15.7-6.216C38.431,193.819,38.221,193.378,38.039,192.917Z"/><path class="cls-2" d="M35.433,185.678c-.153-.471-.273-.945-.421-1.417l-16.06,5.219.914,2.81,16.06-5.218C35.768,186.6,35.586,186.15,35.433,185.678Z"/><path class="cls-2" d="M33.287,178.29c-.124-.48-.214-.96-.331-1.44l-16.356,4.2.735,2.863,16.356-4.2C33.563,179.234,33.41,178.77,33.287,178.29Z"/><path class="cls-2" d="M31.608,170.782c-.093-.487-.152-.972-.239-1.459l-16.588,3.165.554,2.9,16.588-3.165C31.825,171.742,31.7,171.269,31.608,170.782Z"/><path class="cls-2" d="M30.405,163.183c-.063-.491-.091-.979-.148-1.47L13.5,163.829l.37,2.932,16.754-2.116C30.56,164.155,30.467,163.675,30.405,163.183Z"/><path class="cls-2" d="M29.681,155.524c-.031-.5-.03-.984-.055-1.477l-16.853,1.06.185,2.95L29.811,157C29.775,156.5,29.712,156.018,29.681,155.524Z"/><path class="cls-2" d="M29.439,147.834c0-.5.033-.983.038-1.477H12.59v2.955H29.477C29.472,148.818,29.439,148.33,29.439,147.834Z"/><path class="cls-2" d="M29.681,140.145c.031-.5.094-.98.13-1.472l-16.853-1.061-.185,2.949,16.853,1.061C29.651,141.128,29.65,140.639,29.681,140.145Z"/><path class="cls-2" d="M30.405,132.485c.062-.491.155-.971.223-1.461l-16.754-2.116-.37,2.931,16.753,2.117C30.314,133.465,30.342,132.977,30.405,132.485Z"/><path class="cls-2" d="M31.608,124.886c.093-.486.217-.959.315-1.444l-16.588-3.164-.554,2.9,16.588,3.164C31.456,125.859,31.515,125.374,31.608,124.886Z"/><path class="cls-2" d="M33.287,117.378c.123-.48.276-.944.4-1.421l-16.356-4.2-.735,2.862,16.356,4.2C33.073,118.339,33.163,117.858,33.287,117.378Z"/><path class="cls-2" d="M35.433,109.99c.153-.471.335-.925.493-1.393l-16.06-5.218-.914,2.81,16.06,5.219C35.16,110.936,35.28,110.462,35.433,109.99Z"/><path class="cls-2" d="M38.039,102.752c.182-.461.392-.9.58-1.36l-15.7-6.216L21.83,97.923l15.7,6.217C37.707,103.678,37.857,103.213,38.039,102.752Z"/><path class="cls-2" d="M41.094,95.691c.212-.448.448-.876.664-1.321L26.479,87.181,25.22,89.855,40.5,97.044C40.705,96.6,40.883,96.14,41.094,95.691Z"/><path class="cls-2" d="M44.587,88.836c.239-.434.5-.846.746-1.276l-14.8-8.135-1.424,2.589,14.8,8.135C44.142,89.714,44.349,89.271,44.587,88.836Z"/><path class="cls-2" d="M48.5,82.214c.266-.418.555-.813.825-1.227L35.069,71.939l-1.583,2.5,14.258,9.048C48,83.062,48.238,82.633,48.5,82.214Z"/><path class="cls-2" d="M52.828,75.851c.291-.4.6-.776.9-1.173L40.066,64.752l-1.738,2.391L51.99,77.069C52.276,76.666,52.536,76.252,52.828,75.851Z"/><path class="cls-2" d="M57.543,69.772c.316-.382.652-.737.971-1.114L45.5,57.894l-1.884,2.277L56.631,70.935C56.942,70.55,57.227,70.154,57.543,69.772Z"/><path class="cls-2" d="M62.631,64c.339-.361.7-.7,1.039-1.051L51.361,51.39l-2.023,2.155L61.647,65.1C61.981,64.74,62.292,64.362,62.631,64Z"/><path class="cls-2" d="M68.071,58.561c.362-.339.739-.649,1.1-.984L57.615,45.267,55.46,47.29,67.02,59.6C67.377,59.258,67.71,58.9,68.071,58.561Z"/><path class="cls-2" d="M73.842,53.473c.382-.316.779-.6,1.163-.912L64.241,39.55l-2.277,1.883L72.728,54.444C73.105,54.125,73.46,53.789,73.842,53.473Z"/><path class="cls-2" d="M79.921,48.758c.4-.291.815-.552,1.218-.838L71.213,34.259,68.823,36l9.925,13.661C79.144,49.362,79.52,49.049,79.921,48.758Z"/><path class="cls-2" d="M86.284,44.434c.418-.266.848-.5,1.268-.76L78.5,29.416,76.009,31l9.048,14.257C85.471,44.988,85.866,44.7,86.284,44.434Z"/><path class="cls-2" d="M92.906,40.517c.435-.239.878-.445,1.313-.678l-8.135-14.8L83.5,26.465l8.135,14.8C92.06,41.02,92.472,40.756,92.906,40.517Z"/><path class="cls-2" d="M99.761,37.024c.449-.21.9-.389,1.353-.594l-7.19-15.28L91.25,22.409l7.19,15.279C98.885,37.473,99.313,37.235,99.761,37.024Z"/><path class="cls-2" d="M106.822,33.969c.461-.182.926-.332,1.388-.509l-6.217-15.7-2.747,1.088,6.216,15.7C105.92,34.361,106.361,34.151,106.822,33.969Z"/><path class="cls-2" d="M114.061,31.363c.471-.153.945-.273,1.417-.42l-5.219-16.06-2.81.913,5.218,16.06C113.135,31.7,113.589,31.516,114.061,31.363Z"/><path class="cls-2" d="M121.449,29.216c.48-.123.96-.212,1.44-.33l-4.2-16.356-2.863.735,4.2,16.356C120.5,29.492,120.969,29.34,121.449,29.216Z"/><path class="cls-2" d="M128.957,27.538c.487-.093.972-.152,1.458-.239l-3.164-16.588-2.9.554,3.165,16.587C128,27.754,128.47,27.631,128.957,27.538Z"/><path class="cls-2" d="M136.555,26.335c.492-.062.98-.091,1.471-.148L135.91,9.434l-2.932.37,2.116,16.754C135.584,26.49,136.064,26.4,136.555,26.335Z"/><path class="cls-2" d="M144.215,25.611c.494-.032.983-.03,1.477-.055L144.632,8.7l-2.95.185,1.06,16.853C143.236,25.705,143.72,25.642,144.215,25.611Z"/><path class="cls-3" d="M114.879,112.96c-8.014,0-12.323,3.805-12.323,16.027a2.372,2.372,0,0,0,2.507,2.7h2.4c1.5,0,2.1-1.2,2-3.306-.3-4.908.4-9.115,5.108-9.115,3.8,0,5.71,2.5,5.71,9.917,0,13.924-10.719,25.443-17.229,41.169a7.808,7.808,0,0,0-.6,3.205v2.4a1.736,1.736,0,0,0,1.805,1.8H124.9a1.841,1.841,0,0,0,1.9-1.9V173.26a1.841,1.841,0,0,0-1.9-1.9H109.771c5.508-14.125,17.728-26.946,17.728-41.169C127.5,117.969,122.992,112.96,114.879,112.96Z"/><path class="cls-3" d="M143.033,112.96c-8.014,0-12.323,3.805-12.323,16.027a2.372,2.372,0,0,0,2.507,2.7h2.4c1.5,0,2.1-1.2,2-3.306-.3-4.908.4-9.115,5.108-9.115,3.805,0,5.71,2.5,5.71,9.917,0,13.924-10.719,25.443-17.229,41.169a7.81,7.81,0,0,0-.6,3.205v2.4a1.736,1.736,0,0,0,1.8,1.8h20.638a1.84,1.84,0,0,0,1.9-1.9V173.26a1.84,1.84,0,0,0-1.9-1.9H137.925c5.508-14.125,17.727-26.946,17.727-41.169C155.652,117.969,151.146,112.96,143.033,112.96Z"/><path class="cls-3" d="M191.322,147.316c-6.613,0-9.919,5.31-9.919,15.729,0,10.316,3.306,15.726,9.919,15.726,6.81,0,9.915-5.41,9.915-15.726C201.237,152.626,198.132,147.316,191.322,147.316Zm0,26.045c-3.208,0-4.008-3.6-4.008-10.316,0-6.813.8-10.318,4.008-10.318,3.3,0,4.007,3.5,4.007,10.318C195.329,169.756,194.624,173.361,191.322,173.361Z"/><path class="cls-3" d="M195.729,113.56h-2a2.888,2.888,0,0,0-2.506,1.905l-28.146,60.4c-.5,1.1.2,1.9,1.3,1.9h2a2.884,2.884,0,0,0,2.5-1.9l28.15-60.4C197.531,114.362,196.83,113.56,195.729,113.56Z"/><path class="cls-3" d="M178.7,128.286c0-10.418-3.1-15.728-9.915-15.728-6.613,0-9.919,5.31-9.919,15.728,0,10.317,3.306,15.726,9.919,15.726C175.594,144.012,178.7,138.6,178.7,128.286Zm-13.922,0c0-6.813.8-10.317,4.007-10.317,3.307,0,4.007,3.5,4.007,10.317,0,6.71-.7,10.317-4.007,10.317C165.576,138.6,164.776,135,164.776,128.286Z"/></svg>