<svg id="Layer_1" data-name="Layer 1" xmlns="http://www.w3.org/2000/svg" viewBox="0 0 300 300"><defs><style>.cls-1{fill:#f21b16;}.cls-2{fill:#e6e6e6;}.cls-3{fill:#5e5e5e;}</style></defs><path class="cls-1" d="M274.17,133.85A122.273,122.273,0,0,0,152.535,25.407l-1.406.008-.14-16.887,1.546-.008A139.151,139.151,0,0,1,290.95,131.945Z"/><path class="cls-2" d="M274.758,140.145c.031.494.029.983.055,1.477l16.853-1.061-.185-2.949-16.853,1.061C274.664,139.165,274.727,139.65,274.758,140.145Z"/><path class="cls-2" d="M275,147.834c0,.5-.033.984-.038,1.478h16.886v-2.955H274.962C274.967,146.851,275,147.339,275,147.834Z"/><path class="cls-2" d="M274.758,155.524c-.031.494-.094.98-.13,1.472l16.853,1.061.185-2.95-16.853-1.06C274.787,154.54,274.789,155.029,274.758,155.524Z"/><path class="cls-2" d="M274.034,163.183c-.062.492-.155.972-.223,1.462l16.754,2.116.37-2.932-16.753-2.116C274.125,162.2,274.1,162.692,274.034,163.183Z"/><path class="cls-2" d="M272.831,170.782c-.093.487-.217.96-.315,1.444l16.588,3.165.553-2.9-16.587-3.165C272.983,169.81,272.924,170.3,272.831,170.782Z"/><path class="cls-2" d="M271.152,178.29c-.123.48-.276.944-.4,1.422l16.356,4.2.735-2.863-16.356-4.2C271.365,177.33,271.276,177.81,271.152,178.29Z"/><path class="cls-2" d="M269.006,185.678c-.153.472-.335.925-.493,1.394l16.06,5.218.913-2.81-16.06-5.219C269.279,184.733,269.159,185.207,269.006,185.678Z"/><path class="cls-2" d="M266.4,192.917c-.182.461-.392.9-.58,1.36l15.7,6.216,1.088-2.748-15.7-6.216C266.732,191.991,266.582,192.456,266.4,192.917Z"/><path class="cls-2" d="M263.344,199.977c-.211.449-.448.876-.663,1.321l15.279,7.19,1.258-2.674-15.279-7.19C263.734,199.074,263.555,199.529,263.344,199.977Z"/><path class="cls-2" d="M259.852,206.833c-.239.434-.5.846-.745,1.276l14.8,8.135,1.424-2.589-14.8-8.136C260.3,205.955,260.09,206.4,259.852,206.833Z"/><path class="cls-2" d="M255.935,213.455c-.265.418-.554.812-.824,1.227l14.258,9.048,1.584-2.495L256.7,212.186C256.435,212.607,256.2,213.036,255.935,213.455Z"/><path class="cls-2" d="M251.611,219.818c-.291.4-.6.776-.9,1.173l13.661,9.926,1.737-2.392L252.449,218.6C252.162,219,251.9,219.417,251.611,219.818Z"/><path class="cls-2" d="M246.9,225.9c-.316.382-.652.737-.971,1.114l13.011,10.764,1.883-2.277-13.011-10.764C247.5,225.118,247.211,225.515,246.9,225.9Z"/><path class="cls-2" d="M241.808,231.668c-.339.361-.7.694-1.039,1.051l12.309,11.559,2.023-2.154-12.309-11.56C242.457,230.929,242.147,231.306,241.808,231.668Z"/><path class="cls-2" d="M236.368,237.108c-.362.339-.74.649-1.1.984L246.824,250.4l2.155-2.023-11.56-12.309C237.062,236.411,236.729,236.769,236.368,237.108Z"/><path class="cls-2" d="M230.6,242.2c-.382.316-.779.6-1.163.913L240.2,256.119l2.277-1.883-10.764-13.012C231.334,241.544,230.979,241.88,230.6,242.2Z"/><path class="cls-2" d="M224.518,246.911c-.4.291-.815.551-1.218.838l9.926,13.661,2.39-1.737-9.925-13.661C225.294,246.306,224.919,246.62,224.518,246.911Z"/><path class="cls-2" d="M218.155,251.235c-.419.266-.848.5-1.268.76l9.048,14.257,2.5-1.583-9.048-14.257C218.967,250.681,218.573,250.97,218.155,251.235Z"/><path class="cls-2" d="M211.533,255.152c-.435.238-.878.445-1.314.678l8.135,14.8,2.59-1.424-8.135-14.8C212.379,254.649,211.967,254.913,211.533,255.152Z"/><path class="cls-2" d="M204.678,258.644c-.449.211-.9.389-1.353.595l7.189,15.279,2.674-1.258L206,257.981C205.554,258.2,205.126,258.433,204.678,258.644Z"/><path class="cls-2" d="M197.617,261.7c-.461.182-.926.332-1.388.508l6.217,15.7,2.747-1.088-6.216-15.7C198.519,261.308,198.078,261.517,197.617,261.7Z"/><path class="cls-2" d="M190.379,264.306c-.472.153-.946.273-1.418.42l5.219,16.06,2.81-.913-5.218-16.06C191.3,263.971,190.85,264.153,190.379,264.306Z"/><path class="cls-2" d="M182.99,266.452c-.48.123-.96.213-1.44.331l4.2,16.356,2.862-.735-4.2-16.356C183.935,266.176,183.47,266.329,182.99,266.452Z"/><path class="cls-2" d="M175.482,268.131c-.487.092-.972.152-1.459.239l3.165,16.587,2.9-.553-3.165-16.588C176.442,267.914,175.969,268.038,175.482,268.131Z"/><path class="cls-2" d="M167.884,269.334c-.492.062-.98.091-1.471.148l2.116,16.753,2.932-.371-2.116-16.753C168.855,269.178,168.375,269.272,167.884,269.334Z"/><path class="cls-2" d="M160.224,270.058c-.495.031-.983.029-1.477.055l1.06,16.853,2.95-.185L161.7,269.927C161.2,269.964,160.719,270.027,160.224,270.058Z"/><path class="cls-2" d="M152.535,270.3c-.5,0-.984-.033-1.478-.038v16.886h2.955V270.262C153.518,270.267,153.03,270.3,152.535,270.3Z"/><path class="cls-2" d="M144.845,270.058c-.5-.031-.98-.094-1.473-.131l-1.06,16.854,2.95.185,1.06-16.853C145.828,270.087,145.339,270.089,144.845,270.058Z"/><path class="cls-2" d="M137.186,269.334c-.492-.062-.972-.156-1.462-.223l-2.116,16.753,2.932.371,2.116-16.753C138.165,269.425,137.677,269.4,137.186,269.334Z"/><path class="cls-2" d="M129.587,268.131c-.487-.093-.96-.217-1.445-.315L124.978,284.4l2.9.553,3.164-16.587C130.559,268.283,130.073,268.223,129.587,268.131Z"/><path class="cls-2" d="M122.078,266.452c-.48-.123-.944-.276-1.421-.4l-4.2,16.356,2.863.735,4.2-16.356C123.039,266.665,122.558,266.575,122.078,266.452Z"/><path class="cls-2" d="M114.691,264.306c-.472-.153-.926-.335-1.394-.493l-5.218,16.06,2.81.913,5.218-16.06C115.636,264.579,115.162,264.459,114.691,264.306Z"/><path class="cls-2" d="M107.452,261.7c-.461-.183-.9-.392-1.36-.579l-6.216,15.7,2.747,1.088,6.217-15.7C108.378,262.032,107.913,261.882,107.452,261.7Z"/><path class="cls-2" d="M100.391,258.644c-.448-.211-.875-.448-1.32-.663l-7.19,15.279,2.673,1.258,7.191-15.279C101.3,259.033,100.84,258.855,100.391,258.644Z"/><path class="cls-2" d="M93.536,255.152c-.434-.239-.846-.5-1.276-.745l-8.135,14.8,2.589,1.424,8.135-14.8C94.414,255.6,93.97,255.39,93.536,255.152Z"/><path class="cls-2" d="M86.914,251.235c-.418-.265-.813-.554-1.227-.823l-9.048,14.257,2.5,1.583L88.182,252C87.762,251.735,87.333,251.5,86.914,251.235Z"/><path class="cls-2" d="M80.551,246.911c-.4-.291-.776-.6-1.173-.9l-9.926,13.661,2.391,1.737,9.926-13.661C81.366,247.462,80.952,247.2,80.551,246.911Z"/><path class="cls-2" d="M74.472,242.2c-.382-.315-.737-.651-1.114-.971L62.594,254.236l2.277,1.883,10.764-13.011C75.25,242.8,74.854,242.511,74.472,242.2Z"/><path class="cls-2" d="M68.7,237.108c-.361-.339-.694-.7-1.051-1.039L56.091,248.378l2.154,2.023L69.8,238.092C69.44,237.757,69.062,237.447,68.7,237.108Z"/><path class="cls-2" d="M63.261,231.668c-.339-.362-.649-.739-.984-1.1l-12.309,11.56,2.023,2.154L64.3,232.719C63.958,232.362,63.6,232.029,63.261,231.668Z"/><path class="cls-2" d="M58.173,225.9c-.316-.382-.6-.779-.912-1.163L44.249,235.5l1.884,2.277,13.011-10.764C58.825,226.634,58.489,226.279,58.173,225.9Z"/><path class="cls-2" d="M53.458,219.818c-.291-.4-.552-.815-.838-1.218l-13.661,9.925,1.737,2.392,13.661-9.926C54.062,220.594,53.749,220.218,53.458,219.818Z"/><path class="cls-2" d="M49.133,213.455c-.265-.419-.5-.848-.759-1.269l-14.258,9.049L35.7,223.73l14.257-9.048C49.688,214.267,49.4,213.873,49.133,213.455Z"/><path class="cls-2" d="M45.217,206.833c-.239-.435-.445-.878-.678-1.314l-14.8,8.136,1.424,2.589,14.8-8.135C45.719,207.679,45.456,207.267,45.217,206.833Z"/><path class="cls-2" d="M41.724,199.977c-.211-.448-.389-.9-.594-1.353l-15.279,7.19,1.258,2.674,15.279-7.19C42.173,200.853,41.936,200.426,41.724,199.977Z"/><path class="cls-2" d="M38.669,192.917c-.182-.461-.332-.926-.509-1.388l-15.7,6.216,1.088,2.748,15.7-6.216C39.061,193.819,38.852,193.378,38.669,192.917Z"/><path class="cls-2" d="M36.063,185.678c-.153-.471-.273-.945-.42-1.417l-16.06,5.219.913,2.81,16.06-5.218C36.4,186.6,36.216,186.15,36.063,185.678Z"/><path class="cls-2" d="M33.916,178.29c-.123-.48-.212-.96-.33-1.44l-16.356,4.2.735,2.863,16.356-4.2C34.193,179.234,34.04,178.77,33.916,178.29Z"/><path class="cls-2" d="M32.238,170.782c-.092-.487-.152-.972-.239-1.459l-16.588,3.165.554,2.9,16.587-3.165C32.454,171.742,32.331,171.269,32.238,170.782Z"/><path class="cls-2" d="M31.035,163.183c-.062-.491-.091-.979-.148-1.47l-16.753,2.116.371,2.932,16.753-2.116C31.19,164.155,31.1,163.675,31.035,163.183Z"/><path class="cls-2" d="M30.311,155.524c-.031-.5-.029-.984-.055-1.477L13.4,155.107l.185,2.95L30.442,157C30.405,156.5,30.342,156.018,30.311,155.524Z"/><path class="cls-2" d="M30.069,147.834c0-.5.033-.983.038-1.477H13.221v2.955H30.107C30.1,148.818,30.069,148.33,30.069,147.834Z"/><path class="cls-2" d="M30.311,140.145c.031-.5.094-.98.131-1.472l-16.854-1.061-.185,2.949,16.853,1.061C30.282,141.128,30.28,140.639,30.311,140.145Z"/><path class="cls-2" d="M31.035,132.485c.062-.491.155-.971.223-1.461l-16.753-2.116-.371,2.931,16.753,2.117C30.944,133.465,30.973,132.977,31.035,132.485Z"/><path class="cls-2" d="M32.238,124.886c.093-.486.216-.959.314-1.444l-16.587-3.164-.554,2.9L32,126.345C32.086,125.859,32.146,125.374,32.238,124.886Z"/><path class="cls-2" d="M33.916,117.378c.124-.48.277-.944.405-1.421l-16.356-4.2-.735,2.862,16.356,4.2C33.7,118.339,33.793,117.858,33.916,117.378Z"/><path class="cls-2" d="M36.063,109.99c.153-.471.335-.925.493-1.393L20.5,103.379l-.913,2.81,16.06,5.219C35.79,110.936,35.91,110.462,36.063,109.99Z"/><path class="cls-2" d="M38.669,102.752c.183-.461.392-.9.579-1.36l-15.7-6.216L22.46,97.923l15.7,6.217C38.337,103.678,38.487,103.213,38.669,102.752Z"/><path class="cls-2" d="M41.724,95.691c.212-.448.449-.876.664-1.321L27.109,87.181l-1.258,2.674L41.13,97.044C41.335,96.6,41.513,96.14,41.724,95.691Z"/><path class="cls-2" d="M45.217,88.836c.239-.434.5-.846.745-1.276l-14.8-8.135-1.424,2.589,14.8,8.135C44.772,89.714,44.978,89.271,45.217,88.836Z"/><path class="cls-2" d="M49.133,82.214c.266-.418.555-.813.824-1.227L35.7,71.939l-1.584,2.5,14.258,9.048C48.634,83.062,48.868,82.633,49.133,82.214Z"/><path class="cls-2" d="M53.458,75.851c.291-.4.6-.776.9-1.173L40.7,64.752l-1.737,2.391L52.62,77.069C52.906,76.666,53.167,76.252,53.458,75.851Z"/><path class="cls-2" d="M58.173,69.772c.316-.382.652-.737.971-1.114L46.133,57.894l-1.884,2.277L57.261,70.935C57.572,70.55,57.857,70.154,58.173,69.772Z"/><path class="cls-2" d="M63.261,64c.339-.361.7-.7,1.039-1.051L51.991,51.39l-2.023,2.155L62.277,65.1C62.612,64.74,62.922,64.362,63.261,64Z"/><path class="cls-2" d="M68.7,58.561c.361-.339.739-.649,1.1-.984L58.245,45.267,56.091,47.29,67.65,59.6C68.007,59.258,68.34,58.9,68.7,58.561Z"/><path class="cls-2" d="M74.472,53.473c.382-.316.778-.6,1.163-.912L64.871,39.55l-2.277,1.883L73.358,54.444C73.735,54.125,74.09,53.789,74.472,53.473Z"/><path class="cls-2" d="M80.551,48.758c.4-.291.815-.552,1.218-.838L71.843,34.259,69.452,36l9.926,13.661C79.775,49.362,80.15,49.049,80.551,48.758Z"/><path class="cls-2" d="M86.914,44.434c.419-.266.848-.5,1.268-.76L79.134,29.416,76.639,31l9.048,14.257C86.1,44.988,86.5,44.7,86.914,44.434Z"/><path class="cls-2" d="M93.536,40.517c.434-.239.878-.445,1.313-.678l-8.135-14.8-2.589,1.424,8.135,14.8C92.69,41.02,93.1,40.756,93.536,40.517Z"/><path class="cls-2" d="M100.391,37.024c.449-.21.9-.389,1.354-.594L94.554,21.15l-2.673,1.259,7.19,15.279C99.516,37.473,99.943,37.235,100.391,37.024Z"/><path class="cls-2" d="M107.452,33.969c.461-.182.926-.332,1.388-.509l-6.217-15.7-2.747,1.088,6.216,15.7C106.55,34.361,106.991,34.151,107.452,33.969Z"/><path class="cls-2" d="M114.691,31.363c.471-.153.945-.273,1.416-.42l-5.218-16.06-2.81.913,5.218,16.06C113.765,31.7,114.219,31.516,114.691,31.363Z"/><path class="cls-2" d="M122.078,29.216c.48-.123.961-.212,1.441-.33l-4.2-16.356-2.863.735,4.2,16.356C121.134,29.492,121.6,29.34,122.078,29.216Z"/><path class="cls-2" d="M129.587,27.538c.486-.093.972-.152,1.458-.239l-3.164-16.588-2.9.554,3.164,16.587C128.627,27.754,129.1,27.631,129.587,27.538Z"/><path class="cls-2" d="M137.186,26.335c.491-.062.979-.091,1.47-.148L136.54,9.434l-2.932.37,2.116,16.754C136.214,26.49,136.694,26.4,137.186,26.335Z"/><path class="cls-2" d="M144.845,25.611c.494-.032.983-.03,1.477-.055L145.262,8.7l-2.95.185,1.06,16.853C143.865,25.705,144.35,25.642,144.845,25.611Z"/><path class="cls-3" d="M115.063,112.958c-8.014,0-12.322,3.805-12.322,16.027a2.372,2.372,0,0,0,2.506,2.7h2.4c1.5,0,2.1-1.2,2-3.306-.3-4.908.4-9.115,5.108-9.115,3.806,0,5.71,2.5,5.71,9.917,0,13.924-10.719,25.443-17.228,41.169a7.807,7.807,0,0,0-.6,3.2v2.4a1.736,1.736,0,0,0,1.805,1.8h20.634a1.841,1.841,0,0,0,1.9-1.9v-2.606a1.841,1.841,0,0,0-1.9-1.9H109.955c5.508-14.125,17.728-26.946,17.728-41.169C127.683,117.967,123.177,112.958,115.063,112.958Z"/><path class="cls-3" d="M150.428,144.511c2.906-2.2,4.91-6.512,4.91-14.124,0-12.42-4.609-17.429-12.121-17.429-8.014,0-12.022,3.805-12.022,16.027a2.373,2.373,0,0,0,2.507,2.7h2.4c1.5,0,2.1-1.2,2-3.306-.3-4.908.4-9.115,4.807-9.115,3.006,0,5.211,1.5,5.211,11.119,0,10.117-1.9,11.419-4.708,11.419h-2.807a1.841,1.841,0,0,0-1.9,1.9v2.1a1.84,1.84,0,0,0,1.9,1.9h2.807c3.1,0,5.409,1.3,5.409,12.321s-2.205,12.02-5.71,12.02c-4.407,0-5.31-4.307-5.009-10.216.1-2.105-.5-3.307-2-3.307h-2.4a2.373,2.373,0,0,0-2.507,2.705c0,13.221,4.008,17.13,12.022,17.13,7.512,0,12.822-4.41,12.822-18.332C156.039,151.522,153.833,146.816,150.428,144.511Z"/><path class="cls-3" d="M179.786,128.284c0-10.418-3.1-15.728-9.916-15.728-6.613,0-9.919,5.31-9.919,15.728,0,10.317,3.306,15.726,9.919,15.726C176.681,144.01,179.786,138.6,179.786,128.284Zm-13.923,0c0-6.813.8-10.317,4.007-10.317,3.307,0,4.007,3.5,4.007,10.317,0,6.71-.7,10.317-4.007,10.317C166.663,138.6,165.863,134.994,165.863,128.284Z"/><path class="cls-3" d="M196.816,113.558h-2a2.893,2.893,0,0,0-2.506,1.9l-28.146,60.4c-.5,1.1.2,1.9,1.3,1.9h2a2.883,2.883,0,0,0,2.5-1.9l28.15-60.4C198.618,114.36,197.917,113.558,196.816,113.558Z"/><path class="cls-3" d="M192.409,147.316c-6.613,0-9.919,5.308-9.919,15.726,0,10.318,3.306,15.726,9.919,15.726,6.811,0,9.915-5.408,9.915-15.726C202.324,152.624,199.22,147.316,192.409,147.316Zm0,26.044c-3.207,0-4.007-3.608-4.007-10.318,0-6.812.8-10.316,4.007-10.316,3.3,0,4.007,3.5,4.007,10.316C196.416,169.752,195.711,173.36,192.409,173.36Z"/></svg>