<svg id="Layer_1" data-name="Layer 1" xmlns="http://www.w3.org/2000/svg" viewBox="0 0 300 300"><defs><style>.cls-1{fill:#f21b16;}.cls-2{fill:#e6e6e6;}.cls-3{fill:#5e5e5e;}</style></defs><path class="cls-1" d="M275.435,141.52A122.3,122.3,0,0,0,153.164,25.407l-1.406.008-.14-16.887,1.546-.008A139.175,139.175,0,0,1,292.3,140.662Z"/><path class="cls-2" d="M275.63,147.834c0,.5-.032.984-.038,1.478h16.887v-2.955H275.592C275.6,146.851,275.63,147.339,275.63,147.834Z"/><path class="cls-2" d="M275.388,155.524c-.031.494-.094.98-.13,1.472l16.853,1.061.185-2.95-16.853-1.06C275.418,154.54,275.419,155.029,275.388,155.524Z"/><path class="cls-2" d="M274.664,163.183c-.062.492-.155.972-.223,1.462l16.754,2.116.37-2.932-16.753-2.116C274.755,162.2,274.727,162.692,274.664,163.183Z"/><path class="cls-2" d="M273.461,170.782c-.093.487-.217.96-.314,1.444l16.587,3.165.554-2.9L273.7,169.323C273.613,169.81,273.554,170.3,273.461,170.782Z"/><path class="cls-2" d="M271.783,178.29c-.124.48-.277.944-.405,1.422l16.356,4.2.735-2.863-16.356-4.2C272,177.33,271.906,177.81,271.783,178.29Z"/><path class="cls-2" d="M269.636,185.678c-.153.472-.335.925-.492,1.394L285.2,192.29l.914-2.81-16.06-5.219C269.909,184.733,269.789,185.207,269.636,185.678Z"/><path class="cls-2" d="M267.03,192.917c-.182.461-.392.9-.579,1.36l15.7,6.216,1.087-2.748-15.7-6.216C267.362,191.991,267.213,192.456,267.03,192.917Z"/><path class="cls-2" d="M263.975,199.977c-.211.449-.448.876-.664,1.321l15.279,7.19,1.259-2.674-15.28-7.19C264.364,199.074,264.186,199.529,263.975,199.977Z"/><path class="cls-2" d="M260.482,206.833c-.239.434-.5.846-.745,1.276l14.8,8.135,1.423-2.589-14.8-8.136C260.927,205.955,260.721,206.4,260.482,206.833Z"/><path class="cls-2" d="M256.566,213.455c-.266.418-.555.812-.824,1.227L270,223.73l1.583-2.495-14.258-9.049C257.065,212.607,256.831,213.036,256.566,213.455Z"/><path class="cls-2" d="M252.241,219.818c-.291.4-.6.776-.9,1.173L265,230.917l1.738-2.392L253.079,218.6C252.793,219,252.533,219.417,252.241,219.818Z"/><path class="cls-2" d="M247.526,225.9c-.316.382-.652.737-.971,1.114l13.011,10.764,1.884-2.277-13.011-10.764C248.127,225.118,247.842,225.515,247.526,225.9Z"/><path class="cls-2" d="M242.438,231.668c-.339.361-.7.694-1.039,1.051l12.309,11.559,2.023-2.154-12.309-11.56C243.088,230.929,242.777,231.306,242.438,231.668Z"/><path class="cls-2" d="M237,237.108c-.361.339-.739.649-1.1.984l11.56,12.309,2.154-2.023-11.56-12.309C237.692,236.411,237.359,236.769,237,237.108Z"/><path class="cls-2" d="M231.227,242.2c-.382.316-.778.6-1.163.913l10.764,13.011,2.277-1.883-10.764-13.012C231.964,241.544,231.609,241.88,231.227,242.2Z"/><path class="cls-2" d="M225.148,246.911c-.4.291-.815.551-1.218.838l9.926,13.661,2.391-1.737-9.926-13.661C225.925,246.306,225.549,246.62,225.148,246.911Z"/><path class="cls-2" d="M218.785,251.235c-.418.266-.848.5-1.268.76l9.048,14.257,2.5-1.583-9.048-14.257C219.6,250.681,219.2,250.97,218.785,251.235Z"/><path class="cls-2" d="M212.163,255.152c-.434.238-.878.445-1.313.678l8.135,14.8,2.59-1.424-8.136-14.8C213.009,254.649,212.6,254.913,212.163,255.152Z"/><path class="cls-2" d="M205.308,258.644c-.448.211-.9.389-1.353.595l7.19,15.279,2.674-1.258-7.19-15.279C206.184,258.2,205.756,258.433,205.308,258.644Z"/><path class="cls-2" d="M198.247,261.7c-.46.182-.926.332-1.387.508l6.216,15.7,2.747-1.088-6.216-15.7C199.149,261.308,198.708,261.517,198.247,261.7Z"/><path class="cls-2" d="M191.009,264.306c-.472.153-.946.273-1.417.42l5.218,16.06,2.81-.913-5.218-16.06C191.934,263.971,191.48,264.153,191.009,264.306Z"/><path class="cls-2" d="M183.621,266.452c-.48.123-.961.213-1.441.331l4.2,16.356,2.863-.735-4.2-16.356C184.565,266.176,184.1,266.329,183.621,266.452Z"/><path class="cls-2" d="M176.112,268.131c-.486.092-.971.152-1.458.239l3.164,16.587,2.9-.553-3.164-16.588C177.072,267.914,176.6,268.038,176.112,268.131Z"/><path class="cls-2" d="M168.514,269.334c-.492.062-.98.091-1.471.148l2.116,16.753,2.932-.371-2.116-16.753C169.485,269.178,169.005,269.272,168.514,269.334Z"/><path class="cls-2" d="M160.855,270.058c-.495.031-.984.029-1.478.055l1.061,16.853,2.949-.185-1.06-16.854C161.834,269.964,161.349,270.027,160.855,270.058Z"/><path class="cls-2" d="M153.165,270.3c-.5,0-.984-.033-1.478-.038v16.886h2.955V270.262C154.148,270.267,153.661,270.3,153.165,270.3Z"/><path class="cls-2" d="M145.475,270.058c-.5-.031-.979-.094-1.472-.131l-1.06,16.854,2.949.185,1.06-16.853C146.458,270.087,145.969,270.089,145.475,270.058Z"/><path class="cls-2" d="M137.816,269.334c-.492-.062-.972-.156-1.461-.223l-2.117,16.753,2.932.371,2.117-16.753C138.795,269.425,138.307,269.4,137.816,269.334Z"/><path class="cls-2" d="M130.217,268.131c-.487-.093-.96-.217-1.444-.315L125.609,284.4l2.9.553,3.164-16.587C131.189,268.283,130.7,268.223,130.217,268.131Z"/><path class="cls-2" d="M122.709,266.452c-.48-.123-.945-.276-1.422-.4l-4.2,16.356,2.862.735,4.2-16.356C123.67,266.665,123.189,266.575,122.709,266.452Z"/><path class="cls-2" d="M115.321,264.306c-.472-.153-.925-.335-1.394-.493l-5.218,16.06,2.811.913,5.218-16.06C116.266,264.579,115.792,264.459,115.321,264.306Z"/><path class="cls-2" d="M108.082,261.7c-.461-.183-.9-.392-1.36-.579l-6.216,15.7,2.748,1.088,6.216-15.7C109.008,262.032,108.543,261.882,108.082,261.7Z"/><path class="cls-2" d="M101.021,258.644c-.448-.211-.875-.448-1.32-.663l-7.19,15.279,2.674,1.258,7.19-15.279C101.925,259.033,101.47,258.855,101.021,258.644Z"/><path class="cls-2" d="M94.167,255.152c-.435-.239-.846-.5-1.277-.745l-8.135,14.8,2.59,1.424,8.135-14.8C95.044,255.6,94.6,255.39,94.167,255.152Z"/><path class="cls-2" d="M87.545,251.235c-.419-.265-.813-.554-1.228-.823l-9.048,14.257,2.495,1.583L88.812,252C88.392,251.735,87.963,251.5,87.545,251.235Z"/><path class="cls-2" d="M81.181,246.911c-.4-.291-.776-.6-1.173-.9l-9.925,13.661,2.39,1.737L82.4,247.749C82,247.462,81.582,247.2,81.181,246.911Z"/><path class="cls-2" d="M75.1,242.2c-.381-.315-.736-.651-1.114-.971L63.224,254.236l2.277,1.883,10.764-13.011C75.881,242.8,75.484,242.511,75.1,242.2Z"/><path class="cls-2" d="M69.331,237.108c-.361-.339-.694-.7-1.05-1.039l-11.56,12.309,2.154,2.023,11.559-12.309C70.07,237.757,69.693,237.447,69.331,237.108Z"/><path class="cls-2" d="M63.891,231.668c-.339-.362-.649-.739-.983-1.1L50.6,242.124l2.023,2.154,12.31-11.559C64.588,232.362,64.231,232.029,63.891,231.668Z"/><path class="cls-2" d="M58.8,225.9c-.315-.382-.6-.779-.912-1.163L44.88,235.5l1.883,2.277,13.012-10.764C59.456,226.634,59.12,226.279,58.8,225.9Z"/><path class="cls-2" d="M54.088,219.818c-.291-.4-.552-.815-.837-1.218l-13.662,9.925,1.737,2.392,13.661-9.926C54.692,220.594,54.38,220.218,54.088,219.818Z"/><path class="cls-2" d="M49.764,213.455c-.266-.419-.5-.848-.76-1.269l-14.258,9.049,1.584,2.495,14.258-9.048C50.318,214.267,50.03,213.873,49.764,213.455Z"/><path class="cls-2" d="M45.848,206.833c-.239-.435-.446-.878-.679-1.314l-14.8,8.136,1.424,2.589,14.8-8.135C46.35,207.679,46.086,207.267,45.848,206.833Z"/><path class="cls-2" d="M42.355,199.977c-.211-.448-.39-.9-.595-1.353l-15.279,7.19,1.258,2.674,15.279-7.19C42.8,200.853,42.566,200.426,42.355,199.977Z"/><path class="cls-2" d="M39.3,192.917c-.182-.461-.331-.926-.508-1.388l-15.7,6.216,1.088,2.748,15.7-6.216C39.692,193.819,39.482,193.378,39.3,192.917Z"/><path class="cls-2" d="M36.693,185.678c-.153-.471-.273-.945-.42-1.417l-16.06,5.219.913,2.81,16.06-5.218C37.028,186.6,36.846,186.15,36.693,185.678Z"/><path class="cls-2" d="M34.547,178.29c-.124-.48-.213-.96-.331-1.44l-16.356,4.2.735,2.863,16.356-4.2C34.823,179.234,34.67,178.77,34.547,178.29Z"/><path class="cls-2" d="M32.869,170.782c-.093-.487-.153-.972-.24-1.459l-16.587,3.165.554,2.9,16.587-3.165C33.085,171.742,32.962,171.269,32.869,170.782Z"/><path class="cls-2" d="M31.665,163.183c-.062-.491-.091-.979-.147-1.47l-16.754,2.116.371,2.932,16.753-2.116C31.82,164.155,31.727,163.675,31.665,163.183Z"/><path class="cls-2" d="M30.941,155.524c-.031-.5-.029-.984-.055-1.477l-16.853,1.06.186,2.95L31.072,157C31.035,156.5,30.972,156.018,30.941,155.524Z"/><path class="cls-2" d="M30.7,147.834c0-.5.032-.983.038-1.477H13.851v2.955H30.738C30.732,148.818,30.7,148.33,30.7,147.834Z"/><path class="cls-2" d="M30.941,140.145c.031-.5.094-.98.131-1.472l-16.853-1.061-.186,2.949,16.853,1.061C30.912,141.128,30.91,140.639,30.941,140.145Z"/><path class="cls-2" d="M31.665,132.485c.062-.491.155-.971.223-1.461l-16.753-2.116-.371,2.931,16.754,2.117C31.574,133.465,31.6,132.977,31.665,132.485Z"/><path class="cls-2" d="M32.869,124.886c.093-.486.216-.959.314-1.444L16.6,120.278l-.554,2.9,16.587,3.164C32.716,125.859,32.776,125.374,32.869,124.886Z"/><path class="cls-2" d="M34.547,117.378c.123-.48.276-.944.4-1.421l-16.356-4.2-.735,2.862,16.356,4.2C34.334,118.339,34.423,117.858,34.547,117.378Z"/><path class="cls-2" d="M36.693,109.99c.153-.471.335-.925.493-1.393l-16.06-5.218-.913,2.81,16.06,5.219C36.42,110.936,36.54,110.462,36.693,109.99Z"/><path class="cls-2" d="M39.3,102.752c.183-.461.393-.9.58-1.36l-15.7-6.216L23.09,97.923l15.7,6.217C38.968,103.678,39.117,103.213,39.3,102.752Z"/><path class="cls-2" d="M42.355,95.691c.211-.448.448-.876.663-1.321L27.739,87.181l-1.258,2.674L41.76,97.044C41.965,96.6,42.144,96.14,42.355,95.691Z"/><path class="cls-2" d="M45.848,88.836c.238-.434.5-.846.745-1.276L31.8,79.425l-1.424,2.589,14.8,8.135C45.4,89.714,45.609,89.271,45.848,88.836Z"/><path class="cls-2" d="M49.764,82.214c.266-.418.554-.813.824-1.227L36.33,71.939l-1.584,2.5L49,83.482C49.265,83.062,49.5,82.633,49.764,82.214Z"/><path class="cls-2" d="M54.088,75.851c.292-.4.6-.776.9-1.173L41.326,64.752l-1.737,2.391,13.662,9.926C53.536,76.666,53.8,76.252,54.088,75.851Z"/><path class="cls-2" d="M58.8,69.772c.317-.382.653-.737.972-1.114L46.763,57.894,44.88,60.171,57.891,70.935C58.2,70.55,58.488,70.154,58.8,69.772Z"/><path class="cls-2" d="M63.891,64c.34-.361.7-.7,1.04-1.051L52.621,51.39,50.6,53.545,62.908,65.1C63.242,64.74,63.552,64.362,63.891,64Z"/><path class="cls-2" d="M69.331,58.561c.362-.339.739-.649,1.1-.984L58.875,45.267,56.721,47.29,68.281,59.6C68.637,59.258,68.97,58.9,69.331,58.561Z"/><path class="cls-2" d="M75.1,53.473c.382-.316.779-.6,1.163-.912L65.5,39.55l-2.277,1.883L73.988,54.444C74.366,54.125,74.721,53.789,75.1,53.473Z"/><path class="cls-2" d="M81.181,48.758c.4-.291.815-.552,1.218-.838L72.473,34.259,70.083,36l9.925,13.661C80.405,49.362,80.78,49.049,81.181,48.758Z"/><path class="cls-2" d="M87.545,44.434c.418-.266.847-.5,1.267-.76L79.764,29.416,77.269,31l9.048,14.257C86.732,44.988,87.126,44.7,87.545,44.434Z"/><path class="cls-2" d="M94.167,40.517c.434-.239.877-.445,1.313-.678l-8.135-14.8-2.59,1.424,8.135,14.8C93.321,41.02,93.732,40.756,94.167,40.517Z"/><path class="cls-2" d="M101.021,37.024c.449-.21.9-.389,1.354-.594l-7.19-15.28-2.674,1.259L99.7,37.688C100.146,37.473,100.573,37.235,101.021,37.024Z"/><path class="cls-2" d="M108.082,33.969c.461-.182.926-.332,1.388-.509l-6.216-15.7-2.748,1.088,6.216,15.7C107.18,34.361,107.621,34.151,108.082,33.969Z"/><path class="cls-2" d="M115.321,31.363c.471-.153.945-.273,1.417-.42l-5.218-16.06-2.811.913,5.218,16.06C114.4,31.7,114.849,31.516,115.321,31.363Z"/><path class="cls-2" d="M122.709,29.216c.48-.123.961-.212,1.441-.33l-4.2-16.356-2.862.735,4.2,16.356C121.764,29.492,122.229,29.34,122.709,29.216Z"/><path class="cls-2" d="M130.217,27.538c.487-.093.972-.152,1.458-.239l-3.164-16.588-2.9.554,3.164,16.587C129.257,27.754,129.73,27.631,130.217,27.538Z"/><path class="cls-2" d="M137.816,26.335c.491-.062.979-.091,1.471-.148L137.17,9.434l-2.932.37,2.117,16.754C136.844,26.49,137.324,26.4,137.816,26.335Z"/><path class="cls-2" d="M145.475,25.611c.494-.032.983-.03,1.477-.055L145.892,8.7l-2.949.185L144,25.741C144.5,25.705,144.98,25.642,145.475,25.611Z"/><path class="cls-3" d="M116.493,112.958c-8.015,0-12.323,3.805-12.323,16.027a2.373,2.373,0,0,0,2.507,2.7h2.4c1.5,0,2.1-1.2,2-3.306-.3-4.908.4-9.115,5.108-9.115,3.805,0,5.71,2.5,5.71,9.917,0,13.924-10.719,25.443-17.229,41.169a7.807,7.807,0,0,0-.6,3.2v2.4a1.737,1.737,0,0,0,1.806,1.8h20.634a1.84,1.84,0,0,0,1.9-1.9v-2.606a1.84,1.84,0,0,0-1.9-1.9H111.385c5.508-14.125,17.727-26.946,17.727-41.169C129.112,117.967,124.606,112.958,116.493,112.958Z"/><path class="cls-3" d="M155.864,157.231h-3.9V145.814a1.844,1.844,0,0,0-1.9-1.905h-3.208a1.841,1.841,0,0,0-1.9,1.905v11.417h-7.713l9.915-37.862a19.814,19.814,0,0,0,.8-4.007,1.737,1.737,0,0,0-1.806-1.8h-3.1a1.952,1.952,0,0,0-2,1.7L130.823,156.23a17.924,17.924,0,0,0-.6,3.205v2.406a1.735,1.735,0,0,0,1.806,1.8h12.92v12.222a1.841,1.841,0,0,0,1.9,1.9h3.208a1.844,1.844,0,0,0,1.9-1.9V163.642h3.9a1.843,1.843,0,0,0,1.905-1.9v-2.6A1.845,1.845,0,0,0,155.864,157.231Z"/><path class="cls-3" d="M179.611,128.284c0-10.418-3.1-15.728-9.915-15.728-6.613,0-9.919,5.31-9.919,15.728,0,10.317,3.306,15.726,9.919,15.726C176.507,144.01,179.611,138.6,179.611,128.284Zm-13.922,0c0-6.813.8-10.317,4.007-10.317,3.306,0,4.007,3.5,4.007,10.317,0,6.71-.7,10.317-4.007,10.317C166.488,138.6,165.689,134.994,165.689,128.284Z"/><path class="cls-3" d="M196.642,113.558h-2a2.887,2.887,0,0,0-2.506,1.9l-28.146,60.4c-.5,1.1.2,1.9,1.3,1.9h2a2.884,2.884,0,0,0,2.5-1.9l28.15-60.4C198.444,114.36,197.743,113.558,196.642,113.558Z"/><path class="cls-3" d="M192.235,147.316c-6.613,0-9.919,5.308-9.919,15.726,0,10.318,3.306,15.726,9.919,15.726,6.811,0,9.915-5.408,9.915-15.726C202.15,152.624,199.046,147.316,192.235,147.316Zm0,26.044c-3.208,0-4.007-3.608-4.007-10.318,0-6.812.8-10.316,4.007-10.316,3.3,0,4.007,3.5,4.007,10.316C196.242,169.752,195.537,173.36,192.235,173.36Z"/></svg>