<svg id="Layer_1" data-name="Layer 1" xmlns="http://www.w3.org/2000/svg" viewBox="0 0 300 300"><defs><style>.cls-1{fill:#f21b16;}.cls-2{fill:#e6e6e6;}.cls-3{fill:#5e5e5e;}</style></defs><path class="cls-1" d="M293.1,149.454l-16.886-.284.008-1.336A122.567,122.567,0,0,0,153.793,25.407l-1.405.008-.141-16.887,1.546-.008c76.818,0,139.314,62.5,139.314,139.314Z"/><path class="cls-2" d="M276.018,155.524c-.031.494-.094.98-.13,1.472l16.853,1.061.186-2.95-16.854-1.06C276.048,154.54,276.05,155.029,276.018,155.524Z"/><path class="cls-2" d="M275.294,163.183c-.062.492-.155.972-.222,1.462l16.753,2.116.37-2.932-16.753-2.116C275.385,162.2,275.357,162.692,275.294,163.183Z"/><path class="cls-2" d="M274.091,170.782c-.093.487-.216.96-.314,1.444l16.587,3.165.554-2.9-16.588-3.165C274.243,169.81,274.184,170.3,274.091,170.782Z"/><path class="cls-2" d="M272.413,178.29c-.123.48-.276.944-.405,1.422l16.356,4.2.735-2.863-16.356-4.2C272.626,177.33,272.536,177.81,272.413,178.29Z"/><path class="cls-2" d="M270.266,185.678c-.153.472-.335.925-.493,1.394l16.06,5.218.913-2.81-16.059-5.219C270.539,184.733,270.419,185.207,270.266,185.678Z"/><path class="cls-2" d="M267.66,192.917c-.182.461-.392.9-.579,1.36l15.7,6.216,1.087-2.748-15.7-6.216C267.992,191.991,267.843,192.456,267.66,192.917Z"/><path class="cls-2" d="M264.605,199.977c-.211.449-.448.876-.664,1.321l15.28,7.19,1.258-2.674-15.28-7.19C264.994,199.074,264.816,199.529,264.605,199.977Z"/><path class="cls-2" d="M261.112,206.833c-.239.434-.5.846-.745,1.276l14.8,8.135,1.424-2.589-14.8-8.136C261.557,205.955,261.351,206.4,261.112,206.833Z"/><path class="cls-2" d="M257.2,213.455c-.266.418-.555.812-.824,1.227l14.258,9.048,1.583-2.495-14.258-9.049C257.7,212.607,257.461,213.036,257.2,213.455Z"/><path class="cls-2" d="M252.871,219.818c-.291.4-.6.776-.9,1.173l13.662,9.926,1.736-2.392L253.709,218.6C253.423,219,253.163,219.417,252.871,219.818Z"/><path class="cls-2" d="M248.156,225.9c-.316.382-.652.737-.971,1.114L260.2,237.775l1.883-2.277-13.011-10.764C248.758,225.118,248.472,225.515,248.156,225.9Z"/><path class="cls-2" d="M243.068,231.668c-.339.361-.7.694-1.039,1.051l12.31,11.559,2.023-2.154-12.31-11.56C243.718,230.929,243.407,231.306,243.068,231.668Z"/><path class="cls-2" d="M237.628,237.108c-.361.339-.739.649-1.1.984L248.084,250.4l2.155-2.023-11.56-12.309C238.323,236.411,237.989,236.769,237.628,237.108Z"/><path class="cls-2" d="M231.857,242.2c-.382.316-.778.6-1.163.913l10.764,13.011,2.277-1.883-10.764-13.012C232.594,241.544,232.239,241.88,231.857,242.2Z"/><path class="cls-2" d="M225.778,246.911c-.4.291-.815.551-1.218.838l9.926,13.661,2.391-1.737-9.926-13.661C226.554,246.306,226.179,246.62,225.778,246.911Z"/><path class="cls-2" d="M219.415,251.235c-.419.266-.848.5-1.268.76l9.048,14.257,2.5-1.583-9.048-14.257C220.228,250.681,219.833,250.97,219.415,251.235Z"/><path class="cls-2" d="M212.793,255.152c-.435.238-.877.445-1.313.678l8.135,14.8,2.59-1.424-8.136-14.8C213.639,254.649,213.227,254.913,212.793,255.152Z"/><path class="cls-2" d="M205.938,258.644c-.449.211-.9.389-1.353.595l7.19,15.279,2.674-1.258-7.19-15.279C206.814,258.2,206.386,258.433,205.938,258.644Z"/><path class="cls-2" d="M198.877,261.7c-.461.182-.926.332-1.388.508l6.217,15.7,2.747-1.088-6.216-15.7C199.78,261.308,199.338,261.517,198.877,261.7Z"/><path class="cls-2" d="M191.639,264.306c-.472.153-.946.273-1.418.42l5.219,16.06,2.81-.913-5.218-16.06C192.564,263.971,192.11,264.153,191.639,264.306Z"/><path class="cls-2" d="M184.251,266.452c-.48.123-.961.213-1.441.331l4.2,16.356,2.862-.735-4.2-16.356C185.2,266.176,184.731,266.329,184.251,266.452Z"/><path class="cls-2" d="M176.743,268.131c-.488.092-.973.152-1.459.239l3.164,16.587,2.9-.553-3.164-16.588C177.7,267.914,177.229,268.038,176.743,268.131Z"/><path class="cls-2" d="M169.144,269.334c-.492.062-.98.091-1.471.148l2.117,16.753,2.932-.371-2.117-16.753C170.115,269.178,169.636,269.272,169.144,269.334Z"/><path class="cls-2" d="M161.484,270.058c-.494.031-.983.029-1.477.055l1.061,16.853,2.949-.185-1.061-16.854C162.464,269.964,161.979,270.027,161.484,270.058Z"/><path class="cls-2" d="M153.795,270.3c-.5,0-.983-.033-1.478-.038v16.886h2.955V270.262C154.778,270.267,154.29,270.3,153.795,270.3Z"/><path class="cls-2" d="M146.1,270.058c-.494-.031-.979-.094-1.472-.131l-1.061,16.854,2.95.185,1.06-16.853C147.089,270.087,146.6,270.089,146.1,270.058Z"/><path class="cls-2" d="M138.446,269.334c-.492-.062-.972-.156-1.461-.223l-2.117,16.753,2.932.371,2.116-16.753C139.426,269.425,138.937,269.4,138.446,269.334Z"/><path class="cls-2" d="M130.847,268.131c-.487-.093-.96-.217-1.444-.315L126.238,284.4l2.9.553,3.165-16.587C131.819,268.283,131.334,268.223,130.847,268.131Z"/><path class="cls-2" d="M123.339,266.452c-.48-.123-.944-.276-1.422-.4l-4.2,16.356,2.863.735,4.2-16.356C124.3,266.665,123.819,266.575,123.339,266.452Z"/><path class="cls-2" d="M115.951,264.306c-.471-.153-.925-.335-1.393-.493l-5.219,16.06,2.811.913,5.218-16.06C116.9,264.579,116.422,264.459,115.951,264.306Z"/><path class="cls-2" d="M108.712,261.7c-.461-.183-.9-.392-1.359-.579l-6.217,15.7,2.748,1.088,6.216-15.7C109.639,262.032,109.173,261.882,108.712,261.7Z"/><path class="cls-2" d="M101.652,258.644c-.449-.211-.876-.448-1.321-.663l-7.19,15.279,2.674,1.258,7.19-15.279C102.555,259.033,102.1,258.855,101.652,258.644Z"/><path class="cls-2" d="M94.8,255.152c-.435-.239-.846-.5-1.277-.745l-8.135,14.8,2.59,1.424,8.135-14.8C95.674,255.6,95.231,255.39,94.8,255.152Z"/><path class="cls-2" d="M88.175,251.235c-.419-.265-.813-.554-1.228-.823L77.9,264.669l2.5,1.583L89.443,252C89.022,251.735,88.593,251.5,88.175,251.235Z"/><path class="cls-2" d="M81.811,246.911c-.4-.291-.776-.6-1.172-.9l-9.926,13.661L73.1,261.41l9.925-13.661C82.626,247.462,82.212,247.2,81.811,246.911Z"/><path class="cls-2" d="M75.733,242.2c-.383-.315-.738-.651-1.115-.971L63.854,254.236l2.277,1.883L76.9,243.108C76.511,242.8,76.114,242.511,75.733,242.2Z"/><path class="cls-2" d="M69.962,237.108c-.362-.339-.7-.7-1.052-1.039L57.351,248.378l2.154,2.023,11.56-12.309C70.7,237.757,70.323,237.447,69.962,237.108Z"/><path class="cls-2" d="M64.522,231.668c-.34-.362-.65-.739-.985-1.1l-12.309,11.56,2.023,2.154,12.31-11.559C65.218,232.362,64.861,232.029,64.522,231.668Z"/><path class="cls-2" d="M59.434,225.9c-.316-.382-.6-.779-.913-1.163L45.51,235.5l1.884,2.277,13.011-10.764C60.085,226.634,59.749,226.279,59.434,225.9Z"/><path class="cls-2" d="M54.718,219.818c-.291-.4-.551-.815-.837-1.218l-13.662,9.925,1.737,2.392,13.661-9.926C55.323,220.594,55.009,220.218,54.718,219.818Z"/><path class="cls-2" d="M50.394,213.455c-.266-.419-.5-.848-.76-1.269l-14.257,9.049,1.583,2.495,14.258-9.048C50.948,214.267,50.659,213.873,50.394,213.455Z"/><path class="cls-2" d="M46.477,206.833c-.238-.435-.444-.878-.678-1.314L31,213.655l1.424,2.589,14.8-8.135C46.98,207.679,46.716,207.267,46.477,206.833Z"/><path class="cls-2" d="M42.985,199.977c-.211-.448-.389-.9-.595-1.353l-15.279,7.19,1.258,2.674,15.28-7.19C43.433,200.853,43.2,200.426,42.985,199.977Z"/><path class="cls-2" d="M39.929,192.917c-.182-.461-.332-.926-.508-1.388l-15.7,6.216,1.088,2.748,15.7-6.216C40.321,193.819,40.112,193.378,39.929,192.917Z"/><path class="cls-2" d="M37.323,185.678c-.153-.471-.272-.945-.42-1.417l-16.06,5.219.913,2.81,16.06-5.218C37.658,186.6,37.477,186.15,37.323,185.678Z"/><path class="cls-2" d="M35.177,178.29c-.123-.48-.213-.96-.33-1.44l-16.357,4.2.735,2.863,16.356-4.2C35.453,179.234,35.3,178.77,35.177,178.29Z"/><path class="cls-2" d="M33.5,170.782c-.092-.487-.151-.972-.239-1.459l-16.587,3.165.553,2.9,16.588-3.165C33.715,171.742,33.591,171.269,33.5,170.782Z"/><path class="cls-2" d="M32.3,163.183c-.062-.491-.091-.979-.147-1.47l-16.754,2.116.371,2.932,16.753-2.116C32.451,164.155,32.357,163.675,32.3,163.183Z"/><path class="cls-2" d="M31.571,155.524c-.031-.5-.029-.984-.055-1.477l-16.853,1.06.186,2.95L31.7,157C31.665,156.5,31.6,156.018,31.571,155.524Z"/><path class="cls-2" d="M31.329,147.834c0-.5.033-.983.038-1.477H14.481v2.955H31.367C31.362,148.818,31.329,148.33,31.329,147.834Z"/><path class="cls-2" d="M31.571,140.145c.031-.5.094-.98.131-1.472l-16.853-1.061-.186,2.949,16.853,1.061C31.542,141.128,31.54,140.639,31.571,140.145Z"/><path class="cls-2" d="M32.3,132.485c.062-.491.156-.971.223-1.461l-16.753-2.116-.371,2.931,16.754,2.117C32.2,133.465,32.233,132.977,32.3,132.485Z"/><path class="cls-2" d="M33.5,124.886c.093-.486.217-.959.315-1.444l-16.588-3.164-.553,2.9,16.587,3.164C33.347,125.859,33.406,125.374,33.5,124.886Z"/><path class="cls-2" d="M35.177,117.378c.123-.48.276-.944.4-1.421l-16.356-4.2-.735,2.862,16.357,4.2C34.964,118.339,35.054,117.858,35.177,117.378Z"/><path class="cls-2" d="M37.323,109.99c.154-.471.335-.925.493-1.393l-16.06-5.218-.913,2.81,16.06,5.219C37.051,110.936,37.17,110.462,37.323,109.99Z"/><path class="cls-2" d="M39.929,102.752c.183-.461.392-.9.58-1.36l-15.7-6.216L23.72,97.923l15.7,6.217C39.6,103.678,39.747,103.213,39.929,102.752Z"/><path class="cls-2" d="M42.985,95.691c.211-.448.448-.876.664-1.321l-15.28-7.189-1.258,2.674L42.39,97.044C42.6,96.6,42.774,96.14,42.985,95.691Z"/><path class="cls-2" d="M46.477,88.836c.239-.434.5-.846.746-1.276l-14.8-8.135L31,82.014l14.8,8.135C46.033,89.714,46.239,89.271,46.477,88.836Z"/><path class="cls-2" d="M50.394,82.214c.265-.418.554-.813.824-1.227L36.96,71.939l-1.583,2.5,14.257,9.048C49.894,83.062,50.128,82.633,50.394,82.214Z"/><path class="cls-2" d="M54.718,75.851c.291-.4.6-.776.9-1.173L41.956,64.752l-1.737,2.391,13.662,9.926C54.167,76.666,54.427,76.252,54.718,75.851Z"/><path class="cls-2" d="M59.434,69.772c.315-.382.651-.737.971-1.114L47.394,57.894,45.51,60.171,58.521,70.935C58.832,70.55,59.118,70.154,59.434,69.772Z"/><path class="cls-2" d="M64.522,64c.339-.361.7-.7,1.039-1.051L53.251,51.39l-2.023,2.155L63.537,65.1C63.872,64.74,64.182,64.362,64.522,64Z"/><path class="cls-2" d="M69.962,58.561c.361-.339.738-.649,1.1-.984l-11.56-12.31L57.351,47.29,68.91,59.6C69.267,59.258,69.6,58.9,69.962,58.561Z"/><path class="cls-2" d="M75.733,53.473c.381-.316.778-.6,1.162-.912L66.131,39.55l-2.277,1.883L74.618,54.444C75,54.125,75.35,53.789,75.733,53.473Z"/><path class="cls-2" d="M81.811,48.758c.4-.291.815-.552,1.218-.838L73.1,34.259,70.713,36l9.926,13.661C81.035,49.362,81.411,49.049,81.811,48.758Z"/><path class="cls-2" d="M88.175,44.434c.418-.266.847-.5,1.268-.76L80.394,29.416,77.9,31l9.048,14.257C87.362,44.988,87.756,44.7,88.175,44.434Z"/><path class="cls-2" d="M94.8,40.517c.434-.239.877-.445,1.313-.678l-8.135-14.8-2.59,1.424,8.135,14.8C93.951,41.02,94.362,40.756,94.8,40.517Z"/><path class="cls-2" d="M101.652,37.024c.448-.21.9-.389,1.353-.594l-7.19-15.28-2.674,1.259,7.19,15.279C100.776,37.473,101.2,37.235,101.652,37.024Z"/><path class="cls-2" d="M108.712,33.969c.461-.182.927-.332,1.388-.509l-6.216-15.7-2.748,1.088,6.217,15.7C107.81,34.361,108.251,34.151,108.712,33.969Z"/><path class="cls-2" d="M115.951,31.363c.471-.153.945-.273,1.417-.42l-5.218-16.06-2.811.913,5.219,16.06C115.026,31.7,115.48,31.516,115.951,31.363Z"/><path class="cls-2" d="M123.339,29.216c.48-.123.96-.212,1.44-.33l-4.2-16.356-2.863.735,4.2,16.356C122.4,29.492,122.859,29.34,123.339,29.216Z"/><path class="cls-2" d="M130.847,27.538c.487-.093.972-.152,1.459-.239l-3.165-16.588-2.9.554L129.4,27.852C129.887,27.754,130.36,27.631,130.847,27.538Z"/><path class="cls-2" d="M138.446,26.335c.491-.062.98-.091,1.47-.148L137.8,9.434l-2.932.37,2.117,16.754C137.474,26.49,137.954,26.4,138.446,26.335Z"/><path class="cls-2" d="M146.1,25.611c.5-.032.984-.03,1.477-.055L146.522,8.7l-2.95.185,1.061,16.853C145.126,25.705,145.611,25.642,146.1,25.611Z"/><path class="cls-3" d="M116.166,112.96c-8.015,0-12.323,3.805-12.323,16.027a2.372,2.372,0,0,0,2.506,2.7h2.4c1.5,0,2.1-1.2,2-3.306-.3-4.908.4-9.115,5.108-9.115,3.805,0,5.71,2.5,5.71,9.917,0,13.924-10.719,25.443-17.229,41.169a7.81,7.81,0,0,0-.6,3.205v2.4a1.737,1.737,0,0,0,1.806,1.8h20.634a1.841,1.841,0,0,0,1.9-1.9V173.26a1.841,1.841,0,0,0-1.9-1.9H111.058c5.508-14.125,17.727-26.946,17.727-41.169C128.785,117.969,124.279,112.96,116.166,112.96Z"/><path class="cls-3" d="M146.925,136.1a8.4,8.4,0,0,0-5.211,1.9v-18.03h13.625a1.84,1.84,0,0,0,1.9-1.9v-2.6a1.841,1.841,0,0,0-1.9-1.905H136.606a1.845,1.845,0,0,0-1.905,1.905V148.72a2.2,2.2,0,0,0,2.408,2.4h1.7c1.4,0,1.8-1.1,1.8-3.006,0-3.2,1.4-6.009,4.807-6.009,3.706,0,5.512,2.6,5.512,15.124,0,12.622-2.3,14.927-5.611,14.927-5.611,0-5.009-6.11-4.807-9.216.1-2.1-.5-3.3-2-3.3h-2.4a2.373,2.373,0,0,0-2.506,2.7c0,10.317,2.6,16.027,12.021,16.027,8.815,0,12.121-6.512,12.121-21.138S154.639,136.1,146.925,136.1Z"/><path class="cls-3" d="M181.189,128.286c0-10.418-3.1-15.728-9.916-15.728-6.612,0-9.919,5.31-9.919,15.728,0,10.317,3.307,15.726,9.919,15.726C178.084,144.012,181.189,138.6,181.189,128.286Zm-13.923,0c0-6.813.8-10.317,4.007-10.317,3.307,0,4.008,3.5,4.008,10.317,0,6.71-.7,10.317-4.008,10.317C168.066,138.6,167.266,135,167.266,128.286Z"/><path class="cls-3" d="M193.812,147.316c-6.612,0-9.919,5.31-9.919,15.729,0,10.316,3.307,15.726,9.919,15.726,6.811,0,9.915-5.41,9.915-15.726C203.727,152.626,200.623,147.316,193.812,147.316Zm0,26.045c-3.207,0-4.007-3.6-4.007-10.316,0-6.813.8-10.318,4.007-10.318,3.3,0,4.008,3.5,4.008,10.318C197.82,169.756,197.115,173.361,193.812,173.361Z"/><path class="cls-3" d="M198.219,113.56h-2a2.888,2.888,0,0,0-2.507,1.905l-28.145,60.4c-.5,1.1.2,1.9,1.3,1.9h2a2.884,2.884,0,0,0,2.5-1.9l28.149-60.4C200.021,114.362,199.32,113.56,198.219,113.56Z"/></svg>