<svg id="Layer_1" data-name="Layer 1" xmlns="http://www.w3.org/2000/svg" viewBox="0 0 300 300"><defs><style>.cls-1{fill:#f21b16;}.cls-2{fill:#e6e6e6;}.cls-3{fill:#5e5e5e;}</style></defs><path class="cls-1" d="M293.366,158.144l-16.846-1.236c.223-3,.334-6.05.334-9.074A122.566,122.566,0,0,0,154.427,25.407l-1.41.008-.14-16.887,1.55-.008c76.818,0,139.314,62.5,139.314,139.314C293.741,151.268,293.613,154.737,293.366,158.144Z"/><path class="cls-2" d="M275.925,163.183c-.062.492-.156.972-.223,1.462l16.753,2.116.371-2.932-16.754-2.116C276.016,162.2,275.987,162.692,275.925,163.183Z"/><path class="cls-2" d="M274.721,170.782c-.093.487-.216.96-.314,1.444l16.587,3.165.554-2.9-16.587-3.165C274.874,169.81,274.814,170.3,274.721,170.782Z"/><path class="cls-2" d="M273.043,178.29c-.123.48-.276.944-.4,1.422l16.355,4.2.735-2.863-16.355-4.2C273.256,177.33,273.166,177.81,273.043,178.29Z"/><path class="cls-2" d="M270.9,185.678c-.152.472-.334.925-.492,1.394l16.06,5.218.913-2.81-16.06-5.219C271.17,184.733,271.05,185.207,270.9,185.678Z"/><path class="cls-2" d="M268.29,192.917c-.182.461-.392.9-.579,1.36l15.7,6.216,1.088-2.748-15.7-6.216C268.622,191.991,268.473,192.456,268.29,192.917Z"/><path class="cls-2" d="M265.235,199.977c-.211.449-.448.876-.663,1.321l15.279,7.19,1.258-2.674-15.279-7.19C265.624,199.074,265.446,199.529,265.235,199.977Z"/><path class="cls-2" d="M261.742,206.833c-.238.434-.5.846-.745,1.276l14.8,8.135,1.424-2.589-14.8-8.136C262.188,205.955,261.981,206.4,261.742,206.833Z"/><path class="cls-2" d="M257.826,213.455c-.266.418-.555.812-.824,1.227l14.258,9.048,1.583-2.495-14.257-9.049C258.325,212.607,258.091,213.036,257.826,213.455Z"/><path class="cls-2" d="M253.5,219.818c-.292.4-.6.776-.9,1.173l13.662,9.926L268,228.525,254.339,218.6C254.053,219,253.793,219.417,253.5,219.818Z"/><path class="cls-2" d="M248.786,225.9c-.316.382-.652.737-.971,1.114l13.012,10.764,1.883-2.277L249.7,224.734C249.388,225.118,249.1,225.515,248.786,225.9Z"/><path class="cls-2" d="M243.7,231.668c-.34.361-.7.694-1.04,1.051l12.31,11.559,2.023-2.154-12.31-11.56C244.348,230.929,244.038,231.306,243.7,231.668Z"/><path class="cls-2" d="M238.259,237.108c-.362.339-.74.649-1.1.984l11.56,12.309,2.154-2.023-11.56-12.309C238.953,236.411,238.619,236.769,238.259,237.108Z"/><path class="cls-2" d="M232.488,242.2c-.383.316-.779.6-1.164.913l10.764,13.011,2.278-1.883L233.6,241.224C233.224,241.544,232.869,241.88,232.488,242.2Z"/><path class="cls-2" d="M226.408,246.911c-.4.291-.814.551-1.218.838l9.926,13.661,2.391-1.737-9.926-13.661C227.185,246.306,226.809,246.62,226.408,246.911Z"/><path class="cls-2" d="M220.045,251.235c-.418.266-.848.5-1.268.76l9.049,14.257,2.5-1.583-9.049-14.257C220.858,250.681,220.464,250.97,220.045,251.235Z"/><path class="cls-2" d="M213.423,255.152c-.434.238-.877.445-1.313.678l8.135,14.8,2.59-1.424-8.135-14.8C214.269,254.649,213.857,254.913,213.423,255.152Z"/><path class="cls-2" d="M206.568,258.644c-.448.211-.9.389-1.353.595l7.19,15.279,2.674-1.258-7.19-15.279C207.444,258.2,207.017,258.433,206.568,258.644Z"/><path class="cls-2" d="M199.507,261.7c-.46.182-.926.332-1.387.508l6.216,15.7,2.747-1.088-6.215-15.7C200.41,261.308,199.968,261.517,199.507,261.7Z"/><path class="cls-2" d="M192.269,264.306c-.472.153-.945.273-1.417.42l5.218,16.06,2.81-.913-5.218-16.06C193.194,263.971,192.74,264.153,192.269,264.306Z"/><path class="cls-2" d="M184.881,266.452c-.48.123-.961.213-1.441.331l4.2,16.356,2.862-.735-4.2-16.356C185.825,266.176,185.361,266.329,184.881,266.452Z"/><path class="cls-2" d="M177.373,268.131c-.487.092-.972.152-1.459.239l3.164,16.587,2.9-.553-3.164-16.588C178.332,267.914,177.86,268.038,177.373,268.131Z"/><path class="cls-2" d="M169.774,269.334c-.492.062-.979.091-1.471.148l2.117,16.753,2.932-.371-2.117-16.753C170.745,269.178,170.266,269.272,169.774,269.334Z"/><path class="cls-2" d="M162.115,270.058c-.5.031-.984.029-1.477.055l1.06,16.853,2.949-.185-1.06-16.854C163.094,269.964,162.61,270.027,162.115,270.058Z"/><path class="cls-2" d="M154.425,270.3c-.5,0-.983-.033-1.478-.038v16.886H155.9V270.262C155.408,270.267,154.921,270.3,154.425,270.3Z"/><path class="cls-2" d="M146.735,270.058c-.494-.031-.979-.094-1.472-.131l-1.06,16.854,2.949.185,1.06-16.853C147.719,270.087,147.23,270.089,146.735,270.058Z"/><path class="cls-2" d="M139.076,269.334c-.491-.062-.971-.156-1.461-.223L135.5,285.864l2.931.371,2.117-16.753C140.056,269.425,139.568,269.4,139.076,269.334Z"/><path class="cls-2" d="M131.477,268.131c-.486-.093-.96-.217-1.444-.315L126.869,284.4l2.9.553,3.165-16.587C132.449,268.283,131.964,268.223,131.477,268.131Z"/><path class="cls-2" d="M123.969,266.452c-.48-.123-.944-.276-1.422-.4l-4.2,16.356,2.862.735,4.2-16.356C124.93,266.665,124.449,266.575,123.969,266.452Z"/><path class="cls-2" d="M116.581,264.306c-.471-.153-.925-.335-1.393-.493l-5.218,16.06,2.81.913L118,264.726C117.526,264.579,117.053,264.459,116.581,264.306Z"/><path class="cls-2" d="M109.343,261.7c-.461-.183-.9-.392-1.36-.579l-6.217,15.7,2.748,1.088,6.216-15.7C110.269,262.032,109.8,261.882,109.343,261.7Z"/><path class="cls-2" d="M102.282,258.644c-.448-.211-.876-.448-1.321-.663l-7.19,15.279,2.674,1.258,7.19-15.279C103.185,259.033,102.73,258.855,102.282,258.644Z"/><path class="cls-2" d="M95.427,255.152c-.435-.239-.846-.5-1.276-.745l-8.136,14.8,2.59,1.424,8.135-14.8C96.3,255.6,95.861,255.39,95.427,255.152Z"/><path class="cls-2" d="M88.805,251.235c-.419-.265-.813-.554-1.227-.823l-9.049,14.257,2.5,1.583L90.073,252C89.652,251.735,89.223,251.5,88.805,251.235Z"/><path class="cls-2" d="M82.442,246.911c-.4-.291-.777-.6-1.173-.9l-9.926,13.661,2.391,1.737,9.925-13.661C83.256,247.462,82.843,247.2,82.442,246.911Z"/><path class="cls-2" d="M76.363,242.2c-.382-.315-.737-.651-1.115-.971L64.484,254.236l2.278,1.883,10.763-13.011C77.141,242.8,76.744,242.511,76.363,242.2Z"/><path class="cls-2" d="M70.592,237.108c-.362-.339-.695-.7-1.051-1.039l-11.56,12.309,2.154,2.023,11.56-12.309C71.331,237.757,70.953,237.447,70.592,237.108Z"/><path class="cls-2" d="M65.152,231.668c-.34-.362-.65-.739-.984-1.1l-12.31,11.56,2.023,2.154,12.31-11.559C65.848,232.362,65.491,232.029,65.152,231.668Z"/><path class="cls-2" d="M60.064,225.9c-.316-.382-.6-.779-.913-1.163L46.14,235.5l1.884,2.277,13.011-10.764C60.716,226.634,60.38,226.279,60.064,225.9Z"/><path class="cls-2" d="M55.348,219.818c-.291-.4-.551-.815-.837-1.218l-13.662,9.925,1.737,2.392,13.662-9.926C55.953,220.594,55.64,220.218,55.348,219.818Z"/><path class="cls-2" d="M51.024,213.455c-.265-.419-.5-.848-.759-1.269l-14.258,9.049,1.583,2.495,14.258-9.048C51.578,214.267,51.29,213.873,51.024,213.455Z"/><path class="cls-2" d="M47.108,206.833c-.239-.435-.445-.878-.679-1.314l-14.8,8.136,1.423,2.589,14.8-8.135C47.61,207.679,47.347,207.267,47.108,206.833Z"/><path class="cls-2" d="M43.615,199.977c-.211-.448-.389-.9-.595-1.353l-15.279,7.19L29,208.488l15.28-7.19C44.063,200.853,43.826,200.426,43.615,199.977Z"/><path class="cls-2" d="M40.56,192.917c-.183-.461-.332-.926-.509-1.388l-15.7,6.216,1.088,2.748,15.7-6.216C40.952,193.819,40.742,193.378,40.56,192.917Z"/><path class="cls-2" d="M37.954,185.678c-.154-.471-.273-.945-.421-1.417l-16.06,5.219.913,2.81,16.06-5.218C38.288,186.6,38.107,186.15,37.954,185.678Z"/><path class="cls-2" d="M35.807,178.29c-.123-.48-.213-.96-.33-1.44l-16.356,4.2.734,2.863,16.356-4.2C36.083,179.234,35.931,178.77,35.807,178.29Z"/><path class="cls-2" d="M34.129,170.782c-.093-.487-.152-.972-.24-1.459L17.3,172.488l.554,2.9,16.587-3.165C34.345,171.742,34.222,171.269,34.129,170.782Z"/><path class="cls-2" d="M32.925,163.183c-.062-.491-.091-.979-.147-1.47l-16.753,2.116.37,2.932,16.754-2.116C33.081,164.155,32.988,163.675,32.925,163.183Z"/><path class="cls-2" d="M32.2,155.524c-.031-.5-.029-.984-.054-1.477l-16.853,1.06.185,2.95L32.332,157C32.3,156.5,32.232,156.018,32.2,155.524Z"/><path class="cls-2" d="M31.96,147.834c0-.5.032-.983.038-1.477H15.111v2.955H32C31.992,148.818,31.96,148.33,31.96,147.834Z"/><path class="cls-2" d="M32.2,140.145c.031-.5.095-.98.131-1.472l-16.853-1.061-.185,2.949,16.853,1.061C32.172,141.128,32.17,140.639,32.2,140.145Z"/><path class="cls-2" d="M32.925,132.485c.063-.491.156-.971.224-1.461L16.4,128.908l-.37,2.931,16.753,2.117C32.834,133.465,32.863,132.977,32.925,132.485Z"/><path class="cls-2" d="M34.129,124.886c.093-.486.216-.959.314-1.444l-16.587-3.164-.554,2.9,16.587,3.164C33.977,125.859,34.036,125.374,34.129,124.886Z"/><path class="cls-2" d="M35.807,117.378c.124-.48.276-.944.4-1.421l-16.356-4.2-.734,2.862,16.356,4.2C35.594,118.339,35.684,117.858,35.807,117.378Z"/><path class="cls-2" d="M37.954,109.99c.153-.471.334-.925.492-1.393l-16.06-5.218-.913,2.81,16.06,5.219C37.681,110.936,37.8,110.462,37.954,109.99Z"/><path class="cls-2" d="M40.56,102.752c.182-.461.392-.9.579-1.36l-15.7-6.216L24.35,97.923l15.7,6.217C40.228,103.678,40.377,103.213,40.56,102.752Z"/><path class="cls-2" d="M43.615,95.691c.211-.448.448-.876.664-1.321L29,87.181l-1.258,2.674L43.02,97.044C43.226,96.6,43.4,96.14,43.615,95.691Z"/><path class="cls-2" d="M47.108,88.836c.239-.434.5-.846.745-1.276l-14.8-8.135-1.423,2.589,14.8,8.135C46.663,89.714,46.869,89.271,47.108,88.836Z"/><path class="cls-2" d="M51.024,82.214c.266-.418.554-.813.824-1.227L37.59,71.939l-1.583,2.5,14.258,9.048C50.525,83.062,50.759,82.633,51.024,82.214Z"/><path class="cls-2" d="M55.348,75.851c.292-.4.605-.776.9-1.173L42.586,64.752l-1.737,2.391,13.662,9.926C54.8,76.666,55.057,76.252,55.348,75.851Z"/><path class="cls-2" d="M60.064,69.772c.316-.382.652-.737.971-1.114L48.024,57.894,46.14,60.171,59.151,70.935C59.462,70.55,59.748,70.154,60.064,69.772Z"/><path class="cls-2" d="M65.152,64c.339-.361.7-.7,1.039-1.051L53.881,51.39l-2.023,2.155L64.168,65.1C64.5,64.74,64.812,64.362,65.152,64Z"/><path class="cls-2" d="M70.592,58.561c.361-.339.739-.649,1.1-.984l-11.56-12.31L57.981,47.29,69.541,59.6C69.9,59.258,70.23,58.9,70.592,58.561Z"/><path class="cls-2" d="M76.363,53.473c.381-.316.778-.6,1.162-.912L66.762,39.55l-2.278,1.883L75.248,54.444C75.626,54.125,75.981,53.789,76.363,53.473Z"/><path class="cls-2" d="M82.442,48.758c.4-.291.814-.552,1.217-.838L73.734,34.259,71.343,36l9.926,13.661C81.665,49.362,82.041,49.049,82.442,48.758Z"/><path class="cls-2" d="M88.805,44.434c.418-.266.847-.5,1.268-.76L81.024,29.416,78.529,31l9.049,14.257C87.992,44.988,88.386,44.7,88.805,44.434Z"/><path class="cls-2" d="M95.427,40.517c.434-.239.877-.445,1.313-.678l-8.135-14.8-2.59,1.424,8.136,14.8C94.581,41.02,94.992,40.756,95.427,40.517Z"/><path class="cls-2" d="M102.282,37.024c.448-.21.9-.389,1.353-.594l-7.19-15.28-2.674,1.259,7.19,15.279C101.406,37.473,101.834,37.235,102.282,37.024Z"/><path class="cls-2" d="M109.343,33.969c.46-.182.926-.332,1.387-.509l-6.216-15.7-2.748,1.088,6.217,15.7C108.44,34.361,108.882,34.151,109.343,33.969Z"/><path class="cls-2" d="M116.581,31.363c.472-.153.945-.273,1.417-.42l-5.218-16.06-2.81.913,5.218,16.06C115.656,31.7,116.11,31.516,116.581,31.363Z"/><path class="cls-2" d="M123.969,29.216c.48-.123.961-.212,1.441-.33l-4.2-16.356-2.862.735,4.2,16.356C123.025,29.492,123.489,29.34,123.969,29.216Z"/><path class="cls-2" d="M131.477,27.538c.487-.093.972-.152,1.459-.239l-3.165-16.588-2.9.554,3.164,16.587C130.517,27.754,130.991,27.631,131.477,27.538Z"/><path class="cls-2" d="M139.076,26.335c.492-.062.98-.091,1.471-.148L138.43,9.434,135.5,9.8l2.116,16.754C138.1,26.49,138.585,26.4,139.076,26.335Z"/><path class="cls-2" d="M146.735,25.611c.495-.032.984-.03,1.477-.055L147.152,8.7l-2.949.185,1.06,16.853C145.756,25.705,146.241,25.642,146.735,25.611Z"/><path class="cls-3" d="M116.251,112.96c-8.014,0-12.323,3.805-12.323,16.027a2.372,2.372,0,0,0,2.507,2.7h2.4c1.5,0,2.1-1.2,2-3.306-.3-4.908.4-9.115,5.108-9.115,3.8,0,5.71,2.5,5.71,9.917,0,13.924-10.719,25.443-17.229,41.169a7.808,7.808,0,0,0-.6,3.205v2.4a1.736,1.736,0,0,0,1.805,1.8h20.634a1.841,1.841,0,0,0,1.9-1.9V173.26a1.841,1.841,0,0,0-1.9-1.9H111.143c5.508-14.125,17.728-26.946,17.728-41.169C128.871,117.969,124.364,112.96,116.251,112.96Z"/><path class="cls-3" d="M147.711,139.7c-2.507,0-5.71,1.2-7.111,3.908,0-17.329.7-24.342,6.411-24.342,4.205,0,5.107,4.207,4.806,9.115-.1,2.105.5,3.306,2,3.306h2.3a2.37,2.37,0,0,0,2.5-2.7c0-12.222-4.308-16.027-11.617-16.027-12.925,0-13.325,13.222-13.325,37.263,0,20.234,2.906,28.148,13.024,28.148,7.812,0,12.619-4.91,12.619-19.334S154.922,139.7,147.711,139.7Zm-1,32.656c-3.105,0-6.011-1.7-6.011-13.323s2.906-13.322,6.011-13.322,5.408,1.7,5.408,13.322S149.814,172.36,146.71,172.36Z"/><path class="cls-3" d="M182.375,128.286c0-10.418-3.1-15.728-9.915-15.728-6.613,0-9.919,5.31-9.919,15.728,0,10.317,3.306,15.726,9.919,15.726C179.271,144.012,182.375,138.6,182.375,128.286Zm-13.922,0c0-6.813.8-10.317,4.007-10.317,3.306,0,4.007,3.5,4.007,10.317,0,6.71-.7,10.317-4.007,10.317C169.252,138.6,168.453,135,168.453,128.286Z"/><path class="cls-3" d="M195,147.316c-6.613,0-9.92,5.31-9.92,15.729,0,10.316,3.307,15.726,9.92,15.726,6.81,0,9.915-5.41,9.915-15.726C204.914,152.626,201.809,147.316,195,147.316Zm0,26.045c-3.208,0-4.008-3.6-4.008-10.316,0-6.813.8-10.318,4.008-10.318,3.3,0,4.007,3.5,4.007,10.318C199.006,169.756,198.3,173.361,195,173.361Z"/><path class="cls-3" d="M199.406,113.56h-2a2.893,2.893,0,0,0-2.507,1.905l-28.145,60.4c-.5,1.1.2,1.9,1.3,1.9h2a2.884,2.884,0,0,0,2.5-1.9l28.149-60.4C201.207,114.362,200.506,113.56,199.406,113.56Z"/></svg>