<svg id="Layer_1" data-name="Layer 1" xmlns="http://www.w3.org/2000/svg" viewBox="0 0 300 300"><defs><style>.cls-1{fill:#f21b16;}.cls-2{fill:#e6e6e6;}.cls-3{fill:#5e5e5e;}</style></defs><path class="cls-1" d="M293.08,166.85l-16.73-2.292a123.978,123.978,0,0,0,1.134-16.724A122.566,122.566,0,0,0,155.057,25.407l-1.4.008-.14-16.887,1.538-.008c76.818,0,139.313,62.5,139.313,139.314A140.386,140.386,0,0,1,293.08,166.85Z"/><path class="cls-2" d="M275.351,170.782c-.093.487-.216.96-.314,1.444l16.588,3.165.553-2.9-16.587-3.165C275.5,169.81,275.444,170.3,275.351,170.782Z"/><path class="cls-2" d="M273.673,178.29c-.123.48-.276.944-.4,1.422l16.356,4.2.734-2.863L274,176.85C273.886,177.33,273.8,177.81,273.673,178.29Z"/><path class="cls-2" d="M271.527,185.678c-.153.472-.335.925-.493,1.394l16.06,5.218.913-2.81-16.06-5.219C271.8,184.733,271.68,185.207,271.527,185.678Z"/><path class="cls-2" d="M268.921,192.917c-.183.461-.393.9-.58,1.36l15.7,6.216,1.088-2.748-15.7-6.216C269.252,191.991,269.1,192.456,268.921,192.917Z"/><path class="cls-2" d="M265.865,199.977c-.211.449-.448.876-.664,1.321l15.28,7.19,1.258-2.674-15.279-7.19C266.254,199.074,266.076,199.529,265.865,199.977Z"/><path class="cls-2" d="M262.373,206.833c-.239.434-.5.846-.746,1.276l14.8,8.135,1.424-2.589-14.8-8.136C262.818,205.955,262.611,206.4,262.373,206.833Z"/><path class="cls-2" d="M258.456,213.455c-.265.418-.554.812-.824,1.227l14.258,9.048,1.583-2.495-14.257-9.049C258.956,212.607,258.722,213.036,258.456,213.455Z"/><path class="cls-2" d="M254.132,219.818c-.292.4-.605.776-.9,1.173l13.662,9.926,1.737-2.392L254.97,218.6C254.683,219,254.423,219.417,254.132,219.818Z"/><path class="cls-2" d="M249.416,225.9c-.315.382-.651.737-.971,1.114l13.011,10.764,1.884-2.277-13.011-10.764C250.018,225.118,249.732,225.515,249.416,225.9Z"/><path class="cls-2" d="M244.328,231.668c-.339.361-.7.694-1.038,1.051L255.6,244.278l2.023-2.154-12.31-11.56C244.978,230.929,244.668,231.306,244.328,231.668Z"/><path class="cls-2" d="M238.888,237.108c-.361.339-.739.649-1.1.984l11.56,12.309,2.154-2.023L239.94,236.069C239.583,236.411,239.25,236.769,238.888,237.108Z"/><path class="cls-2" d="M233.118,242.2c-.383.316-.779.6-1.163.913l10.764,13.011L245,254.236l-10.763-13.012C233.855,241.544,233.5,241.88,233.118,242.2Z"/><path class="cls-2" d="M227.038,246.911c-.4.291-.814.551-1.217.838l9.925,13.661,2.391-1.737-9.925-13.661C227.815,246.306,227.439,246.62,227.038,246.911Z"/><path class="cls-2" d="M220.676,251.235c-.419.266-.848.5-1.269.76l9.049,14.257,2.5-1.583L221.9,250.412C221.488,250.681,221.094,250.97,220.676,251.235Z"/><path class="cls-2" d="M214.053,255.152c-.434.238-.877.445-1.313.678l8.135,14.8,2.59-1.424-8.135-14.8C214.9,254.649,214.487,254.913,214.053,255.152Z"/><path class="cls-2" d="M207.2,258.644c-.448.211-.9.389-1.353.595l7.19,15.279,2.674-1.258-7.19-15.279C208.074,258.2,207.647,258.433,207.2,258.644Z"/><path class="cls-2" d="M200.138,261.7c-.461.182-.927.332-1.388.508l6.216,15.7,2.748-1.088-6.216-15.7C201.04,261.308,200.6,261.517,200.138,261.7Z"/><path class="cls-2" d="M192.9,264.306c-.471.153-.945.273-1.417.42l5.218,16.06,2.811-.913-5.219-16.06C193.824,263.971,193.37,264.153,192.9,264.306Z"/><path class="cls-2" d="M185.511,266.452c-.48.123-.96.213-1.44.331l4.2,16.356,2.862-.735-4.2-16.356C186.455,266.176,185.991,266.329,185.511,266.452Z"/><path class="cls-2" d="M178,268.131c-.487.092-.972.152-1.459.239l3.164,16.587,2.9-.553-3.164-16.588C178.963,267.914,178.49,268.038,178,268.131Z"/><path class="cls-2" d="M170.4,269.334c-.491.062-.98.091-1.471.148l2.117,16.753,2.932-.371-2.117-16.753C171.376,269.178,170.9,269.272,170.4,269.334Z"/><path class="cls-2" d="M162.745,270.058c-.5.031-.984.029-1.477.055l1.06,16.853,2.949-.185-1.06-16.854C163.724,269.964,163.239,270.027,162.745,270.058Z"/><path class="cls-2" d="M155.055,270.3c-.5,0-.983-.033-1.477-.038v16.886h2.955V270.262C156.038,270.267,155.551,270.3,155.055,270.3Z"/><path class="cls-2" d="M147.366,270.058c-.5-.031-.98-.094-1.473-.131l-1.06,16.854,2.949.185,1.06-16.853C148.349,270.087,147.86,270.089,147.366,270.058Z"/><path class="cls-2" d="M139.706,269.334c-.492-.062-.972-.156-1.461-.223l-2.117,16.753,2.932.371,2.117-16.753C140.686,269.425,140.2,269.4,139.706,269.334Z"/><path class="cls-2" d="M132.107,268.131c-.486-.093-.959-.217-1.444-.315L127.5,284.4l2.9.553,3.164-16.587C133.08,268.283,132.594,268.223,132.107,268.131Z"/><path class="cls-2" d="M124.6,266.452c-.48-.123-.944-.276-1.422-.4l-4.2,16.356,2.862.735,4.2-16.356C125.56,266.665,125.079,266.575,124.6,266.452Z"/><path class="cls-2" d="M117.211,264.306c-.471-.153-.925-.335-1.393-.493l-5.219,16.06,2.811.913,5.218-16.06C118.157,264.579,117.683,264.459,117.211,264.306Z"/><path class="cls-2" d="M109.972,261.7c-.46-.183-.9-.392-1.359-.579l-6.217,15.7,2.748,1.088,6.217-15.7C110.9,262.032,110.433,261.882,109.972,261.7Z"/><path class="cls-2" d="M102.912,258.644c-.448-.211-.876-.448-1.321-.663L94.4,273.26l2.674,1.258,7.19-15.279C103.816,259.033,103.36,258.855,102.912,258.644Z"/><path class="cls-2" d="M96.057,255.152c-.434-.239-.846-.5-1.277-.745l-8.135,14.8,2.59,1.424,8.135-14.8C96.934,255.6,96.491,255.39,96.057,255.152Z"/><path class="cls-2" d="M89.435,251.235c-.419-.265-.813-.554-1.227-.823L79.16,264.669l2.5,1.583L90.7,252C90.282,251.735,89.854,251.5,89.435,251.235Z"/><path class="cls-2" d="M83.072,246.911c-.4-.291-.777-.6-1.173-.9l-9.926,13.661,2.391,1.737,9.925-13.661C83.887,247.462,83.473,247.2,83.072,246.911Z"/><path class="cls-2" d="M76.993,242.2c-.382-.315-.737-.651-1.114-.971L65.115,254.236l2.276,1.883,10.764-13.011C77.771,242.8,77.375,242.511,76.993,242.2Z"/><path class="cls-2" d="M71.222,237.108c-.362-.339-.695-.7-1.051-1.039l-11.56,12.309,2.154,2.023,11.56-12.309C71.961,237.757,71.583,237.447,71.222,237.108Z"/><path class="cls-2" d="M65.782,231.668c-.34-.362-.65-.739-.984-1.1l-12.31,11.56,2.023,2.154,12.31-11.559C66.479,232.362,66.121,232.029,65.782,231.668Z"/><path class="cls-2" d="M60.694,225.9c-.316-.382-.6-.779-.913-1.163L46.77,235.5l1.884,2.277,13.011-10.764C61.346,226.634,61.01,226.279,60.694,225.9Z"/><path class="cls-2" d="M55.979,219.818c-.292-.4-.552-.815-.838-1.218l-13.662,9.925,1.737,2.392,13.662-9.926C56.583,220.594,56.27,220.218,55.979,219.818Z"/><path class="cls-2" d="M51.654,213.455c-.266-.419-.5-.848-.759-1.269l-14.258,9.049,1.583,2.495,14.258-9.048C52.209,214.267,51.92,213.873,51.654,213.455Z"/><path class="cls-2" d="M47.738,206.833c-.239-.435-.445-.878-.679-1.314l-14.8,8.136,1.423,2.589,14.8-8.135C48.24,207.679,47.977,207.267,47.738,206.833Z"/><path class="cls-2" d="M44.245,199.977c-.211-.448-.389-.9-.595-1.353l-15.279,7.19,1.258,2.674,15.28-7.19C44.693,200.853,44.456,200.426,44.245,199.977Z"/><path class="cls-2" d="M41.19,192.917c-.183-.461-.332-.926-.509-1.388l-15.7,6.216,1.088,2.748,15.7-6.216C41.582,193.819,41.372,193.378,41.19,192.917Z"/><path class="cls-2" d="M38.583,185.678c-.152-.471-.272-.945-.42-1.417L22.1,189.48l.913,2.81,16.061-5.218C38.919,186.6,38.737,186.15,38.583,185.678Z"/><path class="cls-2" d="M36.437,178.29c-.123-.48-.213-.96-.33-1.44l-16.356,4.2.735,2.863,16.356-4.2C36.713,179.234,36.56,178.77,36.437,178.29Z"/><path class="cls-2" d="M34.759,170.782c-.093-.487-.152-.972-.24-1.459l-16.587,3.165.554,2.9,16.587-3.165C34.975,171.742,34.852,171.269,34.759,170.782Z"/><path class="cls-2" d="M33.555,163.183c-.062-.491-.091-.979-.147-1.47l-16.753,2.116.37,2.932,16.753-2.116C33.711,164.155,33.618,163.675,33.555,163.183Z"/><path class="cls-2" d="M32.831,155.524c-.031-.5-.029-.984-.054-1.477l-16.854,1.06.186,2.95L32.962,157C32.926,156.5,32.863,156.018,32.831,155.524Z"/><path class="cls-2" d="M32.59,147.834c0-.5.032-.983.038-1.477H15.741v2.955H32.628C32.622,148.818,32.59,148.33,32.59,147.834Z"/><path class="cls-2" d="M32.831,140.145c.032-.5.095-.98.131-1.472l-16.853-1.061-.186,2.949,16.854,1.061C32.8,141.128,32.8,140.639,32.831,140.145Z"/><path class="cls-2" d="M33.555,132.485c.063-.491.156-.971.223-1.461l-16.753-2.116-.37,2.931,16.753,2.117C33.464,133.465,33.493,132.977,33.555,132.485Z"/><path class="cls-2" d="M34.759,124.886c.093-.486.216-.959.314-1.444l-16.587-3.164-.554,2.9,16.587,3.164C34.607,125.859,34.666,125.374,34.759,124.886Z"/><path class="cls-2" d="M36.437,117.378c.123-.48.276-.944.405-1.421l-16.356-4.2-.735,2.862,16.356,4.2C36.224,118.339,36.314,117.858,36.437,117.378Z"/><path class="cls-2" d="M38.583,109.99c.154-.471.336-.925.494-1.393l-16.061-5.218-.913,2.81,16.06,5.219C38.311,110.936,38.431,110.462,38.583,109.99Z"/><path class="cls-2" d="M41.19,102.752c.182-.461.392-.9.579-1.36l-15.7-6.216L24.98,97.923l15.7,6.217C40.858,103.678,41.007,103.213,41.19,102.752Z"/><path class="cls-2" d="M44.245,95.691c.211-.448.448-.876.664-1.321l-15.28-7.189-1.258,2.674L43.65,97.044C43.856,96.6,44.034,96.14,44.245,95.691Z"/><path class="cls-2" d="M47.738,88.836c.239-.434.5-.846.745-1.276l-14.8-8.135-1.423,2.589,14.8,8.135C47.293,89.714,47.5,89.271,47.738,88.836Z"/><path class="cls-2" d="M51.654,82.214c.266-.418.555-.813.824-1.227L38.22,71.939l-1.583,2.5L50.9,83.482C51.155,83.062,51.388,82.633,51.654,82.214Z"/><path class="cls-2" d="M55.979,75.851c.291-.4.6-.776.9-1.173L43.216,64.752l-1.737,2.391,13.662,9.926C55.427,76.666,55.687,76.252,55.979,75.851Z"/><path class="cls-2" d="M60.694,69.772c.316-.382.652-.737.971-1.114L48.654,57.894,46.77,60.171,59.781,70.935C60.092,70.55,60.378,70.154,60.694,69.772Z"/><path class="cls-2" d="M65.782,64c.339-.361.7-.7,1.039-1.051L54.511,51.39l-2.023,2.155L64.8,65.1C65.132,64.74,65.442,64.362,65.782,64Z"/><path class="cls-2" d="M71.222,58.561c.361-.339.739-.649,1.1-.984l-11.56-12.31L58.611,47.29,70.171,59.6C70.527,59.258,70.86,58.9,71.222,58.561Z"/><path class="cls-2" d="M76.993,53.473c.382-.316.778-.6,1.162-.912L67.391,39.55l-2.276,1.883L75.879,54.444C76.256,54.125,76.611,53.789,76.993,53.473Z"/><path class="cls-2" d="M83.072,48.758c.4-.291.815-.552,1.217-.838L74.364,34.259,71.973,36,81.9,49.657C82.3,49.362,82.671,49.049,83.072,48.758Z"/><path class="cls-2" d="M89.435,44.434c.419-.266.847-.5,1.268-.76L81.655,29.416,79.16,31l9.048,14.257C88.622,44.988,89.016,44.7,89.435,44.434Z"/><path class="cls-2" d="M96.057,40.517c.434-.239.877-.445,1.313-.678l-8.135-14.8-2.59,1.424,8.135,14.8C95.211,41.02,95.623,40.756,96.057,40.517Z"/><path class="cls-2" d="M102.912,37.024c.448-.21.9-.389,1.353-.594l-7.19-15.28L94.4,22.409l7.19,15.279C102.036,37.473,102.464,37.235,102.912,37.024Z"/><path class="cls-2" d="M109.972,33.969c.461-.182.927-.332,1.389-.509l-6.217-15.7L102.4,18.848l6.217,15.7C109.07,34.361,109.512,34.151,109.972,33.969Z"/><path class="cls-2" d="M117.211,31.363c.472-.153.946-.273,1.417-.42l-5.218-16.06L110.6,15.8l5.219,16.06C116.286,31.7,116.74,31.516,117.211,31.363Z"/><path class="cls-2" d="M124.6,29.216c.48-.123.961-.212,1.441-.33l-4.2-16.356-2.862.735,4.2,16.356C123.655,29.492,124.119,29.34,124.6,29.216Z"/><path class="cls-2" d="M132.107,27.538c.487-.093.973-.152,1.459-.239L130.4,10.711l-2.9.554,3.164,16.587C131.148,27.754,131.621,27.631,132.107,27.538Z"/><path class="cls-2" d="M139.706,26.335c.492-.062.98-.091,1.471-.148L139.06,9.434l-2.932.37,2.117,16.754C138.734,26.49,139.214,26.4,139.706,26.335Z"/><path class="cls-2" d="M147.366,25.611c.494-.032.983-.03,1.476-.055L147.782,8.7l-2.949.185,1.06,16.853C146.386,25.705,146.871,25.642,147.366,25.611Z"/><path class="cls-3" d="M119.432,112.96c-8.014,0-12.322,3.805-12.322,16.027a2.372,2.372,0,0,0,2.507,2.7h2.4c1.5,0,2.1-1.2,2-3.306-.3-4.908.4-9.115,5.108-9.115,3.8,0,5.709,2.5,5.709,9.917,0,13.924-10.719,25.443-17.228,41.169a7.81,7.81,0,0,0-.6,3.205v2.4a1.736,1.736,0,0,0,1.8,1.8h20.639a1.841,1.841,0,0,0,1.9-1.9V173.26a1.84,1.84,0,0,0-1.9-1.9H114.325c5.507-14.125,17.727-26.946,17.727-41.169C132.052,117.969,127.546,112.96,119.432,112.96Z"/><path class="cls-3" d="M156.4,113.56H136.166a1.844,1.844,0,0,0-1.9,1.905v2.6a1.843,1.843,0,0,0,1.9,1.9h14.825L137.469,171.96a19.975,19.975,0,0,0-.8,4,1.735,1.735,0,0,0,1.8,1.8h3.306a1.952,1.952,0,0,0,2-1.7L157.6,120.973a18.216,18.216,0,0,0,.6-3.206v-2.4A1.736,1.736,0,0,0,156.4,113.56Z"/><path class="cls-3" d="M193.072,147.316c-6.613,0-9.919,5.31-9.919,15.729,0,10.316,3.306,15.726,9.919,15.726,6.811,0,9.915-5.41,9.915-15.726C202.987,152.626,199.883,147.316,193.072,147.316Zm0,26.045c-3.208,0-4.007-3.6-4.007-10.316,0-6.813.8-10.318,4.007-10.318,3.3,0,4.007,3.5,4.007,10.318C197.079,169.756,196.374,173.361,193.072,173.361Z"/><path class="cls-3" d="M197.479,113.56h-2a2.893,2.893,0,0,0-2.506,1.905l-28.146,60.4c-.5,1.1.2,1.9,1.3,1.9h2a2.884,2.884,0,0,0,2.5-1.9l28.15-60.4C199.281,114.362,198.58,113.56,197.479,113.56Z"/><path class="cls-3" d="M180.448,128.286c0-10.418-3.1-15.728-9.915-15.728-6.613,0-9.919,5.31-9.919,15.728,0,10.317,3.306,15.726,9.919,15.726C177.344,144.012,180.448,138.6,180.448,128.286Zm-13.922,0c0-6.813.8-10.317,4.007-10.317,3.306,0,4.008,3.5,4.008,10.317,0,6.71-.7,10.317-4.008,10.317C167.326,138.6,166.526,135,166.526,128.286Z"/></svg>