<svg id="Layer_1" data-name="Layer 1" xmlns="http://www.w3.org/2000/svg" viewBox="0 0 300 300"><defs><style>.cls-1{fill:#f21b16;}.cls-2{fill:#e6e6e6;}.cls-3{fill:#5e5e5e;}</style></defs><path class="cls-1" d="M292.255,175.481l-16.557-3.34A122.527,122.527,0,0,0,155.686,25.407l-1.4.008-.14-16.887,1.537-.008C232.5,8.52,295,71.016,295,147.834A140.138,140.138,0,0,1,292.255,175.481Z"/><path class="cls-2" d="M274.3,178.29c-.123.48-.276.944-.4,1.422l16.356,4.2.735-2.863-16.356-4.2C274.517,177.33,274.427,177.81,274.3,178.29Z"/><path class="cls-2" d="M272.157,185.678c-.153.472-.335.925-.493,1.394l16.06,5.218.913-2.81-16.059-5.219C272.43,184.733,272.31,185.207,272.157,185.678Z"/><path class="cls-2" d="M269.551,192.917c-.183.461-.393.9-.58,1.36l15.7,6.216,1.088-2.748-15.7-6.216C269.882,191.991,269.733,192.456,269.551,192.917Z"/><path class="cls-2" d="M266.5,199.977c-.211.449-.448.876-.663,1.321l15.279,7.19,1.259-2.674-15.28-7.19C266.885,199.074,266.706,199.529,266.5,199.977Z"/><path class="cls-2" d="M263,206.833c-.239.434-.5.846-.746,1.276l14.8,8.135,1.424-2.589-14.8-8.136C263.448,205.955,263.241,206.4,263,206.833Z"/><path class="cls-2" d="M259.086,213.455c-.265.418-.554.812-.824,1.227l14.258,9.048,1.584-2.495-14.258-9.049C259.586,212.607,259.352,213.036,259.086,213.455Z"/><path class="cls-2" d="M254.762,219.818c-.291.4-.6.776-.9,1.173l13.661,9.926,1.737-2.392L255.6,218.6C255.314,219,255.054,219.417,254.762,219.818Z"/><path class="cls-2" d="M250.047,225.9c-.316.382-.652.737-.972,1.114l13.012,10.764,1.883-2.277-13.011-10.764C250.648,225.118,250.362,225.515,250.047,225.9Z"/><path class="cls-2" d="M244.959,231.668c-.339.361-.7.694-1.039,1.051l12.309,11.559,2.023-2.154-12.31-11.56C245.608,230.929,245.3,231.306,244.959,231.668Z"/><path class="cls-2" d="M239.519,237.108c-.362.339-.739.649-1.1.984L249.975,250.4l2.155-2.023-11.56-12.309C240.213,236.411,239.88,236.769,239.519,237.108Z"/><path class="cls-2" d="M233.748,242.2c-.382.316-.779.6-1.163.913l10.764,13.011,2.277-1.883-10.764-13.012C234.485,241.544,234.13,241.88,233.748,242.2Z"/><path class="cls-2" d="M227.669,246.911c-.4.291-.815.551-1.218.838l9.926,13.661,2.39-1.737-9.925-13.661C228.445,246.306,228.07,246.62,227.669,246.911Z"/><path class="cls-2" d="M221.306,251.235c-.419.266-.848.5-1.268.76l9.048,14.257,2.495-1.583-9.048-14.257C222.118,250.681,221.724,250.97,221.306,251.235Z"/><path class="cls-2" d="M214.684,255.152c-.435.238-.878.445-1.314.678l8.135,14.8,2.59-1.424-8.135-14.8C215.53,254.649,215.118,254.913,214.684,255.152Z"/><path class="cls-2" d="M207.829,258.644c-.449.211-.9.389-1.353.595l7.19,15.279,2.673-1.258-7.19-15.279C208.705,258.2,208.277,258.433,207.829,258.644Z"/><path class="cls-2" d="M200.768,261.7c-.461.182-.926.332-1.388.508l6.216,15.7,2.748-1.088-6.216-15.7C201.67,261.308,201.229,261.517,200.768,261.7Z"/><path class="cls-2" d="M193.529,264.306c-.471.153-.945.273-1.417.42l5.219,16.06,2.81-.913-5.218-16.06C194.455,263.971,194,264.153,193.529,264.306Z"/><path class="cls-2" d="M186.141,266.452c-.48.123-.96.213-1.44.331l4.2,16.356,2.862-.735-4.2-16.356C187.086,266.176,186.621,266.329,186.141,266.452Z"/><path class="cls-2" d="M178.633,268.131c-.487.092-.972.152-1.458.239l3.164,16.587,2.9-.553-3.164-16.588C179.593,267.914,179.12,268.038,178.633,268.131Z"/><path class="cls-2" d="M171.035,269.334c-.492.062-.98.091-1.471.148l2.116,16.753,2.932-.371L172.5,269.111C172.006,269.178,171.526,269.272,171.035,269.334Z"/><path class="cls-2" d="M163.375,270.058c-.494.031-.983.029-1.477.055l1.06,16.853,2.95-.185-1.061-16.854C164.354,269.964,163.87,270.027,163.375,270.058Z"/><path class="cls-2" d="M155.686,270.3c-.5,0-.984-.033-1.478-.038v16.886h2.955V270.262C156.669,270.267,156.181,270.3,155.686,270.3Z"/><path class="cls-2" d="M148,270.058c-.5-.031-.979-.094-1.473-.131l-1.06,16.854,2.95.185,1.06-16.853C148.979,270.087,148.49,270.089,148,270.058Z"/><path class="cls-2" d="M140.337,269.334c-.492-.062-.972-.156-1.461-.223l-2.117,16.753,2.932.371,2.116-16.753C141.316,269.425,140.828,269.4,140.337,269.334Z"/><path class="cls-2" d="M132.738,268.131c-.487-.093-.96-.217-1.445-.315L128.129,284.4l2.9.553L134.2,268.37C133.71,268.283,133.224,268.223,132.738,268.131Z"/><path class="cls-2" d="M125.23,266.452c-.48-.123-.945-.276-1.422-.4l-4.2,16.356,2.863.735,4.2-16.356C126.19,266.665,125.71,266.575,125.23,266.452Z"/><path class="cls-2" d="M117.842,264.306c-.472-.153-.926-.335-1.394-.493l-5.218,16.06,2.811.913,5.217-16.06C118.787,264.579,118.313,264.459,117.842,264.306Z"/><path class="cls-2" d="M110.6,261.7c-.461-.183-.9-.392-1.36-.579l-6.216,15.7,2.748,1.088,6.216-15.7C111.529,262.032,111.064,261.882,110.6,261.7Z"/><path class="cls-2" d="M103.542,258.644c-.448-.211-.876-.448-1.32-.663l-7.19,15.279,2.673,1.258,7.19-15.279C104.446,259.033,103.991,258.855,103.542,258.644Z"/><path class="cls-2" d="M96.688,255.152c-.435-.239-.847-.5-1.277-.745l-8.135,14.8,2.589,1.424L98,255.83C97.565,255.6,97.121,255.39,96.688,255.152Z"/><path class="cls-2" d="M90.065,251.235c-.418-.265-.813-.554-1.227-.823L79.79,264.669l2.495,1.583L91.333,252C90.913,251.735,90.484,251.5,90.065,251.235Z"/><path class="cls-2" d="M83.7,246.911c-.4-.291-.776-.6-1.173-.9L72.6,259.673l2.39,1.737,9.926-13.661C84.517,247.462,84.1,247.2,83.7,246.911Z"/><path class="cls-2" d="M77.623,242.2c-.382-.315-.737-.651-1.114-.971L65.745,254.236l2.277,1.883,10.764-13.011C78.4,242.8,78.005,242.511,77.623,242.2Z"/><path class="cls-2" d="M71.852,237.108c-.361-.339-.694-.7-1.051-1.039L59.242,248.378,61.4,250.4l11.559-12.309C72.591,237.757,72.213,237.447,71.852,237.108Z"/><path class="cls-2" d="M66.412,231.668c-.339-.362-.649-.739-.984-1.1l-12.309,11.56,2.023,2.154,12.309-11.559C67.109,232.362,66.752,232.029,66.412,231.668Z"/><path class="cls-2" d="M61.324,225.9c-.316-.382-.6-.779-.912-1.163L47.4,235.5l1.884,2.277L62.3,227.011C61.976,226.634,61.64,226.279,61.324,225.9Z"/><path class="cls-2" d="M56.609,219.818c-.291-.4-.552-.815-.838-1.218L42.11,228.525l1.737,2.392,13.661-9.926C57.213,220.594,56.9,220.218,56.609,219.818Z"/><path class="cls-2" d="M52.284,213.455c-.265-.419-.5-.848-.759-1.269l-14.258,9.049,1.584,2.495,14.257-9.048C52.839,214.267,52.55,213.873,52.284,213.455Z"/><path class="cls-2" d="M48.368,206.833c-.239-.435-.445-.878-.678-1.314l-14.8,8.136,1.424,2.589,14.8-8.135C48.87,207.679,48.607,207.267,48.368,206.833Z"/><path class="cls-2" d="M44.875,199.977c-.211-.448-.389-.9-.594-1.353L29,205.814l1.259,2.674,15.279-7.19C45.324,200.853,45.087,200.426,44.875,199.977Z"/><path class="cls-2" d="M41.82,192.917c-.183-.461-.332-.926-.508-1.388l-15.7,6.216,1.088,2.748,15.7-6.216C42.212,193.819,42,193.378,41.82,192.917Z"/><path class="cls-2" d="M39.214,185.678c-.153-.471-.273-.945-.42-1.417L22.733,189.48l.914,2.81,16.06-5.218C39.549,186.6,39.367,186.15,39.214,185.678Z"/><path class="cls-2" d="M37.068,178.29c-.124-.48-.213-.96-.331-1.44l-16.356,4.2.735,2.863,16.356-4.2C37.344,179.234,37.191,178.77,37.068,178.29Z"/><path class="cls-2" d="M35.389,170.782c-.092-.487-.152-.972-.239-1.459l-16.588,3.165.554,2.9L35.7,172.226C35.606,171.742,35.482,171.269,35.389,170.782Z"/><path class="cls-2" d="M34.186,163.183c-.062-.491-.091-.979-.147-1.47l-16.754,2.116.37,2.932,16.754-2.116C34.341,164.155,34.248,163.675,34.186,163.183Z"/><path class="cls-2" d="M33.462,155.524c-.031-.5-.029-.984-.055-1.477l-16.853,1.06.186,2.95L33.593,157C33.556,156.5,33.493,156.018,33.462,155.524Z"/><path class="cls-2" d="M33.22,147.834c0-.5.033-.983.038-1.477H16.372v2.955H33.258C33.253,148.818,33.22,148.33,33.22,147.834Z"/><path class="cls-2" d="M33.462,140.145c.031-.5.094-.98.131-1.472L16.74,137.612l-.186,2.949,16.853,1.061C33.433,141.128,33.431,140.639,33.462,140.145Z"/><path class="cls-2" d="M34.186,132.485c.062-.491.155-.971.223-1.461l-16.754-2.116-.37,2.931,16.754,2.117C34.1,133.465,34.124,132.977,34.186,132.485Z"/><path class="cls-2" d="M35.389,124.886c.093-.486.217-.959.315-1.444l-16.588-3.164-.554,2.9,16.588,3.164C35.237,125.859,35.3,125.374,35.389,124.886Z"/><path class="cls-2" d="M37.068,117.378c.123-.48.276-.944.4-1.421l-16.356-4.2-.735,2.862,16.356,4.2C36.855,118.339,36.944,117.858,37.068,117.378Z"/><path class="cls-2" d="M39.214,109.99c.153-.471.335-.925.493-1.393l-16.06-5.218-.914,2.81,16.061,5.219C38.941,110.936,39.061,110.462,39.214,109.99Z"/><path class="cls-2" d="M41.82,102.752c.183-.461.392-.9.579-1.36L26.7,95.176l-1.088,2.747,15.7,6.217C41.488,103.678,41.637,103.213,41.82,102.752Z"/><path class="cls-2" d="M44.875,95.691c.212-.448.449-.876.664-1.321L30.26,87.181,29,89.855l15.28,7.189C44.486,96.6,44.664,96.14,44.875,95.691Z"/><path class="cls-2" d="M48.368,88.836c.239-.434.5-.846.746-1.276l-14.8-8.135-1.424,2.589,14.8,8.135C47.923,89.714,48.129,89.271,48.368,88.836Z"/><path class="cls-2" d="M52.284,82.214c.266-.418.555-.813.824-1.227L38.851,71.939l-1.584,2.5,14.258,9.048C51.785,83.062,52.019,82.633,52.284,82.214Z"/><path class="cls-2" d="M56.609,75.851c.291-.4.6-.776.9-1.173L43.847,64.752,42.11,67.143l13.661,9.926C56.057,76.666,56.318,76.252,56.609,75.851Z"/><path class="cls-2" d="M61.324,69.772c.316-.382.652-.737.972-1.114L49.284,57.894,47.4,60.171,60.412,70.935C60.723,70.55,61.008,70.154,61.324,69.772Z"/><path class="cls-2" d="M66.412,64c.34-.361.7-.7,1.039-1.051L55.142,51.39l-2.023,2.155L65.428,65.1C65.763,64.74,66.073,64.362,66.412,64Z"/><path class="cls-2" d="M71.852,58.561c.361-.339.739-.649,1.1-.984L61.4,45.267,59.242,47.29,70.8,59.6C71.158,59.258,71.491,58.9,71.852,58.561Z"/><path class="cls-2" d="M77.623,53.473c.382-.316.779-.6,1.163-.912L68.022,39.55l-2.277,1.883L76.509,54.444C76.886,54.125,77.241,53.789,77.623,53.473Z"/><path class="cls-2" d="M83.7,48.758c.4-.291.815-.552,1.218-.838L74.994,34.259,72.6,36l9.925,13.661C82.926,49.362,83.3,49.049,83.7,48.758Z"/><path class="cls-2" d="M90.065,44.434c.419-.266.848-.5,1.268-.76L82.285,29.416,79.79,31l9.048,14.257C89.252,44.988,89.647,44.7,90.065,44.434Z"/><path class="cls-2" d="M96.688,40.517c.433-.239.877-.445,1.312-.678l-8.135-14.8-2.589,1.424,8.135,14.8C95.841,41.02,96.253,40.756,96.688,40.517Z"/><path class="cls-2" d="M103.542,37.024c.449-.21.9-.389,1.353-.594l-7.19-15.28-2.673,1.259,7.19,15.279C102.666,37.473,103.094,37.235,103.542,37.024Z"/><path class="cls-2" d="M110.6,33.969c.461-.182.926-.332,1.388-.509l-6.216-15.7-2.748,1.088,6.216,15.7C109.7,34.361,110.142,34.151,110.6,33.969Z"/><path class="cls-2" d="M117.842,31.363c.471-.153.945-.273,1.416-.42l-5.217-16.06-2.811.913,5.218,16.06C116.916,31.7,117.37,31.516,117.842,31.363Z"/><path class="cls-2" d="M125.23,29.216c.48-.123.96-.212,1.44-.33l-4.2-16.356-2.863.735,4.2,16.356C124.285,29.492,124.75,29.34,125.23,29.216Z"/><path class="cls-2" d="M132.738,27.538c.486-.093.972-.152,1.458-.239l-3.164-16.588-2.9.554,3.164,16.587C131.778,27.754,132.251,27.631,132.738,27.538Z"/><path class="cls-2" d="M140.337,26.335c.491-.062.979-.091,1.47-.148L139.691,9.434l-2.932.37,2.117,16.754C139.365,26.49,139.845,26.4,140.337,26.335Z"/><path class="cls-2" d="M148,25.611c.494-.032.983-.03,1.477-.055L148.413,8.7l-2.95.185,1.06,16.853C147.017,25.705,147.5,25.642,148,25.611Z"/><path class="cls-3" d="M117.708,112.96c-8.014,0-12.323,3.805-12.323,16.027a2.372,2.372,0,0,0,2.507,2.7h2.4c1.5,0,2.1-1.2,2-3.306-.3-4.908.4-9.115,5.108-9.115,3.805,0,5.71,2.5,5.71,9.917,0,13.924-10.719,25.443-17.229,41.169a7.808,7.808,0,0,0-.6,3.205v2.4a1.736,1.736,0,0,0,1.8,1.8h20.634a1.841,1.841,0,0,0,1.9-1.9V173.26a1.841,1.841,0,0,0-1.9-1.9H112.6c5.508-14.125,17.728-26.946,17.728-41.169C130.328,117.969,125.821,112.96,117.708,112.96Z"/><path class="cls-3" d="M154.074,144.513c2.907-2.2,4.91-6.512,4.91-14.124,0-12.42-4.609-17.429-11.918-17.429s-11.923,5.108-11.923,17.429c0,7.612,2,11.921,4.91,14.124-3.405,2.3-5.611,7.112-5.611,15.526,0,13.221,4.807,18.332,12.624,18.332s12.619-5.111,12.619-18.332C159.685,151.524,157.479,146.817,154.074,144.513Zm-7.008-25.544c2.8,0,4.7,1.3,4.7,11.42s-1.9,11.419-4.7,11.419-4.708-1.3-4.708-11.419S144.258,118.969,147.066,118.969Zm0,53.391c-3.109,0-5.409-1.3-5.409-12.321s2.3-12.321,5.409-12.321,5.409,1.3,5.409,12.321S150.17,172.36,147.066,172.36Z"/><path class="cls-3" d="M183.432,128.286c0-10.418-3.1-15.728-9.915-15.728-6.613,0-9.919,5.31-9.919,15.728,0,10.317,3.306,15.726,9.919,15.726C180.328,144.012,183.432,138.6,183.432,128.286Zm-13.922,0c0-6.813.8-10.317,4.007-10.317,3.306,0,4.007,3.5,4.007,10.317,0,6.71-.7,10.317-4.007,10.317C170.309,138.6,169.51,135,169.51,128.286Z"/><path class="cls-3" d="M196.055,147.316c-6.612,0-9.919,5.31-9.919,15.729,0,10.316,3.307,15.726,9.919,15.726,6.811,0,9.916-5.41,9.916-15.726C205.971,152.626,202.866,147.316,196.055,147.316Zm0,26.045c-3.207,0-4.007-3.6-4.007-10.316,0-6.813.8-10.318,4.007-10.318,3.3,0,4.008,3.5,4.008,10.318C200.063,169.756,199.358,173.361,196.055,173.361Z"/><path class="cls-3" d="M200.463,113.56h-2a2.889,2.889,0,0,0-2.507,1.905l-28.145,60.4c-.5,1.1.2,1.9,1.3,1.9h2a2.884,2.884,0,0,0,2.5-1.9l28.15-60.4C202.264,114.362,201.563,113.56,200.463,113.56Z"/></svg>