<svg id="Layer_1" data-name="Layer 1" xmlns="http://www.w3.org/2000/svg" viewBox="0 0 300 300"><defs><style>.cls-1{fill:#f21b16;}.cls-2{fill:#e6e6e6;}.cls-3{fill:#5e5e5e;}</style></defs><path class="cls-1" d="M168.631,25.279a124.325,124.325,0,0,0-16.726-1.132l-1.373.009-.214-16.887,1.587-.008a140.917,140.917,0,0,1,19.01,1.288Z"/><path class="cls-2" d="M174.852,26.278c.487.093.96.216,1.444.314l3.165-16.587-2.9-.554-3.164,16.587C173.88,26.126,174.365,26.185,174.852,26.278Z"/><path class="cls-2" d="M182.36,27.956c.48.123.945.276,1.422.405L187.981,12l-2.862-.734-4.2,16.356C181.4,27.743,181.88,27.833,182.36,27.956Z"/><path class="cls-2" d="M189.748,30.1c.472.154.926.335,1.394.494l5.218-16.061-2.811-.913-5.218,16.06C188.8,29.83,189.277,29.95,189.748,30.1Z"/><path class="cls-2" d="M196.987,32.708c.461.183.9.393,1.36.58l6.216-15.7L201.815,16.5,195.6,32.2C196.061,32.377,196.526,32.526,196.987,32.708Z"/><path class="cls-2" d="M204.048,35.764c.448.211.875.448,1.32.664l7.19-15.28-2.673-1.258-7.191,15.279C203.144,35.375,203.6,35.553,204.048,35.764Z"/><path class="cls-2" d="M210.9,39.257c.435.239.846.5,1.277.745l8.135-14.8-2.589-1.423-8.135,14.8C210.025,38.812,210.468,39.018,210.9,39.257Z"/><path class="cls-2" d="M217.524,43.173c.419.266.814.554,1.228.824L227.8,29.739l-2.5-1.583-9.048,14.258C216.677,42.674,217.106,42.907,217.524,43.173Z"/><path class="cls-2" d="M223.888,47.5c.4.291.776.6,1.173.9l9.925-13.662L232.6,33,222.67,46.66C223.073,46.946,223.487,47.206,223.888,47.5Z"/><path class="cls-2" d="M229.967,52.213c.381.316.737.652,1.114.971l10.764-13.011-2.277-1.884L228.8,51.3C229.188,51.611,229.585,51.9,229.967,52.213Z"/><path class="cls-2" d="M235.738,57.3c.361.339.694.7,1.051,1.039l11.559-12.31-2.154-2.023-11.559,12.31C235,56.651,235.376,56.961,235.738,57.3Z"/><path class="cls-2" d="M241.178,62.741c.339.361.649.739.983,1.1l12.31-11.56-2.023-2.154-12.31,11.56C240.481,62.046,240.838,62.379,241.178,62.741Z"/><path class="cls-2" d="M246.266,68.512c.315.382.6.778.912,1.162L260.19,58.91l-1.884-2.276L245.294,67.4C245.613,67.775,245.95,68.13,246.266,68.512Z"/><path class="cls-2" d="M250.981,74.591c.291.4.552.814.837,1.217l13.662-9.925-1.737-2.391-13.661,9.926C250.377,73.814,250.69,74.19,250.981,74.591Z"/><path class="cls-2" d="M255.306,80.954c.265.418.5.847.759,1.268l14.258-9.048-1.584-2.5-14.258,9.049C254.751,80.141,255.04,80.535,255.306,80.954Z"/><path class="cls-2" d="M259.221,87.576c.239.434.446.877.679,1.313l14.8-8.135-1.424-2.59-14.8,8.136C258.72,86.73,258.983,87.142,259.221,87.576Z"/><path class="cls-2" d="M262.715,94.431c.211.448.389.9.594,1.353l15.279-7.19L277.33,85.92l-15.279,7.19C262.266,93.555,262.5,93.982,262.715,94.431Z"/><path class="cls-2" d="M265.77,101.491c.182.461.331.927.508,1.389l15.7-6.217-1.088-2.748-15.7,6.217C265.377,100.589,265.587,101.031,265.77,101.491Z"/><path class="cls-2" d="M268.376,108.73c.153.471.273.946.42,1.417l16.06-5.218-.913-2.811-16.06,5.219C268.041,107.805,268.223,108.259,268.376,108.73Z"/><path class="cls-2" d="M270.522,116.118c.124.48.213.961.331,1.441l16.356-4.2-.735-2.862-16.356,4.2C270.246,115.174,270.4,115.638,270.522,116.118Z"/><path class="cls-2" d="M272.2,123.626c.092.487.152.972.239,1.459l16.587-3.164-.553-2.9-16.588,3.164C271.984,122.666,272.108,123.14,272.2,123.626Z"/><path class="cls-2" d="M273.4,131.225c.062.492.091.98.147,1.471l16.754-2.117-.371-2.932-16.753,2.117C273.249,130.253,273.342,130.733,273.4,131.225Z"/><path class="cls-2" d="M274.128,138.885c.031.494.029.983.055,1.476l16.853-1.06-.186-2.949L274,137.412C274.034,137.905,274.1,138.39,274.128,138.885Z"/><path class="cls-2" d="M274.37,146.574c0,.495-.033.983-.038,1.477h16.886V145.1H274.332C274.337,145.591,274.37,146.078,274.37,146.574Z"/><path class="cls-2" d="M274.128,154.264c-.031.494-.094.979-.131,1.472l16.853,1.06.186-2.949-16.853-1.06C274.157,153.28,274.159,153.769,274.128,154.264Z"/><path class="cls-2" d="M273.4,161.923c-.062.492-.155.972-.223,1.461l16.753,2.117.371-2.932-16.754-2.117C273.5,160.943,273.466,161.431,273.4,161.923Z"/><path class="cls-2" d="M272.2,169.522c-.093.487-.217.959-.315,1.444l16.588,3.164.553-2.9-16.587-3.164C272.353,168.55,272.293,169.035,272.2,169.522Z"/><path class="cls-2" d="M270.522,177.03c-.123.48-.276.944-.4,1.422l16.356,4.2.735-2.862-16.356-4.2C270.735,176.07,270.646,176.55,270.522,177.03Z"/><path class="cls-2" d="M268.376,184.418c-.153.471-.335.925-.493,1.393l16.06,5.219.913-2.811L268.8,183C268.649,183.473,268.529,183.947,268.376,184.418Z"/><path class="cls-2" d="M265.77,191.657c-.183.46-.393.9-.58,1.359l15.7,6.217,1.088-2.748-15.7-6.216C266.1,190.73,265.952,191.2,265.77,191.657Z"/><path class="cls-2" d="M262.715,198.717c-.212.449-.449.876-.664,1.321l15.279,7.19,1.258-2.674-15.279-7.19C263.1,197.813,262.926,198.269,262.715,198.717Z"/><path class="cls-2" d="M259.221,205.572c-.238.434-.5.846-.745,1.277l14.8,8.135,1.424-2.59-14.8-8.135C259.667,204.7,259.46,205.138,259.221,205.572Z"/><path class="cls-2" d="M255.306,212.194c-.266.419-.555.813-.825,1.227l14.258,9.048,1.584-2.5-14.258-9.048C255.805,211.347,255.571,211.776,255.306,212.194Z"/><path class="cls-2" d="M250.981,218.557c-.291.4-.6.777-.9,1.173l13.661,9.926,1.737-2.391-13.662-9.925C251.533,217.743,251.272,218.156,250.981,218.557Z"/><path class="cls-2" d="M246.266,224.636c-.316.382-.653.737-.972,1.115l13.012,10.763,1.884-2.276-13.012-10.764C246.867,223.858,246.581,224.254,246.266,224.636Z"/><path class="cls-2" d="M241.178,230.407c-.34.362-.7.695-1.04,1.051l12.31,11.56,2.023-2.154-12.31-11.56C241.827,229.668,241.517,230.046,241.178,230.407Z"/><path class="cls-2" d="M235.738,235.847c-.362.34-.739.65-1.1.984l11.559,12.31,2.154-2.023-11.559-12.31C236.432,235.15,236.1,235.508,235.738,235.847Z"/><path class="cls-2" d="M229.967,240.935c-.382.316-.779.6-1.163.913l10.764,13.011,2.277-1.884-10.764-13.011C230.7,240.283,230.348,240.619,229.967,240.935Z"/><path class="cls-2" d="M223.888,245.65c-.4.292-.815.552-1.218.838L232.6,260.15l2.39-1.737-9.925-13.662C224.664,245.046,224.289,245.359,223.888,245.65Z"/><path class="cls-2" d="M217.524,249.975c-.418.266-.847.5-1.267.76l9.048,14.257,2.5-1.583-9.048-14.258C218.338,249.42,217.943,249.71,217.524,249.975Z"/><path class="cls-2" d="M210.9,253.891c-.434.239-.877.445-1.312.679l8.135,14.8,2.589-1.424-8.135-14.8C211.748,253.389,211.337,253.653,210.9,253.891Z"/><path class="cls-2" d="M204.048,257.384c-.449.211-.9.389-1.354.595l7.191,15.279L212.558,272l-7.19-15.28C204.923,256.936,204.5,257.173,204.048,257.384Z"/><path class="cls-2" d="M196.987,260.439c-.461.183-.926.332-1.388.509l6.216,15.7,2.748-1.088-6.216-15.7C197.889,260.047,197.448,260.257,196.987,260.439Z"/><path class="cls-2" d="M189.748,263.046c-.471.152-.945.272-1.417.42l5.218,16.06,2.811-.913-5.218-16.06C190.674,262.71,190.22,262.892,189.748,263.046Z"/><path class="cls-2" d="M182.36,265.192c-.48.123-.96.213-1.44.33l4.2,16.356,2.862-.735-4.2-16.355C183.305,264.916,182.84,265.069,182.36,265.192Z"/><path class="cls-2" d="M174.852,266.87c-.487.093-.972.152-1.458.24l3.164,16.587,2.9-.554L176.3,266.556C175.812,266.654,175.339,266.777,174.852,266.87Z"/><path class="cls-2" d="M167.253,268.074c-.491.062-.979.091-1.47.147l2.116,16.753,2.932-.37-2.117-16.753C168.225,267.918,167.745,268.012,167.253,268.074Z"/><path class="cls-2" d="M159.594,268.8c-.494.031-.983.029-1.477.055l1.06,16.853,2.95-.186-1.061-16.853C160.573,268.7,160.089,268.766,159.594,268.8Z"/><path class="cls-2" d="M151.9,269.04c-.5,0-.983-.033-1.477-.039v16.887h2.955V269C152.888,269.007,152.4,269.04,151.9,269.04Z"/><path class="cls-2" d="M144.215,268.8c-.5-.032-.979-.1-1.473-.131l-1.06,16.853,2.95.186,1.06-16.853C145.2,268.827,144.709,268.829,144.215,268.8Z"/><path class="cls-2" d="M136.555,268.074c-.491-.062-.971-.156-1.461-.223L132.978,284.6l2.932.37,2.116-16.753C137.535,268.165,137.047,268.136,136.555,268.074Z"/><path class="cls-2" d="M128.957,266.87c-.487-.093-.96-.216-1.444-.314l-3.165,16.587,2.9.554,3.164-16.587C129.929,267.022,129.444,266.963,128.957,266.87Z"/><path class="cls-2" d="M121.449,265.192c-.48-.123-.945-.276-1.422-.4l-4.2,16.355,2.863.735,4.2-16.356C122.409,265.4,121.929,265.315,121.449,265.192Z"/><path class="cls-2" d="M114.061,263.046c-.472-.154-.926-.336-1.394-.493l-5.218,16.06,2.81.913,5.219-16.06C115.006,263.318,114.532,263.2,114.061,263.046Z"/><path class="cls-2" d="M106.822,260.439c-.461-.182-.9-.392-1.36-.579l-6.216,15.7,2.747,1.088,6.217-15.7C107.748,260.771,107.283,260.622,106.822,260.439Z"/><path class="cls-2" d="M99.761,257.384c-.448-.211-.876-.448-1.321-.664L91.25,272l2.674,1.258,7.19-15.279C100.665,257.773,100.21,257.6,99.761,257.384Z"/><path class="cls-2" d="M92.906,253.891c-.434-.238-.846-.5-1.276-.745l-8.135,14.8,2.589,1.424,8.135-14.8C93.784,254.336,93.341,254.13,92.906,253.891Z"/><path class="cls-2" d="M86.284,249.975c-.418-.265-.813-.555-1.227-.824l-9.048,14.258,2.5,1.583,9.048-14.257C87.132,250.474,86.7,250.241,86.284,249.975Z"/><path class="cls-2" d="M79.921,245.65c-.4-.291-.777-.6-1.173-.9l-9.925,13.662,2.39,1.737,9.926-13.662C80.736,246.2,80.322,245.942,79.921,245.65Z"/><path class="cls-2" d="M73.842,240.935c-.382-.316-.737-.652-1.114-.971L61.964,252.975l2.277,1.884,10.764-13.011C74.621,241.537,74.224,241.251,73.842,240.935Z"/><path class="cls-2" d="M68.071,235.847c-.361-.339-.694-.7-1.051-1.039l-11.56,12.31,2.155,2.023,11.559-12.31C68.81,236.5,68.433,236.187,68.071,235.847Z"/><path class="cls-2" d="M62.631,230.407c-.339-.361-.65-.739-.984-1.1l-12.309,11.56,2.023,2.154,12.309-11.56C63.328,231.1,62.97,230.769,62.631,230.407Z"/><path class="cls-2" d="M57.543,224.636c-.316-.382-.6-.778-.912-1.162L43.619,234.238l1.884,2.276,13.011-10.763C58.2,225.373,57.859,225.018,57.543,224.636Z"/><path class="cls-2" d="M52.828,218.557c-.292-.4-.552-.814-.838-1.217l-13.662,9.925,1.738,2.391,13.661-9.926C53.432,219.334,53.119,218.958,52.828,218.557Z"/><path class="cls-2" d="M48.5,212.194c-.265-.418-.5-.847-.759-1.268l-14.258,9.048,1.583,2.5,14.259-9.048C49.058,213.007,48.769,212.613,48.5,212.194Z"/><path class="cls-2" d="M44.587,205.572c-.238-.434-.445-.877-.678-1.313l-14.8,8.135,1.424,2.59,14.8-8.135C45.089,206.418,44.826,206.006,44.587,205.572Z"/><path class="cls-2" d="M41.094,198.717c-.211-.448-.389-.9-.594-1.353l-15.28,7.19,1.259,2.674,15.279-7.19C41.542,199.593,41.306,199.166,41.094,198.717Z"/><path class="cls-2" d="M38.039,191.657c-.182-.461-.332-.927-.508-1.388l-15.7,6.216,1.088,2.748,15.7-6.217C38.431,192.559,38.221,192.117,38.039,191.657Z"/><path class="cls-2" d="M35.433,184.418c-.153-.471-.273-.945-.421-1.417l-16.06,5.218.914,2.811,16.06-5.219C35.768,185.343,35.586,184.889,35.433,184.418Z"/><path class="cls-2" d="M33.287,177.03c-.124-.48-.214-.96-.331-1.441l-16.356,4.2.735,2.862,16.356-4.2C33.563,177.974,33.41,177.51,33.287,177.03Z"/><path class="cls-2" d="M31.608,169.522c-.093-.487-.152-.972-.239-1.459l-16.588,3.164.554,2.9,16.588-3.164C31.825,170.481,31.7,170.009,31.608,169.522Z"/><path class="cls-2" d="M30.405,161.923c-.063-.492-.091-.98-.148-1.471L13.5,162.569l.37,2.932,16.754-2.117C30.56,162.9,30.467,162.415,30.405,161.923Z"/><path class="cls-2" d="M29.681,154.264c-.031-.5-.03-.984-.055-1.477l-16.853,1.06.185,2.949,16.853-1.06C29.775,155.243,29.712,154.758,29.681,154.264Z"/><path class="cls-2" d="M29.439,146.574c0-.5.033-.983.038-1.478H12.59v2.955H29.477C29.472,147.557,29.439,147.069,29.439,146.574Z"/><path class="cls-2" d="M29.681,138.885c.031-.5.094-.98.13-1.473l-16.853-1.06-.185,2.949,16.853,1.06C29.651,139.868,29.65,139.379,29.681,138.885Z"/><path class="cls-2" d="M30.405,131.225c.062-.492.155-.972.223-1.461l-16.754-2.117-.37,2.932L30.257,132.7C30.314,132.205,30.342,131.717,30.405,131.225Z"/><path class="cls-2" d="M31.608,123.626c.093-.486.217-.96.315-1.444l-16.588-3.164-.554,2.9,16.588,3.164C31.456,124.6,31.515,124.113,31.608,123.626Z"/><path class="cls-2" d="M33.287,116.118c.123-.48.276-.944.4-1.422l-16.356-4.2-.735,2.862,16.356,4.2C33.073,117.079,33.163,116.6,33.287,116.118Z"/><path class="cls-2" d="M35.433,108.73c.153-.471.335-.925.493-1.393l-16.06-5.219-.914,2.811,16.06,5.218C35.16,109.676,35.28,109.2,35.433,108.73Z"/><path class="cls-2" d="M38.039,101.491c.182-.46.392-.9.58-1.359l-15.7-6.217L21.83,96.663l15.7,6.217C37.707,102.418,37.857,101.952,38.039,101.491Z"/><path class="cls-2" d="M41.094,94.431c.212-.449.448-.876.664-1.321L26.479,85.92,25.22,88.594l15.28,7.19C40.705,95.334,40.883,94.879,41.094,94.431Z"/><path class="cls-2" d="M44.587,87.576c.239-.434.5-.846.746-1.276l-14.8-8.136-1.424,2.59,14.8,8.135C44.142,88.453,44.349,88.01,44.587,87.576Z"/><path class="cls-2" d="M48.5,80.954c.266-.419.555-.813.825-1.227L35.069,70.678l-1.583,2.5,14.258,9.048C48,81.8,48.238,81.372,48.5,80.954Z"/><path class="cls-2" d="M52.828,74.591c.291-.4.6-.777.9-1.173L40.066,63.492l-1.738,2.391L51.99,75.808C52.276,75.405,52.536,74.991,52.828,74.591Z"/><path class="cls-2" d="M57.543,68.512c.316-.382.652-.737.971-1.114L45.5,56.634,43.619,58.91,56.631,69.674C56.942,69.29,57.227,68.894,57.543,68.512Z"/><path class="cls-2" d="M62.631,62.741c.339-.362.7-.7,1.039-1.051L51.361,50.13l-2.023,2.154,12.309,11.56C61.981,63.48,62.292,63.1,62.631,62.741Z"/><path class="cls-2" d="M68.071,57.3c.362-.34.739-.65,1.1-.984L57.615,44.007,55.46,46.03,67.02,58.34C67.377,58,67.71,57.64,68.071,57.3Z"/><path class="cls-2" d="M73.842,52.213c.382-.316.779-.6,1.163-.912L64.241,38.289l-2.277,1.884L72.728,53.184C73.105,52.865,73.46,52.529,73.842,52.213Z"/><path class="cls-2" d="M79.921,47.5c.4-.292.815-.552,1.218-.838L71.213,33l-2.39,1.737L78.748,48.4C79.144,48.1,79.52,47.789,79.921,47.5Z"/><path class="cls-2" d="M86.284,43.173c.418-.266.848-.5,1.268-.759L78.5,28.156l-2.5,1.583L85.057,44C85.471,43.727,85.866,43.439,86.284,43.173Z"/><path class="cls-2" d="M92.906,39.257c.435-.239.878-.445,1.313-.679l-8.135-14.8L83.5,25.2,91.63,40C92.06,39.759,92.472,39.5,92.906,39.257Z"/><path class="cls-2" d="M99.761,35.764c.449-.211.9-.389,1.353-.6L93.924,19.89,91.25,21.148l7.19,15.28C98.885,36.212,99.313,35.975,99.761,35.764Z"/><path class="cls-2" d="M106.822,32.708c.461-.182.926-.331,1.388-.508l-6.217-15.7-2.747,1.088,6.216,15.7C105.92,33.1,106.361,32.891,106.822,32.708Z"/><path class="cls-2" d="M114.061,30.1c.471-.152.945-.272,1.417-.42l-5.219-16.06-2.81.913L112.667,30.6C113.135,30.437,113.589,30.256,114.061,30.1Z"/><path class="cls-2" d="M121.449,27.956c.48-.123.96-.213,1.44-.33l-4.2-16.356L115.827,12l4.2,16.357C120.5,28.232,120.969,28.079,121.449,27.956Z"/><path class="cls-2" d="M128.957,26.278c.487-.093.972-.152,1.458-.24L127.251,9.451l-2.9.554,3.165,16.587C128,26.494,128.47,26.371,128.957,26.278Z"/><path class="cls-2" d="M136.555,25.074c.492-.062.98-.091,1.471-.147L135.91,8.174l-2.932.37L135.094,25.3C135.584,25.23,136.064,25.137,136.555,25.074Z"/><path class="cls-2" d="M144.215,24.35c.494-.031.983-.029,1.477-.054l-1.06-16.854-2.95.186,1.06,16.853C143.236,24.445,143.72,24.381,144.215,24.35Z"/><path class="cls-3" d="M128.958,111.7c-8.014,0-12.322,3.805-12.322,16.027a2.372,2.372,0,0,0,2.506,2.7h2.4c1.5,0,2.1-1.2,2-3.306-.3-4.908.4-9.115,5.108-9.115,3.8,0,5.71,2.5,5.71,9.917,0,13.924-10.719,25.443-17.229,41.169a7.827,7.827,0,0,0-.6,3.205v2.4a1.736,1.736,0,0,0,1.8,1.8h20.638a1.841,1.841,0,0,0,1.9-1.9V172a1.84,1.84,0,0,0-1.9-1.9H123.85c5.508-14.125,17.728-26.946,17.728-41.169C141.578,116.708,137.072,111.7,128.958,111.7Z"/><path class="cls-3" d="M164.623,127.025c0-10.418-3.1-15.728-9.915-15.728-6.612,0-9.919,5.31-9.919,15.728,0,10.317,3.307,15.726,9.919,15.726C161.519,142.751,164.623,137.342,164.623,127.025Zm-13.922,0c0-6.813.8-10.317,4.007-10.317,3.307,0,4.007,3.5,4.007,10.317,0,6.71-.7,10.317-4.007,10.317C151.5,137.342,150.7,133.735,150.7,127.025Z"/><path class="cls-3" d="M177.247,146.058c-6.613,0-9.919,5.307-9.919,15.726,0,10.316,3.306,15.726,9.919,15.726,6.811,0,9.915-5.41,9.915-15.726C187.162,151.365,184.058,146.058,177.247,146.058Zm0,26.042c-3.207,0-4.007-3.607-4.007-10.316,0-6.813.8-10.318,4.007-10.318,3.3,0,4.007,3.5,4.007,10.318C181.254,168.493,180.549,172.1,177.247,172.1Z"/><path class="cls-3" d="M181.654,112.3h-2a2.888,2.888,0,0,0-2.507,1.9L149,174.605c-.5,1.1.2,1.9,1.3,1.9h2a2.884,2.884,0,0,0,2.5-1.9l28.15-60.4C183.456,113.1,182.755,112.3,181.654,112.3Z"/></svg>