<svg id="Layer_1" data-name="Layer 1" xmlns="http://www.w3.org/2000/svg" viewBox="0 0 300 300"><defs><style>.cls-1{fill:#f21b16;}.cls-2{fill:#e6e6e6;}.cls-3{fill:#5e5e5e;}</style></defs><path class="cls-1" d="M290.884,184l-16.309-4.374A122.536,122.536,0,0,0,156.316,25.407l-1.406.008-.14-16.887,1.546-.008c76.818,0,139.314,62.5,139.314,139.314A139.6,139.6,0,0,1,290.884,184Z"/><path class="cls-2" d="M272.787,185.678c-.153.472-.335.925-.493,1.394l16.06,5.218.913-2.81-16.06-5.219C273.06,184.733,272.94,185.207,272.787,185.678Z"/><path class="cls-2" d="M270.181,192.917c-.182.461-.392.9-.579,1.36l15.7,6.216,1.088-2.748-15.7-6.216C270.513,191.991,270.363,192.456,270.181,192.917Z"/><path class="cls-2" d="M267.125,199.977c-.21.449-.448.876-.663,1.321l15.279,7.19L283,205.814l-15.279-7.19C267.515,199.074,267.336,199.529,267.125,199.977Z"/><path class="cls-2" d="M263.633,206.833c-.239.434-.5.846-.745,1.276l14.8,8.135,1.424-2.589-14.8-8.136C264.078,205.955,263.872,206.4,263.633,206.833Z"/><path class="cls-2" d="M259.716,213.455c-.265.418-.554.812-.823,1.227l14.257,9.048,1.584-2.495-14.258-9.049C260.216,212.607,259.982,213.036,259.716,213.455Z"/><path class="cls-2" d="M255.392,219.818c-.291.4-.6.776-.9,1.173l13.661,9.926,1.737-2.392L256.23,218.6C255.944,219,255.683,219.417,255.392,219.818Z"/><path class="cls-2" d="M250.677,225.9c-.316.382-.652.737-.971,1.114l13.011,10.764L264.6,235.5l-13.011-10.764C251.279,225.118,250.993,225.515,250.677,225.9Z"/><path class="cls-2" d="M245.589,231.668c-.339.361-.7.694-1.039,1.051l12.31,11.559,2.023-2.154-12.31-11.56C246.238,230.929,245.928,231.306,245.589,231.668Z"/><path class="cls-2" d="M240.149,237.108c-.361.339-.739.649-1.1.984L250.605,250.4l2.154-2.023L241.2,236.069C240.844,236.411,240.51,236.769,240.149,237.108Z"/><path class="cls-2" d="M234.378,242.2c-.382.316-.778.6-1.163.913l10.764,13.011,2.277-1.883-10.764-13.012C235.115,241.544,234.76,241.88,234.378,242.2Z"/><path class="cls-2" d="M228.3,246.911c-.4.291-.815.551-1.218.838l9.926,13.661,2.391-1.737-9.926-13.661C229.075,246.306,228.7,246.62,228.3,246.911Z"/><path class="cls-2" d="M221.936,251.235c-.419.266-.848.5-1.268.76l9.048,14.257,2.5-1.583-9.048-14.257C222.748,250.681,222.354,250.97,221.936,251.235Z"/><path class="cls-2" d="M215.314,255.152c-.435.238-.878.445-1.314.678l8.136,14.8,2.589-1.424-8.135-14.8C216.16,254.649,215.748,254.913,215.314,255.152Z"/><path class="cls-2" d="M208.459,258.644c-.449.211-.9.389-1.353.595l7.189,15.279,2.674-1.258-7.19-15.279C209.335,258.2,208.907,258.433,208.459,258.644Z"/><path class="cls-2" d="M201.4,261.7c-.461.182-.926.332-1.388.508l6.217,15.7,2.747-1.088-6.216-15.7C202.3,261.308,201.859,261.517,201.4,261.7Z"/><path class="cls-2" d="M194.159,264.306c-.471.153-.945.273-1.417.42l5.219,16.06,2.81-.913-5.218-16.06C195.084,263.971,194.631,264.153,194.159,264.306Z"/><path class="cls-2" d="M186.771,266.452c-.48.123-.96.213-1.44.331l4.2,16.356,2.863-.735-4.2-16.356C187.716,266.176,187.252,266.329,186.771,266.452Z"/><path class="cls-2" d="M179.263,268.131c-.487.092-.972.152-1.458.239l3.164,16.587,2.9-.553-3.164-16.588C180.223,267.914,179.75,268.038,179.263,268.131Z"/><path class="cls-2" d="M171.665,269.334c-.492.062-.98.091-1.471.148l2.116,16.753,2.932-.371-2.116-16.753C172.636,269.178,172.156,269.272,171.665,269.334Z"/><path class="cls-2" d="M164.005,270.058c-.5.031-.983.029-1.477.055l1.061,16.853,2.949-.185-1.061-16.854C164.985,269.964,164.5,270.027,164.005,270.058Z"/><path class="cls-2" d="M156.315,270.3c-.5,0-.983-.033-1.477-.038v16.886h2.955V270.262C157.3,270.267,156.811,270.3,156.315,270.3Z"/><path class="cls-2" d="M148.626,270.058c-.5-.031-.98-.094-1.472-.131l-1.061,16.854,2.949.185,1.061-16.853C149.609,270.087,149.121,270.089,148.626,270.058Z"/><path class="cls-2" d="M140.966,269.334c-.491-.062-.971-.156-1.461-.223l-2.116,16.753,2.932.371,2.116-16.753C141.946,269.425,141.458,269.4,140.966,269.334Z"/><path class="cls-2" d="M133.368,268.131c-.487-.093-.96-.217-1.445-.315L128.759,284.4l2.9.553,3.164-16.587C134.34,268.283,133.855,268.223,133.368,268.131Z"/><path class="cls-2" d="M125.86,266.452c-.481-.123-.945-.276-1.422-.4l-4.2,16.356,2.863.735,4.2-16.356C126.82,266.665,126.34,266.575,125.86,266.452Z"/><path class="cls-2" d="M118.472,264.306c-.472-.153-.925-.335-1.394-.493l-5.218,16.06,2.81.913,5.219-16.06C119.417,264.579,118.943,264.459,118.472,264.306Z"/><path class="cls-2" d="M111.233,261.7c-.461-.183-.9-.392-1.36-.579l-6.216,15.7,2.747,1.088,6.217-15.7C112.159,262.032,111.694,261.882,111.233,261.7Z"/><path class="cls-2" d="M104.172,258.644c-.448-.211-.876-.448-1.32-.663l-7.19,15.279,2.674,1.258,7.189-15.279C105.076,259.033,104.621,258.855,104.172,258.644Z"/><path class="cls-2" d="M97.317,255.152c-.434-.239-.846-.5-1.276-.745l-8.135,14.8,2.589,1.424,8.136-14.8C98.2,255.6,97.752,255.39,97.317,255.152Z"/><path class="cls-2" d="M90.7,251.235c-.418-.265-.812-.554-1.227-.823L80.42,264.669l2.5,1.583L91.963,252C91.543,251.735,91.114,251.5,90.7,251.235Z"/><path class="cls-2" d="M84.332,246.911c-.4-.291-.776-.6-1.173-.9l-9.926,13.661,2.391,1.737,9.926-13.661C85.147,247.462,84.733,247.2,84.332,246.911Z"/><path class="cls-2" d="M78.253,242.2c-.382-.315-.737-.651-1.114-.971L66.375,254.236l2.277,1.883,10.764-13.011C79.031,242.8,78.635,242.511,78.253,242.2Z"/><path class="cls-2" d="M72.482,237.108c-.361-.339-.695-.7-1.051-1.039L59.872,248.378l2.154,2.023,11.559-12.309C73.221,237.757,72.843,237.447,72.482,237.108Z"/><path class="cls-2" d="M67.042,231.668c-.339-.362-.649-.739-.984-1.1l-12.31,11.56,2.023,2.154,12.31-11.559C67.739,232.362,67.381,232.029,67.042,231.668Z"/><path class="cls-2" d="M61.954,225.9c-.316-.382-.6-.779-.912-1.163L48.031,235.5l1.883,2.277,13.011-10.764C62.606,226.634,62.27,226.279,61.954,225.9Z"/><path class="cls-2" d="M57.239,219.818c-.291-.4-.552-.815-.838-1.218L42.74,228.525l1.737,2.392,13.661-9.926C57.843,220.594,57.53,220.218,57.239,219.818Z"/><path class="cls-2" d="M52.915,213.455c-.266-.419-.5-.848-.76-1.269L37.9,221.235l1.584,2.495,14.257-9.048C53.469,214.267,53.18,213.873,52.915,213.455Z"/><path class="cls-2" d="M49,206.833c-.239-.435-.445-.878-.678-1.314l-14.8,8.136,1.424,2.589,14.8-8.135C49.5,207.679,49.237,207.267,49,206.833Z"/><path class="cls-2" d="M45.506,199.977c-.211-.448-.39-.9-.595-1.353l-15.279,7.19,1.258,2.674,15.279-7.19C45.954,200.853,45.716,200.426,45.506,199.977Z"/><path class="cls-2" d="M42.45,192.917c-.182-.461-.332-.926-.509-1.388l-15.7,6.216,1.088,2.748,15.7-6.216C42.842,193.819,42.632,193.378,42.45,192.917Z"/><path class="cls-2" d="M39.844,185.678c-.153-.471-.273-.945-.42-1.417l-16.06,5.219.913,2.81,16.06-5.218C40.179,186.6,40,186.15,39.844,185.678Z"/><path class="cls-2" d="M37.7,178.29c-.123-.48-.213-.96-.331-1.44l-16.356,4.2.735,2.863,16.356-4.2C37.973,179.234,37.821,178.77,37.7,178.29Z"/><path class="cls-2" d="M36.019,170.782c-.093-.487-.152-.972-.239-1.459l-16.588,3.165.554,2.9,16.588-3.165C36.235,171.742,36.112,171.269,36.019,170.782Z"/><path class="cls-2" d="M34.816,163.183c-.062-.491-.091-.979-.148-1.47l-16.753,2.116.37,2.932,16.754-2.116C34.971,164.155,34.878,163.675,34.816,163.183Z"/><path class="cls-2" d="M34.092,155.524c-.031-.5-.029-.984-.055-1.477l-16.853,1.06.185,2.95L34.223,157C34.186,156.5,34.123,156.018,34.092,155.524Z"/><path class="cls-2" d="M33.85,147.834c0-.5.033-.983.038-1.477H17v2.955H33.888C33.883,148.818,33.85,148.33,33.85,147.834Z"/><path class="cls-2" d="M34.092,140.145c.031-.5.094-.98.131-1.472l-16.854-1.061-.185,2.949,16.853,1.061C34.063,141.128,34.061,140.639,34.092,140.145Z"/><path class="cls-2" d="M34.816,132.485c.062-.491.155-.971.223-1.461l-16.754-2.116-.37,2.931,16.753,2.117C34.725,133.465,34.754,132.977,34.816,132.485Z"/><path class="cls-2" d="M36.019,124.886c.093-.486.216-.959.315-1.444l-16.588-3.164-.554,2.9,16.588,3.164C35.867,125.859,35.926,125.374,36.019,124.886Z"/><path class="cls-2" d="M37.7,117.378c.123-.48.275-.944.4-1.421l-16.356-4.2-.735,2.862,16.356,4.2C37.485,118.339,37.575,117.858,37.7,117.378Z"/><path class="cls-2" d="M39.844,109.99c.153-.471.335-.925.493-1.393l-16.06-5.218-.913,2.81,16.06,5.219C39.571,110.936,39.691,110.462,39.844,109.99Z"/><path class="cls-2" d="M42.45,102.752c.182-.461.392-.9.579-1.36l-15.7-6.216-1.088,2.747,15.7,6.217C42.118,103.678,42.268,103.213,42.45,102.752Z"/><path class="cls-2" d="M45.506,95.691c.21-.448.448-.876.663-1.321L30.89,87.181l-1.258,2.674,15.279,7.189C45.116,96.6,45.3,96.14,45.506,95.691Z"/><path class="cls-2" d="M49,88.836c.239-.434.5-.846.745-1.276l-14.8-8.135-1.424,2.589,14.8,8.135C48.553,89.714,48.759,89.271,49,88.836Z"/><path class="cls-2" d="M52.915,82.214c.265-.418.554-.813.823-1.227L39.481,71.939l-1.584,2.5,14.258,9.048C52.415,83.062,52.649,82.633,52.915,82.214Z"/><path class="cls-2" d="M57.239,75.851c.291-.4.6-.776.9-1.173L44.477,64.752,42.74,67.143,56.4,77.069C56.687,76.666,56.948,76.252,57.239,75.851Z"/><path class="cls-2" d="M61.954,69.772c.316-.382.652-.737.971-1.114L49.914,57.894l-1.883,2.277L61.042,70.935C61.352,70.55,61.638,70.154,61.954,69.772Z"/><path class="cls-2" d="M67.042,64c.339-.361.7-.7,1.039-1.051L55.771,51.39l-2.023,2.155L66.058,65.1C66.393,64.74,66.7,64.362,67.042,64Z"/><path class="cls-2" d="M72.482,58.561c.361-.339.739-.649,1.1-.984L62.026,45.267,59.872,47.29,71.431,59.6C71.787,59.258,72.121,58.9,72.482,58.561Z"/><path class="cls-2" d="M78.253,53.473c.382-.316.778-.6,1.163-.912L68.652,39.55l-2.277,1.883L77.139,54.444C77.516,54.125,77.871,53.789,78.253,53.473Z"/><path class="cls-2" d="M84.332,48.758c.4-.291.815-.552,1.218-.838L75.624,34.259,73.233,36l9.926,13.661C83.556,49.362,83.931,49.049,84.332,48.758Z"/><path class="cls-2" d="M90.7,44.434c.419-.266.848-.5,1.268-.76L82.915,29.416,80.42,31l9.048,14.257C89.883,44.988,90.277,44.7,90.7,44.434Z"/><path class="cls-2" d="M97.317,40.517c.435-.239.878-.445,1.314-.678L90.5,25.041l-2.589,1.424,8.135,14.8C96.471,41.02,96.883,40.756,97.317,40.517Z"/><path class="cls-2" d="M104.172,37.024c.449-.21.9-.389,1.353-.594L98.336,21.15l-2.674,1.259,7.19,15.279C103.3,37.473,103.724,37.235,104.172,37.024Z"/><path class="cls-2" d="M111.233,33.969c.461-.182.926-.332,1.388-.509L106.4,17.76l-2.747,1.088,6.216,15.7C110.331,34.361,110.772,34.151,111.233,33.969Z"/><path class="cls-2" d="M118.472,31.363c.471-.153.945-.273,1.417-.42l-5.219-16.06-2.81.913,5.218,16.06C117.547,31.7,118,31.516,118.472,31.363Z"/><path class="cls-2" d="M125.86,29.216c.48-.123.96-.212,1.44-.33L123.1,12.53l-2.863.735,4.2,16.356C124.915,29.492,125.379,29.34,125.86,29.216Z"/><path class="cls-2" d="M133.368,27.538c.487-.093.972-.152,1.458-.239l-3.164-16.588-2.9.554,3.164,16.587C132.408,27.754,132.881,27.631,133.368,27.538Z"/><path class="cls-2" d="M140.966,26.335c.492-.062.98-.091,1.471-.148L140.321,9.434l-2.932.37,2.116,16.754C140,26.49,140.475,26.4,140.966,26.335Z"/><path class="cls-2" d="M148.626,25.611c.5-.032.983-.03,1.477-.055L149.042,8.7l-2.949.185,1.061,16.853C147.646,25.705,148.131,25.642,148.626,25.611Z"/><path class="cls-3" d="M117.892,112.96c-8.014,0-12.322,3.805-12.322,16.027a2.372,2.372,0,0,0,2.506,2.7h2.4c1.5,0,2.1-1.2,2-3.306-.3-4.908.4-9.115,5.108-9.115,3.806,0,5.71,2.5,5.71,9.917,0,13.924-10.719,25.443-17.228,41.169a7.81,7.81,0,0,0-.6,3.205v2.4a1.736,1.736,0,0,0,1.806,1.8H127.91a1.841,1.841,0,0,0,1.9-1.9V173.26a1.841,1.841,0,0,0-1.9-1.9H112.784c5.508-14.125,17.728-26.946,17.728-41.169C130.512,117.969,126.006,112.96,117.892,112.96Z"/><path class="cls-3" d="M147.044,112.96c-7.813,0-12.62,4.908-12.62,19.331s4.408,19.334,11.618,19.334c2.507,0,5.71-1.2,7.116-3.907,0,17.33-.7,24.341-6.411,24.341-4.209,0-5.112-4.207-4.811-9.115.1-2.1-.5-3.3-2-3.3h-2.3a2.373,2.373,0,0,0-2.507,2.7c0,12.219,4.308,16.027,11.622,16.027,12.92,0,13.32-13.224,13.32-37.263C160.067,120.873,157.161,112.96,147.044,112.96Zm0,32.654c-3.105,0-5.409-1.7-5.409-13.323s2.3-13.322,5.409-13.322,6.011,1.705,6.011,13.322S150.152,145.614,147.044,145.614Z"/><path class="cls-3" d="M184.515,128.286c0-10.418-3.1-15.728-9.915-15.728-6.613,0-9.919,5.31-9.919,15.728,0,10.317,3.306,15.726,9.919,15.726C181.411,144.012,184.515,138.6,184.515,128.286Zm-13.922,0c0-6.813.8-10.317,4.007-10.317,3.306,0,4.007,3.5,4.007,10.317,0,6.71-.7,10.317-4.007,10.317C171.393,138.6,170.593,135,170.593,128.286Z"/><path class="cls-3" d="M201.546,113.56h-2a2.886,2.886,0,0,0-2.506,1.905l-28.146,60.4c-.5,1.1.2,1.9,1.3,1.9h2a2.884,2.884,0,0,0,2.5-1.9l28.149-60.4C203.347,114.362,202.647,113.56,201.546,113.56Z"/><path class="cls-3" d="M197.139,147.316c-6.613,0-9.919,5.31-9.919,15.729,0,10.316,3.306,15.726,9.919,15.726,6.81,0,9.915-5.41,9.915-15.726C207.054,152.626,203.949,147.316,197.139,147.316Zm0,26.045c-3.208,0-4.008-3.6-4.008-10.316,0-6.813.8-10.318,4.008-10.318,3.3,0,4.007,3.5,4.007,10.318C201.146,169.756,200.441,173.361,197.139,173.361Z"/></svg>