<svg id="Layer_1" data-name="Layer 1" xmlns="http://www.w3.org/2000/svg" viewBox="0 0 300 300"><defs><style>.cls-1{fill:#f21b16;}.cls-2{fill:#e6e6e6;}.cls-3{fill:#5e5e5e;}</style></defs><path class="cls-1" d="M282.675,193.019l-16-5.4A122.52,122.52,0,0,0,150.646,26.036l-1.41.008L149.1,9.158l1.55-.008c76.818,0,139.314,62.5,139.314,139.313A138.926,138.926,0,0,1,282.675,193.019Z"/><path class="cls-2" d="M264.51,193.547c-.183.461-.393.9-.58,1.36l15.7,6.216,1.088-2.748-15.7-6.216C264.841,192.621,264.692,193.086,264.51,193.547Z"/><path class="cls-2" d="M261.454,200.608c-.211.448-.448.875-.663,1.32l15.279,7.19,1.258-2.673-15.279-7.191C261.843,199.7,261.665,200.159,261.454,200.608Z"/><path class="cls-2" d="M257.961,207.462c-.239.435-.5.846-.745,1.277l14.8,8.135,1.423-2.589-14.8-8.136C258.406,206.585,258.2,207.028,257.961,207.462Z"/><path class="cls-2" d="M254.045,214.084c-.266.419-.554.814-.824,1.228l14.258,9.048,1.583-2.5L254.8,212.817C254.544,213.237,254.31,213.666,254.045,214.084Z"/><path class="cls-2" d="M249.721,220.448c-.292.4-.6.776-.9,1.173l13.661,9.925,1.737-2.39-13.662-9.926C250.272,219.633,250.012,220.047,249.721,220.448Z"/><path class="cls-2" d="M245.005,226.527c-.316.382-.652.737-.971,1.114l13.011,10.764,1.884-2.277-13.011-10.764C245.607,225.748,245.321,226.145,245.005,226.527Z"/><path class="cls-2" d="M239.918,232.3c-.34.361-.7.694-1.04,1.051l12.31,11.559,2.023-2.154L240.9,231.2C240.567,231.559,240.257,231.936,239.918,232.3Z"/><path class="cls-2" d="M234.477,237.738c-.361.339-.739.649-1.1.983l11.56,12.31,2.154-2.023-11.56-12.31C235.172,237.041,234.839,237.4,234.477,237.738Z"/><path class="cls-2" d="M228.706,242.826c-.381.316-.778.6-1.162.912l10.764,13.012,2.277-1.884-10.764-13.012C229.443,242.173,229.088,242.51,228.706,242.826Z"/><path class="cls-2" d="M222.628,247.541c-.4.291-.815.552-1.218.837l9.925,13.662,2.391-1.737L223.8,246.642C223.4,246.937,223.028,247.25,222.628,247.541Z"/><path class="cls-2" d="M216.264,251.866c-.418.265-.847.5-1.267.759l9.048,14.258,2.5-1.584-9.048-14.258C217.077,251.311,216.683,251.6,216.264,251.866Z"/><path class="cls-2" d="M209.642,255.781c-.434.239-.877.446-1.313.679l8.135,14.8,2.59-1.424-8.135-14.8C210.488,255.28,210.077,255.543,209.642,255.781Z"/><path class="cls-2" d="M202.787,259.274c-.448.212-.9.39-1.353.6l7.19,15.279,2.674-1.258-7.19-15.279C203.663,258.826,203.236,259.063,202.787,259.274Z"/><path class="cls-2" d="M195.727,262.33c-.461.182-.927.331-1.388.508l6.216,15.7,2.748-1.088-6.217-15.7C196.629,261.937,196.187,262.147,195.727,262.33Z"/><path class="cls-2" d="M188.488,264.936c-.471.153-.945.273-1.417.42l5.218,16.06,2.811-.913-5.218-16.06C189.413,264.6,188.959,264.783,188.488,264.936Z"/><path class="cls-2" d="M181.1,267.082c-.48.124-.961.213-1.441.331l4.2,16.356,2.862-.735-4.2-16.356C182.044,266.806,181.58,266.959,181.1,267.082Z"/><path class="cls-2" d="M173.592,268.76c-.487.093-.972.153-1.459.24l3.165,16.587,2.9-.553-3.164-16.588C174.552,268.544,174.079,268.668,173.592,268.76Z"/><path class="cls-2" d="M165.993,269.964c-.492.062-.98.091-1.471.147l2.117,16.754,2.932-.371-2.117-16.753C166.965,269.809,166.485,269.9,165.993,269.964Z"/><path class="cls-2" d="M158.334,270.688c-.5.031-.984.029-1.477.055l1.06,16.853,2.949-.186-1.06-16.853C159.313,270.594,158.828,270.657,158.334,270.688Z"/><path class="cls-2" d="M150.644,270.93c-.5,0-.983-.033-1.477-.038v16.886h2.955V270.892C151.627,270.9,151.14,270.93,150.644,270.93Z"/><path class="cls-2" d="M142.954,270.688c-.494-.031-.979-.094-1.472-.131l-1.06,16.853,2.949.186,1.061-16.853C143.938,270.717,143.449,270.719,142.954,270.688Z"/><path class="cls-2" d="M135.295,269.964c-.492-.062-.971-.155-1.461-.223l-2.116,16.753,2.931.371,2.117-16.754C136.275,270.055,135.787,270.026,135.295,269.964Z"/><path class="cls-2" d="M127.7,268.76c-.487-.092-.959-.216-1.444-.314l-3.164,16.588,2.9.553L129.155,269C128.668,268.913,128.183,268.853,127.7,268.76Z"/><path class="cls-2" d="M120.188,267.082c-.48-.123-.944-.276-1.421-.4l-4.2,16.356,2.862.735,4.2-16.356C121.149,267.3,120.668,267.206,120.188,267.082Z"/><path class="cls-2" d="M112.8,264.936c-.471-.153-.925-.335-1.393-.493l-5.218,16.06,2.81.913,5.218-16.06C113.745,265.209,113.272,265.089,112.8,264.936Z"/><path class="cls-2" d="M105.562,262.33c-.461-.183-.9-.393-1.36-.58l-6.216,15.7,2.747,1.088,6.216-15.7C106.488,262.661,106.022,262.512,105.562,262.33Z"/><path class="cls-2" d="M98.5,259.274c-.449-.211-.876-.448-1.321-.663L89.99,273.89l2.674,1.258,7.19-15.279C99.405,259.664,98.949,259.486,98.5,259.274Z"/><path class="cls-2" d="M91.646,255.781c-.434-.238-.846-.5-1.277-.745l-8.135,14.8,2.59,1.424,8.135-14.8C92.523,256.227,92.08,256.02,91.646,255.781Z"/><path class="cls-2" d="M85.024,251.866c-.418-.266-.813-.555-1.227-.825L74.749,265.3l2.494,1.584,9.049-14.258C85.872,252.365,85.442,252.131,85.024,251.866Z"/><path class="cls-2" d="M78.661,247.541c-.4-.291-.777-.6-1.173-.9L67.562,260.3l2.391,1.737,9.926-13.662C79.476,248.093,79.062,247.832,78.661,247.541Z"/><path class="cls-2" d="M72.582,242.826c-.382-.316-.737-.653-1.115-.972L60.7,254.866l2.277,1.884,10.764-13.012C73.36,243.427,72.964,243.142,72.582,242.826Z"/><path class="cls-2" d="M66.811,237.738c-.361-.34-.7-.7-1.051-1.04L54.2,249.008l2.154,2.023,11.56-12.31C67.55,238.387,67.172,238.077,66.811,237.738Z"/><path class="cls-2" d="M61.371,232.3c-.339-.362-.65-.739-.984-1.1l-12.31,11.559,2.023,2.154,12.31-11.559C62.068,232.992,61.71,232.659,61.371,232.3Z"/><path class="cls-2" d="M56.283,226.527c-.316-.382-.6-.779-.913-1.163L42.359,236.128l1.884,2.277,13.011-10.764C56.935,227.264,56.6,226.909,56.283,226.527Z"/><path class="cls-2" d="M51.568,220.448c-.292-.4-.552-.815-.838-1.218l-13.662,9.926,1.738,2.39,13.661-9.925C52.172,221.224,51.859,220.849,51.568,220.448Z"/><path class="cls-2" d="M47.243,214.084c-.265-.418-.5-.847-.76-1.267l-14.257,9.048,1.583,2.5,14.258-9.048C47.8,214.9,47.509,214.5,47.243,214.084Z"/><path class="cls-2" d="M43.327,207.462c-.239-.434-.445-.877-.679-1.313l-14.8,8.136,1.423,2.589,14.8-8.135C43.829,208.308,43.565,207.9,43.327,207.462Z"/><path class="cls-2" d="M39.834,200.608c-.211-.449-.389-.9-.594-1.354l-15.28,7.191,1.258,2.673,15.28-7.19C40.282,201.483,40.045,201.056,39.834,200.608Z"/><path class="cls-2" d="M36.779,193.547c-.183-.461-.332-.926-.509-1.388l-15.7,6.216,1.088,2.748,15.7-6.216C37.171,194.449,36.961,194.008,36.779,193.547Z"/><path class="cls-2" d="M34.173,186.308c-.154-.471-.273-.945-.421-1.417l-16.06,5.218.913,2.811,16.06-5.218C34.508,187.234,34.326,186.78,34.173,186.308Z"/><path class="cls-2" d="M32.026,178.92c-.123-.48-.213-.96-.331-1.44l-16.355,4.2.735,2.862,16.355-4.2C32.3,179.865,32.149,179.4,32.026,178.92Z"/><path class="cls-2" d="M30.348,171.412c-.093-.487-.152-.972-.239-1.458l-16.588,3.164.554,2.9,16.587-3.165C30.564,172.372,30.441,171.9,30.348,171.412Z"/><path class="cls-2" d="M29.144,163.813c-.062-.491-.09-.979-.147-1.47l-16.754,2.116.371,2.932,16.753-2.117C29.3,164.785,29.206,164.305,29.144,163.813Z"/><path class="cls-2" d="M28.42,156.154c-.031-.494-.029-.983-.055-1.477l-16.853,1.06.186,2.95,16.853-1.061C28.514,157.133,28.452,156.649,28.42,156.154Z"/><path class="cls-2" d="M28.179,148.464c0-.5.032-.983.038-1.477H11.33v2.955H28.217C28.211,149.448,28.179,148.96,28.179,148.464Z"/><path class="cls-2" d="M28.42,140.775c.032-.5.094-.979.131-1.473L11.7,138.242l-.186,2.949,16.853,1.061C28.391,141.758,28.389,141.269,28.42,140.775Z"/><path class="cls-2" d="M29.144,133.115c.062-.491.156-.971.223-1.461l-16.753-2.116-.371,2.932L29,134.586C29.054,134.1,29.082,133.607,29.144,133.115Z"/><path class="cls-2" d="M30.348,125.517c.093-.487.216-.96.314-1.444l-16.587-3.165-.554,2.9,16.588,3.164C30.2,126.489,30.255,126,30.348,125.517Z"/><path class="cls-2" d="M32.026,118.009c.123-.48.276-.945.4-1.422l-16.355-4.2-.735,2.863,16.355,4.2C31.813,118.969,31.9,118.489,32.026,118.009Z"/><path class="cls-2" d="M34.173,110.62c.153-.471.335-.925.492-1.393l-16.06-5.218-.913,2.81,16.06,5.219C33.9,111.566,34.019,111.092,34.173,110.62Z"/><path class="cls-2" d="M36.779,103.382c.182-.461.392-.9.579-1.36l-15.7-6.216-1.088,2.747,15.7,6.217C36.447,104.308,36.6,103.842,36.779,103.382Z"/><path class="cls-2" d="M39.834,96.321c.211-.448.448-.876.664-1.321l-15.28-7.19L23.96,90.484l15.28,7.19C39.445,97.225,39.623,96.77,39.834,96.321Z"/><path class="cls-2" d="M43.327,89.466c.238-.434.5-.846.745-1.276l-14.8-8.136-1.423,2.59,14.8,8.135C42.882,90.344,43.088,89.9,43.327,89.466Z"/><path class="cls-2" d="M47.243,82.844c.266-.418.555-.813.824-1.227L33.809,72.569l-1.583,2.495,14.257,9.048C46.744,83.692,46.978,83.262,47.243,82.844Z"/><path class="cls-2" d="M51.568,76.481c.291-.4.6-.777.9-1.173L38.806,65.383l-1.738,2.39L50.73,77.7C51.016,77.3,51.276,76.882,51.568,76.481Z"/><path class="cls-2" d="M56.283,70.4c.316-.382.652-.737.971-1.114L44.243,58.524,42.359,60.8,55.37,71.565C55.681,71.181,55.967,70.784,56.283,70.4Z"/><path class="cls-2" d="M61.371,64.631c.339-.361.7-.694,1.039-1.051L50.1,52.02l-2.023,2.155,12.31,11.559C60.721,65.37,61.032,64.993,61.371,64.631Z"/><path class="cls-2" d="M66.811,59.191c.361-.339.739-.65,1.1-.984L56.354,45.9,54.2,47.921,65.76,60.23C66.116,59.888,66.45,59.53,66.811,59.191Z"/><path class="cls-2" d="M72.582,54.1c.382-.316.778-.6,1.163-.912L62.981,40.179,60.7,42.063,71.467,55.074C71.845,54.755,72.2,54.419,72.582,54.1Z"/><path class="cls-2" d="M78.661,49.388c.4-.292.815-.552,1.218-.838L69.953,34.888l-2.391,1.738,9.926,13.661C77.884,49.992,78.26,49.679,78.661,49.388Z"/><path class="cls-2" d="M85.024,45.063c.418-.265.848-.5,1.268-.759L77.243,30.046l-2.494,1.583L83.8,45.888C84.211,45.618,84.606,45.329,85.024,45.063Z"/><path class="cls-2" d="M91.646,41.147c.434-.238.877-.445,1.313-.678l-8.135-14.8L82.234,27.1l8.135,14.8C90.8,41.649,91.212,41.386,91.646,41.147Z"/><path class="cls-2" d="M98.5,37.655c.448-.212.9-.39,1.353-.595l-7.19-15.28L89.99,23.039l7.19,15.279C97.625,38.1,98.052,37.866,98.5,37.655Z"/><path class="cls-2" d="M105.562,34.6c.46-.182.926-.332,1.387-.508l-6.216-15.7-2.747,1.087,6.216,15.7C104.659,34.991,105.1,34.781,105.562,34.6Z"/><path class="cls-2" d="M112.8,31.993c.472-.153.945-.273,1.417-.421L109,15.512l-2.81.914,5.218,16.06C111.875,32.328,112.329,32.146,112.8,31.993Z"/><path class="cls-2" d="M120.188,29.847c.48-.124.961-.214,1.441-.331l-4.2-16.356-2.862.735,4.2,16.356C119.244,30.123,119.708,29.97,120.188,29.847Z"/><path class="cls-2" d="M127.7,28.168c.487-.093.972-.152,1.459-.239l-3.164-16.587-2.9.553,3.164,16.588C126.737,28.385,127.209,28.261,127.7,28.168Z"/><path class="cls-2" d="M135.295,26.965c.492-.063.98-.091,1.471-.148l-2.117-16.753-2.931.37,2.116,16.754C134.324,27.12,134.8,27.027,135.295,26.965Z"/><path class="cls-2" d="M142.954,26.241c.5-.031.984-.03,1.478-.055L143.371,9.333l-2.949.185,1.06,16.853C141.975,26.335,142.46,26.272,142.954,26.241Z"/><path class="cls-3" d="M118.526,145.143c2.907-2.2,4.91-6.512,4.91-14.125,0-12.419-4.609-17.429-12.121-17.429-8.014,0-12.021,3.806-12.021,16.027a2.373,2.373,0,0,0,2.506,2.7h2.4c1.5,0,2.1-1.2,2-3.306-.3-4.908.4-9.116,4.807-9.116,3.006,0,5.212,1.5,5.212,11.119,0,10.117-1.905,11.42-4.708,11.42H108.71a1.841,1.841,0,0,0-1.9,1.9v2.1a1.841,1.841,0,0,0,1.9,1.9h2.808c3.1,0,5.408,1.3,5.408,12.321s-2.2,12.019-5.709,12.019c-4.408,0-5.31-4.306-5.01-10.216.1-2.1-.5-3.306-2-3.306h-2.4a2.372,2.372,0,0,0-2.506,2.7c0,13.222,4.007,17.13,12.021,17.13,7.512,0,12.822-4.409,12.822-18.331C124.137,152.153,121.932,147.447,118.526,145.143Z"/><path class="cls-3" d="M142.475,113.589c-8.312,0-12.822,5.61-12.822,32.654S134.163,179,142.475,179s12.821-5.71,12.821-32.757S150.79,113.589,142.475,113.589Zm0,58.9c-3.6,0-5.607-2.3-5.607-26.245s2-26.144,5.607-26.144,5.611,2.2,5.611,26.144S146.082,172.488,142.475,172.488Z"/><path class="cls-3" d="M179.744,128.916c0-10.419-3.1-15.729-9.915-15.729-6.613,0-9.919,5.31-9.919,15.729,0,10.317,3.306,15.726,9.919,15.726C176.639,144.642,179.744,139.233,179.744,128.916Zm-13.923,0c0-6.813.8-10.317,4.008-10.317,3.306,0,4.007,3.5,4.007,10.317,0,6.709-.7,10.317-4.007,10.317C166.621,139.233,165.821,135.625,165.821,128.916Z"/><path class="cls-3" d="M196.775,114.189h-2a2.894,2.894,0,0,0-2.507,1.905l-28.145,60.4c-.5,1.1.2,1.9,1.3,1.9h2a2.884,2.884,0,0,0,2.5-1.9l28.15-60.4C198.576,114.991,197.875,114.189,196.775,114.189Z"/><path class="cls-3" d="M192.367,147.946c-6.612,0-9.919,5.31-9.919,15.728,0,10.317,3.307,15.726,9.919,15.726,6.811,0,9.916-5.409,9.916-15.726C202.283,153.256,199.178,147.946,192.367,147.946Zm0,26.045c-3.207,0-4.007-3.605-4.007-10.317,0-6.813.8-10.317,4.007-10.317,3.3,0,4.008,3.5,4.008,10.317C196.375,170.386,195.67,173.991,192.367,173.991Z"/></svg>