<svg id="Layer_1" data-name="Layer 1" xmlns="http://www.w3.org/2000/svg" viewBox="0 0 300 300"><defs><style>.cls-1{fill:#f21b16;}.cls-2{fill:#e6e6e6;}.cls-3{fill:#5e5e5e;}</style></defs><path class="cls-1" d="M280.249,201.222l-15.625-6.4A122.505,122.505,0,0,0,151.275,26.036l-1.4.008-.14-16.886,1.537-.008c76.818,0,139.314,62.5,139.314,139.313A138.543,138.543,0,0,1,280.249,201.222Z"/><path class="cls-2" d="M262.084,200.608c-.211.448-.448.875-.663,1.32l15.279,7.19,1.258-2.673-15.279-7.191C262.473,199.7,262.3,200.159,262.084,200.608Z"/><path class="cls-2" d="M258.592,207.462c-.239.435-.5.846-.746,1.277l14.8,8.135,1.424-2.589-14.8-8.136C259.037,206.585,258.83,207.028,258.592,207.462Z"/><path class="cls-2" d="M254.675,214.084c-.265.419-.554.814-.824,1.228l14.258,9.048,1.583-2.5-14.257-9.048C255.175,213.237,254.941,213.666,254.675,214.084Z"/><path class="cls-2" d="M250.351,220.448c-.292.4-.6.776-.9,1.173l13.662,9.925,1.737-2.39-13.661-9.926C250.9,219.633,250.642,220.047,250.351,220.448Z"/><path class="cls-2" d="M245.635,226.527c-.315.382-.651.737-.971,1.114l13.012,10.764,1.883-2.277-13.011-10.764C246.237,225.748,245.951,226.145,245.635,226.527Z"/><path class="cls-2" d="M240.548,232.3c-.339.361-.7.694-1.039,1.051l12.309,11.559,2.023-2.154L241.531,231.2C241.2,231.559,240.887,231.936,240.548,232.3Z"/><path class="cls-2" d="M235.108,237.738c-.362.339-.74.649-1.1.983l11.56,12.31,2.154-2.023L236.159,236.7C235.8,237.041,235.469,237.4,235.108,237.738Z"/><path class="cls-2" d="M229.337,242.826c-.382.316-.779.6-1.163.912l10.764,13.012,2.277-1.884-10.764-13.012C230.074,242.173,229.719,242.51,229.337,242.826Z"/><path class="cls-2" d="M223.257,247.541c-.4.291-.814.552-1.217.837l9.925,13.662,2.391-1.737-9.925-13.661C224.034,246.937,223.658,247.25,223.257,247.541Z"/><path class="cls-2" d="M216.9,251.866c-.419.265-.848.5-1.269.759l9.049,14.258,2.495-1.584-9.048-14.258C217.707,251.311,217.313,251.6,216.9,251.866Z"/><path class="cls-2" d="M210.273,255.781c-.435.239-.878.446-1.314.679l8.135,14.8,2.59-1.424-8.135-14.8C211.119,255.28,210.707,255.543,210.273,255.781Z"/><path class="cls-2" d="M203.417,259.274c-.448.212-.9.39-1.353.6l7.19,15.279,2.674-1.258-7.19-15.279C204.293,258.826,203.866,259.063,203.417,259.274Z"/><path class="cls-2" d="M196.357,262.33c-.461.182-.926.331-1.388.508l6.216,15.7,2.748-1.088-6.216-15.7C197.259,261.937,196.817,262.147,196.357,262.33Z"/><path class="cls-2" d="M189.118,264.936c-.471.153-.945.273-1.417.42l5.219,16.06,2.81-.913-5.218-16.06C190.043,264.6,189.59,264.783,189.118,264.936Z"/><path class="cls-2" d="M181.73,267.082c-.48.124-.96.213-1.44.331l4.2,16.356,2.862-.735-4.2-16.356C182.674,266.806,182.21,266.959,181.73,267.082Z"/><path class="cls-2" d="M174.222,268.76c-.487.093-.972.153-1.459.24l3.164,16.587,2.9-.553-3.164-16.588C175.182,268.544,174.709,268.668,174.222,268.76Z"/><path class="cls-2" d="M166.623,269.964c-.491.062-.979.091-1.47.147l2.116,16.754,2.932-.371-2.116-16.753C167.6,269.809,167.115,269.9,166.623,269.964Z"/><path class="cls-2" d="M158.964,270.688c-.5.031-.983.029-1.477.055l1.06,16.853,2.95-.186-1.061-16.853C159.943,270.594,159.458,270.657,158.964,270.688Z"/><path class="cls-2" d="M151.274,270.93c-.5,0-.983-.033-1.477-.038v16.886h2.955V270.892C152.258,270.9,151.77,270.93,151.274,270.93Z"/><path class="cls-2" d="M143.585,270.688c-.5-.031-.98-.094-1.473-.131l-1.06,16.853L144,287.6l1.06-16.853C144.568,270.717,144.079,270.719,143.585,270.688Z"/><path class="cls-2" d="M135.925,269.964c-.491-.062-.971-.155-1.461-.223l-2.116,16.753,2.931.371,2.117-16.754C136.905,270.055,136.417,270.026,135.925,269.964Z"/><path class="cls-2" d="M128.326,268.76c-.486-.092-.959-.216-1.444-.314l-3.164,16.588,2.9.553L129.785,269C129.3,268.913,128.813,268.853,128.326,268.76Z"/><path class="cls-2" d="M120.818,267.082c-.48-.123-.944-.276-1.422-.4l-4.2,16.356,2.862.735,4.2-16.356C121.779,267.3,121.3,267.206,120.818,267.082Z"/><path class="cls-2" d="M113.43,264.936c-.471-.153-.925-.335-1.393-.493l-5.218,16.06,2.81.913,5.218-16.06C114.376,265.209,113.9,265.089,113.43,264.936Z"/><path class="cls-2" d="M106.192,262.33c-.461-.183-.9-.393-1.36-.58l-6.217,15.7,2.748,1.088,6.217-15.7C107.118,262.661,106.653,262.512,106.192,262.33Z"/><path class="cls-2" d="M99.131,259.274c-.448-.211-.876-.448-1.321-.663L90.621,273.89l2.673,1.258,7.19-15.279C100.035,259.664,99.579,259.486,99.131,259.274Z"/><path class="cls-2" d="M92.276,255.781c-.434-.238-.846-.5-1.276-.745l-8.135,14.8,2.589,1.424,8.135-14.8C93.154,256.227,92.71,256.02,92.276,255.781Z"/><path class="cls-2" d="M85.654,251.866c-.419-.266-.813-.555-1.227-.825L75.379,265.3l2.495,1.584,9.048-14.258C86.5,252.365,86.073,252.131,85.654,251.866Z"/><path class="cls-2" d="M79.291,247.541c-.4-.291-.776-.6-1.173-.9L68.192,260.3l2.391,1.737,9.925-13.662C80.106,248.093,79.692,247.832,79.291,247.541Z"/><path class="cls-2" d="M73.212,242.826c-.382-.316-.737-.653-1.114-.972L61.334,254.866l2.277,1.884,10.763-13.012C73.99,243.427,73.594,243.142,73.212,242.826Z"/><path class="cls-2" d="M67.441,237.738c-.362-.34-.7-.7-1.051-1.04l-11.56,12.31,2.154,2.023,11.56-12.31C68.18,238.387,67.8,238.077,67.441,237.738Z"/><path class="cls-2" d="M62,232.3c-.34-.362-.649-.739-.984-1.1l-12.31,11.559,2.023,2.154,12.31-11.559C62.7,232.992,62.34,232.659,62,232.3Z"/><path class="cls-2" d="M56.913,226.527c-.316-.382-.6-.779-.912-1.163L42.989,236.128l1.884,2.277,13.011-10.764C57.565,227.264,57.229,226.909,56.913,226.527Z"/><path class="cls-2" d="M52.2,220.448c-.291-.4-.552-.815-.838-1.218L37.7,229.156l1.736,2.39L53.1,221.621C52.8,221.224,52.489,220.849,52.2,220.448Z"/><path class="cls-2" d="M47.873,214.084c-.265-.418-.5-.847-.759-1.267l-14.258,9.048,1.584,2.5L48.7,215.312C48.428,214.9,48.139,214.5,47.873,214.084Z"/><path class="cls-2" d="M43.957,207.462c-.239-.434-.445-.877-.678-1.313l-14.8,8.136,1.424,2.589,14.8-8.135C44.459,208.308,44.2,207.9,43.957,207.462Z"/><path class="cls-2" d="M40.464,200.608c-.211-.449-.389-.9-.594-1.354l-15.28,7.191,1.259,2.673,15.279-7.19C40.913,201.483,40.675,201.056,40.464,200.608Z"/><path class="cls-2" d="M37.409,193.547c-.183-.461-.332-.926-.509-1.388l-15.7,6.216,1.088,2.748,15.7-6.216C37.8,194.449,37.591,194.008,37.409,193.547Z"/><path class="cls-2" d="M34.8,186.308c-.153-.471-.273-.945-.42-1.417l-16.061,5.218.914,2.811L35.3,187.7C35.138,187.234,34.956,186.78,34.8,186.308Z"/><path class="cls-2" d="M32.656,178.92c-.123-.48-.212-.96-.33-1.44l-16.356,4.2.735,2.862,16.356-4.2C32.932,179.865,32.78,179.4,32.656,178.92Z"/><path class="cls-2" d="M30.978,171.412c-.093-.487-.152-.972-.24-1.458l-16.587,3.164.554,2.9,16.587-3.165C31.194,172.372,31.071,171.9,30.978,171.412Z"/><path class="cls-2" d="M29.775,163.813c-.062-.491-.092-.979-.148-1.47l-16.753,2.116.37,2.932L30,165.274C29.93,164.785,29.837,164.305,29.775,163.813Z"/><path class="cls-2" d="M29.051,156.154c-.032-.494-.03-.983-.055-1.477l-16.853,1.06.185,2.95,16.853-1.061C29.145,157.133,29.082,156.649,29.051,156.154Z"/><path class="cls-2" d="M28.809,148.464c0-.5.033-.983.038-1.477H11.961v2.955H28.847C28.842,149.448,28.809,148.96,28.809,148.464Z"/><path class="cls-2" d="M29.051,140.775c.031-.5.094-.979.13-1.473l-16.853-1.06-.185,2.949L29,142.252C29.021,141.758,29.019,141.269,29.051,140.775Z"/><path class="cls-2" d="M29.775,133.115c.062-.491.155-.971.223-1.461l-16.754-2.116-.37,2.932,16.753,2.116C29.683,134.1,29.713,133.607,29.775,133.115Z"/><path class="cls-2" d="M30.978,125.517c.093-.487.216-.96.314-1.444l-16.587-3.165-.554,2.9,16.587,3.164C30.826,126.489,30.885,126,30.978,125.517Z"/><path class="cls-2" d="M32.656,118.009c.124-.48.276-.945.405-1.422l-16.356-4.2-.735,2.863,16.356,4.2C32.444,118.969,32.533,118.489,32.656,118.009Z"/><path class="cls-2" d="M34.8,110.62c.153-.471.335-.925.493-1.393l-16.06-5.218-.914,2.81,16.061,5.219C34.53,111.566,34.65,111.092,34.8,110.62Z"/><path class="cls-2" d="M37.409,103.382c.182-.461.392-.9.579-1.36l-15.7-6.216L21.2,98.553l15.7,6.217C37.077,104.308,37.226,103.842,37.409,103.382Z"/><path class="cls-2" d="M40.464,96.321c.211-.448.449-.876.664-1.321L25.849,87.81,24.59,90.484l15.28,7.19C40.075,97.225,40.253,96.77,40.464,96.321Z"/><path class="cls-2" d="M43.957,89.466c.239-.434.5-.846.745-1.276l-14.8-8.136-1.424,2.59,14.8,8.135C43.512,90.344,43.718,89.9,43.957,89.466Z"/><path class="cls-2" d="M47.873,82.844c.266-.418.555-.813.824-1.227L34.44,72.569l-1.584,2.495,14.258,9.048C47.374,83.692,47.608,83.262,47.873,82.844Z"/><path class="cls-2" d="M52.2,76.481c.291-.4.6-.777.9-1.173L39.435,65.383,37.7,67.773,51.36,77.7C51.646,77.3,51.907,76.882,52.2,76.481Z"/><path class="cls-2" d="M56.913,70.4c.316-.382.652-.737.971-1.114L44.873,58.524,42.989,60.8,56,71.565C56.311,71.181,56.6,70.784,56.913,70.4Z"/><path class="cls-2" d="M62,64.631c.339-.361.7-.694,1.039-1.051L50.73,52.02l-2.023,2.155,12.31,11.559C61.352,65.37,61.661,64.993,62,64.631Z"/><path class="cls-2" d="M67.441,59.191c.361-.339.739-.65,1.1-.984L56.984,45.9,54.83,47.921,66.39,60.23C66.746,59.888,67.079,59.53,67.441,59.191Z"/><path class="cls-2" d="M73.212,54.1c.382-.316.778-.6,1.162-.912L63.611,40.179l-2.277,1.884L72.1,55.074C72.475,54.755,72.83,54.419,73.212,54.1Z"/><path class="cls-2" d="M79.291,49.388c.4-.292.815-.552,1.217-.838L70.583,34.888l-2.391,1.738,9.926,13.661C78.515,49.992,78.89,49.679,79.291,49.388Z"/><path class="cls-2" d="M85.654,45.063c.419-.265.848-.5,1.268-.759L77.874,30.046l-2.495,1.583,9.048,14.259C84.841,45.618,85.235,45.329,85.654,45.063Z"/><path class="cls-2" d="M92.276,41.147c.434-.238.878-.445,1.313-.678l-8.135-14.8L82.865,27.1,91,41.892C91.43,41.649,91.842,41.386,92.276,41.147Z"/><path class="cls-2" d="M99.131,37.655c.448-.212.9-.39,1.353-.595l-7.19-15.28-2.673,1.259L97.81,38.318C98.255,38.1,98.683,37.866,99.131,37.655Z"/><path class="cls-2" d="M106.192,34.6c.461-.182.926-.332,1.388-.508l-6.217-15.7-2.748,1.087,6.217,15.7C105.289,34.991,105.731,34.781,106.192,34.6Z"/><path class="cls-2" d="M113.43,31.993c.472-.153.946-.273,1.417-.421l-5.218-16.06-2.81.914,5.218,16.06C112.505,32.328,112.959,32.146,113.43,31.993Z"/><path class="cls-2" d="M120.818,29.847c.48-.124.961-.214,1.441-.331l-4.2-16.356L115.2,13.9l4.2,16.356C119.874,30.123,120.338,29.97,120.818,29.847Z"/><path class="cls-2" d="M128.326,28.168c.487-.093.973-.152,1.459-.239l-3.164-16.587-2.9.553,3.164,16.588C127.367,28.385,127.84,28.261,128.326,28.168Z"/><path class="cls-2" d="M135.925,26.965c.492-.063.98-.091,1.471-.148l-2.117-16.753-2.931.37,2.116,16.754C134.954,27.12,135.434,27.027,135.925,26.965Z"/><path class="cls-2" d="M143.585,26.241c.494-.031.983-.03,1.476-.055L144,9.333l-2.949.185,1.06,16.853C142.6,26.335,143.09,26.272,143.585,26.241Z"/><path class="cls-3" d="M125.468,145.143c2.906-2.2,4.909-6.512,4.909-14.125,0-12.419-4.609-17.429-12.12-17.429-8.015,0-12.022,3.806-12.022,16.027a2.373,2.373,0,0,0,2.506,2.7h2.4c1.5,0,2.1-1.2,2-3.306-.3-4.908.4-9.116,4.807-9.116,3,0,5.211,1.5,5.211,11.119,0,10.117-1.905,11.42-4.708,11.42h-2.808a1.84,1.84,0,0,0-1.9,1.9v2.1a1.84,1.84,0,0,0,1.9,1.9h2.808c3.1,0,5.409,1.3,5.409,12.321s-2.206,12.019-5.71,12.019c-4.407,0-5.31-4.306-5.009-10.216.1-2.1-.5-3.306-2-3.306h-2.4a2.373,2.373,0,0,0-2.506,2.7c0,13.222,4.007,17.13,12.022,17.13,7.511,0,12.822-4.409,12.822-18.331C131.079,152.153,128.873,147.447,125.468,145.143Z"/><path class="cls-3" d="M145.912,114.189h-2A1.845,1.845,0,0,0,142,116.094v.7c0,3.605-1.7,5.209-4.708,5.209h-.9a1.841,1.841,0,0,0-1.905,1.9v2.2a1.841,1.841,0,0,0,1.905,1.9H140.6V176.5a1.842,1.842,0,0,0,1.905,1.9h3.405a1.84,1.84,0,0,0,1.9-1.9v-60.4A1.841,1.841,0,0,0,145.912,114.189Z"/><path class="cls-3" d="M191.092,114.189h-2a2.888,2.888,0,0,0-2.507,1.905l-28.146,60.4c-.5,1.1.2,1.9,1.3,1.9h2a2.883,2.883,0,0,0,2.5-1.9l28.15-60.4C192.894,114.991,192.193,114.189,191.092,114.189Z"/><path class="cls-3" d="M186.685,147.946c-6.613,0-9.919,5.31-9.919,15.728,0,10.317,3.306,15.726,9.919,15.726,6.811,0,9.915-5.409,9.915-15.726C196.6,153.256,193.5,147.946,186.685,147.946Zm0,26.045c-3.207,0-4.007-3.605-4.007-10.317,0-6.813.8-10.317,4.007-10.317,3.3,0,4.007,3.5,4.007,10.317C190.692,170.386,189.988,173.991,186.685,173.991Z"/><path class="cls-3" d="M174.062,128.916c0-10.419-3.105-15.729-9.915-15.729-6.613,0-9.92,5.31-9.92,15.729,0,10.317,3.307,15.726,9.92,15.726C170.957,144.642,174.062,139.233,174.062,128.916Zm-13.923,0c0-6.813.8-10.317,4.008-10.317,3.306,0,4.007,3.5,4.007,10.317,0,6.709-.7,10.317-4.007,10.317C160.939,139.233,160.139,135.625,160.139,128.916Z"/></svg>