<svg id="Layer_1" data-name="Layer 1" xmlns="http://www.w3.org/2000/svg" viewBox="0 0 300 300"><defs><style>.cls-1{fill:#f21b16;}.cls-2{fill:#e6e6e6;}.cls-3{fill:#5e5e5e;}</style></defs><path class="cls-1" d="M277.309,209.217l-15.2-7.371a121.238,121.238,0,0,0,12.22-53.383A122.567,122.567,0,0,0,151.905,26.036l-1.4.008-.14-16.886,1.538-.008c76.818,0,139.314,62.5,139.314,139.313A138.025,138.025,0,0,1,277.309,209.217Z"/><path class="cls-2" d="M259.221,207.462c-.238.435-.5.846-.745,1.277l14.8,8.135,1.424-2.589-14.8-8.136C259.667,206.585,259.46,207.028,259.221,207.462Z"/><path class="cls-2" d="M255.306,214.084c-.266.419-.555.814-.825,1.228l14.258,9.048,1.584-2.5-14.258-9.048C255.805,213.237,255.571,213.666,255.306,214.084Z"/><path class="cls-2" d="M250.981,220.448c-.291.4-.6.776-.9,1.173l13.661,9.925,1.737-2.39-13.662-9.926C251.533,219.633,251.272,220.047,250.981,220.448Z"/><path class="cls-2" d="M246.266,226.527c-.316.382-.653.737-.972,1.114l13.012,10.764,1.884-2.277-13.012-10.764C246.867,225.748,246.581,226.145,246.266,226.527Z"/><path class="cls-2" d="M241.178,232.3c-.34.361-.7.694-1.04,1.051l12.31,11.559,2.023-2.154L242.161,231.2C241.827,231.559,241.517,231.936,241.178,232.3Z"/><path class="cls-2" d="M235.738,237.738c-.362.339-.739.649-1.1.983l11.559,12.31,2.154-2.023L236.789,236.7C236.432,237.041,236.1,237.4,235.738,237.738Z"/><path class="cls-2" d="M229.967,242.826c-.382.316-.779.6-1.163.912l10.764,13.012,2.277-1.884-10.764-13.012C230.7,242.173,230.348,242.51,229.967,242.826Z"/><path class="cls-2" d="M223.888,247.541c-.4.291-.815.552-1.218.837L232.6,262.04l2.39-1.737-9.925-13.661C224.664,246.937,224.289,247.25,223.888,247.541Z"/><path class="cls-2" d="M217.524,251.866c-.418.265-.847.5-1.267.759l9.048,14.258,2.5-1.584-9.048-14.258C218.338,251.311,217.943,251.6,217.524,251.866Z"/><path class="cls-2" d="M210.9,255.781c-.434.239-.877.446-1.312.679l8.135,14.8,2.589-1.424-8.135-14.8C211.748,255.28,211.337,255.543,210.9,255.781Z"/><path class="cls-2" d="M204.048,259.274c-.449.212-.9.39-1.354.6l7.191,15.279,2.673-1.258-7.19-15.279C204.923,258.826,204.5,259.063,204.048,259.274Z"/><path class="cls-2" d="M196.987,262.33c-.461.182-.926.331-1.388.508l6.216,15.7,2.748-1.088-6.216-15.7C197.889,261.937,197.448,262.147,196.987,262.33Z"/><path class="cls-2" d="M189.748,264.936c-.471.153-.945.273-1.417.42l5.218,16.06,2.811-.913-5.218-16.06C190.674,264.6,190.22,264.783,189.748,264.936Z"/><path class="cls-2" d="M182.36,267.082c-.48.124-.96.213-1.44.331l4.2,16.356,2.862-.735-4.2-16.356C183.305,266.806,182.84,266.959,182.36,267.082Z"/><path class="cls-2" d="M174.852,268.76c-.487.093-.972.153-1.458.24l3.164,16.587,2.9-.553L176.3,268.446C175.812,268.544,175.339,268.668,174.852,268.76Z"/><path class="cls-2" d="M167.253,269.964c-.491.062-.979.091-1.47.147l2.116,16.754,2.932-.371-2.117-16.753C168.225,269.809,167.745,269.9,167.253,269.964Z"/><path class="cls-2" d="M159.594,270.688c-.494.031-.983.029-1.477.055l1.06,16.853,2.95-.186-1.061-16.853C160.573,270.594,160.089,270.657,159.594,270.688Z"/><path class="cls-2" d="M151.9,270.93c-.5,0-.983-.033-1.477-.038v16.886h2.955V270.892C152.888,270.9,152.4,270.93,151.9,270.93Z"/><path class="cls-2" d="M144.215,270.688c-.5-.031-.979-.094-1.473-.131l-1.06,16.853,2.95.186,1.06-16.853C145.2,270.717,144.709,270.719,144.215,270.688Z"/><path class="cls-2" d="M136.555,269.964c-.491-.062-.971-.155-1.461-.223l-2.116,16.753,2.932.371,2.116-16.754C137.535,270.055,137.047,270.026,136.555,269.964Z"/><path class="cls-2" d="M128.957,268.76c-.487-.092-.96-.216-1.444-.314l-3.165,16.588,2.9.553L130.415,269C129.929,268.913,129.444,268.853,128.957,268.76Z"/><path class="cls-2" d="M121.449,267.082c-.48-.123-.945-.276-1.422-.4l-4.2,16.356,2.863.735,4.2-16.356C122.409,267.3,121.929,267.206,121.449,267.082Z"/><path class="cls-2" d="M114.061,264.936c-.472-.153-.926-.335-1.394-.493l-5.218,16.06,2.81.913,5.219-16.06C115.006,265.209,114.532,265.089,114.061,264.936Z"/><path class="cls-2" d="M106.822,262.33c-.461-.183-.9-.393-1.36-.58l-6.216,15.7,2.747,1.088,6.217-15.7C107.748,262.661,107.283,262.512,106.822,262.33Z"/><path class="cls-2" d="M99.761,259.274c-.448-.211-.876-.448-1.321-.663L91.25,273.89l2.674,1.258,7.19-15.279C100.665,259.664,100.21,259.486,99.761,259.274Z"/><path class="cls-2" d="M92.906,255.781c-.434-.238-.846-.5-1.276-.745l-8.135,14.8,2.589,1.424,8.135-14.8C93.784,256.227,93.341,256.02,92.906,255.781Z"/><path class="cls-2" d="M86.284,251.866c-.418-.266-.813-.555-1.227-.825L76.009,265.3l2.5,1.584,9.048-14.258C87.132,252.365,86.7,252.131,86.284,251.866Z"/><path class="cls-2" d="M79.921,247.541c-.4-.291-.777-.6-1.173-.9L68.823,260.3l2.39,1.737,9.926-13.662C80.736,248.093,80.322,247.832,79.921,247.541Z"/><path class="cls-2" d="M73.842,242.826c-.382-.316-.737-.653-1.114-.972L61.964,254.866l2.277,1.884,10.764-13.012C74.621,243.427,74.224,243.142,73.842,242.826Z"/><path class="cls-2" d="M68.071,237.738c-.361-.34-.694-.7-1.051-1.04l-11.56,12.31,2.155,2.023,11.559-12.31C68.81,238.387,68.433,238.077,68.071,237.738Z"/><path class="cls-2" d="M62.631,232.3c-.339-.362-.65-.739-.984-1.1L49.338,242.754l2.023,2.154L63.67,233.349C63.328,232.992,62.97,232.659,62.631,232.3Z"/><path class="cls-2" d="M57.543,226.527c-.316-.382-.6-.779-.912-1.163L43.619,236.128l1.884,2.277,13.011-10.764C58.2,227.264,57.859,226.909,57.543,226.527Z"/><path class="cls-2" d="M52.828,220.448c-.292-.4-.552-.815-.838-1.218l-13.662,9.926,1.738,2.39,13.661-9.925C53.432,221.224,53.119,220.849,52.828,220.448Z"/><path class="cls-2" d="M48.5,214.084c-.265-.418-.5-.847-.759-1.267l-14.258,9.048,1.583,2.5,14.259-9.048C49.058,214.9,48.769,214.5,48.5,214.084Z"/><path class="cls-2" d="M44.587,207.462c-.238-.434-.445-.877-.678-1.313l-14.8,8.136,1.424,2.589,14.8-8.135C45.089,208.308,44.826,207.9,44.587,207.462Z"/><path class="cls-2" d="M41.094,200.608c-.211-.449-.389-.9-.594-1.354l-15.28,7.191,1.259,2.673,15.279-7.19C41.542,201.483,41.306,201.056,41.094,200.608Z"/><path class="cls-2" d="M38.039,193.547c-.182-.461-.332-.926-.508-1.388l-15.7,6.216,1.088,2.748,15.7-6.216C38.431,194.449,38.221,194.008,38.039,193.547Z"/><path class="cls-2" d="M35.433,186.308c-.153-.471-.273-.945-.421-1.417l-16.06,5.218.914,2.811,16.06-5.218C35.768,187.234,35.586,186.78,35.433,186.308Z"/><path class="cls-2" d="M33.287,178.92c-.124-.48-.214-.96-.331-1.44l-16.356,4.2.735,2.862,16.356-4.2C33.563,179.865,33.41,179.4,33.287,178.92Z"/><path class="cls-2" d="M31.608,171.412c-.093-.487-.152-.972-.239-1.458l-16.588,3.164.554,2.9,16.588-3.165C31.825,172.372,31.7,171.9,31.608,171.412Z"/><path class="cls-2" d="M30.405,163.813c-.063-.491-.091-.979-.148-1.47L13.5,164.459l.37,2.932,16.754-2.117C30.56,164.785,30.467,164.305,30.405,163.813Z"/><path class="cls-2" d="M29.681,156.154c-.031-.494-.03-.983-.055-1.477l-16.853,1.06.185,2.95,16.853-1.061C29.775,157.133,29.712,156.649,29.681,156.154Z"/><path class="cls-2" d="M29.439,148.464c0-.5.033-.983.038-1.477H12.59v2.955H29.477C29.472,149.448,29.439,148.96,29.439,148.464Z"/><path class="cls-2" d="M29.681,140.775c.031-.5.094-.979.13-1.473l-16.853-1.06-.185,2.949,16.853,1.061C29.651,141.758,29.65,141.269,29.681,140.775Z"/><path class="cls-2" d="M30.405,133.115c.062-.491.155-.971.223-1.461l-16.754-2.116-.37,2.932,16.753,2.116C30.314,134.1,30.342,133.607,30.405,133.115Z"/><path class="cls-2" d="M31.608,125.517c.093-.487.217-.96.315-1.444l-16.588-3.165-.554,2.9,16.588,3.164C31.456,126.489,31.515,126,31.608,125.517Z"/><path class="cls-2" d="M33.287,118.009c.123-.48.276-.945.4-1.422l-16.356-4.2L16.6,115.25l16.356,4.2C33.073,118.969,33.163,118.489,33.287,118.009Z"/><path class="cls-2" d="M35.433,110.62c.153-.471.335-.925.493-1.393l-16.06-5.218-.914,2.81,16.06,5.219C35.16,111.566,35.28,111.092,35.433,110.62Z"/><path class="cls-2" d="M38.039,103.382c.182-.461.392-.9.58-1.36l-15.7-6.216L21.83,98.553l15.7,6.217C37.707,104.308,37.857,103.842,38.039,103.382Z"/><path class="cls-2" d="M41.094,96.321c.212-.448.448-.876.664-1.321L26.479,87.81,25.22,90.484l15.28,7.19C40.705,97.225,40.883,96.77,41.094,96.321Z"/><path class="cls-2" d="M44.587,89.466c.239-.434.5-.846.746-1.276l-14.8-8.136-1.424,2.59,14.8,8.135C44.142,90.344,44.349,89.9,44.587,89.466Z"/><path class="cls-2" d="M48.5,82.844c.266-.418.555-.813.825-1.227L35.069,72.569l-1.583,2.495,14.258,9.048C48,83.692,48.238,83.262,48.5,82.844Z"/><path class="cls-2" d="M52.828,76.481c.291-.4.6-.777.9-1.173L40.066,65.383l-1.738,2.39L51.99,77.7C52.276,77.3,52.536,76.882,52.828,76.481Z"/><path class="cls-2" d="M57.543,70.4c.316-.382.652-.737.971-1.114L45.5,58.524,43.619,60.8,56.631,71.565C56.942,71.181,57.227,70.784,57.543,70.4Z"/><path class="cls-2" d="M62.631,64.631c.339-.361.7-.694,1.039-1.051L51.361,52.02l-2.023,2.155L61.647,65.734C61.981,65.37,62.292,64.993,62.631,64.631Z"/><path class="cls-2" d="M68.071,59.191c.362-.339.739-.65,1.1-.984L57.615,45.9,55.46,47.921,67.02,60.23C67.377,59.888,67.71,59.53,68.071,59.191Z"/><path class="cls-2" d="M73.842,54.1c.382-.316.779-.6,1.163-.912L64.241,40.179l-2.277,1.884L72.728,55.074C73.105,54.755,73.46,54.419,73.842,54.1Z"/><path class="cls-2" d="M79.921,49.388c.4-.292.815-.552,1.218-.838L71.213,34.888l-2.39,1.738,9.925,13.661C79.144,49.992,79.52,49.679,79.921,49.388Z"/><path class="cls-2" d="M86.284,45.063c.418-.265.848-.5,1.268-.759L78.5,30.046l-2.5,1.583,9.048,14.259C85.471,45.618,85.866,45.329,86.284,45.063Z"/><path class="cls-2" d="M92.906,41.147c.435-.238.878-.445,1.313-.678l-8.135-14.8L83.5,27.1l8.135,14.8C92.06,41.649,92.472,41.386,92.906,41.147Z"/><path class="cls-2" d="M99.761,37.655c.449-.212.9-.39,1.353-.595l-7.19-15.28L91.25,23.039l7.19,15.279C98.885,38.1,99.313,37.866,99.761,37.655Z"/><path class="cls-2" d="M106.822,34.6c.461-.182.926-.332,1.388-.508l-6.217-15.7-2.747,1.087,6.216,15.7C105.92,34.991,106.361,34.781,106.822,34.6Z"/><path class="cls-2" d="M114.061,31.993c.471-.153.945-.273,1.417-.421l-5.219-16.06-2.81.914,5.218,16.06C113.135,32.328,113.589,32.146,114.061,31.993Z"/><path class="cls-2" d="M121.449,29.847c.48-.124.96-.214,1.44-.331l-4.2-16.356-2.863.735,4.2,16.356C120.5,30.123,120.969,29.97,121.449,29.847Z"/><path class="cls-2" d="M128.957,28.168c.487-.093.972-.152,1.458-.239l-3.164-16.587-2.9.553,3.165,16.588C128,28.385,128.47,28.261,128.957,28.168Z"/><path class="cls-2" d="M136.555,26.965c.492-.063.98-.091,1.471-.148L135.91,10.064l-2.932.37,2.116,16.754C135.584,27.12,136.064,27.027,136.555,26.965Z"/><path class="cls-2" d="M144.215,26.241c.494-.031.983-.03,1.477-.055l-1.06-16.853-2.95.185,1.06,16.853C143.236,26.335,143.72,26.272,144.215,26.241Z"/><path class="cls-3" d="M121.64,145.143c2.907-2.2,4.91-6.512,4.91-14.125,0-12.419-4.609-17.429-12.12-17.429-8.015,0-12.022,3.806-12.022,16.027a2.373,2.373,0,0,0,2.507,2.7h2.4c1.5,0,2.1-1.2,2-3.306-.3-4.908.4-9.116,4.807-9.116,3,0,5.211,1.5,5.211,11.119,0,10.117-1.905,11.42-4.708,11.42h-2.808a1.841,1.841,0,0,0-1.9,1.9v2.1a1.841,1.841,0,0,0,1.9,1.9h2.808c3.1,0,5.409,1.3,5.409,12.321s-2.206,12.019-5.71,12.019c-4.407,0-5.31-4.306-5.009-10.216.1-2.1-.5-3.306-2-3.306h-2.4a2.373,2.373,0,0,0-2.507,2.7c0,13.222,4.007,17.13,12.022,17.13,7.511,0,12.821-4.409,12.821-18.331C127.251,152.153,125.045,147.447,121.64,145.143Z"/><path class="cls-3" d="M143.486,113.589c-8.014,0-12.322,3.806-12.322,16.027a2.373,2.373,0,0,0,2.506,2.7h2.4c1.5,0,2.1-1.2,2-3.306-.3-4.908.4-9.116,5.107-9.116,3.806,0,5.711,2.5,5.711,9.917,0,13.925-10.72,25.443-17.229,41.169a7.814,7.814,0,0,0-.6,3.206v2.4a1.735,1.735,0,0,0,1.8,1.8h20.639a1.841,1.841,0,0,0,1.9-1.9V173.89a1.841,1.841,0,0,0-1.9-1.9H138.379c5.507-14.124,17.727-26.946,17.727-41.169C156.106,118.6,151.6,113.589,143.486,113.589Z"/><path class="cls-3" d="M191.775,147.946c-6.612,0-9.919,5.31-9.919,15.728,0,10.317,3.307,15.726,9.919,15.726,6.811,0,9.915-5.409,9.915-15.726C201.69,153.256,198.586,147.946,191.775,147.946Zm0,26.045c-3.207,0-4.007-3.605-4.007-10.317,0-6.813.8-10.317,4.007-10.317,3.3,0,4.008,3.5,4.008,10.317C195.783,170.386,195.078,173.991,191.775,173.991Z"/><path class="cls-3" d="M179.152,128.916c0-10.419-3.1-15.729-9.915-15.729-6.613,0-9.92,5.31-9.92,15.729,0,10.317,3.307,15.726,9.92,15.726C176.047,144.642,179.152,139.233,179.152,128.916Zm-13.923,0c0-6.813.8-10.317,4.008-10.317,3.306,0,4.007,3.5,4.007,10.317,0,6.709-.7,10.317-4.007,10.317C166.029,139.233,165.229,135.625,165.229,128.916Z"/><path class="cls-3" d="M196.182,114.189h-2a2.888,2.888,0,0,0-2.507,1.905l-28.145,60.4c-.5,1.1.2,1.9,1.3,1.9h2a2.884,2.884,0,0,0,2.5-1.9l28.149-60.4C197.984,114.991,197.283,114.189,196.182,114.189Z"/></svg>