<svg id="Layer_1" data-name="Layer 1" xmlns="http://www.w3.org/2000/svg" viewBox="0 0 300 300"><defs><style>.cls-1{fill:#f21b16;}.cls-2{fill:#e6e6e6;}.cls-3{fill:#5e5e5e;}</style></defs><path class="cls-1" d="M273.865,216.972l-14.693-8.315A122.469,122.469,0,0,0,152.535,26.036l-1.406.008-.14-16.886,1.546-.008c76.818,0,139.313,62.5,139.313,139.313A139.338,139.338,0,0,1,273.865,216.972Z"/><path class="cls-2" d="M255.935,214.084c-.265.419-.554.814-.824,1.228l14.258,9.048,1.584-2.5L256.7,212.817C256.435,213.237,256.2,213.666,255.935,214.084Z"/><path class="cls-2" d="M251.611,220.448c-.291.4-.6.776-.9,1.173l13.661,9.925,1.737-2.39-13.661-9.926C252.162,219.633,251.9,220.047,251.611,220.448Z"/><path class="cls-2" d="M246.9,226.527c-.316.382-.652.737-.971,1.114l13.011,10.764,1.883-2.277-13.011-10.764C247.5,225.748,247.211,226.145,246.9,226.527Z"/><path class="cls-2" d="M241.808,232.3c-.339.361-.7.694-1.039,1.051l12.309,11.559,2.023-2.154L242.792,231.2C242.457,231.559,242.147,231.936,241.808,232.3Z"/><path class="cls-2" d="M236.368,237.738c-.362.339-.74.649-1.1.983l11.559,12.31,2.155-2.023-11.56-12.31C237.062,237.041,236.729,237.4,236.368,237.738Z"/><path class="cls-2" d="M230.6,242.826c-.382.316-.779.6-1.163.912L240.2,256.75l2.277-1.884-10.764-13.012C231.334,242.173,230.979,242.51,230.6,242.826Z"/><path class="cls-2" d="M224.518,247.541c-.4.291-.815.552-1.218.837l9.926,13.662,2.39-1.737-9.925-13.661C225.294,246.937,224.919,247.25,224.518,247.541Z"/><path class="cls-2" d="M218.155,251.866c-.419.265-.848.5-1.268.759l9.048,14.258,2.5-1.584-9.048-14.258C218.967,251.311,218.573,251.6,218.155,251.866Z"/><path class="cls-2" d="M211.533,255.781c-.435.239-.878.446-1.314.679l8.135,14.8,2.59-1.424-8.135-14.8C212.379,255.28,211.967,255.543,211.533,255.781Z"/><path class="cls-2" d="M204.678,259.274c-.449.212-.9.39-1.353.6l7.189,15.279,2.674-1.258L206,258.611C205.554,258.826,205.126,259.063,204.678,259.274Z"/><path class="cls-2" d="M197.617,262.33c-.461.182-.926.331-1.388.508l6.217,15.7,2.747-1.088-6.216-15.7C198.519,261.937,198.078,262.147,197.617,262.33Z"/><path class="cls-2" d="M190.379,264.936c-.472.153-.946.273-1.418.42l5.219,16.06,2.81-.913-5.218-16.06C191.3,264.6,190.85,264.783,190.379,264.936Z"/><path class="cls-2" d="M182.99,267.082c-.48.124-.96.213-1.44.331l4.2,16.356,2.862-.735-4.2-16.356C183.935,266.806,183.47,266.959,182.99,267.082Z"/><path class="cls-2" d="M175.482,268.76c-.487.093-.972.153-1.459.24l3.165,16.587,2.9-.553-3.165-16.588C176.442,268.544,175.969,268.668,175.482,268.76Z"/><path class="cls-2" d="M167.884,269.964c-.492.062-.98.091-1.471.147l2.116,16.754,2.932-.371-2.116-16.753C168.855,269.809,168.375,269.9,167.884,269.964Z"/><path class="cls-2" d="M160.224,270.688c-.495.031-.983.029-1.477.055l1.06,16.853,2.95-.186L161.7,270.557C161.2,270.594,160.719,270.657,160.224,270.688Z"/><path class="cls-2" d="M152.535,270.93c-.5,0-.984-.033-1.478-.038v16.886h2.955V270.892C153.518,270.9,153.03,270.93,152.535,270.93Z"/><path class="cls-2" d="M144.845,270.688c-.5-.031-.98-.094-1.473-.131l-1.06,16.853,2.95.186,1.06-16.853C145.828,270.717,145.339,270.719,144.845,270.688Z"/><path class="cls-2" d="M137.186,269.964c-.492-.062-.972-.155-1.462-.223l-2.116,16.753,2.932.371,2.116-16.754C138.165,270.055,137.677,270.026,137.186,269.964Z"/><path class="cls-2" d="M129.587,268.76c-.487-.092-.96-.216-1.445-.314l-3.164,16.588,2.9.553L131.045,269C130.559,268.913,130.073,268.853,129.587,268.76Z"/><path class="cls-2" d="M122.078,267.082c-.48-.123-.944-.276-1.421-.4l-4.2,16.356,2.863.735,4.2-16.356C123.039,267.3,122.558,267.206,122.078,267.082Z"/><path class="cls-2" d="M114.691,264.936c-.472-.153-.926-.335-1.394-.493l-5.218,16.06,2.81.913,5.218-16.06C115.636,265.209,115.162,265.089,114.691,264.936Z"/><path class="cls-2" d="M107.452,262.33c-.461-.183-.9-.393-1.36-.58l-6.216,15.7,2.747,1.088,6.217-15.7C108.378,262.661,107.913,262.512,107.452,262.33Z"/><path class="cls-2" d="M100.391,259.274c-.448-.211-.875-.448-1.32-.663l-7.19,15.279,2.673,1.258,7.191-15.279C101.3,259.664,100.84,259.486,100.391,259.274Z"/><path class="cls-2" d="M93.536,255.781c-.434-.238-.846-.5-1.276-.745l-8.135,14.8,2.589,1.424,8.135-14.8C94.414,256.227,93.97,256.02,93.536,255.781Z"/><path class="cls-2" d="M86.914,251.866c-.418-.266-.813-.555-1.227-.825L76.639,265.3l2.5,1.584,9.048-14.258C87.762,252.365,87.333,252.131,86.914,251.866Z"/><path class="cls-2" d="M80.551,247.541c-.4-.291-.776-.6-1.173-.9L69.452,260.3l2.391,1.737,9.926-13.662C81.366,248.093,80.952,247.832,80.551,247.541Z"/><path class="cls-2" d="M74.472,242.826c-.382-.316-.737-.653-1.114-.972L62.594,254.866l2.277,1.884,10.764-13.012C75.25,243.427,74.854,243.142,74.472,242.826Z"/><path class="cls-2" d="M68.7,237.738c-.361-.34-.694-.7-1.051-1.04l-11.559,12.31,2.154,2.023L69.8,238.721C69.44,238.387,69.062,238.077,68.7,237.738Z"/><path class="cls-2" d="M63.261,232.3c-.339-.362-.649-.739-.984-1.1L49.968,242.754l2.023,2.154L64.3,233.349C63.958,232.992,63.6,232.659,63.261,232.3Z"/><path class="cls-2" d="M58.173,226.527c-.316-.382-.6-.779-.912-1.163L44.249,236.128l1.884,2.277,13.011-10.764C58.825,227.264,58.489,226.909,58.173,226.527Z"/><path class="cls-2" d="M53.458,220.448c-.291-.4-.552-.815-.838-1.218l-13.661,9.926,1.737,2.39,13.661-9.925C54.062,221.224,53.749,220.849,53.458,220.448Z"/><path class="cls-2" d="M49.133,214.084c-.265-.418-.5-.847-.759-1.267l-14.258,9.048,1.584,2.5,14.257-9.048C49.688,214.9,49.4,214.5,49.133,214.084Z"/><path class="cls-2" d="M45.217,207.462c-.239-.434-.445-.877-.678-1.313l-14.8,8.136,1.424,2.589,14.8-8.135C45.719,208.308,45.456,207.9,45.217,207.462Z"/><path class="cls-2" d="M41.724,200.608c-.211-.449-.389-.9-.594-1.354l-15.279,7.191,1.258,2.673,15.279-7.19C42.173,201.483,41.936,201.056,41.724,200.608Z"/><path class="cls-2" d="M38.669,193.547c-.182-.461-.332-.926-.509-1.388l-15.7,6.216,1.088,2.748,15.7-6.216C39.061,194.449,38.852,194.008,38.669,193.547Z"/><path class="cls-2" d="M36.063,186.308c-.153-.471-.273-.945-.42-1.417l-16.06,5.218.913,2.811,16.06-5.218C36.4,187.234,36.216,186.78,36.063,186.308Z"/><path class="cls-2" d="M33.916,178.92c-.123-.48-.212-.96-.33-1.44l-16.356,4.2.735,2.862,16.356-4.2C34.193,179.865,34.04,179.4,33.916,178.92Z"/><path class="cls-2" d="M32.238,171.412c-.092-.487-.152-.972-.239-1.458l-16.588,3.164.554,2.9,16.587-3.165C32.454,172.372,32.331,171.9,32.238,171.412Z"/><path class="cls-2" d="M31.035,163.813c-.062-.491-.091-.979-.148-1.47l-16.753,2.116.371,2.932,16.753-2.117C31.19,164.785,31.1,164.305,31.035,163.813Z"/><path class="cls-2" d="M30.311,156.154c-.031-.494-.029-.983-.055-1.477L13.4,155.737l.185,2.95,16.854-1.061C30.405,157.133,30.342,156.649,30.311,156.154Z"/><path class="cls-2" d="M30.069,148.464c0-.5.033-.983.038-1.477H13.221v2.955H30.107C30.1,149.448,30.069,148.96,30.069,148.464Z"/><path class="cls-2" d="M30.311,140.775c.031-.5.094-.979.131-1.473l-16.854-1.06-.185,2.949,16.853,1.061C30.282,141.758,30.28,141.269,30.311,140.775Z"/><path class="cls-2" d="M31.035,133.115c.062-.491.155-.971.223-1.461l-16.753-2.116-.371,2.932,16.753,2.116C30.944,134.1,30.973,133.607,31.035,133.115Z"/><path class="cls-2" d="M32.238,125.517c.093-.487.216-.96.314-1.444l-16.587-3.165-.554,2.9L32,126.975C32.086,126.489,32.146,126,32.238,125.517Z"/><path class="cls-2" d="M33.916,118.009c.124-.48.277-.945.405-1.422l-16.356-4.2-.735,2.863,16.356,4.2C33.7,118.969,33.793,118.489,33.916,118.009Z"/><path class="cls-2" d="M36.063,110.62c.153-.471.335-.925.493-1.393L20.5,104.009l-.913,2.81,16.06,5.219C35.79,111.566,35.91,111.092,36.063,110.62Z"/><path class="cls-2" d="M38.669,103.382c.183-.461.392-.9.579-1.36l-15.7-6.216L22.46,98.553l15.7,6.217C38.337,104.308,38.487,103.842,38.669,103.382Z"/><path class="cls-2" d="M41.724,96.321c.212-.448.449-.876.664-1.321L27.109,87.81l-1.258,2.674,15.279,7.19C41.335,97.225,41.513,96.77,41.724,96.321Z"/><path class="cls-2" d="M45.217,89.466c.239-.434.5-.846.745-1.276l-14.8-8.136-1.424,2.59,14.8,8.135C44.772,90.344,44.978,89.9,45.217,89.466Z"/><path class="cls-2" d="M49.133,82.844c.266-.418.555-.813.824-1.227L35.7,72.569l-1.584,2.495,14.258,9.048C48.634,83.692,48.868,83.262,49.133,82.844Z"/><path class="cls-2" d="M53.458,76.481c.291-.4.6-.777.9-1.173L40.7,65.383l-1.737,2.39L52.62,77.7C52.906,77.3,53.167,76.882,53.458,76.481Z"/><path class="cls-2" d="M58.173,70.4c.316-.382.652-.737.971-1.114L46.133,58.524,44.249,60.8,57.261,71.565C57.572,71.181,57.857,70.784,58.173,70.4Z"/><path class="cls-2" d="M63.261,64.631c.339-.361.7-.694,1.039-1.051L51.991,52.02l-2.023,2.155L62.277,65.734C62.612,65.37,62.922,64.993,63.261,64.631Z"/><path class="cls-2" d="M68.7,59.191c.361-.339.739-.65,1.1-.984L58.245,45.9l-2.154,2.023L67.65,60.23C68.007,59.888,68.34,59.53,68.7,59.191Z"/><path class="cls-2" d="M74.472,54.1c.382-.316.778-.6,1.163-.912L64.871,40.179l-2.277,1.884L73.358,55.074C73.735,54.755,74.09,54.419,74.472,54.1Z"/><path class="cls-2" d="M80.551,49.388c.4-.292.815-.552,1.218-.838L71.843,34.888l-2.391,1.738,9.926,13.661C79.775,49.992,80.15,49.679,80.551,49.388Z"/><path class="cls-2" d="M86.914,45.063c.419-.265.848-.5,1.268-.759L79.134,30.046l-2.5,1.583,9.048,14.259C86.1,45.618,86.5,45.329,86.914,45.063Z"/><path class="cls-2" d="M93.536,41.147c.434-.238.878-.445,1.313-.678l-8.135-14.8L84.125,27.1l8.135,14.8C92.69,41.649,93.1,41.386,93.536,41.147Z"/><path class="cls-2" d="M100.391,37.655c.449-.212.9-.39,1.354-.595L94.554,21.78l-2.673,1.259,7.19,15.279C99.516,38.1,99.943,37.866,100.391,37.655Z"/><path class="cls-2" d="M107.452,34.6c.461-.182.926-.332,1.388-.508l-6.217-15.7-2.747,1.087,6.216,15.7C106.55,34.991,106.991,34.781,107.452,34.6Z"/><path class="cls-2" d="M114.691,31.993c.471-.153.945-.273,1.416-.421l-5.218-16.06-2.81.914,5.218,16.06C113.765,32.328,114.219,32.146,114.691,31.993Z"/><path class="cls-2" d="M122.078,29.847c.48-.124.961-.214,1.441-.331l-4.2-16.356-2.863.735,4.2,16.356C121.134,30.123,121.6,29.97,122.078,29.847Z"/><path class="cls-2" d="M129.587,28.168c.486-.093.972-.152,1.458-.239l-3.164-16.587-2.9.553,3.164,16.588C128.627,28.385,129.1,28.261,129.587,28.168Z"/><path class="cls-2" d="M137.186,26.965c.491-.063.979-.091,1.47-.148L136.54,10.064l-2.932.37,2.116,16.754C136.214,27.12,136.694,27.027,137.186,26.965Z"/><path class="cls-2" d="M144.845,26.241c.494-.031.983-.03,1.477-.055l-1.06-16.853-2.95.185,1.06,16.853C143.865,26.335,144.35,26.272,144.845,26.241Z"/><path class="cls-3" d="M121.82,145.143c2.907-2.2,4.911-6.512,4.911-14.125,0-12.419-4.61-17.429-12.121-17.429-8.015,0-12.022,3.806-12.022,16.027a2.373,2.373,0,0,0,2.507,2.7h2.4c1.5,0,2.1-1.2,2-3.306-.3-4.908.4-9.116,4.807-9.116,3,0,5.211,1.5,5.211,11.119,0,10.117-1.905,11.42-4.708,11.42H112a1.84,1.84,0,0,0-1.9,1.9v2.1a1.84,1.84,0,0,0,1.9,1.9h2.808c3.1,0,5.409,1.3,5.409,12.321s-2.206,12.019-5.71,12.019c-4.407,0-5.31-4.306-5.009-10.216.1-2.1-.5-3.306-2-3.306h-2.4a2.373,2.373,0,0,0-2.507,2.7c0,13.222,4.007,17.13,12.022,17.13,7.511,0,12.821-4.409,12.821-18.331C127.431,152.153,125.226,147.447,121.82,145.143Z"/><path class="cls-3" d="M150.877,145.143c2.907-2.2,4.91-6.512,4.91-14.125,0-12.419-4.609-17.429-12.12-17.429-8.015,0-12.022,3.806-12.022,16.027a2.373,2.373,0,0,0,2.506,2.7h2.4c1.5,0,2.1-1.2,2-3.306-.3-4.908.4-9.116,4.808-9.116,3,0,5.211,1.5,5.211,11.119,0,10.117-1.905,11.42-4.709,11.42h-2.807a1.841,1.841,0,0,0-1.9,1.9v2.1a1.841,1.841,0,0,0,1.9,1.9h2.807c3.105,0,5.41,1.3,5.41,12.321s-2.206,12.019-5.711,12.019c-4.407,0-5.31-4.306-5.009-10.216.1-2.1-.5-3.306-2-3.306h-2.4a2.373,2.373,0,0,0-2.506,2.7c0,13.222,4.007,17.13,12.022,17.13,7.511,0,12.821-4.409,12.821-18.331C156.488,152.153,154.282,147.447,150.877,145.143Z"/><path class="cls-3" d="M180.235,128.916c0-10.419-3.105-15.729-9.915-15.729-6.613,0-9.919,5.31-9.919,15.729,0,10.317,3.306,15.726,9.919,15.726C177.13,144.642,180.235,139.233,180.235,128.916Zm-13.923,0c0-6.813.8-10.317,4.008-10.317,3.306,0,4.007,3.5,4.007,10.317,0,6.709-.7,10.317-4.007,10.317C167.112,139.233,166.312,135.625,166.312,128.916Z"/><path class="cls-3" d="M197.266,114.189h-2a2.889,2.889,0,0,0-2.507,1.905L164.61,176.5c-.5,1.1.2,1.9,1.3,1.9h2a2.884,2.884,0,0,0,2.5-1.9l28.149-60.4C199.067,114.991,198.366,114.189,197.266,114.189Z"/><path class="cls-3" d="M192.858,147.946c-6.612,0-9.919,5.31-9.919,15.728,0,10.317,3.307,15.726,9.919,15.726,6.811,0,9.916-5.409,9.916-15.726C202.774,153.256,199.669,147.946,192.858,147.946Zm0,26.045c-3.207,0-4.007-3.605-4.007-10.317,0-6.813.8-10.317,4.007-10.317,3.3,0,4.007,3.5,4.007,10.317C196.865,170.386,196.161,173.991,192.858,173.991Z"/></svg>