<svg id="Layer_1" data-name="Layer 1" xmlns="http://www.w3.org/2000/svg" viewBox="0 0 300 300"><defs><style>.cls-1{fill:#f21b16;}.cls-2{fill:#e6e6e6;}.cls-3{fill:#5e5e5e;}</style></defs><path class="cls-1" d="M269.952,224.451l-14.15-9.223A122.449,122.449,0,0,0,153.164,26.036l-1.406.008-.14-16.886,1.546-.008c76.818,0,139.314,62.5,139.314,139.313A138.811,138.811,0,0,1,269.952,224.451Z"/><path class="cls-2" d="M252.241,220.448c-.291.4-.6.776-.9,1.173L265,231.546l1.738-2.39-13.662-9.926C252.793,219.633,252.533,220.047,252.241,220.448Z"/><path class="cls-2" d="M247.526,226.527c-.316.382-.652.737-.971,1.114l13.011,10.764,1.884-2.277-13.011-10.764C248.127,225.748,247.842,226.145,247.526,226.527Z"/><path class="cls-2" d="M242.438,232.3c-.339.361-.7.694-1.039,1.051l12.309,11.559,2.023-2.154L243.422,231.2C243.088,231.559,242.777,231.936,242.438,232.3Z"/><path class="cls-2" d="M237,237.738c-.361.339-.739.649-1.1.983l11.56,12.31,2.154-2.023-11.56-12.31C237.692,237.041,237.359,237.4,237,237.738Z"/><path class="cls-2" d="M231.227,242.826c-.382.316-.778.6-1.163.912l10.764,13.012,2.277-1.884-10.764-13.012C231.964,242.173,231.609,242.51,231.227,242.826Z"/><path class="cls-2" d="M225.148,247.541c-.4.291-.815.552-1.218.837l9.926,13.662,2.391-1.737-9.926-13.661C225.925,246.937,225.549,247.25,225.148,247.541Z"/><path class="cls-2" d="M218.785,251.866c-.418.265-.848.5-1.268.759l9.048,14.258,2.5-1.584-9.048-14.258C219.6,251.311,219.2,251.6,218.785,251.866Z"/><path class="cls-2" d="M212.163,255.781c-.434.239-.878.446-1.313.679l8.135,14.8,2.59-1.424-8.136-14.8C213.009,255.28,212.6,255.543,212.163,255.781Z"/><path class="cls-2" d="M205.308,259.274c-.448.212-.9.39-1.353.6l7.19,15.279,2.674-1.258-7.19-15.279C206.184,258.826,205.756,259.063,205.308,259.274Z"/><path class="cls-2" d="M198.247,262.33c-.46.182-.926.331-1.387.508l6.216,15.7,2.747-1.088-6.216-15.7C199.149,261.937,198.708,262.147,198.247,262.33Z"/><path class="cls-2" d="M191.009,264.936c-.472.153-.946.273-1.417.42l5.218,16.06,2.81-.913-5.218-16.06C191.934,264.6,191.48,264.783,191.009,264.936Z"/><path class="cls-2" d="M183.621,267.082c-.48.124-.961.213-1.441.331l4.2,16.356,2.863-.735-4.2-16.356C184.565,266.806,184.1,266.959,183.621,267.082Z"/><path class="cls-2" d="M176.112,268.76c-.486.093-.971.153-1.458.24l3.164,16.587,2.9-.553-3.164-16.588C177.072,268.544,176.6,268.668,176.112,268.76Z"/><path class="cls-2" d="M168.514,269.964c-.492.062-.98.091-1.471.147l2.116,16.754,2.932-.371-2.116-16.753C169.485,269.809,169.005,269.9,168.514,269.964Z"/><path class="cls-2" d="M160.855,270.688c-.495.031-.984.029-1.478.055l1.061,16.853,2.949-.186-1.06-16.853C161.834,270.594,161.349,270.657,160.855,270.688Z"/><path class="cls-2" d="M153.165,270.93c-.5,0-.984-.033-1.478-.038v16.886h2.955V270.892C154.148,270.9,153.661,270.93,153.165,270.93Z"/><path class="cls-2" d="M145.475,270.688c-.5-.031-.979-.094-1.472-.131l-1.06,16.853,2.949.186,1.06-16.853C146.458,270.717,145.969,270.719,145.475,270.688Z"/><path class="cls-2" d="M137.816,269.964c-.492-.062-.972-.155-1.461-.223l-2.117,16.753,2.932.371,2.117-16.754C138.795,270.055,138.307,270.026,137.816,269.964Z"/><path class="cls-2" d="M130.217,268.76c-.487-.092-.96-.216-1.444-.314l-3.164,16.588,2.9.553L131.675,269C131.189,268.913,130.7,268.853,130.217,268.76Z"/><path class="cls-2" d="M122.709,267.082c-.48-.123-.945-.276-1.422-.4l-4.2,16.356,2.862.735,4.2-16.356C123.67,267.3,123.189,267.206,122.709,267.082Z"/><path class="cls-2" d="M115.321,264.936c-.472-.153-.925-.335-1.394-.493l-5.218,16.06,2.811.913,5.218-16.06C116.266,265.209,115.792,265.089,115.321,264.936Z"/><path class="cls-2" d="M108.082,262.33c-.461-.183-.9-.393-1.36-.58l-6.216,15.7,2.748,1.088,6.216-15.7C109.008,262.661,108.543,262.512,108.082,262.33Z"/><path class="cls-2" d="M101.021,259.274c-.448-.211-.875-.448-1.32-.663l-7.19,15.279,2.674,1.258,7.19-15.279C101.925,259.664,101.47,259.486,101.021,259.274Z"/><path class="cls-2" d="M94.167,255.781c-.435-.238-.846-.5-1.277-.745l-8.135,14.8,2.59,1.424,8.135-14.8C95.044,256.227,94.6,256.02,94.167,255.781Z"/><path class="cls-2" d="M87.545,251.866c-.419-.266-.813-.555-1.228-.825L77.269,265.3l2.495,1.584,9.048-14.258C88.392,252.365,87.963,252.131,87.545,251.866Z"/><path class="cls-2" d="M81.181,247.541c-.4-.291-.776-.6-1.173-.9L70.083,260.3l2.39,1.737L82.4,248.378C82,248.093,81.582,247.832,81.181,247.541Z"/><path class="cls-2" d="M75.1,242.826c-.381-.316-.736-.653-1.114-.972L63.224,254.866,65.5,256.75l10.764-13.012C75.881,243.427,75.484,243.142,75.1,242.826Z"/><path class="cls-2" d="M69.331,237.738c-.361-.34-.694-.7-1.05-1.04l-11.56,12.31,2.154,2.023,11.559-12.31C70.07,238.387,69.693,238.077,69.331,237.738Z"/><path class="cls-2" d="M63.891,232.3c-.339-.362-.649-.739-.983-1.1L50.6,242.754l2.023,2.154,12.31-11.559C64.588,232.992,64.231,232.659,63.891,232.3Z"/><path class="cls-2" d="M58.8,226.527c-.315-.382-.6-.779-.912-1.163L44.88,236.128l1.883,2.277,13.012-10.764C59.456,227.264,59.12,226.909,58.8,226.527Z"/><path class="cls-2" d="M54.088,220.448c-.291-.4-.552-.815-.837-1.218l-13.662,9.926,1.737,2.39,13.661-9.925C54.692,221.224,54.38,220.849,54.088,220.448Z"/><path class="cls-2" d="M49.764,214.084c-.266-.418-.5-.847-.76-1.267l-14.258,9.048,1.584,2.5,14.258-9.048C50.318,214.9,50.03,214.5,49.764,214.084Z"/><path class="cls-2" d="M45.848,207.462c-.239-.434-.446-.877-.679-1.313l-14.8,8.136,1.424,2.589,14.8-8.135C46.35,208.308,46.086,207.9,45.848,207.462Z"/><path class="cls-2" d="M42.355,200.608c-.211-.449-.39-.9-.595-1.354l-15.279,7.191,1.258,2.673,15.279-7.19C42.8,201.483,42.566,201.056,42.355,200.608Z"/><path class="cls-2" d="M39.3,193.547c-.182-.461-.331-.926-.508-1.388l-15.7,6.216,1.088,2.748,15.7-6.216C39.692,194.449,39.482,194.008,39.3,193.547Z"/><path class="cls-2" d="M36.693,186.308c-.153-.471-.273-.945-.42-1.417l-16.06,5.218.913,2.811,16.06-5.218C37.028,187.234,36.846,186.78,36.693,186.308Z"/><path class="cls-2" d="M34.547,178.92c-.124-.48-.213-.96-.331-1.44l-16.356,4.2.735,2.862,16.356-4.2C34.823,179.865,34.67,179.4,34.547,178.92Z"/><path class="cls-2" d="M32.869,171.412c-.093-.487-.153-.972-.24-1.458l-16.587,3.164.554,2.9,16.587-3.165C33.085,172.372,32.962,171.9,32.869,171.412Z"/><path class="cls-2" d="M31.665,163.813c-.062-.491-.091-.979-.147-1.47l-16.754,2.116.371,2.932,16.753-2.117C31.82,164.785,31.727,164.305,31.665,163.813Z"/><path class="cls-2" d="M30.941,156.154c-.031-.494-.029-.983-.055-1.477l-16.853,1.06.186,2.95,16.853-1.061C31.035,157.133,30.972,156.649,30.941,156.154Z"/><path class="cls-2" d="M30.7,148.464c0-.5.032-.983.038-1.477H13.851v2.955H30.738C30.732,149.448,30.7,148.96,30.7,148.464Z"/><path class="cls-2" d="M30.941,140.775c.031-.5.094-.979.131-1.473l-16.853-1.06-.186,2.949,16.853,1.061C30.912,141.758,30.91,141.269,30.941,140.775Z"/><path class="cls-2" d="M31.665,133.115c.062-.491.155-.971.223-1.461l-16.753-2.116-.371,2.932,16.754,2.116C31.574,134.1,31.6,133.607,31.665,133.115Z"/><path class="cls-2" d="M32.869,125.517c.093-.487.216-.96.314-1.444L16.6,120.908l-.554,2.9,16.587,3.164C32.716,126.489,32.776,126,32.869,125.517Z"/><path class="cls-2" d="M34.547,118.009c.123-.48.276-.945.4-1.422l-16.356-4.2-.735,2.863,16.356,4.2C34.334,118.969,34.423,118.489,34.547,118.009Z"/><path class="cls-2" d="M36.693,110.62c.153-.471.335-.925.493-1.393l-16.06-5.218-.913,2.81,16.06,5.219C36.42,111.566,36.54,111.092,36.693,110.62Z"/><path class="cls-2" d="M39.3,103.382c.183-.461.393-.9.58-1.36l-15.7-6.216L23.09,98.553l15.7,6.217C38.968,104.308,39.117,103.842,39.3,103.382Z"/><path class="cls-2" d="M42.355,96.321c.211-.448.448-.876.663-1.321L27.739,87.81l-1.258,2.674,15.279,7.19C41.965,97.225,42.144,96.77,42.355,96.321Z"/><path class="cls-2" d="M45.848,89.466c.238-.434.5-.846.745-1.276L31.8,80.054l-1.424,2.59,14.8,8.135C45.4,90.344,45.609,89.9,45.848,89.466Z"/><path class="cls-2" d="M49.764,82.844c.266-.418.554-.813.824-1.227L36.33,72.569l-1.584,2.495L49,84.112C49.265,83.692,49.5,83.262,49.764,82.844Z"/><path class="cls-2" d="M54.088,76.481c.292-.4.6-.777.9-1.173L41.326,65.383l-1.737,2.39L53.251,77.7C53.536,77.3,53.8,76.882,54.088,76.481Z"/><path class="cls-2" d="M58.8,70.4c.317-.382.653-.737.972-1.114L46.763,58.524,44.88,60.8,57.891,71.565C58.2,71.181,58.488,70.784,58.8,70.4Z"/><path class="cls-2" d="M63.891,64.631c.34-.361.7-.694,1.04-1.051L52.621,52.02,50.6,54.175l12.31,11.559C63.242,65.37,63.552,64.993,63.891,64.631Z"/><path class="cls-2" d="M69.331,59.191c.362-.339.739-.65,1.1-.984L58.875,45.9l-2.154,2.023L68.281,60.23C68.637,59.888,68.97,59.53,69.331,59.191Z"/><path class="cls-2" d="M75.1,54.1c.382-.316.779-.6,1.163-.912L65.5,40.179l-2.277,1.884L73.988,55.074C74.366,54.755,74.721,54.419,75.1,54.1Z"/><path class="cls-2" d="M81.181,49.388c.4-.292.815-.552,1.218-.838L72.473,34.888l-2.39,1.738,9.925,13.661C80.405,49.992,80.78,49.679,81.181,49.388Z"/><path class="cls-2" d="M87.545,45.063c.418-.265.847-.5,1.267-.759L79.764,30.046l-2.495,1.583,9.048,14.259C86.732,45.618,87.126,45.329,87.545,45.063Z"/><path class="cls-2" d="M94.167,41.147c.434-.238.877-.445,1.313-.678l-8.135-14.8L84.755,27.1l8.135,14.8C93.321,41.649,93.732,41.386,94.167,41.147Z"/><path class="cls-2" d="M101.021,37.655c.449-.212.9-.39,1.354-.595l-7.19-15.28-2.674,1.259L99.7,38.318C100.146,38.1,100.573,37.866,101.021,37.655Z"/><path class="cls-2" d="M108.082,34.6c.461-.182.926-.332,1.388-.508l-6.216-15.7-2.748,1.087,6.216,15.7C107.18,34.991,107.621,34.781,108.082,34.6Z"/><path class="cls-2" d="M115.321,31.993c.471-.153.945-.273,1.417-.421l-5.218-16.06-2.811.914,5.218,16.06C114.4,32.328,114.849,32.146,115.321,31.993Z"/><path class="cls-2" d="M122.709,29.847c.48-.124.961-.214,1.441-.331l-4.2-16.356-2.862.735,4.2,16.356C121.764,30.123,122.229,29.97,122.709,29.847Z"/><path class="cls-2" d="M130.217,28.168c.487-.093.972-.152,1.458-.239l-3.164-16.587-2.9.553,3.164,16.588C129.257,28.385,129.73,28.261,130.217,28.168Z"/><path class="cls-2" d="M137.816,26.965c.491-.063.979-.091,1.471-.148L137.17,10.064l-2.932.37,2.117,16.754C136.844,27.12,137.324,27.027,137.816,26.965Z"/><path class="cls-2" d="M145.475,26.241c.494-.031.983-.03,1.477-.055l-1.06-16.853-2.949.185L144,26.371C144.5,26.335,144.98,26.272,145.475,26.241Z"/><path class="cls-3" d="M122.751,145.143c2.907-2.2,4.91-6.512,4.91-14.125,0-12.419-4.609-17.429-12.121-17.429-8.014,0-12.022,3.806-12.022,16.027a2.373,2.373,0,0,0,2.507,2.7h2.4c1.5,0,2.1-1.2,2-3.306-.3-4.908.4-9.116,4.807-9.116,3.006,0,5.212,1.5,5.212,11.119,0,10.117-1.9,11.42-4.709,11.42h-2.807a1.841,1.841,0,0,0-1.9,1.9v2.1a1.841,1.841,0,0,0,1.9,1.9h2.807c3.1,0,5.409,1.3,5.409,12.321s-2.2,12.019-5.71,12.019c-4.407,0-5.31-4.306-5.009-10.216.1-2.1-.5-3.306-2-3.306h-2.4a2.373,2.373,0,0,0-2.507,2.7c0,13.222,4.008,17.13,12.022,17.13,7.512,0,12.822-4.409,12.822-18.331C128.362,152.153,126.156,147.447,122.751,145.143Z"/><path class="cls-3" d="M156.817,157.863h-3.905V146.445a1.843,1.843,0,0,0-1.9-1.9H147.8a1.84,1.84,0,0,0-1.9,1.9v11.418h-7.714L148.1,120a19.8,19.8,0,0,0,.8-4.007,1.737,1.737,0,0,0-1.805-1.8H144a1.952,1.952,0,0,0-2,1.7l-10.215,40.969a17.847,17.847,0,0,0-.6,3.206v2.405a1.734,1.734,0,0,0,1.805,1.8H145.9V176.5a1.84,1.84,0,0,0,1.9,1.9h3.208a1.843,1.843,0,0,0,1.9-1.9V164.274h3.905a1.842,1.842,0,0,0,1.9-1.9v-2.6A1.844,1.844,0,0,0,156.817,157.863Z"/><path class="cls-3" d="M180.563,128.916c0-10.419-3.1-15.729-9.915-15.729-6.612,0-9.919,5.31-9.919,15.729,0,10.317,3.307,15.726,9.919,15.726C177.459,144.642,180.563,139.233,180.563,128.916Zm-13.922,0c0-6.813.8-10.317,4.007-10.317,3.307,0,4.007,3.5,4.007,10.317,0,6.709-.7,10.317-4.007,10.317C167.441,139.233,166.641,135.625,166.641,128.916Z"/><path class="cls-3" d="M193.187,147.946c-6.613,0-9.919,5.31-9.919,15.728,0,10.317,3.306,15.726,9.919,15.726,6.81,0,9.915-5.409,9.915-15.726C203.1,153.256,200,147.946,193.187,147.946Zm0,26.045c-3.207,0-4.007-3.605-4.007-10.317,0-6.813.8-10.317,4.007-10.317,3.3,0,4.007,3.5,4.007,10.317C197.194,170.386,196.489,173.991,193.187,173.991Z"/><path class="cls-3" d="M197.594,114.189h-2a2.893,2.893,0,0,0-2.507,1.905l-28.145,60.4c-.5,1.1.2,1.9,1.3,1.9h2a2.884,2.884,0,0,0,2.5-1.9l28.15-60.4C199.4,114.991,198.7,114.189,197.594,114.189Z"/></svg>