<svg id="Layer_1" data-name="Layer 1" xmlns="http://www.w3.org/2000/svg" viewBox="0 0 300 300"><defs><style>.cls-1{fill:#f21b16;}.cls-2{fill:#e6e6e6;}.cls-3{fill:#5e5e5e;}</style></defs><path class="cls-1" d="M265.572,231.628,252.033,221.54a122.441,122.441,0,0,0-98.24-195.5l-1.405.008-.141-16.886,1.546-.008c76.818,0,139.314,62.5,139.314,139.313A138.149,138.149,0,0,1,265.572,231.628Z"/><path class="cls-2" d="M248.156,226.527c-.316.382-.652.737-.971,1.114L260.2,238.405l1.883-2.277-13.011-10.764C248.758,225.748,248.472,226.145,248.156,226.527Z"/><path class="cls-2" d="M243.068,232.3c-.339.361-.7.694-1.039,1.051l12.31,11.559,2.023-2.154L244.052,231.2C243.718,231.559,243.407,231.936,243.068,232.3Z"/><path class="cls-2" d="M237.628,237.738c-.361.339-.739.649-1.1.983l11.559,12.31,2.155-2.023-11.56-12.31C238.323,237.041,237.989,237.4,237.628,237.738Z"/><path class="cls-2" d="M231.857,242.826c-.382.316-.778.6-1.163.912l10.764,13.012,2.277-1.884-10.764-13.012C232.594,242.173,232.239,242.51,231.857,242.826Z"/><path class="cls-2" d="M225.778,247.541c-.4.291-.815.552-1.218.837l9.926,13.662,2.391-1.737-9.926-13.661C226.554,246.937,226.179,247.25,225.778,247.541Z"/><path class="cls-2" d="M219.415,251.866c-.419.265-.848.5-1.268.759l9.048,14.258,2.5-1.584-9.048-14.258C220.228,251.311,219.833,251.6,219.415,251.866Z"/><path class="cls-2" d="M212.793,255.781c-.435.239-.877.446-1.313.679l8.135,14.8,2.59-1.424-8.136-14.8C213.639,255.28,213.227,255.543,212.793,255.781Z"/><path class="cls-2" d="M205.938,259.274c-.449.212-.9.39-1.353.6l7.19,15.279,2.674-1.258-7.19-15.279C206.814,258.826,206.386,259.063,205.938,259.274Z"/><path class="cls-2" d="M198.877,262.33c-.461.182-.926.331-1.388.508l6.217,15.7,2.747-1.088-6.216-15.7C199.78,261.937,199.338,262.147,198.877,262.33Z"/><path class="cls-2" d="M191.639,264.936c-.472.153-.946.273-1.418.42l5.219,16.06,2.81-.913-5.218-16.06C192.564,264.6,192.11,264.783,191.639,264.936Z"/><path class="cls-2" d="M184.251,267.082c-.48.124-.961.213-1.441.331l4.2,16.356,2.862-.735-4.2-16.356C185.2,266.806,184.731,266.959,184.251,267.082Z"/><path class="cls-2" d="M176.743,268.76c-.488.093-.973.153-1.459.24l3.164,16.587,2.9-.553-3.164-16.588C177.7,268.544,177.229,268.668,176.743,268.76Z"/><path class="cls-2" d="M169.144,269.964c-.492.062-.98.091-1.471.147l2.117,16.754,2.932-.371-2.117-16.753C170.115,269.809,169.636,269.9,169.144,269.964Z"/><path class="cls-2" d="M161.484,270.688c-.494.031-.983.029-1.477.055l1.061,16.853,2.949-.186-1.061-16.853C162.464,270.594,161.979,270.657,161.484,270.688Z"/><path class="cls-2" d="M153.795,270.93c-.5,0-.983-.033-1.478-.038v16.886h2.955V270.892C154.778,270.9,154.29,270.93,153.795,270.93Z"/><path class="cls-2" d="M146.1,270.688c-.494-.031-.979-.094-1.472-.131l-1.061,16.853,2.95.186,1.06-16.853C147.089,270.717,146.6,270.719,146.1,270.688Z"/><path class="cls-2" d="M138.446,269.964c-.492-.062-.972-.155-1.461-.223l-2.117,16.753,2.932.371,2.116-16.754C139.426,270.055,138.937,270.026,138.446,269.964Z"/><path class="cls-2" d="M130.847,268.76c-.487-.092-.96-.216-1.444-.314l-3.165,16.588,2.9.553L132.306,269C131.819,268.913,131.334,268.853,130.847,268.76Z"/><path class="cls-2" d="M123.339,267.082c-.48-.123-.944-.276-1.422-.4l-4.2,16.356,2.863.735,4.2-16.356C124.3,267.3,123.819,267.206,123.339,267.082Z"/><path class="cls-2" d="M115.951,264.936c-.471-.153-.925-.335-1.393-.493l-5.219,16.06,2.811.913,5.218-16.06C116.9,265.209,116.422,265.089,115.951,264.936Z"/><path class="cls-2" d="M108.712,262.33c-.461-.183-.9-.393-1.359-.58l-6.217,15.7,2.748,1.088,6.216-15.7C109.639,262.661,109.173,262.512,108.712,262.33Z"/><path class="cls-2" d="M101.652,259.274c-.449-.211-.876-.448-1.321-.663l-7.19,15.279,2.674,1.258,7.19-15.279C102.555,259.664,102.1,259.486,101.652,259.274Z"/><path class="cls-2" d="M94.8,255.781c-.435-.238-.846-.5-1.277-.745l-8.135,14.8,2.59,1.424,8.135-14.8C95.674,256.227,95.231,256.02,94.8,255.781Z"/><path class="cls-2" d="M88.175,251.866c-.419-.266-.813-.555-1.228-.825L77.9,265.3l2.5,1.584,9.049-14.258C89.022,252.365,88.593,252.131,88.175,251.866Z"/><path class="cls-2" d="M81.811,247.541c-.4-.291-.776-.6-1.172-.9L70.713,260.3,73.1,262.04l9.925-13.662C82.626,248.093,82.212,247.832,81.811,247.541Z"/><path class="cls-2" d="M75.733,242.826c-.383-.316-.738-.653-1.115-.972L63.854,254.866l2.277,1.884L76.9,243.738C76.511,243.427,76.114,243.142,75.733,242.826Z"/><path class="cls-2" d="M69.962,237.738c-.362-.34-.7-.7-1.052-1.04l-11.559,12.31,2.154,2.023,11.56-12.31C70.7,238.387,70.323,238.077,69.962,237.738Z"/><path class="cls-2" d="M64.522,232.3c-.34-.362-.65-.739-.985-1.1L51.228,242.754l2.023,2.154,12.31-11.559C65.218,232.992,64.861,232.659,64.522,232.3Z"/><path class="cls-2" d="M59.434,226.527c-.316-.382-.6-.779-.913-1.163L45.51,236.128l1.884,2.277,13.011-10.764C60.085,227.264,59.749,226.909,59.434,226.527Z"/><path class="cls-2" d="M54.718,220.448c-.291-.4-.551-.815-.837-1.218l-13.662,9.926,1.737,2.39,13.661-9.925C55.323,221.224,55.009,220.849,54.718,220.448Z"/><path class="cls-2" d="M50.394,214.084c-.266-.418-.5-.847-.76-1.267l-14.257,9.048,1.583,2.5,14.258-9.048C50.948,214.9,50.659,214.5,50.394,214.084Z"/><path class="cls-2" d="M46.477,207.462c-.238-.434-.444-.877-.678-1.313L31,214.285l1.424,2.589,14.8-8.135C46.98,208.308,46.716,207.9,46.477,207.462Z"/><path class="cls-2" d="M42.985,200.608c-.211-.449-.389-.9-.595-1.354l-15.279,7.191,1.258,2.673,15.28-7.19C43.433,201.483,43.2,201.056,42.985,200.608Z"/><path class="cls-2" d="M39.929,193.547c-.182-.461-.332-.926-.508-1.388l-15.7,6.216,1.088,2.748,15.7-6.216C40.321,194.449,40.112,194.008,39.929,193.547Z"/><path class="cls-2" d="M37.323,186.308c-.153-.471-.272-.945-.42-1.417l-16.06,5.218.913,2.811,16.06-5.218C37.658,187.234,37.477,186.78,37.323,186.308Z"/><path class="cls-2" d="M35.177,178.92c-.123-.48-.213-.96-.33-1.44l-16.357,4.2.735,2.862,16.356-4.2C35.453,179.865,35.3,179.4,35.177,178.92Z"/><path class="cls-2" d="M33.5,171.412c-.092-.487-.151-.972-.239-1.458l-16.587,3.164.553,2.9,16.588-3.165C33.715,172.372,33.591,171.9,33.5,171.412Z"/><path class="cls-2" d="M32.3,163.813c-.062-.491-.091-.979-.147-1.47l-16.754,2.116.371,2.932,16.753-2.117C32.451,164.785,32.357,164.305,32.3,163.813Z"/><path class="cls-2" d="M31.571,156.154c-.031-.494-.029-.983-.055-1.477l-16.853,1.06.186,2.95L31.7,157.626C31.665,157.133,31.6,156.649,31.571,156.154Z"/><path class="cls-2" d="M31.329,148.464c0-.5.033-.983.038-1.477H14.481v2.955H31.367C31.362,149.448,31.329,148.96,31.329,148.464Z"/><path class="cls-2" d="M31.571,140.775c.031-.5.094-.979.131-1.473l-16.853-1.06-.186,2.949,16.853,1.061C31.542,141.758,31.54,141.269,31.571,140.775Z"/><path class="cls-2" d="M32.3,133.115c.062-.491.156-.971.223-1.461l-16.753-2.116-.371,2.932,16.754,2.116C32.2,134.1,32.233,133.607,32.3,133.115Z"/><path class="cls-2" d="M33.5,125.517c.093-.487.217-.96.315-1.444l-16.588-3.165-.553,2.9,16.587,3.164C33.347,126.489,33.406,126,33.5,125.517Z"/><path class="cls-2" d="M35.177,118.009c.123-.48.276-.945.4-1.422l-16.356-4.2-.735,2.863,16.357,4.2C34.964,118.969,35.054,118.489,35.177,118.009Z"/><path class="cls-2" d="M37.323,110.62c.154-.471.335-.925.493-1.393l-16.06-5.218-.913,2.81,16.06,5.219C37.051,111.566,37.17,111.092,37.323,110.62Z"/><path class="cls-2" d="M39.929,103.382c.183-.461.392-.9.58-1.36l-15.7-6.216L23.72,98.553l15.7,6.217C39.6,104.308,39.747,103.842,39.929,103.382Z"/><path class="cls-2" d="M42.985,96.321c.211-.448.448-.876.664-1.321l-15.28-7.19-1.258,2.674,15.279,7.19C42.6,97.225,42.774,96.77,42.985,96.321Z"/><path class="cls-2" d="M46.477,89.466c.239-.434.5-.846.746-1.276l-14.8-8.136L31,82.644l14.8,8.135C46.033,90.344,46.239,89.9,46.477,89.466Z"/><path class="cls-2" d="M50.394,82.844c.265-.418.554-.813.824-1.227L36.96,72.569l-1.583,2.495,14.257,9.048C49.894,83.692,50.128,83.262,50.394,82.844Z"/><path class="cls-2" d="M54.718,76.481c.291-.4.6-.777.9-1.173L41.956,65.383l-1.737,2.39L53.881,77.7C54.167,77.3,54.427,76.882,54.718,76.481Z"/><path class="cls-2" d="M59.434,70.4c.315-.382.651-.737.971-1.114L47.394,58.524,45.51,60.8,58.521,71.565C58.832,71.181,59.118,70.784,59.434,70.4Z"/><path class="cls-2" d="M64.522,64.631c.339-.361.7-.694,1.039-1.051L53.251,52.02l-2.023,2.155L63.537,65.734C63.872,65.37,64.182,64.993,64.522,64.631Z"/><path class="cls-2" d="M69.962,59.191c.361-.339.738-.65,1.1-.984L59.505,45.9l-2.154,2.023L68.91,60.23C69.267,59.888,69.6,59.53,69.962,59.191Z"/><path class="cls-2" d="M75.733,54.1c.381-.316.778-.6,1.162-.912L66.131,40.179l-2.277,1.884L74.618,55.074C75,54.755,75.35,54.419,75.733,54.1Z"/><path class="cls-2" d="M81.811,49.388c.4-.292.815-.552,1.218-.838L73.1,34.888l-2.391,1.738,9.926,13.661C81.035,49.992,81.411,49.679,81.811,49.388Z"/><path class="cls-2" d="M88.175,45.063c.418-.265.847-.5,1.268-.759L80.394,30.046l-2.5,1.583,9.048,14.259C87.362,45.618,87.756,45.329,88.175,45.063Z"/><path class="cls-2" d="M94.8,41.147c.434-.238.877-.445,1.313-.678l-8.135-14.8L85.385,27.1l8.135,14.8C93.951,41.649,94.362,41.386,94.8,41.147Z"/><path class="cls-2" d="M101.652,37.655c.448-.212.9-.39,1.353-.595l-7.19-15.28-2.674,1.259,7.19,15.279C100.776,38.1,101.2,37.866,101.652,37.655Z"/><path class="cls-2" d="M108.712,34.6c.461-.182.927-.332,1.388-.508l-6.216-15.7-2.748,1.087,6.217,15.7C107.81,34.991,108.251,34.781,108.712,34.6Z"/><path class="cls-2" d="M115.951,31.993c.471-.153.945-.273,1.417-.421l-5.218-16.06-2.811.914,5.219,16.06C115.026,32.328,115.48,32.146,115.951,31.993Z"/><path class="cls-2" d="M123.339,29.847c.48-.124.96-.214,1.44-.331l-4.2-16.356-2.863.735,4.2,16.356C122.4,30.123,122.859,29.97,123.339,29.847Z"/><path class="cls-2" d="M130.847,28.168c.487-.093.972-.152,1.459-.239l-3.165-16.587-2.9.553L129.4,28.483C129.887,28.385,130.36,28.261,130.847,28.168Z"/><path class="cls-2" d="M138.446,26.965c.491-.063.98-.091,1.47-.148L137.8,10.064l-2.932.37,2.117,16.754C137.474,27.12,137.954,27.027,138.446,26.965Z"/><path class="cls-2" d="M146.1,26.241c.5-.031.984-.03,1.477-.055l-1.06-16.853-2.95.185,1.061,16.853C145.126,26.335,145.611,26.272,146.1,26.241Z"/><path class="cls-3" d="M122.931,145.143c2.906-2.2,4.91-6.512,4.91-14.125,0-12.419-4.609-17.429-12.12-17.429-8.015,0-12.022,3.806-12.022,16.027a2.373,2.373,0,0,0,2.506,2.7h2.4c1.5,0,2.1-1.2,2-3.306-.3-4.908.4-9.116,4.808-9.116,3,0,5.21,1.5,5.21,11.119,0,10.117-1.9,11.42-4.708,11.42h-2.807a1.841,1.841,0,0,0-1.9,1.9v2.1a1.841,1.841,0,0,0,1.9,1.9h2.807c3.105,0,5.41,1.3,5.41,12.321s-2.206,12.019-5.711,12.019c-4.407,0-5.31-4.306-5.009-10.216.1-2.1-.5-3.306-2-3.306h-2.4a2.373,2.373,0,0,0-2.506,2.7c0,13.222,4.007,17.13,12.022,17.13,7.511,0,12.821-4.409,12.821-18.331C128.542,152.153,126.336,147.447,122.931,145.143Z"/><path class="cls-3" d="M147.383,136.728a8.4,8.4,0,0,0-5.211,1.9V120.6H155.8a1.839,1.839,0,0,0,1.9-1.9v-2.6a1.841,1.841,0,0,0-1.9-1.905H137.064a1.845,1.845,0,0,0-1.905,1.905V149.35a2.2,2.2,0,0,0,2.408,2.4h1.7c1.4,0,1.8-1.1,1.8-3,0-3.206,1.4-6.009,4.807-6.009,3.706,0,5.512,2.6,5.512,15.124,0,12.622-2.3,14.926-5.611,14.926-5.611,0-5.009-6.11-4.807-9.216.1-2.1-.5-3.3-2-3.3h-2.4a2.373,2.373,0,0,0-2.507,2.7c0,10.317,2.606,16.027,12.022,16.027,8.814,0,12.121-6.512,12.121-21.137S155.1,136.728,147.383,136.728Z"/><path class="cls-3" d="M181.646,128.916c0-10.419-3.1-15.729-9.915-15.729-6.613,0-9.919,5.31-9.919,15.729,0,10.317,3.306,15.726,9.919,15.726C178.542,144.642,181.646,139.233,181.646,128.916Zm-13.922,0c0-6.813.8-10.317,4.007-10.317,3.307,0,4.008,3.5,4.008,10.317,0,6.709-.7,10.317-4.008,10.317C168.524,139.233,167.724,135.625,167.724,128.916Z"/><path class="cls-3" d="M198.677,114.189h-2a2.893,2.893,0,0,0-2.506,1.905l-28.146,60.4c-.5,1.1.2,1.9,1.3,1.9h2a2.884,2.884,0,0,0,2.5-1.9l28.15-60.4C200.479,114.991,199.778,114.189,198.677,114.189Z"/><path class="cls-3" d="M194.27,147.946c-6.613,0-9.919,5.31-9.919,15.728,0,10.317,3.306,15.726,9.919,15.726,6.811,0,9.915-5.409,9.915-15.726C204.185,153.256,201.081,147.946,194.27,147.946Zm0,26.045c-3.208,0-4.007-3.605-4.007-10.317,0-6.813.8-10.317,4.007-10.317,3.3,0,4.007,3.5,4.007,10.317C198.277,170.386,197.572,173.991,194.27,173.991Z"/></svg>