<svg id="Layer_1" data-name="Layer 1" xmlns="http://www.w3.org/2000/svg" viewBox="0 0 300 300"><defs><style>.cls-1{fill:#f21b16;}.cls-2{fill:#e6e6e6;}.cls-3{fill:#5e5e5e;}</style></defs><path class="cls-1" d="M260.755,238.478l-12.879-10.917A122.431,122.431,0,0,0,154.427,26.036l-1.41.008-.14-16.886,1.55-.008c76.818,0,139.314,62.5,139.314,139.313A139.36,139.36,0,0,1,260.755,238.478Z"/><path class="cls-2" d="M243.7,232.3c-.34.361-.7.694-1.04,1.051l12.31,11.559,2.023-2.154L244.682,231.2C244.348,231.559,244.038,231.936,243.7,232.3Z"/><path class="cls-2" d="M238.259,237.738c-.362.339-.74.649-1.1.983l11.56,12.31,2.154-2.023-11.56-12.31C238.953,237.041,238.619,237.4,238.259,237.738Z"/><path class="cls-2" d="M232.488,242.826c-.383.316-.779.6-1.164.912l10.764,13.012,2.278-1.884L233.6,241.854C233.224,242.173,232.869,242.51,232.488,242.826Z"/><path class="cls-2" d="M226.408,247.541c-.4.291-.814.552-1.218.837l9.926,13.662,2.391-1.737-9.926-13.661C227.185,246.937,226.809,247.25,226.408,247.541Z"/><path class="cls-2" d="M220.045,251.866c-.418.265-.848.5-1.268.759l9.049,14.258,2.5-1.584-9.049-14.258C220.858,251.311,220.464,251.6,220.045,251.866Z"/><path class="cls-2" d="M213.423,255.781c-.434.239-.877.446-1.313.679l8.135,14.8,2.59-1.424-8.135-14.8C214.269,255.28,213.857,255.543,213.423,255.781Z"/><path class="cls-2" d="M206.568,259.274c-.448.212-.9.39-1.353.6l7.19,15.279,2.674-1.258-7.19-15.279C207.444,258.826,207.017,259.063,206.568,259.274Z"/><path class="cls-2" d="M199.507,262.33c-.46.182-.926.331-1.387.508l6.216,15.7,2.747-1.088-6.215-15.7C200.41,261.937,199.968,262.147,199.507,262.33Z"/><path class="cls-2" d="M192.269,264.936c-.472.153-.945.273-1.417.42l5.218,16.06,2.81-.913-5.218-16.06C193.194,264.6,192.74,264.783,192.269,264.936Z"/><path class="cls-2" d="M184.881,267.082c-.48.124-.961.213-1.441.331l4.2,16.356,2.862-.735-4.2-16.356C185.825,266.806,185.361,266.959,184.881,267.082Z"/><path class="cls-2" d="M177.373,268.76c-.487.093-.972.153-1.459.24l3.164,16.587,2.9-.553-3.164-16.588C178.332,268.544,177.86,268.668,177.373,268.76Z"/><path class="cls-2" d="M169.774,269.964c-.492.062-.979.091-1.471.147l2.117,16.754,2.932-.371-2.117-16.753C170.745,269.809,170.266,269.9,169.774,269.964Z"/><path class="cls-2" d="M162.115,270.688c-.5.031-.984.029-1.477.055L161.7,287.6l2.949-.186-1.06-16.853C163.094,270.594,162.61,270.657,162.115,270.688Z"/><path class="cls-2" d="M154.425,270.93c-.5,0-.983-.033-1.478-.038v16.886H155.9V270.892C155.408,270.9,154.921,270.93,154.425,270.93Z"/><path class="cls-2" d="M146.735,270.688c-.494-.031-.979-.094-1.472-.131L144.2,287.41l2.949.186,1.06-16.853C147.719,270.717,147.23,270.719,146.735,270.688Z"/><path class="cls-2" d="M139.076,269.964c-.491-.062-.971-.155-1.461-.223L135.5,286.494l2.931.371,2.117-16.754C140.056,270.055,139.568,270.026,139.076,269.964Z"/><path class="cls-2" d="M131.477,268.76c-.486-.092-.96-.216-1.444-.314l-3.164,16.588,2.9.553L132.936,269C132.449,268.913,131.964,268.853,131.477,268.76Z"/><path class="cls-2" d="M123.969,267.082c-.48-.123-.944-.276-1.422-.4l-4.2,16.356,2.862.735,4.2-16.356C124.93,267.3,124.449,267.206,123.969,267.082Z"/><path class="cls-2" d="M116.581,264.936c-.471-.153-.925-.335-1.393-.493L109.97,280.5l2.81.913L118,265.356C117.526,265.209,117.053,265.089,116.581,264.936Z"/><path class="cls-2" d="M109.343,262.33c-.461-.183-.9-.393-1.36-.58l-6.217,15.7,2.748,1.088,6.216-15.7C110.269,262.661,109.8,262.512,109.343,262.33Z"/><path class="cls-2" d="M102.282,259.274c-.448-.211-.876-.448-1.321-.663l-7.19,15.279,2.674,1.258,7.19-15.279C103.185,259.664,102.73,259.486,102.282,259.274Z"/><path class="cls-2" d="M95.427,255.781c-.435-.238-.846-.5-1.276-.745l-8.136,14.8,2.59,1.424,8.135-14.8C96.3,256.227,95.861,256.02,95.427,255.781Z"/><path class="cls-2" d="M88.805,251.866c-.419-.266-.813-.555-1.227-.825L78.529,265.3l2.5,1.584,9.049-14.258C89.652,252.365,89.223,252.131,88.805,251.866Z"/><path class="cls-2" d="M82.442,247.541c-.4-.291-.777-.6-1.173-.9L71.343,260.3l2.391,1.737,9.925-13.662C83.256,248.093,82.843,247.832,82.442,247.541Z"/><path class="cls-2" d="M76.363,242.826c-.382-.316-.737-.653-1.115-.972L64.484,254.866l2.278,1.884,10.763-13.012C77.141,243.427,76.744,243.142,76.363,242.826Z"/><path class="cls-2" d="M70.592,237.738c-.362-.34-.695-.7-1.051-1.04l-11.56,12.31,2.154,2.023,11.56-12.31C71.331,238.387,70.953,238.077,70.592,237.738Z"/><path class="cls-2" d="M65.152,232.3c-.34-.362-.65-.739-.984-1.1l-12.31,11.559,2.023,2.154,12.31-11.559C65.848,232.992,65.491,232.659,65.152,232.3Z"/><path class="cls-2" d="M60.064,226.527c-.316-.382-.6-.779-.913-1.163L46.14,236.128l1.884,2.277,13.011-10.764C60.716,227.264,60.38,226.909,60.064,226.527Z"/><path class="cls-2" d="M55.348,220.448c-.291-.4-.551-.815-.837-1.218l-13.662,9.926,1.737,2.39,13.662-9.925C55.953,221.224,55.64,220.849,55.348,220.448Z"/><path class="cls-2" d="M51.024,214.084c-.265-.418-.5-.847-.759-1.267l-14.258,9.048,1.583,2.5,14.258-9.048C51.578,214.9,51.29,214.5,51.024,214.084Z"/><path class="cls-2" d="M47.108,207.462c-.239-.434-.445-.877-.679-1.313l-14.8,8.136,1.423,2.589,14.8-8.135C47.61,208.308,47.347,207.9,47.108,207.462Z"/><path class="cls-2" d="M43.615,200.608c-.211-.449-.389-.9-.595-1.354l-15.279,7.191L29,209.118l15.28-7.19C44.063,201.483,43.826,201.056,43.615,200.608Z"/><path class="cls-2" d="M40.56,193.547c-.183-.461-.332-.926-.509-1.388l-15.7,6.216,1.088,2.748,15.7-6.216C40.952,194.449,40.742,194.008,40.56,193.547Z"/><path class="cls-2" d="M37.954,186.308c-.154-.471-.273-.945-.421-1.417l-16.06,5.218.913,2.811,16.06-5.218C38.288,187.234,38.107,186.78,37.954,186.308Z"/><path class="cls-2" d="M35.807,178.92c-.123-.48-.213-.96-.33-1.44l-16.356,4.2.734,2.862,16.356-4.2C36.083,179.865,35.931,179.4,35.807,178.92Z"/><path class="cls-2" d="M34.129,171.412c-.093-.487-.152-.972-.24-1.458L17.3,173.118l.554,2.9,16.587-3.165C34.345,172.372,34.222,171.9,34.129,171.412Z"/><path class="cls-2" d="M32.925,163.813c-.062-.491-.091-.979-.147-1.47l-16.753,2.116.37,2.932,16.754-2.117C33.081,164.785,32.988,164.305,32.925,163.813Z"/><path class="cls-2" d="M32.2,156.154c-.031-.494-.029-.983-.054-1.477l-16.853,1.06.185,2.95,16.853-1.061C32.3,157.133,32.232,156.649,32.2,156.154Z"/><path class="cls-2" d="M31.96,148.464c0-.5.032-.983.038-1.477H15.111v2.955H32C31.992,149.448,31.96,148.96,31.96,148.464Z"/><path class="cls-2" d="M32.2,140.775c.031-.5.095-.979.131-1.473l-16.853-1.06-.185,2.949,16.853,1.061C32.172,141.758,32.17,141.269,32.2,140.775Z"/><path class="cls-2" d="M32.925,133.115c.063-.491.156-.971.224-1.461L16.4,129.538l-.37,2.932,16.753,2.116C32.834,134.1,32.863,133.607,32.925,133.115Z"/><path class="cls-2" d="M34.129,125.517c.093-.487.216-.96.314-1.444l-16.587-3.165-.554,2.9,16.587,3.164C33.977,126.489,34.036,126,34.129,125.517Z"/><path class="cls-2" d="M35.807,118.009c.124-.48.276-.945.4-1.422l-16.356-4.2-.734,2.863,16.356,4.2C35.594,118.969,35.684,118.489,35.807,118.009Z"/><path class="cls-2" d="M37.954,110.62c.153-.471.334-.925.492-1.393l-16.06-5.218-.913,2.81,16.06,5.219C37.681,111.566,37.8,111.092,37.954,110.62Z"/><path class="cls-2" d="M40.56,103.382c.182-.461.392-.9.579-1.36l-15.7-6.216L24.35,98.553l15.7,6.217C40.228,104.308,40.377,103.842,40.56,103.382Z"/><path class="cls-2" d="M43.615,96.321c.211-.448.448-.876.664-1.321L29,87.81l-1.258,2.674,15.279,7.19C43.226,97.225,43.4,96.77,43.615,96.321Z"/><path class="cls-2" d="M47.108,89.466c.239-.434.5-.846.745-1.276l-14.8-8.136-1.423,2.59,14.8,8.135C46.663,90.344,46.869,89.9,47.108,89.466Z"/><path class="cls-2" d="M51.024,82.844c.266-.418.554-.813.824-1.227L37.59,72.569l-1.583,2.495,14.258,9.048C50.525,83.692,50.759,83.262,51.024,82.844Z"/><path class="cls-2" d="M55.348,76.481c.292-.4.605-.777.9-1.173L42.586,65.383l-1.737,2.39L54.511,77.7C54.8,77.3,55.057,76.882,55.348,76.481Z"/><path class="cls-2" d="M60.064,70.4c.316-.382.652-.737.971-1.114L48.024,58.524,46.14,60.8,59.151,71.565C59.462,71.181,59.748,70.784,60.064,70.4Z"/><path class="cls-2" d="M65.152,64.631c.339-.361.7-.694,1.039-1.051L53.881,52.02l-2.023,2.155,12.31,11.559C64.5,65.37,64.812,64.993,65.152,64.631Z"/><path class="cls-2" d="M70.592,59.191c.361-.339.739-.65,1.1-.984L60.135,45.9l-2.154,2.023L69.541,60.23C69.9,59.888,70.23,59.53,70.592,59.191Z"/><path class="cls-2" d="M76.363,54.1c.381-.316.778-.6,1.162-.912L66.762,40.179l-2.278,1.884L75.248,55.074C75.626,54.755,75.981,54.419,76.363,54.1Z"/><path class="cls-2" d="M82.442,49.388c.4-.292.814-.552,1.217-.838L73.734,34.888l-2.391,1.738,9.926,13.661C81.665,49.992,82.041,49.679,82.442,49.388Z"/><path class="cls-2" d="M88.805,45.063c.418-.265.847-.5,1.268-.759L81.024,30.046l-2.5,1.583,9.049,14.259C87.992,45.618,88.386,45.329,88.805,45.063Z"/><path class="cls-2" d="M95.427,41.147c.434-.238.877-.445,1.313-.678l-8.135-14.8L86.015,27.1l8.136,14.8C94.581,41.649,94.992,41.386,95.427,41.147Z"/><path class="cls-2" d="M102.282,37.655c.448-.212.9-.39,1.353-.595l-7.19-15.28-2.674,1.259,7.19,15.279C101.406,38.1,101.834,37.866,102.282,37.655Z"/><path class="cls-2" d="M109.343,34.6c.46-.182.926-.332,1.387-.508l-6.216-15.7-2.748,1.087,6.217,15.7C108.44,34.991,108.882,34.781,109.343,34.6Z"/><path class="cls-2" d="M116.581,31.993c.472-.153.945-.273,1.417-.421l-5.218-16.06-2.81.914,5.218,16.06C115.656,32.328,116.11,32.146,116.581,31.993Z"/><path class="cls-2" d="M123.969,29.847c.48-.124.961-.214,1.441-.331l-4.2-16.356-2.862.735,4.2,16.356C123.025,30.123,123.489,29.97,123.969,29.847Z"/><path class="cls-2" d="M131.477,28.168c.487-.093.972-.152,1.459-.239l-3.165-16.587-2.9.553,3.164,16.588C130.517,28.385,130.991,28.261,131.477,28.168Z"/><path class="cls-2" d="M139.076,26.965c.492-.063.98-.091,1.471-.148L138.43,10.064l-2.931.37,2.116,16.754C138.1,27.12,138.585,27.027,139.076,26.965Z"/><path class="cls-2" d="M146.735,26.241c.495-.031.984-.03,1.477-.055l-1.06-16.853-2.949.185,1.06,16.853C145.756,26.335,146.241,26.272,146.735,26.241Z"/><path class="cls-3" d="M123.008,145.143c2.907-2.2,4.91-6.512,4.91-14.125,0-12.419-4.609-17.429-12.121-17.429-8.014,0-12.021,3.806-12.021,16.027a2.373,2.373,0,0,0,2.506,2.7h2.4c1.5,0,2.1-1.2,2-3.306-.3-4.908.4-9.116,4.806-9.116,3.006,0,5.212,1.5,5.212,11.119,0,10.117-1.905,11.42-4.708,11.42h-2.808a1.841,1.841,0,0,0-1.9,1.9v2.1a1.841,1.841,0,0,0,1.9,1.9H116c3.1,0,5.408,1.3,5.408,12.321s-2.2,12.019-5.709,12.019c-4.408,0-5.31-4.306-5.009-10.216.1-2.1-.5-3.306-2-3.306h-2.4a2.373,2.373,0,0,0-2.506,2.7c0,13.222,4.007,17.13,12.021,17.13,7.512,0,12.822-4.409,12.822-18.331C128.619,152.153,126.414,147.447,123.008,145.143Z"/><path class="cls-3" d="M148.16,140.333c-2.506,0-5.709,1.2-7.111,3.909,0-17.33.7-24.343,6.411-24.343,4.2,0,5.108,4.208,4.807,9.116-.1,2.1.5,3.306,2,3.306h2.3a2.371,2.371,0,0,0,2.5-2.7c0-12.221-4.309-16.027-11.618-16.027-12.925,0-13.325,13.222-13.325,37.263,0,20.235,2.907,28.148,13.024,28.148,7.812,0,12.619-4.91,12.619-19.333S155.371,140.333,148.16,140.333Zm-1,32.656c-3.1,0-6.011-1.7-6.011-13.322s2.907-13.323,6.011-13.323,5.409,1.7,5.409,13.323S150.263,172.989,147.159,172.989Z"/><path class="cls-3" d="M182.824,128.916c0-10.419-3.1-15.729-9.915-15.729-6.613,0-9.919,5.31-9.919,15.729,0,10.317,3.306,15.726,9.919,15.726C179.72,144.642,182.824,139.233,182.824,128.916Zm-13.922,0c0-6.813.8-10.317,4.007-10.317,3.306,0,4.008,3.5,4.008,10.317,0,6.709-.7,10.317-4.008,10.317C169.7,139.233,168.9,135.625,168.9,128.916Z"/><path class="cls-3" d="M195.448,147.946c-6.613,0-9.919,5.31-9.919,15.728,0,10.317,3.306,15.726,9.919,15.726,6.811,0,9.915-5.409,9.915-15.726C205.363,153.256,202.259,147.946,195.448,147.946Zm0,26.045c-3.208,0-4.007-3.605-4.007-10.317,0-6.813.8-10.317,4.007-10.317,3.3,0,4.007,3.5,4.007,10.317C199.455,170.386,198.75,173.991,195.448,173.991Z"/><path class="cls-3" d="M199.855,114.189h-2a2.887,2.887,0,0,0-2.506,1.905L167.2,176.5c-.5,1.1.2,1.9,1.3,1.9h2a2.884,2.884,0,0,0,2.5-1.9l28.15-60.4C201.657,114.991,200.956,114.189,199.855,114.189Z"/></svg>