<svg id="Layer_1" data-name="Layer 1" xmlns="http://www.w3.org/2000/svg" viewBox="0 0 300 300"><defs><style>.cls-1{fill:#f21b16;}.cls-2{fill:#e6e6e6;}.cls-3{fill:#5e5e5e;}</style></defs><path class="cls-1" d="M255.527,244.973l-12.179-11.7A122.426,122.426,0,0,0,155.057,26.036l-1.4.008-.14-16.886,1.538-.008c76.818,0,139.313,62.5,139.313,139.313A138.658,138.658,0,0,1,255.527,244.973Z"/><path class="cls-2" d="M238.888,237.738c-.361.339-.739.649-1.1.983l11.56,12.31,2.154-2.023L239.94,236.7C239.583,237.041,239.25,237.4,238.888,237.738Z"/><path class="cls-2" d="M233.118,242.826c-.383.316-.779.6-1.163.912l10.764,13.012L245,254.866l-10.763-13.012C233.855,242.173,233.5,242.51,233.118,242.826Z"/><path class="cls-2" d="M227.038,247.541c-.4.291-.814.552-1.217.837l9.925,13.662,2.391-1.737-9.925-13.661C227.815,246.937,227.439,247.25,227.038,247.541Z"/><path class="cls-2" d="M220.676,251.866c-.419.265-.848.5-1.269.759l9.049,14.258,2.5-1.584L221.9,251.041C221.488,251.311,221.094,251.6,220.676,251.866Z"/><path class="cls-2" d="M214.053,255.781c-.434.239-.877.446-1.313.679l8.135,14.8,2.59-1.424-8.135-14.8C214.9,255.28,214.487,255.543,214.053,255.781Z"/><path class="cls-2" d="M207.2,259.274c-.448.212-.9.39-1.353.6l7.19,15.279,2.674-1.258-7.19-15.279C208.074,258.826,207.647,259.063,207.2,259.274Z"/><path class="cls-2" d="M200.138,262.33c-.461.182-.927.331-1.388.508l6.216,15.7,2.748-1.088-6.216-15.7C201.04,261.937,200.6,262.147,200.138,262.33Z"/><path class="cls-2" d="M192.9,264.936c-.471.153-.945.273-1.417.42l5.218,16.06,2.811-.913-5.219-16.06C193.824,264.6,193.37,264.783,192.9,264.936Z"/><path class="cls-2" d="M185.511,267.082c-.48.124-.96.213-1.44.331l4.2,16.356,2.862-.735-4.2-16.356C186.455,266.806,185.991,266.959,185.511,267.082Z"/><path class="cls-2" d="M178,268.76c-.487.093-.972.153-1.459.24l3.164,16.587,2.9-.553-3.164-16.588C178.963,268.544,178.49,268.668,178,268.76Z"/><path class="cls-2" d="M170.4,269.964c-.491.062-.98.091-1.471.147l2.117,16.754,2.932-.371-2.117-16.753C171.376,269.809,170.9,269.9,170.4,269.964Z"/><path class="cls-2" d="M162.745,270.688c-.5.031-.984.029-1.477.055l1.06,16.853,2.949-.186-1.06-16.853C163.724,270.594,163.239,270.657,162.745,270.688Z"/><path class="cls-2" d="M155.055,270.93c-.5,0-.983-.033-1.477-.038v16.886h2.955V270.892C156.038,270.9,155.551,270.93,155.055,270.93Z"/><path class="cls-2" d="M147.366,270.688c-.5-.031-.98-.094-1.473-.131l-1.06,16.853,2.949.186,1.06-16.853C148.349,270.717,147.86,270.719,147.366,270.688Z"/><path class="cls-2" d="M139.706,269.964c-.492-.062-.972-.155-1.461-.223l-2.117,16.753,2.932.371,2.117-16.754C140.686,270.055,140.2,270.026,139.706,269.964Z"/><path class="cls-2" d="M132.107,268.76c-.486-.092-.959-.216-1.444-.314L127.5,285.034l2.9.553L133.566,269C133.08,268.913,132.594,268.853,132.107,268.76Z"/><path class="cls-2" d="M124.6,267.082c-.48-.123-.944-.276-1.422-.4l-4.2,16.356,2.862.735,4.2-16.356C125.56,267.3,125.079,267.206,124.6,267.082Z"/><path class="cls-2" d="M117.211,264.936c-.471-.153-.925-.335-1.393-.493L110.6,280.5l2.811.913,5.218-16.06C118.157,265.209,117.683,265.089,117.211,264.936Z"/><path class="cls-2" d="M109.972,262.33c-.46-.183-.9-.393-1.359-.58l-6.217,15.7,2.748,1.088,6.217-15.7C110.9,262.661,110.433,262.512,109.972,262.33Z"/><path class="cls-2" d="M102.912,259.274c-.448-.211-.876-.448-1.321-.663L94.4,273.89l2.674,1.258,7.19-15.279C103.816,259.664,103.36,259.486,102.912,259.274Z"/><path class="cls-2" d="M96.057,255.781c-.434-.238-.846-.5-1.277-.745l-8.135,14.8,2.59,1.424,8.135-14.8C96.934,256.227,96.491,256.02,96.057,255.781Z"/><path class="cls-2" d="M89.435,251.866c-.419-.266-.813-.555-1.227-.825L79.16,265.3l2.5,1.584L90.7,252.625C90.282,252.365,89.854,252.131,89.435,251.866Z"/><path class="cls-2" d="M83.072,247.541c-.4-.291-.777-.6-1.173-.9L71.973,260.3l2.391,1.737,9.925-13.662C83.887,248.093,83.473,247.832,83.072,247.541Z"/><path class="cls-2" d="M76.993,242.826c-.382-.316-.737-.653-1.114-.972L65.115,254.866l2.276,1.884,10.764-13.012C77.771,243.427,77.375,243.142,76.993,242.826Z"/><path class="cls-2" d="M71.222,237.738c-.362-.34-.695-.7-1.051-1.04l-11.56,12.31,2.154,2.023,11.56-12.31C71.961,238.387,71.583,238.077,71.222,237.738Z"/><path class="cls-2" d="M65.782,232.3c-.34-.362-.65-.739-.984-1.1l-12.31,11.559,2.023,2.154,12.31-11.559C66.479,232.992,66.121,232.659,65.782,232.3Z"/><path class="cls-2" d="M60.694,226.527c-.316-.382-.6-.779-.913-1.163L46.77,236.128l1.884,2.277,13.011-10.764C61.346,227.264,61.01,226.909,60.694,226.527Z"/><path class="cls-2" d="M55.979,220.448c-.292-.4-.552-.815-.838-1.218l-13.662,9.926,1.737,2.39,13.662-9.925C56.583,221.224,56.27,220.849,55.979,220.448Z"/><path class="cls-2" d="M51.654,214.084c-.266-.418-.5-.847-.759-1.267l-14.258,9.048,1.583,2.5,14.258-9.048C52.209,214.9,51.92,214.5,51.654,214.084Z"/><path class="cls-2" d="M47.738,207.462c-.239-.434-.445-.877-.679-1.313l-14.8,8.136,1.423,2.589,14.8-8.135C48.24,208.308,47.977,207.9,47.738,207.462Z"/><path class="cls-2" d="M44.245,200.608c-.211-.449-.389-.9-.595-1.354l-15.279,7.191,1.258,2.673,15.28-7.19C44.693,201.483,44.456,201.056,44.245,200.608Z"/><path class="cls-2" d="M41.19,193.547c-.183-.461-.332-.926-.509-1.388l-15.7,6.216,1.088,2.748,15.7-6.216C41.582,194.449,41.372,194.008,41.19,193.547Z"/><path class="cls-2" d="M38.583,186.308c-.152-.471-.272-.945-.42-1.417L22.1,190.109l.913,2.811L39.077,187.7C38.919,187.234,38.737,186.78,38.583,186.308Z"/><path class="cls-2" d="M36.437,178.92c-.123-.48-.213-.96-.33-1.44l-16.356,4.2.735,2.862,16.356-4.2C36.713,179.865,36.56,179.4,36.437,178.92Z"/><path class="cls-2" d="M34.759,171.412c-.093-.487-.152-.972-.24-1.458l-16.587,3.164.554,2.9,16.587-3.165C34.975,172.372,34.852,171.9,34.759,171.412Z"/><path class="cls-2" d="M33.555,163.813c-.062-.491-.091-.979-.147-1.47l-16.753,2.116.37,2.932,16.753-2.117C33.711,164.785,33.618,164.305,33.555,163.813Z"/><path class="cls-2" d="M32.831,156.154c-.031-.494-.029-.983-.054-1.477l-16.854,1.06.186,2.95,16.853-1.061C32.926,157.133,32.863,156.649,32.831,156.154Z"/><path class="cls-2" d="M32.59,148.464c0-.5.032-.983.038-1.477H15.741v2.955H32.628C32.622,149.448,32.59,148.96,32.59,148.464Z"/><path class="cls-2" d="M32.831,140.775c.032-.5.095-.979.131-1.473l-16.853-1.06-.186,2.949,16.854,1.061C32.8,141.758,32.8,141.269,32.831,140.775Z"/><path class="cls-2" d="M33.555,133.115c.063-.491.156-.971.223-1.461l-16.753-2.116-.37,2.932,16.753,2.116C33.464,134.1,33.493,133.607,33.555,133.115Z"/><path class="cls-2" d="M34.759,125.517c.093-.487.216-.96.314-1.444l-16.587-3.165-.554,2.9,16.587,3.164C34.607,126.489,34.666,126,34.759,125.517Z"/><path class="cls-2" d="M36.437,118.009c.123-.48.276-.945.405-1.422l-16.356-4.2-.735,2.863,16.356,4.2C36.224,118.969,36.314,118.489,36.437,118.009Z"/><path class="cls-2" d="M38.583,110.62c.154-.471.336-.925.494-1.393l-16.061-5.218-.913,2.81,16.06,5.219C38.311,111.566,38.431,111.092,38.583,110.62Z"/><path class="cls-2" d="M41.19,103.382c.182-.461.392-.9.579-1.36l-15.7-6.216L24.98,98.553l15.7,6.217C40.858,104.308,41.007,103.842,41.19,103.382Z"/><path class="cls-2" d="M44.245,96.321c.211-.448.448-.876.664-1.321l-15.28-7.19-1.258,2.674,15.279,7.19C43.856,97.225,44.034,96.77,44.245,96.321Z"/><path class="cls-2" d="M47.738,89.466c.239-.434.5-.846.745-1.276l-14.8-8.136-1.423,2.59,14.8,8.135C47.293,90.344,47.5,89.9,47.738,89.466Z"/><path class="cls-2" d="M51.654,82.844c.266-.418.555-.813.824-1.227L38.22,72.569l-1.583,2.495L50.9,84.112C51.155,83.692,51.388,83.262,51.654,82.844Z"/><path class="cls-2" d="M55.979,76.481c.291-.4.6-.777.9-1.173L43.216,65.383l-1.737,2.39L55.141,77.7C55.427,77.3,55.687,76.882,55.979,76.481Z"/><path class="cls-2" d="M60.694,70.4c.316-.382.652-.737.971-1.114L48.654,58.524,46.77,60.8,59.781,71.565C60.092,71.181,60.378,70.784,60.694,70.4Z"/><path class="cls-2" d="M65.782,64.631c.339-.361.7-.694,1.039-1.051L54.511,52.02l-2.023,2.155L64.8,65.734C65.132,65.37,65.442,64.993,65.782,64.631Z"/><path class="cls-2" d="M71.222,59.191c.361-.339.739-.65,1.1-.984L60.765,45.9l-2.154,2.023L70.171,60.23C70.527,59.888,70.86,59.53,71.222,59.191Z"/><path class="cls-2" d="M76.993,54.1c.382-.316.778-.6,1.162-.912L67.391,40.179l-2.276,1.884L75.879,55.074C76.256,54.755,76.611,54.419,76.993,54.1Z"/><path class="cls-2" d="M83.072,49.388c.4-.292.815-.552,1.217-.838L74.364,34.888l-2.391,1.738L81.9,50.287C82.3,49.992,82.671,49.679,83.072,49.388Z"/><path class="cls-2" d="M89.435,45.063c.419-.265.847-.5,1.268-.759L81.655,30.046l-2.5,1.583,9.048,14.259C88.622,45.618,89.016,45.329,89.435,45.063Z"/><path class="cls-2" d="M96.057,41.147c.434-.238.877-.445,1.313-.678l-8.135-14.8L86.645,27.1l8.135,14.8C95.211,41.649,95.623,41.386,96.057,41.147Z"/><path class="cls-2" d="M102.912,37.655c.448-.212.9-.39,1.353-.595l-7.19-15.28L94.4,23.039l7.19,15.279C102.036,38.1,102.464,37.866,102.912,37.655Z"/><path class="cls-2" d="M109.972,34.6c.461-.182.927-.332,1.389-.508l-6.217-15.7L102.4,19.477l6.217,15.7C109.07,34.991,109.512,34.781,109.972,34.6Z"/><path class="cls-2" d="M117.211,31.993c.472-.153.946-.273,1.417-.421l-5.218-16.06-2.811.914,5.219,16.06C116.286,32.328,116.74,32.146,117.211,31.993Z"/><path class="cls-2" d="M124.6,29.847c.48-.124.961-.214,1.441-.331l-4.2-16.356-2.862.735,4.2,16.356C123.655,30.123,124.119,29.97,124.6,29.847Z"/><path class="cls-2" d="M132.107,28.168c.487-.093.973-.152,1.459-.239L130.4,11.342l-2.9.553,3.164,16.588C131.148,28.385,131.621,28.261,132.107,28.168Z"/><path class="cls-2" d="M139.706,26.965c.492-.063.98-.091,1.471-.148L139.06,10.064l-2.932.37,2.117,16.754C138.734,27.12,139.214,27.027,139.706,26.965Z"/><path class="cls-2" d="M147.366,26.241c.494-.031.983-.03,1.476-.055l-1.06-16.853-2.949.185,1.06,16.853C146.386,26.335,146.871,26.272,147.366,26.241Z"/><path class="cls-3" d="M126.7,145.143c2.906-2.2,4.91-6.512,4.91-14.125,0-12.419-4.61-17.429-12.121-17.429-8.014,0-12.022,3.806-12.022,16.027a2.373,2.373,0,0,0,2.507,2.7h2.4c1.5,0,2.1-1.2,2-3.306-.3-4.908.4-9.116,4.807-9.116,3.006,0,5.211,1.5,5.211,11.119,0,10.117-1.9,11.42-4.708,11.42h-2.807a1.841,1.841,0,0,0-1.9,1.9v2.1a1.841,1.841,0,0,0,1.9,1.9h2.807c3.1,0,5.409,1.3,5.409,12.321s-2.206,12.019-5.71,12.019c-4.407,0-5.31-4.306-5.009-10.216.1-2.1-.5-3.306-2-3.306h-2.4a2.373,2.373,0,0,0-2.507,2.7c0,13.222,4.008,17.13,12.022,17.13,7.511,0,12.822-4.409,12.822-18.331C132.308,152.153,130.1,147.447,126.7,145.143Z"/><path class="cls-3" d="M156.355,114.189H136.121a1.845,1.845,0,0,0-1.905,1.905v2.6a1.843,1.843,0,0,0,1.905,1.9h14.825l-13.522,51.989a20,20,0,0,0-.8,4.006,1.736,1.736,0,0,0,1.8,1.8h3.306a1.952,1.952,0,0,0,2-1.7L157.559,121.6a18.2,18.2,0,0,0,.6-3.2v-2.4A1.736,1.736,0,0,0,156.355,114.189Z"/><path class="cls-3" d="M180.4,128.916c0-10.419-3.1-15.729-9.915-15.729-6.613,0-9.919,5.31-9.919,15.729,0,10.317,3.306,15.726,9.919,15.726C177.3,144.642,180.4,139.233,180.4,128.916Zm-13.922,0c0-6.813.8-10.317,4.007-10.317,3.306,0,4.007,3.5,4.007,10.317,0,6.709-.7,10.317-4.007,10.317C167.28,139.233,166.481,135.625,166.481,128.916Z"/><path class="cls-3" d="M193.027,147.946c-6.613,0-9.919,5.31-9.919,15.728,0,10.317,3.306,15.726,9.919,15.726,6.81,0,9.915-5.409,9.915-15.726C202.942,153.256,199.837,147.946,193.027,147.946Zm0,26.045c-3.208,0-4.008-3.605-4.008-10.317,0-6.813.8-10.317,4.008-10.317,3.3,0,4.007,3.5,4.007,10.317C197.034,170.386,196.329,173.991,193.027,173.991Z"/><path class="cls-3" d="M197.434,114.189h-2a2.886,2.886,0,0,0-2.506,1.905l-28.146,60.4c-.5,1.1.2,1.9,1.3,1.9h2a2.884,2.884,0,0,0,2.5-1.9l28.15-60.4C199.236,114.991,198.535,114.189,197.434,114.189Z"/></svg>