<svg id="Layer_1" data-name="Layer 1" xmlns="http://www.w3.org/2000/svg" viewBox="0 0 300 300"><defs><style>.cls-1{fill:#f21b16;}.cls-2{fill:#e6e6e6;}.cls-3{fill:#5e5e5e;}</style></defs><path class="cls-1" d="M249.9,251.09l-11.42-12.439a122.43,122.43,0,0,0-82.8-212.615l-1.4.008-.14-16.886,1.537-.008C232.5,9.15,295,71.645,295,148.463A139.7,139.7,0,0,1,249.9,251.09Z"/><path class="cls-2" d="M233.748,242.826c-.382.316-.779.6-1.163.912l10.764,13.012,2.277-1.884-10.764-13.012C234.485,242.173,234.13,242.51,233.748,242.826Z"/><path class="cls-2" d="M227.669,247.541c-.4.291-.815.552-1.218.837l9.926,13.662,2.39-1.737-9.925-13.661C228.445,246.937,228.07,247.25,227.669,247.541Z"/><path class="cls-2" d="M221.306,251.866c-.419.265-.848.5-1.268.759l9.048,14.258,2.495-1.584-9.048-14.258C222.118,251.311,221.724,251.6,221.306,251.866Z"/><path class="cls-2" d="M214.684,255.781c-.435.239-.878.446-1.314.679l8.135,14.8,2.59-1.424-8.135-14.8C215.53,255.28,215.118,255.543,214.684,255.781Z"/><path class="cls-2" d="M207.829,259.274c-.449.212-.9.39-1.353.6l7.19,15.279,2.673-1.258-7.19-15.279C208.705,258.826,208.277,259.063,207.829,259.274Z"/><path class="cls-2" d="M200.768,262.33c-.461.182-.926.331-1.388.508l6.216,15.7,2.748-1.088-6.216-15.7C201.67,261.937,201.229,262.147,200.768,262.33Z"/><path class="cls-2" d="M193.529,264.936c-.471.153-.945.273-1.417.42l5.219,16.06,2.81-.913-5.218-16.06C194.455,264.6,194,264.783,193.529,264.936Z"/><path class="cls-2" d="M186.141,267.082c-.48.124-.96.213-1.44.331l4.2,16.356,2.862-.735-4.2-16.356C187.086,266.806,186.621,266.959,186.141,267.082Z"/><path class="cls-2" d="M178.633,268.76c-.487.093-.972.153-1.458.24l3.164,16.587,2.9-.553-3.164-16.588C179.593,268.544,179.12,268.668,178.633,268.76Z"/><path class="cls-2" d="M171.035,269.964c-.492.062-.98.091-1.471.147l2.116,16.754,2.932-.371L172.5,269.741C172.006,269.809,171.526,269.9,171.035,269.964Z"/><path class="cls-2" d="M163.375,270.688c-.494.031-.983.029-1.477.055l1.06,16.853,2.95-.186-1.061-16.853C164.354,270.594,163.87,270.657,163.375,270.688Z"/><path class="cls-2" d="M155.686,270.93c-.5,0-.984-.033-1.478-.038v16.886h2.955V270.892C156.669,270.9,156.181,270.93,155.686,270.93Z"/><path class="cls-2" d="M148,270.688c-.5-.031-.979-.094-1.473-.131l-1.06,16.853,2.95.186,1.06-16.853C148.979,270.717,148.49,270.719,148,270.688Z"/><path class="cls-2" d="M140.337,269.964c-.492-.062-.972-.155-1.461-.223l-2.117,16.753,2.932.371,2.116-16.754C141.316,270.055,140.828,270.026,140.337,269.964Z"/><path class="cls-2" d="M132.738,268.76c-.487-.092-.96-.216-1.445-.314l-3.164,16.588,2.9.553L134.2,269C133.71,268.913,133.224,268.853,132.738,268.76Z"/><path class="cls-2" d="M125.23,267.082c-.48-.123-.945-.276-1.422-.4l-4.2,16.356,2.863.735,4.2-16.356C126.19,267.3,125.71,267.206,125.23,267.082Z"/><path class="cls-2" d="M117.842,264.936c-.472-.153-.926-.335-1.394-.493L111.23,280.5l2.811.913,5.217-16.06C118.787,265.209,118.313,265.089,117.842,264.936Z"/><path class="cls-2" d="M110.6,262.33c-.461-.183-.9-.393-1.36-.58l-6.216,15.7,2.748,1.088,6.216-15.7C111.529,262.661,111.064,262.512,110.6,262.33Z"/><path class="cls-2" d="M103.542,259.274c-.448-.211-.876-.448-1.32-.663l-7.19,15.279,2.673,1.258,7.19-15.279C104.446,259.664,103.991,259.486,103.542,259.274Z"/><path class="cls-2" d="M96.688,255.781c-.435-.238-.847-.5-1.277-.745l-8.135,14.8,2.589,1.424L98,256.46C97.565,256.227,97.121,256.02,96.688,255.781Z"/><path class="cls-2" d="M90.065,251.866c-.418-.266-.813-.555-1.227-.825L79.79,265.3l2.495,1.584,9.048-14.258C90.913,252.365,90.484,252.131,90.065,251.866Z"/><path class="cls-2" d="M83.7,247.541c-.4-.291-.776-.6-1.173-.9L72.6,260.3l2.39,1.737,9.926-13.662C84.517,248.093,84.1,247.832,83.7,247.541Z"/><path class="cls-2" d="M77.623,242.826c-.382-.316-.737-.653-1.114-.972L65.745,254.866l2.277,1.884,10.764-13.012C78.4,243.427,78.005,243.142,77.623,242.826Z"/><path class="cls-2" d="M71.852,237.738c-.361-.34-.694-.7-1.051-1.04l-11.559,12.31,2.154,2.023,11.559-12.31C72.591,238.387,72.213,238.077,71.852,237.738Z"/><path class="cls-2" d="M66.412,232.3c-.339-.362-.649-.739-.984-1.1L53.119,242.754l2.023,2.154,12.309-11.559C67.109,232.992,66.752,232.659,66.412,232.3Z"/><path class="cls-2" d="M61.324,226.527c-.316-.382-.6-.779-.912-1.163L47.4,236.128l1.884,2.277L62.3,227.641C61.976,227.264,61.64,226.909,61.324,226.527Z"/><path class="cls-2" d="M56.609,220.448c-.291-.4-.552-.815-.838-1.218L42.11,229.156l1.737,2.39,13.661-9.925C57.213,221.224,56.9,220.849,56.609,220.448Z"/><path class="cls-2" d="M52.284,214.084c-.265-.418-.5-.847-.759-1.267l-14.258,9.048,1.584,2.5,14.257-9.048C52.839,214.9,52.55,214.5,52.284,214.084Z"/><path class="cls-2" d="M48.368,207.462c-.239-.434-.445-.877-.678-1.313l-14.8,8.136,1.424,2.589,14.8-8.135C48.87,208.308,48.607,207.9,48.368,207.462Z"/><path class="cls-2" d="M44.875,200.608c-.211-.449-.389-.9-.594-1.354L29,206.445l1.259,2.673,15.279-7.19C45.324,201.483,45.087,201.056,44.875,200.608Z"/><path class="cls-2" d="M41.82,193.547c-.183-.461-.332-.926-.508-1.388l-15.7,6.216,1.088,2.748,15.7-6.216C42.212,194.449,42,194.008,41.82,193.547Z"/><path class="cls-2" d="M39.214,186.308c-.153-.471-.273-.945-.42-1.417l-16.061,5.218.914,2.811,16.06-5.218C39.549,187.234,39.367,186.78,39.214,186.308Z"/><path class="cls-2" d="M37.068,178.92c-.124-.48-.213-.96-.331-1.44l-16.356,4.2.735,2.862,16.356-4.2C37.344,179.865,37.191,179.4,37.068,178.92Z"/><path class="cls-2" d="M35.389,171.412c-.092-.487-.152-.972-.239-1.458l-16.588,3.164.554,2.9L35.7,172.856C35.606,172.372,35.482,171.9,35.389,171.412Z"/><path class="cls-2" d="M34.186,163.813c-.062-.491-.091-.979-.147-1.47l-16.754,2.116.37,2.932,16.754-2.117C34.341,164.785,34.248,164.305,34.186,163.813Z"/><path class="cls-2" d="M33.462,156.154c-.031-.494-.029-.983-.055-1.477l-16.853,1.06.186,2.95,16.853-1.061C33.556,157.133,33.493,156.649,33.462,156.154Z"/><path class="cls-2" d="M33.22,148.464c0-.5.033-.983.038-1.477H16.372v2.955H33.258C33.253,149.448,33.22,148.96,33.22,148.464Z"/><path class="cls-2" d="M33.462,140.775c.031-.5.094-.979.131-1.473l-16.853-1.06-.186,2.949,16.853,1.061C33.433,141.758,33.431,141.269,33.462,140.775Z"/><path class="cls-2" d="M34.186,133.115c.062-.491.155-.971.223-1.461l-16.754-2.116-.37,2.932,16.754,2.116C34.1,134.1,34.124,133.607,34.186,133.115Z"/><path class="cls-2" d="M35.389,125.517c.093-.487.217-.96.315-1.444l-16.588-3.165-.554,2.9,16.588,3.164C35.237,126.489,35.3,126,35.389,125.517Z"/><path class="cls-2" d="M37.068,118.009c.123-.48.276-.945.4-1.422l-16.356-4.2-.735,2.863,16.356,4.2C36.855,118.969,36.944,118.489,37.068,118.009Z"/><path class="cls-2" d="M39.214,110.62c.153-.471.335-.925.493-1.393l-16.06-5.218-.914,2.81,16.061,5.219C38.941,111.566,39.061,111.092,39.214,110.62Z"/><path class="cls-2" d="M41.82,103.382c.183-.461.392-.9.579-1.36L26.7,95.806l-1.088,2.747,15.7,6.217C41.488,104.308,41.637,103.842,41.82,103.382Z"/><path class="cls-2" d="M44.875,96.321c.212-.448.449-.876.664-1.321L30.26,87.81,29,90.484l15.28,7.19C44.486,97.225,44.664,96.77,44.875,96.321Z"/><path class="cls-2" d="M48.368,89.466c.239-.434.5-.846.746-1.276l-14.8-8.136-1.424,2.59,14.8,8.135C47.923,90.344,48.129,89.9,48.368,89.466Z"/><path class="cls-2" d="M52.284,82.844c.266-.418.555-.813.824-1.227L38.851,72.569l-1.584,2.495,14.258,9.048C51.785,83.692,52.019,83.262,52.284,82.844Z"/><path class="cls-2" d="M56.609,76.481c.291-.4.6-.777.9-1.173L43.847,65.383l-1.737,2.39L55.771,77.7C56.057,77.3,56.318,76.882,56.609,76.481Z"/><path class="cls-2" d="M61.324,70.4c.316-.382.652-.737.972-1.114L49.284,58.524,47.4,60.8,60.412,71.565C60.723,71.181,61.008,70.784,61.324,70.4Z"/><path class="cls-2" d="M66.412,64.631c.34-.361.7-.694,1.039-1.051L55.142,52.02l-2.023,2.155L65.428,65.734C65.763,65.37,66.073,64.993,66.412,64.631Z"/><path class="cls-2" d="M71.852,59.191c.361-.339.739-.65,1.1-.984L61.4,45.9l-2.154,2.023L70.8,60.23C71.158,59.888,71.491,59.53,71.852,59.191Z"/><path class="cls-2" d="M77.623,54.1c.382-.316.779-.6,1.163-.912L68.022,40.179l-2.277,1.884L76.509,55.074C76.886,54.755,77.241,54.419,77.623,54.1Z"/><path class="cls-2" d="M83.7,49.388c.4-.292.815-.552,1.218-.838L74.994,34.888,72.6,36.626l9.925,13.661C82.926,49.992,83.3,49.679,83.7,49.388Z"/><path class="cls-2" d="M90.065,45.063c.419-.265.848-.5,1.268-.759L82.285,30.046,79.79,31.629l9.048,14.259C89.252,45.618,89.647,45.329,90.065,45.063Z"/><path class="cls-2" d="M96.688,41.147c.433-.238.877-.445,1.312-.678l-8.135-14.8L87.276,27.1l8.135,14.8C95.841,41.649,96.253,41.386,96.688,41.147Z"/><path class="cls-2" d="M103.542,37.655c.449-.212.9-.39,1.353-.595l-7.19-15.28-2.673,1.259,7.19,15.279C102.666,38.1,103.094,37.866,103.542,37.655Z"/><path class="cls-2" d="M110.6,34.6c.461-.182.926-.332,1.388-.508l-6.216-15.7-2.748,1.087,6.216,15.7C109.7,34.991,110.142,34.781,110.6,34.6Z"/><path class="cls-2" d="M117.842,31.993c.471-.153.945-.273,1.416-.421l-5.217-16.06-2.811.914,5.218,16.06C116.916,32.328,117.37,32.146,117.842,31.993Z"/><path class="cls-2" d="M125.23,29.847c.48-.124.96-.214,1.44-.331l-4.2-16.356-2.863.735,4.2,16.356C124.285,30.123,124.75,29.97,125.23,29.847Z"/><path class="cls-2" d="M132.738,28.168c.486-.093.972-.152,1.458-.239l-3.164-16.587-2.9.553,3.164,16.588C131.778,28.385,132.251,28.261,132.738,28.168Z"/><path class="cls-2" d="M140.337,26.965c.491-.063.979-.091,1.47-.148l-2.116-16.753-2.932.37,2.117,16.754C139.365,27.12,139.845,27.027,140.337,26.965Z"/><path class="cls-2" d="M148,26.241c.494-.031.983-.03,1.477-.055l-1.06-16.853-2.95.185,1.06,16.853C147.017,26.335,147.5,26.272,148,26.241Z"/><path class="cls-3" d="M124.469,145.143c2.907-2.2,4.91-6.512,4.91-14.125,0-12.419-4.609-17.429-12.12-17.429-8.015,0-12.022,3.806-12.022,16.027a2.373,2.373,0,0,0,2.507,2.7h2.4c1.5,0,2.1-1.2,2-3.306-.3-4.908.4-9.116,4.808-9.116,3,0,5.211,1.5,5.211,11.119,0,10.117-1.905,11.42-4.708,11.42h-2.808a1.841,1.841,0,0,0-1.9,1.9v2.1a1.841,1.841,0,0,0,1.9,1.9h2.808c3.1,0,5.409,1.3,5.409,12.321s-2.206,12.019-5.71,12.019c-4.408,0-5.31-4.306-5.01-10.216.1-2.1-.5-3.306-2-3.306h-2.4a2.373,2.373,0,0,0-2.507,2.7c0,13.222,4.007,17.13,12.022,17.13,7.511,0,12.821-4.409,12.821-18.331C130.08,152.153,127.875,147.447,124.469,145.143Z"/><path class="cls-3" d="M154.528,145.143c2.906-2.2,4.91-6.512,4.91-14.125,0-12.419-4.609-17.429-11.919-17.429S135.6,118.7,135.6,131.018c0,7.613,2,11.921,4.909,14.125-3.405,2.3-5.611,7.111-5.611,15.526C134.9,173.89,139.7,179,147.519,179s12.62-5.11,12.62-18.331C160.139,152.153,157.933,147.447,154.528,145.143ZM147.519,119.6c2.8,0,4.7,1.3,4.7,11.42s-1.9,11.42-4.7,11.42-4.708-1.3-4.708-11.42S144.712,119.6,147.519,119.6Zm0,53.391c-3.108,0-5.409-1.3-5.409-12.32s2.3-12.321,5.409-12.321,5.409,1.3,5.409,12.321S150.623,172.989,147.519,172.989Z"/><path class="cls-3" d="M183.885,128.916c0-10.419-3.1-15.729-9.915-15.729-6.612,0-9.919,5.31-9.919,15.729,0,10.317,3.307,15.726,9.919,15.726C180.781,144.642,183.885,139.233,183.885,128.916Zm-13.922,0c0-6.813.8-10.317,4.007-10.317,3.307,0,4.008,3.5,4.008,10.317,0,6.709-.7,10.317-4.008,10.317C170.763,139.233,169.963,135.625,169.963,128.916Z"/><path class="cls-3" d="M200.916,114.189h-2a2.888,2.888,0,0,0-2.507,1.905l-28.145,60.4c-.5,1.1.2,1.9,1.3,1.9h2a2.882,2.882,0,0,0,2.5-1.9l28.15-60.4C202.718,114.991,202.017,114.189,200.916,114.189Z"/><path class="cls-3" d="M196.509,147.946c-6.613,0-9.919,5.31-9.919,15.728,0,10.317,3.306,15.726,9.919,15.726,6.811,0,9.915-5.409,9.915-15.726C206.424,153.256,203.32,147.946,196.509,147.946Zm0,26.045c-3.207,0-4.007-3.605-4.007-10.317,0-6.813.8-10.317,4.007-10.317,3.3,0,4.007,3.5,4.007,10.317C200.516,170.386,199.811,173.991,196.509,173.991Z"/></svg>