<svg id="Layer_1" data-name="Layer 1" xmlns="http://www.w3.org/2000/svg" viewBox="0 0 300 300"><defs><style>.cls-1{fill:#f21b16;}.cls-2{fill:#e6e6e6;}.cls-3{fill:#5e5e5e;}</style></defs><path class="cls-1" d="M176.846,26.557a123.482,123.482,0,0,0-24.311-2.41l-1.369.009-.215-16.887,1.584-.008a140.32,140.32,0,0,1,27.642,2.744Z"/><path class="cls-2" d="M182.99,27.956c.48.123.945.276,1.422.405L188.611,12l-2.862-.734-4.2,16.356C182.03,27.743,182.51,27.833,182.99,27.956Z"/><path class="cls-2" d="M190.379,30.1c.471.154.924.335,1.393.494l5.218-16.061-2.81-.913-5.219,16.06C189.433,29.83,189.907,29.95,190.379,30.1Z"/><path class="cls-2" d="M197.617,32.708c.461.183.9.393,1.36.58l6.216-15.7L202.446,16.5l-6.217,15.7C196.691,32.377,197.156,32.526,197.617,32.708Z"/><path class="cls-2" d="M204.678,35.764c.448.211.876.448,1.321.664l7.189-15.28-2.674-1.258-7.189,15.279C203.774,35.375,204.229,35.553,204.678,35.764Z"/><path class="cls-2" d="M211.533,39.257c.434.239.846.5,1.276.745l8.135-14.8-2.59-1.423-8.135,14.8C210.655,38.812,211.1,39.018,211.533,39.257Z"/><path class="cls-2" d="M218.155,43.173c.418.266.812.554,1.227.824l9.048-14.258-2.5-1.583-9.048,14.258C217.307,42.674,217.736,42.907,218.155,43.173Z"/><path class="cls-2" d="M224.518,47.5c.4.291.776.6,1.173.9l9.925-13.662L233.226,33,223.3,46.66C223.7,46.946,224.117,47.206,224.518,47.5Z"/><path class="cls-2" d="M230.6,52.213c.382.316.737.652,1.114.971l10.764-13.011L240.2,38.289,229.434,51.3C229.818,51.611,230.215,51.9,230.6,52.213Z"/><path class="cls-2" d="M236.368,57.3c.361.339.694.7,1.051,1.039l11.56-12.31-2.155-2.023-11.559,12.31C235.628,56.651,236.006,56.961,236.368,57.3Z"/><path class="cls-2" d="M241.808,62.741c.339.361.649.739.984,1.1L255.1,52.284l-2.023-2.154L240.769,61.69C241.111,62.046,241.469,62.379,241.808,62.741Z"/><path class="cls-2" d="M246.9,68.512c.315.382.6.778.912,1.162L260.819,58.91l-1.883-2.276L245.925,67.4C246.244,67.775,246.58,68.13,246.9,68.512Z"/><path class="cls-2" d="M251.611,74.591c.292.4.551.814.838,1.217l13.661-9.925-1.737-2.391-13.661,9.926C251.007,73.814,251.32,74.19,251.611,74.591Z"/><path class="cls-2" d="M255.935,80.954c.266.418.5.847.76,1.268l14.258-9.048-1.584-2.5-14.258,9.049C255.381,80.141,255.67,80.535,255.935,80.954Z"/><path class="cls-2" d="M259.852,87.576c.238.434.445.877.678,1.313l14.8-8.135-1.424-2.59-14.8,8.136C259.349,86.73,259.613,87.142,259.852,87.576Z"/><path class="cls-2" d="M263.344,94.431c.211.448.39.9.6,1.353l15.279-7.19L277.96,85.92l-15.279,7.19C262.9,93.555,263.133,93.982,263.344,94.431Z"/><path class="cls-2" d="M266.4,101.491c.182.461.332.927.508,1.389l15.7-6.217-1.088-2.748-15.7,6.217C266.008,100.589,266.218,101.031,266.4,101.491Z"/><path class="cls-2" d="M269.006,108.73c.153.471.273.946.42,1.417l16.06-5.218-.913-2.811-16.06,5.219C268.671,107.805,268.853,108.259,269.006,108.73Z"/><path class="cls-2" d="M271.152,116.118c.124.48.213.961.331,1.441l16.356-4.2L287.1,110.5l-16.356,4.2C270.876,115.174,271.029,115.638,271.152,116.118Z"/><path class="cls-2" d="M272.831,123.626c.093.487.152.972.239,1.459l16.587-3.164-.553-2.9-16.588,3.164C272.614,122.666,272.738,123.14,272.831,123.626Z"/><path class="cls-2" d="M274.034,131.225c.062.492.091.98.148,1.471l16.753-2.117-.37-2.932-16.754,2.117C273.879,130.253,273.972,130.733,274.034,131.225Z"/><path class="cls-2" d="M274.758,138.885c.031.494.029.983.055,1.476l16.853-1.06-.185-2.949-16.853,1.06C274.664,137.905,274.727,138.39,274.758,138.885Z"/><path class="cls-2" d="M275,146.574c0,.495-.033.983-.038,1.477h16.886V145.1H274.962C274.967,145.591,275,146.078,275,146.574Z"/><path class="cls-2" d="M274.758,154.264c-.031.494-.094.979-.13,1.472l16.853,1.06.185-2.949-16.853-1.06C274.787,153.28,274.789,153.769,274.758,154.264Z"/><path class="cls-2" d="M274.034,161.923c-.062.492-.155.972-.223,1.461l16.754,2.117.37-2.932-16.753-2.117C274.125,160.943,274.1,161.431,274.034,161.923Z"/><path class="cls-2" d="M272.831,169.522c-.093.487-.217.959-.315,1.444L289.1,174.13l.553-2.9-16.587-3.164C272.983,168.55,272.924,169.035,272.831,169.522Z"/><path class="cls-2" d="M271.152,177.03c-.123.48-.276.944-.4,1.422l16.356,4.2.735-2.862-16.356-4.2C271.365,176.07,271.276,176.55,271.152,177.03Z"/><path class="cls-2" d="M269.006,184.418c-.153.471-.335.925-.493,1.393l16.06,5.219.913-2.811L269.426,183C269.279,183.473,269.159,183.947,269.006,184.418Z"/><path class="cls-2" d="M266.4,191.657c-.182.46-.392.9-.58,1.359l15.7,6.217,1.088-2.748-15.7-6.216C266.732,190.73,266.582,191.2,266.4,191.657Z"/><path class="cls-2" d="M263.344,198.717c-.211.449-.448.876-.663,1.321l15.279,7.19,1.258-2.674-15.279-7.19C263.734,197.813,263.555,198.269,263.344,198.717Z"/><path class="cls-2" d="M259.852,205.572c-.239.434-.5.846-.745,1.277l14.8,8.135,1.424-2.59-14.8-8.135C260.3,204.7,260.09,205.138,259.852,205.572Z"/><path class="cls-2" d="M255.935,212.194c-.265.419-.554.813-.824,1.227l14.258,9.048,1.584-2.5L256.7,210.926C256.435,211.347,256.2,211.776,255.935,212.194Z"/><path class="cls-2" d="M251.611,218.557c-.291.4-.6.777-.9,1.173l13.661,9.926,1.737-2.391-13.661-9.925C252.162,217.743,251.9,218.156,251.611,218.557Z"/><path class="cls-2" d="M246.9,224.636c-.316.382-.652.737-.971,1.115l13.011,10.763,1.883-2.276-13.011-10.764C247.5,223.858,247.211,224.254,246.9,224.636Z"/><path class="cls-2" d="M241.808,230.407c-.339.362-.7.695-1.039,1.051l12.309,11.56,2.023-2.154L242.792,229.3C242.457,229.668,242.147,230.046,241.808,230.407Z"/><path class="cls-2" d="M236.368,235.847c-.362.34-.74.65-1.1.984l11.559,12.31,2.155-2.023-11.56-12.31C237.062,235.15,236.729,235.508,236.368,235.847Z"/><path class="cls-2" d="M230.6,240.935c-.382.316-.779.6-1.163.913L240.2,254.859l2.277-1.884-10.764-13.011C231.334,240.283,230.979,240.619,230.6,240.935Z"/><path class="cls-2" d="M224.518,245.65c-.4.292-.815.552-1.218.838l9.926,13.662,2.39-1.737-9.925-13.662C225.294,245.046,224.919,245.359,224.518,245.65Z"/><path class="cls-2" d="M218.155,249.975c-.419.266-.848.5-1.268.76l9.048,14.257,2.5-1.583-9.048-14.258C218.967,249.42,218.573,249.71,218.155,249.975Z"/><path class="cls-2" d="M211.533,253.891c-.435.239-.878.445-1.314.679l8.135,14.8,2.59-1.424-8.135-14.8C212.379,253.389,211.967,253.653,211.533,253.891Z"/><path class="cls-2" d="M204.678,257.384c-.449.211-.9.389-1.353.595l7.189,15.279L213.188,272,206,256.72C205.554,256.936,205.126,257.173,204.678,257.384Z"/><path class="cls-2" d="M197.617,260.439c-.461.183-.926.332-1.388.509l6.217,15.7,2.747-1.088-6.216-15.7C198.519,260.047,198.078,260.257,197.617,260.439Z"/><path class="cls-2" d="M190.379,263.046c-.472.152-.946.272-1.418.42l5.219,16.06,2.81-.913-5.218-16.06C191.3,262.71,190.85,262.892,190.379,263.046Z"/><path class="cls-2" d="M182.99,265.192c-.48.123-.96.213-1.44.33l4.2,16.356,2.862-.735-4.2-16.355C183.935,264.916,183.47,265.069,182.99,265.192Z"/><path class="cls-2" d="M175.482,266.87c-.487.093-.972.152-1.459.24l3.165,16.587,2.9-.554-3.165-16.587C176.442,266.654,175.969,266.777,175.482,266.87Z"/><path class="cls-2" d="M167.884,268.074c-.492.062-.98.091-1.471.147l2.116,16.753,2.932-.37-2.116-16.753C168.855,267.918,168.375,268.012,167.884,268.074Z"/><path class="cls-2" d="M160.224,268.8c-.495.031-.983.029-1.477.055l1.06,16.853,2.95-.186L161.7,268.667C161.2,268.7,160.719,268.766,160.224,268.8Z"/><path class="cls-2" d="M152.535,269.04c-.5,0-.984-.033-1.478-.039v16.887h2.955V269C153.518,269.007,153.03,269.04,152.535,269.04Z"/><path class="cls-2" d="M144.845,268.8c-.5-.032-.98-.1-1.473-.131l-1.06,16.853,2.95.186,1.06-16.853C145.828,268.827,145.339,268.829,144.845,268.8Z"/><path class="cls-2" d="M137.186,268.074c-.492-.062-.972-.156-1.462-.223L133.608,284.6l2.932.37,2.116-16.753C138.165,268.165,137.677,268.136,137.186,268.074Z"/><path class="cls-2" d="M129.587,266.87c-.487-.093-.96-.216-1.445-.314l-3.164,16.587,2.9.554,3.164-16.587C130.559,267.022,130.073,266.963,129.587,266.87Z"/><path class="cls-2" d="M122.078,265.192c-.48-.123-.944-.276-1.421-.4l-4.2,16.355,2.863.735,4.2-16.356C123.039,265.4,122.558,265.315,122.078,265.192Z"/><path class="cls-2" d="M114.691,263.046c-.472-.154-.926-.336-1.394-.493l-5.218,16.06,2.81.913,5.218-16.06C115.636,263.318,115.162,263.2,114.691,263.046Z"/><path class="cls-2" d="M107.452,260.439c-.461-.182-.9-.392-1.36-.579l-6.216,15.7,2.747,1.088,6.217-15.7C108.378,260.771,107.913,260.622,107.452,260.439Z"/><path class="cls-2" d="M100.391,257.384c-.448-.211-.875-.448-1.32-.664L91.881,272l2.673,1.258,7.191-15.279C101.3,257.773,100.84,257.6,100.391,257.384Z"/><path class="cls-2" d="M93.536,253.891c-.434-.238-.846-.5-1.276-.745l-8.135,14.8,2.589,1.424,8.135-14.8C94.414,254.336,93.97,254.13,93.536,253.891Z"/><path class="cls-2" d="M86.914,249.975c-.418-.265-.813-.555-1.227-.824l-9.048,14.258,2.5,1.583,9.048-14.257C87.762,250.474,87.333,250.241,86.914,249.975Z"/><path class="cls-2" d="M80.551,245.65c-.4-.291-.776-.6-1.173-.9l-9.926,13.662,2.391,1.737,9.926-13.662C81.366,246.2,80.952,245.942,80.551,245.65Z"/><path class="cls-2" d="M74.472,240.935c-.382-.316-.737-.652-1.114-.971L62.594,252.975l2.277,1.884,10.764-13.011C75.25,241.537,74.854,241.251,74.472,240.935Z"/><path class="cls-2" d="M68.7,235.847c-.361-.339-.694-.7-1.051-1.039l-11.559,12.31,2.154,2.023L69.8,236.831C69.44,236.5,69.062,236.187,68.7,235.847Z"/><path class="cls-2" d="M63.261,230.407c-.339-.361-.649-.739-.984-1.1l-12.309,11.56,2.023,2.154L64.3,231.458C63.958,231.1,63.6,230.769,63.261,230.407Z"/><path class="cls-2" d="M58.173,224.636c-.316-.382-.6-.778-.912-1.162L44.249,234.238l1.884,2.276,13.011-10.763C58.825,225.373,58.489,225.018,58.173,224.636Z"/><path class="cls-2" d="M53.458,218.557c-.291-.4-.552-.814-.838-1.217l-13.661,9.925,1.737,2.391,13.661-9.926C54.062,219.334,53.749,218.958,53.458,218.557Z"/><path class="cls-2" d="M49.133,212.194c-.265-.418-.5-.847-.759-1.268l-14.258,9.048,1.584,2.5,14.257-9.048C49.688,213.007,49.4,212.613,49.133,212.194Z"/><path class="cls-2" d="M45.217,205.572c-.239-.434-.445-.877-.678-1.313l-14.8,8.135,1.424,2.59,14.8-8.135C45.719,206.418,45.456,206.006,45.217,205.572Z"/><path class="cls-2" d="M41.724,198.717c-.211-.448-.389-.9-.594-1.353l-15.279,7.19,1.258,2.674,15.279-7.19C42.173,199.593,41.936,199.166,41.724,198.717Z"/><path class="cls-2" d="M38.669,191.657c-.182-.461-.332-.927-.509-1.388l-15.7,6.216,1.088,2.748,15.7-6.217C39.061,192.559,38.852,192.117,38.669,191.657Z"/><path class="cls-2" d="M36.063,184.418c-.153-.471-.273-.945-.42-1.417l-16.06,5.218.913,2.811,16.06-5.219C36.4,185.343,36.216,184.889,36.063,184.418Z"/><path class="cls-2" d="M33.916,177.03c-.123-.48-.212-.96-.33-1.441l-16.356,4.2.735,2.862,16.356-4.2C34.193,177.974,34.04,177.51,33.916,177.03Z"/><path class="cls-2" d="M32.238,169.522c-.092-.487-.152-.972-.239-1.459l-16.588,3.164.554,2.9,16.587-3.164C32.454,170.481,32.331,170.009,32.238,169.522Z"/><path class="cls-2" d="M31.035,161.923c-.062-.492-.091-.98-.148-1.471l-16.753,2.117.371,2.932,16.753-2.117C31.19,162.9,31.1,162.415,31.035,161.923Z"/><path class="cls-2" d="M30.311,154.264c-.031-.5-.029-.984-.055-1.477L13.4,153.847l.185,2.949,16.854-1.06C30.405,155.243,30.342,154.758,30.311,154.264Z"/><path class="cls-2" d="M30.069,146.574c0-.5.033-.983.038-1.478H13.221v2.955H30.107C30.1,147.557,30.069,147.069,30.069,146.574Z"/><path class="cls-2" d="M30.311,138.885c.031-.5.094-.98.131-1.473l-16.854-1.06L13.4,139.3l16.853,1.06C30.282,139.868,30.28,139.379,30.311,138.885Z"/><path class="cls-2" d="M31.035,131.225c.062-.492.155-.972.223-1.461l-16.753-2.117-.371,2.932L30.887,132.7C30.944,132.205,30.973,131.717,31.035,131.225Z"/><path class="cls-2" d="M32.238,123.626c.093-.486.216-.96.314-1.444l-16.587-3.164-.554,2.9L32,125.085C32.086,124.6,32.146,124.113,32.238,123.626Z"/><path class="cls-2" d="M33.916,116.118c.124-.48.277-.944.405-1.422l-16.356-4.2-.735,2.862,16.356,4.2C33.7,117.079,33.793,116.6,33.916,116.118Z"/><path class="cls-2" d="M36.063,108.73c.153-.471.335-.925.493-1.393L20.5,102.118l-.913,2.811,16.06,5.218C35.79,109.676,35.91,109.2,36.063,108.73Z"/><path class="cls-2" d="M38.669,101.491c.183-.46.392-.9.579-1.359l-15.7-6.217L22.46,96.663l15.7,6.217C38.337,102.418,38.487,101.952,38.669,101.491Z"/><path class="cls-2" d="M41.724,94.431c.212-.449.449-.876.664-1.321L27.109,85.92l-1.258,2.674,15.279,7.19C41.335,95.334,41.513,94.879,41.724,94.431Z"/><path class="cls-2" d="M45.217,87.576c.239-.434.5-.846.745-1.276l-14.8-8.136-1.424,2.59,14.8,8.135C44.772,88.453,44.978,88.01,45.217,87.576Z"/><path class="cls-2" d="M49.133,80.954c.266-.419.555-.813.824-1.227L35.7,70.678l-1.584,2.5,14.258,9.048C48.634,81.8,48.868,81.372,49.133,80.954Z"/><path class="cls-2" d="M53.458,74.591c.291-.4.6-.777.9-1.173L40.7,63.492l-1.737,2.391L52.62,75.808C52.906,75.405,53.167,74.991,53.458,74.591Z"/><path class="cls-2" d="M58.173,68.512c.316-.382.652-.737.971-1.114L46.133,56.634,44.249,58.91,57.261,69.674C57.572,69.29,57.857,68.894,58.173,68.512Z"/><path class="cls-2" d="M63.261,62.741c.339-.362.7-.7,1.039-1.051L51.991,50.13l-2.023,2.154,12.309,11.56C62.612,63.48,62.922,63.1,63.261,62.741Z"/><path class="cls-2" d="M68.7,57.3c.361-.34.739-.65,1.1-.984L58.245,44.007,56.091,46.03,67.65,58.34C68.007,58,68.34,57.64,68.7,57.3Z"/><path class="cls-2" d="M74.472,52.213c.382-.316.778-.6,1.163-.912L64.871,38.289l-2.277,1.884L73.358,53.184C73.735,52.865,74.09,52.529,74.472,52.213Z"/><path class="cls-2" d="M80.551,47.5c.4-.292.815-.552,1.218-.838L71.843,33l-2.391,1.737L79.378,48.4C79.775,48.1,80.15,47.789,80.551,47.5Z"/><path class="cls-2" d="M86.914,43.173c.419-.266.848-.5,1.268-.759L79.134,28.156l-2.5,1.583L85.687,44C86.1,43.727,86.5,43.439,86.914,43.173Z"/><path class="cls-2" d="M93.536,39.257c.434-.239.878-.445,1.313-.679l-8.135-14.8L84.125,25.2,92.26,40C92.69,39.759,93.1,39.5,93.536,39.257Z"/><path class="cls-2" d="M100.391,35.764c.449-.211.9-.389,1.354-.6L94.554,19.89l-2.673,1.258,7.19,15.28C99.516,36.212,99.943,35.975,100.391,35.764Z"/><path class="cls-2" d="M107.452,32.708c.461-.182.926-.331,1.388-.508l-6.217-15.7-2.747,1.088,6.216,15.7C106.55,33.1,106.991,32.891,107.452,32.708Z"/><path class="cls-2" d="M114.691,30.1c.471-.152.945-.272,1.416-.42l-5.218-16.06-2.81.913L113.3,30.6C113.765,30.437,114.219,30.256,114.691,30.1Z"/><path class="cls-2" d="M122.078,27.956c.48-.123.961-.213,1.441-.33l-4.2-16.356L116.457,12l4.2,16.357C121.134,28.232,121.6,28.079,122.078,27.956Z"/><path class="cls-2" d="M129.587,26.278c.486-.093.972-.152,1.458-.24L127.881,9.451l-2.9.554,3.164,16.587C128.627,26.494,129.1,26.371,129.587,26.278Z"/><path class="cls-2" d="M137.186,25.074c.491-.062.979-.091,1.47-.147L136.54,8.174l-2.932.37L135.724,25.3C136.214,25.23,136.694,25.137,137.186,25.074Z"/><path class="cls-2" d="M144.845,24.35c.494-.031.983-.029,1.477-.054l-1.06-16.854-2.95.186,1.06,16.853C143.865,24.445,144.35,24.381,144.845,24.35Z"/><path class="cls-3" d="M136.349,143.252c2.906-2.2,4.91-6.512,4.91-14.124,0-12.42-4.609-17.429-12.121-17.429-8.014,0-12.022,3.805-12.022,16.027a2.372,2.372,0,0,0,2.507,2.7h2.4c1.5,0,2.1-1.2,2-3.306-.3-4.908.4-9.115,4.807-9.115,3.006,0,5.211,1.5,5.211,11.119,0,10.117-1.9,11.419-4.708,11.419h-2.807a1.841,1.841,0,0,0-1.9,1.9v2.105a1.84,1.84,0,0,0,1.9,1.9h2.807c3.1,0,5.409,1.3,5.409,12.321s-2.206,12.02-5.71,12.02c-4.407,0-5.31-4.307-5.009-10.216.1-2.1-.5-3.307-2-3.307h-2.4a2.373,2.373,0,0,0-2.507,2.7c0,13.221,4.008,17.129,12.022,17.129,7.512,0,12.822-4.409,12.822-18.331C141.96,150.263,139.754,145.556,136.349,143.252Z"/><path class="cls-3" d="M182.737,112.3h-2a2.888,2.888,0,0,0-2.507,1.9l-28.146,60.4c-.5,1.1.2,1.9,1.3,1.9h2a2.883,2.883,0,0,0,2.5-1.9l28.15-60.4C184.539,113.1,183.838,112.3,182.737,112.3Z"/><path class="cls-3" d="M178.33,146.058c-6.613,0-9.919,5.307-9.919,15.726,0,10.316,3.306,15.726,9.919,15.726,6.811,0,9.915-5.41,9.915-15.726C188.245,151.365,185.141,146.058,178.33,146.058Zm0,26.042c-3.207,0-4.007-3.607-4.007-10.316,0-6.813.8-10.318,4.007-10.318,3.3,0,4.007,3.5,4.007,10.318C182.337,168.493,181.633,172.1,178.33,172.1Z"/><path class="cls-3" d="M165.706,127.025c0-10.418-3.1-15.728-9.914-15.728-6.613,0-9.92,5.31-9.92,15.728,0,10.317,3.307,15.726,9.92,15.726C162.6,142.751,165.706,137.342,165.706,127.025Zm-13.922,0c0-6.813.8-10.317,4.008-10.317,3.306,0,4.007,3.5,4.007,10.317,0,6.71-.7,10.317-4.007,10.317C152.584,137.342,151.784,133.735,151.784,127.025Z"/></svg>