<svg id="Layer_1" data-name="Layer 1" xmlns="http://www.w3.org/2000/svg" viewBox="0 0 300 300"><defs><style>.cls-1{fill:#f21b16;}.cls-2{fill:#e6e6e6;}.cls-3{fill:#5e5e5e;}</style></defs><path class="cls-1" d="M243.911,256.8l-10.629-13.127A122.431,122.431,0,0,0,156.316,26.036l-1.406.008-.14-16.886,1.546-.008c76.818,0,139.314,62.5,139.314,139.313A138.829,138.829,0,0,1,243.911,256.8Z"/><path class="cls-2" d="M228.3,247.541c-.4.291-.815.552-1.218.837l9.926,13.662L239.4,260.3l-9.926-13.661C229.075,246.937,228.7,247.25,228.3,247.541Z"/><path class="cls-2" d="M221.936,251.866c-.419.265-.848.5-1.268.759l9.048,14.258,2.5-1.584-9.048-14.258C222.748,251.311,222.354,251.6,221.936,251.866Z"/><path class="cls-2" d="M215.314,255.781c-.435.239-.878.446-1.314.679l8.136,14.8,2.589-1.424-8.135-14.8C216.16,255.28,215.748,255.543,215.314,255.781Z"/><path class="cls-2" d="M208.459,259.274c-.449.212-.9.39-1.353.6l7.189,15.279,2.674-1.258-7.19-15.279C209.335,258.826,208.907,259.063,208.459,259.274Z"/><path class="cls-2" d="M201.4,262.33c-.461.182-.926.331-1.388.508l6.217,15.7,2.747-1.088-6.216-15.7C202.3,261.937,201.859,262.147,201.4,262.33Z"/><path class="cls-2" d="M194.159,264.936c-.471.153-.945.273-1.417.42l5.219,16.06,2.81-.913-5.218-16.06C195.084,264.6,194.631,264.783,194.159,264.936Z"/><path class="cls-2" d="M186.771,267.082c-.48.124-.96.213-1.44.331l4.2,16.356,2.863-.735-4.2-16.356C187.716,266.806,187.252,266.959,186.771,267.082Z"/><path class="cls-2" d="M179.263,268.76c-.487.093-.972.153-1.458.24l3.164,16.587,2.9-.553-3.164-16.588C180.223,268.544,179.75,268.668,179.263,268.76Z"/><path class="cls-2" d="M171.665,269.964c-.492.062-.98.091-1.471.147l2.116,16.754,2.932-.371-2.116-16.753C172.636,269.809,172.156,269.9,171.665,269.964Z"/><path class="cls-2" d="M164.005,270.688c-.5.031-.983.029-1.477.055l1.061,16.853,2.949-.186-1.061-16.853C164.985,270.594,164.5,270.657,164.005,270.688Z"/><path class="cls-2" d="M156.315,270.93c-.5,0-.983-.033-1.477-.038v16.886h2.955V270.892C157.3,270.9,156.811,270.93,156.315,270.93Z"/><path class="cls-2" d="M148.626,270.688c-.5-.031-.98-.094-1.472-.131l-1.061,16.853,2.949.186,1.061-16.853C149.609,270.717,149.121,270.719,148.626,270.688Z"/><path class="cls-2" d="M140.966,269.964c-.491-.062-.971-.155-1.461-.223l-2.116,16.753,2.932.371,2.116-16.754C141.946,270.055,141.458,270.026,140.966,269.964Z"/><path class="cls-2" d="M133.368,268.76c-.487-.092-.96-.216-1.445-.314l-3.164,16.588,2.9.553L134.826,269C134.34,268.913,133.855,268.853,133.368,268.76Z"/><path class="cls-2" d="M125.86,267.082c-.481-.123-.945-.276-1.422-.4l-4.2,16.356,2.863.735,4.2-16.356C126.82,267.3,126.34,267.206,125.86,267.082Z"/><path class="cls-2" d="M118.472,264.936c-.472-.153-.925-.335-1.394-.493L111.86,280.5l2.81.913,5.219-16.06C119.417,265.209,118.943,265.089,118.472,264.936Z"/><path class="cls-2" d="M111.233,262.33c-.461-.183-.9-.393-1.36-.58l-6.216,15.7,2.747,1.088,6.217-15.7C112.159,262.661,111.694,262.512,111.233,262.33Z"/><path class="cls-2" d="M104.172,259.274c-.448-.211-.876-.448-1.32-.663l-7.19,15.279,2.674,1.258,7.189-15.279C105.076,259.664,104.621,259.486,104.172,259.274Z"/><path class="cls-2" d="M97.317,255.781c-.434-.238-.846-.5-1.276-.745l-8.135,14.8,2.589,1.424,8.136-14.8C98.2,256.227,97.752,256.02,97.317,255.781Z"/><path class="cls-2" d="M90.7,251.866c-.418-.266-.812-.555-1.227-.825L80.42,265.3l2.5,1.584,9.048-14.258C91.543,252.365,91.114,252.131,90.7,251.866Z"/><path class="cls-2" d="M84.332,247.541c-.4-.291-.776-.6-1.173-.9L73.233,260.3l2.391,1.737,9.926-13.662C85.147,248.093,84.733,247.832,84.332,247.541Z"/><path class="cls-2" d="M78.253,242.826c-.382-.316-.737-.653-1.114-.972L66.375,254.866l2.277,1.884,10.764-13.012C79.031,243.427,78.635,243.142,78.253,242.826Z"/><path class="cls-2" d="M72.482,237.738c-.361-.34-.695-.7-1.051-1.04l-11.559,12.31,2.154,2.023,11.559-12.31C73.221,238.387,72.843,238.077,72.482,237.738Z"/><path class="cls-2" d="M67.042,232.3c-.339-.362-.649-.739-.984-1.1l-12.31,11.559,2.023,2.154,12.31-11.559C67.739,232.992,67.381,232.659,67.042,232.3Z"/><path class="cls-2" d="M61.954,226.527c-.316-.382-.6-.779-.912-1.163L48.031,236.128l1.883,2.277,13.011-10.764C62.606,227.264,62.27,226.909,61.954,226.527Z"/><path class="cls-2" d="M57.239,220.448c-.291-.4-.552-.815-.838-1.218L42.74,229.156l1.737,2.39,13.661-9.925C57.843,221.224,57.53,220.849,57.239,220.448Z"/><path class="cls-2" d="M52.915,214.084c-.266-.418-.5-.847-.76-1.267L37.9,221.865l1.584,2.5,14.257-9.048C53.469,214.9,53.18,214.5,52.915,214.084Z"/><path class="cls-2" d="M49,207.462c-.239-.434-.445-.877-.678-1.313l-14.8,8.136,1.424,2.589,14.8-8.135C49.5,208.308,49.237,207.9,49,207.462Z"/><path class="cls-2" d="M45.506,200.608c-.211-.449-.39-.9-.595-1.354l-15.279,7.191,1.258,2.673,15.279-7.19C45.954,201.483,45.716,201.056,45.506,200.608Z"/><path class="cls-2" d="M42.45,193.547c-.182-.461-.332-.926-.509-1.388l-15.7,6.216,1.088,2.748,15.7-6.216C42.842,194.449,42.632,194.008,42.45,193.547Z"/><path class="cls-2" d="M39.844,186.308c-.153-.471-.273-.945-.42-1.417l-16.06,5.218.913,2.811,16.06-5.218C40.179,187.234,40,186.78,39.844,186.308Z"/><path class="cls-2" d="M37.7,178.92c-.123-.48-.213-.96-.331-1.44l-16.356,4.2.735,2.862,16.356-4.2C37.973,179.865,37.821,179.4,37.7,178.92Z"/><path class="cls-2" d="M36.019,171.412c-.093-.487-.152-.972-.239-1.458l-16.588,3.164.554,2.9,16.588-3.165C36.235,172.372,36.112,171.9,36.019,171.412Z"/><path class="cls-2" d="M34.816,163.813c-.062-.491-.091-.979-.148-1.47l-16.753,2.116.37,2.932,16.754-2.117C34.971,164.785,34.878,164.305,34.816,163.813Z"/><path class="cls-2" d="M34.092,156.154c-.031-.494-.029-.983-.055-1.477l-16.853,1.06.185,2.95,16.854-1.061C34.186,157.133,34.123,156.649,34.092,156.154Z"/><path class="cls-2" d="M33.85,148.464c0-.5.033-.983.038-1.477H17v2.955H33.888C33.883,149.448,33.85,148.96,33.85,148.464Z"/><path class="cls-2" d="M34.092,140.775c.031-.5.094-.979.131-1.473l-16.854-1.06-.185,2.949,16.853,1.061C34.063,141.758,34.061,141.269,34.092,140.775Z"/><path class="cls-2" d="M34.816,133.115c.062-.491.155-.971.223-1.461l-16.754-2.116-.37,2.932,16.753,2.116C34.725,134.1,34.754,133.607,34.816,133.115Z"/><path class="cls-2" d="M36.019,125.517c.093-.487.216-.96.315-1.444l-16.588-3.165-.554,2.9,16.588,3.164C35.867,126.489,35.926,126,36.019,125.517Z"/><path class="cls-2" d="M37.7,118.009c.123-.48.275-.945.4-1.422l-16.356-4.2-.735,2.863,16.356,4.2C37.485,118.969,37.575,118.489,37.7,118.009Z"/><path class="cls-2" d="M39.844,110.62c.153-.471.335-.925.493-1.393l-16.06-5.218-.913,2.81,16.06,5.219C39.571,111.566,39.691,111.092,39.844,110.62Z"/><path class="cls-2" d="M42.45,103.382c.182-.461.392-.9.579-1.36l-15.7-6.216-1.088,2.747,15.7,6.217C42.118,104.308,42.268,103.842,42.45,103.382Z"/><path class="cls-2" d="M45.506,96.321c.21-.448.448-.876.663-1.321L30.89,87.81l-1.258,2.674,15.279,7.19C45.116,97.225,45.3,96.77,45.506,96.321Z"/><path class="cls-2" d="M49,89.466c.239-.434.5-.846.745-1.276l-14.8-8.136-1.424,2.59,14.8,8.135C48.553,90.344,48.759,89.9,49,89.466Z"/><path class="cls-2" d="M52.915,82.844c.265-.418.554-.813.823-1.227L39.481,72.569,37.9,75.064l14.258,9.048C52.415,83.692,52.649,83.262,52.915,82.844Z"/><path class="cls-2" d="M57.239,76.481c.291-.4.6-.777.9-1.173L44.477,65.383l-1.737,2.39L56.4,77.7C56.687,77.3,56.948,76.882,57.239,76.481Z"/><path class="cls-2" d="M61.954,70.4c.316-.382.652-.737.971-1.114L49.914,58.524,48.031,60.8,61.042,71.565C61.352,71.181,61.638,70.784,61.954,70.4Z"/><path class="cls-2" d="M67.042,64.631c.339-.361.7-.694,1.039-1.051L55.771,52.02l-2.023,2.155,12.31,11.559C66.393,65.37,66.7,64.993,67.042,64.631Z"/><path class="cls-2" d="M72.482,59.191c.361-.339.739-.65,1.1-.984L62.026,45.9l-2.154,2.023L71.431,60.23C71.787,59.888,72.121,59.53,72.482,59.191Z"/><path class="cls-2" d="M78.253,54.1c.382-.316.778-.6,1.163-.912L68.652,40.179l-2.277,1.884L77.139,55.074C77.516,54.755,77.871,54.419,78.253,54.1Z"/><path class="cls-2" d="M84.332,49.388c.4-.292.815-.552,1.218-.838L75.624,34.888l-2.391,1.738,9.926,13.661C83.556,49.992,83.931,49.679,84.332,49.388Z"/><path class="cls-2" d="M90.7,45.063c.419-.265.848-.5,1.268-.759L82.915,30.046l-2.5,1.583,9.048,14.259C89.883,45.618,90.277,45.329,90.7,45.063Z"/><path class="cls-2" d="M97.317,41.147c.435-.238.878-.445,1.314-.678L90.5,25.671,87.906,27.1l8.135,14.8C96.471,41.649,96.883,41.386,97.317,41.147Z"/><path class="cls-2" d="M104.172,37.655c.449-.212.9-.39,1.353-.595L98.336,21.78l-2.674,1.259,7.19,15.279C103.3,38.1,103.724,37.866,104.172,37.655Z"/><path class="cls-2" d="M111.233,34.6c.461-.182.926-.332,1.388-.508L106.4,18.39l-2.747,1.087,6.216,15.7C110.331,34.991,110.772,34.781,111.233,34.6Z"/><path class="cls-2" d="M118.472,31.993c.471-.153.945-.273,1.417-.421l-5.219-16.06-2.81.914,5.218,16.06C117.547,32.328,118,32.146,118.472,31.993Z"/><path class="cls-2" d="M125.86,29.847c.48-.124.96-.214,1.44-.331L123.1,13.16l-2.863.735,4.2,16.356C124.915,30.123,125.379,29.97,125.86,29.847Z"/><path class="cls-2" d="M133.368,28.168c.487-.093.972-.152,1.458-.239l-3.164-16.587-2.9.553,3.164,16.588C132.408,28.385,132.881,28.261,133.368,28.168Z"/><path class="cls-2" d="M140.966,26.965c.492-.063.98-.091,1.471-.148l-2.116-16.753-2.932.37,2.116,16.754C140,27.12,140.475,27.027,140.966,26.965Z"/><path class="cls-2" d="M148.626,26.241c.5-.031.983-.03,1.477-.055L149.042,9.333l-2.949.185,1.061,16.853C147.646,26.335,148.131,26.272,148.626,26.241Z"/><path class="cls-3" d="M124.9,145.143c2.906-2.2,4.91-6.512,4.91-14.125,0-12.419-4.609-17.429-12.121-17.429-8.014,0-12.022,3.806-12.022,16.027a2.373,2.373,0,0,0,2.507,2.7h2.4c1.5,0,2.1-1.2,2-3.306-.3-4.908.4-9.116,4.807-9.116,3.006,0,5.211,1.5,5.211,11.119,0,10.117-1.9,11.42-4.708,11.42h-2.807a1.841,1.841,0,0,0-1.9,1.9v2.1a1.841,1.841,0,0,0,1.9,1.9h2.807c3.1,0,5.409,1.3,5.409,12.321s-2.206,12.019-5.71,12.019c-4.407,0-5.31-4.306-5.009-10.216.1-2.1-.5-3.306-2-3.306h-2.4a2.373,2.373,0,0,0-2.507,2.7c0,13.222,4.008,17.13,12.022,17.13,7.512,0,12.822-4.409,12.822-18.331C130.508,152.153,128.3,147.447,124.9,145.143Z"/><path class="cls-3" d="M147.242,113.589c-7.813,0-12.62,4.908-12.62,19.332s4.407,19.333,11.618,19.333c2.507,0,5.71-1.2,7.116-3.906,0,17.33-.7,24.34-6.411,24.34-4.209,0-5.112-4.207-4.811-9.115.1-2.1-.5-3.3-2-3.3h-2.3a2.373,2.373,0,0,0-2.507,2.7c0,12.22,4.308,16.027,11.622,16.027,12.92,0,13.32-13.223,13.32-37.263C160.265,121.5,157.359,113.589,147.242,113.589Zm0,32.654c-3.1,0-5.409-1.7-5.409-13.322s2.3-13.323,5.409-13.323,6.011,1.7,6.011,13.323S150.35,146.243,147.242,146.243Z"/><path class="cls-3" d="M184.713,128.916c0-10.419-3.1-15.729-9.915-15.729-6.613,0-9.919,5.31-9.919,15.729,0,10.317,3.306,15.726,9.919,15.726C181.609,144.642,184.713,139.233,184.713,128.916Zm-13.922,0c0-6.813.8-10.317,4.007-10.317,3.306,0,4.007,3.5,4.007,10.317,0,6.709-.7,10.317-4.007,10.317C171.59,139.233,170.791,135.625,170.791,128.916Z"/><path class="cls-3" d="M201.744,114.189h-2a2.888,2.888,0,0,0-2.507,1.905l-28.145,60.4c-.5,1.1.2,1.9,1.3,1.9h2a2.884,2.884,0,0,0,2.5-1.9l28.149-60.4C203.545,114.991,202.844,114.189,201.744,114.189Z"/><path class="cls-3" d="M197.337,147.946c-6.613,0-9.92,5.31-9.92,15.728,0,10.317,3.307,15.726,9.92,15.726,6.81,0,9.915-5.409,9.915-15.726C207.252,153.256,204.147,147.946,197.337,147.946Zm0,26.045c-3.208,0-4.008-3.605-4.008-10.317,0-6.813.8-10.317,4.008-10.317,3.3,0,4.007,3.5,4.007,10.317C201.344,170.386,200.639,173.991,197.337,173.991Z"/></svg>