<svg id="Layer_1" data-name="Layer 1" xmlns="http://www.w3.org/2000/svg" viewBox="0 0 300 300"><defs><style>.cls-1{fill:#fcad22;}.cls-2{fill:#e6e6e6;}.cls-3{fill:#5e5e5e;}</style></defs><path class="cls-1" d="M231.265,262.724l-9.779-13.765a122.436,122.436,0,0,0-70.84-222.291l-1.373.008-.215-16.887,1.588-.008c76.818,0,139.314,62.5,139.314,139.314A139.666,139.666,0,0,1,231.265,262.724Z"/><path class="cls-2" d="M216.264,252.5c-.418.266-.847.5-1.267.76l9.048,14.258,2.5-1.584-9.048-14.257C217.077,251.941,216.683,252.23,216.264,252.5Z"/><path class="cls-2" d="M209.642,256.412c-.434.239-.877.445-1.313.678l8.135,14.8,2.59-1.424-8.135-14.8C210.488,255.909,210.077,256.173,209.642,256.412Z"/><path class="cls-2" d="M202.787,259.9c-.448.211-.9.39-1.353.6l7.19,15.28,2.674-1.259-7.19-15.279C203.663,259.456,203.236,259.694,202.787,259.9Z"/><path class="cls-2" d="M195.727,262.96c-.461.182-.927.332-1.388.509l6.216,15.7,2.748-1.088-6.217-15.7C196.629,262.568,196.187,262.778,195.727,262.96Z"/><path class="cls-2" d="M188.488,265.566c-.471.153-.945.273-1.417.42l5.218,16.06,2.811-.913-5.218-16.06C189.413,265.231,188.959,265.413,188.488,265.566Z"/><path class="cls-2" d="M181.1,267.712c-.48.124-.961.213-1.441.331l4.2,16.356,2.862-.735-4.2-16.356C182.044,267.437,181.58,267.589,181.1,267.712Z"/><path class="cls-2" d="M173.592,269.391c-.487.093-.972.152-1.459.239l3.165,16.588,2.9-.554-3.164-16.588C174.552,269.175,174.079,269.3,173.592,269.391Z"/><path class="cls-2" d="M165.993,270.594c-.492.062-.98.091-1.471.148l2.117,16.753,2.932-.37-2.117-16.754C166.965,270.439,166.485,270.532,165.993,270.594Z"/><path class="cls-2" d="M158.334,271.318c-.5.031-.984.029-1.477.055l1.06,16.853,2.949-.185-1.06-16.854C159.313,271.224,158.828,271.287,158.334,271.318Z"/><path class="cls-2" d="M150.644,271.56c-.5,0-.983-.033-1.477-.038v16.886h2.955V271.522C151.627,271.527,151.14,271.56,150.644,271.56Z"/><path class="cls-2" d="M142.954,271.318c-.494-.031-.979-.094-1.472-.131l-1.06,16.854,2.949.185,1.061-16.853C143.938,271.347,143.449,271.349,142.954,271.318Z"/><path class="cls-2" d="M135.295,270.594c-.492-.062-.971-.155-1.461-.223l-2.116,16.754,2.931.37,2.117-16.753C136.275,270.685,135.787,270.656,135.295,270.594Z"/><path class="cls-2" d="M127.7,269.391c-.487-.093-.959-.216-1.444-.315l-3.164,16.588,2.9.554,3.164-16.588C128.668,269.543,128.183,269.484,127.7,269.391Z"/><path class="cls-2" d="M120.188,267.712c-.48-.123-.944-.275-1.421-.4l-4.2,16.356,2.862.735,4.2-16.356C121.149,267.925,120.668,267.836,120.188,267.712Z"/><path class="cls-2" d="M112.8,265.566c-.471-.153-.925-.335-1.393-.493l-5.218,16.06,2.81.913,5.218-16.06C113.745,265.839,113.272,265.719,112.8,265.566Z"/><path class="cls-2" d="M105.562,262.96c-.461-.182-.9-.392-1.36-.579l-6.216,15.7,2.747,1.088,6.216-15.7C106.488,263.292,106.022,263.142,105.562,262.96Z"/><path class="cls-2" d="M98.5,259.9c-.449-.21-.876-.448-1.321-.663L89.99,274.52l2.674,1.259,7.19-15.28C99.405,260.294,98.949,260.115,98.5,259.9Z"/><path class="cls-2" d="M91.646,256.412c-.434-.239-.846-.5-1.277-.745l-8.135,14.8,2.59,1.424,8.135-14.8C92.523,256.857,92.08,256.651,91.646,256.412Z"/><path class="cls-2" d="M85.024,252.5c-.418-.265-.813-.554-1.227-.823l-9.048,14.257,2.494,1.584,9.049-14.258C85.872,253,85.442,252.761,85.024,252.5Z"/><path class="cls-2" d="M78.661,248.171c-.4-.291-.777-.6-1.173-.9l-9.926,13.661,2.391,1.737,9.926-13.661C79.476,248.723,79.062,248.462,78.661,248.171Z"/><path class="cls-2" d="M72.582,243.456c-.382-.316-.737-.652-1.115-.971L60.7,255.5l2.277,1.883,10.764-13.011C73.36,244.058,72.964,243.772,72.582,243.456Z"/><path class="cls-2" d="M66.811,238.368c-.361-.339-.7-.7-1.051-1.039L54.2,249.639l2.154,2.023,11.56-12.31C67.55,239.017,67.172,238.707,66.811,238.368Z"/><path class="cls-2" d="M61.371,232.928c-.339-.361-.65-.739-.984-1.1l-12.31,11.559,2.023,2.155,12.31-11.56C62.068,233.623,61.71,233.289,61.371,232.928Z"/><path class="cls-2" d="M56.283,227.157c-.316-.382-.6-.778-.913-1.163L42.359,236.758l1.884,2.277,13.011-10.764C56.935,227.894,56.6,227.539,56.283,227.157Z"/><path class="cls-2" d="M51.568,221.078c-.292-.4-.552-.815-.838-1.218l-13.662,9.926,1.738,2.391,13.661-9.926C52.172,221.854,51.859,221.479,51.568,221.078Z"/><path class="cls-2" d="M47.243,214.715c-.265-.419-.5-.848-.76-1.268L32.226,222.5l1.583,2.5,14.258-9.048C47.8,215.527,47.509,215.133,47.243,214.715Z"/><path class="cls-2" d="M43.327,208.093c-.239-.435-.445-.878-.679-1.314l-14.8,8.136,1.423,2.589,14.8-8.135C43.829,208.939,43.565,208.527,43.327,208.093Z"/><path class="cls-2" d="M39.834,201.238c-.211-.449-.389-.9-.594-1.353l-15.28,7.189,1.258,2.674,15.28-7.189C40.282,202.114,40.045,201.686,39.834,201.238Z"/><path class="cls-2" d="M36.779,194.177c-.183-.461-.332-.926-.509-1.388l-15.7,6.217,1.088,2.747,15.7-6.216C37.171,195.08,36.961,194.638,36.779,194.177Z"/><path class="cls-2" d="M34.173,186.939c-.154-.472-.273-.946-.421-1.418l-16.06,5.219.913,2.81,16.06-5.218C34.508,187.863,34.326,187.41,34.173,186.939Z"/><path class="cls-2" d="M32.026,179.55c-.123-.48-.213-.96-.331-1.44l-16.355,4.2.735,2.862,16.355-4.2C32.3,180.5,32.149,180.031,32.026,179.55Z"/><path class="cls-2" d="M30.348,172.042c-.093-.487-.152-.972-.239-1.458l-16.588,3.164.554,2.9,16.587-3.164C30.564,173,30.441,172.529,30.348,172.042Z"/><path class="cls-2" d="M29.144,164.444c-.062-.492-.09-.98-.147-1.471l-16.754,2.116.371,2.932,16.753-2.116C29.3,165.415,29.206,164.935,29.144,164.444Z"/><path class="cls-2" d="M28.42,156.784c-.031-.5-.029-.983-.055-1.477l-16.853,1.061.186,2.949,16.853-1.061C28.514,157.764,28.452,157.279,28.42,156.784Z"/><path class="cls-2" d="M28.179,149.1c0-.5.032-.984.038-1.478H11.33v2.955H28.217C28.211,150.078,28.179,149.59,28.179,149.1Z"/><path class="cls-2" d="M28.42,141.405c.032-.5.094-.98.131-1.472L11.7,138.872l-.186,2.95,16.853,1.06C28.391,142.389,28.389,141.9,28.42,141.405Z"/><path class="cls-2" d="M29.144,133.746c.062-.492.156-.972.223-1.462l-16.753-2.116-.371,2.932L29,135.216C29.054,134.725,29.082,134.237,29.144,133.746Z"/><path class="cls-2" d="M30.348,126.147c.093-.487.216-.96.314-1.445l-16.587-3.164-.554,2.9,16.588,3.164C30.2,127.119,30.255,126.634,30.348,126.147Z"/><path class="cls-2" d="M32.026,118.638c.123-.48.276-.943.4-1.421l-16.355-4.2-.735,2.863,16.355,4.2C31.813,119.6,31.9,119.119,32.026,118.638Z"/><path class="cls-2" d="M34.173,111.251c.153-.472.335-.925.492-1.394l-16.06-5.218-.913,2.81,16.06,5.219C33.9,112.2,34.019,111.722,34.173,111.251Z"/><path class="cls-2" d="M36.779,104.012c.182-.461.392-.9.579-1.36l-15.7-6.216-1.088,2.747,15.7,6.217C36.447,104.938,36.6,104.473,36.779,104.012Z"/><path class="cls-2" d="M39.834,96.952c.211-.449.448-.876.664-1.321l-15.28-7.19L23.96,91.115l15.28,7.19C39.445,97.855,39.623,97.4,39.834,96.952Z"/><path class="cls-2" d="M43.327,90.1c.238-.434.5-.846.745-1.276l-14.8-8.135-1.423,2.589,14.8,8.135C42.882,90.974,43.088,90.531,43.327,90.1Z"/><path class="cls-2" d="M47.243,83.474c.266-.418.555-.812.824-1.227L33.809,73.2l-1.583,2.5,14.257,9.048C46.744,84.322,46.978,83.893,47.243,83.474Z"/><path class="cls-2" d="M51.568,77.111c.291-.4.6-.776.9-1.173L38.806,66.012,37.068,68.4,50.73,78.329C51.016,77.926,51.276,77.512,51.568,77.111Z"/><path class="cls-2" d="M56.283,71.032c.316-.382.652-.737.971-1.114L44.243,59.154l-1.884,2.277L55.37,72.195C55.681,71.81,55.967,71.414,56.283,71.032Z"/><path class="cls-2" d="M61.371,65.261c.339-.361.7-.694,1.039-1.051L50.1,52.651l-2.023,2.154,12.31,11.56C60.721,66,61.032,65.622,61.371,65.261Z"/><path class="cls-2" d="M66.811,59.821c.361-.339.739-.649,1.1-.984L56.354,46.528,54.2,48.551,65.76,60.86C66.116,60.518,66.45,60.16,66.811,59.821Z"/><path class="cls-2" d="M72.582,54.734c.382-.317.778-.6,1.163-.913L62.981,40.81,60.7,42.693,71.467,55.705C71.845,55.385,72.2,55.049,72.582,54.734Z"/><path class="cls-2" d="M78.661,50.018c.4-.291.815-.552,1.218-.838L69.953,35.519l-2.391,1.737,9.926,13.661C77.884,50.623,78.26,50.309,78.661,50.018Z"/><path class="cls-2" d="M85.024,45.694c.418-.266.848-.5,1.268-.76L77.243,30.676,74.749,32.26,83.8,46.517C84.211,46.248,84.606,45.959,85.024,45.694Z"/><path class="cls-2" d="M91.646,41.777c.434-.239.877-.445,1.313-.678L84.824,26.3l-2.59,1.424,8.135,14.8C90.8,42.28,91.212,42.016,91.646,41.777Z"/><path class="cls-2" d="M98.5,38.285c.448-.211.9-.389,1.353-.595l-7.19-15.279L89.99,23.669l7.19,15.279C97.625,38.733,98.052,38.495,98.5,38.285Z"/><path class="cls-2" d="M105.562,35.229c.46-.182.926-.332,1.387-.509l-6.216-15.7-2.747,1.088,6.216,15.7C104.659,35.621,105.1,35.412,105.562,35.229Z"/><path class="cls-2" d="M112.8,32.623c.472-.153.945-.273,1.417-.42L109,16.143l-2.81.913,5.218,16.06C111.875,32.958,112.329,32.776,112.8,32.623Z"/><path class="cls-2" d="M120.188,30.477c.48-.123.961-.213,1.441-.331l-4.2-16.356-2.862.735,4.2,16.356C119.244,30.753,119.708,30.6,120.188,30.477Z"/><path class="cls-2" d="M127.7,28.8c.487-.093.972-.152,1.459-.239l-3.164-16.588-2.9.554,3.164,16.588C126.737,29.015,127.209,28.891,127.7,28.8Z"/><path class="cls-2" d="M135.295,27.6c.492-.062.98-.091,1.471-.148l-2.117-16.753-2.931.371,2.116,16.753C134.324,27.751,134.8,27.657,135.295,27.6Z"/><path class="cls-2" d="M142.954,26.871c.5-.031.984-.029,1.478-.055L143.371,9.963l-2.949.185L141.482,27C141.975,26.965,142.46,26.9,142.954,26.871Z"/><path class="cls-3" d="M123.836,158.493h-3.9V147.075a1.845,1.845,0,0,0-1.905-1.905H114.82a1.841,1.841,0,0,0-1.9,1.905v11.418h-7.714l9.916-37.863a19.8,19.8,0,0,0,.8-4.007,1.737,1.737,0,0,0-1.806-1.8h-3.105a1.952,1.952,0,0,0-2,1.7L98.8,157.491a17.941,17.941,0,0,0-.6,3.2V163.1A1.734,1.734,0,0,0,100,164.9h12.921v12.222a1.841,1.841,0,0,0,1.9,1.9h3.207a1.844,1.844,0,0,0,1.905-1.9V164.9h3.9a1.842,1.842,0,0,0,1.905-1.9v-2.6A1.844,1.844,0,0,0,123.836,158.493Z"/><path class="cls-3" d="M142.174,114.219c-8.312,0-12.822,5.609-12.822,32.654s4.51,32.757,12.822,32.757S155,173.92,155,146.873,150.489,114.219,142.174,114.219Zm0,58.9c-3.6,0-5.607-2.305-5.607-26.245s2-26.144,5.607-26.144,5.611,2.2,5.611,26.144S145.781,173.118,142.174,173.118Z"/><path class="cls-3" d="M179.447,129.545c0-10.418-3.1-15.728-9.915-15.728-6.613,0-9.919,5.31-9.919,15.728,0,10.317,3.306,15.726,9.919,15.726C176.342,145.271,179.447,139.862,179.447,129.545Zm-13.922,0c0-6.812.8-10.317,4.007-10.317,3.307,0,4.007,3.505,4.007,10.317,0,6.71-.7,10.317-4.007,10.317C166.325,139.862,165.525,136.255,165.525,129.545Z"/><path class="cls-3" d="M192.071,148.575c-6.613,0-9.92,5.311-9.92,15.728,0,10.318,3.307,15.726,9.92,15.726,6.81,0,9.914-5.408,9.914-15.726C201.985,153.886,198.881,148.575,192.071,148.575Zm0,26.046c-3.208,0-4.008-3.606-4.008-10.318,0-6.812.8-10.316,4.008-10.316,3.3,0,4.007,3.5,4.007,10.316C196.078,171.015,195.373,174.621,192.071,174.621Z"/><path class="cls-3" d="M196.478,114.819h-2a2.89,2.89,0,0,0-2.506,1.905l-28.146,60.4c-.5,1.1.2,1.9,1.3,1.9h2a2.884,2.884,0,0,0,2.5-1.9l28.15-60.4C198.279,115.621,197.579,114.819,196.478,114.819Z"/></svg>