<svg id="Layer_1" data-name="Layer 1" xmlns="http://www.w3.org/2000/svg" viewBox="0 0 300 300"><defs><style>.cls-1{fill:#fcad22;}.cls-2{fill:#e6e6e6;}.cls-3{fill:#5e5e5e;}</style></defs><path class="cls-1" d="M224.61,267.569l-8.905-14.351a122.44,122.44,0,0,0-64.43-226.55l-1.373.008-.214-16.887,1.587-.008c76.818,0,139.314,62.5,139.314,139.314A138.59,138.59,0,0,1,224.61,267.569Z"/><path class="cls-2" d="M210.273,256.412c-.435.239-.878.445-1.314.678l8.135,14.8,2.59-1.424-8.135-14.8C211.119,255.909,210.707,256.173,210.273,256.412Z"/><path class="cls-2" d="M203.417,259.9c-.448.211-.9.39-1.353.6l7.19,15.28,2.674-1.259-7.19-15.279C204.293,259.456,203.866,259.694,203.417,259.9Z"/><path class="cls-2" d="M196.357,262.96c-.461.182-.926.332-1.388.509l6.216,15.7,2.748-1.088-6.216-15.7C197.259,262.568,196.817,262.778,196.357,262.96Z"/><path class="cls-2" d="M189.118,265.566c-.471.153-.945.273-1.417.42l5.219,16.06,2.81-.913-5.218-16.06C190.043,265.231,189.59,265.413,189.118,265.566Z"/><path class="cls-2" d="M181.73,267.712c-.48.124-.96.213-1.44.331l4.2,16.356,2.862-.735-4.2-16.356C182.674,267.437,182.21,267.589,181.73,267.712Z"/><path class="cls-2" d="M174.222,269.391c-.487.093-.972.152-1.459.239l3.164,16.588,2.9-.554-3.164-16.588C175.182,269.175,174.709,269.3,174.222,269.391Z"/><path class="cls-2" d="M166.623,270.594c-.491.062-.979.091-1.47.148l2.116,16.753,2.932-.37-2.116-16.754C167.6,270.439,167.115,270.532,166.623,270.594Z"/><path class="cls-2" d="M158.964,271.318c-.5.031-.983.029-1.477.055l1.06,16.853,2.95-.185-1.061-16.854C159.943,271.224,159.458,271.287,158.964,271.318Z"/><path class="cls-2" d="M151.274,271.56c-.5,0-.983-.033-1.477-.038v16.886h2.955V271.522C152.258,271.527,151.77,271.56,151.274,271.56Z"/><path class="cls-2" d="M143.585,271.318c-.5-.031-.98-.094-1.473-.131l-1.06,16.854,2.949.185,1.06-16.853C144.568,271.347,144.079,271.349,143.585,271.318Z"/><path class="cls-2" d="M135.925,270.594c-.491-.062-.971-.155-1.461-.223l-2.116,16.754,2.931.37,2.117-16.753C136.905,270.685,136.417,270.656,135.925,270.594Z"/><path class="cls-2" d="M128.326,269.391c-.486-.093-.959-.216-1.444-.315l-3.164,16.588,2.9.554,3.164-16.588C129.3,269.543,128.813,269.484,128.326,269.391Z"/><path class="cls-2" d="M120.818,267.712c-.48-.123-.944-.275-1.422-.4l-4.2,16.356,2.862.735,4.2-16.356C121.779,267.925,121.3,267.836,120.818,267.712Z"/><path class="cls-2" d="M113.43,265.566c-.471-.153-.925-.335-1.393-.493l-5.218,16.06,2.81.913,5.218-16.06C114.376,265.839,113.9,265.719,113.43,265.566Z"/><path class="cls-2" d="M106.192,262.96c-.461-.182-.9-.392-1.36-.579l-6.217,15.7,2.748,1.088,6.217-15.7C107.118,263.292,106.653,263.142,106.192,262.96Z"/><path class="cls-2" d="M99.131,259.9c-.448-.21-.876-.448-1.321-.663L90.621,274.52l2.673,1.259,7.19-15.28C100.035,260.294,99.579,260.115,99.131,259.9Z"/><path class="cls-2" d="M92.276,256.412c-.434-.239-.846-.5-1.276-.745l-8.135,14.8,2.589,1.424,8.135-14.8C93.154,256.857,92.71,256.651,92.276,256.412Z"/><path class="cls-2" d="M85.654,252.5c-.419-.265-.813-.554-1.227-.823l-9.048,14.257,2.495,1.584,9.048-14.258C86.5,253,86.073,252.761,85.654,252.5Z"/><path class="cls-2" d="M79.291,248.171c-.4-.291-.776-.6-1.173-.9l-9.926,13.661,2.391,1.737,9.925-13.661C80.106,248.723,79.692,248.462,79.291,248.171Z"/><path class="cls-2" d="M73.212,243.456c-.382-.316-.737-.652-1.114-.971L61.334,255.5l2.277,1.883,10.763-13.011C73.99,244.058,73.594,243.772,73.212,243.456Z"/><path class="cls-2" d="M67.441,238.368c-.362-.339-.7-.7-1.051-1.039l-11.56,12.31,2.154,2.023,11.56-12.31C68.18,239.017,67.8,238.707,67.441,238.368Z"/><path class="cls-2" d="M62,232.928c-.34-.361-.649-.739-.984-1.1l-12.31,11.559,2.023,2.155,12.31-11.56C62.7,233.623,62.34,233.289,62,232.928Z"/><path class="cls-2" d="M56.913,227.157c-.316-.382-.6-.778-.912-1.163L42.989,236.758l1.884,2.277,13.011-10.764C57.565,227.894,57.229,227.539,56.913,227.157Z"/><path class="cls-2" d="M52.2,221.078c-.291-.4-.552-.815-.838-1.218L37.7,229.786l1.736,2.391L53.1,222.251C52.8,221.854,52.489,221.479,52.2,221.078Z"/><path class="cls-2" d="M47.873,214.715c-.265-.419-.5-.848-.759-1.268L32.856,222.5l1.584,2.5L48.7,215.942C48.428,215.527,48.139,215.133,47.873,214.715Z"/><path class="cls-2" d="M43.957,208.093c-.239-.435-.445-.878-.678-1.314l-14.8,8.136,1.424,2.589,14.8-8.135C44.459,208.939,44.2,208.527,43.957,208.093Z"/><path class="cls-2" d="M40.464,201.238c-.211-.449-.389-.9-.594-1.353l-15.28,7.189,1.259,2.674,15.279-7.189C40.913,202.114,40.675,201.686,40.464,201.238Z"/><path class="cls-2" d="M37.409,194.177c-.183-.461-.332-.926-.509-1.388l-15.7,6.217,1.088,2.747,15.7-6.216C37.8,195.08,37.591,194.638,37.409,194.177Z"/><path class="cls-2" d="M34.8,186.939c-.153-.472-.273-.946-.42-1.418L18.322,190.74l.914,2.81,16.06-5.218C35.138,187.863,34.956,187.41,34.8,186.939Z"/><path class="cls-2" d="M32.656,179.55c-.123-.48-.212-.96-.33-1.44l-16.356,4.2.735,2.862,16.356-4.2C32.932,180.5,32.78,180.031,32.656,179.55Z"/><path class="cls-2" d="M30.978,172.042c-.093-.487-.152-.972-.24-1.458l-16.587,3.164.554,2.9,16.587-3.164C31.194,173,31.071,172.529,30.978,172.042Z"/><path class="cls-2" d="M29.775,164.444c-.062-.492-.092-.98-.148-1.471l-16.753,2.116.37,2.932L30,165.905C29.93,165.415,29.837,164.935,29.775,164.444Z"/><path class="cls-2" d="M29.051,156.784c-.032-.5-.03-.983-.055-1.477l-16.853,1.061.185,2.949,16.853-1.061C29.145,157.764,29.082,157.279,29.051,156.784Z"/><path class="cls-2" d="M28.809,149.1c0-.5.033-.984.038-1.478H11.961v2.955H28.847C28.842,150.078,28.809,149.59,28.809,149.1Z"/><path class="cls-2" d="M29.051,141.405c.031-.5.094-.98.13-1.472l-16.853-1.061-.185,2.95L29,142.882C29.021,142.389,29.019,141.9,29.051,141.405Z"/><path class="cls-2" d="M29.775,133.746c.062-.492.155-.972.223-1.462l-16.754-2.116-.37,2.932,16.753,2.116C29.683,134.725,29.713,134.237,29.775,133.746Z"/><path class="cls-2" d="M30.978,126.147c.093-.487.216-.96.314-1.445l-16.587-3.164-.554,2.9,16.587,3.164C30.826,127.119,30.885,126.634,30.978,126.147Z"/><path class="cls-2" d="M32.656,118.638c.124-.48.276-.943.405-1.421l-16.356-4.2-.735,2.863,16.356,4.2C32.444,119.6,32.533,119.119,32.656,118.638Z"/><path class="cls-2" d="M34.8,111.251c.153-.472.335-.925.493-1.394l-16.06-5.218-.914,2.81,16.061,5.219C34.53,112.2,34.65,111.722,34.8,111.251Z"/><path class="cls-2" d="M37.409,104.012c.182-.461.392-.9.579-1.36l-15.7-6.216L21.2,99.183,36.9,105.4C37.077,104.938,37.226,104.473,37.409,104.012Z"/><path class="cls-2" d="M40.464,96.952c.211-.449.449-.876.664-1.321l-15.279-7.19L24.59,91.115l15.28,7.19C40.075,97.855,40.253,97.4,40.464,96.952Z"/><path class="cls-2" d="M43.957,90.1c.239-.434.5-.846.745-1.276l-14.8-8.135-1.424,2.589,14.8,8.135C43.512,90.974,43.718,90.531,43.957,90.1Z"/><path class="cls-2" d="M47.873,83.474c.266-.418.555-.812.824-1.227L34.44,73.2l-1.584,2.5,14.258,9.048C47.374,84.322,47.608,83.893,47.873,83.474Z"/><path class="cls-2" d="M52.2,77.111c.291-.4.6-.776.9-1.173L39.435,66.012,37.7,68.4,51.36,78.329C51.646,77.926,51.907,77.512,52.2,77.111Z"/><path class="cls-2" d="M56.913,71.032c.316-.382.652-.737.971-1.114L44.873,59.154l-1.884,2.277L56,72.195C56.311,71.81,56.6,71.414,56.913,71.032Z"/><path class="cls-2" d="M62,65.261c.339-.361.7-.694,1.039-1.051L50.73,52.651l-2.023,2.154,12.31,11.56C61.352,66,61.661,65.622,62,65.261Z"/><path class="cls-2" d="M67.441,59.821c.361-.339.739-.649,1.1-.984L56.984,46.528,54.83,48.551,66.39,60.86C66.746,60.518,67.079,60.16,67.441,59.821Z"/><path class="cls-2" d="M73.212,54.734c.382-.317.778-.6,1.162-.913L63.611,40.81l-2.277,1.883L72.1,55.705C72.475,55.385,72.83,55.049,73.212,54.734Z"/><path class="cls-2" d="M79.291,50.018c.4-.291.815-.552,1.217-.838L70.583,35.519l-2.391,1.737,9.926,13.661C78.515,50.623,78.89,50.309,79.291,50.018Z"/><path class="cls-2" d="M85.654,45.694c.419-.266.848-.5,1.268-.76L77.874,30.676,75.379,32.26l9.048,14.257C84.841,46.248,85.235,45.959,85.654,45.694Z"/><path class="cls-2" d="M92.276,41.777c.434-.239.878-.445,1.313-.678L85.454,26.3l-2.589,1.424L91,42.522C91.43,42.28,91.842,42.016,92.276,41.777Z"/><path class="cls-2" d="M99.131,38.285c.448-.211.9-.389,1.353-.595l-7.19-15.279-2.673,1.258L97.81,38.948C98.255,38.733,98.683,38.495,99.131,38.285Z"/><path class="cls-2" d="M106.192,35.229c.461-.182.926-.332,1.388-.509l-6.217-15.7-2.748,1.088,6.217,15.7C105.289,35.621,105.731,35.412,106.192,35.229Z"/><path class="cls-2" d="M113.43,32.623c.472-.153.946-.273,1.417-.42l-5.218-16.06-2.81.913,5.218,16.06C112.505,32.958,112.959,32.776,113.43,32.623Z"/><path class="cls-2" d="M120.818,30.477c.48-.123.961-.213,1.441-.331l-4.2-16.356-2.862.735,4.2,16.356C119.874,30.753,120.338,30.6,120.818,30.477Z"/><path class="cls-2" d="M128.326,28.8c.487-.093.973-.152,1.459-.239l-3.164-16.588-2.9.554,3.164,16.588C127.367,29.015,127.84,28.891,128.326,28.8Z"/><path class="cls-2" d="M135.925,27.6c.492-.062.98-.091,1.471-.148l-2.117-16.753-2.931.371,2.116,16.753C134.954,27.751,135.434,27.657,135.925,27.6Z"/><path class="cls-2" d="M143.585,26.871c.494-.031.983-.029,1.476-.055L144,9.963l-2.949.185L142.112,27C142.6,26.965,143.09,26.9,143.585,26.871Z"/><path class="cls-3" d="M131.779,158.5h-3.9V147.077a1.845,1.845,0,0,0-1.905-1.905h-3.207a1.841,1.841,0,0,0-1.9,1.905V158.5h-7.713l9.915-37.863a19.8,19.8,0,0,0,.8-4.007,1.737,1.737,0,0,0-1.806-1.8h-3.1a1.952,1.952,0,0,0-2,1.7l-10.216,40.967a17.924,17.924,0,0,0-.6,3.205V163.1a1.734,1.734,0,0,0,1.806,1.8h12.92v12.222a1.841,1.841,0,0,0,1.9,1.9h3.207a1.844,1.844,0,0,0,1.905-1.9V164.905h3.9a1.842,1.842,0,0,0,1.905-1.9v-2.6A1.844,1.844,0,0,0,131.779,158.5Z"/><path class="cls-3" d="M144.609,114.821h-2a1.844,1.844,0,0,0-1.9,1.905v.7c0,3.606-1.7,5.209-4.708,5.209h-.9a1.841,1.841,0,0,0-1.905,1.9v2.2a1.841,1.841,0,0,0,1.905,1.9H139.3v48.482a1.842,1.842,0,0,0,1.905,1.9h3.405a1.84,1.84,0,0,0,1.9-1.9v-60.4A1.841,1.841,0,0,0,144.609,114.821Z"/><path class="cls-3" d="M172.759,129.547c0-10.418-3.1-15.728-9.915-15.728-6.613,0-9.919,5.31-9.919,15.728,0,10.317,3.306,15.726,9.919,15.726C169.655,145.273,172.759,139.864,172.759,129.547Zm-13.922,0c0-6.812.8-10.317,4.007-10.317,3.306,0,4.007,3.5,4.007,10.317,0,6.71-.7,10.317-4.007,10.317C159.636,139.864,158.837,136.257,158.837,129.547Z"/><path class="cls-3" d="M185.382,148.58c-6.613,0-9.919,5.307-9.919,15.726,0,10.317,3.306,15.726,9.919,15.726,6.811,0,9.916-5.409,9.916-15.726C195.3,153.887,192.193,148.58,185.382,148.58Zm0,26.043c-3.207,0-4.007-3.608-4.007-10.317,0-6.813.8-10.317,4.007-10.317,3.3,0,4.008,3.5,4.008,10.317C189.39,171.015,188.685,174.623,185.382,174.623Z"/><path class="cls-3" d="M189.79,114.821h-2a2.888,2.888,0,0,0-2.507,1.905l-28.145,60.4c-.5,1.1.2,1.9,1.3,1.9h2a2.884,2.884,0,0,0,2.5-1.9l28.149-60.4C191.591,115.623,190.89,114.821,189.79,114.821Z"/></svg>