<svg id="Layer_1" data-name="Layer 1" xmlns="http://www.w3.org/2000/svg" viewBox="0 0 300 300"><defs><style>.cls-1{fill:#fcad22;}.cls-2{fill:#e6e6e6;}.cls-3{fill:#5e5e5e;}</style></defs><path class="cls-1" d="M217.657,271.945l-7.981-14.883A122.444,122.444,0,0,0,151.905,26.668l-1.373.008-.214-16.887,1.587-.008c76.818,0,139.314,62.5,139.314,139.314A139.214,139.214,0,0,1,217.657,271.945Z"/><path class="cls-2" d="M204.048,259.9c-.449.211-.9.39-1.354.6l7.191,15.28,2.673-1.259-7.19-15.279C204.923,259.456,204.5,259.694,204.048,259.9Z"/><path class="cls-2" d="M196.987,262.96c-.461.182-.926.332-1.388.509l6.216,15.7,2.748-1.088-6.216-15.7C197.889,262.568,197.448,262.778,196.987,262.96Z"/><path class="cls-2" d="M189.748,265.566c-.471.153-.945.273-1.417.42l5.218,16.06,2.811-.913-5.218-16.06C190.674,265.231,190.22,265.413,189.748,265.566Z"/><path class="cls-2" d="M182.36,267.712c-.48.124-.96.213-1.44.331l4.2,16.356,2.862-.735-4.2-16.356C183.305,267.437,182.84,267.589,182.36,267.712Z"/><path class="cls-2" d="M174.852,269.391c-.487.093-.972.152-1.458.239l3.164,16.588,2.9-.554L176.3,269.076C175.812,269.175,175.339,269.3,174.852,269.391Z"/><path class="cls-2" d="M167.253,270.594c-.491.062-.979.091-1.47.148L167.9,287.5l2.932-.37-2.117-16.754C168.225,270.439,167.745,270.532,167.253,270.594Z"/><path class="cls-2" d="M159.594,271.318c-.494.031-.983.029-1.477.055l1.06,16.853,2.95-.185-1.061-16.854C160.573,271.224,160.089,271.287,159.594,271.318Z"/><path class="cls-2" d="M151.9,271.56c-.5,0-.983-.033-1.477-.038v16.886h2.955V271.522C152.888,271.527,152.4,271.56,151.9,271.56Z"/><path class="cls-2" d="M144.215,271.318c-.5-.031-.979-.094-1.473-.131l-1.06,16.854,2.95.185,1.06-16.853C145.2,271.347,144.709,271.349,144.215,271.318Z"/><path class="cls-2" d="M136.555,270.594c-.491-.062-.971-.155-1.461-.223l-2.116,16.754,2.932.37,2.116-16.753C137.535,270.685,137.047,270.656,136.555,270.594Z"/><path class="cls-2" d="M128.957,269.391c-.487-.093-.96-.216-1.444-.315l-3.165,16.588,2.9.554,3.164-16.588C129.929,269.543,129.444,269.484,128.957,269.391Z"/><path class="cls-2" d="M121.449,267.712c-.48-.123-.945-.275-1.422-.4l-4.2,16.356,2.863.735,4.2-16.356C122.409,267.925,121.929,267.836,121.449,267.712Z"/><path class="cls-2" d="M114.061,265.566c-.472-.153-.926-.335-1.394-.493l-5.218,16.06,2.81.913,5.219-16.06C115.006,265.839,114.532,265.719,114.061,265.566Z"/><path class="cls-2" d="M106.822,262.96c-.461-.182-.9-.392-1.36-.579l-6.216,15.7,2.747,1.088,6.217-15.7C107.748,263.292,107.283,263.142,106.822,262.96Z"/><path class="cls-2" d="M99.761,259.9c-.448-.21-.876-.448-1.321-.663L91.25,274.52l2.674,1.259,7.19-15.28C100.665,260.294,100.21,260.115,99.761,259.9Z"/><path class="cls-2" d="M92.906,256.412c-.434-.239-.846-.5-1.276-.745l-8.135,14.8,2.589,1.424,8.135-14.8C93.784,256.857,93.341,256.651,92.906,256.412Z"/><path class="cls-2" d="M86.284,252.5c-.418-.265-.813-.554-1.227-.823l-9.048,14.257,2.5,1.584,9.048-14.258C87.132,253,86.7,252.761,86.284,252.5Z"/><path class="cls-2" d="M79.921,248.171c-.4-.291-.777-.6-1.173-.9l-9.925,13.661,2.39,1.737,9.926-13.661C80.736,248.723,80.322,248.462,79.921,248.171Z"/><path class="cls-2" d="M73.842,243.456c-.382-.316-.737-.652-1.114-.971L61.964,255.5l2.277,1.883,10.764-13.011C74.621,244.058,74.224,243.772,73.842,243.456Z"/><path class="cls-2" d="M68.071,238.368c-.361-.339-.694-.7-1.051-1.039l-11.56,12.31,2.155,2.023,11.559-12.31C68.81,239.017,68.433,238.707,68.071,238.368Z"/><path class="cls-2" d="M62.631,232.928c-.339-.361-.65-.739-.984-1.1L49.338,243.384l2.023,2.155,12.309-11.56C63.328,233.623,62.97,233.289,62.631,232.928Z"/><path class="cls-2" d="M57.543,227.157c-.316-.382-.6-.778-.912-1.163L43.619,236.758l1.884,2.277,13.011-10.764C58.2,227.894,57.859,227.539,57.543,227.157Z"/><path class="cls-2" d="M52.828,221.078c-.292-.4-.552-.815-.838-1.218l-13.662,9.926,1.738,2.391,13.661-9.926C53.432,221.854,53.119,221.479,52.828,221.078Z"/><path class="cls-2" d="M48.5,214.715c-.265-.419-.5-.848-.759-1.268L33.486,222.5l1.583,2.5,14.259-9.048C49.058,215.527,48.769,215.133,48.5,214.715Z"/><path class="cls-2" d="M44.587,208.093c-.238-.435-.445-.878-.678-1.314l-14.8,8.136,1.424,2.589,14.8-8.135C45.089,208.939,44.826,208.527,44.587,208.093Z"/><path class="cls-2" d="M41.094,201.238c-.211-.449-.389-.9-.594-1.353l-15.28,7.189,1.259,2.674,15.279-7.189C41.542,202.114,41.306,201.686,41.094,201.238Z"/><path class="cls-2" d="M38.039,194.177c-.182-.461-.332-.926-.508-1.388l-15.7,6.217,1.088,2.747,15.7-6.216C38.431,195.08,38.221,194.638,38.039,194.177Z"/><path class="cls-2" d="M35.433,186.939c-.153-.472-.273-.946-.421-1.418l-16.06,5.219.914,2.81,16.06-5.218C35.768,187.863,35.586,187.41,35.433,186.939Z"/><path class="cls-2" d="M33.287,179.55c-.124-.48-.214-.96-.331-1.44L16.6,182.31l.735,2.862,16.356-4.2C33.563,180.5,33.41,180.031,33.287,179.55Z"/><path class="cls-2" d="M31.608,172.042c-.093-.487-.152-.972-.239-1.458l-16.588,3.164.554,2.9,16.588-3.164C31.825,173,31.7,172.529,31.608,172.042Z"/><path class="cls-2" d="M30.405,164.444c-.063-.492-.091-.98-.148-1.471L13.5,165.089l.37,2.932,16.754-2.116C30.56,165.415,30.467,164.935,30.405,164.444Z"/><path class="cls-2" d="M29.681,156.784c-.031-.5-.03-.983-.055-1.477l-16.853,1.061.185,2.949,16.853-1.061C29.775,157.764,29.712,157.279,29.681,156.784Z"/><path class="cls-2" d="M29.439,149.1c0-.5.033-.984.038-1.478H12.59v2.955H29.477C29.472,150.078,29.439,149.59,29.439,149.1Z"/><path class="cls-2" d="M29.681,141.405c.031-.5.094-.98.13-1.472l-16.853-1.061-.185,2.95,16.853,1.06C29.651,142.389,29.65,141.9,29.681,141.405Z"/><path class="cls-2" d="M30.405,133.746c.062-.492.155-.972.223-1.462l-16.754-2.116L13.5,133.1l16.753,2.116C30.314,134.725,30.342,134.237,30.405,133.746Z"/><path class="cls-2" d="M31.608,126.147c.093-.487.217-.96.315-1.445l-16.588-3.164-.554,2.9,16.588,3.164C31.456,127.119,31.515,126.634,31.608,126.147Z"/><path class="cls-2" d="M33.287,118.638c.123-.48.276-.943.4-1.421l-16.356-4.2L16.6,115.88l16.356,4.2C33.073,119.6,33.163,119.119,33.287,118.638Z"/><path class="cls-2" d="M35.433,111.251c.153-.472.335-.925.493-1.394l-16.06-5.218-.914,2.81,16.06,5.219C35.16,112.2,35.28,111.722,35.433,111.251Z"/><path class="cls-2" d="M38.039,104.012c.182-.461.392-.9.58-1.36l-15.7-6.216L21.83,99.183l15.7,6.217C37.707,104.938,37.857,104.473,38.039,104.012Z"/><path class="cls-2" d="M41.094,96.952c.212-.449.448-.876.664-1.321l-15.279-7.19L25.22,91.115l15.28,7.19C40.705,97.855,40.883,97.4,41.094,96.952Z"/><path class="cls-2" d="M44.587,90.1c.239-.434.5-.846.746-1.276l-14.8-8.135-1.424,2.589,14.8,8.135C44.142,90.974,44.349,90.531,44.587,90.1Z"/><path class="cls-2" d="M48.5,83.474c.266-.418.555-.812.825-1.227L35.069,73.2l-1.583,2.5,14.258,9.048C48,84.322,48.238,83.893,48.5,83.474Z"/><path class="cls-2" d="M52.828,77.111c.291-.4.6-.776.9-1.173L40.066,66.012,38.328,68.4,51.99,78.329C52.276,77.926,52.536,77.512,52.828,77.111Z"/><path class="cls-2" d="M57.543,71.032c.316-.382.652-.737.971-1.114L45.5,59.154l-1.884,2.277L56.631,72.195C56.942,71.81,57.227,71.414,57.543,71.032Z"/><path class="cls-2" d="M62.631,65.261c.339-.361.7-.694,1.039-1.051L51.361,52.651l-2.023,2.154,12.309,11.56C61.981,66,62.292,65.622,62.631,65.261Z"/><path class="cls-2" d="M68.071,59.821c.362-.339.739-.649,1.1-.984L57.615,46.528,55.46,48.551,67.02,60.86C67.377,60.518,67.71,60.16,68.071,59.821Z"/><path class="cls-2" d="M73.842,54.734c.382-.317.779-.6,1.163-.913L64.241,40.81l-2.277,1.883L72.728,55.705C73.105,55.385,73.46,55.049,73.842,54.734Z"/><path class="cls-2" d="M79.921,50.018c.4-.291.815-.552,1.218-.838L71.213,35.519l-2.39,1.737,9.925,13.661C79.144,50.623,79.52,50.309,79.921,50.018Z"/><path class="cls-2" d="M86.284,45.694c.418-.266.848-.5,1.268-.76L78.5,30.676l-2.5,1.584,9.048,14.257C85.471,46.248,85.866,45.959,86.284,45.694Z"/><path class="cls-2" d="M92.906,41.777c.435-.239.878-.445,1.313-.678L86.084,26.3,83.5,27.725l8.135,14.8C92.06,42.28,92.472,42.016,92.906,41.777Z"/><path class="cls-2" d="M99.761,38.285c.449-.211.9-.389,1.353-.595l-7.19-15.279L91.25,23.669l7.19,15.279C98.885,38.733,99.313,38.495,99.761,38.285Z"/><path class="cls-2" d="M106.822,35.229c.461-.182.926-.332,1.388-.509l-6.217-15.7-2.747,1.088,6.216,15.7C105.92,35.621,106.361,35.412,106.822,35.229Z"/><path class="cls-2" d="M114.061,32.623c.471-.153.945-.273,1.417-.42l-5.219-16.06-2.81.913,5.218,16.06C113.135,32.958,113.589,32.776,114.061,32.623Z"/><path class="cls-2" d="M121.449,30.477c.48-.123.96-.213,1.44-.331l-4.2-16.356-2.863.735,4.2,16.356C120.5,30.753,120.969,30.6,121.449,30.477Z"/><path class="cls-2" d="M128.957,28.8c.487-.093.972-.152,1.458-.239l-3.164-16.588-2.9.554,3.165,16.588C128,29.015,128.47,28.891,128.957,28.8Z"/><path class="cls-2" d="M136.555,27.6c.492-.062.98-.091,1.471-.148L135.91,10.694l-2.932.371,2.116,16.753C135.584,27.751,136.064,27.657,136.555,27.6Z"/><path class="cls-2" d="M144.215,26.871c.494-.031.983-.029,1.477-.055l-1.06-16.853-2.95.185L142.742,27C143.236,26.965,143.72,26.9,144.215,26.871Z"/><path class="cls-3" d="M126.95,158.5h-3.9V147.077a1.845,1.845,0,0,0-1.905-1.905h-3.207a1.841,1.841,0,0,0-1.9,1.905V158.5H108.32l9.915-37.863a19.8,19.8,0,0,0,.8-4.007,1.737,1.737,0,0,0-1.806-1.8h-3.1a1.952,1.952,0,0,0-2,1.7l-10.216,40.967a17.924,17.924,0,0,0-.6,3.205V163.1a1.734,1.734,0,0,0,1.806,1.8h12.92v12.222a1.841,1.841,0,0,0,1.9,1.9h3.207a1.844,1.844,0,0,0,1.905-1.9V164.905h3.9a1.842,1.842,0,0,0,1.9-1.9v-2.6A1.844,1.844,0,0,0,126.95,158.5Z"/><path class="cls-3" d="M143.185,114.221c-8.014,0-12.322,3.8-12.322,16.027a2.373,2.373,0,0,0,2.506,2.705h2.4c1.5,0,2.1-1.2,2-3.307-.3-4.908.4-9.115,5.107-9.115,3.806,0,5.711,2.5,5.711,9.917,0,13.924-10.72,25.443-17.229,41.169a7.81,7.81,0,0,0-.6,3.205v2.4a1.737,1.737,0,0,0,1.806,1.8H153.2a1.841,1.841,0,0,0,1.9-1.9v-2.606a1.84,1.84,0,0,0-1.9-1.9H138.078c5.508-14.124,17.727-26.946,17.727-41.169C155.805,119.23,151.3,114.221,143.185,114.221Z"/><path class="cls-3" d="M178.851,129.547c0-10.418-3.1-15.728-9.915-15.728-6.613,0-9.92,5.31-9.92,15.728,0,10.317,3.307,15.726,9.92,15.726C175.746,145.273,178.851,139.864,178.851,129.547Zm-13.923,0c0-6.812.8-10.317,4.008-10.317,3.306,0,4.007,3.5,4.007,10.317,0,6.71-.7,10.317-4.007,10.317C165.728,139.864,164.928,136.257,164.928,129.547Z"/><path class="cls-3" d="M191.475,148.58c-6.613,0-9.92,5.307-9.92,15.726,0,10.317,3.307,15.726,9.92,15.726,6.81,0,9.914-5.409,9.914-15.726C201.389,153.887,198.285,148.58,191.475,148.58Zm0,26.043c-3.208,0-4.008-3.608-4.008-10.317,0-6.813.8-10.317,4.008-10.317,3.3,0,4.007,3.5,4.007,10.317C195.482,171.015,194.777,174.623,191.475,174.623Z"/><path class="cls-3" d="M195.881,114.821h-2a2.893,2.893,0,0,0-2.507,1.905l-28.145,60.4c-.5,1.1.2,1.9,1.3,1.9h2a2.884,2.884,0,0,0,2.5-1.9l28.149-60.4C197.683,115.623,196.982,114.821,195.881,114.821Z"/></svg>