<svg id="Layer_1" data-name="Layer 1" xmlns="http://www.w3.org/2000/svg" viewBox="0 0 300 300"><defs><style>.cls-1{fill:#fcad22;}.cls-2{fill:#e6e6e6;}.cls-3{fill:#5e5e5e;}</style></defs><path class="cls-1" d="M210.442,275.839l-7.025-15.357A122.448,122.448,0,0,0,152.535,26.668l-1.369.008-.215-16.887,1.584-.008c76.818,0,139.313,62.5,139.313,139.314A139.742,139.742,0,0,1,210.442,275.839Z"/><path class="cls-2" d="M197.617,262.96c-.461.182-.926.332-1.388.509l6.217,15.7,2.747-1.088-6.216-15.7C198.519,262.568,198.078,262.778,197.617,262.96Z"/><path class="cls-2" d="M190.379,265.566c-.472.153-.946.273-1.418.42l5.219,16.06,2.81-.913-5.218-16.06C191.3,265.231,190.85,265.413,190.379,265.566Z"/><path class="cls-2" d="M182.99,267.712c-.48.124-.96.213-1.44.331l4.2,16.356,2.862-.735-4.2-16.356C183.935,267.437,183.47,267.589,182.99,267.712Z"/><path class="cls-2" d="M175.482,269.391c-.487.093-.972.152-1.459.239l3.165,16.588,2.9-.554-3.165-16.588C176.442,269.175,175.969,269.3,175.482,269.391Z"/><path class="cls-2" d="M167.884,270.594c-.492.062-.98.091-1.471.148l2.116,16.753,2.932-.37-2.116-16.754C168.855,270.439,168.375,270.532,167.884,270.594Z"/><path class="cls-2" d="M160.224,271.318c-.495.031-.983.029-1.477.055l1.06,16.853,2.95-.185L161.7,271.187C161.2,271.224,160.719,271.287,160.224,271.318Z"/><path class="cls-2" d="M152.535,271.56c-.5,0-.984-.033-1.478-.038v16.886h2.955V271.522C153.518,271.527,153.03,271.56,152.535,271.56Z"/><path class="cls-2" d="M144.845,271.318c-.5-.031-.98-.094-1.473-.131l-1.06,16.854,2.95.185,1.06-16.853C145.828,271.347,145.339,271.349,144.845,271.318Z"/><path class="cls-2" d="M137.186,270.594c-.492-.062-.972-.155-1.462-.223l-2.116,16.754,2.932.37,2.116-16.753C138.165,270.685,137.677,270.656,137.186,270.594Z"/><path class="cls-2" d="M129.587,269.391c-.487-.093-.96-.216-1.445-.315l-3.164,16.588,2.9.554,3.164-16.588C130.559,269.543,130.073,269.484,129.587,269.391Z"/><path class="cls-2" d="M122.078,267.712c-.48-.123-.944-.275-1.421-.4l-4.2,16.356,2.863.735,4.2-16.356C123.039,267.925,122.558,267.836,122.078,267.712Z"/><path class="cls-2" d="M114.691,265.566c-.472-.153-.926-.335-1.394-.493l-5.218,16.06,2.81.913,5.218-16.06C115.636,265.839,115.162,265.719,114.691,265.566Z"/><path class="cls-2" d="M107.452,262.96c-.461-.182-.9-.392-1.36-.579l-6.216,15.7,2.747,1.088,6.217-15.7C108.378,263.292,107.913,263.142,107.452,262.96Z"/><path class="cls-2" d="M100.391,259.9c-.448-.21-.875-.448-1.32-.663l-7.19,15.279,2.673,1.259,7.191-15.28C101.3,260.294,100.84,260.115,100.391,259.9Z"/><path class="cls-2" d="M93.536,256.412c-.434-.239-.846-.5-1.276-.745l-8.135,14.8,2.589,1.424,8.135-14.8C94.414,256.857,93.97,256.651,93.536,256.412Z"/><path class="cls-2" d="M86.914,252.5c-.418-.265-.813-.554-1.227-.823l-9.048,14.257,2.5,1.584,9.048-14.258C87.762,253,87.333,252.761,86.914,252.5Z"/><path class="cls-2" d="M80.551,248.171c-.4-.291-.776-.6-1.173-.9l-9.926,13.661,2.391,1.737,9.926-13.661C81.366,248.723,80.952,248.462,80.551,248.171Z"/><path class="cls-2" d="M74.472,243.456c-.382-.316-.737-.652-1.114-.971L62.594,255.5l2.277,1.883,10.764-13.011C75.25,244.058,74.854,243.772,74.472,243.456Z"/><path class="cls-2" d="M68.7,238.368c-.361-.339-.694-.7-1.051-1.039l-11.559,12.31,2.154,2.023L69.8,239.352C69.44,239.017,69.062,238.707,68.7,238.368Z"/><path class="cls-2" d="M63.261,232.928c-.339-.361-.649-.739-.984-1.1L49.968,243.384l2.023,2.155L64.3,233.979C63.958,233.623,63.6,233.289,63.261,232.928Z"/><path class="cls-2" d="M58.173,227.157c-.316-.382-.6-.778-.912-1.163L44.249,236.758l1.884,2.277,13.011-10.764C58.825,227.894,58.489,227.539,58.173,227.157Z"/><path class="cls-2" d="M53.458,221.078c-.291-.4-.552-.815-.838-1.218l-13.661,9.926,1.737,2.391,13.661-9.926C54.062,221.854,53.749,221.479,53.458,221.078Z"/><path class="cls-2" d="M49.133,214.715c-.265-.419-.5-.848-.759-1.268L34.116,222.5l1.584,2.5,14.257-9.048C49.688,215.527,49.4,215.133,49.133,214.715Z"/><path class="cls-2" d="M45.217,208.093c-.239-.435-.445-.878-.678-1.314l-14.8,8.136,1.424,2.589,14.8-8.135C45.719,208.939,45.456,208.527,45.217,208.093Z"/><path class="cls-2" d="M41.724,201.238c-.211-.449-.389-.9-.594-1.353l-15.279,7.189,1.258,2.674,15.279-7.189C42.173,202.114,41.936,201.686,41.724,201.238Z"/><path class="cls-2" d="M38.669,194.177c-.182-.461-.332-.926-.509-1.388l-15.7,6.217,1.088,2.747,15.7-6.216C39.061,195.08,38.852,194.638,38.669,194.177Z"/><path class="cls-2" d="M36.063,186.939c-.153-.472-.273-.946-.42-1.418l-16.06,5.219.913,2.81,16.06-5.218C36.4,187.863,36.216,187.41,36.063,186.939Z"/><path class="cls-2" d="M33.916,179.55c-.123-.48-.212-.96-.33-1.44l-16.356,4.2.735,2.862,16.356-4.2C34.193,180.5,34.04,180.031,33.916,179.55Z"/><path class="cls-2" d="M32.238,172.042c-.092-.487-.152-.972-.239-1.458l-16.588,3.164.554,2.9,16.587-3.164C32.454,173,32.331,172.529,32.238,172.042Z"/><path class="cls-2" d="M31.035,164.444c-.062-.492-.091-.98-.148-1.471l-16.753,2.116.371,2.932,16.753-2.116C31.19,165.415,31.1,164.935,31.035,164.444Z"/><path class="cls-2" d="M30.311,156.784c-.031-.5-.029-.983-.055-1.477L13.4,156.368l.185,2.949,16.854-1.061C30.405,157.764,30.342,157.279,30.311,156.784Z"/><path class="cls-2" d="M30.069,149.1c0-.5.033-.984.038-1.478H13.221v2.955H30.107C30.1,150.078,30.069,149.59,30.069,149.1Z"/><path class="cls-2" d="M30.311,141.405c.031-.5.094-.98.131-1.472l-16.854-1.061-.185,2.95,16.853,1.06C30.282,142.389,30.28,141.9,30.311,141.405Z"/><path class="cls-2" d="M31.035,133.746c.062-.492.155-.972.223-1.462l-16.753-2.116-.371,2.932,16.753,2.116C30.944,134.725,30.973,134.237,31.035,133.746Z"/><path class="cls-2" d="M32.238,126.147c.093-.487.216-.96.314-1.445l-16.587-3.164-.554,2.9L32,127.605C32.086,127.119,32.146,126.634,32.238,126.147Z"/><path class="cls-2" d="M33.916,118.638c.124-.48.277-.943.405-1.421l-16.356-4.2-.735,2.863,16.356,4.2C33.7,119.6,33.793,119.119,33.916,118.638Z"/><path class="cls-2" d="M36.063,111.251c.153-.472.335-.925.493-1.394L20.5,104.639l-.913,2.81,16.06,5.219C35.79,112.2,35.91,111.722,36.063,111.251Z"/><path class="cls-2" d="M38.669,104.012c.183-.461.392-.9.579-1.36l-15.7-6.216L22.46,99.183l15.7,6.217C38.337,104.938,38.487,104.473,38.669,104.012Z"/><path class="cls-2" d="M41.724,96.952c.212-.449.449-.876.664-1.321l-15.279-7.19-1.258,2.674,15.279,7.19C41.335,97.855,41.513,97.4,41.724,96.952Z"/><path class="cls-2" d="M45.217,90.1c.239-.434.5-.846.745-1.276l-14.8-8.135-1.424,2.589,14.8,8.135C44.772,90.974,44.978,90.531,45.217,90.1Z"/><path class="cls-2" d="M49.133,83.474c.266-.418.555-.812.824-1.227L35.7,73.2l-1.584,2.5,14.258,9.048C48.634,84.322,48.868,83.893,49.133,83.474Z"/><path class="cls-2" d="M53.458,77.111c.291-.4.6-.776.9-1.173L40.7,66.012,38.959,68.4,52.62,78.329C52.906,77.926,53.167,77.512,53.458,77.111Z"/><path class="cls-2" d="M58.173,71.032c.316-.382.652-.737.971-1.114L46.133,59.154l-1.884,2.277L57.261,72.195C57.572,71.81,57.857,71.414,58.173,71.032Z"/><path class="cls-2" d="M63.261,65.261c.339-.361.7-.694,1.039-1.051L51.991,52.651l-2.023,2.154,12.309,11.56C62.612,66,62.922,65.622,63.261,65.261Z"/><path class="cls-2" d="M68.7,59.821c.361-.339.739-.649,1.1-.984L58.245,46.528l-2.154,2.023L67.65,60.86C68.007,60.518,68.34,60.16,68.7,59.821Z"/><path class="cls-2" d="M74.472,54.734c.382-.317.778-.6,1.163-.913L64.871,40.81l-2.277,1.883L73.358,55.705C73.735,55.385,74.09,55.049,74.472,54.734Z"/><path class="cls-2" d="M80.551,50.018c.4-.291.815-.552,1.218-.838L71.843,35.519l-2.391,1.737,9.926,13.661C79.775,50.623,80.15,50.309,80.551,50.018Z"/><path class="cls-2" d="M86.914,45.694c.419-.266.848-.5,1.268-.76L79.134,30.676l-2.5,1.584,9.048,14.257C86.1,46.248,86.5,45.959,86.914,45.694Z"/><path class="cls-2" d="M93.536,41.777c.434-.239.878-.445,1.313-.678L86.714,26.3l-2.589,1.424,8.135,14.8C92.69,42.28,93.1,42.016,93.536,41.777Z"/><path class="cls-2" d="M100.391,38.285c.449-.211.9-.389,1.354-.595L94.554,22.411l-2.673,1.258,7.19,15.279C99.516,38.733,99.943,38.495,100.391,38.285Z"/><path class="cls-2" d="M107.452,35.229c.461-.182.926-.332,1.388-.509l-6.217-15.7-2.747,1.088,6.216,15.7C106.55,35.621,106.991,35.412,107.452,35.229Z"/><path class="cls-2" d="M114.691,32.623c.471-.153.945-.273,1.416-.42l-5.218-16.06-2.81.913,5.218,16.06C113.765,32.958,114.219,32.776,114.691,32.623Z"/><path class="cls-2" d="M122.078,30.477c.48-.123.961-.213,1.441-.331l-4.2-16.356-2.863.735,4.2,16.356C121.134,30.753,121.6,30.6,122.078,30.477Z"/><path class="cls-2" d="M129.587,28.8c.486-.093.972-.152,1.458-.239l-3.164-16.588-2.9.554,3.164,16.588C128.627,29.015,129.1,28.891,129.587,28.8Z"/><path class="cls-2" d="M137.186,27.6c.491-.062.979-.091,1.47-.148L136.54,10.694l-2.932.371,2.116,16.753C136.214,27.751,136.694,27.657,137.186,27.6Z"/><path class="cls-2" d="M144.845,26.871c.494-.031.983-.029,1.477-.055l-1.06-16.853-2.95.185L143.372,27C143.865,26.965,144.35,26.9,144.845,26.871Z"/><path class="cls-3" d="M127.126,158.493h-3.9V147.075a1.845,1.845,0,0,0-1.905-1.905H118.11a1.841,1.841,0,0,0-1.9,1.905v11.418H108.5l9.915-37.863a19.8,19.8,0,0,0,.8-4.007,1.737,1.737,0,0,0-1.806-1.8h-3.1a1.952,1.952,0,0,0-2,1.7l-10.216,40.969a17.941,17.941,0,0,0-.6,3.2V163.1a1.734,1.734,0,0,0,1.806,1.8H116.21v12.222a1.84,1.84,0,0,0,1.9,1.9h3.207a1.844,1.844,0,0,0,1.905-1.9V164.9h3.9a1.842,1.842,0,0,0,1.905-1.9v-2.6A1.844,1.844,0,0,0,127.126,158.493Z"/><path class="cls-3" d="M150.572,145.772c2.907-2.2,4.91-6.512,4.91-14.124,0-12.42-4.609-17.429-12.121-17.429-8.014,0-12.021,3.805-12.021,16.027a2.373,2.373,0,0,0,2.506,2.7h2.4c1.5,0,2.1-1.2,2-3.307-.3-4.908.4-9.115,4.806-9.115,3.006,0,5.212,1.5,5.212,11.119,0,10.117-1.905,11.42-4.708,11.42h-2.808a1.84,1.84,0,0,0-1.9,1.9v2.1a1.841,1.841,0,0,0,1.9,1.9h2.808c3.1,0,5.408,1.3,5.408,12.32s-2.205,12.02-5.709,12.02c-4.408,0-5.31-4.306-5.009-10.216.1-2.1-.5-3.306-2-3.306h-2.4a2.372,2.372,0,0,0-2.506,2.7c0,13.221,4.007,17.13,12.021,17.13,7.512,0,12.822-4.409,12.822-18.332C156.183,152.783,153.978,148.077,150.572,145.772Z"/><path class="cls-3" d="M196.96,114.819h-2a2.888,2.888,0,0,0-2.507,1.905l-28.145,60.4c-.5,1.1.2,1.9,1.3,1.9h2a2.882,2.882,0,0,0,2.5-1.9l28.15-60.4C198.762,115.621,198.061,114.819,196.96,114.819Z"/><path class="cls-3" d="M192.553,148.575c-6.612,0-9.919,5.311-9.919,15.728,0,10.318,3.307,15.726,9.919,15.726,6.811,0,9.915-5.408,9.915-15.726C202.468,153.886,199.364,148.575,192.553,148.575Zm0,26.046c-3.207,0-4.007-3.606-4.007-10.318,0-6.812.8-10.316,4.007-10.316,3.3,0,4.008,3.5,4.008,10.316C196.561,171.015,195.856,174.621,192.553,174.621Z"/><path class="cls-3" d="M179.93,129.545c0-10.418-3.105-15.728-9.915-15.728-6.613,0-9.92,5.31-9.92,15.728,0,10.317,3.307,15.726,9.92,15.726C176.825,145.271,179.93,139.862,179.93,129.545Zm-13.923,0c0-6.812.8-10.317,4.008-10.317,3.306,0,4.007,3.505,4.007,10.317,0,6.71-.7,10.317-4.007,10.317C166.807,139.862,166.007,136.255,166.007,129.545Z"/></svg>