<svg id="Layer_1" data-name="Layer 1" xmlns="http://www.w3.org/2000/svg" viewBox="0 0 300 300"><defs><style>.cls-1{fill:#fcad22;}.cls-2{fill:#e6e6e6;}.cls-3{fill:#5e5e5e;}</style></defs><path class="cls-1" d="M203,279.23l-6.044-15.77A122.449,122.449,0,0,0,153.164,26.668l-1.369.008-.214-16.887,1.583-.008c76.818,0,139.314,62.5,139.314,139.314A140.158,140.158,0,0,1,203,279.23Z"/><path class="cls-2" d="M191.009,265.566c-.472.153-.946.273-1.417.42l5.218,16.06,2.81-.913-5.218-16.06C191.934,265.231,191.48,265.413,191.009,265.566Z"/><path class="cls-2" d="M183.621,267.712c-.48.124-.961.213-1.441.331l4.2,16.356,2.863-.735-4.2-16.356C184.565,267.437,184.1,267.589,183.621,267.712Z"/><path class="cls-2" d="M176.112,269.391c-.486.093-.971.152-1.458.239l3.164,16.588,2.9-.554-3.164-16.588C177.072,269.175,176.6,269.3,176.112,269.391Z"/><path class="cls-2" d="M168.514,270.594c-.492.062-.98.091-1.471.148l2.116,16.753,2.932-.37-2.116-16.754C169.485,270.439,169.005,270.532,168.514,270.594Z"/><path class="cls-2" d="M160.855,271.318c-.495.031-.984.029-1.478.055l1.061,16.853,2.949-.185-1.06-16.854C161.834,271.224,161.349,271.287,160.855,271.318Z"/><path class="cls-2" d="M153.165,271.56c-.5,0-.984-.033-1.478-.038v16.886h2.955V271.522C154.148,271.527,153.661,271.56,153.165,271.56Z"/><path class="cls-2" d="M145.475,271.318c-.5-.031-.979-.094-1.472-.131l-1.06,16.854,2.949.185,1.06-16.853C146.458,271.347,145.969,271.349,145.475,271.318Z"/><path class="cls-2" d="M137.816,270.594c-.492-.062-.972-.155-1.461-.223l-2.117,16.754,2.932.37,2.117-16.753C138.795,270.685,138.307,270.656,137.816,270.594Z"/><path class="cls-2" d="M130.217,269.391c-.487-.093-.96-.216-1.444-.315l-3.164,16.588,2.9.554,3.164-16.588C131.189,269.543,130.7,269.484,130.217,269.391Z"/><path class="cls-2" d="M122.709,267.712c-.48-.123-.945-.275-1.422-.4l-4.2,16.356,2.862.735,4.2-16.356C123.67,267.925,123.189,267.836,122.709,267.712Z"/><path class="cls-2" d="M115.321,265.566c-.472-.153-.925-.335-1.394-.493l-5.218,16.06,2.811.913,5.218-16.06C116.266,265.839,115.792,265.719,115.321,265.566Z"/><path class="cls-2" d="M108.082,262.96c-.461-.182-.9-.392-1.36-.579l-6.216,15.7,2.748,1.088,6.216-15.7C109.008,263.292,108.543,263.142,108.082,262.96Z"/><path class="cls-2" d="M101.021,259.9c-.448-.21-.875-.448-1.32-.663l-7.19,15.279,2.674,1.259,7.19-15.28C101.925,260.294,101.47,260.115,101.021,259.9Z"/><path class="cls-2" d="M94.167,256.412c-.435-.239-.846-.5-1.277-.745l-8.135,14.8,2.59,1.424,8.135-14.8C95.044,256.857,94.6,256.651,94.167,256.412Z"/><path class="cls-2" d="M87.545,252.5c-.419-.265-.813-.554-1.228-.823l-9.048,14.257,2.495,1.584,9.048-14.258C88.392,253,87.963,252.761,87.545,252.5Z"/><path class="cls-2" d="M81.181,248.171c-.4-.291-.776-.6-1.173-.9l-9.925,13.661,2.39,1.737L82.4,249.009C82,248.723,81.582,248.462,81.181,248.171Z"/><path class="cls-2" d="M75.1,243.456c-.381-.316-.736-.652-1.114-.971L63.224,255.5l2.277,1.883,10.764-13.011C75.881,244.058,75.484,243.772,75.1,243.456Z"/><path class="cls-2" d="M69.331,238.368c-.361-.339-.694-.7-1.05-1.039l-11.56,12.31,2.154,2.023,11.559-12.31C70.07,239.017,69.693,238.707,69.331,238.368Z"/><path class="cls-2" d="M63.891,232.928c-.339-.361-.649-.739-.983-1.1L50.6,243.384l2.023,2.155,12.31-11.56C64.588,233.623,64.231,233.289,63.891,232.928Z"/><path class="cls-2" d="M58.8,227.157c-.315-.382-.6-.778-.912-1.163L44.88,236.758l1.883,2.277,13.012-10.764C59.456,227.894,59.12,227.539,58.8,227.157Z"/><path class="cls-2" d="M54.088,221.078c-.291-.4-.552-.815-.837-1.218l-13.662,9.926,1.737,2.391,13.661-9.926C54.692,221.854,54.38,221.479,54.088,221.078Z"/><path class="cls-2" d="M49.764,214.715c-.266-.419-.5-.848-.76-1.268L34.746,222.5l1.584,2.5,14.258-9.048C50.318,215.527,50.03,215.133,49.764,214.715Z"/><path class="cls-2" d="M45.848,208.093c-.239-.435-.446-.878-.679-1.314l-14.8,8.136L31.8,217.5l14.8-8.135C46.35,208.939,46.086,208.527,45.848,208.093Z"/><path class="cls-2" d="M42.355,201.238c-.211-.449-.39-.9-.595-1.353l-15.279,7.189,1.258,2.674,15.279-7.189C42.8,202.114,42.566,201.686,42.355,201.238Z"/><path class="cls-2" d="M39.3,194.177c-.182-.461-.331-.926-.508-1.388l-15.7,6.217,1.088,2.747,15.7-6.216C39.692,195.08,39.482,194.638,39.3,194.177Z"/><path class="cls-2" d="M36.693,186.939c-.153-.472-.273-.946-.42-1.418l-16.06,5.219.913,2.81,16.06-5.218C37.028,187.863,36.846,187.41,36.693,186.939Z"/><path class="cls-2" d="M34.547,179.55c-.124-.48-.213-.96-.331-1.44l-16.356,4.2.735,2.862,16.356-4.2C34.823,180.5,34.67,180.031,34.547,179.55Z"/><path class="cls-2" d="M32.869,172.042c-.093-.487-.153-.972-.24-1.458l-16.587,3.164.554,2.9,16.587-3.164C33.085,173,32.962,172.529,32.869,172.042Z"/><path class="cls-2" d="M31.665,164.444c-.062-.492-.091-.98-.147-1.471l-16.754,2.116.371,2.932,16.753-2.116C31.82,165.415,31.727,164.935,31.665,164.444Z"/><path class="cls-2" d="M30.941,156.784c-.031-.5-.029-.983-.055-1.477l-16.853,1.061.186,2.949,16.853-1.061C31.035,157.764,30.972,157.279,30.941,156.784Z"/><path class="cls-2" d="M30.7,149.1c0-.5.032-.984.038-1.478H13.851v2.955H30.738C30.732,150.078,30.7,149.59,30.7,149.1Z"/><path class="cls-2" d="M30.941,141.405c.031-.5.094-.98.131-1.472l-16.853-1.061-.186,2.95,16.853,1.06C30.912,142.389,30.91,141.9,30.941,141.405Z"/><path class="cls-2" d="M31.665,133.746c.062-.492.155-.972.223-1.462l-16.753-2.116-.371,2.932,16.754,2.116C31.574,134.725,31.6,134.237,31.665,133.746Z"/><path class="cls-2" d="M32.869,126.147c.093-.487.216-.96.314-1.445L16.6,121.538l-.554,2.9,16.587,3.164C32.716,127.119,32.776,126.634,32.869,126.147Z"/><path class="cls-2" d="M34.547,118.638c.123-.48.276-.943.4-1.421l-16.356-4.2-.735,2.863,16.356,4.2C34.334,119.6,34.423,119.119,34.547,118.638Z"/><path class="cls-2" d="M36.693,111.251c.153-.472.335-.925.493-1.394l-16.06-5.218-.913,2.81,16.06,5.219C36.42,112.2,36.54,111.722,36.693,111.251Z"/><path class="cls-2" d="M39.3,104.012c.183-.461.393-.9.58-1.36l-15.7-6.216L23.09,99.183l15.7,6.217C38.968,104.938,39.117,104.473,39.3,104.012Z"/><path class="cls-2" d="M42.355,96.952c.211-.449.448-.876.663-1.321l-15.279-7.19-1.258,2.674,15.279,7.19C41.965,97.855,42.144,97.4,42.355,96.952Z"/><path class="cls-2" d="M45.848,90.1c.238-.434.5-.846.745-1.276L31.8,80.685l-1.424,2.589,14.8,8.135C45.4,90.974,45.609,90.531,45.848,90.1Z"/><path class="cls-2" d="M49.764,83.474c.266-.418.554-.812.824-1.227L36.33,73.2l-1.584,2.5L49,84.742C49.265,84.322,49.5,83.893,49.764,83.474Z"/><path class="cls-2" d="M54.088,77.111c.292-.4.6-.776.9-1.173L41.326,66.012,39.589,68.4l13.662,9.926C53.536,77.926,53.8,77.512,54.088,77.111Z"/><path class="cls-2" d="M58.8,71.032c.317-.382.653-.737.972-1.114L46.763,59.154,44.88,61.431,57.891,72.195C58.2,71.81,58.488,71.414,58.8,71.032Z"/><path class="cls-2" d="M63.891,65.261c.34-.361.7-.694,1.04-1.051L52.621,52.651,50.6,54.805l12.31,11.56C63.242,66,63.552,65.622,63.891,65.261Z"/><path class="cls-2" d="M69.331,59.821c.362-.339.739-.649,1.1-.984L58.875,46.528l-2.154,2.023L68.281,60.86C68.637,60.518,68.97,60.16,69.331,59.821Z"/><path class="cls-2" d="M75.1,54.734c.382-.317.779-.6,1.163-.913L65.5,40.81l-2.277,1.883L73.988,55.705C74.366,55.385,74.721,55.049,75.1,54.734Z"/><path class="cls-2" d="M81.181,50.018c.4-.291.815-.552,1.218-.838L72.473,35.519l-2.39,1.737,9.925,13.661C80.405,50.623,80.78,50.309,81.181,50.018Z"/><path class="cls-2" d="M87.545,45.694c.418-.266.847-.5,1.267-.76L79.764,30.676,77.269,32.26l9.048,14.257C86.732,46.248,87.126,45.959,87.545,45.694Z"/><path class="cls-2" d="M94.167,41.777c.434-.239.877-.445,1.313-.678L87.345,26.3l-2.59,1.424,8.135,14.8C93.321,42.28,93.732,42.016,94.167,41.777Z"/><path class="cls-2" d="M101.021,38.285c.449-.211.9-.389,1.354-.595l-7.19-15.279-2.674,1.258L99.7,38.948C100.146,38.733,100.573,38.495,101.021,38.285Z"/><path class="cls-2" d="M108.082,35.229c.461-.182.926-.332,1.388-.509l-6.216-15.7-2.748,1.088,6.216,15.7C107.18,35.621,107.621,35.412,108.082,35.229Z"/><path class="cls-2" d="M115.321,32.623c.471-.153.945-.273,1.417-.42l-5.218-16.06-2.811.913,5.218,16.06C114.4,32.958,114.849,32.776,115.321,32.623Z"/><path class="cls-2" d="M122.709,30.477c.48-.123.961-.213,1.441-.331l-4.2-16.356-2.862.735,4.2,16.356C121.764,30.753,122.229,30.6,122.709,30.477Z"/><path class="cls-2" d="M130.217,28.8c.487-.093.972-.152,1.458-.239l-3.164-16.588-2.9.554,3.164,16.588C129.257,29.015,129.73,28.891,130.217,28.8Z"/><path class="cls-2" d="M137.816,27.6c.491-.062.979-.091,1.471-.148L137.17,10.694l-2.932.371,2.117,16.753C136.844,27.751,137.324,27.657,137.816,27.6Z"/><path class="cls-2" d="M145.475,26.871c.494-.031.983-.029,1.477-.055l-1.06-16.853-2.949.185L144,27C144.5,26.965,144.98,26.9,145.475,26.871Z"/><path class="cls-3" d="M127.311,158.493h-3.9V147.075a1.845,1.845,0,0,0-1.905-1.905h-3.208a1.841,1.841,0,0,0-1.9,1.905v11.418H108.68L118.6,120.63a19.8,19.8,0,0,0,.8-4.007,1.737,1.737,0,0,0-1.806-1.8h-3.1a1.952,1.952,0,0,0-2,1.7l-10.216,40.969a17.941,17.941,0,0,0-.6,3.2V163.1a1.734,1.734,0,0,0,1.806,1.8h12.921v12.222a1.841,1.841,0,0,0,1.9,1.9H121.5a1.845,1.845,0,0,0,1.905-1.9V164.9h3.9a1.842,1.842,0,0,0,1.9-1.9v-2.6A1.844,1.844,0,0,0,127.311,158.493Z"/><path class="cls-3" d="M157.27,158.493h-3.9V147.075a1.845,1.845,0,0,0-1.905-1.905h-3.207a1.841,1.841,0,0,0-1.9,1.905v11.418H138.64l9.915-37.863a19.8,19.8,0,0,0,.8-4.007,1.737,1.737,0,0,0-1.806-1.8h-3.1a1.952,1.952,0,0,0-2,1.7l-10.216,40.969a17.941,17.941,0,0,0-.6,3.2V163.1a1.734,1.734,0,0,0,1.806,1.8h12.92v12.222a1.841,1.841,0,0,0,1.9,1.9h3.207a1.844,1.844,0,0,0,1.905-1.9V164.9h3.9a1.842,1.842,0,0,0,1.905-1.9v-2.6A1.844,1.844,0,0,0,157.27,158.493Z"/><path class="cls-3" d="M181.017,129.545c0-10.418-3.1-15.728-9.915-15.728-6.613,0-9.919,5.31-9.919,15.728,0,10.317,3.306,15.726,9.919,15.726C177.912,145.271,181.017,139.862,181.017,129.545Zm-13.922,0c0-6.812.8-10.317,4.007-10.317,3.306,0,4.007,3.505,4.007,10.317,0,6.71-.7,10.317-4.007,10.317C167.894,139.862,167.1,136.255,167.1,129.545Z"/><path class="cls-3" d="M198.048,114.819h-2a2.89,2.89,0,0,0-2.506,1.905l-28.146,60.4c-.5,1.1.2,1.9,1.3,1.9h2a2.884,2.884,0,0,0,2.5-1.9l28.149-60.4C199.849,115.621,199.149,114.819,198.048,114.819Z"/><path class="cls-3" d="M193.641,148.575c-6.613,0-9.92,5.311-9.92,15.728,0,10.318,3.307,15.726,9.92,15.726,6.81,0,9.914-5.408,9.914-15.726C203.555,153.886,200.451,148.575,193.641,148.575Zm0,26.046c-3.208,0-4.008-3.606-4.008-10.318,0-6.812.8-10.316,4.008-10.316,3.3,0,4.007,3.5,4.007,10.316C197.648,171.015,196.943,174.621,193.641,174.621Z"/></svg>