<svg id="Layer_1" data-name="Layer 1" xmlns="http://www.w3.org/2000/svg" viewBox="0 0 300 300"><defs><style>.cls-1{fill:#fcad22;}.cls-2{fill:#e6e6e6;}.cls-3{fill:#5e5e5e;}</style></defs><path class="cls-1" d="M195.354,282.1l-5.03-16.12A122.448,122.448,0,0,0,153.793,26.668l-1.368.008L152.21,9.789l1.583-.008c76.818,0,139.314,62.5,139.314,139.314A138.7,138.7,0,0,1,195.354,282.1Z"/><path class="cls-2" d="M184.251,267.712c-.48.124-.961.213-1.441.331l4.2,16.356,2.862-.735-4.2-16.356C185.2,267.437,184.731,267.589,184.251,267.712Z"/><path class="cls-2" d="M176.743,269.391c-.488.093-.973.152-1.459.239l3.164,16.588,2.9-.554-3.164-16.588C177.7,269.175,177.229,269.3,176.743,269.391Z"/><path class="cls-2" d="M169.144,270.594c-.492.062-.98.091-1.471.148L169.79,287.5l2.932-.37-2.117-16.754C170.115,270.439,169.636,270.532,169.144,270.594Z"/><path class="cls-2" d="M161.484,271.318c-.494.031-.983.029-1.477.055l1.061,16.853,2.949-.185-1.061-16.854C162.464,271.224,161.979,271.287,161.484,271.318Z"/><path class="cls-2" d="M153.795,271.56c-.5,0-.983-.033-1.478-.038v16.886h2.955V271.522C154.778,271.527,154.29,271.56,153.795,271.56Z"/><path class="cls-2" d="M146.1,271.318c-.494-.031-.979-.094-1.472-.131l-1.061,16.854,2.95.185,1.06-16.853C147.089,271.347,146.6,271.349,146.1,271.318Z"/><path class="cls-2" d="M138.446,270.594c-.492-.062-.972-.155-1.461-.223l-2.117,16.754,2.932.37,2.116-16.753C139.426,270.685,138.937,270.656,138.446,270.594Z"/><path class="cls-2" d="M130.847,269.391c-.487-.093-.96-.216-1.444-.315l-3.165,16.588,2.9.554,3.165-16.588C131.819,269.543,131.334,269.484,130.847,269.391Z"/><path class="cls-2" d="M123.339,267.712c-.48-.123-.944-.275-1.422-.4l-4.2,16.356,2.863.735,4.2-16.356C124.3,267.925,123.819,267.836,123.339,267.712Z"/><path class="cls-2" d="M115.951,265.566c-.471-.153-.925-.335-1.393-.493l-5.219,16.06,2.811.913,5.218-16.06C116.9,265.839,116.422,265.719,115.951,265.566Z"/><path class="cls-2" d="M108.712,262.96c-.461-.182-.9-.392-1.359-.579l-6.217,15.7,2.748,1.088,6.216-15.7C109.639,263.292,109.173,263.142,108.712,262.96Z"/><path class="cls-2" d="M101.652,259.9c-.449-.21-.876-.448-1.321-.663l-7.19,15.279,2.674,1.259,7.19-15.28C102.555,260.294,102.1,260.115,101.652,259.9Z"/><path class="cls-2" d="M94.8,256.412c-.435-.239-.846-.5-1.277-.745l-8.135,14.8,2.59,1.424,8.135-14.8C95.674,256.857,95.231,256.651,94.8,256.412Z"/><path class="cls-2" d="M88.175,252.5c-.419-.265-.813-.554-1.228-.823L77.9,265.929l2.5,1.584,9.049-14.258C89.022,253,88.593,252.761,88.175,252.5Z"/><path class="cls-2" d="M81.811,248.171c-.4-.291-.776-.6-1.172-.9l-9.926,13.661L73.1,262.67l9.925-13.661C82.626,248.723,82.212,248.462,81.811,248.171Z"/><path class="cls-2" d="M75.733,243.456c-.383-.316-.738-.652-1.115-.971L63.854,255.5l2.277,1.883L76.9,244.368C76.511,244.058,76.114,243.772,75.733,243.456Z"/><path class="cls-2" d="M69.962,238.368c-.362-.339-.7-.7-1.052-1.039l-11.559,12.31,2.154,2.023,11.56-12.31C70.7,239.017,70.323,238.707,69.962,238.368Z"/><path class="cls-2" d="M64.522,232.928c-.34-.361-.65-.739-.985-1.1L51.228,243.384l2.023,2.155,12.31-11.56C65.218,233.623,64.861,233.289,64.522,232.928Z"/><path class="cls-2" d="M59.434,227.157c-.316-.382-.6-.778-.913-1.163L45.51,236.758l1.884,2.277,13.011-10.764C60.085,227.894,59.749,227.539,59.434,227.157Z"/><path class="cls-2" d="M54.718,221.078c-.291-.4-.551-.815-.837-1.218l-13.662,9.926,1.737,2.391,13.661-9.926C55.323,221.854,55.009,221.479,54.718,221.078Z"/><path class="cls-2" d="M50.394,214.715c-.266-.419-.5-.848-.76-1.268L35.377,222.5l1.583,2.5,14.258-9.048C50.948,215.527,50.659,215.133,50.394,214.715Z"/><path class="cls-2" d="M46.477,208.093c-.238-.435-.444-.878-.678-1.314L31,214.915l1.424,2.589,14.8-8.135C46.98,208.939,46.716,208.527,46.477,208.093Z"/><path class="cls-2" d="M42.985,201.238c-.211-.449-.389-.9-.595-1.353l-15.279,7.189,1.258,2.674,15.28-7.189C43.433,202.114,43.2,201.686,42.985,201.238Z"/><path class="cls-2" d="M39.929,194.177c-.182-.461-.332-.926-.508-1.388l-15.7,6.217,1.088,2.747,15.7-6.216C40.321,195.08,40.112,194.638,39.929,194.177Z"/><path class="cls-2" d="M37.323,186.939c-.153-.472-.272-.946-.42-1.418l-16.06,5.219.913,2.81,16.06-5.218C37.658,187.863,37.477,187.41,37.323,186.939Z"/><path class="cls-2" d="M35.177,179.55c-.123-.48-.213-.96-.33-1.44l-16.357,4.2.735,2.862,16.356-4.2C35.453,180.5,35.3,180.031,35.177,179.55Z"/><path class="cls-2" d="M33.5,172.042c-.092-.487-.151-.972-.239-1.458l-16.587,3.164.553,2.9,16.588-3.164C33.715,173,33.591,172.529,33.5,172.042Z"/><path class="cls-2" d="M32.3,164.444c-.062-.492-.091-.98-.147-1.471l-16.754,2.116.371,2.932,16.753-2.116C32.451,165.415,32.357,164.935,32.3,164.444Z"/><path class="cls-2" d="M31.571,156.784c-.031-.5-.029-.983-.055-1.477l-16.853,1.061.186,2.949L31.7,158.256C31.665,157.764,31.6,157.279,31.571,156.784Z"/><path class="cls-2" d="M31.329,149.1c0-.5.033-.984.038-1.478H14.481v2.955H31.367C31.362,150.078,31.329,149.59,31.329,149.1Z"/><path class="cls-2" d="M31.571,141.405c.031-.5.094-.98.131-1.472l-16.853-1.061-.186,2.95,16.853,1.06C31.542,142.389,31.54,141.9,31.571,141.405Z"/><path class="cls-2" d="M32.3,133.746c.062-.492.156-.972.223-1.462l-16.753-2.116-.371,2.932,16.754,2.116C32.2,134.725,32.233,134.237,32.3,133.746Z"/><path class="cls-2" d="M33.5,126.147c.093-.487.217-.96.315-1.445l-16.588-3.164-.553,2.9,16.587,3.164C33.347,127.119,33.406,126.634,33.5,126.147Z"/><path class="cls-2" d="M35.177,118.638c.123-.48.276-.943.4-1.421l-16.356-4.2-.735,2.863,16.357,4.2C34.964,119.6,35.054,119.119,35.177,118.638Z"/><path class="cls-2" d="M37.323,111.251c.154-.472.335-.925.493-1.394l-16.06-5.218-.913,2.81,16.06,5.219C37.051,112.2,37.17,111.722,37.323,111.251Z"/><path class="cls-2" d="M39.929,104.012c.183-.461.392-.9.58-1.36l-15.7-6.216L23.72,99.183l15.7,6.217C39.6,104.938,39.747,104.473,39.929,104.012Z"/><path class="cls-2" d="M42.985,96.952c.211-.449.448-.876.664-1.321l-15.28-7.19-1.258,2.674,15.279,7.19C42.6,97.855,42.774,97.4,42.985,96.952Z"/><path class="cls-2" d="M46.477,90.1c.239-.434.5-.846.746-1.276l-14.8-8.135L31,83.274l14.8,8.135C46.033,90.974,46.239,90.531,46.477,90.1Z"/><path class="cls-2" d="M50.394,83.474c.265-.418.554-.812.824-1.227L36.96,73.2l-1.583,2.5,14.257,9.048C49.894,84.322,50.128,83.893,50.394,83.474Z"/><path class="cls-2" d="M54.718,77.111c.291-.4.6-.776.9-1.173L41.956,66.012,40.219,68.4l13.662,9.926C54.167,77.926,54.427,77.512,54.718,77.111Z"/><path class="cls-2" d="M59.434,71.032c.315-.382.651-.737.971-1.114L47.394,59.154,45.51,61.431,58.521,72.195C58.832,71.81,59.118,71.414,59.434,71.032Z"/><path class="cls-2" d="M64.522,65.261c.339-.361.7-.694,1.039-1.051L53.251,52.651l-2.023,2.154,12.309,11.56C63.872,66,64.182,65.622,64.522,65.261Z"/><path class="cls-2" d="M69.962,59.821c.361-.339.738-.649,1.1-.984L59.505,46.528l-2.154,2.023L68.91,60.86C69.267,60.518,69.6,60.16,69.962,59.821Z"/><path class="cls-2" d="M75.733,54.734c.381-.317.778-.6,1.162-.913L66.131,40.81l-2.277,1.883L74.618,55.705C75,55.385,75.35,55.049,75.733,54.734Z"/><path class="cls-2" d="M81.811,50.018c.4-.291.815-.552,1.218-.838L73.1,35.519l-2.391,1.737,9.926,13.661C81.035,50.623,81.411,50.309,81.811,50.018Z"/><path class="cls-2" d="M88.175,45.694c.418-.266.847-.5,1.268-.76L80.394,30.676,77.9,32.26l9.048,14.257C87.362,46.248,87.756,45.959,88.175,45.694Z"/><path class="cls-2" d="M94.8,41.777c.434-.239.877-.445,1.313-.678L87.975,26.3l-2.59,1.424,8.135,14.8C93.951,42.28,94.362,42.016,94.8,41.777Z"/><path class="cls-2" d="M101.652,38.285c.448-.211.9-.389,1.353-.595l-7.19-15.279-2.674,1.258,7.19,15.279C100.776,38.733,101.2,38.495,101.652,38.285Z"/><path class="cls-2" d="M108.712,35.229c.461-.182.927-.332,1.388-.509l-6.216-15.7-2.748,1.088,6.217,15.7C107.81,35.621,108.251,35.412,108.712,35.229Z"/><path class="cls-2" d="M115.951,32.623c.471-.153.945-.273,1.417-.42l-5.218-16.06-2.811.913,5.219,16.06C115.026,32.958,115.48,32.776,115.951,32.623Z"/><path class="cls-2" d="M123.339,30.477c.48-.123.96-.213,1.44-.331l-4.2-16.356-2.863.735,4.2,16.356C122.4,30.753,122.859,30.6,123.339,30.477Z"/><path class="cls-2" d="M130.847,28.8c.487-.093.972-.152,1.459-.239l-3.165-16.588-2.9.554L129.4,29.113C129.887,29.015,130.36,28.891,130.847,28.8Z"/><path class="cls-2" d="M138.446,27.6c.491-.062.98-.091,1.47-.148L137.8,10.694l-2.932.371,2.117,16.753C137.474,27.751,137.954,27.657,138.446,27.6Z"/><path class="cls-2" d="M146.1,26.871c.5-.031.984-.029,1.477-.055l-1.06-16.853-2.95.185L144.633,27C145.126,26.965,145.611,26.9,146.1,26.871Z"/><path class="cls-3" d="M128.592,158.493h-3.905V147.075a1.844,1.844,0,0,0-1.9-1.905h-3.208a1.841,1.841,0,0,0-1.9,1.905v11.418h-7.713l9.915-37.863a19.8,19.8,0,0,0,.8-4.007,1.737,1.737,0,0,0-1.806-1.8h-3.1a1.952,1.952,0,0,0-2,1.7L103.55,157.491a17.938,17.938,0,0,0-.6,3.2V163.1a1.734,1.734,0,0,0,1.805,1.8h12.92v12.222a1.841,1.841,0,0,0,1.9,1.9h3.208a1.844,1.844,0,0,0,1.9-1.9V164.9h3.905a1.842,1.842,0,0,0,1.9-1.9v-2.6A1.844,1.844,0,0,0,128.592,158.493Z"/><path class="cls-3" d="M146.731,137.358a8.4,8.4,0,0,0-5.211,1.9V121.23h13.626a1.839,1.839,0,0,0,1.9-1.9v-2.6a1.841,1.841,0,0,0-1.9-1.905H136.412a1.844,1.844,0,0,0-1.9,1.905v33.255a2.2,2.2,0,0,0,2.407,2.4h1.7c1.4,0,1.8-1.1,1.8-3.006,0-3.205,1.4-6.009,4.807-6.009,3.707,0,5.513,2.6,5.513,15.125,0,12.621-2.305,14.926-5.611,14.926-5.611,0-5.009-6.11-4.807-9.216.1-2.1-.5-3.305-2-3.305h-2.4a2.373,2.373,0,0,0-2.507,2.705c0,10.317,2.6,16.027,12.022,16.027,8.814,0,12.12-6.512,12.12-21.137S154.445,137.358,146.731,137.358Z"/><path class="cls-3" d="M181,129.545c0-10.418-3.105-15.728-9.915-15.728-6.613,0-9.919,5.31-9.919,15.728,0,10.317,3.306,15.726,9.919,15.726C177.89,145.271,181,139.862,181,129.545Zm-13.922,0c0-6.812.8-10.317,4.007-10.317,3.306,0,4.007,3.505,4.007,10.317,0,6.71-.7,10.317-4.007,10.317C167.873,139.862,167.073,136.255,167.073,129.545Z"/><path class="cls-3" d="M193.619,148.575c-6.613,0-9.92,5.311-9.92,15.728,0,10.318,3.307,15.726,9.92,15.726,6.81,0,9.915-5.408,9.915-15.726C203.534,153.886,200.429,148.575,193.619,148.575Zm0,26.046c-3.208,0-4.007-3.606-4.007-10.318,0-6.812.8-10.316,4.007-10.316,3.3,0,4.007,3.5,4.007,10.316C197.626,171.015,196.921,174.621,193.619,174.621Z"/><path class="cls-3" d="M198.026,114.819h-2a2.89,2.89,0,0,0-2.506,1.905l-28.146,60.4c-.5,1.1.2,1.9,1.3,1.9h2a2.884,2.884,0,0,0,2.5-1.9l28.149-60.4C199.827,115.621,199.127,114.819,198.026,114.819Z"/></svg>