<svg id="Layer_1" data-name="Layer 1" xmlns="http://www.w3.org/2000/svg" viewBox="0 0 300 300"><defs><style>.cls-1{fill:#fcad22;}.cls-2{fill:#e6e6e6;}.cls-3{fill:#5e5e5e;}</style></defs><path class="cls-1" d="M187.544,284.445l-4-16.4A122.445,122.445,0,0,0,154.427,26.668l-1.373.008L152.84,9.789l1.587-.008c76.818,0,139.314,62.5,139.314,139.314A138.923,138.923,0,0,1,187.544,284.445Z"/><path class="cls-2" d="M177.373,269.391c-.487.093-.972.152-1.459.239l3.164,16.588,2.9-.554-3.164-16.588C178.332,269.175,177.86,269.3,177.373,269.391Z"/><path class="cls-2" d="M169.774,270.594c-.492.062-.979.091-1.471.148L170.42,287.5l2.932-.37-2.117-16.754C170.745,270.439,170.266,270.532,169.774,270.594Z"/><path class="cls-2" d="M162.115,271.318c-.5.031-.984.029-1.477.055l1.06,16.853,2.949-.185-1.06-16.854C163.094,271.224,162.61,271.287,162.115,271.318Z"/><path class="cls-2" d="M154.425,271.56c-.5,0-.983-.033-1.478-.038v16.886H155.9V271.522C155.408,271.527,154.921,271.56,154.425,271.56Z"/><path class="cls-2" d="M146.735,271.318c-.494-.031-.979-.094-1.472-.131l-1.06,16.854,2.949.185,1.06-16.853C147.719,271.347,147.23,271.349,146.735,271.318Z"/><path class="cls-2" d="M139.076,270.594c-.491-.062-.971-.155-1.461-.223L135.5,287.125l2.931.37,2.117-16.753C140.056,270.685,139.568,270.656,139.076,270.594Z"/><path class="cls-2" d="M131.477,269.391c-.486-.093-.96-.216-1.444-.315l-3.164,16.588,2.9.554,3.165-16.588C132.449,269.543,131.964,269.484,131.477,269.391Z"/><path class="cls-2" d="M123.969,267.712c-.48-.123-.944-.275-1.422-.4l-4.2,16.356,2.862.735,4.2-16.356C124.93,267.925,124.449,267.836,123.969,267.712Z"/><path class="cls-2" d="M116.581,265.566c-.471-.153-.925-.335-1.393-.493l-5.218,16.06,2.81.913L118,265.986C117.526,265.839,117.053,265.719,116.581,265.566Z"/><path class="cls-2" d="M109.343,262.96c-.461-.182-.9-.392-1.36-.579l-6.217,15.7,2.748,1.088,6.216-15.7C110.269,263.292,109.8,263.142,109.343,262.96Z"/><path class="cls-2" d="M102.282,259.9c-.448-.21-.876-.448-1.321-.663l-7.19,15.279,2.674,1.259,7.19-15.28C103.185,260.294,102.73,260.115,102.282,259.9Z"/><path class="cls-2" d="M95.427,256.412c-.435-.239-.846-.5-1.276-.745l-8.136,14.8,2.59,1.424,8.135-14.8C96.3,256.857,95.861,256.651,95.427,256.412Z"/><path class="cls-2" d="M88.805,252.5c-.419-.265-.813-.554-1.227-.823l-9.049,14.257,2.5,1.584,9.049-14.258C89.652,253,89.223,252.761,88.805,252.5Z"/><path class="cls-2" d="M82.442,248.171c-.4-.291-.777-.6-1.173-.9l-9.926,13.661,2.391,1.737,9.925-13.661C83.256,248.723,82.843,248.462,82.442,248.171Z"/><path class="cls-2" d="M76.363,243.456c-.382-.316-.737-.652-1.115-.971L64.484,255.5l2.278,1.883,10.763-13.011C77.141,244.058,76.744,243.772,76.363,243.456Z"/><path class="cls-2" d="M70.592,238.368c-.362-.339-.695-.7-1.051-1.039l-11.56,12.31,2.154,2.023,11.56-12.31C71.331,239.017,70.953,238.707,70.592,238.368Z"/><path class="cls-2" d="M65.152,232.928c-.34-.361-.65-.739-.984-1.1l-12.31,11.559,2.023,2.155,12.31-11.56C65.848,233.623,65.491,233.289,65.152,232.928Z"/><path class="cls-2" d="M60.064,227.157c-.316-.382-.6-.778-.913-1.163L46.14,236.758l1.884,2.277,13.011-10.764C60.716,227.894,60.38,227.539,60.064,227.157Z"/><path class="cls-2" d="M55.348,221.078c-.291-.4-.551-.815-.837-1.218l-13.662,9.926,1.737,2.391,13.662-9.926C55.953,221.854,55.64,221.479,55.348,221.078Z"/><path class="cls-2" d="M51.024,214.715c-.265-.419-.5-.848-.759-1.268L36.007,222.5l1.583,2.5,14.258-9.048C51.578,215.527,51.29,215.133,51.024,214.715Z"/><path class="cls-2" d="M47.108,208.093c-.239-.435-.445-.878-.679-1.314l-14.8,8.136,1.423,2.589,14.8-8.135C47.61,208.939,47.347,208.527,47.108,208.093Z"/><path class="cls-2" d="M43.615,201.238c-.211-.449-.389-.9-.595-1.353l-15.279,7.189L29,209.748l15.28-7.189C44.063,202.114,43.826,201.686,43.615,201.238Z"/><path class="cls-2" d="M40.56,194.177c-.183-.461-.332-.926-.509-1.388l-15.7,6.217,1.088,2.747,15.7-6.216C40.952,195.08,40.742,194.638,40.56,194.177Z"/><path class="cls-2" d="M37.954,186.939c-.154-.472-.273-.946-.421-1.418l-16.06,5.219.913,2.81,16.06-5.218C38.288,187.863,38.107,187.41,37.954,186.939Z"/><path class="cls-2" d="M35.807,179.55c-.123-.48-.213-.96-.33-1.44l-16.356,4.2.734,2.862,16.356-4.2C36.083,180.5,35.931,180.031,35.807,179.55Z"/><path class="cls-2" d="M34.129,172.042c-.093-.487-.152-.972-.24-1.458L17.3,173.748l.554,2.9,16.587-3.164C34.345,173,34.222,172.529,34.129,172.042Z"/><path class="cls-2" d="M32.925,164.444c-.062-.492-.091-.98-.147-1.471l-16.753,2.116.37,2.932,16.754-2.116C33.081,165.415,32.988,164.935,32.925,164.444Z"/><path class="cls-2" d="M32.2,156.784c-.031-.5-.029-.983-.054-1.477l-16.853,1.061.185,2.949,16.853-1.061C32.3,157.764,32.232,157.279,32.2,156.784Z"/><path class="cls-2" d="M31.96,149.1c0-.5.032-.984.038-1.478H15.111v2.955H32C31.992,150.078,31.96,149.59,31.96,149.1Z"/><path class="cls-2" d="M32.2,141.405c.031-.5.095-.98.131-1.472l-16.853-1.061-.185,2.95,16.853,1.06C32.172,142.389,32.17,141.9,32.2,141.405Z"/><path class="cls-2" d="M32.925,133.746c.063-.492.156-.972.224-1.462L16.4,130.168l-.37,2.932,16.753,2.116C32.834,134.725,32.863,134.237,32.925,133.746Z"/><path class="cls-2" d="M34.129,126.147c.093-.487.216-.96.314-1.445l-16.587-3.164-.554,2.9,16.587,3.164C33.977,127.119,34.036,126.634,34.129,126.147Z"/><path class="cls-2" d="M35.807,118.638c.124-.48.276-.943.4-1.421l-16.356-4.2-.734,2.863,16.356,4.2C35.594,119.6,35.684,119.119,35.807,118.638Z"/><path class="cls-2" d="M37.954,111.251c.153-.472.334-.925.492-1.394l-16.06-5.218-.913,2.81,16.06,5.219C37.681,112.2,37.8,111.722,37.954,111.251Z"/><path class="cls-2" d="M40.56,104.012c.182-.461.392-.9.579-1.36l-15.7-6.216L24.35,99.183l15.7,6.217C40.228,104.938,40.377,104.473,40.56,104.012Z"/><path class="cls-2" d="M43.615,96.952c.211-.449.448-.876.664-1.321L29,88.441l-1.258,2.674,15.279,7.19C43.226,97.855,43.4,97.4,43.615,96.952Z"/><path class="cls-2" d="M47.108,90.1c.239-.434.5-.846.745-1.276l-14.8-8.135-1.423,2.589,14.8,8.135C46.663,90.974,46.869,90.531,47.108,90.1Z"/><path class="cls-2" d="M51.024,83.474c.266-.418.554-.812.824-1.227L37.59,73.2l-1.583,2.5,14.258,9.048C50.525,84.322,50.759,83.893,51.024,83.474Z"/><path class="cls-2" d="M55.348,77.111c.292-.4.605-.776.9-1.173L42.586,66.012,40.849,68.4l13.662,9.926C54.8,77.926,55.057,77.512,55.348,77.111Z"/><path class="cls-2" d="M60.064,71.032c.316-.382.652-.737.971-1.114L48.024,59.154,46.14,61.431,59.151,72.195C59.462,71.81,59.748,71.414,60.064,71.032Z"/><path class="cls-2" d="M65.152,65.261c.339-.361.7-.694,1.039-1.051L53.881,52.651l-2.023,2.154,12.31,11.56C64.5,66,64.812,65.622,65.152,65.261Z"/><path class="cls-2" d="M70.592,59.821c.361-.339.739-.649,1.1-.984L60.135,46.528l-2.154,2.023L69.541,60.86C69.9,60.518,70.23,60.16,70.592,59.821Z"/><path class="cls-2" d="M76.363,54.734c.381-.317.778-.6,1.162-.913L66.762,40.81l-2.278,1.883L75.248,55.705C75.626,55.385,75.981,55.049,76.363,54.734Z"/><path class="cls-2" d="M82.442,50.018c.4-.291.814-.552,1.217-.838L73.734,35.519l-2.391,1.737,9.926,13.661C81.665,50.623,82.041,50.309,82.442,50.018Z"/><path class="cls-2" d="M88.805,45.694c.418-.266.847-.5,1.268-.76L81.024,30.676l-2.5,1.584,9.049,14.257C87.992,46.248,88.386,45.959,88.805,45.694Z"/><path class="cls-2" d="M95.427,41.777c.434-.239.877-.445,1.313-.678L88.605,26.3l-2.59,1.424,8.136,14.8C94.581,42.28,94.992,42.016,95.427,41.777Z"/><path class="cls-2" d="M102.282,38.285c.448-.211.9-.389,1.353-.595l-7.19-15.279-2.674,1.258,7.19,15.279C101.406,38.733,101.834,38.495,102.282,38.285Z"/><path class="cls-2" d="M109.343,35.229c.46-.182.926-.332,1.387-.509l-6.216-15.7-2.748,1.088,6.217,15.7C108.44,35.621,108.882,35.412,109.343,35.229Z"/><path class="cls-2" d="M116.581,32.623c.472-.153.945-.273,1.417-.42l-5.218-16.06-2.81.913,5.218,16.06C115.656,32.958,116.11,32.776,116.581,32.623Z"/><path class="cls-2" d="M123.969,30.477c.48-.123.961-.213,1.441-.331l-4.2-16.356-2.862.735,4.2,16.356C123.025,30.753,123.489,30.6,123.969,30.477Z"/><path class="cls-2" d="M131.477,28.8c.487-.093.972-.152,1.459-.239l-3.165-16.588-2.9.554,3.164,16.588C130.517,29.015,130.991,28.891,131.477,28.8Z"/><path class="cls-2" d="M139.076,27.6c.492-.062.98-.091,1.471-.148L138.43,10.694l-2.931.371,2.116,16.753C138.1,27.751,138.585,27.657,139.076,27.6Z"/><path class="cls-2" d="M146.735,26.871c.495-.031.984-.029,1.477-.055l-1.06-16.853-2.949.185L145.263,27C145.756,26.965,146.241,26.9,146.735,26.871Z"/><path class="cls-3" d="M128.318,158.493h-3.9V147.075a1.845,1.845,0,0,0-1.905-1.905H119.3a1.841,1.841,0,0,0-1.9,1.905v11.418h-7.713L119.6,120.63a19.8,19.8,0,0,0,.8-4.007,1.737,1.737,0,0,0-1.806-1.8H115.5a1.952,1.952,0,0,0-2,1.7l-10.216,40.969a17.941,17.941,0,0,0-.6,3.2V163.1a1.734,1.734,0,0,0,1.806,1.8H117.4v12.222a1.841,1.841,0,0,0,1.9,1.9h3.207a1.844,1.844,0,0,0,1.905-1.9V164.9h3.9a1.842,1.842,0,0,0,1.905-1.9v-2.6A1.844,1.844,0,0,0,128.318,158.493Z"/><path class="cls-3" d="M147.859,140.963c-2.506,0-5.709,1.2-7.111,3.908,0-17.33.7-24.342,6.411-24.342,4.205,0,5.108,4.207,4.807,9.115-.1,2.1.5,3.307,2,3.307h2.305a2.371,2.371,0,0,0,2.5-2.7c0-12.222-4.309-16.027-11.618-16.027-12.925,0-13.325,13.222-13.325,37.263,0,20.234,2.907,28.148,13.024,28.148,7.812,0,12.619-4.911,12.619-19.334S155.07,140.963,147.859,140.963Zm-1,32.656c-3.1,0-6.011-1.7-6.011-13.323s2.907-13.322,6.011-13.322,5.409,1.7,5.409,13.322S149.962,173.619,146.858,173.619Z"/><path class="cls-3" d="M182.523,129.545c0-10.418-3.1-15.728-9.915-15.728-6.613,0-9.919,5.31-9.919,15.728,0,10.317,3.306,15.726,9.919,15.726C179.419,145.271,182.523,139.862,182.523,129.545Zm-13.922,0c0-6.812.8-10.317,4.007-10.317,3.306,0,4.008,3.505,4.008,10.317,0,6.71-.7,10.317-4.008,10.317C169.4,139.862,168.6,136.255,168.6,129.545Z"/><path class="cls-3" d="M195.147,148.575c-6.613,0-9.919,5.311-9.919,15.728,0,10.318,3.306,15.726,9.919,15.726,6.811,0,9.915-5.408,9.915-15.726C205.062,153.886,201.958,148.575,195.147,148.575Zm0,26.046c-3.208,0-4.007-3.606-4.007-10.318,0-6.812.8-10.316,4.007-10.316,3.3,0,4.007,3.5,4.007,10.316C199.154,171.015,198.449,174.621,195.147,174.621Z"/><path class="cls-3" d="M199.554,114.819h-2a2.893,2.893,0,0,0-2.506,1.905l-28.146,60.4c-.5,1.1.2,1.9,1.3,1.9h2a2.883,2.883,0,0,0,2.5-1.9l28.15-60.4C201.356,115.621,200.655,114.819,199.554,114.819Z"/></svg>