<svg id="Layer_1" data-name="Layer 1" xmlns="http://www.w3.org/2000/svg" viewBox="0 0 300 300"><defs><style>.cls-1{fill:#fcad22;}.cls-2{fill:#e6e6e6;}.cls-3{fill:#5e5e5e;}</style></defs><path class="cls-1" d="M171.575,287.512l-1.905-16.779A122.433,122.433,0,0,0,155.686,26.668l-1.373.008L154.1,9.789l1.587-.008C232.5,9.781,295,72.277,295,149.1A139.149,139.149,0,0,1,171.575,287.512Z"/><path class="cls-2" d="M163.375,271.318c-.494.031-.983.029-1.477.055l1.06,16.853,2.95-.185-1.061-16.854C164.354,271.224,163.87,271.287,163.375,271.318Z"/><path class="cls-2" d="M155.686,271.56c-.5,0-.984-.033-1.478-.038v16.886h2.955V271.522C156.669,271.527,156.181,271.56,155.686,271.56Z"/><path class="cls-2" d="M148,271.318c-.5-.031-.979-.094-1.473-.131l-1.06,16.854,2.95.185,1.06-16.853C148.979,271.347,148.49,271.349,148,271.318Z"/><path class="cls-2" d="M140.337,270.594c-.492-.062-.972-.155-1.461-.223l-2.117,16.754,2.932.37,2.116-16.753C141.316,270.685,140.828,270.656,140.337,270.594Z"/><path class="cls-2" d="M132.738,269.391c-.487-.093-.96-.216-1.445-.315l-3.164,16.588,2.9.554L134.2,269.63C133.71,269.543,133.224,269.484,132.738,269.391Z"/><path class="cls-2" d="M125.23,267.712c-.48-.123-.945-.275-1.422-.4l-4.2,16.356,2.863.735,4.2-16.356C126.19,267.925,125.71,267.836,125.23,267.712Z"/><path class="cls-2" d="M117.842,265.566c-.472-.153-.926-.335-1.394-.493l-5.218,16.06,2.811.913,5.217-16.06C118.787,265.839,118.313,265.719,117.842,265.566Z"/><path class="cls-2" d="M110.6,262.96c-.461-.182-.9-.392-1.36-.579l-6.216,15.7,2.748,1.088,6.216-15.7C111.529,263.292,111.064,263.142,110.6,262.96Z"/><path class="cls-2" d="M103.542,259.9c-.448-.21-.876-.448-1.32-.663l-7.19,15.279,2.673,1.259,7.19-15.28C104.446,260.294,103.991,260.115,103.542,259.9Z"/><path class="cls-2" d="M96.688,256.412c-.435-.239-.847-.5-1.277-.745l-8.135,14.8,2.589,1.424L98,257.09C97.565,256.857,97.121,256.651,96.688,256.412Z"/><path class="cls-2" d="M90.065,252.5c-.418-.265-.813-.554-1.227-.823L79.79,265.929l2.495,1.584,9.048-14.258C90.913,253,90.484,252.761,90.065,252.5Z"/><path class="cls-2" d="M83.7,248.171c-.4-.291-.776-.6-1.173-.9L72.6,260.933l2.39,1.737,9.926-13.661C84.517,248.723,84.1,248.462,83.7,248.171Z"/><path class="cls-2" d="M77.623,243.456c-.382-.316-.737-.652-1.114-.971L65.745,255.5l2.277,1.883,10.764-13.011C78.4,244.058,78.005,243.772,77.623,243.456Z"/><path class="cls-2" d="M71.852,238.368c-.361-.339-.694-.7-1.051-1.039l-11.559,12.31,2.154,2.023,11.559-12.31C72.591,239.017,72.213,238.707,71.852,238.368Z"/><path class="cls-2" d="M66.412,232.928c-.339-.361-.649-.739-.984-1.1L53.119,243.384l2.023,2.155,12.309-11.56C67.109,233.623,66.752,233.289,66.412,232.928Z"/><path class="cls-2" d="M61.324,227.157c-.316-.382-.6-.778-.912-1.163L47.4,236.758l1.884,2.277L62.3,228.271C61.976,227.894,61.64,227.539,61.324,227.157Z"/><path class="cls-2" d="M56.609,221.078c-.291-.4-.552-.815-.838-1.218L42.11,229.786l1.737,2.391,13.661-9.926C57.213,221.854,56.9,221.479,56.609,221.078Z"/><path class="cls-2" d="M52.284,214.715c-.265-.419-.5-.848-.759-1.268L37.267,222.5l1.584,2.5,14.257-9.048C52.839,215.527,52.55,215.133,52.284,214.715Z"/><path class="cls-2" d="M48.368,208.093c-.239-.435-.445-.878-.678-1.314l-14.8,8.136,1.424,2.589,14.8-8.135C48.87,208.939,48.607,208.527,48.368,208.093Z"/><path class="cls-2" d="M44.875,201.238c-.211-.449-.389-.9-.594-1.353L29,207.074l1.259,2.674,15.279-7.189C45.324,202.114,45.087,201.686,44.875,201.238Z"/><path class="cls-2" d="M41.82,194.177c-.183-.461-.332-.926-.508-1.388l-15.7,6.217,1.088,2.747,15.7-6.216C42.212,195.08,42,194.638,41.82,194.177Z"/><path class="cls-2" d="M39.214,186.939c-.153-.472-.273-.946-.42-1.418L22.733,190.74l.914,2.81,16.06-5.218C39.549,187.863,39.367,187.41,39.214,186.939Z"/><path class="cls-2" d="M37.068,179.55c-.124-.48-.213-.96-.331-1.44l-16.356,4.2.735,2.862,16.356-4.2C37.344,180.5,37.191,180.031,37.068,179.55Z"/><path class="cls-2" d="M35.389,172.042c-.092-.487-.152-.972-.239-1.458l-16.588,3.164.554,2.9L35.7,173.487C35.606,173,35.482,172.529,35.389,172.042Z"/><path class="cls-2" d="M34.186,164.444c-.062-.492-.091-.98-.147-1.471l-16.754,2.116.37,2.932,16.754-2.116C34.341,165.415,34.248,164.935,34.186,164.444Z"/><path class="cls-2" d="M33.462,156.784c-.031-.5-.029-.983-.055-1.477l-16.853,1.061.186,2.949,16.853-1.061C33.556,157.764,33.493,157.279,33.462,156.784Z"/><path class="cls-2" d="M33.22,149.1c0-.5.033-.984.038-1.478H16.372v2.955H33.258C33.253,150.078,33.22,149.59,33.22,149.1Z"/><path class="cls-2" d="M33.462,141.405c.031-.5.094-.98.131-1.472L16.74,138.872l-.186,2.95,16.853,1.06C33.433,142.389,33.431,141.9,33.462,141.405Z"/><path class="cls-2" d="M34.186,133.746c.062-.492.155-.972.223-1.462l-16.754-2.116-.37,2.932,16.754,2.116C34.1,134.725,34.124,134.237,34.186,133.746Z"/><path class="cls-2" d="M35.389,126.147c.093-.487.217-.96.315-1.445l-16.588-3.164-.554,2.9,16.588,3.164C35.237,127.119,35.3,126.634,35.389,126.147Z"/><path class="cls-2" d="M37.068,118.638c.123-.48.276-.943.4-1.421l-16.356-4.2-.735,2.863,16.356,4.2C36.855,119.6,36.944,119.119,37.068,118.638Z"/><path class="cls-2" d="M39.214,111.251c.153-.472.335-.925.493-1.394l-16.06-5.218-.914,2.81,16.061,5.219C38.941,112.2,39.061,111.722,39.214,111.251Z"/><path class="cls-2" d="M41.82,104.012c.183-.461.392-.9.579-1.36L26.7,96.436l-1.088,2.747,15.7,6.217C41.488,104.938,41.637,104.473,41.82,104.012Z"/><path class="cls-2" d="M44.875,96.952c.212-.449.449-.876.664-1.321L30.26,88.441,29,91.115l15.28,7.19C44.486,97.855,44.664,97.4,44.875,96.952Z"/><path class="cls-2" d="M48.368,90.1c.239-.434.5-.846.746-1.276l-14.8-8.135-1.424,2.589,14.8,8.135C47.923,90.974,48.129,90.531,48.368,90.1Z"/><path class="cls-2" d="M52.284,83.474c.266-.418.555-.812.824-1.227L38.851,73.2l-1.584,2.5,14.258,9.048C51.785,84.322,52.019,83.893,52.284,83.474Z"/><path class="cls-2" d="M56.609,77.111c.291-.4.6-.776.9-1.173L43.847,66.012,42.11,68.4l13.661,9.926C56.057,77.926,56.318,77.512,56.609,77.111Z"/><path class="cls-2" d="M61.324,71.032c.316-.382.652-.737.972-1.114L49.284,59.154,47.4,61.431,60.412,72.195C60.723,71.81,61.008,71.414,61.324,71.032Z"/><path class="cls-2" d="M66.412,65.261c.34-.361.7-.694,1.039-1.051L55.142,52.651l-2.023,2.154,12.309,11.56C65.763,66,66.073,65.622,66.412,65.261Z"/><path class="cls-2" d="M71.852,59.821c.361-.339.739-.649,1.1-.984L61.4,46.528l-2.154,2.023L70.8,60.86C71.158,60.518,71.491,60.16,71.852,59.821Z"/><path class="cls-2" d="M77.623,54.734c.382-.317.779-.6,1.163-.913L68.022,40.81l-2.277,1.883L76.509,55.705C76.886,55.385,77.241,55.049,77.623,54.734Z"/><path class="cls-2" d="M83.7,50.018c.4-.291.815-.552,1.218-.838L74.994,35.519,72.6,37.256l9.925,13.661C82.926,50.623,83.3,50.309,83.7,50.018Z"/><path class="cls-2" d="M90.065,45.694c.419-.266.848-.5,1.268-.76L82.285,30.676,79.79,32.26l9.048,14.257C89.252,46.248,89.647,45.959,90.065,45.694Z"/><path class="cls-2" d="M96.688,41.777c.433-.239.877-.445,1.312-.678L89.865,26.3l-2.589,1.424,8.135,14.8C95.841,42.28,96.253,42.016,96.688,41.777Z"/><path class="cls-2" d="M103.542,38.285c.449-.211.9-.389,1.353-.595l-7.19-15.279-2.673,1.258,7.19,15.279C102.666,38.733,103.094,38.495,103.542,38.285Z"/><path class="cls-2" d="M110.6,35.229c.461-.182.926-.332,1.388-.509l-6.216-15.7-2.748,1.088,6.216,15.7C109.7,35.621,110.142,35.412,110.6,35.229Z"/><path class="cls-2" d="M117.842,32.623c.471-.153.945-.273,1.416-.42l-5.217-16.06-2.811.913,5.218,16.06C116.916,32.958,117.37,32.776,117.842,32.623Z"/><path class="cls-2" d="M125.23,30.477c.48-.123.96-.213,1.44-.331l-4.2-16.356-2.863.735,4.2,16.356C124.285,30.753,124.75,30.6,125.23,30.477Z"/><path class="cls-2" d="M132.738,28.8c.486-.093.972-.152,1.458-.239l-3.164-16.588-2.9.554,3.164,16.588C131.778,29.015,132.251,28.891,132.738,28.8Z"/><path class="cls-2" d="M140.337,27.6c.491-.062.979-.091,1.47-.148l-2.116-16.753-2.932.371,2.117,16.753C139.365,27.751,139.845,27.657,140.337,27.6Z"/><path class="cls-2" d="M148,26.871c.494-.031.983-.029,1.477-.055l-1.06-16.853-2.95.185L146.523,27C147.017,26.965,147.5,26.9,148,26.871Z"/><path class="cls-3" d="M129.779,158.493h-3.9V147.075a1.845,1.845,0,0,0-1.905-1.905h-3.207a1.841,1.841,0,0,0-1.9,1.905v11.418h-7.713l9.915-37.863a19.8,19.8,0,0,0,.8-4.007,1.737,1.737,0,0,0-1.806-1.8h-3.1a1.952,1.952,0,0,0-2,1.7l-10.216,40.969a17.941,17.941,0,0,0-.6,3.2V163.1a1.734,1.734,0,0,0,1.806,1.8h12.92v12.222a1.841,1.841,0,0,0,1.9,1.9h3.207a1.844,1.844,0,0,0,1.905-1.9V164.9h3.9a1.842,1.842,0,0,0,1.905-1.9v-2.6A1.844,1.844,0,0,0,129.779,158.493Z"/><path class="cls-3" d="M154.227,145.772c2.906-2.2,4.91-6.512,4.91-14.124,0-12.42-4.609-17.429-11.919-17.429S135.3,119.327,135.3,131.648c0,7.612,2,11.92,4.91,14.124-3.406,2.305-5.612,7.112-5.612,15.526,0,13.222,4.808,18.332,12.624,18.332s12.62-5.11,12.62-18.332C159.838,152.783,157.632,148.077,154.227,145.772Zm-7.009-25.544c2.8,0,4.7,1.3,4.7,11.42s-1.9,11.42-4.7,11.42-4.708-1.3-4.708-11.42S144.411,120.228,147.218,120.228Zm0,53.391c-3.108,0-5.413-1.3-5.413-12.321s2.305-12.32,5.413-12.32,5.409,1.3,5.409,12.32S150.322,173.619,147.218,173.619Z"/><path class="cls-3" d="M196.208,148.575c-6.613,0-9.919,5.311-9.919,15.728,0,10.318,3.306,15.726,9.919,15.726,6.811,0,9.915-5.408,9.915-15.726C206.123,153.886,203.019,148.575,196.208,148.575Zm0,26.046c-3.207,0-4.007-3.606-4.007-10.318,0-6.812.8-10.316,4.007-10.316,3.3,0,4.007,3.5,4.007,10.316C200.215,171.015,199.51,174.621,196.208,174.621Z"/><path class="cls-3" d="M200.615,114.819h-2a2.893,2.893,0,0,0-2.507,1.905l-28.145,60.4c-.5,1.1.2,1.9,1.3,1.9h2a2.882,2.882,0,0,0,2.5-1.9l28.15-60.4C202.417,115.621,201.716,114.819,200.615,114.819Z"/><path class="cls-3" d="M183.584,129.545c0-10.418-3.1-15.728-9.915-15.728-6.612,0-9.919,5.31-9.919,15.728,0,10.317,3.307,15.726,9.919,15.726C180.48,145.271,183.584,139.862,183.584,129.545Zm-13.922,0c0-6.812.8-10.317,4.007-10.317,3.307,0,4.008,3.505,4.008,10.317,0,6.71-.7,10.317-4.008,10.317C170.462,139.862,169.662,136.255,169.662,129.545Z"/></svg>