<svg id="Layer_1" data-name="Layer 1" xmlns="http://www.w3.org/2000/svg" viewBox="0 0 300 300"><defs><style>.cls-1{fill:#f21b16;}.cls-2{fill:#e6e6e6;}.cls-3{fill:#5e5e5e;}</style></defs><path class="cls-1" d="M184.958,28.313a122.746,122.746,0,0,0-31.794-4.166l-1.369.009-.214-16.887,1.583-.008A139.683,139.683,0,0,1,189.337,12Z"/><path class="cls-2" d="M191.009,30.1c.471.154.925.335,1.393.494l5.218-16.061-2.81-.913-5.218,16.06C190.063,29.83,190.537,29.95,191.009,30.1Z"/><path class="cls-2" d="M198.247,32.708c.461.183.9.393,1.36.58l6.216-15.7L203.076,16.5,196.86,32.2C197.321,32.377,197.787,32.526,198.247,32.708Z"/><path class="cls-2" d="M205.308,35.764c.448.211.876.448,1.321.664l7.19-15.28-2.674-1.258-7.19,15.279C204.405,35.375,204.86,35.553,205.308,35.764Z"/><path class="cls-2" d="M212.163,39.257c.434.239.846.5,1.276.745l8.136-14.8-2.59-1.423-8.135,14.8C211.285,38.812,211.729,39.018,212.163,39.257Z"/><path class="cls-2" d="M218.785,43.173c.418.266.813.554,1.227.824l9.048-14.258-2.5-1.583-9.048,14.258C217.937,42.674,218.367,42.907,218.785,43.173Z"/><path class="cls-2" d="M225.148,47.5c.4.291.777.6,1.173.9l9.926-13.662L233.856,33,223.93,46.66C224.333,46.946,224.747,47.206,225.148,47.5Z"/><path class="cls-2" d="M231.227,52.213c.382.316.737.652,1.114.971l10.764-13.011-2.277-1.884L230.064,51.3C230.449,51.611,230.845,51.9,231.227,52.213Z"/><path class="cls-2" d="M237,57.3c.361.339.694.7,1.051,1.039l11.56-12.31-2.154-2.023L235.9,56.317C236.259,56.651,236.637,56.961,237,57.3Z"/><path class="cls-2" d="M242.438,62.741c.339.361.65.739.984,1.1l12.309-11.56-2.023-2.154L241.4,61.69C241.741,62.046,242.1,62.379,242.438,62.741Z"/><path class="cls-2" d="M247.526,68.512c.316.382.6.778.913,1.162L261.45,58.91l-1.884-2.276L246.555,67.4C246.874,67.775,247.21,68.13,247.526,68.512Z"/><path class="cls-2" d="M252.241,74.591c.292.4.552.814.838,1.217l13.662-9.925L265,63.492l-13.661,9.926C251.637,73.814,251.95,74.19,252.241,74.591Z"/><path class="cls-2" d="M256.566,80.954c.265.418.5.847.759,1.268l14.258-9.048L270,70.678l-14.258,9.049C256.011,80.141,256.3,80.535,256.566,80.954Z"/><path class="cls-2" d="M260.482,87.576c.239.434.445.877.678,1.313l14.8-8.135-1.423-2.59-14.8,8.136C259.98,86.73,260.243,87.142,260.482,87.576Z"/><path class="cls-2" d="M263.975,94.431c.211.448.389.9.594,1.353l15.28-7.19L278.59,85.92l-15.279,7.19C263.527,93.555,263.764,93.982,263.975,94.431Z"/><path class="cls-2" d="M267.03,101.491c.183.461.332.927.508,1.389l15.7-6.217-1.087-2.748-15.7,6.217C266.638,100.589,266.848,101.031,267.03,101.491Z"/><path class="cls-2" d="M269.636,108.73c.153.471.273.946.421,1.417l16.06-5.218-.914-2.811-16.059,5.219C269.3,107.805,269.483,108.259,269.636,108.73Z"/><path class="cls-2" d="M271.783,116.118c.123.48.213.961.33,1.441l16.356-4.2-.735-2.862-16.356,4.2C271.506,115.174,271.659,115.638,271.783,116.118Z"/><path class="cls-2" d="M273.461,123.626c.093.487.152.972.239,1.459l16.588-3.164-.554-2.9-16.587,3.164C273.244,122.666,273.368,123.14,273.461,123.626Z"/><path class="cls-2" d="M274.664,131.225c.063.492.091.98.148,1.471l16.753-2.117-.37-2.932-16.754,2.117C274.509,130.253,274.6,130.733,274.664,131.225Z"/><path class="cls-2" d="M275.388,138.885c.031.494.03.983.055,1.476L292.3,139.3l-.185-2.949-16.853,1.06C275.294,137.905,275.357,138.39,275.388,138.885Z"/><path class="cls-2" d="M275.63,146.574c0,.495-.032.983-.038,1.477h16.887V145.1H275.592C275.6,145.591,275.63,146.078,275.63,146.574Z"/><path class="cls-2" d="M275.388,154.264c-.031.494-.094.979-.13,1.472l16.853,1.06.185-2.949-16.853-1.06C275.418,153.28,275.419,153.769,275.388,154.264Z"/><path class="cls-2" d="M274.664,161.923c-.062.492-.155.972-.223,1.461L291.2,165.5l.37-2.932-16.753-2.117C274.755,160.943,274.727,161.431,274.664,161.923Z"/><path class="cls-2" d="M273.461,169.522c-.093.487-.217.959-.314,1.444l16.587,3.164.554-2.9L273.7,168.063C273.613,168.55,273.554,169.035,273.461,169.522Z"/><path class="cls-2" d="M271.783,177.03c-.124.48-.277.944-.405,1.422l16.356,4.2.735-2.862-16.356-4.2C272,176.07,271.906,176.55,271.783,177.03Z"/><path class="cls-2" d="M269.636,184.418c-.153.471-.335.925-.492,1.393L285.2,191.03l.914-2.811L270.057,183C269.909,183.473,269.789,183.947,269.636,184.418Z"/><path class="cls-2" d="M267.03,191.657c-.182.46-.392.9-.579,1.359l15.7,6.217,1.087-2.748-15.7-6.216C267.362,190.73,267.213,191.2,267.03,191.657Z"/><path class="cls-2" d="M263.975,198.717c-.211.449-.448.876-.664,1.321l15.279,7.19,1.259-2.674-15.28-7.19C264.364,197.813,264.186,198.269,263.975,198.717Z"/><path class="cls-2" d="M260.482,205.572c-.239.434-.5.846-.745,1.277l14.8,8.135,1.423-2.59-14.8-8.135C260.927,204.7,260.721,205.138,260.482,205.572Z"/><path class="cls-2" d="M256.566,212.194c-.266.419-.555.813-.824,1.227L270,222.469l1.583-2.5-14.258-9.048C257.065,211.347,256.831,211.776,256.566,212.194Z"/><path class="cls-2" d="M252.241,218.557c-.291.4-.6.777-.9,1.173L265,229.656l1.738-2.391-13.662-9.925C252.793,217.743,252.533,218.156,252.241,218.557Z"/><path class="cls-2" d="M247.526,224.636c-.316.382-.652.737-.971,1.115l13.011,10.763,1.884-2.276-13.011-10.764C248.127,223.858,247.842,224.254,247.526,224.636Z"/><path class="cls-2" d="M242.438,230.407c-.339.362-.7.695-1.039,1.051l12.309,11.56,2.023-2.154L243.422,229.3C243.088,229.668,242.777,230.046,242.438,230.407Z"/><path class="cls-2" d="M237,235.847c-.361.34-.739.65-1.1.984l11.56,12.31,2.154-2.023-11.56-12.31C237.692,235.15,237.359,235.508,237,235.847Z"/><path class="cls-2" d="M231.227,240.935c-.382.316-.778.6-1.163.913l10.764,13.011,2.277-1.884-10.764-13.011C231.964,240.283,231.609,240.619,231.227,240.935Z"/><path class="cls-2" d="M225.148,245.65c-.4.292-.815.552-1.218.838l9.926,13.662,2.391-1.737-9.926-13.662C225.925,245.046,225.549,245.359,225.148,245.65Z"/><path class="cls-2" d="M218.785,249.975c-.418.266-.848.5-1.268.76l9.048,14.257,2.5-1.583-9.048-14.258C219.6,249.42,219.2,249.71,218.785,249.975Z"/><path class="cls-2" d="M212.163,253.891c-.434.239-.878.445-1.313.679l8.135,14.8,2.59-1.424-8.136-14.8C213.009,253.389,212.6,253.653,212.163,253.891Z"/><path class="cls-2" d="M205.308,257.384c-.448.211-.9.389-1.353.595l7.19,15.279L213.819,272l-7.19-15.28C206.184,256.936,205.756,257.173,205.308,257.384Z"/><path class="cls-2" d="M198.247,260.439c-.46.183-.926.332-1.387.509l6.216,15.7,2.747-1.088-6.216-15.7C199.149,260.047,198.708,260.257,198.247,260.439Z"/><path class="cls-2" d="M191.009,263.046c-.472.152-.946.272-1.417.42l5.218,16.06,2.81-.913-5.218-16.06C191.934,262.71,191.48,262.892,191.009,263.046Z"/><path class="cls-2" d="M183.621,265.192c-.48.123-.961.213-1.441.33l4.2,16.356,2.863-.735-4.2-16.355C184.565,264.916,184.1,265.069,183.621,265.192Z"/><path class="cls-2" d="M176.112,266.87c-.486.093-.971.152-1.458.24l3.164,16.587,2.9-.554-3.164-16.587C177.072,266.654,176.6,266.777,176.112,266.87Z"/><path class="cls-2" d="M168.514,268.074c-.492.062-.98.091-1.471.147l2.116,16.753,2.932-.37-2.116-16.753C169.485,267.918,169.005,268.012,168.514,268.074Z"/><path class="cls-2" d="M160.855,268.8c-.495.031-.984.029-1.478.055l1.061,16.853,2.949-.186-1.06-16.853C161.834,268.7,161.349,268.766,160.855,268.8Z"/><path class="cls-2" d="M153.165,269.04c-.5,0-.984-.033-1.478-.039v16.887h2.955V269C154.148,269.007,153.661,269.04,153.165,269.04Z"/><path class="cls-2" d="M145.475,268.8c-.5-.032-.979-.1-1.472-.131l-1.06,16.853,2.949.186,1.06-16.853C146.458,268.827,145.969,268.829,145.475,268.8Z"/><path class="cls-2" d="M137.816,268.074c-.492-.062-.972-.156-1.461-.223L134.238,284.6l2.932.37,2.117-16.753C138.795,268.165,138.307,268.136,137.816,268.074Z"/><path class="cls-2" d="M130.217,266.87c-.487-.093-.96-.216-1.444-.314l-3.164,16.587,2.9.554,3.164-16.587C131.189,267.022,130.7,266.963,130.217,266.87Z"/><path class="cls-2" d="M122.709,265.192c-.48-.123-.945-.276-1.422-.4l-4.2,16.355,2.862.735,4.2-16.356C123.67,265.4,123.189,265.315,122.709,265.192Z"/><path class="cls-2" d="M115.321,263.046c-.472-.154-.925-.336-1.394-.493l-5.218,16.06,2.811.913,5.218-16.06C116.266,263.318,115.792,263.2,115.321,263.046Z"/><path class="cls-2" d="M108.082,260.439c-.461-.182-.9-.392-1.36-.579l-6.216,15.7,2.748,1.088,6.216-15.7C109.008,260.771,108.543,260.622,108.082,260.439Z"/><path class="cls-2" d="M101.021,257.384c-.448-.211-.875-.448-1.32-.664L92.511,272l2.674,1.258,7.19-15.279C101.925,257.773,101.47,257.6,101.021,257.384Z"/><path class="cls-2" d="M94.167,253.891c-.435-.238-.846-.5-1.277-.745l-8.135,14.8,2.59,1.424,8.135-14.8C95.044,254.336,94.6,254.13,94.167,253.891Z"/><path class="cls-2" d="M87.545,249.975c-.419-.265-.813-.555-1.228-.824l-9.048,14.258,2.495,1.583,9.048-14.257C88.392,250.474,87.963,250.241,87.545,249.975Z"/><path class="cls-2" d="M81.181,245.65c-.4-.291-.776-.6-1.173-.9l-9.925,13.662,2.39,1.737L82.4,246.488C82,246.2,81.582,245.942,81.181,245.65Z"/><path class="cls-2" d="M75.1,240.935c-.381-.316-.736-.652-1.114-.971L63.224,252.975l2.277,1.884,10.764-13.011C75.881,241.537,75.484,241.251,75.1,240.935Z"/><path class="cls-2" d="M69.331,235.847c-.361-.339-.694-.7-1.05-1.039l-11.56,12.31,2.154,2.023,11.559-12.31C70.07,236.5,69.693,236.187,69.331,235.847Z"/><path class="cls-2" d="M63.891,230.407c-.339-.361-.649-.739-.983-1.1L50.6,240.864l2.023,2.154,12.31-11.56C64.588,231.1,64.231,230.769,63.891,230.407Z"/><path class="cls-2" d="M58.8,224.636c-.315-.382-.6-.778-.912-1.162L44.88,234.238l1.883,2.276,13.012-10.763C59.456,225.373,59.12,225.018,58.8,224.636Z"/><path class="cls-2" d="M54.088,218.557c-.291-.4-.552-.814-.837-1.217l-13.662,9.925,1.737,2.391,13.661-9.926C54.692,219.334,54.38,218.958,54.088,218.557Z"/><path class="cls-2" d="M49.764,212.194c-.266-.418-.5-.847-.76-1.268l-14.258,9.048,1.584,2.5,14.258-9.048C50.318,213.007,50.03,212.613,49.764,212.194Z"/><path class="cls-2" d="M45.848,205.572c-.239-.434-.446-.877-.679-1.313l-14.8,8.135,1.424,2.59,14.8-8.135C46.35,206.418,46.086,206.006,45.848,205.572Z"/><path class="cls-2" d="M42.355,198.717c-.211-.448-.39-.9-.595-1.353l-15.279,7.19,1.258,2.674,15.279-7.19C42.8,199.593,42.566,199.166,42.355,198.717Z"/><path class="cls-2" d="M39.3,191.657c-.182-.461-.331-.927-.508-1.388l-15.7,6.216,1.088,2.748,15.7-6.217C39.692,192.559,39.482,192.117,39.3,191.657Z"/><path class="cls-2" d="M36.693,184.418c-.153-.471-.273-.945-.42-1.417l-16.06,5.218.913,2.811,16.06-5.219C37.028,185.343,36.846,184.889,36.693,184.418Z"/><path class="cls-2" d="M34.547,177.03c-.124-.48-.213-.96-.331-1.441l-16.356,4.2.735,2.862,16.356-4.2C34.823,177.974,34.67,177.51,34.547,177.03Z"/><path class="cls-2" d="M32.869,169.522c-.093-.487-.153-.972-.24-1.459l-16.587,3.164.554,2.9,16.587-3.164C33.085,170.481,32.962,170.009,32.869,169.522Z"/><path class="cls-2" d="M31.665,161.923c-.062-.492-.091-.98-.147-1.471l-16.754,2.117.371,2.932,16.753-2.117C31.82,162.9,31.727,162.415,31.665,161.923Z"/><path class="cls-2" d="M30.941,154.264c-.031-.5-.029-.984-.055-1.477l-16.853,1.06.186,2.949,16.853-1.06C31.035,155.243,30.972,154.758,30.941,154.264Z"/><path class="cls-2" d="M30.7,146.574c0-.5.032-.983.038-1.478H13.851v2.955H30.738C30.732,147.557,30.7,147.069,30.7,146.574Z"/><path class="cls-2" d="M30.941,138.885c.031-.5.094-.98.131-1.473l-16.853-1.06-.186,2.949,16.853,1.06C30.912,139.868,30.91,139.379,30.941,138.885Z"/><path class="cls-2" d="M31.665,131.225c.062-.492.155-.972.223-1.461l-16.753-2.117-.371,2.932L31.518,132.7C31.574,132.205,31.6,131.717,31.665,131.225Z"/><path class="cls-2" d="M32.869,123.626c.093-.486.216-.96.314-1.444L16.6,119.018l-.554,2.9,16.587,3.164C32.716,124.6,32.776,124.113,32.869,123.626Z"/><path class="cls-2" d="M34.547,116.118c.123-.48.276-.944.4-1.422L18.6,110.5l-.735,2.862,16.356,4.2C34.334,117.079,34.423,116.6,34.547,116.118Z"/><path class="cls-2" d="M36.693,108.73c.153-.471.335-.925.493-1.393l-16.06-5.219-.913,2.811,16.06,5.218C36.42,109.676,36.54,109.2,36.693,108.73Z"/><path class="cls-2" d="M39.3,101.491c.183-.46.393-.9.58-1.359l-15.7-6.217L23.09,96.663l15.7,6.217C38.968,102.418,39.117,101.952,39.3,101.491Z"/><path class="cls-2" d="M42.355,94.431c.211-.449.448-.876.663-1.321L27.739,85.92l-1.258,2.674,15.279,7.19C41.965,95.334,42.144,94.879,42.355,94.431Z"/><path class="cls-2" d="M45.848,87.576c.238-.434.5-.846.745-1.276L31.8,78.164l-1.424,2.59,14.8,8.135C45.4,88.453,45.609,88.01,45.848,87.576Z"/><path class="cls-2" d="M49.764,80.954c.266-.419.554-.813.824-1.227L36.33,70.678l-1.584,2.5L49,82.222C49.265,81.8,49.5,81.372,49.764,80.954Z"/><path class="cls-2" d="M54.088,74.591c.292-.4.6-.777.9-1.173L41.326,63.492l-1.737,2.391,13.662,9.925C53.536,75.405,53.8,74.991,54.088,74.591Z"/><path class="cls-2" d="M58.8,68.512c.317-.382.653-.737.972-1.114L46.763,56.634,44.88,58.91,57.891,69.674C58.2,69.29,58.488,68.894,58.8,68.512Z"/><path class="cls-2" d="M63.891,62.741c.34-.362.7-.7,1.04-1.051L52.621,50.13,50.6,52.284l12.31,11.56C63.242,63.48,63.552,63.1,63.891,62.741Z"/><path class="cls-2" d="M69.331,57.3c.362-.34.739-.65,1.1-.984L58.875,44.007,56.721,46.03l11.56,12.31C68.637,58,68.97,57.64,69.331,57.3Z"/><path class="cls-2" d="M75.1,52.213c.382-.316.779-.6,1.163-.912L65.5,38.289l-2.277,1.884L73.988,53.184C74.366,52.865,74.721,52.529,75.1,52.213Z"/><path class="cls-2" d="M81.181,47.5c.4-.292.815-.552,1.218-.838L72.473,33l-2.39,1.737L80.008,48.4C80.405,48.1,80.78,47.789,81.181,47.5Z"/><path class="cls-2" d="M87.545,43.173c.418-.266.847-.5,1.267-.759L79.764,28.156l-2.495,1.583L86.317,44C86.732,43.727,87.126,43.439,87.545,43.173Z"/><path class="cls-2" d="M94.167,39.257c.434-.239.877-.445,1.313-.679l-8.135-14.8L84.755,25.2,92.89,40C93.321,39.759,93.732,39.5,94.167,39.257Z"/><path class="cls-2" d="M101.021,35.764c.449-.211.9-.389,1.354-.6L95.185,19.89l-2.674,1.258,7.19,15.28C100.146,36.212,100.573,35.975,101.021,35.764Z"/><path class="cls-2" d="M108.082,32.708c.461-.182.926-.331,1.388-.508l-6.216-15.7-2.748,1.088,6.216,15.7C107.18,33.1,107.621,32.891,108.082,32.708Z"/><path class="cls-2" d="M115.321,30.1c.471-.152.945-.272,1.417-.42l-5.218-16.06-2.811.913L113.927,30.6C114.4,30.437,114.849,30.256,115.321,30.1Z"/><path class="cls-2" d="M122.709,27.956c.48-.123.961-.213,1.441-.33l-4.2-16.356L117.088,12l4.2,16.357C121.764,28.232,122.229,28.079,122.709,27.956Z"/><path class="cls-2" d="M130.217,26.278c.487-.093.972-.152,1.458-.24L128.511,9.451l-2.9.554,3.164,16.587C129.257,26.494,129.73,26.371,130.217,26.278Z"/><path class="cls-2" d="M137.816,25.074c.491-.062.979-.091,1.471-.147L137.17,8.174l-2.932.37L136.355,25.3C136.844,25.23,137.324,25.137,137.816,25.074Z"/><path class="cls-2" d="M145.475,24.35c.494-.031.983-.029,1.477-.054l-1.06-16.854-2.949.186L144,24.481C144.5,24.445,144.98,24.381,145.475,24.35Z"/><path class="cls-3" d="M142.284,155.972h-3.9V144.555a1.845,1.845,0,0,0-1.905-1.905h-3.207a1.841,1.841,0,0,0-1.9,1.905v11.417h-7.713l9.915-37.862a19.809,19.809,0,0,0,.8-4.008,1.737,1.737,0,0,0-1.806-1.8h-3.105a1.952,1.952,0,0,0-2,1.7l-10.216,40.967a17.924,17.924,0,0,0-.6,3.2v2.406a1.735,1.735,0,0,0,1.806,1.8h12.92v12.222a1.841,1.841,0,0,0,1.9,1.9h3.207a1.844,1.844,0,0,0,1.905-1.9V162.383h3.9a1.843,1.843,0,0,0,1.905-1.9v-2.6A1.845,1.845,0,0,0,142.284,155.972Z"/><path class="cls-3" d="M166.031,127.025c0-10.418-3.1-15.728-9.915-15.728-6.613,0-9.919,5.31-9.919,15.728,0,10.317,3.306,15.726,9.919,15.726C162.927,142.751,166.031,137.342,166.031,127.025Zm-13.922,0c0-6.813.8-10.317,4.007-10.317,3.306,0,4.007,3.5,4.007,10.317,0,6.71-.7,10.317-4.007,10.317C152.908,137.342,152.109,133.735,152.109,127.025Z"/><path class="cls-3" d="M178.655,146.058c-6.613,0-9.92,5.307-9.92,15.726,0,10.316,3.307,15.726,9.92,15.726,6.81,0,9.915-5.41,9.915-15.726C188.57,151.365,185.465,146.058,178.655,146.058Zm0,26.042c-3.208,0-4.008-3.607-4.008-10.316,0-6.813.8-10.318,4.008-10.318,3.3,0,4.007,3.5,4.007,10.318C182.662,168.493,181.957,172.1,178.655,172.1Z"/><path class="cls-3" d="M183.062,112.3h-2a2.886,2.886,0,0,0-2.506,1.9l-28.146,60.4c-.5,1.1.2,1.9,1.3,1.9h2a2.884,2.884,0,0,0,2.5-1.9l28.149-60.4C184.863,113.1,184.163,112.3,183.062,112.3Z"/></svg>