<svg id="Layer_1" data-name="Layer 1" xmlns="http://www.w3.org/2000/svg" viewBox="0 0 300 300"><defs><style>.cls-1{fill:#fcad22;}.cls-2{fill:#e6e6e6;}.cls-3{fill:#5e5e5e;}</style></defs><path class="cls-1" d="M163.485,288.227l-.857-16.866a122.428,122.428,0,0,0-6.312-244.693l-1.369.008-.214-16.887,1.583-.008c76.818,0,139.314,62.5,139.314,139.314A139.176,139.176,0,0,1,163.485,288.227Z"/><path class="cls-2" d="M156.315,271.56c-.5,0-.983-.033-1.477-.038v16.886h2.955V271.522C157.3,271.527,156.811,271.56,156.315,271.56Z"/><path class="cls-2" d="M148.626,271.318c-.5-.031-.98-.094-1.472-.131l-1.061,16.854,2.949.185,1.061-16.853C149.609,271.347,149.121,271.349,148.626,271.318Z"/><path class="cls-2" d="M140.966,270.594c-.491-.062-.971-.155-1.461-.223l-2.116,16.754,2.932.37,2.116-16.753C141.946,270.685,141.458,270.656,140.966,270.594Z"/><path class="cls-2" d="M133.368,269.391c-.487-.093-.96-.216-1.445-.315l-3.164,16.588,2.9.554,3.164-16.588C134.34,269.543,133.855,269.484,133.368,269.391Z"/><path class="cls-2" d="M125.86,267.712c-.481-.123-.945-.275-1.422-.4l-4.2,16.356,2.863.735,4.2-16.356C126.82,267.925,126.34,267.836,125.86,267.712Z"/><path class="cls-2" d="M118.472,265.566c-.472-.153-.925-.335-1.394-.493l-5.218,16.06,2.81.913,5.219-16.06C119.417,265.839,118.943,265.719,118.472,265.566Z"/><path class="cls-2" d="M111.233,262.96c-.461-.182-.9-.392-1.36-.579l-6.216,15.7,2.747,1.088,6.217-15.7C112.159,263.292,111.694,263.142,111.233,262.96Z"/><path class="cls-2" d="M104.172,259.9c-.448-.21-.876-.448-1.32-.663l-7.19,15.279,2.674,1.259,7.189-15.28C105.076,260.294,104.621,260.115,104.172,259.9Z"/><path class="cls-2" d="M97.317,256.412c-.434-.239-.846-.5-1.276-.745l-8.135,14.8,2.589,1.424,8.136-14.8C98.2,256.857,97.752,256.651,97.317,256.412Z"/><path class="cls-2" d="M90.7,252.5c-.418-.265-.812-.554-1.227-.823L80.42,265.929l2.5,1.584,9.048-14.258C91.543,253,91.114,252.761,90.7,252.5Z"/><path class="cls-2" d="M84.332,248.171c-.4-.291-.776-.6-1.173-.9l-9.926,13.661,2.391,1.737,9.926-13.661C85.147,248.723,84.733,248.462,84.332,248.171Z"/><path class="cls-2" d="M78.253,243.456c-.382-.316-.737-.652-1.114-.971L66.375,255.5l2.277,1.883,10.764-13.011C79.031,244.058,78.635,243.772,78.253,243.456Z"/><path class="cls-2" d="M72.482,238.368c-.361-.339-.695-.7-1.051-1.039l-11.559,12.31,2.154,2.023,11.559-12.31C73.221,239.017,72.843,238.707,72.482,238.368Z"/><path class="cls-2" d="M67.042,232.928c-.339-.361-.649-.739-.984-1.1l-12.31,11.559,2.023,2.155,12.31-11.56C67.739,233.623,67.381,233.289,67.042,232.928Z"/><path class="cls-2" d="M61.954,227.157c-.316-.382-.6-.778-.912-1.163L48.031,236.758l1.883,2.277,13.011-10.764C62.606,227.894,62.27,227.539,61.954,227.157Z"/><path class="cls-2" d="M57.239,221.078c-.291-.4-.552-.815-.838-1.218L42.74,229.786l1.737,2.391,13.661-9.926C57.843,221.854,57.53,221.479,57.239,221.078Z"/><path class="cls-2" d="M52.915,214.715c-.266-.419-.5-.848-.76-1.268L37.9,222.5l1.584,2.5,14.257-9.048C53.469,215.527,53.18,215.133,52.915,214.715Z"/><path class="cls-2" d="M49,208.093c-.239-.435-.445-.878-.678-1.314l-14.8,8.136,1.424,2.589,14.8-8.135C49.5,208.939,49.237,208.527,49,208.093Z"/><path class="cls-2" d="M45.506,201.238c-.211-.449-.39-.9-.595-1.353l-15.279,7.189,1.258,2.674,15.279-7.189C45.954,202.114,45.716,201.686,45.506,201.238Z"/><path class="cls-2" d="M42.45,194.177c-.182-.461-.332-.926-.509-1.388l-15.7,6.217,1.088,2.747,15.7-6.216C42.842,195.08,42.632,194.638,42.45,194.177Z"/><path class="cls-2" d="M39.844,186.939c-.153-.472-.273-.946-.42-1.418l-16.06,5.219.913,2.81,16.06-5.218C40.179,187.863,40,187.41,39.844,186.939Z"/><path class="cls-2" d="M37.7,179.55c-.123-.48-.213-.96-.331-1.44l-16.356,4.2.735,2.862,16.356-4.2C37.973,180.5,37.821,180.031,37.7,179.55Z"/><path class="cls-2" d="M36.019,172.042c-.093-.487-.152-.972-.239-1.458l-16.588,3.164.554,2.9,16.588-3.164C36.235,173,36.112,172.529,36.019,172.042Z"/><path class="cls-2" d="M34.816,164.444c-.062-.492-.091-.98-.148-1.471l-16.753,2.116.37,2.932,16.754-2.116C34.971,165.415,34.878,164.935,34.816,164.444Z"/><path class="cls-2" d="M34.092,156.784c-.031-.5-.029-.983-.055-1.477l-16.853,1.061.185,2.949,16.854-1.061C34.186,157.764,34.123,157.279,34.092,156.784Z"/><path class="cls-2" d="M33.85,149.1c0-.5.033-.984.038-1.478H17v2.955H33.888C33.883,150.078,33.85,149.59,33.85,149.1Z"/><path class="cls-2" d="M34.092,141.405c.031-.5.094-.98.131-1.472l-16.854-1.061-.185,2.95,16.853,1.06C34.063,142.389,34.061,141.9,34.092,141.405Z"/><path class="cls-2" d="M34.816,133.746c.062-.492.155-.972.223-1.462l-16.754-2.116-.37,2.932,16.753,2.116C34.725,134.725,34.754,134.237,34.816,133.746Z"/><path class="cls-2" d="M36.019,126.147c.093-.487.216-.96.315-1.445l-16.588-3.164-.554,2.9,16.588,3.164C35.867,127.119,35.926,126.634,36.019,126.147Z"/><path class="cls-2" d="M37.7,118.638c.123-.48.275-.943.4-1.421l-16.356-4.2-.735,2.863,16.356,4.2C37.485,119.6,37.575,119.119,37.7,118.638Z"/><path class="cls-2" d="M39.844,111.251c.153-.472.335-.925.493-1.394l-16.06-5.218-.913,2.81,16.06,5.219C39.571,112.2,39.691,111.722,39.844,111.251Z"/><path class="cls-2" d="M42.45,104.012c.182-.461.392-.9.579-1.36l-15.7-6.216-1.088,2.747,15.7,6.217C42.118,104.938,42.268,104.473,42.45,104.012Z"/><path class="cls-2" d="M45.506,96.952c.21-.449.448-.876.663-1.321L30.89,88.441l-1.258,2.674,15.279,7.19C45.116,97.855,45.3,97.4,45.506,96.952Z"/><path class="cls-2" d="M49,90.1c.239-.434.5-.846.745-1.276l-14.8-8.135-1.424,2.589,14.8,8.135C48.553,90.974,48.759,90.531,49,90.1Z"/><path class="cls-2" d="M52.915,83.474c.265-.418.554-.812.823-1.227L39.481,73.2l-1.584,2.5,14.258,9.048C52.415,84.322,52.649,83.893,52.915,83.474Z"/><path class="cls-2" d="M57.239,77.111c.291-.4.6-.776.9-1.173L44.477,66.012,42.74,68.4,56.4,78.329C56.687,77.926,56.948,77.512,57.239,77.111Z"/><path class="cls-2" d="M61.954,71.032c.316-.382.652-.737.971-1.114L49.914,59.154l-1.883,2.277L61.042,72.195C61.352,71.81,61.638,71.414,61.954,71.032Z"/><path class="cls-2" d="M67.042,65.261c.339-.361.7-.694,1.039-1.051L55.771,52.651l-2.023,2.154,12.31,11.56C66.393,66,66.7,65.622,67.042,65.261Z"/><path class="cls-2" d="M72.482,59.821c.361-.339.739-.649,1.1-.984L62.026,46.528l-2.154,2.023L71.431,60.86C71.787,60.518,72.121,60.16,72.482,59.821Z"/><path class="cls-2" d="M78.253,54.734c.382-.317.778-.6,1.163-.913L68.652,40.81l-2.277,1.883L77.139,55.705C77.516,55.385,77.871,55.049,78.253,54.734Z"/><path class="cls-2" d="M84.332,50.018c.4-.291.815-.552,1.218-.838L75.624,35.519l-2.391,1.737,9.926,13.661C83.556,50.623,83.931,50.309,84.332,50.018Z"/><path class="cls-2" d="M90.7,45.694c.419-.266.848-.5,1.268-.76L82.915,30.676l-2.5,1.584,9.048,14.257C89.883,46.248,90.277,45.959,90.7,45.694Z"/><path class="cls-2" d="M97.317,41.777c.435-.239.878-.445,1.314-.678L90.5,26.3l-2.589,1.424,8.135,14.8C96.471,42.28,96.883,42.016,97.317,41.777Z"/><path class="cls-2" d="M104.172,38.285c.449-.211.9-.389,1.353-.595L98.336,22.411l-2.674,1.258,7.19,15.279C103.3,38.733,103.724,38.495,104.172,38.285Z"/><path class="cls-2" d="M111.233,35.229c.461-.182.926-.332,1.388-.509L106.4,19.02l-2.747,1.088,6.216,15.7C110.331,35.621,110.772,35.412,111.233,35.229Z"/><path class="cls-2" d="M118.472,32.623c.471-.153.945-.273,1.417-.42l-5.219-16.06-2.81.913,5.218,16.06C117.547,32.958,118,32.776,118.472,32.623Z"/><path class="cls-2" d="M125.86,30.477c.48-.123.96-.213,1.44-.331L123.1,13.79l-2.863.735,4.2,16.356C124.915,30.753,125.379,30.6,125.86,30.477Z"/><path class="cls-2" d="M133.368,28.8c.487-.093.972-.152,1.458-.239l-3.164-16.588-2.9.554,3.164,16.588C132.408,29.015,132.881,28.891,133.368,28.8Z"/><path class="cls-2" d="M140.966,27.6c.492-.062.98-.091,1.471-.148l-2.116-16.753-2.932.371,2.116,16.753C140,27.751,140.475,27.657,140.966,27.6Z"/><path class="cls-2" d="M148.626,26.871c.5-.031.983-.029,1.477-.055L149.042,9.963l-2.949.185L147.154,27C147.646,26.965,148.131,26.9,148.626,26.871Z"/><path class="cls-3" d="M130.207,158.493h-3.9V147.075a1.845,1.845,0,0,0-1.905-1.905H121.19a1.841,1.841,0,0,0-1.9,1.905v11.418h-7.714l9.915-37.863a19.8,19.8,0,0,0,.8-4.007,1.736,1.736,0,0,0-1.806-1.8h-3.1a1.951,1.951,0,0,0-2,1.7l-10.216,40.969a17.941,17.941,0,0,0-.6,3.2V163.1a1.734,1.734,0,0,0,1.805,1.8H119.29v12.222a1.841,1.841,0,0,0,1.9,1.9H124.4a1.844,1.844,0,0,0,1.905-1.9V164.9h3.9a1.843,1.843,0,0,0,1.905-1.9v-2.6A1.844,1.844,0,0,0,130.207,158.493Z"/><path class="cls-3" d="M146.941,114.219c-7.813,0-12.62,4.908-12.62,19.332s4.407,19.333,11.618,19.333c2.507,0,5.71-1.2,7.116-3.906,0,17.329-.705,24.34-6.411,24.34-4.209,0-5.112-4.207-4.811-9.115.1-2.1-.5-3.305-2-3.305h-2.3a2.373,2.373,0,0,0-2.507,2.705c0,12.219,4.308,16.027,11.622,16.027,12.92,0,13.32-13.224,13.32-37.263C159.964,122.133,157.058,114.219,146.941,114.219Zm0,32.654c-3.1,0-5.409-1.7-5.409-13.322s2.3-13.323,5.409-13.323,6.011,1.705,6.011,13.323S150.049,146.873,146.941,146.873Z"/><path class="cls-3" d="M184.412,129.545c0-10.418-3.1-15.728-9.915-15.728-6.613,0-9.919,5.31-9.919,15.728,0,10.317,3.306,15.726,9.919,15.726C181.308,145.271,184.412,139.862,184.412,129.545Zm-13.922,0c0-6.812.8-10.317,4.007-10.317,3.306,0,4.007,3.505,4.007,10.317,0,6.71-.7,10.317-4.007,10.317C171.289,139.862,170.49,136.255,170.49,129.545Z"/><path class="cls-3" d="M197.036,148.575c-6.613,0-9.919,5.311-9.919,15.728,0,10.318,3.306,15.726,9.919,15.726,6.81,0,9.915-5.408,9.915-15.726C206.951,153.886,203.846,148.575,197.036,148.575Zm0,26.046c-3.208,0-4.008-3.606-4.008-10.318,0-6.812.8-10.316,4.008-10.316,3.3,0,4.007,3.5,4.007,10.316C201.043,171.015,200.338,174.621,197.036,174.621Z"/><path class="cls-3" d="M201.443,114.819h-2a2.89,2.89,0,0,0-2.506,1.905l-28.146,60.4c-.5,1.1.2,1.9,1.3,1.9h2a2.884,2.884,0,0,0,2.5-1.9l28.149-60.4C203.244,115.621,202.544,114.819,201.443,114.819Z"/></svg>