<svg id="Layer_1" data-name="Layer 1" xmlns="http://www.w3.org/2000/svg" viewBox="0 0 300 300"><defs><style>.cls-1{fill:#fcad22;}.cls-2{fill:#e6e6e6;}.cls-3{fill:#5e5e5e;}</style></defs><path class="cls-1" d="M150.646,289.038l-1.55-.008.14-16.886,1.41.008a122.428,122.428,0,0,0,0-244.855l-1.41.009-.14-16.887,1.55-.008c76.818,0,139.314,62.5,139.314,139.313S227.464,289.038,150.646,289.038Z"/><path class="cls-2" d="M142.954,271.948c-.494-.031-.979-.094-1.472-.13l-1.06,16.853,2.949.185L144.432,272C143.938,271.978,143.449,271.979,142.954,271.948Z"/><path class="cls-2" d="M135.295,271.224c-.492-.062-.971-.155-1.461-.223l-2.116,16.754,2.931.37,2.117-16.753C136.275,271.315,135.787,271.287,135.295,271.224Z"/><path class="cls-2" d="M127.7,270.021c-.487-.093-.959-.217-1.444-.314l-3.164,16.587,2.9.554,3.164-16.588C128.668,270.173,128.183,270.114,127.7,270.021Z"/><path class="cls-2" d="M120.188,268.343c-.48-.124-.944-.277-1.421-.405l-4.2,16.356,2.862.735,4.2-16.356C121.149,268.556,120.668,268.466,120.188,268.343Z"/><path class="cls-2" d="M112.8,266.2c-.471-.153-.925-.335-1.393-.492l-5.218,16.06,2.81.913,5.218-16.06C113.745,266.469,113.272,266.35,112.8,266.2Z"/><path class="cls-2" d="M105.562,263.59c-.461-.182-.9-.392-1.36-.579l-6.216,15.7,2.747,1.087,6.216-15.7C106.488,263.922,106.022,263.773,105.562,263.59Z"/><path class="cls-2" d="M98.5,260.535c-.449-.211-.876-.448-1.321-.664L89.99,275.15l2.674,1.259,7.19-15.28C99.405,260.924,98.949,260.746,98.5,260.535Z"/><path class="cls-2" d="M91.646,257.042c-.434-.239-.846-.5-1.277-.745l-8.135,14.8,2.59,1.423,8.135-14.8C92.523,257.487,92.08,257.281,91.646,257.042Z"/><path class="cls-2" d="M85.024,253.126c-.418-.266-.813-.555-1.227-.824L74.749,266.56l2.494,1.583,9.049-14.258C85.872,253.625,85.442,253.391,85.024,253.126Z"/><path class="cls-2" d="M78.661,248.8c-.4-.291-.777-.6-1.173-.9l-9.926,13.661,2.391,1.738,9.926-13.662C79.476,249.353,79.062,249.093,78.661,248.8Z"/><path class="cls-2" d="M72.582,244.086c-.382-.316-.737-.652-1.115-.971L60.7,256.126l2.277,1.884L73.745,245C73.36,244.687,72.964,244.4,72.582,244.086Z"/><path class="cls-2" d="M66.811,239c-.361-.339-.7-.7-1.051-1.039L54.2,250.268l2.154,2.023,11.56-12.309C67.55,239.648,67.172,239.337,66.811,239Z"/><path class="cls-2" d="M61.371,233.558c-.339-.361-.65-.739-.984-1.1l-12.31,11.56,2.023,2.154,12.31-11.56C62.068,234.252,61.71,233.919,61.371,233.558Z"/><path class="cls-2" d="M56.283,227.787c-.316-.382-.6-.778-.913-1.163L42.359,237.388l1.884,2.277L57.254,228.9C56.935,228.524,56.6,228.169,56.283,227.787Z"/><path class="cls-2" d="M51.568,221.708c-.292-.4-.552-.814-.838-1.218l-13.662,9.926,1.738,2.391,13.661-9.926C52.172,222.485,51.859,222.109,51.568,221.708Z"/><path class="cls-2" d="M47.243,215.345c-.265-.418-.5-.848-.76-1.268l-14.257,9.048,1.583,2.5,14.258-9.048C47.8,216.158,47.509,215.763,47.243,215.345Z"/><path class="cls-2" d="M43.327,208.723c-.239-.434-.445-.878-.679-1.313l-14.8,8.135,1.423,2.589L44.072,210C43.829,209.569,43.565,209.157,43.327,208.723Z"/><path class="cls-2" d="M39.834,201.868c-.211-.448-.389-.9-.594-1.353l-15.28,7.19,1.258,2.674,15.28-7.19C40.282,202.744,40.045,202.316,39.834,201.868Z"/><path class="cls-2" d="M36.779,194.807c-.183-.46-.332-.926-.509-1.387l-15.7,6.216,1.088,2.747,15.7-6.216C37.171,195.709,36.961,195.268,36.779,194.807Z"/><path class="cls-2" d="M34.173,187.568c-.154-.471-.273-.945-.421-1.416l-16.06,5.218.913,2.81,16.06-5.218C34.508,188.494,34.326,188.04,34.173,187.568Z"/><path class="cls-2" d="M32.026,180.181c-.123-.48-.213-.961-.331-1.441l-16.355,4.2.735,2.863,16.355-4.2C32.3,181.125,32.149,180.661,32.026,180.181Z"/><path class="cls-2" d="M30.348,172.672c-.093-.486-.152-.971-.239-1.458l-16.588,3.164.554,2.9,16.587-3.164C30.564,173.632,30.441,173.159,30.348,172.672Z"/><path class="cls-2" d="M29.144,165.074c-.062-.492-.09-.98-.147-1.471l-16.754,2.116.371,2.932,16.753-2.116C29.3,166.045,29.206,165.565,29.144,165.074Z"/><path class="cls-2" d="M28.42,157.415c-.031-.5-.029-.984-.055-1.478L11.512,157l.186,2.95,16.853-1.06C28.514,158.394,28.452,157.909,28.42,157.415Z"/><path class="cls-2" d="M28.179,149.725c0-.5.032-.984.038-1.478H11.33V151.2H28.217C28.211,150.708,28.179,150.22,28.179,149.725Z"/><path class="cls-2" d="M28.42,142.035c.032-.5.094-.979.131-1.472L11.7,139.5l-.186,2.949,16.853,1.06C28.391,143.018,28.389,142.53,28.42,142.035Z"/><path class="cls-2" d="M29.144,134.376c.062-.492.156-.972.223-1.461L12.614,130.8l-.371,2.932L29,135.846C29.054,135.355,29.082,134.867,29.144,134.376Z"/><path class="cls-2" d="M30.348,126.777c.093-.487.216-.96.314-1.444l-16.587-3.164-.554,2.9,16.588,3.164C30.2,127.749,30.255,127.264,30.348,126.777Z"/><path class="cls-2" d="M32.026,119.269c.123-.48.276-.945.4-1.422l-16.355-4.2-.735,2.862,16.355,4.2C31.813,120.229,31.9,119.749,32.026,119.269Z"/><path class="cls-2" d="M34.173,111.881c.153-.472.335-.925.492-1.394l-16.06-5.218-.913,2.811,16.06,5.218C33.9,112.826,34.019,112.352,34.173,111.881Z"/><path class="cls-2" d="M36.779,104.642c.182-.461.392-.9.579-1.36l-15.7-6.216-1.088,2.748,15.7,6.216C36.447,105.568,36.6,105.1,36.779,104.642Z"/><path class="cls-2" d="M39.834,97.581c.211-.448.448-.875.664-1.32l-15.28-7.19L23.96,91.745l15.28,7.19C39.445,98.485,39.623,98.03,39.834,97.581Z"/><path class="cls-2" d="M43.327,90.727c.238-.435.5-.846.745-1.277l-14.8-8.135-1.423,2.59,14.8,8.135C42.882,91.6,43.088,91.161,43.327,90.727Z"/><path class="cls-2" d="M47.243,84.105c.266-.419.555-.813.824-1.228L33.809,73.829l-1.583,2.5,14.257,9.048C46.744,84.952,46.978,84.523,47.243,84.105Z"/><path class="cls-2" d="M51.568,77.741c.291-.4.6-.776.9-1.173L38.806,66.643l-1.738,2.39L50.73,78.959C51.016,78.556,51.276,78.142,51.568,77.741Z"/><path class="cls-2" d="M56.283,71.662c.316-.381.652-.736.971-1.114L44.243,59.784l-1.884,2.277L55.37,72.825C55.681,72.441,55.967,72.044,56.283,71.662Z"/><path class="cls-2" d="M61.371,65.891c.339-.361.7-.694,1.039-1.05L50.1,53.281l-2.023,2.154,12.31,11.559C60.721,66.631,61.032,66.253,61.371,65.891Z"/><path class="cls-2" d="M66.811,60.451c.361-.339.739-.649,1.1-.983l-11.56-12.31L54.2,49.181l11.56,12.31C66.116,61.148,66.45,60.791,66.811,60.451Z"/><path class="cls-2" d="M72.582,55.363c.382-.315.778-.6,1.163-.912L62.981,41.44,60.7,43.323,71.467,56.335C71.845,56.016,72.2,55.68,72.582,55.363Z"/><path class="cls-2" d="M78.661,50.648c.4-.291.815-.552,1.218-.837L69.953,36.149l-2.391,1.737,9.926,13.661C77.884,51.252,78.26,50.94,78.661,50.648Z"/><path class="cls-2" d="M85.024,46.324c.418-.266.848-.5,1.268-.76L77.243,31.306,74.749,32.89,83.8,47.148C84.211,46.878,84.606,46.59,85.024,46.324Z"/><path class="cls-2" d="M91.646,42.408c.434-.239.877-.446,1.313-.679l-8.135-14.8-2.59,1.424,8.135,14.8C90.8,42.91,91.212,42.646,91.646,42.408Z"/><path class="cls-2" d="M98.5,38.915c.448-.211.9-.39,1.353-.595l-7.19-15.279L89.99,24.3l7.19,15.279C97.625,39.363,98.052,39.126,98.5,38.915Z"/><path class="cls-2" d="M105.562,35.859c.46-.182.926-.331,1.387-.508l-6.216-15.7-2.747,1.088,6.216,15.7C104.659,36.252,105.1,36.042,105.562,35.859Z"/><path class="cls-2" d="M112.8,33.253c.472-.153.945-.273,1.417-.42L109,16.773l-2.81.913,5.218,16.06C111.875,33.588,112.329,33.406,112.8,33.253Z"/><path class="cls-2" d="M120.188,31.107c.48-.124.961-.213,1.441-.331l-4.2-16.356-2.862.735,4.2,16.356C119.244,31.383,119.708,31.23,120.188,31.107Z"/><path class="cls-2" d="M127.7,29.429c.487-.093.972-.153,1.459-.24L125.991,12.6l-2.9.554,3.164,16.587C126.737,29.645,127.209,29.522,127.7,29.429Z"/><path class="cls-2" d="M135.295,28.225c.492-.062.98-.091,1.471-.147l-2.117-16.754-2.931.371,2.116,16.753C134.324,28.38,134.8,28.287,135.295,28.225Z"/><path class="cls-2" d="M142.954,27.5c.5-.031.984-.029,1.478-.055l-1.061-16.853-2.949.186,1.06,16.853C141.975,27.6,142.46,27.532,142.954,27.5Z"/><path class="cls-3" d="M113.772,137.991a8.4,8.4,0,0,0-5.21,1.9V121.863h13.625a1.842,1.842,0,0,0,1.9-1.9v-2.606a1.839,1.839,0,0,0-1.9-1.9H103.453a1.842,1.842,0,0,0-1.9,1.9v33.258a2.2,2.2,0,0,0,2.407,2.4h1.7c1.4,0,1.8-1.1,1.8-3.005,0-3.2,1.4-6.011,4.807-6.011,3.706,0,5.512,2.606,5.512,15.126,0,12.624-2.305,14.924-5.611,14.924-5.611,0-5.009-6.109-4.807-9.214.1-2.1-.5-3.306-2-3.306h-2.4a2.372,2.372,0,0,0-2.506,2.7c0,10.319,2.606,16.029,12.022,16.029,8.814,0,12.12-6.514,12.12-21.137S121.486,137.991,113.772,137.991Z"/><path class="cls-3" d="M142.627,114.851c-8.311,0-12.821,5.611-12.821,32.655s4.51,32.755,12.821,32.755,12.822-5.71,12.822-32.755S150.943,114.851,142.627,114.851Zm0,58.9c-3.6,0-5.606-2.3-5.606-26.241s2-26.145,5.606-26.145,5.611,2.2,5.611,26.145S146.235,173.747,142.627,173.747Z"/><path class="cls-3" d="M179.9,130.175c0-10.418-3.1-15.724-9.915-15.724-6.612,0-9.919,5.306-9.919,15.724,0,10.319,3.307,15.728,9.919,15.728C176.792,145.9,179.9,140.494,179.9,130.175Zm-13.922,0c0-6.811.8-10.315,4.007-10.315,3.307,0,4.007,3.5,4.007,10.315,0,6.711-.7,10.319-4.007,10.319C166.774,140.494,165.974,136.886,165.974,130.175Z"/><path class="cls-3" d="M196.927,115.452h-2a2.887,2.887,0,0,0-2.507,1.9l-28.145,60.4c-.5,1.105.2,1.9,1.3,1.9h2a2.877,2.877,0,0,0,2.5-1.9l28.15-60.4C198.729,116.252,198.028,115.452,196.927,115.452Z"/><path class="cls-3" d="M192.52,149.209c-6.613,0-9.919,5.306-9.919,15.724,0,10.319,3.306,15.728,9.919,15.728,6.811,0,9.915-5.409,9.915-15.728C202.435,154.515,199.331,149.209,192.52,149.209Zm0,26.043c-3.207,0-4.007-3.607-4.007-10.319,0-6.81.8-10.315,4.007-10.315,3.3,0,4.007,3.5,4.007,10.315C196.527,171.645,195.822,175.252,192.52,175.252Z"/></svg>