<svg id="Layer_1" data-name="Layer 1" xmlns="http://www.w3.org/2000/svg" viewBox="0 0 300 300"><defs><style>.cls-1{fill:#fcad22;}.cls-2{fill:#e6e6e6;}.cls-3{fill:#5e5e5e;}</style></defs><path class="cls-1" d="M151.275,289.038c-3.434,0-6.9-.128-10.31-.379l1.236-16.837c3,.218,6.052.33,9.074.33a122.428,122.428,0,1,0,0-244.855l-1.4.009-.14-16.887,1.537-.008c76.818,0,139.314,62.5,139.314,139.313S228.093,289.038,151.275,289.038Z"/><path class="cls-2" d="M135.925,271.224c-.491-.062-.971-.155-1.461-.223l-2.116,16.754,2.931.37,2.117-16.753C136.905,271.315,136.417,271.287,135.925,271.224Z"/><path class="cls-2" d="M128.326,270.021c-.486-.093-.959-.217-1.444-.314l-3.164,16.587,2.9.554,3.164-16.588C129.3,270.173,128.813,270.114,128.326,270.021Z"/><path class="cls-2" d="M120.818,268.343c-.48-.124-.944-.277-1.422-.405l-4.2,16.356,2.862.735,4.2-16.356C121.779,268.556,121.3,268.466,120.818,268.343Z"/><path class="cls-2" d="M113.43,266.2c-.471-.153-.925-.335-1.393-.492l-5.218,16.06,2.81.913,5.218-16.06C114.376,266.469,113.9,266.35,113.43,266.2Z"/><path class="cls-2" d="M106.192,263.59c-.461-.182-.9-.392-1.36-.579l-6.217,15.7,2.748,1.087,6.217-15.7C107.118,263.922,106.653,263.773,106.192,263.59Z"/><path class="cls-2" d="M99.131,260.535c-.448-.211-.876-.448-1.321-.664L90.621,275.15l2.673,1.259,7.19-15.28C100.035,260.924,99.579,260.746,99.131,260.535Z"/><path class="cls-2" d="M92.276,257.042c-.434-.239-.846-.5-1.276-.745l-8.135,14.8,2.589,1.423,8.135-14.8C93.154,257.487,92.71,257.281,92.276,257.042Z"/><path class="cls-2" d="M85.654,253.126c-.419-.266-.813-.555-1.227-.824L75.379,266.56l2.495,1.583,9.048-14.258C86.5,253.625,86.073,253.391,85.654,253.126Z"/><path class="cls-2" d="M79.291,248.8c-.4-.291-.776-.6-1.173-.9l-9.926,13.661,2.391,1.738,9.925-13.662C80.106,249.353,79.692,249.093,79.291,248.8Z"/><path class="cls-2" d="M73.212,244.086c-.382-.316-.737-.652-1.114-.971L61.334,256.126l2.277,1.884L74.374,245C73.99,244.687,73.594,244.4,73.212,244.086Z"/><path class="cls-2" d="M67.441,239c-.362-.339-.7-.7-1.051-1.039L54.83,250.268l2.154,2.023,11.56-12.309C68.18,239.648,67.8,239.337,67.441,239Z"/><path class="cls-2" d="M62,233.558c-.34-.361-.649-.739-.984-1.1l-12.31,11.56,2.023,2.154,12.31-11.56C62.7,234.252,62.34,233.919,62,233.558Z"/><path class="cls-2" d="M56.913,227.787c-.316-.382-.6-.778-.912-1.163L42.989,237.388l1.884,2.277L57.884,228.9C57.565,228.524,57.229,228.169,56.913,227.787Z"/><path class="cls-2" d="M52.2,221.708c-.291-.4-.552-.814-.838-1.218L37.7,230.416l1.736,2.391L53.1,222.881C52.8,222.485,52.489,222.109,52.2,221.708Z"/><path class="cls-2" d="M47.873,215.345c-.265-.418-.5-.848-.759-1.268l-14.258,9.048,1.584,2.5L48.7,216.572C48.428,216.158,48.139,215.763,47.873,215.345Z"/><path class="cls-2" d="M43.957,208.723c-.239-.434-.445-.878-.678-1.313l-14.8,8.135,1.424,2.589L44.7,210C44.459,209.569,44.2,209.157,43.957,208.723Z"/><path class="cls-2" d="M40.464,201.868c-.211-.448-.389-.9-.594-1.353l-15.28,7.19,1.259,2.674,15.279-7.19C40.913,202.744,40.675,202.316,40.464,201.868Z"/><path class="cls-2" d="M37.409,194.807c-.183-.46-.332-.926-.509-1.387l-15.7,6.216,1.088,2.747,15.7-6.216C37.8,195.709,37.591,195.268,37.409,194.807Z"/><path class="cls-2" d="M34.8,187.568c-.153-.471-.273-.945-.42-1.416L18.322,191.37l.914,2.81,16.06-5.218C35.138,188.494,34.956,188.04,34.8,187.568Z"/><path class="cls-2" d="M32.656,180.181c-.123-.48-.212-.961-.33-1.441l-16.356,4.2L16.7,185.8l16.356-4.2C32.932,181.125,32.78,180.661,32.656,180.181Z"/><path class="cls-2" d="M30.978,172.672c-.093-.486-.152-.971-.24-1.458l-16.587,3.164.554,2.9,16.587-3.164C31.194,173.632,31.071,173.159,30.978,172.672Z"/><path class="cls-2" d="M29.775,165.074c-.062-.492-.092-.98-.148-1.471l-16.753,2.116.37,2.932L30,166.535C29.93,166.045,29.837,165.565,29.775,165.074Z"/><path class="cls-2" d="M29.051,157.415c-.032-.5-.03-.984-.055-1.478L12.143,157l.185,2.95,16.853-1.06C29.145,158.394,29.082,157.909,29.051,157.415Z"/><path class="cls-2" d="M28.809,149.725c0-.5.033-.984.038-1.478H11.961V151.2H28.847C28.842,150.708,28.809,150.22,28.809,149.725Z"/><path class="cls-2" d="M29.051,142.035c.031-.5.094-.979.13-1.472L12.328,139.5l-.185,2.949L29,143.512C29.021,143.018,29.019,142.53,29.051,142.035Z"/><path class="cls-2" d="M29.775,134.376c.062-.492.155-.972.223-1.461L13.244,130.8l-.37,2.932,16.753,2.116C29.683,135.355,29.713,134.867,29.775,134.376Z"/><path class="cls-2" d="M30.978,126.777c.093-.487.216-.96.314-1.444l-16.587-3.164-.554,2.9,16.587,3.164C30.826,127.749,30.885,127.264,30.978,126.777Z"/><path class="cls-2" d="M32.656,119.269c.124-.48.276-.945.405-1.422l-16.356-4.2-.735,2.862,16.356,4.2C32.444,120.229,32.533,119.749,32.656,119.269Z"/><path class="cls-2" d="M34.8,111.881c.153-.472.335-.925.493-1.394l-16.06-5.218-.914,2.811L34.383,113.3C34.53,112.826,34.65,112.352,34.8,111.881Z"/><path class="cls-2" d="M37.409,104.642c.182-.461.392-.9.579-1.36l-15.7-6.216L21.2,99.814l15.7,6.216C37.077,105.568,37.226,105.1,37.409,104.642Z"/><path class="cls-2" d="M40.464,97.581c.211-.448.449-.875.664-1.32l-15.279-7.19L24.59,91.745l15.28,7.19C40.075,98.485,40.253,98.03,40.464,97.581Z"/><path class="cls-2" d="M43.957,90.727c.239-.435.5-.846.745-1.277l-14.8-8.135-1.424,2.59,14.8,8.135C43.512,91.6,43.718,91.161,43.957,90.727Z"/><path class="cls-2" d="M47.873,84.105c.266-.419.555-.813.824-1.228L34.44,73.829l-1.584,2.5,14.258,9.048C47.374,84.952,47.608,84.523,47.873,84.105Z"/><path class="cls-2" d="M52.2,77.741c.291-.4.6-.776.9-1.173L39.435,66.643,37.7,69.033,51.36,78.959C51.646,78.556,51.907,78.142,52.2,77.741Z"/><path class="cls-2" d="M56.913,71.662c.316-.381.652-.736.971-1.114L44.873,59.784l-1.884,2.277L56,72.825C56.311,72.441,56.6,72.044,56.913,71.662Z"/><path class="cls-2" d="M62,65.891c.339-.361.7-.694,1.039-1.05L50.73,53.281l-2.023,2.154,12.31,11.559C61.352,66.631,61.661,66.253,62,65.891Z"/><path class="cls-2" d="M67.441,60.451c.361-.339.739-.649,1.1-.983l-11.56-12.31L54.83,49.181l11.56,12.31C66.746,61.148,67.079,60.791,67.441,60.451Z"/><path class="cls-2" d="M73.212,55.363c.382-.315.778-.6,1.162-.912L63.611,41.44l-2.277,1.883L72.1,56.335C72.475,56.016,72.83,55.68,73.212,55.363Z"/><path class="cls-2" d="M79.291,50.648c.4-.291.815-.552,1.217-.837L70.583,36.149l-2.391,1.737,9.926,13.661C78.515,51.252,78.89,50.94,79.291,50.648Z"/><path class="cls-2" d="M85.654,46.324c.419-.266.848-.5,1.268-.76L77.874,31.306,75.379,32.89l9.048,14.258C84.841,46.878,85.235,46.59,85.654,46.324Z"/><path class="cls-2" d="M92.276,42.408c.434-.239.878-.446,1.313-.679l-8.135-14.8-2.589,1.424L91,43.153C91.43,42.91,91.842,42.646,92.276,42.408Z"/><path class="cls-2" d="M99.131,38.915c.448-.211.9-.39,1.353-.595l-7.19-15.279L90.621,24.3,97.81,39.578C98.255,39.363,98.683,39.126,99.131,38.915Z"/><path class="cls-2" d="M106.192,35.859c.461-.182.926-.331,1.388-.508l-6.217-15.7-2.748,1.088,6.217,15.7C105.289,36.252,105.731,36.042,106.192,35.859Z"/><path class="cls-2" d="M113.43,33.253c.472-.153.946-.273,1.417-.42l-5.218-16.06-2.81.913,5.218,16.06C112.505,33.588,112.959,33.406,113.43,33.253Z"/><path class="cls-2" d="M120.818,31.107c.48-.124.961-.213,1.441-.331l-4.2-16.356-2.862.735,4.2,16.356C119.874,31.383,120.338,31.23,120.818,31.107Z"/><path class="cls-2" d="M128.326,29.429c.487-.093.973-.153,1.459-.24L126.621,12.6l-2.9.554,3.164,16.587C127.367,29.645,127.84,29.522,128.326,29.429Z"/><path class="cls-2" d="M135.925,28.225c.492-.062.98-.091,1.471-.147l-2.117-16.754-2.931.371,2.116,16.753C134.954,28.38,135.434,28.287,135.925,28.225Z"/><path class="cls-2" d="M143.585,27.5c.494-.031.983-.029,1.476-.055L144,10.593l-2.949.186,1.06,16.853C142.6,27.6,143.09,27.532,143.585,27.5Z"/><path class="cls-3" d="M121.213,137.991a8.4,8.4,0,0,0-5.211,1.9V121.863h13.625a1.842,1.842,0,0,0,1.9-1.9v-2.606a1.839,1.839,0,0,0-1.9-1.9H110.894a1.842,1.842,0,0,0-1.905,1.9v33.258a2.2,2.2,0,0,0,2.407,2.4h1.7c1.4,0,1.8-1.1,1.8-3.005,0-3.2,1.4-6.011,4.807-6.011,3.706,0,5.512,2.606,5.512,15.126,0,12.624-2.3,14.924-5.611,14.924-5.611,0-5.009-6.109-4.807-9.214.1-2.1-.5-3.306-2-3.306h-2.4a2.372,2.372,0,0,0-2.507,2.7c0,10.319,2.606,16.029,12.022,16.029,8.814,0,12.121-6.514,12.121-21.137S128.926,137.991,121.213,137.991Z"/><path class="cls-3" d="M145.561,115.452h-2a1.842,1.842,0,0,0-1.905,1.9v.7c0,3.607-1.7,5.211-4.708,5.211h-.9a1.841,1.841,0,0,0-1.905,1.905v2.2a1.843,1.843,0,0,0,1.905,1.905h4.205v48.479a1.84,1.84,0,0,0,1.905,1.9h3.405a1.839,1.839,0,0,0,1.9-1.9v-60.4A1.839,1.839,0,0,0,145.561,115.452Z"/><path class="cls-3" d="M173.711,130.175c0-10.418-3.1-15.724-9.915-15.724-6.613,0-9.919,5.306-9.919,15.724,0,10.319,3.306,15.728,9.919,15.728C170.607,145.9,173.711,140.494,173.711,130.175Zm-13.922,0c0-6.811.8-10.315,4.007-10.315,3.307,0,4.007,3.5,4.007,10.315,0,6.711-.7,10.319-4.007,10.319C160.589,140.494,159.789,136.886,159.789,130.175Z"/><path class="cls-3" d="M186.335,149.209c-6.613,0-9.92,5.306-9.92,15.724,0,10.319,3.307,15.728,9.92,15.728,6.81,0,9.915-5.409,9.915-15.728C196.25,154.515,193.145,149.209,186.335,149.209Zm0,26.043c-3.208,0-4.008-3.607-4.008-10.319,0-6.81.8-10.315,4.008-10.315,3.3,0,4.007,3.5,4.007,10.315C190.342,171.645,189.637,175.252,186.335,175.252Z"/><path class="cls-3" d="M190.742,115.452h-2a2.889,2.889,0,0,0-2.506,1.9l-28.146,60.4c-.5,1.105.2,1.9,1.3,1.9h2a2.879,2.879,0,0,0,2.5-1.9l28.15-60.4C192.543,116.252,191.843,115.452,190.742,115.452Z"/></svg>