<svg id="Layer_1" data-name="Layer 1" xmlns="http://www.w3.org/2000/svg" viewBox="0 0 300 300"><defs><style>.cls-1{fill:#fcad22;}.cls-2{fill:#e6e6e6;}.cls-3{fill:#5e5e5e;}</style></defs><path class="cls-1" d="M151.905,289.038a141.212,141.212,0,0,1-19.01-1.286l2.276-16.73a124.4,124.4,0,0,0,16.734,1.13,122.428,122.428,0,0,0,0-244.855l-1.4.009-.14-16.887,1.538-.008c76.818,0,139.314,62.5,139.314,139.313S228.723,289.038,151.905,289.038Z"/><path class="cls-2" d="M128.957,270.021c-.487-.093-.96-.217-1.444-.314l-3.165,16.587,2.9.554,3.164-16.588C129.929,270.173,129.444,270.114,128.957,270.021Z"/><path class="cls-2" d="M121.449,268.343c-.48-.124-.945-.277-1.422-.405l-4.2,16.356,2.863.735,4.2-16.356C122.409,268.556,121.929,268.466,121.449,268.343Z"/><path class="cls-2" d="M114.061,266.2c-.472-.153-.926-.335-1.394-.492l-5.218,16.06,2.81.913,5.219-16.06C115.006,266.469,114.532,266.35,114.061,266.2Z"/><path class="cls-2" d="M106.822,263.59c-.461-.182-.9-.392-1.36-.579l-6.216,15.7,2.747,1.087,6.217-15.7C107.748,263.922,107.283,263.773,106.822,263.59Z"/><path class="cls-2" d="M99.761,260.535c-.448-.211-.876-.448-1.321-.664L91.25,275.15l2.674,1.259,7.19-15.28C100.665,260.924,100.21,260.746,99.761,260.535Z"/><path class="cls-2" d="M92.906,257.042c-.434-.239-.846-.5-1.276-.745L83.5,271.1l2.589,1.423,8.135-14.8C93.784,257.487,93.341,257.281,92.906,257.042Z"/><path class="cls-2" d="M86.284,253.126c-.418-.266-.813-.555-1.227-.824L76.009,266.56l2.5,1.583,9.048-14.258C87.132,253.625,86.7,253.391,86.284,253.126Z"/><path class="cls-2" d="M79.921,248.8c-.4-.291-.777-.6-1.173-.9l-9.925,13.661,2.39,1.738,9.926-13.662C80.736,249.353,80.322,249.093,79.921,248.8Z"/><path class="cls-2" d="M73.842,244.086c-.382-.316-.737-.652-1.114-.971L61.964,256.126l2.277,1.884L75.005,245C74.621,244.687,74.224,244.4,73.842,244.086Z"/><path class="cls-2" d="M68.071,239c-.361-.339-.694-.7-1.051-1.039L55.46,250.268l2.155,2.023,11.559-12.309C68.81,239.648,68.433,239.337,68.071,239Z"/><path class="cls-2" d="M62.631,233.558c-.339-.361-.65-.739-.984-1.1l-12.309,11.56,2.023,2.154,12.309-11.56C63.328,234.252,62.97,233.919,62.631,233.558Z"/><path class="cls-2" d="M57.543,227.787c-.316-.382-.6-.778-.912-1.163L43.619,237.388l1.884,2.277L58.514,228.9C58.2,228.524,57.859,228.169,57.543,227.787Z"/><path class="cls-2" d="M52.828,221.708c-.292-.4-.552-.814-.838-1.218l-13.662,9.926,1.738,2.391,13.661-9.926C53.432,222.485,53.119,222.109,52.828,221.708Z"/><path class="cls-2" d="M48.5,215.345c-.265-.418-.5-.848-.759-1.268l-14.258,9.048,1.583,2.5,14.259-9.048C49.058,216.158,48.769,215.763,48.5,215.345Z"/><path class="cls-2" d="M44.587,208.723c-.238-.434-.445-.878-.678-1.313l-14.8,8.135,1.424,2.589L45.333,210C45.089,209.569,44.826,209.157,44.587,208.723Z"/><path class="cls-2" d="M41.094,201.868c-.211-.448-.389-.9-.594-1.353l-15.28,7.19,1.259,2.674,15.279-7.19C41.542,202.744,41.306,202.316,41.094,201.868Z"/><path class="cls-2" d="M38.039,194.807c-.182-.46-.332-.926-.508-1.387l-15.7,6.216,1.088,2.747,15.7-6.216C38.431,195.709,38.221,195.268,38.039,194.807Z"/><path class="cls-2" d="M35.433,187.568c-.153-.471-.273-.945-.421-1.416l-16.06,5.218.914,2.81,16.06-5.218C35.768,188.494,35.586,188.04,35.433,187.568Z"/><path class="cls-2" d="M33.287,180.181c-.124-.48-.214-.961-.331-1.441l-16.356,4.2.735,2.863,16.356-4.2C33.563,181.125,33.41,180.661,33.287,180.181Z"/><path class="cls-2" d="M31.608,172.672c-.093-.486-.152-.971-.239-1.458l-16.588,3.164.554,2.9,16.588-3.164C31.825,173.632,31.7,173.159,31.608,172.672Z"/><path class="cls-2" d="M30.405,165.074c-.063-.492-.091-.98-.148-1.471L13.5,165.719l.37,2.932,16.754-2.116C30.56,166.045,30.467,165.565,30.405,165.074Z"/><path class="cls-2" d="M29.681,157.415c-.031-.5-.03-.984-.055-1.478L12.773,157l.185,2.95,16.853-1.06C29.775,158.394,29.712,157.909,29.681,157.415Z"/><path class="cls-2" d="M29.439,149.725c0-.5.033-.984.038-1.478H12.59V151.2H29.477C29.472,150.708,29.439,150.22,29.439,149.725Z"/><path class="cls-2" d="M29.681,142.035c.031-.5.094-.979.13-1.472L12.958,139.5l-.185,2.949,16.853,1.06C29.651,143.018,29.65,142.53,29.681,142.035Z"/><path class="cls-2" d="M30.405,134.376c.062-.492.155-.972.223-1.461L13.874,130.8l-.37,2.932,16.753,2.116C30.314,135.355,30.342,134.867,30.405,134.376Z"/><path class="cls-2" d="M31.608,126.777c.093-.487.217-.96.315-1.444l-16.588-3.164-.554,2.9,16.588,3.164C31.456,127.749,31.515,127.264,31.608,126.777Z"/><path class="cls-2" d="M33.287,119.269c.123-.48.276-.945.4-1.422l-16.356-4.2L16.6,116.51l16.356,4.2C33.073,120.229,33.163,119.749,33.287,119.269Z"/><path class="cls-2" d="M35.433,111.881c.153-.472.335-.925.493-1.394l-16.06-5.218-.914,2.811,16.06,5.218C35.16,112.826,35.28,112.352,35.433,111.881Z"/><path class="cls-2" d="M38.039,104.642c.182-.461.392-.9.58-1.36l-15.7-6.216L21.83,99.814l15.7,6.216C37.707,105.568,37.857,105.1,38.039,104.642Z"/><path class="cls-2" d="M41.094,97.581c.212-.448.448-.875.664-1.32l-15.279-7.19L25.22,91.745l15.28,7.19C40.705,98.485,40.883,98.03,41.094,97.581Z"/><path class="cls-2" d="M44.587,90.727c.239-.435.5-.846.746-1.277l-14.8-8.135-1.424,2.59,14.8,8.135C44.142,91.6,44.349,91.161,44.587,90.727Z"/><path class="cls-2" d="M48.5,84.105c.266-.419.555-.813.825-1.228L35.069,73.829l-1.583,2.5,14.258,9.048C48,84.952,48.238,84.523,48.5,84.105Z"/><path class="cls-2" d="M52.828,77.741c.291-.4.6-.776.9-1.173L40.066,66.643l-1.738,2.39L51.99,78.959C52.276,78.556,52.536,78.142,52.828,77.741Z"/><path class="cls-2" d="M57.543,71.662c.316-.381.652-.736.971-1.114L45.5,59.784l-1.884,2.277L56.631,72.825C56.942,72.441,57.227,72.044,57.543,71.662Z"/><path class="cls-2" d="M62.631,65.891c.339-.361.7-.694,1.039-1.05L51.361,53.281l-2.023,2.154L61.647,66.994C61.981,66.631,62.292,66.253,62.631,65.891Z"/><path class="cls-2" d="M68.071,60.451c.362-.339.739-.649,1.1-.983L57.615,47.158,55.46,49.181l11.56,12.31C67.377,61.148,67.71,60.791,68.071,60.451Z"/><path class="cls-2" d="M73.842,55.363c.382-.315.779-.6,1.163-.912L64.241,41.44l-2.277,1.883L72.728,56.335C73.105,56.016,73.46,55.68,73.842,55.363Z"/><path class="cls-2" d="M79.921,50.648c.4-.291.815-.552,1.218-.837L71.213,36.149l-2.39,1.737,9.925,13.661C79.144,51.252,79.52,50.94,79.921,50.648Z"/><path class="cls-2" d="M86.284,46.324c.418-.266.848-.5,1.268-.76L78.5,31.306l-2.5,1.584,9.048,14.258C85.471,46.878,85.866,46.59,86.284,46.324Z"/><path class="cls-2" d="M92.906,42.408c.435-.239.878-.446,1.313-.679l-8.135-14.8L83.5,28.355l8.135,14.8C92.06,42.91,92.472,42.646,92.906,42.408Z"/><path class="cls-2" d="M99.761,38.915c.449-.211.9-.39,1.353-.595l-7.19-15.279L91.25,24.3l7.19,15.279C98.885,39.363,99.313,39.126,99.761,38.915Z"/><path class="cls-2" d="M106.822,35.859c.461-.182.926-.331,1.388-.508l-6.217-15.7-2.747,1.088,6.216,15.7C105.92,36.252,106.361,36.042,106.822,35.859Z"/><path class="cls-2" d="M114.061,33.253c.471-.153.945-.273,1.417-.42l-5.219-16.06-2.81.913,5.218,16.06C113.135,33.588,113.589,33.406,114.061,33.253Z"/><path class="cls-2" d="M121.449,31.107c.48-.124.96-.213,1.44-.331l-4.2-16.356-2.863.735,4.2,16.356C120.5,31.383,120.969,31.23,121.449,31.107Z"/><path class="cls-2" d="M128.957,29.429c.487-.093.972-.153,1.458-.24L127.251,12.6l-2.9.554,3.165,16.587C128,29.645,128.47,29.522,128.957,29.429Z"/><path class="cls-2" d="M136.555,28.225c.492-.062.98-.091,1.471-.147L135.91,11.324l-2.932.371,2.116,16.753C135.584,28.38,136.064,28.287,136.555,28.225Z"/><path class="cls-2" d="M144.215,27.5c.494-.031.983-.029,1.477-.055l-1.06-16.853-2.95.186,1.06,16.853C143.236,27.6,143.72,27.532,144.215,27.5Z"/><path class="cls-3" d="M116.883,137.991a8.4,8.4,0,0,0-5.211,1.9V121.863H125.3a1.842,1.842,0,0,0,1.9-1.9v-2.606a1.839,1.839,0,0,0-1.9-1.9H106.564a1.842,1.842,0,0,0-1.9,1.9v33.258a2.2,2.2,0,0,0,2.408,2.4h1.7c1.4,0,1.8-1.1,1.8-3.005,0-3.2,1.4-6.011,4.807-6.011,3.706,0,5.512,2.606,5.512,15.126,0,12.624-2.305,14.924-5.611,14.924-5.611,0-5.009-6.109-4.807-9.214.1-2.1-.5-3.306-2-3.306h-2.4a2.372,2.372,0,0,0-2.507,2.7c0,10.319,2.606,16.029,12.022,16.029,8.814,0,12.121-6.514,12.121-21.137S124.6,137.991,116.883,137.991Z"/><path class="cls-3" d="M143.635,114.851c-8.015,0-12.323,3.805-12.323,16.025a2.373,2.373,0,0,0,2.507,2.7h2.4c1.5,0,2.1-1.2,2-3.3-.3-4.91.4-9.115,5.108-9.115,3.805,0,5.71,2.5,5.71,9.914,0,13.923-10.719,25.442-17.229,41.17a7.8,7.8,0,0,0-.6,3.207v2.4a1.733,1.733,0,0,0,1.8,1.8h20.638a1.839,1.839,0,0,0,1.9-1.9v-2.6a1.839,1.839,0,0,0-1.9-1.9H138.527c5.508-14.125,17.727-26.946,17.727-41.17C156.254,119.86,151.748,114.851,143.635,114.851Z"/><path class="cls-3" d="M179.3,130.175c0-10.418-3.1-15.724-9.915-15.724-6.613,0-9.919,5.306-9.919,15.724,0,10.319,3.306,15.728,9.919,15.728C176.2,145.9,179.3,140.494,179.3,130.175Zm-13.922,0c0-6.811.8-10.315,4.007-10.315,3.307,0,4.007,3.5,4.007,10.315,0,6.711-.7,10.319-4.007,10.319C166.178,140.494,165.378,136.886,165.378,130.175Z"/><path class="cls-3" d="M196.331,115.452h-2a2.887,2.887,0,0,0-2.506,1.9l-28.146,60.4c-.5,1.105.2,1.9,1.3,1.9h2a2.879,2.879,0,0,0,2.5-1.9l28.15-60.4C198.132,116.252,197.432,115.452,196.331,115.452Z"/><path class="cls-3" d="M191.924,149.209c-6.613,0-9.92,5.306-9.92,15.724,0,10.319,3.307,15.728,9.92,15.728,6.81,0,9.915-5.409,9.915-15.728C201.839,154.515,198.734,149.209,191.924,149.209Zm0,26.043c-3.208,0-4.008-3.607-4.008-10.319,0-6.81.8-10.315,4.008-10.315,3.3,0,4.007,3.5,4.007,10.315C195.931,171.645,195.226,175.252,191.924,175.252Z"/></svg>