<svg id="Layer_1" data-name="Layer 1" xmlns="http://www.w3.org/2000/svg" viewBox="0 0 300 300"><defs><style>.cls-1{fill:#fcad22;}.cls-2{fill:#e6e6e6;}.cls-3{fill:#5e5e5e;}</style></defs><path class="cls-1" d="M152.535,289.038a140.472,140.472,0,0,1-27.643-2.741l3.331-16.557A122.439,122.439,0,1,0,152.535,27.3l-1.406.009-.14-16.887,1.546-.008c76.818,0,139.313,62.5,139.313,139.313S229.353,289.038,152.535,289.038Z"/><path class="cls-2" d="M122.078,268.343c-.48-.124-.944-.277-1.421-.405l-4.2,16.356,2.863.735,4.2-16.356C123.039,268.556,122.558,268.466,122.078,268.343Z"/><path class="cls-2" d="M114.691,266.2c-.472-.153-.926-.335-1.394-.492l-5.218,16.06,2.81.913,5.218-16.06C115.636,266.469,115.162,266.35,114.691,266.2Z"/><path class="cls-2" d="M107.452,263.59c-.461-.182-.9-.392-1.36-.579l-6.216,15.7,2.747,1.087,6.217-15.7C108.378,263.922,107.913,263.773,107.452,263.59Z"/><path class="cls-2" d="M100.391,260.535c-.448-.211-.875-.448-1.32-.664l-7.19,15.279,2.673,1.259,7.191-15.28C101.3,260.924,100.84,260.746,100.391,260.535Z"/><path class="cls-2" d="M93.536,257.042c-.434-.239-.846-.5-1.276-.745l-8.135,14.8,2.589,1.423,8.135-14.8C94.414,257.487,93.97,257.281,93.536,257.042Z"/><path class="cls-2" d="M86.914,253.126c-.418-.266-.813-.555-1.227-.824L76.639,266.56l2.5,1.583,9.048-14.258C87.762,253.625,87.333,253.391,86.914,253.126Z"/><path class="cls-2" d="M80.551,248.8c-.4-.291-.776-.6-1.173-.9l-9.926,13.661,2.391,1.738,9.926-13.662C81.366,249.353,80.952,249.093,80.551,248.8Z"/><path class="cls-2" d="M74.472,244.086c-.382-.316-.737-.652-1.114-.971L62.594,256.126l2.277,1.884L75.635,245C75.25,244.687,74.854,244.4,74.472,244.086Z"/><path class="cls-2" d="M68.7,239c-.361-.339-.694-.7-1.051-1.039L56.091,250.268l2.154,2.023L69.8,239.982C69.44,239.648,69.062,239.337,68.7,239Z"/><path class="cls-2" d="M63.261,233.558c-.339-.361-.649-.739-.984-1.1l-12.309,11.56,2.023,2.154L64.3,234.609C63.958,234.252,63.6,233.919,63.261,233.558Z"/><path class="cls-2" d="M58.173,227.787c-.316-.382-.6-.778-.912-1.163L44.249,237.388l1.884,2.277L59.144,228.9C58.825,228.524,58.489,228.169,58.173,227.787Z"/><path class="cls-2" d="M53.458,221.708c-.291-.4-.552-.814-.838-1.218l-13.661,9.926,1.737,2.391,13.661-9.926C54.062,222.485,53.749,222.109,53.458,221.708Z"/><path class="cls-2" d="M49.133,215.345c-.265-.418-.5-.848-.759-1.268l-14.258,9.048,1.584,2.5,14.257-9.048C49.688,216.158,49.4,215.763,49.133,215.345Z"/><path class="cls-2" d="M45.217,208.723c-.239-.434-.445-.878-.678-1.313l-14.8,8.135,1.424,2.589L45.962,210C45.719,209.569,45.456,209.157,45.217,208.723Z"/><path class="cls-2" d="M41.724,201.868c-.211-.448-.389-.9-.594-1.353l-15.279,7.19,1.258,2.674,15.279-7.19C42.173,202.744,41.936,202.316,41.724,201.868Z"/><path class="cls-2" d="M38.669,194.807c-.182-.46-.332-.926-.509-1.387l-15.7,6.216,1.088,2.747,15.7-6.216C39.061,195.709,38.852,195.268,38.669,194.807Z"/><path class="cls-2" d="M36.063,187.568c-.153-.471-.273-.945-.42-1.416l-16.06,5.218.913,2.81,16.06-5.218C36.4,188.494,36.216,188.04,36.063,187.568Z"/><path class="cls-2" d="M33.916,180.181c-.123-.48-.212-.961-.33-1.441l-16.356,4.2.735,2.863,16.356-4.2C34.193,181.125,34.04,180.661,33.916,180.181Z"/><path class="cls-2" d="M32.238,172.672c-.092-.486-.152-.971-.239-1.458l-16.588,3.164.554,2.9,16.587-3.164C32.454,173.632,32.331,173.159,32.238,172.672Z"/><path class="cls-2" d="M31.035,165.074c-.062-.492-.091-.98-.148-1.471l-16.753,2.116.371,2.932,16.753-2.116C31.19,166.045,31.1,165.565,31.035,165.074Z"/><path class="cls-2" d="M30.311,157.415c-.031-.5-.029-.984-.055-1.478L13.4,157l.185,2.95,16.854-1.06C30.405,158.394,30.342,157.909,30.311,157.415Z"/><path class="cls-2" d="M30.069,149.725c0-.5.033-.984.038-1.478H13.221V151.2H30.107C30.1,150.708,30.069,150.22,30.069,149.725Z"/><path class="cls-2" d="M30.311,142.035c.031-.5.094-.979.131-1.472L13.588,139.5l-.185,2.949,16.853,1.06C30.282,143.018,30.28,142.53,30.311,142.035Z"/><path class="cls-2" d="M31.035,134.376c.062-.492.155-.972.223-1.461L14.505,130.8l-.371,2.932,16.753,2.116C30.944,135.355,30.973,134.867,31.035,134.376Z"/><path class="cls-2" d="M32.238,126.777c.093-.487.216-.96.314-1.444l-16.587-3.164-.554,2.9L32,128.235C32.086,127.749,32.146,127.264,32.238,126.777Z"/><path class="cls-2" d="M33.916,119.269c.124-.48.277-.945.405-1.422l-16.356-4.2-.735,2.862,16.356,4.2C33.7,120.229,33.793,119.749,33.916,119.269Z"/><path class="cls-2" d="M36.063,111.881c.153-.472.335-.925.493-1.394L20.5,105.269l-.913,2.811,16.06,5.218C35.79,112.826,35.91,112.352,36.063,111.881Z"/><path class="cls-2" d="M38.669,104.642c.183-.461.392-.9.579-1.36l-15.7-6.216L22.46,99.814l15.7,6.216C38.337,105.568,38.487,105.1,38.669,104.642Z"/><path class="cls-2" d="M41.724,97.581c.212-.448.449-.875.664-1.32l-15.279-7.19-1.258,2.674,15.279,7.19C41.335,98.485,41.513,98.03,41.724,97.581Z"/><path class="cls-2" d="M45.217,90.727c.239-.435.5-.846.745-1.277l-14.8-8.135-1.424,2.59,14.8,8.135C44.772,91.6,44.978,91.161,45.217,90.727Z"/><path class="cls-2" d="M49.133,84.105c.266-.419.555-.813.824-1.228L35.7,73.829l-1.584,2.5,14.258,9.048C48.634,84.952,48.868,84.523,49.133,84.105Z"/><path class="cls-2" d="M53.458,77.741c.291-.4.6-.776.9-1.173L40.7,66.643l-1.737,2.39L52.62,78.959C52.906,78.556,53.167,78.142,53.458,77.741Z"/><path class="cls-2" d="M58.173,71.662c.316-.381.652-.736.971-1.114L46.133,59.784l-1.884,2.277L57.261,72.825C57.572,72.441,57.857,72.044,58.173,71.662Z"/><path class="cls-2" d="M63.261,65.891c.339-.361.7-.694,1.039-1.05L51.991,53.281l-2.023,2.154L62.277,66.994C62.612,66.631,62.922,66.253,63.261,65.891Z"/><path class="cls-2" d="M68.7,60.451c.361-.339.739-.649,1.1-.983L58.245,47.158l-2.154,2.023L67.65,61.491C68.007,61.148,68.34,60.791,68.7,60.451Z"/><path class="cls-2" d="M74.472,55.363c.382-.315.778-.6,1.163-.912L64.871,41.44l-2.277,1.883L73.358,56.335C73.735,56.016,74.09,55.68,74.472,55.363Z"/><path class="cls-2" d="M80.551,50.648c.4-.291.815-.552,1.218-.837L71.843,36.149l-2.391,1.737,9.926,13.661C79.775,51.252,80.15,50.94,80.551,50.648Z"/><path class="cls-2" d="M86.914,46.324c.419-.266.848-.5,1.268-.76L79.134,31.306l-2.5,1.584,9.048,14.258C86.1,46.878,86.5,46.59,86.914,46.324Z"/><path class="cls-2" d="M93.536,42.408c.434-.239.878-.446,1.313-.679l-8.135-14.8-2.589,1.424,8.135,14.8C92.69,42.91,93.1,42.646,93.536,42.408Z"/><path class="cls-2" d="M100.391,38.915c.449-.211.9-.39,1.354-.595L94.554,23.041,91.881,24.3l7.19,15.279C99.516,39.363,99.943,39.126,100.391,38.915Z"/><path class="cls-2" d="M107.452,35.859c.461-.182.926-.331,1.388-.508l-6.217-15.7-2.747,1.088,6.216,15.7C106.55,36.252,106.991,36.042,107.452,35.859Z"/><path class="cls-2" d="M114.691,33.253c.471-.153.945-.273,1.416-.42l-5.218-16.06-2.81.913,5.218,16.06C113.765,33.588,114.219,33.406,114.691,33.253Z"/><path class="cls-2" d="M122.078,31.107c.48-.124.961-.213,1.441-.331l-4.2-16.356-2.863.735,4.2,16.356C121.134,31.383,121.6,31.23,122.078,31.107Z"/><path class="cls-2" d="M129.587,29.429c.486-.093.972-.153,1.458-.24L127.881,12.6l-2.9.554,3.164,16.587C128.627,29.645,129.1,29.522,129.587,29.429Z"/><path class="cls-2" d="M137.186,28.225c.491-.062.979-.091,1.47-.147L136.54,11.324l-2.932.371,2.116,16.753C136.214,28.38,136.694,28.287,137.186,28.225Z"/><path class="cls-2" d="M144.845,27.5c.494-.031.983-.029,1.477-.055l-1.06-16.853-2.95.186,1.06,16.853C143.865,27.6,144.35,27.532,144.845,27.5Z"/><path class="cls-3" d="M117.063,137.991a8.4,8.4,0,0,0-5.211,1.9V121.863h13.625a1.842,1.842,0,0,0,1.9-1.9v-2.606a1.839,1.839,0,0,0-1.9-1.9H106.744a1.842,1.842,0,0,0-1.905,1.9v33.258a2.2,2.2,0,0,0,2.408,2.4h1.7c1.4,0,1.8-1.1,1.8-3.005,0-3.2,1.4-6.011,4.807-6.011,3.706,0,5.512,2.606,5.512,15.126,0,12.624-2.3,14.924-5.611,14.924-5.611,0-5.009-6.109-4.807-9.214.1-2.1-.5-3.306-2-3.306h-2.4a2.372,2.372,0,0,0-2.507,2.7c0,10.319,2.606,16.029,12.022,16.029,8.814,0,12.121-6.514,12.121-21.137S124.777,137.991,117.063,137.991Z"/><path class="cls-3" d="M151.026,146.4c2.906-2.2,4.909-6.51,4.909-14.121,0-12.421-4.609-17.43-12.12-17.43-8.015,0-12.022,3.805-12.022,16.025a2.373,2.373,0,0,0,2.507,2.7h2.4c1.5,0,2.1-1.2,2-3.3-.3-4.91.4-9.115,4.807-9.115,3.006,0,5.211,1.5,5.211,11.118,0,10.118-1.9,11.416-4.708,11.416H141.21a1.842,1.842,0,0,0-1.9,1.905v2.1a1.84,1.84,0,0,0,1.9,1.905h2.807c3.1,0,5.409,1.3,5.409,12.318s-2.206,12.022-5.71,12.022c-4.407,0-5.31-4.308-5.009-10.216.1-2.1-.5-3.306-2-3.306h-2.4a2.373,2.373,0,0,0-2.507,2.7c0,13.222,4.007,17.13,12.022,17.13,7.511,0,12.822-4.407,12.822-18.334C156.637,153.414,154.431,148.706,151.026,146.4Z"/><path class="cls-3" d="M180.383,130.175c0-10.418-3.1-15.724-9.915-15.724-6.613,0-9.919,5.306-9.919,15.724,0,10.319,3.306,15.728,9.919,15.728C177.279,145.9,180.383,140.494,180.383,130.175Zm-13.922,0c0-6.811.8-10.315,4.007-10.315,3.306,0,4.007,3.5,4.007,10.315,0,6.711-.7,10.319-4.007,10.319C167.261,140.494,166.461,136.886,166.461,130.175Z"/><path class="cls-3" d="M193.007,149.209c-6.613,0-9.919,5.306-9.919,15.724,0,10.319,3.306,15.728,9.919,15.728,6.811,0,9.915-5.409,9.915-15.728C202.922,154.515,199.818,149.209,193.007,149.209Zm0,26.043c-3.208,0-4.007-3.607-4.007-10.319,0-6.81.8-10.315,4.007-10.315,3.3,0,4.007,3.5,4.007,10.315C197.014,171.645,196.309,175.252,193.007,175.252Z"/><path class="cls-3" d="M197.414,115.452h-2a2.886,2.886,0,0,0-2.506,1.9l-28.146,60.4c-.5,1.105.2,1.9,1.3,1.9h2a2.879,2.879,0,0,0,2.5-1.9l28.15-60.4C199.216,116.252,198.515,115.452,197.414,115.452Z"/></svg>