<svg id="Layer_1" data-name="Layer 1" xmlns="http://www.w3.org/2000/svg" viewBox="0 0 300 300"><defs><style>.cls-1{fill:#fcad22;}.cls-2{fill:#e6e6e6;}.cls-3{fill:#5e5e5e;}</style></defs><path class="cls-1" d="M153.164,289.038A139.58,139.58,0,0,1,117,284.293l4.37-16.309A122.442,122.442,0,1,0,153.164,27.3l-1.406.009-.14-16.887,1.546-.008c76.818,0,139.314,62.5,139.314,139.313S229.982,289.038,153.164,289.038Z"/><path class="cls-2" d="M115.321,266.2c-.472-.153-.925-.335-1.394-.492l-5.218,16.06,2.811.913,5.218-16.06C116.266,266.469,115.792,266.35,115.321,266.2Z"/><path class="cls-2" d="M108.082,263.59c-.461-.182-.9-.392-1.36-.579l-6.216,15.7,2.748,1.087,6.216-15.7C109.008,263.922,108.543,263.773,108.082,263.59Z"/><path class="cls-2" d="M101.021,260.535c-.448-.211-.875-.448-1.32-.664l-7.19,15.279,2.674,1.259,7.19-15.28C101.925,260.924,101.47,260.746,101.021,260.535Z"/><path class="cls-2" d="M94.167,257.042c-.435-.239-.846-.5-1.277-.745l-8.135,14.8,2.59,1.423,8.135-14.8C95.044,257.487,94.6,257.281,94.167,257.042Z"/><path class="cls-2" d="M87.545,253.126c-.419-.266-.813-.555-1.228-.824L77.269,266.56l2.495,1.583,9.048-14.258C88.392,253.625,87.963,253.391,87.545,253.126Z"/><path class="cls-2" d="M81.181,248.8c-.4-.291-.776-.6-1.173-.9l-9.925,13.661,2.39,1.738L82.4,249.639C82,249.353,81.582,249.093,81.181,248.8Z"/><path class="cls-2" d="M75.1,244.086c-.381-.316-.736-.652-1.114-.971L63.224,256.126,65.5,258.01,76.265,245C75.881,244.687,75.484,244.4,75.1,244.086Z"/><path class="cls-2" d="M69.331,239c-.361-.339-.694-.7-1.05-1.039l-11.56,12.309,2.154,2.023,11.559-12.309C70.07,239.648,69.693,239.337,69.331,239Z"/><path class="cls-2" d="M63.891,233.558c-.339-.361-.649-.739-.983-1.1L50.6,244.015l2.023,2.154,12.31-11.56C64.588,234.252,64.231,233.919,63.891,233.558Z"/><path class="cls-2" d="M58.8,227.787c-.315-.382-.6-.778-.912-1.163L44.88,237.388l1.883,2.277L59.775,228.9C59.456,228.524,59.12,228.169,58.8,227.787Z"/><path class="cls-2" d="M54.088,221.708c-.291-.4-.552-.814-.837-1.218l-13.662,9.926,1.737,2.391,13.661-9.926C54.692,222.485,54.38,222.109,54.088,221.708Z"/><path class="cls-2" d="M49.764,215.345c-.266-.418-.5-.848-.76-1.268l-14.258,9.048,1.584,2.5,14.258-9.048C50.318,216.158,50.03,215.763,49.764,215.345Z"/><path class="cls-2" d="M45.848,208.723c-.239-.434-.446-.878-.679-1.313l-14.8,8.135,1.424,2.589L46.593,210C46.35,209.569,46.086,209.157,45.848,208.723Z"/><path class="cls-2" d="M42.355,201.868c-.211-.448-.39-.9-.595-1.353l-15.279,7.19,1.258,2.674,15.279-7.19C42.8,202.744,42.566,202.316,42.355,201.868Z"/><path class="cls-2" d="M39.3,194.807c-.182-.46-.331-.926-.508-1.387l-15.7,6.216,1.088,2.747,15.7-6.216C39.692,195.709,39.482,195.268,39.3,194.807Z"/><path class="cls-2" d="M36.693,187.568c-.153-.471-.273-.945-.42-1.416l-16.06,5.218.913,2.81,16.06-5.218C37.028,188.494,36.846,188.04,36.693,187.568Z"/><path class="cls-2" d="M34.547,180.181c-.124-.48-.213-.961-.331-1.441l-16.356,4.2L18.6,185.8l16.356-4.2C34.823,181.125,34.67,180.661,34.547,180.181Z"/><path class="cls-2" d="M32.869,172.672c-.093-.486-.153-.971-.24-1.458l-16.587,3.164.554,2.9,16.587-3.164C33.085,173.632,32.962,173.159,32.869,172.672Z"/><path class="cls-2" d="M31.665,165.074c-.062-.492-.091-.98-.147-1.471l-16.754,2.116.371,2.932,16.753-2.116C31.82,166.045,31.727,165.565,31.665,165.074Z"/><path class="cls-2" d="M30.941,157.415c-.031-.5-.029-.984-.055-1.478L14.033,157l.186,2.95,16.853-1.06C31.035,158.394,30.972,157.909,30.941,157.415Z"/><path class="cls-2" d="M30.7,149.725c0-.5.032-.984.038-1.478H13.851V151.2H30.738C30.732,150.708,30.7,150.22,30.7,149.725Z"/><path class="cls-2" d="M30.941,142.035c.031-.5.094-.979.131-1.472L14.219,139.5l-.186,2.949,16.853,1.06C30.912,143.018,30.91,142.53,30.941,142.035Z"/><path class="cls-2" d="M31.665,134.376c.062-.492.155-.972.223-1.461L15.135,130.8l-.371,2.932,16.754,2.116C31.574,135.355,31.6,134.867,31.665,134.376Z"/><path class="cls-2" d="M32.869,126.777c.093-.487.216-.96.314-1.444L16.6,122.169l-.554,2.9,16.587,3.164C32.716,127.749,32.776,127.264,32.869,126.777Z"/><path class="cls-2" d="M34.547,119.269c.123-.48.276-.945.4-1.422l-16.356-4.2-.735,2.862,16.356,4.2C34.334,120.229,34.423,119.749,34.547,119.269Z"/><path class="cls-2" d="M36.693,111.881c.153-.472.335-.925.493-1.394l-16.06-5.218-.913,2.811,16.06,5.218C36.42,112.826,36.54,112.352,36.693,111.881Z"/><path class="cls-2" d="M39.3,104.642c.183-.461.393-.9.58-1.36l-15.7-6.216L23.09,99.814l15.7,6.216C38.968,105.568,39.117,105.1,39.3,104.642Z"/><path class="cls-2" d="M42.355,97.581c.211-.448.448-.875.663-1.32l-15.279-7.19-1.258,2.674,15.279,7.19C41.965,98.485,42.144,98.03,42.355,97.581Z"/><path class="cls-2" d="M45.848,90.727c.238-.435.5-.846.745-1.277L31.8,81.315l-1.424,2.59,14.8,8.135C45.4,91.6,45.609,91.161,45.848,90.727Z"/><path class="cls-2" d="M49.764,84.105c.266-.419.554-.813.824-1.228L36.33,73.829l-1.584,2.5L49,85.372C49.265,84.952,49.5,84.523,49.764,84.105Z"/><path class="cls-2" d="M54.088,77.741c.292-.4.6-.776.9-1.173L41.326,66.643l-1.737,2.39,13.662,9.926C53.536,78.556,53.8,78.142,54.088,77.741Z"/><path class="cls-2" d="M58.8,71.662c.317-.381.653-.736.972-1.114L46.763,59.784,44.88,62.061,57.891,72.825C58.2,72.441,58.488,72.044,58.8,71.662Z"/><path class="cls-2" d="M63.891,65.891c.34-.361.7-.694,1.04-1.05l-12.31-11.56L50.6,55.435l12.31,11.559C63.242,66.631,63.552,66.253,63.891,65.891Z"/><path class="cls-2" d="M69.331,60.451c.362-.339.739-.649,1.1-.983L58.875,47.158l-2.154,2.023,11.56,12.31C68.637,61.148,68.97,60.791,69.331,60.451Z"/><path class="cls-2" d="M75.1,55.363c.382-.315.779-.6,1.163-.912L65.5,41.44l-2.277,1.883L73.988,56.335C74.366,56.016,74.721,55.68,75.1,55.363Z"/><path class="cls-2" d="M81.181,50.648c.4-.291.815-.552,1.218-.837L72.473,36.149l-2.39,1.737,9.925,13.661C80.405,51.252,80.78,50.94,81.181,50.648Z"/><path class="cls-2" d="M87.545,46.324c.418-.266.847-.5,1.267-.76L79.764,31.306,77.269,32.89l9.048,14.258C86.732,46.878,87.126,46.59,87.545,46.324Z"/><path class="cls-2" d="M94.167,42.408c.434-.239.877-.446,1.313-.679l-8.135-14.8-2.59,1.424,8.135,14.8C93.321,42.91,93.732,42.646,94.167,42.408Z"/><path class="cls-2" d="M101.021,38.915c.449-.211.9-.39,1.354-.595l-7.19-15.279L92.511,24.3,99.7,39.578C100.146,39.363,100.573,39.126,101.021,38.915Z"/><path class="cls-2" d="M108.082,35.859c.461-.182.926-.331,1.388-.508l-6.216-15.7-2.748,1.088,6.216,15.7C107.18,36.252,107.621,36.042,108.082,35.859Z"/><path class="cls-2" d="M115.321,33.253c.471-.153.945-.273,1.417-.42l-5.218-16.06-2.811.913,5.218,16.06C114.4,33.588,114.849,33.406,115.321,33.253Z"/><path class="cls-2" d="M122.709,31.107c.48-.124.961-.213,1.441-.331l-4.2-16.356-2.862.735,4.2,16.356C121.764,31.383,122.229,31.23,122.709,31.107Z"/><path class="cls-2" d="M130.217,29.429c.487-.093.972-.153,1.458-.24L128.511,12.6l-2.9.554,3.164,16.587C129.257,29.645,129.73,29.522,130.217,29.429Z"/><path class="cls-2" d="M137.816,28.225c.491-.062.979-.091,1.471-.147L137.17,11.324l-2.932.371,2.117,16.753C136.844,28.38,137.324,28.287,137.816,28.225Z"/><path class="cls-2" d="M145.475,27.5c.494-.031.983-.029,1.477-.055l-1.06-16.853-2.949.186L144,27.632C144.5,27.6,144.98,27.532,145.475,27.5Z"/><path class="cls-3" d="M118,137.991a8.4,8.4,0,0,0-5.211,1.9V121.863h13.626a1.842,1.842,0,0,0,1.9-1.9v-2.606a1.839,1.839,0,0,0-1.9-1.9H107.679a1.842,1.842,0,0,0-1.905,1.9v33.258a2.2,2.2,0,0,0,2.407,2.4h1.7c1.4,0,1.8-1.1,1.8-3.005,0-3.2,1.4-6.011,4.807-6.011,3.706,0,5.512,2.606,5.512,15.126,0,12.624-2.3,14.924-5.611,14.924-5.611,0-5.009-6.109-4.807-9.214.1-2.1-.5-3.306-2-3.306h-2.4a2.372,2.372,0,0,0-2.506,2.7c0,10.319,2.606,16.029,12.022,16.029,8.814,0,12.12-6.514,12.12-21.137S125.711,137.991,118,137.991Z"/><path class="cls-3" d="M156.969,159.124h-3.9V147.7a1.842,1.842,0,0,0-1.905-1.9h-3.207a1.839,1.839,0,0,0-1.9,1.9v11.42h-7.713l9.915-37.863a19.788,19.788,0,0,0,.8-4.007,1.735,1.735,0,0,0-1.806-1.8h-3.105a1.949,1.949,0,0,0-2,1.7l-10.216,40.968a17.9,17.9,0,0,0-.6,3.207v2.4a1.735,1.735,0,0,0,1.806,1.8h12.92v12.22a1.839,1.839,0,0,0,1.9,1.9h3.207a1.843,1.843,0,0,0,1.905-1.9v-12.22h3.9a1.842,1.842,0,0,0,1.905-1.9v-2.6A1.846,1.846,0,0,0,156.969,159.124Z"/><path class="cls-3" d="M197.747,115.452h-2a2.885,2.885,0,0,0-2.506,1.9l-28.146,60.4c-.5,1.105.2,1.9,1.3,1.9h2a2.879,2.879,0,0,0,2.5-1.9l28.149-60.4C199.548,116.252,198.848,115.452,197.747,115.452Z"/><path class="cls-3" d="M193.34,149.209c-6.613,0-9.92,5.306-9.92,15.724,0,10.319,3.307,15.728,9.92,15.728,6.81,0,9.914-5.409,9.914-15.728C203.254,154.515,200.15,149.209,193.34,149.209Zm0,26.043c-3.208,0-4.008-3.607-4.008-10.319,0-6.81.8-10.315,4.008-10.315,3.3,0,4.007,3.5,4.007,10.315C197.347,171.645,196.642,175.252,193.34,175.252Z"/><path class="cls-3" d="M180.716,130.175c0-10.418-3.105-15.724-9.915-15.724-6.613,0-9.919,5.306-9.919,15.724,0,10.319,3.306,15.728,9.919,15.728C177.611,145.9,180.716,140.494,180.716,130.175Zm-13.922,0c0-6.811.8-10.315,4.007-10.315,3.306,0,4.007,3.5,4.007,10.315,0,6.711-.7,10.319-4.007,10.319C167.594,140.494,166.794,136.886,166.794,130.175Z"/></svg>