<svg id="Layer_1" data-name="Layer 1" xmlns="http://www.w3.org/2000/svg" viewBox="0 0 300 300"><defs><style>.cls-1{fill:#fcad22;}.cls-2{fill:#e6e6e6;}.cls-3{fill:#5e5e5e;}</style></defs><path class="cls-1" d="M153.793,289.038a139.19,139.19,0,0,1-44.549-7.276l5.392-16A122.443,122.443,0,1,0,153.793,27.3l-1.405.009-.141-16.887,1.546-.008c76.818,0,139.314,62.5,139.314,139.313S230.611,289.038,153.793,289.038Z"/><path class="cls-2" d="M108.712,263.59c-.461-.182-.9-.392-1.359-.579l-6.217,15.7,2.748,1.087,6.216-15.7C109.639,263.922,109.173,263.773,108.712,263.59Z"/><path class="cls-2" d="M101.652,260.535c-.449-.211-.876-.448-1.321-.664l-7.19,15.279,2.674,1.259,7.19-15.28C102.555,260.924,102.1,260.746,101.652,260.535Z"/><path class="cls-2" d="M94.8,257.042c-.435-.239-.846-.5-1.277-.745l-8.135,14.8,2.59,1.423,8.135-14.8C95.674,257.487,95.231,257.281,94.8,257.042Z"/><path class="cls-2" d="M88.175,253.126c-.419-.266-.813-.555-1.228-.824L77.9,266.56l2.5,1.583,9.049-14.258C89.022,253.625,88.593,253.391,88.175,253.126Z"/><path class="cls-2" d="M81.811,248.8c-.4-.291-.776-.6-1.172-.9l-9.926,13.661L73.1,263.3l9.925-13.662C82.626,249.353,82.212,249.093,81.811,248.8Z"/><path class="cls-2" d="M75.733,244.086c-.383-.316-.738-.652-1.115-.971L63.854,256.126l2.277,1.884L76.9,245C76.511,244.687,76.114,244.4,75.733,244.086Z"/><path class="cls-2" d="M69.962,239c-.362-.339-.7-.7-1.052-1.039L57.351,250.268l2.154,2.023,11.56-12.309C70.7,239.648,70.323,239.337,69.962,239Z"/><path class="cls-2" d="M64.522,233.558c-.34-.361-.65-.739-.985-1.1l-12.309,11.56,2.023,2.154,12.31-11.56C65.218,234.252,64.861,233.919,64.522,233.558Z"/><path class="cls-2" d="M59.434,227.787c-.316-.382-.6-.778-.913-1.163L45.51,237.388l1.884,2.277L60.405,228.9C60.085,228.524,59.749,228.169,59.434,227.787Z"/><path class="cls-2" d="M54.718,221.708c-.291-.4-.551-.814-.837-1.218l-13.662,9.926,1.737,2.391,13.661-9.926C55.323,222.485,55.009,222.109,54.718,221.708Z"/><path class="cls-2" d="M50.394,215.345c-.266-.418-.5-.848-.76-1.268l-14.257,9.048,1.583,2.5,14.258-9.048C50.948,216.158,50.659,215.763,50.394,215.345Z"/><path class="cls-2" d="M46.477,208.723c-.238-.434-.444-.878-.678-1.313L31,215.545l1.424,2.589L47.223,210C46.98,209.569,46.716,209.157,46.477,208.723Z"/><path class="cls-2" d="M42.985,201.868c-.211-.448-.389-.9-.595-1.353l-15.279,7.19,1.258,2.674,15.28-7.19C43.433,202.744,43.2,202.316,42.985,201.868Z"/><path class="cls-2" d="M39.929,194.807c-.182-.46-.332-.926-.508-1.387l-15.7,6.216,1.088,2.747,15.7-6.216C40.321,195.709,40.112,195.268,39.929,194.807Z"/><path class="cls-2" d="M37.323,187.568c-.153-.471-.272-.945-.42-1.416l-16.06,5.218.913,2.81,16.06-5.218C37.658,188.494,37.477,188.04,37.323,187.568Z"/><path class="cls-2" d="M35.177,180.181c-.123-.48-.213-.961-.33-1.441l-16.357,4.2.735,2.863,16.356-4.2C35.453,181.125,35.3,180.661,35.177,180.181Z"/><path class="cls-2" d="M33.5,172.672c-.092-.486-.151-.971-.239-1.458l-16.587,3.164.553,2.9,16.588-3.164C33.715,173.632,33.591,173.159,33.5,172.672Z"/><path class="cls-2" d="M32.3,165.074c-.062-.492-.091-.98-.147-1.471l-16.754,2.116.371,2.932,16.753-2.116C32.451,166.045,32.357,165.565,32.3,165.074Z"/><path class="cls-2" d="M31.571,157.415c-.031-.5-.029-.984-.055-1.478L14.663,157l.186,2.95,16.853-1.06C31.665,158.394,31.6,157.909,31.571,157.415Z"/><path class="cls-2" d="M31.329,149.725c0-.5.033-.984.038-1.478H14.481V151.2H31.367C31.362,150.708,31.329,150.22,31.329,149.725Z"/><path class="cls-2" d="M31.571,142.035c.031-.5.094-.979.131-1.472L14.849,139.5l-.186,2.949,16.853,1.06C31.542,143.018,31.54,142.53,31.571,142.035Z"/><path class="cls-2" d="M32.3,134.376c.062-.492.156-.972.223-1.461L15.765,130.8l-.371,2.932,16.754,2.116C32.2,135.355,32.233,134.867,32.3,134.376Z"/><path class="cls-2" d="M33.5,126.777c.093-.487.217-.96.315-1.444l-16.588-3.164-.553,2.9,16.587,3.164C33.347,127.749,33.406,127.264,33.5,126.777Z"/><path class="cls-2" d="M35.177,119.269c.123-.48.276-.945.4-1.422l-16.356-4.2-.735,2.862,16.357,4.2C34.964,120.229,35.054,119.749,35.177,119.269Z"/><path class="cls-2" d="M37.323,111.881c.154-.472.335-.925.493-1.394l-16.06-5.218-.913,2.811L36.9,113.3C37.051,112.826,37.17,112.352,37.323,111.881Z"/><path class="cls-2" d="M39.929,104.642c.183-.461.392-.9.58-1.36l-15.7-6.216L23.72,99.814l15.7,6.216C39.6,105.568,39.747,105.1,39.929,104.642Z"/><path class="cls-2" d="M42.985,97.581c.211-.448.448-.875.664-1.32l-15.28-7.19-1.258,2.674,15.279,7.19C42.6,98.485,42.774,98.03,42.985,97.581Z"/><path class="cls-2" d="M46.477,90.727c.239-.435.5-.846.746-1.277l-14.8-8.135L31,83.905,45.8,92.04C46.033,91.6,46.239,91.161,46.477,90.727Z"/><path class="cls-2" d="M50.394,84.105c.265-.419.554-.813.824-1.228L36.96,73.829l-1.583,2.5,14.257,9.048C49.894,84.952,50.128,84.523,50.394,84.105Z"/><path class="cls-2" d="M54.718,77.741c.291-.4.6-.776.9-1.173L41.956,66.643l-1.737,2.39,13.662,9.926C54.167,78.556,54.427,78.142,54.718,77.741Z"/><path class="cls-2" d="M59.434,71.662c.315-.381.651-.736.971-1.114L47.394,59.784,45.51,62.061,58.521,72.825C58.832,72.441,59.118,72.044,59.434,71.662Z"/><path class="cls-2" d="M64.522,65.891c.339-.361.7-.694,1.039-1.05l-12.31-11.56-2.023,2.154L63.537,66.994C63.872,66.631,64.182,66.253,64.522,65.891Z"/><path class="cls-2" d="M69.962,60.451c.361-.339.738-.649,1.1-.983l-11.56-12.31-2.154,2.023L68.91,61.491C69.267,61.148,69.6,60.791,69.962,60.451Z"/><path class="cls-2" d="M75.733,55.363c.381-.315.778-.6,1.162-.912L66.131,41.44l-2.277,1.883L74.618,56.335C75,56.016,75.35,55.68,75.733,55.363Z"/><path class="cls-2" d="M81.811,50.648c.4-.291.815-.552,1.218-.837L73.1,36.149l-2.391,1.737,9.926,13.661C81.035,51.252,81.411,50.94,81.811,50.648Z"/><path class="cls-2" d="M88.175,46.324c.418-.266.847-.5,1.268-.76L80.394,31.306,77.9,32.89l9.048,14.258C87.362,46.878,87.756,46.59,88.175,46.324Z"/><path class="cls-2" d="M94.8,42.408c.434-.239.877-.446,1.313-.679l-8.135-14.8-2.59,1.424,8.135,14.8C93.951,42.91,94.362,42.646,94.8,42.408Z"/><path class="cls-2" d="M101.652,38.915c.448-.211.9-.39,1.353-.595l-7.19-15.279L93.141,24.3l7.19,15.279C100.776,39.363,101.2,39.126,101.652,38.915Z"/><path class="cls-2" d="M108.712,35.859c.461-.182.927-.331,1.388-.508l-6.216-15.7-2.748,1.088,6.217,15.7C107.81,36.252,108.251,36.042,108.712,35.859Z"/><path class="cls-2" d="M115.951,33.253c.471-.153.945-.273,1.417-.42l-5.218-16.06-2.811.913,5.219,16.06C115.026,33.588,115.48,33.406,115.951,33.253Z"/><path class="cls-2" d="M123.339,31.107c.48-.124.96-.213,1.44-.331l-4.2-16.356-2.863.735,4.2,16.356C122.4,31.383,122.859,31.23,123.339,31.107Z"/><path class="cls-2" d="M130.847,29.429c.487-.093.972-.153,1.459-.24L129.141,12.6l-2.9.554L129.4,29.743C129.887,29.645,130.36,29.522,130.847,29.429Z"/><path class="cls-2" d="M138.446,28.225c.491-.062.98-.091,1.47-.147L137.8,11.324l-2.932.371,2.117,16.753C137.474,28.38,137.954,28.287,138.446,28.225Z"/><path class="cls-2" d="M146.1,27.5c.5-.031.984-.029,1.477-.055l-1.06-16.853-2.95.186,1.061,16.853C145.126,27.6,145.611,27.532,146.1,27.5Z"/><path class="cls-3" d="M118.173,137.991a8.4,8.4,0,0,0-5.211,1.9V121.863h13.626a1.842,1.842,0,0,0,1.9-1.9v-2.606a1.839,1.839,0,0,0-1.9-1.9H107.854a1.842,1.842,0,0,0-1.9,1.9v33.258a2.2,2.2,0,0,0,2.407,2.4h1.7c1.4,0,1.8-1.1,1.8-3.005,0-3.2,1.4-6.011,4.807-6.011,3.706,0,5.512,2.606,5.512,15.126,0,12.624-2.3,14.924-5.611,14.924-5.611,0-5.009-6.109-4.807-9.214.1-2.1-.5-3.306-2-3.306h-2.4a2.372,2.372,0,0,0-2.506,2.7c0,10.319,2.6,16.029,12.022,16.029,8.814,0,12.12-6.514,12.12-21.137S125.887,137.991,118.173,137.991Z"/><path class="cls-3" d="M147.531,137.991a8.4,8.4,0,0,0-5.211,1.9V121.863h13.626a1.841,1.841,0,0,0,1.9-1.9v-2.606a1.839,1.839,0,0,0-1.9-1.9H137.212a1.842,1.842,0,0,0-1.905,1.9v33.258a2.2,2.2,0,0,0,2.408,2.4h1.7c1.4,0,1.8-1.1,1.8-3.005,0-3.2,1.4-6.011,4.807-6.011,3.707,0,5.512,2.606,5.512,15.126,0,12.624-2.3,14.924-5.611,14.924-5.611,0-5.009-6.109-4.806-9.214.1-2.1-.5-3.306-2-3.306h-2.4a2.372,2.372,0,0,0-2.506,2.7c0,10.319,2.605,16.029,12.021,16.029,8.815,0,12.121-6.514,12.121-21.137S155.245,137.991,147.531,137.991Z"/><path class="cls-3" d="M194.419,149.209c-6.613,0-9.92,5.306-9.92,15.724,0,10.319,3.307,15.728,9.92,15.728,6.81,0,9.915-5.409,9.915-15.728C204.334,154.515,201.229,149.209,194.419,149.209Zm0,26.043c-3.208,0-4.008-3.607-4.008-10.319,0-6.81.8-10.315,4.008-10.315,3.3,0,4.007,3.5,4.007,10.315C198.426,171.645,197.721,175.252,194.419,175.252Z"/><path class="cls-3" d="M181.8,130.175c0-10.418-3.1-15.724-9.915-15.724-6.613,0-9.919,5.306-9.919,15.724,0,10.319,3.306,15.728,9.919,15.728C178.69,145.9,181.8,140.494,181.8,130.175Zm-13.922,0c0-6.811.8-10.315,4.007-10.315,3.306,0,4.007,3.5,4.007,10.315,0,6.711-.7,10.319-4.007,10.319C168.672,140.494,167.873,136.886,167.873,130.175Z"/><path class="cls-3" d="M198.826,115.452h-2a2.892,2.892,0,0,0-2.507,1.9l-28.145,60.4c-.5,1.105.2,1.9,1.3,1.9h2a2.879,2.879,0,0,0,2.5-1.9l28.149-60.4C200.627,116.252,199.926,115.452,198.826,115.452Z"/></svg>