<svg id="Layer_1" data-name="Layer 1" xmlns="http://www.w3.org/2000/svg" viewBox="0 0 300 300"><defs><style>.cls-1{fill:#fcad22;}.cls-2{fill:#e6e6e6;}.cls-3{fill:#5e5e5e;}</style></defs><path class="cls-1" d="M155.057,289.038A138.048,138.048,0,0,1,94.3,275.128l7.372-15.2a121.259,121.259,0,0,0,53.385,12.22,122.428,122.428,0,0,0,0-244.855l-1.4.009-.14-16.887,1.538-.008c76.818,0,139.313,62.5,139.313,139.313S231.875,289.038,155.057,289.038Z"/><path class="cls-2" d="M96.057,257.042c-.434-.239-.846-.5-1.277-.745l-8.135,14.8,2.59,1.423,8.135-14.8C96.934,257.487,96.491,257.281,96.057,257.042Z"/><path class="cls-2" d="M89.435,253.126c-.419-.266-.813-.555-1.227-.824L79.16,266.56l2.5,1.583L90.7,253.885C90.282,253.625,89.854,253.391,89.435,253.126Z"/><path class="cls-2" d="M83.072,248.8c-.4-.291-.777-.6-1.173-.9l-9.926,13.661,2.391,1.738,9.925-13.662C83.887,249.353,83.473,249.093,83.072,248.8Z"/><path class="cls-2" d="M76.993,244.086c-.382-.316-.737-.652-1.114-.971L65.115,256.126l2.276,1.884L78.155,245C77.771,244.687,77.375,244.4,76.993,244.086Z"/><path class="cls-2" d="M71.222,239c-.362-.339-.695-.7-1.051-1.039l-11.56,12.309,2.154,2.023,11.56-12.309C71.961,239.648,71.583,239.337,71.222,239Z"/><path class="cls-2" d="M65.782,233.558c-.34-.361-.65-.739-.984-1.1l-12.31,11.56,2.023,2.154,12.31-11.56C66.479,234.252,66.121,233.919,65.782,233.558Z"/><path class="cls-2" d="M60.694,227.787c-.316-.382-.6-.778-.913-1.163L46.77,237.388l1.884,2.277L61.665,228.9C61.346,228.524,61.01,228.169,60.694,227.787Z"/><path class="cls-2" d="M55.979,221.708c-.292-.4-.552-.814-.838-1.218l-13.662,9.926,1.737,2.391,13.662-9.926C56.583,222.485,56.27,222.109,55.979,221.708Z"/><path class="cls-2" d="M51.654,215.345c-.266-.418-.5-.848-.759-1.268l-14.258,9.048,1.583,2.5,14.258-9.048C52.209,216.158,51.92,215.763,51.654,215.345Z"/><path class="cls-2" d="M47.738,208.723c-.239-.434-.445-.878-.679-1.313l-14.8,8.135,1.423,2.589L48.483,210C48.24,209.569,47.977,209.157,47.738,208.723Z"/><path class="cls-2" d="M44.245,201.868c-.211-.448-.389-.9-.595-1.353l-15.279,7.19,1.258,2.674,15.28-7.19C44.693,202.744,44.456,202.316,44.245,201.868Z"/><path class="cls-2" d="M41.19,194.807c-.183-.46-.332-.926-.509-1.387l-15.7,6.216,1.088,2.747,15.7-6.216C41.582,195.709,41.372,195.268,41.19,194.807Z"/><path class="cls-2" d="M38.583,187.568c-.152-.471-.272-.945-.42-1.416L22.1,191.37l.913,2.81,16.061-5.218C38.919,188.494,38.737,188.04,38.583,187.568Z"/><path class="cls-2" d="M36.437,180.181c-.123-.48-.213-.961-.33-1.441l-16.356,4.2.735,2.863,16.356-4.2C36.713,181.125,36.56,180.661,36.437,180.181Z"/><path class="cls-2" d="M34.759,172.672c-.093-.486-.152-.971-.24-1.458l-16.587,3.164.554,2.9,16.587-3.164C34.975,173.632,34.852,173.159,34.759,172.672Z"/><path class="cls-2" d="M33.555,165.074c-.062-.492-.091-.98-.147-1.471l-16.753,2.116.37,2.932,16.753-2.116C33.711,166.045,33.618,165.565,33.555,165.074Z"/><path class="cls-2" d="M32.831,157.415c-.031-.5-.029-.984-.054-1.478L15.923,157l.186,2.95,16.853-1.06C32.926,158.394,32.863,157.909,32.831,157.415Z"/><path class="cls-2" d="M32.59,149.725c0-.5.032-.984.038-1.478H15.741V151.2H32.628C32.622,150.708,32.59,150.22,32.59,149.725Z"/><path class="cls-2" d="M32.831,142.035c.032-.5.095-.979.131-1.472L16.109,139.5l-.186,2.949,16.854,1.06C32.8,143.018,32.8,142.53,32.831,142.035Z"/><path class="cls-2" d="M33.555,134.376c.063-.492.156-.972.223-1.461L17.025,130.8l-.37,2.932,16.753,2.116C33.464,135.355,33.493,134.867,33.555,134.376Z"/><path class="cls-2" d="M34.759,126.777c.093-.487.216-.96.314-1.444l-16.587-3.164-.554,2.9,16.587,3.164C34.607,127.749,34.666,127.264,34.759,126.777Z"/><path class="cls-2" d="M36.437,119.269c.123-.48.276-.945.405-1.422l-16.356-4.2-.735,2.862,16.356,4.2C36.224,120.229,36.314,119.749,36.437,119.269Z"/><path class="cls-2" d="M38.583,111.881c.154-.472.336-.925.494-1.394l-16.061-5.218L22.1,108.08l16.06,5.218C38.311,112.826,38.431,112.352,38.583,111.881Z"/><path class="cls-2" d="M41.19,104.642c.182-.461.392-.9.579-1.36l-15.7-6.216L24.98,99.814l15.7,6.216C40.858,105.568,41.007,105.1,41.19,104.642Z"/><path class="cls-2" d="M44.245,97.581c.211-.448.448-.875.664-1.32l-15.28-7.19-1.258,2.674,15.279,7.19C43.856,98.485,44.034,98.03,44.245,97.581Z"/><path class="cls-2" d="M47.738,90.727c.239-.435.5-.846.745-1.277l-14.8-8.135-1.423,2.59,14.8,8.135C47.293,91.6,47.5,91.161,47.738,90.727Z"/><path class="cls-2" d="M51.654,84.105c.266-.419.555-.813.824-1.228L38.22,73.829l-1.583,2.5L50.9,85.372C51.155,84.952,51.388,84.523,51.654,84.105Z"/><path class="cls-2" d="M55.979,77.741c.291-.4.6-.776.9-1.173L43.216,66.643l-1.737,2.39,13.662,9.926C55.427,78.556,55.687,78.142,55.979,77.741Z"/><path class="cls-2" d="M60.694,71.662c.316-.381.652-.736.971-1.114L48.654,59.784,46.77,62.061,59.781,72.825C60.092,72.441,60.378,72.044,60.694,71.662Z"/><path class="cls-2" d="M65.782,65.891c.339-.361.7-.694,1.039-1.05l-12.31-11.56-2.023,2.154L64.8,66.994C65.132,66.631,65.442,66.253,65.782,65.891Z"/><path class="cls-2" d="M71.222,60.451c.361-.339.739-.649,1.1-.983l-11.56-12.31-2.154,2.023,11.56,12.31C70.527,61.148,70.86,60.791,71.222,60.451Z"/><path class="cls-2" d="M76.993,55.363c.382-.315.778-.6,1.162-.912L67.391,41.44l-2.276,1.883L75.879,56.335C76.256,56.016,76.611,55.68,76.993,55.363Z"/><path class="cls-2" d="M83.072,50.648c.4-.291.815-.552,1.217-.837L74.364,36.149l-2.391,1.737L81.9,51.547C82.3,51.252,82.671,50.94,83.072,50.648Z"/><path class="cls-2" d="M89.435,46.324c.419-.266.847-.5,1.268-.76L81.655,31.306l-2.5,1.584,9.048,14.258C88.622,46.878,89.016,46.59,89.435,46.324Z"/><path class="cls-2" d="M96.057,42.408c.434-.239.877-.446,1.313-.679l-8.135-14.8-2.59,1.424,8.135,14.8C95.211,42.91,95.623,42.646,96.057,42.408Z"/><path class="cls-2" d="M102.912,38.915c.448-.211.9-.39,1.353-.595l-7.19-15.279L94.4,24.3l7.19,15.279C102.036,39.363,102.464,39.126,102.912,38.915Z"/><path class="cls-2" d="M109.972,35.859c.461-.182.927-.331,1.389-.508l-6.217-15.7L102.4,20.738l6.217,15.7C109.07,36.252,109.512,36.042,109.972,35.859Z"/><path class="cls-2" d="M117.211,33.253c.472-.153.946-.273,1.417-.42l-5.218-16.06-2.811.913,5.219,16.06C116.286,33.588,116.74,33.406,117.211,33.253Z"/><path class="cls-2" d="M124.6,31.107c.48-.124.961-.213,1.441-.331l-4.2-16.356-2.862.735,4.2,16.356C123.655,31.383,124.119,31.23,124.6,31.107Z"/><path class="cls-2" d="M132.107,29.429c.487-.093.973-.153,1.459-.24L130.4,12.6l-2.9.554,3.164,16.587C131.148,29.645,131.621,29.522,132.107,29.429Z"/><path class="cls-2" d="M139.706,28.225c.492-.062.98-.091,1.471-.147L139.06,11.324l-2.932.371,2.117,16.753C138.734,28.38,139.214,28.287,139.706,28.225Z"/><path class="cls-2" d="M147.366,27.5c.494-.031.983-.029,1.476-.055l-1.06-16.853-2.949.186,1.06,16.853C146.386,27.6,146.871,27.532,147.366,27.5Z"/><path class="cls-3" d="M121.44,137.991a8.4,8.4,0,0,0-5.211,1.9V121.863h13.626a1.841,1.841,0,0,0,1.9-1.9v-2.606a1.839,1.839,0,0,0-1.9-1.9H111.121a1.843,1.843,0,0,0-1.905,1.9v33.258a2.2,2.2,0,0,0,2.408,2.4h1.7c1.4,0,1.8-1.1,1.8-3.005,0-3.2,1.4-6.011,4.807-6.011,3.707,0,5.513,2.606,5.513,15.126,0,12.624-2.3,14.924-5.611,14.924-5.612,0-5.01-6.109-4.807-9.214.1-2.1-.5-3.306-2-3.306h-2.4a2.372,2.372,0,0,0-2.506,2.7c0,10.319,2.605,16.029,12.021,16.029,8.815,0,12.121-6.514,12.121-21.137S129.154,137.991,121.44,137.991Z"/><path class="cls-3" d="M157.006,115.452H136.773a1.842,1.842,0,0,0-1.905,1.9v2.606a1.845,1.845,0,0,0,1.905,1.9H151.6l-13.523,51.988a19.963,19.963,0,0,0-.8,4.007,1.733,1.733,0,0,0,1.8,1.8h3.307a1.951,1.951,0,0,0,2-1.7l13.823-55.092a18.169,18.169,0,0,0,.6-3.207v-2.4A1.734,1.734,0,0,0,157.006,115.452Z"/><path class="cls-3" d="M193.678,149.209c-6.613,0-9.919,5.306-9.919,15.724,0,10.319,3.306,15.728,9.919,15.728,6.811,0,9.915-5.409,9.915-15.728C203.593,154.515,200.489,149.209,193.678,149.209Zm0,26.043c-3.208,0-4.008-3.607-4.008-10.319,0-6.81.8-10.315,4.008-10.315,3.3,0,4.007,3.5,4.007,10.315C197.685,171.645,196.98,175.252,193.678,175.252Z"/><path class="cls-3" d="M198.085,115.452h-2a2.887,2.887,0,0,0-2.506,1.9l-28.146,60.4c-.5,1.105.2,1.9,1.3,1.9h2a2.878,2.878,0,0,0,2.5-1.9l28.15-60.4C199.887,116.252,199.186,115.452,198.085,115.452Z"/><path class="cls-3" d="M181.054,130.175c0-10.418-3.1-15.724-9.915-15.724-6.613,0-9.919,5.306-9.919,15.724,0,10.319,3.306,15.728,9.919,15.728C177.95,145.9,181.054,140.494,181.054,130.175Zm-13.922,0c0-6.811.8-10.315,4.007-10.315,3.307,0,4.007,3.5,4.007,10.315,0,6.711-.7,10.319-4.007,10.319C167.932,140.494,167.132,136.886,167.132,130.175Z"/></svg>