<svg id="Layer_1" data-name="Layer 1" xmlns="http://www.w3.org/2000/svg" viewBox="0 0 300 300"><defs><style>.cls-1{fill:#fcad22;}.cls-2{fill:#e6e6e6;}.cls-3{fill:#5e5e5e;}</style></defs><path class="cls-1" d="M155.686,289.038a139.432,139.432,0,0,1-68.511-17.979l8.312-14.7A122.438,122.438,0,1,0,155.686,27.3l-1.4.009-.14-16.887,1.537-.008C232.5,10.411,295,72.906,295,149.724S232.5,289.038,155.686,289.038Z"/><path class="cls-2" d="M90.065,253.126c-.418-.266-.813-.555-1.227-.824L79.79,266.56l2.495,1.583,9.048-14.258C90.913,253.625,90.484,253.391,90.065,253.126Z"/><path class="cls-2" d="M83.7,248.8c-.4-.291-.776-.6-1.173-.9L72.6,261.563l2.39,1.738,9.926-13.662C84.517,249.353,84.1,249.093,83.7,248.8Z"/><path class="cls-2" d="M77.623,244.086c-.382-.316-.737-.652-1.114-.971L65.745,256.126l2.277,1.884L78.786,245C78.4,244.687,78.005,244.4,77.623,244.086Z"/><path class="cls-2" d="M71.852,239c-.361-.339-.694-.7-1.051-1.039L59.242,250.268l2.154,2.023,11.559-12.309C72.591,239.648,72.213,239.337,71.852,239Z"/><path class="cls-2" d="M66.412,233.558c-.339-.361-.649-.739-.984-1.1l-12.309,11.56,2.023,2.154,12.309-11.56C67.109,234.252,66.752,233.919,66.412,233.558Z"/><path class="cls-2" d="M61.324,227.787c-.316-.382-.6-.778-.912-1.163L47.4,237.388l1.884,2.277L62.3,228.9C61.976,228.524,61.64,228.169,61.324,227.787Z"/><path class="cls-2" d="M56.609,221.708c-.291-.4-.552-.814-.838-1.218L42.11,230.416l1.737,2.391,13.661-9.926C57.213,222.485,56.9,222.109,56.609,221.708Z"/><path class="cls-2" d="M52.284,215.345c-.265-.418-.5-.848-.759-1.268l-14.258,9.048,1.584,2.5,14.257-9.048C52.839,216.158,52.55,215.763,52.284,215.345Z"/><path class="cls-2" d="M48.368,208.723c-.239-.434-.445-.878-.678-1.313l-14.8,8.135,1.424,2.589L49.114,210C48.87,209.569,48.607,209.157,48.368,208.723Z"/><path class="cls-2" d="M44.875,201.868c-.211-.448-.389-.9-.594-1.353L29,207.705l1.259,2.674,15.279-7.19C45.324,202.744,45.087,202.316,44.875,201.868Z"/><path class="cls-2" d="M41.82,194.807c-.183-.46-.332-.926-.508-1.387l-15.7,6.216,1.088,2.747,15.7-6.216C42.212,195.709,42,195.268,41.82,194.807Z"/><path class="cls-2" d="M39.214,187.568c-.153-.471-.273-.945-.42-1.416L22.733,191.37l.914,2.81,16.06-5.218C39.549,188.494,39.367,188.04,39.214,187.568Z"/><path class="cls-2" d="M37.068,180.181c-.124-.48-.213-.961-.331-1.441l-16.356,4.2.735,2.863,16.356-4.2C37.344,181.125,37.191,180.661,37.068,180.181Z"/><path class="cls-2" d="M35.389,172.672c-.092-.486-.152-.971-.239-1.458l-16.588,3.164.554,2.9L35.7,174.117C35.606,173.632,35.482,173.159,35.389,172.672Z"/><path class="cls-2" d="M34.186,165.074c-.062-.492-.091-.98-.147-1.471l-16.754,2.116.37,2.932,16.754-2.116C34.341,166.045,34.248,165.565,34.186,165.074Z"/><path class="cls-2" d="M33.462,157.415c-.031-.5-.029-.984-.055-1.478L16.554,157l.186,2.95,16.853-1.06C33.556,158.394,33.493,157.909,33.462,157.415Z"/><path class="cls-2" d="M33.22,149.725c0-.5.033-.984.038-1.478H16.372V151.2H33.258C33.253,150.708,33.22,150.22,33.22,149.725Z"/><path class="cls-2" d="M33.462,142.035c.031-.5.094-.979.131-1.472L16.74,139.5l-.186,2.949,16.853,1.06C33.433,143.018,33.431,142.53,33.462,142.035Z"/><path class="cls-2" d="M34.186,134.376c.062-.492.155-.972.223-1.461L17.655,130.8l-.37,2.932,16.754,2.116C34.1,135.355,34.124,134.867,34.186,134.376Z"/><path class="cls-2" d="M35.389,126.777c.093-.487.217-.96.315-1.444l-16.588-3.164-.554,2.9,16.588,3.164C35.237,127.749,35.3,127.264,35.389,126.777Z"/><path class="cls-2" d="M37.068,119.269c.123-.48.276-.945.4-1.422l-16.356-4.2-.735,2.862,16.356,4.2C36.855,120.229,36.944,119.749,37.068,119.269Z"/><path class="cls-2" d="M39.214,111.881c.153-.472.335-.925.493-1.394l-16.06-5.218-.914,2.811L38.794,113.3C38.941,112.826,39.061,112.352,39.214,111.881Z"/><path class="cls-2" d="M41.82,104.642c.183-.461.392-.9.579-1.36L26.7,97.066l-1.088,2.748,15.7,6.216C41.488,105.568,41.637,105.1,41.82,104.642Z"/><path class="cls-2" d="M44.875,97.581c.212-.448.449-.875.664-1.32L30.26,89.071,29,91.745l15.28,7.19C44.486,98.485,44.664,98.03,44.875,97.581Z"/><path class="cls-2" d="M48.368,90.727c.239-.435.5-.846.746-1.277l-14.8-8.135-1.424,2.59,14.8,8.135C47.923,91.6,48.129,91.161,48.368,90.727Z"/><path class="cls-2" d="M52.284,84.105c.266-.419.555-.813.824-1.228L38.851,73.829l-1.584,2.5,14.258,9.048C51.785,84.952,52.019,84.523,52.284,84.105Z"/><path class="cls-2" d="M56.609,77.741c.291-.4.6-.776.9-1.173L43.847,66.643l-1.737,2.39,13.661,9.926C56.057,78.556,56.318,78.142,56.609,77.741Z"/><path class="cls-2" d="M61.324,71.662c.316-.381.652-.736.972-1.114L49.284,59.784,47.4,62.061,60.412,72.825C60.723,72.441,61.008,72.044,61.324,71.662Z"/><path class="cls-2" d="M66.412,65.891c.34-.361.7-.694,1.039-1.05L55.142,53.281l-2.023,2.154L65.428,66.994C65.763,66.631,66.073,66.253,66.412,65.891Z"/><path class="cls-2" d="M71.852,60.451c.361-.339.739-.649,1.1-.983L61.4,47.158l-2.154,2.023L70.8,61.491C71.158,61.148,71.491,60.791,71.852,60.451Z"/><path class="cls-2" d="M77.623,55.363c.382-.315.779-.6,1.163-.912L68.022,41.44l-2.277,1.883L76.509,56.335C76.886,56.016,77.241,55.68,77.623,55.363Z"/><path class="cls-2" d="M83.7,50.648c.4-.291.815-.552,1.218-.837L74.994,36.149,72.6,37.886l9.925,13.661C82.926,51.252,83.3,50.94,83.7,50.648Z"/><path class="cls-2" d="M90.065,46.324c.419-.266.848-.5,1.268-.76L82.285,31.306,79.79,32.89l9.048,14.258C89.252,46.878,89.647,46.59,90.065,46.324Z"/><path class="cls-2" d="M96.688,42.408c.433-.239.877-.446,1.312-.679l-8.135-14.8-2.589,1.424,8.135,14.8C95.841,42.91,96.253,42.646,96.688,42.408Z"/><path class="cls-2" d="M103.542,38.915c.449-.211.9-.39,1.353-.595l-7.19-15.279L95.032,24.3l7.19,15.279C102.666,39.363,103.094,39.126,103.542,38.915Z"/><path class="cls-2" d="M110.6,35.859c.461-.182.926-.331,1.388-.508l-6.216-15.7-2.748,1.088,6.216,15.7C109.7,36.252,110.142,36.042,110.6,35.859Z"/><path class="cls-2" d="M117.842,33.253c.471-.153.945-.273,1.416-.42l-5.217-16.06-2.811.913,5.218,16.06C116.916,33.588,117.37,33.406,117.842,33.253Z"/><path class="cls-2" d="M125.23,31.107c.48-.124.96-.213,1.44-.331l-4.2-16.356-2.863.735,4.2,16.356C124.285,31.383,124.75,31.23,125.23,31.107Z"/><path class="cls-2" d="M132.738,29.429c.486-.093.972-.153,1.458-.24L131.032,12.6l-2.9.554,3.164,16.587C131.778,29.645,132.251,29.522,132.738,29.429Z"/><path class="cls-2" d="M140.337,28.225c.491-.062.979-.091,1.47-.147l-2.116-16.754-2.932.371,2.117,16.753C139.365,28.38,139.845,28.287,140.337,28.225Z"/><path class="cls-2" d="M148,27.5c.494-.031.983-.029,1.477-.055l-1.06-16.853-2.95.186,1.06,16.853C147.017,27.6,147.5,27.532,148,27.5Z"/><path class="cls-3" d="M119.712,137.991a8.4,8.4,0,0,0-5.211,1.9V121.863h13.625a1.842,1.842,0,0,0,1.9-1.9v-2.606a1.839,1.839,0,0,0-1.9-1.9H109.393a1.842,1.842,0,0,0-1.905,1.9v33.258a2.2,2.2,0,0,0,2.408,2.4h1.7c1.4,0,1.8-1.1,1.8-3.005,0-3.2,1.4-6.011,4.807-6.011,3.706,0,5.512,2.606,5.512,15.126,0,12.624-2.3,14.924-5.611,14.924-5.611,0-5.009-6.109-4.807-9.214.1-2.1-.5-3.306-2-3.306h-2.4a2.372,2.372,0,0,0-2.507,2.7c0,10.319,2.606,16.029,12.022,16.029,8.814,0,12.121-6.514,12.121-21.137S127.425,137.991,119.712,137.991Z"/><path class="cls-3" d="M154.676,146.4c2.907-2.2,4.91-6.51,4.91-14.121,0-12.421-4.609-17.43-11.919-17.43s-11.922,5.108-11.922,17.43c0,7.611,2,11.919,4.91,14.121-3.405,2.3-5.611,7.115-5.611,15.525,0,13.226,4.807,18.334,12.623,18.334s12.62-5.108,12.62-18.334C160.287,153.414,158.081,148.706,154.676,146.4Zm-7.009-25.54c2.8,0,4.705,1.3,4.705,11.419s-1.9,11.416-4.705,11.416-4.707-1.3-4.707-11.416S144.86,120.862,147.667,120.862Zm0,53.388c-3.108,0-5.408-1.3-5.408-12.323s2.3-12.318,5.408-12.318,5.41,1.3,5.41,12.318S150.772,174.25,147.667,174.25Z"/><path class="cls-3" d="M184.034,130.175c0-10.418-3.1-15.724-9.915-15.724-6.613,0-9.92,5.306-9.92,15.724,0,10.319,3.307,15.728,9.92,15.728C180.929,145.9,184.034,140.494,184.034,130.175Zm-13.923,0c0-6.811.8-10.315,4.008-10.315,3.306,0,4.007,3.5,4.007,10.315,0,6.711-.7,10.319-4.007,10.319C170.911,140.494,170.111,136.886,170.111,130.175Z"/><path class="cls-3" d="M196.657,149.209c-6.612,0-9.919,5.306-9.919,15.724,0,10.319,3.307,15.728,9.919,15.728,6.811,0,9.916-5.409,9.916-15.728C206.573,154.515,203.468,149.209,196.657,149.209Zm0,26.043c-3.207,0-4.007-3.607-4.007-10.319,0-6.81.8-10.315,4.007-10.315,3.3,0,4.008,3.5,4.008,10.315C200.665,171.645,199.96,175.252,196.657,175.252Z"/><path class="cls-3" d="M201.065,115.452h-2a2.887,2.887,0,0,0-2.507,1.9l-28.145,60.4c-.5,1.105.2,1.9,1.3,1.9h2a2.879,2.879,0,0,0,2.5-1.9l28.15-60.4C202.866,116.252,202.165,115.452,201.065,115.452Z"/></svg>