<svg id="Layer_1" data-name="Layer 1" xmlns="http://www.w3.org/2000/svg" viewBox="0 0 300 300"><defs><style>.cls-1{fill:#f21b16;}.cls-2{fill:#e6e6e6;}.cls-3{fill:#5e5e5e;}</style></defs><path class="cls-1" d="M192.951,30.54a122.187,122.187,0,0,0-39.158-6.393l-1.368.009L152.21,7.269l1.583-.008a139.133,139.133,0,0,1,44.558,7.278Z"/><path class="cls-2" d="M198.877,32.708c.461.183.9.393,1.36.58l6.216-15.7L203.706,16.5l-6.217,15.7C197.951,32.377,198.416,32.526,198.877,32.708Z"/><path class="cls-2" d="M205.938,35.764c.448.211.876.448,1.321.664l7.19-15.28-2.674-1.258-7.19,15.279C205.034,35.375,205.489,35.553,205.938,35.764Z"/><path class="cls-2" d="M212.793,39.257c.434.239.846.5,1.276.745l8.136-14.8-2.59-1.423-8.135,14.8C211.916,38.812,212.358,39.018,212.793,39.257Z"/><path class="cls-2" d="M219.415,43.173c.418.266.813.554,1.227.824l9.048-14.258-2.5-1.583-9.048,14.258C218.567,42.674,219,42.907,219.415,43.173Z"/><path class="cls-2" d="M225.778,47.5c.4.291.776.6,1.173.9l9.926-13.662L234.486,33,224.56,46.66C224.963,46.946,225.377,47.206,225.778,47.5Z"/><path class="cls-2" d="M231.857,52.213c.382.316.737.652,1.114.971l10.764-13.011-2.277-1.884L230.694,51.3C231.079,51.611,231.475,51.9,231.857,52.213Z"/><path class="cls-2" d="M237.628,57.3c.361.339.7.7,1.051,1.039l11.56-12.31-2.155-2.023-11.559,12.31C236.889,56.651,237.267,56.961,237.628,57.3Z"/><path class="cls-2" d="M243.068,62.741c.339.361.65.739.984,1.1l12.31-11.56-2.023-2.154-12.31,11.56C242.371,62.046,242.729,62.379,243.068,62.741Z"/><path class="cls-2" d="M248.156,68.512c.316.382.6.778.912,1.162L262.079,58.91,260.2,56.634,247.185,67.4C247.5,67.775,247.84,68.13,248.156,68.512Z"/><path class="cls-2" d="M252.871,74.591c.292.4.552.814.838,1.217l13.661-9.925-1.736-2.391-13.662,9.926C252.267,73.814,252.58,74.19,252.871,74.591Z"/><path class="cls-2" d="M257.2,80.954c.265.418.5.847.759,1.268l14.258-9.048-1.583-2.5-14.258,9.049C256.641,80.141,256.93,80.535,257.2,80.954Z"/><path class="cls-2" d="M261.112,87.576c.239.434.445.877.678,1.313l14.8-8.135-1.424-2.59-14.8,8.136C260.61,86.73,260.873,87.142,261.112,87.576Z"/><path class="cls-2" d="M264.605,94.431c.211.448.389.9.594,1.353l15.28-7.19-1.258-2.674-15.28,7.19C264.157,93.555,264.394,93.982,264.605,94.431Z"/><path class="cls-2" d="M267.66,101.491c.183.461.332.927.509,1.389l15.7-6.217-1.087-2.748-15.7,6.217C267.268,100.589,267.478,101.031,267.66,101.491Z"/><path class="cls-2" d="M270.266,108.73c.153.471.273.946.421,1.417l16.059-5.218-.913-2.811-16.06,5.219C269.931,107.805,270.113,108.259,270.266,108.73Z"/><path class="cls-2" d="M272.413,116.118c.123.48.213.961.33,1.441l16.356-4.2-.735-2.862-16.356,4.2C272.137,115.174,272.29,115.638,272.413,116.118Z"/><path class="cls-2" d="M274.091,123.626c.093.487.152.972.239,1.459l16.588-3.164-.554-2.9-16.587,3.164C273.875,122.666,274,123.14,274.091,123.626Z"/><path class="cls-2" d="M275.294,131.225c.063.492.091.98.148,1.471l16.753-2.117-.37-2.932-16.753,2.117C275.139,130.253,275.232,130.733,275.294,131.225Z"/><path class="cls-2" d="M276.018,138.885c.032.494.03.983.055,1.476l16.854-1.06-.186-2.949-16.853,1.06C275.924,137.905,275.987,138.39,276.018,138.885Z"/><path class="cls-2" d="M276.26,146.574c0,.495-.033.983-.038,1.477h16.886V145.1H276.222C276.227,145.591,276.26,146.078,276.26,146.574Z"/><path class="cls-2" d="M276.018,154.264c-.031.494-.094.979-.13,1.472l16.853,1.06.186-2.949-16.854-1.06C276.048,153.28,276.05,153.769,276.018,154.264Z"/><path class="cls-2" d="M275.294,161.923c-.062.492-.155.972-.222,1.461l16.753,2.117.37-2.932-16.753-2.117C275.385,160.943,275.357,161.431,275.294,161.923Z"/><path class="cls-2" d="M274.091,169.522c-.093.487-.216.959-.314,1.444l16.587,3.164.554-2.9-16.588-3.164C274.243,168.55,274.184,169.035,274.091,169.522Z"/><path class="cls-2" d="M272.413,177.03c-.123.48-.276.944-.405,1.422l16.356,4.2.735-2.862-16.356-4.2C272.626,176.07,272.536,176.55,272.413,177.03Z"/><path class="cls-2" d="M270.266,184.418c-.153.471-.335.925-.493,1.393l16.06,5.219.913-2.811L270.687,183C270.539,183.473,270.419,183.947,270.266,184.418Z"/><path class="cls-2" d="M267.66,191.657c-.182.46-.392.9-.579,1.359l15.7,6.217,1.087-2.748-15.7-6.216C267.992,190.73,267.843,191.2,267.66,191.657Z"/><path class="cls-2" d="M264.605,198.717c-.211.449-.448.876-.664,1.321l15.28,7.19,1.258-2.674-15.28-7.19C264.994,197.813,264.816,198.269,264.605,198.717Z"/><path class="cls-2" d="M261.112,205.572c-.239.434-.5.846-.745,1.277l14.8,8.135,1.424-2.59-14.8-8.135C261.557,204.7,261.351,205.138,261.112,205.572Z"/><path class="cls-2" d="M257.2,212.194c-.266.419-.555.813-.824,1.227l14.258,9.048,1.583-2.5-14.258-9.048C257.7,211.347,257.461,211.776,257.2,212.194Z"/><path class="cls-2" d="M252.871,218.557c-.291.4-.6.777-.9,1.173l13.662,9.926,1.736-2.391-13.661-9.925C253.423,217.743,253.163,218.156,252.871,218.557Z"/><path class="cls-2" d="M248.156,224.636c-.316.382-.652.737-.971,1.115L260.2,236.514l1.883-2.276-13.011-10.764C248.758,223.858,248.472,224.254,248.156,224.636Z"/><path class="cls-2" d="M243.068,230.407c-.339.362-.7.695-1.039,1.051l12.31,11.56,2.023-2.154-12.31-11.56C243.718,229.668,243.407,230.046,243.068,230.407Z"/><path class="cls-2" d="M237.628,235.847c-.361.34-.739.65-1.1.984l11.559,12.31,2.155-2.023-11.56-12.31C238.323,235.15,237.989,235.508,237.628,235.847Z"/><path class="cls-2" d="M231.857,240.935c-.382.316-.778.6-1.163.913l10.764,13.011,2.277-1.884-10.764-13.011C232.594,240.283,232.239,240.619,231.857,240.935Z"/><path class="cls-2" d="M225.778,245.65c-.4.292-.815.552-1.218.838l9.926,13.662,2.391-1.737-9.926-13.662C226.554,245.046,226.179,245.359,225.778,245.65Z"/><path class="cls-2" d="M219.415,249.975c-.419.266-.848.5-1.268.76l9.048,14.257,2.5-1.583-9.048-14.258C220.228,249.42,219.833,249.71,219.415,249.975Z"/><path class="cls-2" d="M212.793,253.891c-.435.239-.877.445-1.313.679l8.135,14.8,2.59-1.424-8.136-14.8C213.639,253.389,213.227,253.653,212.793,253.891Z"/><path class="cls-2" d="M205.938,257.384c-.449.211-.9.389-1.353.595l7.19,15.279L214.449,272l-7.19-15.28C206.814,256.936,206.386,257.173,205.938,257.384Z"/><path class="cls-2" d="M198.877,260.439c-.461.183-.926.332-1.388.509l6.217,15.7,2.747-1.088-6.216-15.7C199.78,260.047,199.338,260.257,198.877,260.439Z"/><path class="cls-2" d="M191.639,263.046c-.472.152-.946.272-1.418.42l5.219,16.06,2.81-.913-5.218-16.06C192.564,262.71,192.11,262.892,191.639,263.046Z"/><path class="cls-2" d="M184.251,265.192c-.48.123-.961.213-1.441.33l4.2,16.356,2.862-.735-4.2-16.355C185.2,264.916,184.731,265.069,184.251,265.192Z"/><path class="cls-2" d="M176.743,266.87c-.488.093-.973.152-1.459.24l3.164,16.587,2.9-.554-3.164-16.587C177.7,266.654,177.229,266.777,176.743,266.87Z"/><path class="cls-2" d="M169.144,268.074c-.492.062-.98.091-1.471.147l2.117,16.753,2.932-.37-2.117-16.753C170.115,267.918,169.636,268.012,169.144,268.074Z"/><path class="cls-2" d="M161.484,268.8c-.494.031-.983.029-1.477.055l1.061,16.853,2.949-.186-1.061-16.853C162.464,268.7,161.979,268.766,161.484,268.8Z"/><path class="cls-2" d="M153.795,269.04c-.5,0-.983-.033-1.478-.039v16.887h2.955V269C154.778,269.007,154.29,269.04,153.795,269.04Z"/><path class="cls-2" d="M146.1,268.8c-.494-.032-.979-.1-1.472-.131l-1.061,16.853,2.95.186,1.06-16.853C147.089,268.827,146.6,268.829,146.1,268.8Z"/><path class="cls-2" d="M138.446,268.074c-.492-.062-.972-.156-1.461-.223L134.868,284.6l2.932.37,2.116-16.753C139.426,268.165,138.937,268.136,138.446,268.074Z"/><path class="cls-2" d="M130.847,266.87c-.487-.093-.96-.216-1.444-.314l-3.165,16.587,2.9.554,3.165-16.587C131.819,267.022,131.334,266.963,130.847,266.87Z"/><path class="cls-2" d="M123.339,265.192c-.48-.123-.944-.276-1.422-.4l-4.2,16.355,2.863.735,4.2-16.356C124.3,265.4,123.819,265.315,123.339,265.192Z"/><path class="cls-2" d="M115.951,263.046c-.471-.154-.925-.336-1.393-.493l-5.219,16.06,2.811.913,5.218-16.06C116.9,263.318,116.422,263.2,115.951,263.046Z"/><path class="cls-2" d="M108.712,260.439c-.461-.182-.9-.392-1.359-.579l-6.217,15.7,2.748,1.088,6.216-15.7C109.639,260.771,109.173,260.622,108.712,260.439Z"/><path class="cls-2" d="M101.652,257.384c-.449-.211-.876-.448-1.321-.664L93.141,272l2.674,1.258,7.19-15.279C102.555,257.773,102.1,257.6,101.652,257.384Z"/><path class="cls-2" d="M94.8,253.891c-.435-.238-.846-.5-1.277-.745l-8.135,14.8,2.59,1.424,8.135-14.8C95.674,254.336,95.231,254.13,94.8,253.891Z"/><path class="cls-2" d="M88.175,249.975c-.419-.265-.813-.555-1.228-.824L77.9,263.409l2.5,1.583,9.049-14.257C89.022,250.474,88.593,250.241,88.175,249.975Z"/><path class="cls-2" d="M81.811,245.65c-.4-.291-.776-.6-1.172-.9l-9.926,13.662L73.1,260.15l9.925-13.662C82.626,246.2,82.212,245.942,81.811,245.65Z"/><path class="cls-2" d="M75.733,240.935c-.383-.316-.738-.652-1.115-.971L63.854,252.975l2.277,1.884L76.9,241.848C76.511,241.537,76.114,241.251,75.733,240.935Z"/><path class="cls-2" d="M69.962,235.847c-.362-.339-.7-.7-1.052-1.039l-11.559,12.31,2.154,2.023,11.56-12.31C70.7,236.5,70.323,236.187,69.962,235.847Z"/><path class="cls-2" d="M64.522,230.407c-.34-.361-.65-.739-.985-1.1l-12.309,11.56,2.023,2.154,12.31-11.56C65.218,231.1,64.861,230.769,64.522,230.407Z"/><path class="cls-2" d="M59.434,224.636c-.316-.382-.6-.778-.913-1.162L45.51,234.238l1.884,2.276,13.011-10.763C60.085,225.373,59.749,225.018,59.434,224.636Z"/><path class="cls-2" d="M54.718,218.557c-.291-.4-.551-.814-.837-1.217l-13.662,9.925,1.737,2.391,13.661-9.926C55.323,219.334,55.009,218.958,54.718,218.557Z"/><path class="cls-2" d="M50.394,212.194c-.266-.418-.5-.847-.76-1.268l-14.257,9.048,1.583,2.5,14.258-9.048C50.948,213.007,50.659,212.613,50.394,212.194Z"/><path class="cls-2" d="M46.477,205.572c-.238-.434-.444-.877-.678-1.313L31,212.394l1.424,2.59,14.8-8.135C46.98,206.418,46.716,206.006,46.477,205.572Z"/><path class="cls-2" d="M42.985,198.717c-.211-.448-.389-.9-.595-1.353l-15.279,7.19,1.258,2.674,15.28-7.19C43.433,199.593,43.2,199.166,42.985,198.717Z"/><path class="cls-2" d="M39.929,191.657c-.182-.461-.332-.927-.508-1.388l-15.7,6.216,1.088,2.748,15.7-6.217C40.321,192.559,40.112,192.117,39.929,191.657Z"/><path class="cls-2" d="M37.323,184.418c-.153-.471-.272-.945-.42-1.417l-16.06,5.218.913,2.811,16.06-5.219C37.658,185.343,37.477,184.889,37.323,184.418Z"/><path class="cls-2" d="M35.177,177.03c-.123-.48-.213-.96-.33-1.441l-16.357,4.2.735,2.862,16.356-4.2C35.453,177.974,35.3,177.51,35.177,177.03Z"/><path class="cls-2" d="M33.5,169.522c-.092-.487-.151-.972-.239-1.459l-16.587,3.164.553,2.9,16.588-3.164C33.715,170.481,33.591,170.009,33.5,169.522Z"/><path class="cls-2" d="M32.3,161.923c-.062-.492-.091-.98-.147-1.471l-16.754,2.117.371,2.932,16.753-2.117C32.451,162.9,32.357,162.415,32.3,161.923Z"/><path class="cls-2" d="M31.571,154.264c-.031-.5-.029-.984-.055-1.477l-16.853,1.06.186,2.949,16.853-1.06C31.665,155.243,31.6,154.758,31.571,154.264Z"/><path class="cls-2" d="M31.329,146.574c0-.5.033-.983.038-1.478H14.481v2.955H31.367C31.362,147.557,31.329,147.069,31.329,146.574Z"/><path class="cls-2" d="M31.571,138.885c.031-.5.094-.98.131-1.473l-16.853-1.06-.186,2.949,16.853,1.06C31.542,139.868,31.54,139.379,31.571,138.885Z"/><path class="cls-2" d="M32.3,131.225c.062-.492.156-.972.223-1.461l-16.753-2.117-.371,2.932L32.148,132.7C32.2,132.205,32.233,131.717,32.3,131.225Z"/><path class="cls-2" d="M33.5,123.626c.093-.486.217-.96.315-1.444l-16.588-3.164-.553,2.9,16.587,3.164C33.347,124.6,33.406,124.113,33.5,123.626Z"/><path class="cls-2" d="M35.177,116.118c.123-.48.276-.944.4-1.422l-16.356-4.2-.735,2.862,16.357,4.2C34.964,117.079,35.054,116.6,35.177,116.118Z"/><path class="cls-2" d="M37.323,108.73c.154-.471.335-.925.493-1.393l-16.06-5.219-.913,2.811,16.06,5.218C37.051,109.676,37.17,109.2,37.323,108.73Z"/><path class="cls-2" d="M39.929,101.491c.183-.46.392-.9.58-1.359l-15.7-6.217L23.72,96.663l15.7,6.217C39.6,102.418,39.747,101.952,39.929,101.491Z"/><path class="cls-2" d="M42.985,94.431c.211-.449.448-.876.664-1.321l-15.28-7.19-1.258,2.674,15.279,7.19C42.6,95.334,42.774,94.879,42.985,94.431Z"/><path class="cls-2" d="M46.477,87.576c.239-.434.5-.846.746-1.276l-14.8-8.136L31,80.754l14.8,8.135C46.033,88.453,46.239,88.01,46.477,87.576Z"/><path class="cls-2" d="M50.394,80.954c.265-.419.554-.813.824-1.227L36.96,70.678l-1.583,2.5,14.257,9.048C49.894,81.8,50.128,81.372,50.394,80.954Z"/><path class="cls-2" d="M54.718,74.591c.291-.4.6-.777.9-1.173L41.956,63.492l-1.737,2.391,13.662,9.925C54.167,75.405,54.427,74.991,54.718,74.591Z"/><path class="cls-2" d="M59.434,68.512c.315-.382.651-.737.971-1.114L47.394,56.634,45.51,58.91,58.521,69.674C58.832,69.29,59.118,68.894,59.434,68.512Z"/><path class="cls-2" d="M64.522,62.741c.339-.362.7-.7,1.039-1.051L53.251,50.13l-2.023,2.154,12.309,11.56C63.872,63.48,64.182,63.1,64.522,62.741Z"/><path class="cls-2" d="M69.962,57.3c.361-.34.738-.65,1.1-.984l-11.56-12.31L57.351,46.03,68.91,58.34C69.267,58,69.6,57.64,69.962,57.3Z"/><path class="cls-2" d="M75.733,52.213c.381-.316.778-.6,1.162-.912L66.131,38.289l-2.277,1.884L74.618,53.184C75,52.865,75.35,52.529,75.733,52.213Z"/><path class="cls-2" d="M81.811,47.5c.4-.292.815-.552,1.218-.838L73.1,33l-2.391,1.737L80.639,48.4C81.035,48.1,81.411,47.789,81.811,47.5Z"/><path class="cls-2" d="M88.175,43.173c.418-.266.847-.5,1.268-.759L80.394,28.156l-2.5,1.583L86.947,44C87.362,43.727,87.756,43.439,88.175,43.173Z"/><path class="cls-2" d="M94.8,39.257c.434-.239.877-.445,1.313-.679l-8.135-14.8L85.385,25.2,93.52,40C93.951,39.759,94.362,39.5,94.8,39.257Z"/><path class="cls-2" d="M101.652,35.764c.448-.211.9-.389,1.353-.6L95.815,19.89l-2.674,1.258,7.19,15.28C100.776,36.212,101.2,35.975,101.652,35.764Z"/><path class="cls-2" d="M108.712,32.708c.461-.182.927-.331,1.388-.508l-6.216-15.7-2.748,1.088,6.217,15.7C107.81,33.1,108.251,32.891,108.712,32.708Z"/><path class="cls-2" d="M115.951,30.1c.471-.152.945-.272,1.417-.42l-5.218-16.06-2.811.913L114.558,30.6C115.026,30.437,115.48,30.256,115.951,30.1Z"/><path class="cls-2" d="M123.339,27.956c.48-.123.96-.213,1.44-.33l-4.2-16.356L117.717,12l4.2,16.357C122.4,28.232,122.859,28.079,123.339,27.956Z"/><path class="cls-2" d="M130.847,26.278c.487-.093.972-.152,1.459-.24L129.141,9.451l-2.9.554L129.4,26.592C129.887,26.494,130.36,26.371,130.847,26.278Z"/><path class="cls-2" d="M138.446,25.074c.491-.062.98-.091,1.47-.147L137.8,8.174l-2.932.37L136.985,25.3C137.474,25.23,137.954,25.137,138.446,25.074Z"/><path class="cls-2" d="M146.1,24.35c.5-.031.984-.029,1.477-.054l-1.06-16.854-2.95.186,1.061,16.853C145.126,24.445,145.611,24.381,146.1,24.35Z"/><path class="cls-3" d="M132.85,134.838a8.4,8.4,0,0,0-5.211,1.9V118.709h13.625a1.839,1.839,0,0,0,1.9-1.9v-2.6a1.841,1.841,0,0,0-1.9-1.9H122.531a1.844,1.844,0,0,0-1.9,1.9v33.255a2.2,2.2,0,0,0,2.407,2.4h1.7c1.4,0,1.8-1.1,1.8-3,0-3.205,1.4-6.009,4.806-6.009,3.707,0,5.513,2.6,5.513,15.124,0,12.622-2.305,14.926-5.611,14.926-5.611,0-5.009-6.109-4.808-9.216.1-2.1-.5-3.3-2-3.3h-2.4a2.373,2.373,0,0,0-2.506,2.705c0,10.317,2.605,16.026,12.022,16.026,8.814,0,12.12-6.511,12.12-21.137S140.564,134.838,132.85,134.838Z"/><path class="cls-3" d="M167.114,127.025c0-10.418-3.105-15.728-9.915-15.728-6.613,0-9.92,5.31-9.92,15.728,0,10.317,3.307,15.726,9.92,15.726C164.009,142.751,167.114,137.342,167.114,127.025Zm-13.922,0c0-6.813.8-10.317,4.007-10.317,3.306,0,4.007,3.5,4.007,10.317,0,6.71-.7,10.317-4.007,10.317C153.991,137.342,153.192,133.735,153.192,127.025Z"/><path class="cls-3" d="M184.145,112.3h-2a2.888,2.888,0,0,0-2.507,1.9l-28.145,60.4c-.5,1.1.2,1.9,1.3,1.9h2a2.884,2.884,0,0,0,2.5-1.9l28.15-60.4C185.946,113.1,185.245,112.3,184.145,112.3Z"/><path class="cls-3" d="M179.737,146.058c-6.612,0-9.919,5.307-9.919,15.726,0,10.316,3.307,15.726,9.919,15.726,6.811,0,9.916-5.41,9.916-15.726C189.653,151.365,186.548,146.058,179.737,146.058Zm0,26.042c-3.207,0-4.007-3.607-4.007-10.316,0-6.813.8-10.318,4.007-10.318,3.3,0,4.008,3.5,4.008,10.318C183.745,168.493,183.04,172.1,179.737,172.1Z"/></svg>