<svg id="Layer_1" data-name="Layer 1" xmlns="http://www.w3.org/2000/svg" viewBox="0 0 300 300"><defs><style>.cls-1{fill:#fcad22;}.cls-2{fill:#e6e6e6;}.cls-3{fill:#5e5e5e;}</style></defs><path class="cls-1" d="M156.316,289.038A138.795,138.795,0,0,1,80.33,266.512l9.219-14.149A122.434,122.434,0,1,0,156.316,27.3l-1.406.009-.14-16.887,1.546-.008c76.818,0,139.314,62.5,139.314,139.313S233.134,289.038,156.316,289.038Z"/><path class="cls-2" d="M84.332,248.8c-.4-.291-.776-.6-1.173-.9l-9.926,13.661,2.391,1.738,9.926-13.662C85.147,249.353,84.733,249.093,84.332,248.8Z"/><path class="cls-2" d="M78.253,244.086c-.382-.316-.737-.652-1.114-.971L66.375,256.126l2.277,1.884L79.416,245C79.031,244.687,78.635,244.4,78.253,244.086Z"/><path class="cls-2" d="M72.482,239c-.361-.339-.695-.7-1.051-1.039L59.872,250.268l2.154,2.023,11.559-12.309C73.221,239.648,72.843,239.337,72.482,239Z"/><path class="cls-2" d="M67.042,233.558c-.339-.361-.649-.739-.984-1.1l-12.31,11.56,2.023,2.154,12.31-11.56C67.739,234.252,67.381,233.919,67.042,233.558Z"/><path class="cls-2" d="M61.954,227.787c-.316-.382-.6-.778-.912-1.163L48.031,237.388l1.883,2.277L62.925,228.9C62.606,228.524,62.27,228.169,61.954,227.787Z"/><path class="cls-2" d="M57.239,221.708c-.291-.4-.552-.814-.838-1.218L42.74,230.416l1.737,2.391,13.661-9.926C57.843,222.485,57.53,222.109,57.239,221.708Z"/><path class="cls-2" d="M52.915,215.345c-.266-.418-.5-.848-.76-1.268L37.9,223.125l1.584,2.5,14.257-9.048C53.469,216.158,53.18,215.763,52.915,215.345Z"/><path class="cls-2" d="M49,208.723c-.239-.434-.445-.878-.678-1.313l-14.8,8.135,1.424,2.589L49.743,210C49.5,209.569,49.237,209.157,49,208.723Z"/><path class="cls-2" d="M45.506,201.868c-.211-.448-.39-.9-.595-1.353l-15.279,7.19,1.258,2.674,15.279-7.19C45.954,202.744,45.716,202.316,45.506,201.868Z"/><path class="cls-2" d="M42.45,194.807c-.182-.46-.332-.926-.509-1.387l-15.7,6.216,1.088,2.747,15.7-6.216C42.842,195.709,42.632,195.268,42.45,194.807Z"/><path class="cls-2" d="M39.844,187.568c-.153-.471-.273-.945-.42-1.416l-16.06,5.218.913,2.81,16.06-5.218C40.179,188.494,40,188.04,39.844,187.568Z"/><path class="cls-2" d="M37.7,180.181c-.123-.48-.213-.961-.331-1.441l-16.356,4.2.735,2.863L38.1,181.6C37.973,181.125,37.821,180.661,37.7,180.181Z"/><path class="cls-2" d="M36.019,172.672c-.093-.486-.152-.971-.239-1.458l-16.588,3.164.554,2.9,16.588-3.164C36.235,173.632,36.112,173.159,36.019,172.672Z"/><path class="cls-2" d="M34.816,165.074c-.062-.492-.091-.98-.148-1.471l-16.753,2.116.37,2.932,16.754-2.116C34.971,166.045,34.878,165.565,34.816,165.074Z"/><path class="cls-2" d="M34.092,157.415c-.031-.5-.029-.984-.055-1.478L17.184,157l.185,2.95,16.854-1.06C34.186,158.394,34.123,157.909,34.092,157.415Z"/><path class="cls-2" d="M33.85,149.725c0-.5.033-.984.038-1.478H17V151.2H33.888C33.883,150.708,33.85,150.22,33.85,149.725Z"/><path class="cls-2" d="M34.092,142.035c.031-.5.094-.979.131-1.472L17.369,139.5l-.185,2.949,16.853,1.06C34.063,143.018,34.061,142.53,34.092,142.035Z"/><path class="cls-2" d="M34.816,134.376c.062-.492.155-.972.223-1.461L18.285,130.8l-.37,2.932,16.753,2.116C34.725,135.355,34.754,134.867,34.816,134.376Z"/><path class="cls-2" d="M36.019,126.777c.093-.487.216-.96.315-1.444l-16.588-3.164-.554,2.9,16.588,3.164C35.867,127.749,35.926,127.264,36.019,126.777Z"/><path class="cls-2" d="M37.7,119.269c.123-.48.275-.945.4-1.422l-16.356-4.2-.735,2.862,16.356,4.2C37.485,120.229,37.575,119.749,37.7,119.269Z"/><path class="cls-2" d="M39.844,111.881c.153-.472.335-.925.493-1.394l-16.06-5.218-.913,2.811,16.06,5.218C39.571,112.826,39.691,112.352,39.844,111.881Z"/><path class="cls-2" d="M42.45,104.642c.182-.461.392-.9.579-1.36l-15.7-6.216-1.088,2.748,15.7,6.216C42.118,105.568,42.268,105.1,42.45,104.642Z"/><path class="cls-2" d="M45.506,97.581c.21-.448.448-.875.663-1.32L30.89,89.071l-1.258,2.674,15.279,7.19C45.116,98.485,45.3,98.03,45.506,97.581Z"/><path class="cls-2" d="M49,90.727c.239-.435.5-.846.745-1.277l-14.8-8.135-1.424,2.59,14.8,8.135C48.553,91.6,48.759,91.161,49,90.727Z"/><path class="cls-2" d="M52.915,84.105c.265-.419.554-.813.823-1.228L39.481,73.829l-1.584,2.5,14.258,9.048C52.415,84.952,52.649,84.523,52.915,84.105Z"/><path class="cls-2" d="M57.239,77.741c.291-.4.6-.776.9-1.173L44.477,66.643l-1.737,2.39L56.4,78.959C56.687,78.556,56.948,78.142,57.239,77.741Z"/><path class="cls-2" d="M61.954,71.662c.316-.381.652-.736.971-1.114L49.914,59.784l-1.883,2.277L61.042,72.825C61.352,72.441,61.638,72.044,61.954,71.662Z"/><path class="cls-2" d="M67.042,65.891c.339-.361.7-.694,1.039-1.05l-12.31-11.56-2.023,2.154,12.31,11.559C66.393,66.631,66.7,66.253,67.042,65.891Z"/><path class="cls-2" d="M72.482,60.451c.361-.339.739-.649,1.1-.983L62.026,47.158l-2.154,2.023,11.559,12.31C71.787,61.148,72.121,60.791,72.482,60.451Z"/><path class="cls-2" d="M78.253,55.363c.382-.315.778-.6,1.163-.912L68.652,41.44l-2.277,1.883L77.139,56.335C77.516,56.016,77.871,55.68,78.253,55.363Z"/><path class="cls-2" d="M84.332,50.648c.4-.291.815-.552,1.218-.837L75.624,36.149l-2.391,1.737,9.926,13.661C83.556,51.252,83.931,50.94,84.332,50.648Z"/><path class="cls-2" d="M90.7,46.324c.419-.266.848-.5,1.268-.76L82.915,31.306l-2.5,1.584,9.048,14.258C89.883,46.878,90.277,46.59,90.7,46.324Z"/><path class="cls-2" d="M97.317,42.408c.435-.239.878-.446,1.314-.679L90.5,26.931l-2.589,1.424,8.135,14.8C96.471,42.91,96.883,42.646,97.317,42.408Z"/><path class="cls-2" d="M104.172,38.915c.449-.211.9-.39,1.353-.595L98.336,23.041,95.662,24.3l7.19,15.279C103.3,39.363,103.724,39.126,104.172,38.915Z"/><path class="cls-2" d="M111.233,35.859c.461-.182.926-.331,1.388-.508L106.4,19.65l-2.747,1.088,6.216,15.7C110.331,36.252,110.772,36.042,111.233,35.859Z"/><path class="cls-2" d="M118.472,33.253c.471-.153.945-.273,1.417-.42l-5.219-16.06-2.81.913,5.218,16.06C117.547,33.588,118,33.406,118.472,33.253Z"/><path class="cls-2" d="M125.86,31.107c.48-.124.96-.213,1.44-.331L123.1,14.42l-2.863.735,4.2,16.356C124.915,31.383,125.379,31.23,125.86,31.107Z"/><path class="cls-2" d="M133.368,29.429c.487-.093.972-.153,1.458-.24L131.662,12.6l-2.9.554,3.164,16.587C132.408,29.645,132.881,29.522,133.368,29.429Z"/><path class="cls-2" d="M140.966,28.225c.492-.062.98-.091,1.471-.147l-2.116-16.754-2.932.371,2.116,16.753C140,28.38,140.475,28.287,140.966,28.225Z"/><path class="cls-2" d="M148.626,27.5c.5-.031.983-.029,1.477-.055l-1.061-16.853-2.949.186,1.061,16.853C147.646,27.6,148.131,27.532,148.626,27.5Z"/><path class="cls-3" d="M120.143,137.991a8.4,8.4,0,0,0-5.211,1.9V121.863h13.626a1.841,1.841,0,0,0,1.9-1.9v-2.606a1.839,1.839,0,0,0-1.9-1.9H109.824a1.842,1.842,0,0,0-1.9,1.9v33.258a2.2,2.2,0,0,0,2.407,2.4h1.7c1.4,0,1.8-1.1,1.8-3.005,0-3.2,1.4-6.011,4.807-6.011,3.706,0,5.511,2.606,5.511,15.126,0,12.624-2.3,14.924-5.61,14.924-5.611,0-5.009-6.109-4.808-9.214.1-2.1-.5-3.306-2-3.306h-2.4a2.372,2.372,0,0,0-2.506,2.7c0,10.319,2.605,16.029,12.022,16.029,8.814,0,12.12-6.514,12.12-21.137S127.857,137.991,120.143,137.991Z"/><path class="cls-3" d="M147.394,114.851c-7.812,0-12.619,4.906-12.619,19.331s4.407,19.335,11.618,19.335c2.506,0,5.709-1.2,7.115-3.908,0,17.328-.705,24.34-6.41,24.34-4.21,0-5.113-4.205-4.812-9.115.1-2.1-.5-3.306-2-3.306h-2.3a2.372,2.372,0,0,0-2.507,2.7c0,12.224,4.309,16.029,11.623,16.029,12.92,0,13.32-13.221,13.32-37.265C160.418,122.762,157.511,114.851,147.394,114.851Zm0,32.655c-3.1,0-5.409-1.7-5.409-13.324s2.3-13.32,5.409-13.32,6.011,1.7,6.011,13.32S150.5,147.506,147.394,147.506Z"/><path class="cls-3" d="M184.866,130.175c0-10.418-3.105-15.724-9.916-15.724-6.613,0-9.919,5.306-9.919,15.724,0,10.319,3.306,15.728,9.919,15.728C181.761,145.9,184.866,140.494,184.866,130.175Zm-13.923,0c0-6.811.8-10.315,4.007-10.315,3.307,0,4.007,3.5,4.007,10.315,0,6.711-.7,10.319-4.007,10.319C171.743,140.494,170.943,136.886,170.943,130.175Z"/><path class="cls-3" d="M201.9,115.452h-2a2.892,2.892,0,0,0-2.506,1.9l-28.146,60.4c-.5,1.105.2,1.9,1.3,1.9h2a2.879,2.879,0,0,0,2.5-1.9l28.15-60.4C203.7,116.252,203,115.452,201.9,115.452Z"/><path class="cls-3" d="M197.489,149.209c-6.613,0-9.919,5.306-9.919,15.724,0,10.319,3.306,15.728,9.919,15.728,6.811,0,9.915-5.409,9.915-15.728C207.4,154.515,204.3,149.209,197.489,149.209Zm0,26.043c-3.208,0-4.007-3.607-4.007-10.319,0-6.81.8-10.315,4.007-10.315,3.3,0,4.007,3.5,4.007,10.315C201.5,171.645,200.791,175.252,197.489,175.252Z"/></svg>