<svg id="Layer_1" data-name="Layer 1" xmlns="http://www.w3.org/2000/svg" viewBox="0 0 300 300"><defs><style>.cls-1{fill:#fcad22;}.cls-2{fill:#e6e6e6;}.cls-3{fill:#5e5e5e;}</style></defs><path class="cls-1" d="M150.646,289.668a138.17,138.17,0,0,1-83.167-27.535l10.092-13.54A122.431,122.431,0,1,0,150.646,27.927l-1.41.008-.14-16.886,1.55-.009c76.818,0,139.314,62.5,139.314,139.314S227.464,289.668,150.646,289.668Z"/><path class="cls-2" d="M72.582,244.716c-.382-.316-.737-.652-1.115-.971L60.7,256.756l2.277,1.884,10.764-13.012C73.36,245.318,72.964,245.032,72.582,244.716Z"/><path class="cls-2" d="M66.811,239.628c-.361-.339-.7-.7-1.051-1.039L54.2,250.9l2.154,2.023,11.56-12.31C67.55,240.278,67.172,239.967,66.811,239.628Z"/><path class="cls-2" d="M61.371,234.188c-.339-.361-.65-.739-.984-1.1l-12.31,11.559L50.1,246.8l12.31-11.56C62.068,234.883,61.71,234.549,61.371,234.188Z"/><path class="cls-2" d="M56.283,228.417c-.316-.382-.6-.778-.913-1.163L42.359,238.018l1.884,2.277,13.011-10.764C56.935,229.154,56.6,228.8,56.283,228.417Z"/><path class="cls-2" d="M51.568,222.338c-.292-.4-.552-.815-.838-1.218l-13.662,9.926,1.738,2.391,13.661-9.926C52.172,223.115,51.859,222.739,51.568,222.338Z"/><path class="cls-2" d="M47.243,215.975c-.265-.418-.5-.848-.76-1.268l-14.257,9.048,1.583,2.5L48.067,217.2C47.8,216.788,47.509,216.393,47.243,215.975Z"/><path class="cls-2" d="M43.327,209.353c-.239-.435-.445-.877-.679-1.313l-14.8,8.135,1.423,2.59,14.8-8.136C43.829,210.2,43.565,209.787,43.327,209.353Z"/><path class="cls-2" d="M39.834,202.5c-.211-.449-.389-.9-.594-1.353l-15.28,7.19,1.258,2.674,15.28-7.19C40.282,203.374,40.045,202.947,39.834,202.5Z"/><path class="cls-2" d="M36.779,195.437c-.183-.46-.332-.926-.509-1.388l-15.7,6.217,1.088,2.747,15.7-6.216C37.171,196.34,36.961,195.9,36.779,195.437Z"/><path class="cls-2" d="M34.173,188.2c-.154-.472-.273-.946-.421-1.418L17.692,192l.913,2.81,16.06-5.218C34.508,189.124,34.326,188.67,34.173,188.2Z"/><path class="cls-2" d="M32.026,180.811c-.123-.48-.213-.961-.331-1.441l-16.355,4.2.735,2.862,16.355-4.2C32.3,181.755,32.149,181.291,32.026,180.811Z"/><path class="cls-2" d="M30.348,173.3c-.093-.488-.152-.973-.239-1.459l-16.588,3.164.554,2.9,16.587-3.164C30.564,174.262,30.441,173.789,30.348,173.3Z"/><path class="cls-2" d="M29.144,165.7c-.062-.492-.09-.98-.147-1.471L12.243,166.35l.371,2.931,16.753-2.116C29.3,166.675,29.206,166.2,29.144,165.7Z"/><path class="cls-2" d="M28.42,158.044c-.031-.494-.029-.983-.055-1.477l-16.853,1.061.186,2.949,16.853-1.06C28.514,159.024,28.452,158.539,28.42,158.044Z"/><path class="cls-2" d="M28.179,150.355c0-.5.032-.983.038-1.478H11.33v2.955H28.217C28.211,151.338,28.179,150.85,28.179,150.355Z"/><path class="cls-2" d="M28.42,142.665c.032-.494.094-.979.131-1.472L11.7,140.132l-.186,2.95,16.853,1.06C28.391,143.649,28.389,143.16,28.42,142.665Z"/><path class="cls-2" d="M29.144,135.006c.062-.492.156-.972.223-1.461l-16.753-2.117-.371,2.932L29,136.477C29.054,135.986,29.082,135.5,29.144,135.006Z"/><path class="cls-2" d="M30.348,127.407c.093-.487.216-.96.314-1.444L14.075,122.8l-.554,2.9,16.588,3.165C30.2,128.379,30.255,127.894,30.348,127.407Z"/><path class="cls-2" d="M32.026,119.9c.123-.48.276-.944.4-1.422l-16.355-4.2-.735,2.862,16.355,4.2C31.813,120.859,31.9,120.379,32.026,119.9Z"/><path class="cls-2" d="M34.173,112.511c.153-.471.335-.925.492-1.394L18.605,105.9l-.913,2.811,16.06,5.218C33.9,113.456,34.019,112.982,34.173,112.511Z"/><path class="cls-2" d="M36.779,105.272c.182-.461.392-.9.579-1.359L21.657,97.7l-1.088,2.748,15.7,6.216C36.447,106.2,36.6,105.733,36.779,105.272Z"/><path class="cls-2" d="M39.834,98.212c.211-.449.448-.876.664-1.321L25.218,89.7,23.96,92.375l15.28,7.19C39.445,99.115,39.623,98.66,39.834,98.212Z"/><path class="cls-2" d="M43.327,91.357c.238-.435.5-.846.745-1.277l-14.8-8.135-1.423,2.589,14.8,8.136C42.882,92.234,43.088,91.791,43.327,91.357Z"/><path class="cls-2" d="M47.243,84.735c.266-.419.555-.813.824-1.228L33.809,74.459l-1.583,2.495L46.483,86C46.744,85.582,46.978,85.153,47.243,84.735Z"/><path class="cls-2" d="M51.568,78.371c.291-.4.6-.776.9-1.172L38.806,67.273l-1.738,2.391L50.73,79.589C51.016,79.186,51.276,78.772,51.568,78.371Z"/><path class="cls-2" d="M56.283,72.293c.316-.383.652-.738.971-1.115L44.243,60.414l-1.884,2.277L55.37,73.455C55.681,73.071,55.967,72.674,56.283,72.293Z"/><path class="cls-2" d="M61.371,66.522c.339-.362.7-.7,1.039-1.052L50.1,53.911l-2.023,2.154,12.31,11.56C60.721,67.26,61.032,66.883,61.371,66.522Z"/><path class="cls-2" d="M66.811,61.081c.361-.339.739-.649,1.1-.983l-11.56-12.31L54.2,49.811l11.56,12.31C66.116,61.778,66.45,61.421,66.811,61.081Z"/><path class="cls-2" d="M72.582,55.994c.382-.317.778-.6,1.163-.913L62.981,42.07,60.7,43.954,71.467,56.965C71.845,56.646,72.2,56.309,72.582,55.994Z"/><path class="cls-2" d="M78.661,51.278c.4-.291.815-.551,1.218-.837L69.953,36.779l-2.391,1.737,9.926,13.661C77.884,51.883,78.26,51.569,78.661,51.278Z"/><path class="cls-2" d="M85.024,46.954c.418-.266.848-.5,1.268-.76L77.243,31.937,74.749,33.52,83.8,47.778C84.211,47.508,84.606,47.219,85.024,46.954Z"/><path class="cls-2" d="M91.646,43.037c.434-.238.877-.444,1.313-.678l-8.135-14.8-2.59,1.424,8.135,14.8C90.8,43.54,91.212,43.276,91.646,43.037Z"/><path class="cls-2" d="M98.5,39.545c.448-.211.9-.389,1.353-.595l-7.19-15.279L89.99,24.929l7.19,15.279C97.625,39.993,98.052,39.756,98.5,39.545Z"/><path class="cls-2" d="M105.562,36.489c.46-.182.926-.331,1.387-.508l-6.216-15.7-2.747,1.088,6.216,15.7C104.659,36.882,105.1,36.672,105.562,36.489Z"/><path class="cls-2" d="M112.8,33.883c.472-.153.945-.272,1.417-.42L109,17.4l-2.81.913,5.218,16.06C111.875,34.218,112.329,34.037,112.8,33.883Z"/><path class="cls-2" d="M120.188,31.737c.48-.123.961-.213,1.441-.331l-4.2-16.356-2.862.735,4.2,16.356C119.244,32.013,119.708,31.86,120.188,31.737Z"/><path class="cls-2" d="M127.7,30.059c.487-.093.972-.152,1.459-.24l-3.164-16.587-2.9.553,3.164,16.588C126.737,30.275,127.209,30.151,127.7,30.059Z"/><path class="cls-2" d="M135.295,28.855c.492-.062.98-.091,1.471-.147l-2.117-16.754-2.931.371,2.116,16.753C134.324,29.011,134.8,28.917,135.295,28.855Z"/><path class="cls-2" d="M142.954,28.131c.5-.031.984-.029,1.478-.055l-1.061-16.853-2.949.186,1.06,16.853C141.975,28.225,142.46,28.162,142.954,28.131Z"/><path class="cls-3" d="M113.921,142.224c-2.507,0-5.71,1.2-7.112,3.908,0-17.331.7-24.34,6.411-24.34,4.2,0,5.108,4.2,4.807,9.115-.1,2.1.5,3.3,2,3.3h2.3a2.37,2.37,0,0,0,2.5-2.705c0-12.219-4.308-16.025-11.618-16.025C100.3,115.48,99.9,128.7,99.9,152.741c0,20.234,2.906,28.15,13.023,28.15,7.813,0,12.62-4.911,12.62-19.336S121.132,142.224,113.921,142.224Zm-1,32.656c-3.1,0-6.011-1.7-6.011-13.325s2.907-13.32,6.011-13.32,5.409,1.7,5.409,13.32S116.023,174.88,112.919,174.88Z"/><path class="cls-3" d="M143.176,115.48c-8.312,0-12.822,5.611-12.822,32.656s4.51,32.755,12.822,32.755S156,175.181,156,148.136,151.491,115.48,143.176,115.48Zm0,58.9c-3.6,0-5.607-2.3-5.607-26.241s2-26.146,5.607-26.146,5.611,2.2,5.611,26.146S146.783,174.377,143.176,174.377Z"/><path class="cls-3" d="M180.445,130.8c0-10.418-3.1-15.724-9.915-15.724-6.613,0-9.919,5.306-9.919,15.724,0,10.319,3.306,15.728,9.919,15.728C177.34,146.532,180.445,141.123,180.445,130.8Zm-13.922,0c0-6.81.8-10.315,4.007-10.315,3.306,0,4.007,3.5,4.007,10.315,0,6.712-.7,10.319-4.007,10.319C167.322,141.123,166.523,137.516,166.523,130.8Z"/><path class="cls-3" d="M193.068,149.839c-6.613,0-9.919,5.306-9.919,15.724,0,10.319,3.306,15.728,9.919,15.728,6.811,0,9.916-5.409,9.916-15.728C202.984,155.145,199.879,149.839,193.068,149.839Zm0,26.043c-3.207,0-4.007-3.608-4.007-10.319,0-6.811.8-10.315,4.007-10.315,3.3,0,4.008,3.5,4.008,10.315C197.076,172.274,196.371,175.882,193.068,175.882Z"/><path class="cls-3" d="M197.476,116.082h-2a2.892,2.892,0,0,0-2.507,1.9l-28.145,60.4c-.5,1.105.2,1.905,1.3,1.905h2a2.878,2.878,0,0,0,2.5-1.905l28.15-60.4C199.277,116.882,198.576,116.082,197.476,116.082Z"/></svg>