<svg id="Layer_1" data-name="Layer 1" xmlns="http://www.w3.org/2000/svg" viewBox="0 0 300 300"><defs><style>.cls-1{fill:#fcad22;}.cls-2{fill:#e6e6e6;}.cls-3{fill:#5e5e5e;}</style></defs><path class="cls-1" d="M151.275,289.668A139.411,139.411,0,0,1,61.261,256.69L72.178,243.8a122.428,122.428,0,1,0,79.1-215.876l-1.4.008-.14-16.886,1.537-.009c76.818,0,139.314,62.5,139.314,139.314S228.093,289.668,151.275,289.668Z"/><path class="cls-2" d="M67.441,239.628c-.362-.339-.7-.7-1.051-1.039L54.83,250.9l2.154,2.023,11.56-12.31C68.18,240.278,67.8,239.967,67.441,239.628Z"/><path class="cls-2" d="M62,234.188c-.34-.361-.649-.739-.984-1.1l-12.31,11.559L50.73,246.8l12.31-11.56C62.7,234.883,62.34,234.549,62,234.188Z"/><path class="cls-2" d="M56.913,228.417c-.316-.382-.6-.778-.912-1.163L42.989,238.018l1.884,2.277,13.011-10.764C57.565,229.154,57.229,228.8,56.913,228.417Z"/><path class="cls-2" d="M52.2,222.338c-.291-.4-.552-.815-.838-1.218L37.7,231.046l1.736,2.391L53.1,223.511C52.8,223.115,52.489,222.739,52.2,222.338Z"/><path class="cls-2" d="M47.873,215.975c-.265-.418-.5-.848-.759-1.268l-14.258,9.048,1.584,2.5L48.7,217.2C48.428,216.788,48.139,216.393,47.873,215.975Z"/><path class="cls-2" d="M43.957,209.353c-.239-.435-.445-.877-.678-1.313l-14.8,8.135,1.424,2.59,14.8-8.136C44.459,210.2,44.2,209.787,43.957,209.353Z"/><path class="cls-2" d="M40.464,202.5c-.211-.449-.389-.9-.594-1.353l-15.28,7.19,1.259,2.674,15.279-7.19C40.913,203.374,40.675,202.947,40.464,202.5Z"/><path class="cls-2" d="M37.409,195.437c-.183-.46-.332-.926-.509-1.388l-15.7,6.217,1.088,2.747,15.7-6.216C37.8,196.34,37.591,195.9,37.409,195.437Z"/><path class="cls-2" d="M34.8,188.2c-.153-.472-.273-.946-.42-1.418L18.322,192l.914,2.81,16.06-5.218C35.138,189.124,34.956,188.67,34.8,188.2Z"/><path class="cls-2" d="M32.656,180.811c-.123-.48-.212-.961-.33-1.441l-16.356,4.2.735,2.862,16.356-4.2C32.932,181.755,32.78,181.291,32.656,180.811Z"/><path class="cls-2" d="M30.978,173.3c-.093-.488-.152-.973-.24-1.459l-16.587,3.164.554,2.9,16.587-3.164C31.194,174.262,31.071,173.789,30.978,173.3Z"/><path class="cls-2" d="M29.775,165.7c-.062-.492-.092-.98-.148-1.471L12.874,166.35l.37,2.931L30,167.165C29.93,166.675,29.837,166.2,29.775,165.7Z"/><path class="cls-2" d="M29.051,158.044c-.032-.494-.03-.983-.055-1.477l-16.853,1.061.185,2.949,16.853-1.06C29.145,159.024,29.082,158.539,29.051,158.044Z"/><path class="cls-2" d="M28.809,150.355c0-.5.033-.983.038-1.478H11.961v2.955H28.847C28.842,151.338,28.809,150.85,28.809,150.355Z"/><path class="cls-2" d="M29.051,142.665c.031-.494.094-.979.13-1.472l-16.853-1.061-.185,2.95L29,144.142C29.021,143.649,29.019,143.16,29.051,142.665Z"/><path class="cls-2" d="M29.775,135.006c.062-.492.155-.972.223-1.461l-16.754-2.117-.37,2.932,16.753,2.117C29.683,135.986,29.713,135.5,29.775,135.006Z"/><path class="cls-2" d="M30.978,127.407c.093-.487.216-.96.314-1.444L14.705,122.8l-.554,2.9,16.587,3.165C30.826,128.379,30.885,127.894,30.978,127.407Z"/><path class="cls-2" d="M32.656,119.9c.124-.48.276-.944.405-1.422l-16.356-4.2-.735,2.862,16.356,4.2C32.444,120.859,32.533,120.379,32.656,119.9Z"/><path class="cls-2" d="M34.8,112.511c.153-.471.335-.925.493-1.394L19.236,105.9l-.914,2.811,16.061,5.218C34.53,113.456,34.65,112.982,34.8,112.511Z"/><path class="cls-2" d="M37.409,105.272c.182-.461.392-.9.579-1.359L22.288,97.7,21.2,100.444l15.7,6.216C37.077,106.2,37.226,105.733,37.409,105.272Z"/><path class="cls-2" d="M40.464,98.212c.211-.449.449-.876.664-1.321L25.849,89.7,24.59,92.375l15.28,7.19C40.075,99.115,40.253,98.66,40.464,98.212Z"/><path class="cls-2" d="M43.957,91.357c.239-.435.5-.846.745-1.277l-14.8-8.135-1.424,2.589,14.8,8.136C43.512,92.234,43.718,91.791,43.957,91.357Z"/><path class="cls-2" d="M47.873,84.735c.266-.419.555-.813.824-1.228L34.44,74.459l-1.584,2.495L47.114,86C47.374,85.582,47.608,85.153,47.873,84.735Z"/><path class="cls-2" d="M52.2,78.371c.291-.4.6-.776.9-1.172L39.435,67.273,37.7,69.664,51.36,79.589C51.646,79.186,51.907,78.772,52.2,78.371Z"/><path class="cls-2" d="M56.913,72.293c.316-.383.652-.738.971-1.115L44.873,60.414l-1.884,2.277L56,73.455C56.311,73.071,56.6,72.674,56.913,72.293Z"/><path class="cls-2" d="M62,66.522c.339-.362.7-.7,1.039-1.052L50.73,53.911l-2.023,2.154,12.31,11.56C61.352,67.26,61.661,66.883,62,66.522Z"/><path class="cls-2" d="M67.441,61.081c.361-.339.739-.649,1.1-.983l-11.56-12.31L54.83,49.811l11.56,12.31C66.746,61.778,67.079,61.421,67.441,61.081Z"/><path class="cls-2" d="M73.212,55.994c.382-.317.778-.6,1.162-.913L63.611,42.07l-2.277,1.884L72.1,56.965C72.475,56.646,72.83,56.309,73.212,55.994Z"/><path class="cls-2" d="M79.291,51.278c.4-.291.815-.551,1.217-.837L70.583,36.779l-2.391,1.737,9.926,13.661C78.515,51.883,78.89,51.569,79.291,51.278Z"/><path class="cls-2" d="M85.654,46.954c.419-.266.848-.5,1.268-.76L77.874,31.937,75.379,33.52l9.048,14.258C84.841,47.508,85.235,47.219,85.654,46.954Z"/><path class="cls-2" d="M92.276,43.037c.434-.238.878-.444,1.313-.678l-8.135-14.8-2.589,1.424L91,43.783C91.43,43.54,91.842,43.276,92.276,43.037Z"/><path class="cls-2" d="M99.131,39.545c.448-.211.9-.389,1.353-.595l-7.19-15.279-2.673,1.258L97.81,40.208C98.255,39.993,98.683,39.756,99.131,39.545Z"/><path class="cls-2" d="M106.192,36.489c.461-.182.926-.331,1.388-.508l-6.217-15.7-2.748,1.088,6.217,15.7C105.289,36.882,105.731,36.672,106.192,36.489Z"/><path class="cls-2" d="M113.43,33.883c.472-.153.946-.272,1.417-.42L109.629,17.4l-2.81.913,5.218,16.06C112.505,34.218,112.959,34.037,113.43,33.883Z"/><path class="cls-2" d="M120.818,31.737c.48-.123.961-.213,1.441-.331l-4.2-16.356-2.862.735,4.2,16.356C119.874,32.013,120.338,31.86,120.818,31.737Z"/><path class="cls-2" d="M128.326,30.059c.487-.093.973-.152,1.459-.24l-3.164-16.587-2.9.553,3.164,16.588C127.367,30.275,127.84,30.151,128.326,30.059Z"/><path class="cls-2" d="M135.925,28.855c.492-.062.98-.091,1.471-.147l-2.117-16.754-2.931.371,2.116,16.753C134.954,29.011,135.434,28.917,135.925,28.855Z"/><path class="cls-2" d="M143.585,28.131c.494-.031.983-.029,1.476-.055L144,11.223l-2.949.186,1.06,16.853C142.6,28.225,143.09,28.162,143.585,28.131Z"/><path class="cls-3" d="M120.862,142.224c-2.506,0-5.71,1.2-7.111,3.908,0-17.331.7-24.34,6.41-24.34,4.206,0,5.109,4.2,4.808,9.115-.1,2.1.5,3.3,2,3.3h2.3a2.37,2.37,0,0,0,2.5-2.705c0-12.219-4.308-16.025-11.618-16.025-12.924,0-13.324,13.222-13.324,37.261,0,20.234,2.906,28.15,13.023,28.15,7.813,0,12.62-4.911,12.62-19.336S128.073,142.224,120.862,142.224Zm-1,32.656c-3.1,0-6.01-1.7-6.01-13.325s2.906-13.32,6.01-13.32,5.41,1.7,5.41,13.32S122.965,174.88,119.86,174.88Z"/><path class="cls-3" d="M146.612,116.082h-2a1.842,1.842,0,0,0-1.905,1.9v.7c0,3.607-1.7,5.211-4.708,5.211h-.9a1.84,1.84,0,0,0-1.9,1.9V128a1.844,1.844,0,0,0,1.9,1.905h4.2v48.478a1.841,1.841,0,0,0,1.905,1.905h3.405a1.84,1.84,0,0,0,1.9-1.905v-60.4A1.839,1.839,0,0,0,146.612,116.082Z"/><path class="cls-3" d="M174.762,130.8c0-10.418-3.1-15.724-9.915-15.724-6.612,0-9.919,5.306-9.919,15.724,0,10.319,3.307,15.728,9.919,15.728C171.658,146.532,174.762,141.123,174.762,130.8Zm-13.922,0c0-6.81.8-10.315,4.007-10.315,3.307,0,4.008,3.5,4.008,10.315,0,6.712-.7,10.319-4.008,10.319C161.64,141.123,160.84,137.516,160.84,130.8Z"/><path class="cls-3" d="M187.386,149.839c-6.613,0-9.919,5.306-9.919,15.724,0,10.319,3.306,15.728,9.919,15.728,6.811,0,9.915-5.409,9.915-15.728C197.3,155.145,194.2,149.839,187.386,149.839Zm0,26.043c-3.207,0-4.007-3.608-4.007-10.319,0-6.811.8-10.315,4.007-10.315,3.3,0,4.007,3.5,4.007,10.315C191.393,172.274,190.688,175.882,187.386,175.882Z"/><path class="cls-3" d="M191.793,116.082h-2a2.887,2.887,0,0,0-2.507,1.9l-28.146,60.4c-.5,1.105.2,1.905,1.3,1.905h2a2.878,2.878,0,0,0,2.5-1.905l28.15-60.4C193.6,116.882,192.894,116.082,191.793,116.082Z"/></svg>