<svg id="Layer_1" data-name="Layer 1" xmlns="http://www.w3.org/2000/svg" viewBox="0 0 300 300"><defs><style>.cls-1{fill:#fcad22;}.cls-2{fill:#e6e6e6;}.cls-3{fill:#5e5e5e;}</style></defs><path class="cls-1" d="M151.905,289.668A138.663,138.663,0,0,1,55.4,250.828L67.1,238.65A122.427,122.427,0,1,0,151.905,27.927l-1.4.008-.14-16.886,1.538-.009c76.818,0,139.314,62.5,139.314,139.314S228.723,289.668,151.905,289.668Z"/><path class="cls-2" d="M62.631,234.188c-.339-.361-.65-.739-.984-1.1L49.338,244.644l2.023,2.155,12.309-11.56C63.328,234.883,62.97,234.549,62.631,234.188Z"/><path class="cls-2" d="M57.543,228.417c-.316-.382-.6-.778-.912-1.163L43.619,238.018,45.5,240.3l13.011-10.764C58.2,229.154,57.859,228.8,57.543,228.417Z"/><path class="cls-2" d="M52.828,222.338c-.292-.4-.552-.815-.838-1.218l-13.662,9.926,1.738,2.391,13.661-9.926C53.432,223.115,53.119,222.739,52.828,222.338Z"/><path class="cls-2" d="M48.5,215.975c-.265-.418-.5-.848-.759-1.268l-14.258,9.048,1.583,2.5L49.328,217.2C49.058,216.788,48.769,216.393,48.5,215.975Z"/><path class="cls-2" d="M44.587,209.353c-.238-.435-.445-.877-.678-1.313l-14.8,8.135,1.424,2.59,14.8-8.136C45.089,210.2,44.826,209.787,44.587,209.353Z"/><path class="cls-2" d="M41.094,202.5c-.211-.449-.389-.9-.594-1.353l-15.28,7.19,1.259,2.674,15.279-7.19C41.542,203.374,41.306,202.947,41.094,202.5Z"/><path class="cls-2" d="M38.039,195.437c-.182-.46-.332-.926-.508-1.388l-15.7,6.217,1.088,2.747,15.7-6.216C38.431,196.34,38.221,195.9,38.039,195.437Z"/><path class="cls-2" d="M35.433,188.2c-.153-.472-.273-.946-.421-1.418L18.952,192l.914,2.81,16.06-5.218C35.768,189.124,35.586,188.67,35.433,188.2Z"/><path class="cls-2" d="M33.287,180.811c-.124-.48-.214-.961-.331-1.441L16.6,183.57l.735,2.862,16.356-4.2C33.563,181.755,33.41,181.291,33.287,180.811Z"/><path class="cls-2" d="M31.608,173.3c-.093-.488-.152-.973-.239-1.459l-16.588,3.164.554,2.9,16.588-3.164C31.825,174.262,31.7,173.789,31.608,173.3Z"/><path class="cls-2" d="M30.405,165.7c-.063-.492-.091-.98-.148-1.471L13.5,166.35l.37,2.931,16.754-2.116C30.56,166.675,30.467,166.2,30.405,165.7Z"/><path class="cls-2" d="M29.681,158.044c-.031-.494-.03-.983-.055-1.477l-16.853,1.061.185,2.949,16.853-1.06C29.775,159.024,29.712,158.539,29.681,158.044Z"/><path class="cls-2" d="M29.439,150.355c0-.5.033-.983.038-1.478H12.59v2.955H29.477C29.472,151.338,29.439,150.85,29.439,150.355Z"/><path class="cls-2" d="M29.681,142.665c.031-.494.094-.979.13-1.472l-16.853-1.061-.185,2.95,16.853,1.06C29.651,143.649,29.65,143.16,29.681,142.665Z"/><path class="cls-2" d="M30.405,135.006c.062-.492.155-.972.223-1.461l-16.754-2.117-.37,2.932,16.753,2.117C30.314,135.986,30.342,135.5,30.405,135.006Z"/><path class="cls-2" d="M31.608,127.407c.093-.487.217-.96.315-1.444L15.335,122.8l-.554,2.9,16.588,3.165C31.456,128.379,31.515,127.894,31.608,127.407Z"/><path class="cls-2" d="M33.287,119.9c.123-.48.276-.944.4-1.422l-16.356-4.2L16.6,117.14l16.356,4.2C33.073,120.859,33.163,120.379,33.287,119.9Z"/><path class="cls-2" d="M35.433,112.511c.153-.471.335-.925.493-1.394L19.866,105.9l-.914,2.811,16.06,5.218C35.16,113.456,35.28,112.982,35.433,112.511Z"/><path class="cls-2" d="M38.039,105.272c.182-.461.392-.9.58-1.359L22.918,97.7l-1.088,2.748,15.7,6.216C37.707,106.2,37.857,105.733,38.039,105.272Z"/><path class="cls-2" d="M41.094,98.212c.212-.449.448-.876.664-1.321L26.479,89.7,25.22,92.375l15.28,7.19C40.705,99.115,40.883,98.66,41.094,98.212Z"/><path class="cls-2" d="M44.587,91.357c.239-.435.5-.846.746-1.277l-14.8-8.135-1.424,2.589,14.8,8.136C44.142,92.234,44.349,91.791,44.587,91.357Z"/><path class="cls-2" d="M48.5,84.735c.266-.419.555-.813.825-1.228L35.069,74.459l-1.583,2.495L47.744,86C48,85.582,48.238,85.153,48.5,84.735Z"/><path class="cls-2" d="M52.828,78.371c.291-.4.6-.776.9-1.172L40.066,67.273l-1.738,2.391L51.99,79.589C52.276,79.186,52.536,78.772,52.828,78.371Z"/><path class="cls-2" d="M57.543,72.293c.316-.383.652-.738.971-1.115L45.5,60.414l-1.884,2.277L56.631,73.455C56.942,73.071,57.227,72.674,57.543,72.293Z"/><path class="cls-2" d="M62.631,66.522c.339-.362.7-.7,1.039-1.052L51.361,53.911l-2.023,2.154,12.309,11.56C61.981,67.26,62.292,66.883,62.631,66.522Z"/><path class="cls-2" d="M68.071,61.081c.362-.339.739-.649,1.1-.983L57.615,47.788,55.46,49.811l11.56,12.31C67.377,61.778,67.71,61.421,68.071,61.081Z"/><path class="cls-2" d="M73.842,55.994c.382-.317.779-.6,1.163-.913L64.241,42.07l-2.277,1.884L72.728,56.965C73.105,56.646,73.46,56.309,73.842,55.994Z"/><path class="cls-2" d="M79.921,51.278c.4-.291.815-.551,1.218-.837L71.213,36.779l-2.39,1.737,9.925,13.661C79.144,51.883,79.52,51.569,79.921,51.278Z"/><path class="cls-2" d="M86.284,46.954c.418-.266.848-.5,1.268-.76L78.5,31.937l-2.5,1.583,9.048,14.258C85.471,47.508,85.866,47.219,86.284,46.954Z"/><path class="cls-2" d="M92.906,43.037c.435-.238.878-.444,1.313-.678l-8.135-14.8L83.5,28.985l8.135,14.8C92.06,43.54,92.472,43.276,92.906,43.037Z"/><path class="cls-2" d="M99.761,39.545c.449-.211.9-.389,1.353-.595l-7.19-15.279L91.25,24.929l7.19,15.279C98.885,39.993,99.313,39.756,99.761,39.545Z"/><path class="cls-2" d="M106.822,36.489c.461-.182.926-.331,1.388-.508l-6.217-15.7-2.747,1.088,6.216,15.7C105.92,36.882,106.361,36.672,106.822,36.489Z"/><path class="cls-2" d="M114.061,33.883c.471-.153.945-.272,1.417-.42L110.259,17.4l-2.81.913,5.218,16.06C113.135,34.218,113.589,34.037,114.061,33.883Z"/><path class="cls-2" d="M121.449,31.737c.48-.123.96-.213,1.44-.331l-4.2-16.356-2.863.735,4.2,16.356C120.5,32.013,120.969,31.86,121.449,31.737Z"/><path class="cls-2" d="M128.957,30.059c.487-.093.972-.152,1.458-.24l-3.164-16.587-2.9.553,3.165,16.588C128,30.275,128.47,30.151,128.957,30.059Z"/><path class="cls-2" d="M136.555,28.855c.492-.062.98-.091,1.471-.147L135.91,11.954l-2.932.371,2.116,16.753C135.584,29.011,136.064,28.917,136.555,28.855Z"/><path class="cls-2" d="M144.215,28.131c.494-.031.983-.029,1.477-.055l-1.06-16.853-2.95.186,1.06,16.853C143.236,28.225,143.72,28.162,144.215,28.131Z"/><path class="cls-3" d="M117.035,142.224c-2.507,0-5.71,1.2-7.111,3.908,0-17.331.7-24.34,6.41-24.34,4.206,0,5.108,4.2,4.807,9.115-.1,2.1.5,3.3,2,3.3h2.305a2.37,2.37,0,0,0,2.5-2.705c0-12.219-4.308-16.025-11.618-16.025-12.924,0-13.324,13.222-13.324,37.261,0,20.234,2.906,28.15,13.023,28.15,7.813,0,12.62-4.911,12.62-19.336S124.246,142.224,117.035,142.224Zm-1,32.656c-3.1,0-6.01-1.7-6.01-13.325s2.906-13.32,6.01-13.32,5.409,1.7,5.409,13.32S119.138,174.88,116.033,174.88Z"/><path class="cls-3" d="M144.187,115.48c-8.014,0-12.322,3.806-12.322,16.025a2.373,2.373,0,0,0,2.506,2.705h2.4c1.5,0,2.1-1.2,2-3.3-.3-4.91.4-9.115,5.108-9.115,3.806,0,5.71,2.5,5.71,9.915,0,13.922-10.719,25.441-17.229,41.169a7.826,7.826,0,0,0-.6,3.208v2.4a1.735,1.735,0,0,0,1.8,1.8h20.638a1.84,1.84,0,0,0,1.9-1.905v-2.6a1.84,1.84,0,0,0-1.9-1.905H139.079c5.508-14.124,17.728-26.946,17.728-41.169C156.807,120.489,152.3,115.48,144.187,115.48Z"/><path class="cls-3" d="M179.853,130.8c0-10.418-3.105-15.724-9.916-15.724-6.612,0-9.919,5.306-9.919,15.724,0,10.319,3.307,15.728,9.919,15.728C176.748,146.532,179.853,141.123,179.853,130.8Zm-13.923,0c0-6.81.8-10.315,4.007-10.315,3.307,0,4.008,3.5,4.008,10.315,0,6.712-.7,10.319-4.008,10.319C166.73,141.123,165.93,137.516,165.93,130.8Z"/><path class="cls-3" d="M192.476,149.839c-6.613,0-9.919,5.306-9.919,15.724,0,10.319,3.306,15.728,9.919,15.728,6.811,0,9.915-5.409,9.915-15.728C202.391,155.145,199.287,149.839,192.476,149.839Zm0,26.043c-3.207,0-4.007-3.608-4.007-10.319,0-6.811.8-10.315,4.007-10.315,3.3,0,4.007,3.5,4.007,10.315C196.483,172.274,195.778,175.882,192.476,175.882Z"/><path class="cls-3" d="M196.884,116.082h-2a2.887,2.887,0,0,0-2.507,1.9l-28.145,60.4c-.5,1.105.2,1.905,1.3,1.905h2a2.88,2.88,0,0,0,2.5-1.905l28.149-60.4C198.685,116.882,197.984,116.082,196.884,116.082Z"/></svg>