<svg id="Layer_1" data-name="Layer 1" xmlns="http://www.w3.org/2000/svg" viewBox="0 0 300 300"><defs><style>.cls-1{fill:#fcad22;}.cls-2{fill:#e6e6e6;}.cls-3{fill:#5e5e5e;}</style></defs><path class="cls-1" d="M152.535,289.668a139.689,139.689,0,0,1-102.622-45.1l12.434-11.42A122.428,122.428,0,1,0,152.535,27.927l-1.406.008-.14-16.886,1.546-.009c76.818,0,139.313,62.5,139.313,139.314S229.353,289.668,152.535,289.668Z"/><path class="cls-2" d="M58.173,228.417c-.316-.382-.6-.778-.912-1.163L44.249,238.018l1.884,2.277,13.011-10.764C58.825,229.154,58.489,228.8,58.173,228.417Z"/><path class="cls-2" d="M53.458,222.338c-.291-.4-.552-.815-.838-1.218l-13.661,9.926,1.737,2.391,13.661-9.926C54.062,223.115,53.749,222.739,53.458,222.338Z"/><path class="cls-2" d="M49.133,215.975c-.265-.418-.5-.848-.759-1.268l-14.258,9.048,1.584,2.5L49.957,217.2C49.688,216.788,49.4,216.393,49.133,215.975Z"/><path class="cls-2" d="M45.217,209.353c-.239-.435-.445-.877-.678-1.313l-14.8,8.135,1.424,2.59,14.8-8.136C45.719,210.2,45.456,209.787,45.217,209.353Z"/><path class="cls-2" d="M41.724,202.5c-.211-.449-.389-.9-.594-1.353l-15.279,7.19,1.258,2.674,15.279-7.19C42.173,203.374,41.936,202.947,41.724,202.5Z"/><path class="cls-2" d="M38.669,195.437c-.182-.46-.332-.926-.509-1.388l-15.7,6.217,1.088,2.747,15.7-6.216C39.061,196.34,38.852,195.9,38.669,195.437Z"/><path class="cls-2" d="M36.063,188.2c-.153-.472-.273-.946-.42-1.418L19.583,192l.913,2.81,16.06-5.218C36.4,189.124,36.216,188.67,36.063,188.2Z"/><path class="cls-2" d="M33.916,180.811c-.123-.48-.212-.961-.33-1.441l-16.356,4.2.735,2.862,16.356-4.2C34.193,181.755,34.04,181.291,33.916,180.811Z"/><path class="cls-2" d="M32.238,173.3c-.092-.488-.152-.973-.239-1.459l-16.588,3.164.554,2.9,16.587-3.164C32.454,174.262,32.331,173.789,32.238,173.3Z"/><path class="cls-2" d="M31.035,165.7c-.062-.492-.091-.98-.148-1.471L14.134,166.35l.371,2.931,16.753-2.116C31.19,166.675,31.1,166.2,31.035,165.7Z"/><path class="cls-2" d="M30.311,158.044c-.031-.494-.029-.983-.055-1.477L13.4,157.628l.185,2.949,16.854-1.06C30.405,159.024,30.342,158.539,30.311,158.044Z"/><path class="cls-2" d="M30.069,150.355c0-.5.033-.983.038-1.478H13.221v2.955H30.107C30.1,151.338,30.069,150.85,30.069,150.355Z"/><path class="cls-2" d="M30.311,142.665c.031-.494.094-.979.131-1.472l-16.854-1.061-.185,2.95,16.853,1.06C30.282,143.649,30.28,143.16,30.311,142.665Z"/><path class="cls-2" d="M31.035,135.006c.062-.492.155-.972.223-1.461l-16.753-2.117-.371,2.932,16.753,2.117C30.944,135.986,30.973,135.5,31.035,135.006Z"/><path class="cls-2" d="M32.238,127.407c.093-.487.216-.96.314-1.444L15.965,122.8l-.554,2.9L32,128.866C32.086,128.379,32.146,127.894,32.238,127.407Z"/><path class="cls-2" d="M33.916,119.9c.124-.48.277-.944.405-1.422l-16.356-4.2-.735,2.862,16.356,4.2C33.7,120.859,33.793,120.379,33.916,119.9Z"/><path class="cls-2" d="M36.063,112.511c.153-.471.335-.925.493-1.394L20.5,105.9l-.913,2.811,16.06,5.218C35.79,113.456,35.91,112.982,36.063,112.511Z"/><path class="cls-2" d="M38.669,105.272c.183-.461.392-.9.579-1.359L23.548,97.7l-1.088,2.748,15.7,6.216C38.337,106.2,38.487,105.733,38.669,105.272Z"/><path class="cls-2" d="M41.724,98.212c.212-.449.449-.876.664-1.321L27.109,89.7l-1.258,2.674,15.279,7.19C41.335,99.115,41.513,98.66,41.724,98.212Z"/><path class="cls-2" d="M45.217,91.357c.239-.435.5-.846.745-1.277l-14.8-8.135-1.424,2.589,14.8,8.136C44.772,92.234,44.978,91.791,45.217,91.357Z"/><path class="cls-2" d="M49.133,84.735c.266-.419.555-.813.824-1.228L35.7,74.459l-1.584,2.495L48.374,86C48.634,85.582,48.868,85.153,49.133,84.735Z"/><path class="cls-2" d="M53.458,78.371c.291-.4.6-.776.9-1.172L40.7,67.273l-1.737,2.391L52.62,79.589C52.906,79.186,53.167,78.772,53.458,78.371Z"/><path class="cls-2" d="M58.173,72.293c.316-.383.652-.738.971-1.115L46.133,60.414l-1.884,2.277L57.261,73.455C57.572,73.071,57.857,72.674,58.173,72.293Z"/><path class="cls-2" d="M63.261,66.522c.339-.362.7-.7,1.039-1.052L51.991,53.911l-2.023,2.154,12.309,11.56C62.612,67.26,62.922,66.883,63.261,66.522Z"/><path class="cls-2" d="M68.7,61.081c.361-.339.739-.649,1.1-.983L58.245,47.788l-2.154,2.023L67.65,62.121C68.007,61.778,68.34,61.421,68.7,61.081Z"/><path class="cls-2" d="M74.472,55.994c.382-.317.778-.6,1.163-.913L64.871,42.07l-2.277,1.884L73.358,56.965C73.735,56.646,74.09,56.309,74.472,55.994Z"/><path class="cls-2" d="M80.551,51.278c.4-.291.815-.551,1.218-.837L71.843,36.779l-2.391,1.737,9.926,13.661C79.775,51.883,80.15,51.569,80.551,51.278Z"/><path class="cls-2" d="M86.914,46.954c.419-.266.848-.5,1.268-.76L79.134,31.937l-2.5,1.583,9.048,14.258C86.1,47.508,86.5,47.219,86.914,46.954Z"/><path class="cls-2" d="M93.536,43.037c.434-.238.878-.444,1.313-.678l-8.135-14.8-2.589,1.424,8.135,14.8C92.69,43.54,93.1,43.276,93.536,43.037Z"/><path class="cls-2" d="M100.391,39.545c.449-.211.9-.389,1.354-.595L94.554,23.671l-2.673,1.258,7.19,15.279C99.516,39.993,99.943,39.756,100.391,39.545Z"/><path class="cls-2" d="M107.452,36.489c.461-.182.926-.331,1.388-.508l-6.217-15.7-2.747,1.088,6.216,15.7C106.55,36.882,106.991,36.672,107.452,36.489Z"/><path class="cls-2" d="M114.691,33.883c.471-.153.945-.272,1.416-.42L110.889,17.4l-2.81.913,5.218,16.06C113.765,34.218,114.219,34.037,114.691,33.883Z"/><path class="cls-2" d="M122.078,31.737c.48-.123.961-.213,1.441-.331l-4.2-16.356-2.863.735,4.2,16.356C121.134,32.013,121.6,31.86,122.078,31.737Z"/><path class="cls-2" d="M129.587,30.059c.486-.093.972-.152,1.458-.24l-3.164-16.587-2.9.553,3.164,16.588C128.627,30.275,129.1,30.151,129.587,30.059Z"/><path class="cls-2" d="M137.186,28.855c.491-.062.979-.091,1.47-.147L136.54,11.954l-2.932.371,2.116,16.753C136.214,29.011,136.694,28.917,137.186,28.855Z"/><path class="cls-2" d="M144.845,28.131c.494-.031.983-.029,1.477-.055l-1.06-16.853-2.95.186,1.06,16.853C143.865,28.225,144.35,28.162,144.845,28.131Z"/><path class="cls-3" d="M117.211,142.224c-2.506,0-5.71,1.2-7.111,3.908,0-17.331.7-24.34,6.411-24.34,4.2,0,5.107,4.2,4.806,9.115-.1,2.1.5,3.3,2,3.3h2.3a2.371,2.371,0,0,0,2.5-2.705c0-12.219-4.308-16.025-11.617-16.025-12.925,0-13.325,13.222-13.325,37.261,0,20.234,2.906,28.15,13.024,28.15,7.812,0,12.619-4.911,12.619-19.336S124.422,142.224,117.211,142.224Zm-1,32.656c-3.1,0-6.011-1.7-6.011-13.325s2.906-13.32,6.011-13.32,5.408,1.7,5.408,13.32S119.314,174.88,116.21,174.88Z"/><path class="cls-3" d="M151.574,147.031c2.906-2.2,4.91-6.51,4.91-14.12,0-12.422-4.609-17.431-12.121-17.431-8.014,0-12.021,3.806-12.021,16.025a2.373,2.373,0,0,0,2.506,2.705h2.4c1.5,0,2.1-1.2,2-3.3-.3-4.91.4-9.115,4.807-9.115,3.006,0,5.211,1.5,5.211,11.119,0,10.117-1.9,11.416-4.708,11.416h-2.807a1.842,1.842,0,0,0-1.9,1.9v2.1a1.84,1.84,0,0,0,1.9,1.905h2.807c3.1,0,5.409,1.3,5.409,12.318s-2.2,12.022-5.71,12.022c-4.407,0-5.31-4.308-5.009-10.216.1-2.1-.5-3.306-2-3.306h-2.4a2.372,2.372,0,0,0-2.506,2.7c0,13.221,4.007,17.13,12.021,17.13,7.512,0,12.822-4.407,12.822-18.334C157.185,154.044,154.979,149.336,151.574,147.031Z"/><path class="cls-3" d="M180.931,130.8c0-10.418-3.1-15.724-9.915-15.724-6.612,0-9.919,5.306-9.919,15.724,0,10.319,3.307,15.728,9.919,15.728C177.827,146.532,180.931,141.123,180.931,130.8Zm-13.922,0c0-6.81.8-10.315,4.007-10.315,3.307,0,4.008,3.5,4.008,10.315,0,6.712-.7,10.319-4.008,10.319C167.809,141.123,167.009,137.516,167.009,130.8Z"/><path class="cls-3" d="M193.555,149.839c-6.612,0-9.919,5.306-9.919,15.724,0,10.319,3.307,15.728,9.919,15.728,6.811,0,9.915-5.409,9.915-15.728C203.47,155.145,200.366,149.839,193.555,149.839Zm0,26.043c-3.207,0-4.007-3.608-4.007-10.319,0-6.811.8-10.315,4.007-10.315,3.3,0,4.007,3.5,4.007,10.315C197.562,172.274,196.857,175.882,193.555,175.882Z"/><path class="cls-3" d="M197.962,116.082h-2a2.892,2.892,0,0,0-2.507,1.9l-28.145,60.4c-.5,1.105.2,1.905,1.3,1.905h2a2.878,2.878,0,0,0,2.5-1.905l28.15-60.4C199.764,116.882,199.063,116.082,197.962,116.082Z"/></svg>