<svg id="Layer_1" data-name="Layer 1" xmlns="http://www.w3.org/2000/svg" viewBox="0 0 300 300"><defs><style>.cls-1{fill:#fcad22;}.cls-2{fill:#e6e6e6;}.cls-3{fill:#5e5e5e;}</style></defs><path class="cls-1" d="M153.164,289.668a138.82,138.82,0,0,1-108.34-51.719l13.127-10.628A122.429,122.429,0,1,0,153.164,27.927l-1.406.008-.14-16.886,1.546-.009c76.818,0,139.314,62.5,139.314,139.314S229.982,289.668,153.164,289.668Z"/><path class="cls-2" d="M54.088,222.338c-.291-.4-.552-.815-.837-1.218l-13.662,9.926,1.737,2.391,13.661-9.926C54.692,223.115,54.38,222.739,54.088,222.338Z"/><path class="cls-2" d="M49.764,215.975c-.266-.418-.5-.848-.76-1.268l-14.258,9.048,1.584,2.5L50.588,217.2C50.318,216.788,50.03,216.393,49.764,215.975Z"/><path class="cls-2" d="M45.848,209.353c-.239-.435-.446-.877-.679-1.313l-14.8,8.135,1.424,2.59,14.8-8.136C46.35,210.2,46.086,209.787,45.848,209.353Z"/><path class="cls-2" d="M42.355,202.5c-.211-.449-.39-.9-.595-1.353l-15.279,7.19,1.258,2.674,15.279-7.19C42.8,203.374,42.566,202.947,42.355,202.5Z"/><path class="cls-2" d="M39.3,195.437c-.182-.46-.331-.926-.508-1.388l-15.7,6.217,1.088,2.747,15.7-6.216C39.692,196.34,39.482,195.9,39.3,195.437Z"/><path class="cls-2" d="M36.693,188.2c-.153-.472-.273-.946-.42-1.418L20.213,192l.913,2.81,16.06-5.218C37.028,189.124,36.846,188.67,36.693,188.2Z"/><path class="cls-2" d="M34.547,180.811c-.124-.48-.213-.961-.331-1.441l-16.356,4.2.735,2.862,16.356-4.2C34.823,181.755,34.67,181.291,34.547,180.811Z"/><path class="cls-2" d="M32.869,173.3c-.093-.488-.153-.973-.24-1.459l-16.587,3.164.554,2.9,16.587-3.164C33.085,174.262,32.962,173.789,32.869,173.3Z"/><path class="cls-2" d="M31.665,165.7c-.062-.492-.091-.98-.147-1.471L14.764,166.35l.371,2.931,16.753-2.116C31.82,166.675,31.727,166.2,31.665,165.7Z"/><path class="cls-2" d="M30.941,158.044c-.031-.494-.029-.983-.055-1.477l-16.853,1.061.186,2.949,16.853-1.06C31.035,159.024,30.972,158.539,30.941,158.044Z"/><path class="cls-2" d="M30.7,150.355c0-.5.032-.983.038-1.478H13.851v2.955H30.738C30.732,151.338,30.7,150.85,30.7,150.355Z"/><path class="cls-2" d="M30.941,142.665c.031-.494.094-.979.131-1.472l-16.853-1.061-.186,2.95,16.853,1.06C30.912,143.649,30.91,143.16,30.941,142.665Z"/><path class="cls-2" d="M31.665,135.006c.062-.492.155-.972.223-1.461l-16.753-2.117-.371,2.932,16.754,2.117C31.574,135.986,31.6,135.5,31.665,135.006Z"/><path class="cls-2" d="M32.869,127.407c.093-.487.216-.96.314-1.444L16.6,122.8l-.554,2.9,16.587,3.165C32.716,128.379,32.776,127.894,32.869,127.407Z"/><path class="cls-2" d="M34.547,119.9c.123-.48.276-.944.4-1.422l-16.356-4.2-.735,2.862,16.356,4.2C34.334,120.859,34.423,120.379,34.547,119.9Z"/><path class="cls-2" d="M36.693,112.511c.153-.471.335-.925.493-1.394L21.126,105.9l-.913,2.811,16.06,5.218C36.42,113.456,36.54,112.982,36.693,112.511Z"/><path class="cls-2" d="M39.3,105.272c.183-.461.393-.9.58-1.359L24.178,97.7l-1.088,2.748,15.7,6.216C38.968,106.2,39.117,105.733,39.3,105.272Z"/><path class="cls-2" d="M42.355,98.212c.211-.449.448-.876.663-1.321L27.739,89.7l-1.258,2.674,15.279,7.19C41.965,99.115,42.144,98.66,42.355,98.212Z"/><path class="cls-2" d="M45.848,91.357c.238-.435.5-.846.745-1.277L31.8,81.945l-1.424,2.589,14.8,8.136C45.4,92.234,45.609,91.791,45.848,91.357Z"/><path class="cls-2" d="M49.764,84.735c.266-.419.554-.813.824-1.228L36.33,74.459l-1.584,2.495L49,86C49.265,85.582,49.5,85.153,49.764,84.735Z"/><path class="cls-2" d="M54.088,78.371c.292-.4.6-.776.9-1.172L41.326,67.273l-1.737,2.391,13.662,9.925C53.536,79.186,53.8,78.772,54.088,78.371Z"/><path class="cls-2" d="M58.8,72.293c.317-.383.653-.738.972-1.115L46.763,60.414,44.88,62.691,57.891,73.455C58.2,73.071,58.488,72.674,58.8,72.293Z"/><path class="cls-2" d="M63.891,66.522c.34-.362.7-.7,1.04-1.052L52.621,53.911,50.6,56.065l12.31,11.56C63.242,67.26,63.552,66.883,63.891,66.522Z"/><path class="cls-2" d="M69.331,61.081c.362-.339.739-.649,1.1-.983L58.875,47.788l-2.154,2.023,11.56,12.31C68.637,61.778,68.97,61.421,69.331,61.081Z"/><path class="cls-2" d="M75.1,55.994c.382-.317.779-.6,1.163-.913L65.5,42.07l-2.277,1.884L73.988,56.965C74.366,56.646,74.721,56.309,75.1,55.994Z"/><path class="cls-2" d="M81.181,51.278c.4-.291.815-.551,1.218-.837L72.473,36.779l-2.39,1.737,9.925,13.661C80.405,51.883,80.78,51.569,81.181,51.278Z"/><path class="cls-2" d="M87.545,46.954c.418-.266.847-.5,1.267-.76L79.764,31.937,77.269,33.52l9.048,14.258C86.732,47.508,87.126,47.219,87.545,46.954Z"/><path class="cls-2" d="M94.167,43.037c.434-.238.877-.444,1.313-.678l-8.135-14.8-2.59,1.424,8.135,14.8C93.321,43.54,93.732,43.276,94.167,43.037Z"/><path class="cls-2" d="M101.021,39.545c.449-.211.9-.389,1.354-.595l-7.19-15.279-2.674,1.258L99.7,40.208C100.146,39.993,100.573,39.756,101.021,39.545Z"/><path class="cls-2" d="M108.082,36.489c.461-.182.926-.331,1.388-.508l-6.216-15.7-2.748,1.088,6.216,15.7C107.18,36.882,107.621,36.672,108.082,36.489Z"/><path class="cls-2" d="M115.321,33.883c.471-.153.945-.272,1.417-.42L111.52,17.4l-2.811.913,5.218,16.06C114.4,34.218,114.849,34.037,115.321,33.883Z"/><path class="cls-2" d="M122.709,31.737c.48-.123.961-.213,1.441-.331l-4.2-16.356-2.862.735,4.2,16.356C121.764,32.013,122.229,31.86,122.709,31.737Z"/><path class="cls-2" d="M130.217,30.059c.487-.093.972-.152,1.458-.24l-3.164-16.587-2.9.553,3.164,16.588C129.257,30.275,129.73,30.151,130.217,30.059Z"/><path class="cls-2" d="M137.816,28.855c.491-.062.979-.091,1.471-.147L137.17,11.954l-2.932.371,2.117,16.753C136.844,29.011,137.324,28.917,137.816,28.855Z"/><path class="cls-2" d="M145.475,28.131c.494-.031.983-.029,1.477-.055l-1.06-16.853-2.949.186L144,28.262C144.5,28.225,144.98,28.162,145.475,28.131Z"/><path class="cls-3" d="M117.643,142.224c-2.507,0-5.71,1.2-7.112,3.908,0-17.331.7-24.34,6.411-24.34,4.205,0,5.108,4.2,4.807,9.115-.1,2.1.5,3.3,2,3.3h2.3a2.371,2.371,0,0,0,2.5-2.705c0-12.219-4.308-16.025-11.618-16.025-12.925,0-13.324,13.222-13.324,37.261,0,20.234,2.906,28.15,13.023,28.15,7.813,0,12.62-4.911,12.62-19.336S124.853,142.224,117.643,142.224Zm-1,32.656c-3.1,0-6.011-1.7-6.011-13.325s2.907-13.32,6.011-13.32,5.409,1.7,5.409,13.32S119.746,174.88,116.641,174.88Z"/><path class="cls-3" d="M158.016,159.754h-3.9v-11.42a1.842,1.842,0,0,0-1.905-1.9H149a1.838,1.838,0,0,0-1.9,1.9v11.42h-7.714l9.915-37.863a19.8,19.8,0,0,0,.8-4.007,1.735,1.735,0,0,0-1.806-1.8h-3.1a1.949,1.949,0,0,0-2,1.7l-10.216,40.967a17.923,17.923,0,0,0-.6,3.208v2.4a1.734,1.734,0,0,0,1.806,1.8H147.1v12.22a1.839,1.839,0,0,0,1.9,1.905h3.207a1.843,1.843,0,0,0,1.905-1.905v-12.22h3.9a1.842,1.842,0,0,0,1.905-1.9v-2.605A1.846,1.846,0,0,0,158.016,159.754Z"/><path class="cls-3" d="M181.763,130.8c0-10.418-3.1-15.724-9.915-15.724-6.613,0-9.919,5.306-9.919,15.724,0,10.319,3.306,15.728,9.919,15.728C178.659,146.532,181.763,141.123,181.763,130.8Zm-13.922,0c0-6.81.8-10.315,4.007-10.315,3.306,0,4.007,3.5,4.007,10.315,0,6.712-.7,10.319-4.007,10.319C168.64,141.123,167.841,137.516,167.841,130.8Z"/><path class="cls-3" d="M194.387,149.839c-6.613,0-9.92,5.306-9.92,15.724,0,10.319,3.307,15.728,9.92,15.728,6.81,0,9.915-5.409,9.915-15.728C204.3,155.145,201.2,149.839,194.387,149.839Zm0,26.043c-3.208,0-4.008-3.608-4.008-10.319,0-6.811.8-10.315,4.008-10.315,3.3,0,4.007,3.5,4.007,10.315C198.394,172.274,197.689,175.882,194.387,175.882Z"/><path class="cls-3" d="M198.794,116.082h-2a2.887,2.887,0,0,0-2.506,1.9l-28.146,60.4c-.5,1.105.2,1.905,1.3,1.905h2a2.88,2.88,0,0,0,2.5-1.905l28.15-60.4C200.6,116.882,199.894,116.082,198.794,116.082Z"/></svg>