<svg id="Layer_1" data-name="Layer 1" xmlns="http://www.w3.org/2000/svg" viewBox="0 0 300 300"><defs><style>.cls-1{fill:#fcad22;}.cls-2{fill:#e6e6e6;}.cls-3{fill:#5e5e5e;}</style></defs><path class="cls-1" d="M154.427,289.668A138.574,138.574,0,0,1,35.953,223.684l14.348-8.9A122.436,122.436,0,1,0,154.427,27.927l-1.41.008-.14-16.886,1.55-.009c76.818,0,139.314,62.5,139.314,139.314S231.245,289.668,154.427,289.668Z"/><path class="cls-2" d="M47.108,209.353c-.239-.435-.445-.877-.679-1.313l-14.8,8.135,1.423,2.59,14.8-8.136C47.61,210.2,47.347,209.787,47.108,209.353Z"/><path class="cls-2" d="M43.615,202.5c-.211-.449-.389-.9-.595-1.353l-15.279,7.19L29,211.009l15.28-7.19C44.063,203.374,43.826,202.947,43.615,202.5Z"/><path class="cls-2" d="M40.56,195.437c-.183-.46-.332-.926-.509-1.388l-15.7,6.217,1.088,2.747,15.7-6.216C40.952,196.34,40.742,195.9,40.56,195.437Z"/><path class="cls-2" d="M37.954,188.2c-.154-.472-.273-.946-.421-1.418L21.473,192l.913,2.81,16.06-5.218C38.288,189.124,38.107,188.67,37.954,188.2Z"/><path class="cls-2" d="M35.807,180.811c-.123-.48-.213-.961-.33-1.441l-16.356,4.2.734,2.862,16.356-4.2C36.083,181.755,35.931,181.291,35.807,180.811Z"/><path class="cls-2" d="M34.129,173.3c-.093-.488-.152-.973-.24-1.459L17.3,175.008l.554,2.9,16.587-3.164C34.345,174.262,34.222,173.789,34.129,173.3Z"/><path class="cls-2" d="M32.925,165.7c-.062-.492-.091-.98-.147-1.471L16.025,166.35l.37,2.931,16.754-2.116C33.081,166.675,32.988,166.2,32.925,165.7Z"/><path class="cls-2" d="M32.2,158.044c-.031-.494-.029-.983-.054-1.477l-16.853,1.061.185,2.949,16.853-1.06C32.3,159.024,32.232,158.539,32.2,158.044Z"/><path class="cls-2" d="M31.96,150.355c0-.5.032-.983.038-1.478H15.111v2.955H32C31.992,151.338,31.96,150.85,31.96,150.355Z"/><path class="cls-2" d="M32.2,142.665c.031-.494.095-.979.131-1.472l-16.853-1.061-.185,2.95,16.853,1.06C32.172,143.649,32.17,143.16,32.2,142.665Z"/><path class="cls-2" d="M32.925,135.006c.063-.492.156-.972.224-1.461L16.4,131.428l-.37,2.932,16.753,2.117C32.834,135.986,32.863,135.5,32.925,135.006Z"/><path class="cls-2" d="M34.129,127.407c.093-.487.216-.96.314-1.444L17.856,122.8l-.554,2.9,16.587,3.165C33.977,128.379,34.036,127.894,34.129,127.407Z"/><path class="cls-2" d="M35.807,119.9c.124-.48.276-.944.4-1.422l-16.356-4.2-.734,2.862,16.356,4.2C35.594,120.859,35.684,120.379,35.807,119.9Z"/><path class="cls-2" d="M37.954,112.511c.153-.471.334-.925.492-1.394L22.386,105.9l-.913,2.811,16.06,5.218C37.681,113.456,37.8,112.982,37.954,112.511Z"/><path class="cls-2" d="M40.56,105.272c.182-.461.392-.9.579-1.359L25.438,97.7l-1.088,2.748,15.7,6.216C40.228,106.2,40.377,105.733,40.56,105.272Z"/><path class="cls-2" d="M43.615,98.212c.211-.449.448-.876.664-1.321L29,89.7l-1.258,2.674,15.279,7.19C43.226,99.115,43.4,98.66,43.615,98.212Z"/><path class="cls-2" d="M47.108,91.357c.239-.435.5-.846.745-1.277l-14.8-8.135-1.423,2.589,14.8,8.136C46.663,92.234,46.869,91.791,47.108,91.357Z"/><path class="cls-2" d="M51.024,84.735c.266-.419.554-.813.824-1.228L37.59,74.459l-1.583,2.495L50.265,86C50.525,85.582,50.759,85.153,51.024,84.735Z"/><path class="cls-2" d="M55.348,78.371c.292-.4.605-.776.9-1.172L42.586,67.273l-1.737,2.391,13.662,9.925C54.8,79.186,55.057,78.772,55.348,78.371Z"/><path class="cls-2" d="M60.064,72.293c.316-.383.652-.738.971-1.115L48.024,60.414,46.14,62.691,59.151,73.455C59.462,73.071,59.748,72.674,60.064,72.293Z"/><path class="cls-2" d="M65.152,66.522c.339-.362.7-.7,1.039-1.052L53.881,53.911l-2.023,2.154,12.31,11.56C64.5,67.26,64.812,66.883,65.152,66.522Z"/><path class="cls-2" d="M70.592,61.081c.361-.339.739-.649,1.1-.983l-11.56-12.31-2.154,2.023,11.56,12.31C69.9,61.778,70.23,61.421,70.592,61.081Z"/><path class="cls-2" d="M76.363,55.994c.381-.317.778-.6,1.162-.913L66.762,42.07l-2.278,1.884L75.248,56.965C75.626,56.646,75.981,56.309,76.363,55.994Z"/><path class="cls-2" d="M82.442,51.278c.4-.291.814-.551,1.217-.837L73.734,36.779l-2.391,1.737,9.926,13.661C81.665,51.883,82.041,51.569,82.442,51.278Z"/><path class="cls-2" d="M88.805,46.954c.418-.266.847-.5,1.268-.76L81.024,31.937l-2.5,1.583,9.049,14.258C87.992,47.508,88.386,47.219,88.805,46.954Z"/><path class="cls-2" d="M95.427,43.037c.434-.238.877-.444,1.313-.678l-8.135-14.8-2.59,1.424,8.136,14.8C94.581,43.54,94.992,43.276,95.427,43.037Z"/><path class="cls-2" d="M102.282,39.545c.448-.211.9-.389,1.353-.595l-7.19-15.279-2.674,1.258,7.19,15.279C101.406,39.993,101.834,39.756,102.282,39.545Z"/><path class="cls-2" d="M109.343,36.489c.46-.182.926-.331,1.387-.508l-6.216-15.7-2.748,1.088,6.217,15.7C108.44,36.882,108.882,36.672,109.343,36.489Z"/><path class="cls-2" d="M116.581,33.883c.472-.153.945-.272,1.417-.42L112.78,17.4l-2.81.913,5.218,16.06C115.656,34.218,116.11,34.037,116.581,33.883Z"/><path class="cls-2" d="M123.969,31.737c.48-.123.961-.213,1.441-.331l-4.2-16.356-2.862.735,4.2,16.356C123.025,32.013,123.489,31.86,123.969,31.737Z"/><path class="cls-2" d="M131.477,30.059c.487-.093.972-.152,1.459-.24l-3.165-16.587-2.9.553,3.164,16.588C130.517,30.275,130.991,30.151,131.477,30.059Z"/><path class="cls-2" d="M139.076,28.855c.492-.062.98-.091,1.471-.147L138.43,11.954l-2.931.371,2.116,16.753C138.1,29.011,138.585,28.917,139.076,28.855Z"/><path class="cls-2" d="M146.735,28.131c.495-.031.984-.029,1.477-.055l-1.06-16.853-2.949.186,1.06,16.853C145.756,28.225,146.241,28.162,146.735,28.131Z"/><path class="cls-3" d="M118.4,142.224c-2.506,0-5.71,1.2-7.112,3.908,0-17.331.7-24.34,6.411-24.34,4.2,0,5.108,4.2,4.807,9.115-.1,2.1.5,3.3,2,3.3h2.3a2.37,2.37,0,0,0,2.5-2.705c0-12.219-4.308-16.025-11.618-16.025-12.924,0-13.324,13.222-13.324,37.261,0,20.234,2.906,28.15,13.023,28.15,7.813,0,12.62-4.911,12.62-19.336S125.614,142.224,118.4,142.224Zm-1,32.656c-3.1,0-6.01-1.7-6.01-13.325s2.906-13.32,6.01-13.32,5.409,1.7,5.409,13.32S120.505,174.88,117.4,174.88Z"/><path class="cls-3" d="M148.861,142.224c-2.506,0-5.709,1.2-7.111,3.908,0-17.331.7-24.34,6.41-24.34,4.206,0,5.109,4.2,4.808,9.115-.1,2.1.5,3.3,2,3.3h2.305a2.37,2.37,0,0,0,2.5-2.705c0-12.219-4.308-16.025-11.618-16.025-12.924,0-13.324,13.222-13.324,37.261,0,20.234,2.907,28.15,13.023,28.15,7.813,0,12.62-4.911,12.62-19.336S156.072,142.224,148.861,142.224Zm-1,32.656c-3.1,0-6.01-1.7-6.01-13.325s2.906-13.32,6.01-13.32,5.41,1.7,5.41,13.32S150.964,174.88,147.859,174.88Z"/><path class="cls-3" d="M183.525,130.8c0-10.418-3.1-15.724-9.915-15.724-6.613,0-9.919,5.306-9.919,15.724,0,10.319,3.306,15.728,9.919,15.728C180.421,146.532,183.525,141.123,183.525,130.8Zm-13.922,0c0-6.81.8-10.315,4.007-10.315,3.307,0,4.007,3.5,4.007,10.315,0,6.712-.7,10.319-4.007,10.319C170.4,141.123,169.6,137.516,169.6,130.8Z"/><path class="cls-3" d="M196.149,149.839c-6.613,0-9.919,5.306-9.919,15.724,0,10.319,3.306,15.728,9.919,15.728,6.81,0,9.915-5.409,9.915-15.728C206.064,155.145,202.959,149.839,196.149,149.839Zm0,26.043c-3.208,0-4.008-3.608-4.008-10.319,0-6.811.8-10.315,4.008-10.315,3.3,0,4.007,3.5,4.007,10.315C200.156,172.274,199.451,175.882,196.149,175.882Z"/><path class="cls-3" d="M200.556,116.082h-2a2.885,2.885,0,0,0-2.506,1.9l-28.146,60.4c-.5,1.105.2,1.905,1.3,1.905h2a2.88,2.88,0,0,0,2.5-1.905l28.15-60.4C202.357,116.882,201.657,116.082,200.556,116.082Z"/></svg>