<svg id="Layer_1" data-name="Layer 1" xmlns="http://www.w3.org/2000/svg" viewBox="0 0 300 300"><defs><style>.cls-1{fill:#fcad22;}.cls-2{fill:#e6e6e6;}.cls-3{fill:#5e5e5e;}</style></defs><path class="cls-1" d="M155.057,289.668A139.206,139.206,0,0,1,32.205,216.107l14.882-7.982a122.439,122.439,0,1,0,107.97-180.2l-1.4.008-.14-16.886,1.538-.009c76.818,0,139.313,62.5,139.313,139.314S231.875,289.668,155.057,289.668Z"/><path class="cls-2" d="M44.245,202.5c-.211-.449-.389-.9-.595-1.353l-15.279,7.19,1.258,2.674,15.28-7.19C44.693,203.374,44.456,202.947,44.245,202.5Z"/><path class="cls-2" d="M41.19,195.437c-.183-.46-.332-.926-.509-1.388l-15.7,6.217,1.088,2.747,15.7-6.216C41.582,196.34,41.372,195.9,41.19,195.437Z"/><path class="cls-2" d="M38.583,188.2c-.152-.472-.272-.946-.42-1.418L22.1,192l.913,2.81,16.061-5.218C38.919,189.124,38.737,188.67,38.583,188.2Z"/><path class="cls-2" d="M36.437,180.811c-.123-.48-.213-.961-.33-1.441l-16.356,4.2.735,2.862,16.356-4.2C36.713,181.755,36.56,181.291,36.437,180.811Z"/><path class="cls-2" d="M34.759,173.3c-.093-.488-.152-.973-.24-1.459l-16.587,3.164.554,2.9,16.587-3.164C34.975,174.262,34.852,173.789,34.759,173.3Z"/><path class="cls-2" d="M33.555,165.7c-.062-.492-.091-.98-.147-1.471L16.655,166.35l.37,2.931,16.753-2.116C33.711,166.675,33.618,166.2,33.555,165.7Z"/><path class="cls-2" d="M32.831,158.044c-.031-.494-.029-.983-.054-1.477l-16.854,1.061.186,2.949,16.853-1.06C32.926,159.024,32.863,158.539,32.831,158.044Z"/><path class="cls-2" d="M32.59,150.355c0-.5.032-.983.038-1.478H15.741v2.955H32.628C32.622,151.338,32.59,150.85,32.59,150.355Z"/><path class="cls-2" d="M32.831,142.665c.032-.494.095-.979.131-1.472l-16.853-1.061-.186,2.95,16.854,1.06C32.8,143.649,32.8,143.16,32.831,142.665Z"/><path class="cls-2" d="M33.555,135.006c.063-.492.156-.972.223-1.461l-16.753-2.117-.37,2.932,16.753,2.117C33.464,135.986,33.493,135.5,33.555,135.006Z"/><path class="cls-2" d="M34.759,127.407c.093-.487.216-.96.314-1.444L18.486,122.8l-.554,2.9,16.587,3.165C34.607,128.379,34.666,127.894,34.759,127.407Z"/><path class="cls-2" d="M36.437,119.9c.123-.48.276-.944.405-1.422l-16.356-4.2-.735,2.862,16.356,4.2C36.224,120.859,36.314,120.379,36.437,119.9Z"/><path class="cls-2" d="M38.583,112.511c.154-.471.336-.925.494-1.394L23.016,105.9,22.1,108.71l16.06,5.218C38.311,113.456,38.431,112.982,38.583,112.511Z"/><path class="cls-2" d="M41.19,105.272c.182-.461.392-.9.579-1.359L26.068,97.7l-1.088,2.748,15.7,6.216C40.858,106.2,41.007,105.733,41.19,105.272Z"/><path class="cls-2" d="M44.245,98.212c.211-.449.448-.876.664-1.321L29.629,89.7l-1.258,2.674,15.279,7.19C43.856,99.115,44.034,98.66,44.245,98.212Z"/><path class="cls-2" d="M47.738,91.357c.239-.435.5-.846.745-1.277l-14.8-8.135-1.423,2.589,14.8,8.136C47.293,92.234,47.5,91.791,47.738,91.357Z"/><path class="cls-2" d="M51.654,84.735c.266-.419.555-.813.824-1.228L38.22,74.459l-1.583,2.495L50.9,86C51.155,85.582,51.388,85.153,51.654,84.735Z"/><path class="cls-2" d="M55.979,78.371c.291-.4.6-.776.9-1.172L43.216,67.273l-1.737,2.391,13.662,9.925C55.427,79.186,55.687,78.772,55.979,78.371Z"/><path class="cls-2" d="M60.694,72.293c.316-.383.652-.738.971-1.115L48.654,60.414,46.77,62.691,59.781,73.455C60.092,73.071,60.378,72.674,60.694,72.293Z"/><path class="cls-2" d="M65.782,66.522c.339-.362.7-.7,1.039-1.052L54.511,53.911l-2.023,2.154L64.8,67.625C65.132,67.26,65.442,66.883,65.782,66.522Z"/><path class="cls-2" d="M71.222,61.081c.361-.339.739-.649,1.1-.983l-11.56-12.31-2.154,2.023,11.56,12.31C70.527,61.778,70.86,61.421,71.222,61.081Z"/><path class="cls-2" d="M76.993,55.994c.382-.317.778-.6,1.162-.913L67.391,42.07l-2.276,1.884L75.879,56.965C76.256,56.646,76.611,56.309,76.993,55.994Z"/><path class="cls-2" d="M83.072,51.278c.4-.291.815-.551,1.217-.837L74.364,36.779l-2.391,1.737L81.9,52.177C82.3,51.883,82.671,51.569,83.072,51.278Z"/><path class="cls-2" d="M89.435,46.954c.419-.266.847-.5,1.268-.76L81.655,31.937l-2.5,1.583,9.048,14.258C88.622,47.508,89.016,47.219,89.435,46.954Z"/><path class="cls-2" d="M96.057,43.037c.434-.238.877-.444,1.313-.678l-8.135-14.8-2.59,1.424,8.135,14.8C95.211,43.54,95.623,43.276,96.057,43.037Z"/><path class="cls-2" d="M102.912,39.545c.448-.211.9-.389,1.353-.595l-7.19-15.279L94.4,24.929l7.19,15.279C102.036,39.993,102.464,39.756,102.912,39.545Z"/><path class="cls-2" d="M109.972,36.489c.461-.182.927-.331,1.389-.508l-6.217-15.7L102.4,21.368l6.217,15.7C109.07,36.882,109.512,36.672,109.972,36.489Z"/><path class="cls-2" d="M117.211,33.883c.472-.153.946-.272,1.417-.42L113.41,17.4l-2.811.913,5.219,16.06C116.286,34.218,116.74,34.037,117.211,33.883Z"/><path class="cls-2" d="M124.6,31.737c.48-.123.961-.213,1.441-.331l-4.2-16.356-2.862.735,4.2,16.356C123.655,32.013,124.119,31.86,124.6,31.737Z"/><path class="cls-2" d="M132.107,30.059c.487-.093.973-.152,1.459-.24L130.4,13.232l-2.9.553,3.164,16.588C131.148,30.275,131.621,30.151,132.107,30.059Z"/><path class="cls-2" d="M139.706,28.855c.492-.062.98-.091,1.471-.147L139.06,11.954l-2.932.371,2.117,16.753C138.734,29.011,139.214,28.917,139.706,28.855Z"/><path class="cls-2" d="M147.366,28.131c.494-.031.983-.029,1.476-.055l-1.06-16.853-2.949.186,1.06,16.853C146.386,28.225,146.871,28.162,147.366,28.131Z"/><path class="cls-3" d="M121.589,142.224c-2.507,0-5.71,1.2-7.112,3.908,0-17.331.7-24.34,6.411-24.34,4.2,0,5.108,4.2,4.807,9.115-.1,2.1.5,3.3,2,3.3H130a2.37,2.37,0,0,0,2.5-2.705c0-12.219-4.308-16.025-11.617-16.025-12.925,0-13.325,13.222-13.325,37.261,0,20.234,2.907,28.15,13.024,28.15,7.812,0,12.619-4.911,12.619-19.336S128.8,142.224,121.589,142.224Zm-1,32.656c-3.105,0-6.011-1.7-6.011-13.325s2.906-13.32,6.011-13.32,5.409,1.7,5.409,13.32S123.691,174.88,120.587,174.88Z"/><path class="cls-3" d="M157.555,116.082H137.321a1.842,1.842,0,0,0-1.905,1.9v2.6a1.846,1.846,0,0,0,1.905,1.905h14.825L138.623,174.48a20.021,20.021,0,0,0-.8,4.007,1.734,1.734,0,0,0,1.8,1.8h3.306a1.952,1.952,0,0,0,2-1.7L158.759,123.5a18.271,18.271,0,0,0,.6-3.208v-2.4A1.734,1.734,0,0,0,157.555,116.082Z"/><path class="cls-3" d="M198.634,116.082h-2a2.892,2.892,0,0,0-2.507,1.9l-28.146,60.4c-.5,1.105.2,1.905,1.3,1.905h2a2.878,2.878,0,0,0,2.5-1.905l28.15-60.4C200.435,116.882,199.734,116.082,198.634,116.082Z"/><path class="cls-3" d="M194.226,149.839c-6.613,0-9.919,5.306-9.919,15.724,0,10.319,3.306,15.728,9.919,15.728,6.811,0,9.916-5.409,9.916-15.728C204.142,155.145,201.037,149.839,194.226,149.839Zm0,26.043c-3.207,0-4.007-3.608-4.007-10.319,0-6.811.8-10.315,4.007-10.315,3.3,0,4.008,3.5,4.008,10.315C198.234,172.274,197.529,175.882,194.226,175.882Z"/><path class="cls-3" d="M181.6,130.8c0-10.418-3.105-15.724-9.915-15.724-6.613,0-9.92,5.306-9.92,15.724,0,10.319,3.307,15.728,9.92,15.728C178.5,146.532,181.6,141.123,181.6,130.8Zm-13.923,0c0-6.81.8-10.315,4.008-10.315,3.306,0,4.007,3.5,4.007,10.315,0,6.712-.7,10.319-4.007,10.319C168.48,141.123,167.68,137.516,167.68,130.8Z"/></svg>