<svg id="Layer_1" data-name="Layer 1" xmlns="http://www.w3.org/2000/svg" viewBox="0 0 300 300"><defs><style>.cls-1{fill:#fcad22;}.cls-2{fill:#e6e6e6;}.cls-3{fill:#5e5e5e;}</style></defs><path class="cls-1" d="M155.686,289.668A139.738,139.738,0,0,1,28.943,208.261L44.3,201.236A122.442,122.442,0,1,0,155.686,27.927l-1.4.008-.14-16.886,1.537-.009C232.5,11.04,295,73.536,295,150.354S232.5,289.668,155.686,289.668Z"/><path class="cls-2" d="M41.82,195.437c-.183-.46-.332-.926-.508-1.388l-15.7,6.217,1.088,2.747L42.4,196.8C42.212,196.34,42,195.9,41.82,195.437Z"/><path class="cls-2" d="M39.214,188.2c-.153-.472-.273-.946-.42-1.418L22.733,192l.914,2.81,16.06-5.218C39.549,189.124,39.367,188.67,39.214,188.2Z"/><path class="cls-2" d="M37.068,180.811c-.124-.48-.213-.961-.331-1.441l-16.356,4.2.735,2.862,16.356-4.2C37.344,181.755,37.191,181.291,37.068,180.811Z"/><path class="cls-2" d="M35.389,173.3c-.092-.488-.152-.973-.239-1.459l-16.588,3.164.554,2.9L35.7,174.747C35.606,174.262,35.482,173.789,35.389,173.3Z"/><path class="cls-2" d="M34.186,165.7c-.062-.492-.091-.98-.147-1.471L17.285,166.35l.37,2.931,16.754-2.116C34.341,166.675,34.248,166.2,34.186,165.7Z"/><path class="cls-2" d="M33.462,158.044c-.031-.494-.029-.983-.055-1.477l-16.853,1.061.186,2.949,16.853-1.06C33.556,159.024,33.493,158.539,33.462,158.044Z"/><path class="cls-2" d="M33.22,150.355c0-.5.033-.983.038-1.478H16.372v2.955H33.258C33.253,151.338,33.22,150.85,33.22,150.355Z"/><path class="cls-2" d="M33.462,142.665c.031-.494.094-.979.131-1.472L16.74,140.132l-.186,2.95,16.853,1.06C33.433,143.649,33.431,143.16,33.462,142.665Z"/><path class="cls-2" d="M34.186,135.006c.062-.492.155-.972.223-1.461l-16.754-2.117-.37,2.932,16.754,2.117C34.1,135.986,34.124,135.5,34.186,135.006Z"/><path class="cls-2" d="M35.389,127.407c.093-.487.217-.96.315-1.444L19.116,122.8l-.554,2.9,16.588,3.165C35.237,128.379,35.3,127.894,35.389,127.407Z"/><path class="cls-2" d="M37.068,119.9c.123-.48.276-.944.4-1.422l-16.356-4.2-.735,2.862,16.356,4.2C36.855,120.859,36.944,120.379,37.068,119.9Z"/><path class="cls-2" d="M39.214,112.511c.153-.471.335-.925.493-1.394L23.647,105.9l-.914,2.811,16.061,5.218C38.941,113.456,39.061,112.982,39.214,112.511Z"/><path class="cls-2" d="M41.82,105.272c.183-.461.392-.9.579-1.359L26.7,97.7l-1.088,2.748,15.7,6.216C41.488,106.2,41.637,105.733,41.82,105.272Z"/><path class="cls-2" d="M44.875,98.212c.212-.449.449-.876.664-1.321L30.26,89.7,29,92.375l15.28,7.19C44.486,99.115,44.664,98.66,44.875,98.212Z"/><path class="cls-2" d="M48.368,91.357c.239-.435.5-.846.746-1.277l-14.8-8.135-1.424,2.589,14.8,8.136C47.923,92.234,48.129,91.791,48.368,91.357Z"/><path class="cls-2" d="M52.284,84.735c.266-.419.555-.813.824-1.228L38.851,74.459l-1.584,2.495L51.525,86C51.785,85.582,52.019,85.153,52.284,84.735Z"/><path class="cls-2" d="M56.609,78.371c.291-.4.6-.776.9-1.172L43.847,67.273,42.11,69.664l13.661,9.925C56.057,79.186,56.318,78.772,56.609,78.371Z"/><path class="cls-2" d="M61.324,72.293c.316-.383.652-.738.972-1.115L49.284,60.414,47.4,62.691,60.412,73.455C60.723,73.071,61.008,72.674,61.324,72.293Z"/><path class="cls-2" d="M66.412,66.522c.34-.362.7-.7,1.039-1.052L55.142,53.911l-2.023,2.154,12.309,11.56C65.763,67.26,66.073,66.883,66.412,66.522Z"/><path class="cls-2" d="M71.852,61.081c.361-.339.739-.649,1.1-.983L61.4,47.788l-2.154,2.023L70.8,62.121C71.158,61.778,71.491,61.421,71.852,61.081Z"/><path class="cls-2" d="M77.623,55.994c.382-.317.779-.6,1.163-.913L68.022,42.07l-2.277,1.884L76.509,56.965C76.886,56.646,77.241,56.309,77.623,55.994Z"/><path class="cls-2" d="M83.7,51.278c.4-.291.815-.551,1.218-.837L74.994,36.779,72.6,38.516l9.925,13.661C82.926,51.883,83.3,51.569,83.7,51.278Z"/><path class="cls-2" d="M90.065,46.954c.419-.266.848-.5,1.268-.76L82.285,31.937,79.79,33.52l9.048,14.258C89.252,47.508,89.647,47.219,90.065,46.954Z"/><path class="cls-2" d="M96.688,43.037c.433-.238.877-.444,1.312-.678l-8.135-14.8-2.589,1.424,8.135,14.8C95.841,43.54,96.253,43.276,96.688,43.037Z"/><path class="cls-2" d="M103.542,39.545c.449-.211.9-.389,1.353-.595l-7.19-15.279-2.673,1.258,7.19,15.279C102.666,39.993,103.094,39.756,103.542,39.545Z"/><path class="cls-2" d="M110.6,36.489c.461-.182.926-.331,1.388-.508l-6.216-15.7-2.748,1.088,6.216,15.7C109.7,36.882,110.142,36.672,110.6,36.489Z"/><path class="cls-2" d="M117.842,33.883c.471-.153.945-.272,1.416-.42L114.041,17.4l-2.811.913,5.218,16.06C116.916,34.218,117.37,34.037,117.842,33.883Z"/><path class="cls-2" d="M125.23,31.737c.48-.123.96-.213,1.44-.331l-4.2-16.356-2.863.735,4.2,16.356C124.285,32.013,124.75,31.86,125.23,31.737Z"/><path class="cls-2" d="M132.738,30.059c.486-.093.972-.152,1.458-.24l-3.164-16.587-2.9.553,3.164,16.588C131.778,30.275,132.251,30.151,132.738,30.059Z"/><path class="cls-2" d="M140.337,28.855c.491-.062.979-.091,1.47-.147l-2.116-16.754-2.932.371,2.117,16.753C139.365,29.011,139.845,28.917,140.337,28.855Z"/><path class="cls-2" d="M148,28.131c.494-.031.983-.029,1.477-.055l-1.06-16.853-2.95.186,1.06,16.853C147.017,28.225,147.5,28.162,148,28.131Z"/><path class="cls-3" d="M119.864,142.224c-2.507,0-5.709,1.2-7.112,3.908,0-17.331.7-24.34,6.411-24.34,4.206,0,5.108,4.2,4.807,9.115-.1,2.1.5,3.3,2,3.3h2.3a2.37,2.37,0,0,0,2.5-2.705c0-12.219-4.308-16.025-11.618-16.025-12.924,0-13.324,13.222-13.324,37.261,0,20.234,2.906,28.15,13.023,28.15,7.813,0,12.62-4.911,12.62-19.336S127.075,142.224,119.864,142.224Zm-1,32.656c-3.1,0-6.01-1.7-6.01-13.325s2.906-13.32,6.01-13.32,5.409,1.7,5.409,13.32S121.967,174.88,118.862,174.88Z"/><path class="cls-3" d="M155.228,147.031c2.907-2.2,4.911-6.51,4.911-14.12,0-12.422-4.61-17.431-11.919-17.431S136.3,120.588,136.3,132.911c0,7.61,2,11.918,4.911,14.12-3.406,2.305-5.611,7.116-5.611,15.526,0,13.226,4.806,18.334,12.623,18.334s12.619-5.108,12.619-18.334C160.839,154.044,158.634,149.336,155.228,147.031Zm-7.008-25.54c2.8,0,4.7,1.3,4.7,11.42s-1.9,11.416-4.7,11.416-4.708-1.3-4.708-11.416S145.412,121.491,148.22,121.491Zm0,53.389c-3.108,0-5.409-1.3-5.409-12.323s2.3-12.318,5.409-12.318,5.409,1.3,5.409,12.318S151.324,174.88,148.22,174.88Z"/><path class="cls-3" d="M197.21,149.839c-6.613,0-9.919,5.306-9.919,15.724,0,10.319,3.306,15.728,9.919,15.728,6.811,0,9.915-5.409,9.915-15.728C207.125,155.145,204.021,149.839,197.21,149.839Zm0,26.043c-3.208,0-4.007-3.608-4.007-10.319,0-6.811.8-10.315,4.007-10.315,3.3,0,4.007,3.5,4.007,10.315C201.217,172.274,200.512,175.882,197.21,175.882Z"/><path class="cls-3" d="M201.617,116.082h-2a2.887,2.887,0,0,0-2.506,1.9l-28.146,60.4c-.5,1.105.2,1.905,1.3,1.905h2a2.88,2.88,0,0,0,2.5-1.905l28.15-60.4C203.419,116.882,202.718,116.082,201.617,116.082Z"/><path class="cls-3" d="M184.586,130.8c0-10.418-3.1-15.724-9.915-15.724-6.613,0-9.919,5.306-9.919,15.724,0,10.319,3.306,15.728,9.919,15.728C181.482,146.532,184.586,141.123,184.586,130.8Zm-13.922,0c0-6.81.8-10.315,4.007-10.315,3.307,0,4.007,3.5,4.007,10.315,0,6.712-.7,10.319-4.007,10.319C171.464,141.123,170.664,137.516,170.664,130.8Z"/></svg>