<svg id="Layer_1" data-name="Layer 1" xmlns="http://www.w3.org/2000/svg" viewBox="0 0 300 300"><defs><style>.cls-1{fill:#f21b16;}.cls-2{fill:#e6e6e6;}.cls-3{fill:#5e5e5e;}</style></defs><path class="cls-1" d="M200.787,33.228a121.765,121.765,0,0,0-46.36-9.081l-1.373.009L152.84,7.269l1.587-.008A138.578,138.578,0,0,1,207.185,17.6Z"/><path class="cls-2" d="M206.568,35.764c.449.211.876.448,1.321.664l7.19-15.28-2.674-1.258-7.19,15.279C205.665,35.375,206.12,35.553,206.568,35.764Z"/><path class="cls-2" d="M213.423,39.257c.434.239.846.5,1.277.745l8.135-14.8-2.59-1.423-8.135,14.8C212.546,38.812,212.989,39.018,213.423,39.257Z"/><path class="cls-2" d="M220.045,43.173c.419.266.813.554,1.227.824l9.049-14.258-2.5-1.583-9.049,14.258C219.2,42.674,219.627,42.907,220.045,43.173Z"/><path class="cls-2" d="M226.408,47.5c.4.291.777.6,1.173.9l9.926-13.662L235.116,33,225.19,46.66C225.594,46.946,226.007,47.206,226.408,47.5Z"/><path class="cls-2" d="M232.488,52.213c.381.316.736.652,1.114.971l10.764-13.011-2.278-1.884L231.324,51.3C231.709,51.611,232.105,51.9,232.488,52.213Z"/><path class="cls-2" d="M238.259,57.3c.36.339.694.7,1.05,1.039l11.56-12.31-2.154-2.023-11.56,12.31C237.519,56.651,237.9,56.961,238.259,57.3Z"/><path class="cls-2" d="M243.7,62.741c.339.361.649.739.983,1.1l12.31-11.56-2.023-2.154-12.31,11.56C243,62.046,243.359,62.379,243.7,62.741Z"/><path class="cls-2" d="M248.786,68.512c.316.382.6.778.913,1.162L262.71,58.91l-1.883-2.276L247.815,67.4C248.134,67.775,248.47,68.13,248.786,68.512Z"/><path class="cls-2" d="M253.5,74.591c.291.4.551.814.837,1.217L268,65.883l-1.737-2.391L252.6,73.418C252.9,73.814,253.21,74.19,253.5,74.591Z"/><path class="cls-2" d="M257.826,80.954c.265.418.5.847.76,1.268l14.257-9.048-1.583-2.5L257,79.727C257.271,80.141,257.56,80.535,257.826,80.954Z"/><path class="cls-2" d="M261.742,87.576c.239.434.446.877.679,1.313l14.8-8.135-1.424-2.59L261,86.3C261.24,86.73,261.5,87.142,261.742,87.576Z"/><path class="cls-2" d="M265.235,94.431c.211.448.389.9.595,1.353l15.279-7.19-1.258-2.674-15.279,7.19C264.787,93.555,265.024,93.982,265.235,94.431Z"/><path class="cls-2" d="M268.29,101.491c.183.461.332.927.509,1.389l15.7-6.217-1.088-2.748-15.7,6.217C267.9,100.589,268.108,101.031,268.29,101.491Z"/><path class="cls-2" d="M270.9,108.73c.154.471.274.946.421,1.417l16.06-5.218-.913-2.811-16.06,5.219C270.562,107.805,270.744,108.259,270.9,108.73Z"/><path class="cls-2" d="M273.043,116.118c.123.48.213.961.331,1.441l16.355-4.2-.735-2.862-16.355,4.2C272.767,115.174,272.92,115.638,273.043,116.118Z"/><path class="cls-2" d="M274.721,123.626c.093.487.153.972.24,1.459l16.587-3.164-.554-2.9-16.587,3.164C274.505,122.666,274.628,123.14,274.721,123.626Z"/><path class="cls-2" d="M275.925,131.225c.062.492.091.98.147,1.471l16.754-2.117-.371-2.932L275.7,129.764C275.769,130.253,275.863,130.733,275.925,131.225Z"/><path class="cls-2" d="M276.649,138.885c.031.494.029.983.055,1.476l16.853-1.06-.186-2.949-16.853,1.06C276.555,137.905,276.618,138.39,276.649,138.885Z"/><path class="cls-2" d="M276.89,146.574c0,.495-.032.983-.038,1.477h16.887V145.1H276.852C276.858,145.591,276.89,146.078,276.89,146.574Z"/><path class="cls-2" d="M276.649,154.264c-.031.494-.094.979-.131,1.472l16.853,1.06.186-2.949-16.853-1.06C276.678,153.28,276.68,153.769,276.649,154.264Z"/><path class="cls-2" d="M275.925,161.923c-.062.492-.156.972-.223,1.461l16.753,2.117.371-2.932-16.754-2.117C276.016,160.943,275.987,161.431,275.925,161.923Z"/><path class="cls-2" d="M274.721,169.522c-.093.487-.216.959-.314,1.444l16.587,3.164.554-2.9-16.587-3.164C274.874,168.55,274.814,169.035,274.721,169.522Z"/><path class="cls-2" d="M273.043,177.03c-.123.48-.276.944-.4,1.422l16.355,4.2.735-2.862-16.355-4.2C273.256,176.07,273.166,176.55,273.043,177.03Z"/><path class="cls-2" d="M270.9,184.418c-.152.471-.334.925-.492,1.393l16.06,5.219.913-2.811L271.317,183C271.17,183.473,271.05,183.947,270.9,184.418Z"/><path class="cls-2" d="M268.29,191.657c-.182.46-.392.9-.579,1.359l15.7,6.217,1.088-2.748-15.7-6.216C268.622,190.73,268.473,191.2,268.29,191.657Z"/><path class="cls-2" d="M265.235,198.717c-.211.449-.448.876-.663,1.321l15.279,7.19,1.258-2.674-15.279-7.19C265.624,197.813,265.446,198.269,265.235,198.717Z"/><path class="cls-2" d="M261.742,205.572c-.238.434-.5.846-.745,1.277l14.8,8.135,1.424-2.59-14.8-8.135C262.188,204.7,261.981,205.138,261.742,205.572Z"/><path class="cls-2" d="M257.826,212.194c-.266.419-.555.813-.824,1.227l14.258,9.048,1.583-2.5-14.257-9.048C258.325,211.347,258.091,211.776,257.826,212.194Z"/><path class="cls-2" d="M253.5,218.557c-.292.4-.6.777-.9,1.173l13.662,9.926L268,227.265l-13.662-9.925C254.053,217.743,253.793,218.156,253.5,218.557Z"/><path class="cls-2" d="M248.786,224.636c-.316.382-.652.737-.971,1.115l13.012,10.763,1.883-2.276L249.7,223.474C249.388,223.858,249.1,224.254,248.786,224.636Z"/><path class="cls-2" d="M243.7,230.407c-.34.362-.7.695-1.04,1.051l12.31,11.56,2.023-2.154-12.31-11.56C244.348,229.668,244.038,230.046,243.7,230.407Z"/><path class="cls-2" d="M238.259,235.847c-.362.34-.74.65-1.1.984l11.56,12.31,2.154-2.023-11.56-12.31C238.953,235.15,238.619,235.508,238.259,235.847Z"/><path class="cls-2" d="M232.488,240.935c-.383.316-.779.6-1.164.913l10.764,13.011,2.278-1.884L233.6,239.964C233.224,240.283,232.869,240.619,232.488,240.935Z"/><path class="cls-2" d="M226.408,245.65c-.4.292-.814.552-1.218.838l9.926,13.662,2.391-1.737-9.926-13.662C227.185,245.046,226.809,245.359,226.408,245.65Z"/><path class="cls-2" d="M220.045,249.975c-.418.266-.848.5-1.268.76l9.049,14.257,2.5-1.583-9.049-14.258C220.858,249.42,220.464,249.71,220.045,249.975Z"/><path class="cls-2" d="M213.423,253.891c-.434.239-.877.445-1.313.679l8.135,14.8,2.59-1.424-8.135-14.8C214.269,253.389,213.857,253.653,213.423,253.891Z"/><path class="cls-2" d="M206.568,257.384c-.448.211-.9.389-1.353.595l7.19,15.279L215.079,272l-7.19-15.28C207.444,256.936,207.017,257.173,206.568,257.384Z"/><path class="cls-2" d="M199.507,260.439c-.46.183-.926.332-1.387.509l6.216,15.7,2.747-1.088-6.215-15.7C200.41,260.047,199.968,260.257,199.507,260.439Z"/><path class="cls-2" d="M192.269,263.046c-.472.152-.945.272-1.417.42l5.218,16.06,2.81-.913-5.218-16.06C193.194,262.71,192.74,262.892,192.269,263.046Z"/><path class="cls-2" d="M184.881,265.192c-.48.123-.961.213-1.441.33l4.2,16.356,2.862-.735-4.2-16.355C185.825,264.916,185.361,265.069,184.881,265.192Z"/><path class="cls-2" d="M177.373,266.87c-.487.093-.972.152-1.459.24l3.164,16.587,2.9-.554-3.164-16.587C178.332,266.654,177.86,266.777,177.373,266.87Z"/><path class="cls-2" d="M169.774,268.074c-.492.062-.979.091-1.471.147l2.117,16.753,2.932-.37-2.117-16.753C170.745,267.918,170.266,268.012,169.774,268.074Z"/><path class="cls-2" d="M162.115,268.8c-.5.031-.984.029-1.477.055l1.06,16.853,2.949-.186-1.06-16.853C163.094,268.7,162.61,268.766,162.115,268.8Z"/><path class="cls-2" d="M154.425,269.04c-.5,0-.983-.033-1.478-.039v16.887H155.9V269C155.408,269.007,154.921,269.04,154.425,269.04Z"/><path class="cls-2" d="M146.735,268.8c-.494-.032-.979-.1-1.472-.131L144.2,285.52l2.949.186,1.06-16.853C147.719,268.827,147.23,268.829,146.735,268.8Z"/><path class="cls-2" d="M139.076,268.074c-.491-.062-.971-.156-1.461-.223L135.5,284.6l2.931.37,2.117-16.753C140.056,268.165,139.568,268.136,139.076,268.074Z"/><path class="cls-2" d="M131.477,266.87c-.486-.093-.96-.216-1.444-.314l-3.164,16.587,2.9.554,3.165-16.587C132.449,267.022,131.964,266.963,131.477,266.87Z"/><path class="cls-2" d="M123.969,265.192c-.48-.123-.944-.276-1.422-.4l-4.2,16.355,2.862.735,4.2-16.356C124.93,265.4,124.449,265.315,123.969,265.192Z"/><path class="cls-2" d="M116.581,263.046c-.471-.154-.925-.336-1.393-.493l-5.218,16.06,2.81.913L118,263.466C117.526,263.318,117.053,263.2,116.581,263.046Z"/><path class="cls-2" d="M109.343,260.439c-.461-.182-.9-.392-1.36-.579l-6.217,15.7,2.748,1.088,6.216-15.7C110.269,260.771,109.8,260.622,109.343,260.439Z"/><path class="cls-2" d="M102.282,257.384c-.448-.211-.876-.448-1.321-.664L93.771,272l2.674,1.258,7.19-15.279C103.185,257.773,102.73,257.6,102.282,257.384Z"/><path class="cls-2" d="M95.427,253.891c-.435-.238-.846-.5-1.276-.745l-8.136,14.8,2.59,1.424,8.135-14.8C96.3,254.336,95.861,254.13,95.427,253.891Z"/><path class="cls-2" d="M88.805,249.975c-.419-.265-.813-.555-1.227-.824l-9.049,14.258,2.5,1.583,9.049-14.257C89.652,250.474,89.223,250.241,88.805,249.975Z"/><path class="cls-2" d="M82.442,245.65c-.4-.291-.777-.6-1.173-.9l-9.926,13.662,2.391,1.737,9.925-13.662C83.256,246.2,82.843,245.942,82.442,245.65Z"/><path class="cls-2" d="M76.363,240.935c-.382-.316-.737-.652-1.115-.971L64.484,252.975l2.278,1.884,10.763-13.011C77.141,241.537,76.744,241.251,76.363,240.935Z"/><path class="cls-2" d="M70.592,235.847c-.362-.339-.695-.7-1.051-1.039l-11.56,12.31,2.154,2.023,11.56-12.31C71.331,236.5,70.953,236.187,70.592,235.847Z"/><path class="cls-2" d="M65.152,230.407c-.34-.361-.65-.739-.984-1.1l-12.31,11.56,2.023,2.154,12.31-11.56C65.848,231.1,65.491,230.769,65.152,230.407Z"/><path class="cls-2" d="M60.064,224.636c-.316-.382-.6-.778-.913-1.162L46.14,234.238l1.884,2.276,13.011-10.763C60.716,225.373,60.38,225.018,60.064,224.636Z"/><path class="cls-2" d="M55.348,218.557c-.291-.4-.551-.814-.837-1.217l-13.662,9.925,1.737,2.391,13.662-9.926C55.953,219.334,55.64,218.958,55.348,218.557Z"/><path class="cls-2" d="M51.024,212.194c-.265-.418-.5-.847-.759-1.268l-14.258,9.048,1.583,2.5,14.258-9.048C51.578,213.007,51.29,212.613,51.024,212.194Z"/><path class="cls-2" d="M47.108,205.572c-.239-.434-.445-.877-.679-1.313l-14.8,8.135,1.423,2.59,14.8-8.135C47.61,206.418,47.347,206.006,47.108,205.572Z"/><path class="cls-2" d="M43.615,198.717c-.211-.448-.389-.9-.595-1.353l-15.279,7.19L29,207.228l15.28-7.19C44.063,199.593,43.826,199.166,43.615,198.717Z"/><path class="cls-2" d="M40.56,191.657c-.183-.461-.332-.927-.509-1.388l-15.7,6.216,1.088,2.748,15.7-6.217C40.952,192.559,40.742,192.117,40.56,191.657Z"/><path class="cls-2" d="M37.954,184.418c-.154-.471-.273-.945-.421-1.417l-16.06,5.218.913,2.811,16.06-5.219C38.288,185.343,38.107,184.889,37.954,184.418Z"/><path class="cls-2" d="M35.807,177.03c-.123-.48-.213-.96-.33-1.441l-16.356,4.2.734,2.862,16.356-4.2C36.083,177.974,35.931,177.51,35.807,177.03Z"/><path class="cls-2" d="M34.129,169.522c-.093-.487-.152-.972-.24-1.459L17.3,171.227l.554,2.9,16.587-3.164C34.345,170.481,34.222,170.009,34.129,169.522Z"/><path class="cls-2" d="M32.925,161.923c-.062-.492-.091-.98-.147-1.471l-16.753,2.117.37,2.932,16.754-2.117C33.081,162.9,32.988,162.415,32.925,161.923Z"/><path class="cls-2" d="M32.2,154.264c-.031-.5-.029-.984-.054-1.477l-16.853,1.06.185,2.949,16.853-1.06C32.3,155.243,32.232,154.758,32.2,154.264Z"/><path class="cls-2" d="M31.96,146.574c0-.5.032-.983.038-1.478H15.111v2.955H32C31.992,147.557,31.96,147.069,31.96,146.574Z"/><path class="cls-2" d="M32.2,138.885c.031-.5.095-.98.131-1.473l-16.853-1.06-.185,2.949,16.853,1.06C32.172,139.868,32.17,139.379,32.2,138.885Z"/><path class="cls-2" d="M32.925,131.225c.063-.492.156-.972.224-1.461L16.4,127.647l-.37,2.932L32.778,132.7C32.834,132.205,32.863,131.717,32.925,131.225Z"/><path class="cls-2" d="M34.129,123.626c.093-.486.216-.96.314-1.444l-16.587-3.164-.554,2.9,16.587,3.164C33.977,124.6,34.036,124.113,34.129,123.626Z"/><path class="cls-2" d="M35.807,116.118c.124-.48.276-.944.4-1.422l-16.356-4.2-.734,2.862,16.356,4.2C35.594,117.079,35.684,116.6,35.807,116.118Z"/><path class="cls-2" d="M37.954,108.73c.153-.471.334-.925.492-1.393l-16.06-5.219-.913,2.811,16.06,5.218C37.681,109.676,37.8,109.2,37.954,108.73Z"/><path class="cls-2" d="M40.56,101.491c.182-.46.392-.9.579-1.359l-15.7-6.217L24.35,96.663l15.7,6.217C40.228,102.418,40.377,101.952,40.56,101.491Z"/><path class="cls-2" d="M43.615,94.431c.211-.449.448-.876.664-1.321L29,85.92l-1.258,2.674,15.279,7.19C43.226,95.334,43.4,94.879,43.615,94.431Z"/><path class="cls-2" d="M47.108,87.576c.239-.434.5-.846.745-1.276l-14.8-8.136-1.423,2.59,14.8,8.135C46.663,88.453,46.869,88.01,47.108,87.576Z"/><path class="cls-2" d="M51.024,80.954c.266-.419.554-.813.824-1.227L37.59,70.678l-1.583,2.5,14.258,9.048C50.525,81.8,50.759,81.372,51.024,80.954Z"/><path class="cls-2" d="M55.348,74.591c.292-.4.605-.777.9-1.173L42.586,63.492l-1.737,2.391,13.662,9.925C54.8,75.405,55.057,74.991,55.348,74.591Z"/><path class="cls-2" d="M60.064,68.512c.316-.382.652-.737.971-1.114L48.024,56.634,46.14,58.91,59.151,69.674C59.462,69.29,59.748,68.894,60.064,68.512Z"/><path class="cls-2" d="M65.152,62.741c.339-.362.7-.7,1.039-1.051L53.881,50.13l-2.023,2.154,12.31,11.56C64.5,63.48,64.812,63.1,65.152,62.741Z"/><path class="cls-2" d="M70.592,57.3c.361-.34.739-.65,1.1-.984l-11.56-12.31L57.981,46.03l11.56,12.31C69.9,58,70.23,57.64,70.592,57.3Z"/><path class="cls-2" d="M76.363,52.213c.381-.316.778-.6,1.162-.912L66.762,38.289l-2.278,1.884L75.248,53.184C75.626,52.865,75.981,52.529,76.363,52.213Z"/><path class="cls-2" d="M82.442,47.5c.4-.292.814-.552,1.217-.838L73.734,33l-2.391,1.737L81.269,48.4C81.665,48.1,82.041,47.789,82.442,47.5Z"/><path class="cls-2" d="M88.805,43.173c.418-.266.847-.5,1.268-.759L81.024,28.156l-2.5,1.583L87.578,44C87.992,43.727,88.386,43.439,88.805,43.173Z"/><path class="cls-2" d="M95.427,39.257c.434-.239.877-.445,1.313-.679l-8.135-14.8L86.015,25.2,94.151,40C94.581,39.759,94.992,39.5,95.427,39.257Z"/><path class="cls-2" d="M102.282,35.764c.448-.211.9-.389,1.353-.6L96.445,19.89l-2.674,1.258,7.19,15.28C101.406,36.212,101.834,35.975,102.282,35.764Z"/><path class="cls-2" d="M109.343,32.708c.46-.182.926-.331,1.387-.508l-6.216-15.7-2.748,1.088,6.217,15.7C108.44,33.1,108.882,32.891,109.343,32.708Z"/><path class="cls-2" d="M116.581,30.1c.472-.152.945-.272,1.417-.42l-5.218-16.06-2.81.913L115.188,30.6C115.656,30.437,116.11,30.256,116.581,30.1Z"/><path class="cls-2" d="M123.969,27.956c.48-.123.961-.213,1.441-.33l-4.2-16.356L118.348,12l4.2,16.357C123.025,28.232,123.489,28.079,123.969,27.956Z"/><path class="cls-2" d="M131.477,26.278c.487-.093.972-.152,1.459-.24L129.771,9.451l-2.9.554,3.164,16.587C130.517,26.494,130.991,26.371,131.477,26.278Z"/><path class="cls-2" d="M139.076,25.074c.492-.062.98-.091,1.471-.147L138.43,8.174l-2.931.37L137.615,25.3C138.1,25.23,138.585,25.137,139.076,25.074Z"/><path class="cls-2" d="M146.735,24.35c.495-.031.984-.029,1.477-.054l-1.06-16.854-2.949.186,1.06,16.853C145.756,24.445,146.241,24.381,146.735,24.35Z"/><path class="cls-3" d="M133.632,138.443c-2.506,0-5.71,1.2-7.111,3.908,0-17.329.7-24.342,6.41-24.342,4.206,0,5.109,4.207,4.808,9.115-.1,2.1.5,3.306,2,3.306h2.305a2.369,2.369,0,0,0,2.5-2.7c0-12.222-4.308-16.027-11.618-16.027-12.924,0-13.324,13.221-13.324,37.263,0,20.234,2.906,28.147,13.023,28.147,7.813,0,12.62-4.909,12.62-19.333S140.843,138.443,133.632,138.443Zm-1,32.656c-3.1,0-6.01-1.7-6.01-13.323s2.906-13.322,6.01-13.322,5.41,1.7,5.41,13.322S135.735,171.1,132.63,171.1Z"/><path class="cls-3" d="M168.3,127.025c0-10.418-3.1-15.728-9.915-15.728-6.613,0-9.92,5.31-9.92,15.728,0,10.317,3.307,15.726,9.92,15.726C165.191,142.751,168.3,137.342,168.3,127.025Zm-13.923,0c0-6.813.8-10.317,4.008-10.317,3.306,0,4.007,3.5,4.007,10.317,0,6.71-.7,10.317-4.007,10.317C155.173,137.342,154.373,133.735,154.373,127.025Z"/><path class="cls-3" d="M185.326,112.3h-2a2.888,2.888,0,0,0-2.507,1.9l-28.145,60.4c-.5,1.1.2,1.9,1.3,1.9h2a2.884,2.884,0,0,0,2.5-1.9l28.149-60.4C187.128,113.1,186.427,112.3,185.326,112.3Z"/><path class="cls-3" d="M180.919,146.058c-6.612,0-9.919,5.307-9.919,15.726,0,10.316,3.307,15.726,9.919,15.726,6.811,0,9.915-5.41,9.915-15.726C190.834,151.365,187.73,146.058,180.919,146.058Zm0,26.042c-3.207,0-4.007-3.607-4.007-10.316,0-6.813.8-10.318,4.007-10.318,3.3,0,4.008,3.5,4.008,10.318C184.927,168.493,184.222,172.1,180.919,172.1Z"/></svg>