<svg id="Layer_1" data-name="Layer 1" xmlns="http://www.w3.org/2000/svg" viewBox="0 0 300 300"><defs><style>.cls-1{fill:#fcad22;}.cls-2{fill:#e6e6e6;}.cls-3{fill:#5e5e5e;}</style></defs><path class="cls-1" d="M156.316,289.668A140.152,140.152,0,0,1,26.183,200.189l15.765-6.044A122.444,122.444,0,1,0,156.316,27.927l-1.406.008-.14-16.886,1.546-.009c76.818,0,139.314,62.5,139.314,139.314S233.134,289.668,156.316,289.668Z"/><path class="cls-2" d="M39.844,188.2c-.153-.472-.273-.946-.42-1.418L23.364,192l.913,2.81,16.06-5.218C40.179,189.124,40,188.67,39.844,188.2Z"/><path class="cls-2" d="M37.7,180.811c-.123-.48-.213-.961-.331-1.441l-16.356,4.2.735,2.862,16.356-4.2C37.973,181.755,37.821,181.291,37.7,180.811Z"/><path class="cls-2" d="M36.019,173.3c-.093-.488-.152-.973-.239-1.459l-16.588,3.164.554,2.9,16.588-3.164C36.235,174.262,36.112,173.789,36.019,173.3Z"/><path class="cls-2" d="M34.816,165.7c-.062-.492-.091-.98-.148-1.471L17.915,166.35l.37,2.931,16.754-2.116C34.971,166.675,34.878,166.2,34.816,165.7Z"/><path class="cls-2" d="M34.092,158.044c-.031-.494-.029-.983-.055-1.477l-16.853,1.061.185,2.949,16.854-1.06C34.186,159.024,34.123,158.539,34.092,158.044Z"/><path class="cls-2" d="M33.85,150.355c0-.5.033-.983.038-1.478H17v2.955H33.888C33.883,151.338,33.85,150.85,33.85,150.355Z"/><path class="cls-2" d="M34.092,142.665c.031-.494.094-.979.131-1.472l-16.854-1.061-.185,2.95,16.853,1.06C34.063,143.649,34.061,143.16,34.092,142.665Z"/><path class="cls-2" d="M34.816,135.006c.062-.492.155-.972.223-1.461l-16.754-2.117-.37,2.932,16.753,2.117C34.725,135.986,34.754,135.5,34.816,135.006Z"/><path class="cls-2" d="M36.019,127.407c.093-.487.216-.96.315-1.444L19.746,122.8l-.554,2.9,16.588,3.165C35.867,128.379,35.926,127.894,36.019,127.407Z"/><path class="cls-2" d="M37.7,119.9c.123-.48.275-.944.4-1.422l-16.356-4.2-.735,2.862,16.356,4.2C37.485,120.859,37.575,120.379,37.7,119.9Z"/><path class="cls-2" d="M39.844,112.511c.153-.471.335-.925.493-1.394L24.277,105.9l-.913,2.811,16.06,5.218C39.571,113.456,39.691,112.982,39.844,112.511Z"/><path class="cls-2" d="M42.45,105.272c.182-.461.392-.9.579-1.359L27.329,97.7l-1.088,2.748,15.7,6.216C42.118,106.2,42.268,105.733,42.45,105.272Z"/><path class="cls-2" d="M45.506,98.212c.21-.449.448-.876.663-1.321L30.89,89.7l-1.258,2.674,15.279,7.19C45.116,99.115,45.3,98.66,45.506,98.212Z"/><path class="cls-2" d="M49,91.357c.239-.435.5-.846.745-1.277l-14.8-8.135-1.424,2.589,14.8,8.136C48.553,92.234,48.759,91.791,49,91.357Z"/><path class="cls-2" d="M52.915,84.735c.265-.419.554-.813.823-1.228L39.481,74.459,37.9,76.954,52.155,86C52.415,85.582,52.649,85.153,52.915,84.735Z"/><path class="cls-2" d="M57.239,78.371c.291-.4.6-.776.9-1.172L44.477,67.273,42.74,69.664,56.4,79.589C56.687,79.186,56.948,78.772,57.239,78.371Z"/><path class="cls-2" d="M61.954,72.293c.316-.383.652-.738.971-1.115L49.914,60.414l-1.883,2.277L61.042,73.455C61.352,73.071,61.638,72.674,61.954,72.293Z"/><path class="cls-2" d="M67.042,66.522c.339-.362.7-.7,1.039-1.052L55.771,53.911l-2.023,2.154,12.31,11.56C66.393,67.26,66.7,66.883,67.042,66.522Z"/><path class="cls-2" d="M72.482,61.081c.361-.339.739-.649,1.1-.983L62.026,47.788l-2.154,2.023,11.559,12.31C71.787,61.778,72.121,61.421,72.482,61.081Z"/><path class="cls-2" d="M78.253,55.994c.382-.317.778-.6,1.163-.913L68.652,42.07l-2.277,1.884L77.139,56.965C77.516,56.646,77.871,56.309,78.253,55.994Z"/><path class="cls-2" d="M84.332,51.278c.4-.291.815-.551,1.218-.837L75.624,36.779l-2.391,1.737,9.926,13.661C83.556,51.883,83.931,51.569,84.332,51.278Z"/><path class="cls-2" d="M90.7,46.954c.419-.266.848-.5,1.268-.76L82.915,31.937l-2.5,1.583,9.048,14.258C89.883,47.508,90.277,47.219,90.7,46.954Z"/><path class="cls-2" d="M97.317,43.037c.435-.238.878-.444,1.314-.678L90.5,27.561l-2.589,1.424,8.135,14.8C96.471,43.54,96.883,43.276,97.317,43.037Z"/><path class="cls-2" d="M104.172,39.545c.449-.211.9-.389,1.353-.595L98.336,23.671l-2.674,1.258,7.19,15.279C103.3,39.993,103.724,39.756,104.172,39.545Z"/><path class="cls-2" d="M111.233,36.489c.461-.182.926-.331,1.388-.508L106.4,20.28l-2.747,1.088,6.216,15.7C110.331,36.882,110.772,36.672,111.233,36.489Z"/><path class="cls-2" d="M118.472,33.883c.471-.153.945-.272,1.417-.42L114.67,17.4l-2.81.913,5.218,16.06C117.547,34.218,118,34.037,118.472,33.883Z"/><path class="cls-2" d="M125.86,31.737c.48-.123.96-.213,1.44-.331L123.1,15.05l-2.863.735,4.2,16.356C124.915,32.013,125.379,31.86,125.86,31.737Z"/><path class="cls-2" d="M133.368,30.059c.487-.093.972-.152,1.458-.24l-3.164-16.587-2.9.553,3.164,16.588C132.408,30.275,132.881,30.151,133.368,30.059Z"/><path class="cls-2" d="M140.966,28.855c.492-.062.98-.091,1.471-.147l-2.116-16.754-2.932.371,2.116,16.753C140,29.011,140.475,28.917,140.966,28.855Z"/><path class="cls-2" d="M148.626,28.131c.5-.031.983-.029,1.477-.055l-1.061-16.853-2.949.186,1.061,16.853C147.646,28.225,148.131,28.162,148.626,28.131Z"/><path class="cls-3" d="M119.793,142.224c-2.507,0-5.71,1.2-7.112,3.908,0-17.331.7-24.34,6.411-24.34,4.2,0,5.108,4.2,4.807,9.115-.1,2.1.5,3.3,2,3.3h2.3a2.371,2.371,0,0,0,2.5-2.705c0-12.219-4.309-16.025-11.618-16.025-12.924,0-13.325,13.222-13.325,37.261,0,20.234,2.907,28.15,13.024,28.15,7.813,0,12.619-4.911,12.619-19.336S127,142.224,119.793,142.224Zm-1,32.656c-3.1,0-6.011-1.7-6.011-13.325s2.907-13.32,6.011-13.32,5.409,1.7,5.409,13.32S121.9,174.88,118.791,174.88Z"/><path class="cls-3" d="M148.446,115.48c-7.813,0-12.62,4.906-12.62,19.332s4.407,19.335,11.618,19.335c2.506,0,5.709-1.2,7.115-3.908,0,17.327-.7,24.34-6.41,24.34-4.21,0-5.112-4.205-4.812-9.115.1-2.1-.5-3.307-2-3.307h-2.3a2.373,2.373,0,0,0-2.506,2.7c0,12.224,4.308,16.029,11.622,16.029,12.92,0,13.32-13.222,13.32-37.265C161.469,123.392,158.563,115.48,148.446,115.48Zm0,32.656c-3.1,0-5.409-1.7-5.409-13.324s2.3-13.321,5.409-13.321,6.01,1.7,6.01,13.321S151.554,148.136,148.446,148.136Z"/><path class="cls-3" d="M185.917,130.8c0-10.418-3.1-15.724-9.916-15.724-6.612,0-9.919,5.306-9.919,15.724,0,10.319,3.307,15.728,9.919,15.728C182.812,146.532,185.917,141.123,185.917,130.8Zm-13.923,0c0-6.81.8-10.315,4.007-10.315,3.307,0,4.008,3.5,4.008,10.315,0,6.712-.7,10.319-4.008,10.319C172.794,141.123,171.994,137.516,171.994,130.8Z"/><path class="cls-3" d="M202.948,116.082h-2a2.887,2.887,0,0,0-2.507,1.9l-28.145,60.4c-.5,1.105.2,1.905,1.3,1.905h2a2.88,2.88,0,0,0,2.5-1.905l28.149-60.4C204.749,116.882,204.048,116.082,202.948,116.082Z"/><path class="cls-3" d="M198.54,149.839c-6.613,0-9.919,5.306-9.919,15.724,0,10.319,3.306,15.728,9.919,15.728,6.811,0,9.915-5.409,9.915-15.728C208.455,155.145,205.351,149.839,198.54,149.839Zm0,26.043c-3.207,0-4.007-3.608-4.007-10.319,0-6.811.8-10.315,4.007-10.315,3.3,0,4.007,3.5,4.007,10.315C202.547,172.274,201.842,175.882,198.54,175.882Z"/></svg>