<svg id="Layer_1" data-name="Layer 1" xmlns="http://www.w3.org/2000/svg" viewBox="0 0 300 300"><defs><style>.cls-1{fill:#31f431;}.cls-2{fill:#e6e6e6;}.cls-3{fill:#5e5e5e;}</style></defs><path class="cls-1" d="M150.646,290.3a138.7,138.7,0,0,1-133.01-97.753l16.119-5.029A122.445,122.445,0,1,0,150.646,28.556l-1.41.008-.14-16.886,1.55-.008c76.818,0,139.314,62.5,139.314,139.313S227.464,290.3,150.646,290.3Z"/><path class="cls-2" d="M32.026,181.441c-.123-.48-.213-.961-.331-1.441L15.34,184.2l.735,2.862,16.355-4.2C32.3,182.385,32.149,181.921,32.026,181.441Z"/><path class="cls-2" d="M30.348,173.933c-.093-.487-.152-.972-.239-1.459l-16.588,3.164.554,2.9,16.587-3.164C30.564,174.893,30.441,174.42,30.348,173.933Z"/><path class="cls-2" d="M29.144,166.334c-.062-.492-.09-.979-.147-1.471L12.243,166.98l.371,2.931L29.367,167.8C29.3,167.305,29.206,166.826,29.144,166.334Z"/><path class="cls-2" d="M28.42,158.675c-.031-.5-.029-.984-.055-1.477l-16.853,1.06.186,2.949,16.853-1.06C28.514,159.654,28.452,159.169,28.42,158.675Z"/><path class="cls-2" d="M28.179,150.985c0-.5.032-.983.038-1.478H11.33v2.956H28.217C28.211,151.968,28.179,151.481,28.179,150.985Z"/><path class="cls-2" d="M28.42,143.295c.032-.494.094-.979.131-1.472L11.7,140.763l-.186,2.949,16.853,1.06C28.391,144.279,28.389,143.79,28.42,143.295Z"/><path class="cls-2" d="M29.144,135.636c.062-.492.156-.971.223-1.461l-16.753-2.116-.371,2.932L29,137.107C29.054,136.616,29.082,136.128,29.144,135.636Z"/><path class="cls-2" d="M30.348,128.037c.093-.487.216-.96.314-1.444l-16.587-3.164-.554,2.9L30.109,129.5C30.2,129.009,30.255,128.524,30.348,128.037Z"/><path class="cls-2" d="M32.026,120.529c.123-.48.276-.944.4-1.422l-16.355-4.2-.735,2.862,16.355,4.2C31.813,121.49,31.9,121.009,32.026,120.529Z"/><path class="cls-2" d="M34.173,113.141c.153-.471.335-.925.492-1.393l-16.06-5.218-.913,2.81,16.06,5.218C33.9,114.086,34.019,113.613,34.173,113.141Z"/><path class="cls-2" d="M36.779,105.9c.182-.461.392-.9.579-1.36l-15.7-6.216-1.088,2.747,15.7,6.216C36.447,106.829,36.6,106.363,36.779,105.9Z"/><path class="cls-2" d="M39.834,98.842c.211-.448.448-.876.664-1.321l-15.28-7.19L23.96,93.005l15.28,7.19C39.445,99.745,39.623,99.29,39.834,98.842Z"/><path class="cls-2" d="M43.327,91.987c.238-.435.5-.846.745-1.277l-14.8-8.135-1.423,2.59,14.8,8.135C42.882,92.864,43.088,92.421,43.327,91.987Z"/><path class="cls-2" d="M47.243,85.365c.266-.419.555-.813.824-1.227L33.809,75.089l-1.583,2.5,14.257,9.049C46.744,86.213,46.978,85.783,47.243,85.365Z"/><path class="cls-2" d="M51.568,79c.291-.4.6-.777.9-1.173L38.806,67.9l-1.738,2.391L50.73,80.22C51.016,79.816,51.276,79.4,51.568,79Z"/><path class="cls-2" d="M56.283,72.923c.316-.382.652-.737.971-1.115L44.243,61.044l-1.884,2.278L55.37,74.085C55.681,73.7,55.967,73.3,56.283,72.923Z"/><path class="cls-2" d="M61.371,67.152c.339-.361.7-.7,1.039-1.051L50.1,54.541,48.077,56.7l12.31,11.56C60.721,67.891,61.032,67.513,61.371,67.152Z"/><path class="cls-2" d="M66.811,61.711c.361-.339.739-.649,1.1-.983l-11.56-12.31L54.2,50.441l11.56,12.31C66.116,62.408,66.45,62.051,66.811,61.711Z"/><path class="cls-2" d="M72.582,56.624c.382-.316.778-.6,1.163-.913L62.981,42.7,60.7,44.584,71.467,57.6C71.845,57.276,72.2,56.94,72.582,56.624Z"/><path class="cls-2" d="M78.661,51.908c.4-.291.815-.551,1.218-.837L69.953,37.409l-2.391,1.737,9.926,13.662C77.884,52.513,78.26,52.2,78.661,51.908Z"/><path class="cls-2" d="M85.024,47.584c.418-.265.848-.5,1.268-.759L77.243,32.567,74.749,34.15,83.8,48.408C84.211,48.138,84.606,47.85,85.024,47.584Z"/><path class="cls-2" d="M91.646,43.668c.434-.239.877-.445,1.313-.679l-8.135-14.8-2.59,1.423,8.135,14.8C90.8,44.17,91.212,43.907,91.646,43.668Z"/><path class="cls-2" d="M98.5,40.175c.448-.211.9-.389,1.353-.595L92.664,24.3,89.99,25.559l7.19,15.28C97.625,40.623,98.052,40.386,98.5,40.175Z"/><path class="cls-2" d="M105.562,37.12c.46-.183.926-.332,1.387-.509l-6.216-15.7L97.986,22,104.2,37.7C104.659,37.512,105.1,37.3,105.562,37.12Z"/><path class="cls-2" d="M112.8,34.514c.472-.154.945-.273,1.417-.421L109,18.033l-2.81.913,5.218,16.06C111.875,34.848,112.329,34.667,112.8,34.514Z"/><path class="cls-2" d="M120.188,32.367c.48-.123.961-.213,1.441-.33l-4.2-16.357-2.862.735,4.2,16.356C119.244,32.643,119.708,32.491,120.188,32.367Z"/><path class="cls-2" d="M127.7,30.689c.487-.093.972-.152,1.459-.24l-3.164-16.587-2.9.554L126.252,31C126.737,30.905,127.209,30.782,127.7,30.689Z"/><path class="cls-2" d="M135.295,29.485c.492-.062.98-.091,1.471-.147l-2.117-16.753-2.931.37,2.116,16.754C134.324,29.641,134.8,29.548,135.295,29.485Z"/><path class="cls-2" d="M142.954,28.761c.5-.031.984-.029,1.478-.054l-1.061-16.853-2.949.185,1.06,16.853C141.975,28.856,142.46,28.792,142.954,28.761Z"/><path class="cls-3" d="M122.484,116.712H102.249a1.841,1.841,0,0,0-1.9,1.9v2.606a1.845,1.845,0,0,0,1.9,1.9h14.826L103.552,175.11a19.95,19.95,0,0,0-.8,4.007,1.733,1.733,0,0,0,1.8,1.8h3.307a1.952,1.952,0,0,0,2-1.7l13.824-55.091a18.37,18.37,0,0,0,.6-3.207v-2.4A1.733,1.733,0,0,0,122.484,116.712Z"/><path class="cls-3" d="M140.121,116.11c-8.312,0-12.822,5.611-12.822,32.656s4.51,32.754,12.822,32.754,12.821-5.71,12.821-32.754S148.436,116.11,140.121,116.11Zm0,58.9c-3.6,0-5.607-2.3-5.607-26.241s2-26.147,5.607-26.147,5.611,2.206,5.611,26.147S143.728,175.007,140.121,175.007Z"/><path class="cls-3" d="M190.013,150.468c-6.612,0-9.919,5.306-9.919,15.724,0,10.319,3.307,15.728,9.919,15.728,6.811,0,9.915-5.409,9.915-15.728C199.928,155.774,196.824,150.468,190.013,150.468Zm0,26.043c-3.207,0-4.007-3.607-4.007-10.319,0-6.811.8-10.315,4.007-10.315,3.3,0,4.008,3.5,4.008,10.315C194.021,172.9,193.316,176.511,190.013,176.511Z"/><path class="cls-3" d="M177.39,131.434c0-10.418-3.1-15.724-9.915-15.724-6.613,0-9.92,5.306-9.92,15.724,0,10.319,3.307,15.728,9.92,15.728C174.285,147.162,177.39,141.753,177.39,131.434Zm-13.923,0c0-6.811.8-10.315,4.008-10.315,3.306,0,4.007,3.5,4.007,10.315,0,6.711-.7,10.319-4.007,10.319C164.267,141.753,163.467,138.145,163.467,131.434Z"/><path class="cls-3" d="M194.421,116.712h-2a2.886,2.886,0,0,0-2.507,1.9l-28.145,60.4c-.5,1.1.2,1.9,1.3,1.9h2a2.881,2.881,0,0,0,2.5-1.9l28.15-60.4C196.222,117.511,195.521,116.712,194.421,116.712Z"/></svg>