<svg id="Layer_1" data-name="Layer 1" xmlns="http://www.w3.org/2000/svg" viewBox="0 0 300 300"><defs><style>.cls-1{fill:#31f431;}.cls-2{fill:#e6e6e6;}.cls-3{fill:#5e5e5e;}</style></defs><path class="cls-1" d="M151.275,290.3A138.922,138.922,0,0,1,15.923,184.105l16.409-4A122.441,122.441,0,1,0,151.275,28.556l-1.4.008-.14-16.886,1.537-.008c76.818,0,139.314,62.5,139.314,139.313S228.093,290.3,151.275,290.3Z"/><path class="cls-2" d="M30.978,173.933c-.093-.487-.152-.972-.24-1.459l-16.587,3.164.554,2.9,16.587-3.164C31.194,174.893,31.071,174.42,30.978,173.933Z"/><path class="cls-2" d="M29.775,166.334c-.062-.492-.092-.979-.148-1.471L12.874,166.98l.37,2.931L30,167.8C29.93,167.305,29.837,166.826,29.775,166.334Z"/><path class="cls-2" d="M29.051,158.675c-.032-.5-.03-.984-.055-1.477l-16.853,1.06.185,2.949,16.853-1.06C29.145,159.654,29.082,159.169,29.051,158.675Z"/><path class="cls-2" d="M28.809,150.985c0-.5.033-.983.038-1.478H11.961v2.956H28.847C28.842,151.968,28.809,151.481,28.809,150.985Z"/><path class="cls-2" d="M29.051,143.295c.031-.494.094-.979.13-1.472l-16.853-1.06-.185,2.949L29,144.772C29.021,144.279,29.019,143.79,29.051,143.295Z"/><path class="cls-2" d="M29.775,135.636c.062-.492.155-.971.223-1.461l-16.754-2.116-.37,2.932,16.753,2.116C29.683,136.616,29.713,136.128,29.775,135.636Z"/><path class="cls-2" d="M30.978,128.037c.093-.487.216-.96.314-1.444l-16.587-3.164-.554,2.9L30.738,129.5C30.826,129.009,30.885,128.524,30.978,128.037Z"/><path class="cls-2" d="M32.656,120.529c.124-.48.276-.944.405-1.422l-16.356-4.2-.735,2.862,16.356,4.2C32.444,121.49,32.533,121.009,32.656,120.529Z"/><path class="cls-2" d="M34.8,113.141c.153-.471.335-.925.493-1.393l-16.06-5.218-.914,2.81,16.061,5.218C34.53,114.086,34.65,113.613,34.8,113.141Z"/><path class="cls-2" d="M37.409,105.9c.182-.461.392-.9.579-1.36l-15.7-6.216L21.2,101.074l15.7,6.216C37.077,106.829,37.226,106.363,37.409,105.9Z"/><path class="cls-2" d="M40.464,98.842c.211-.448.449-.876.664-1.321l-15.279-7.19L24.59,93.005l15.28,7.19C40.075,99.745,40.253,99.29,40.464,98.842Z"/><path class="cls-2" d="M43.957,91.987c.239-.435.5-.846.745-1.277l-14.8-8.135-1.424,2.59,14.8,8.135C43.512,92.864,43.718,92.421,43.957,91.987Z"/><path class="cls-2" d="M47.873,85.365c.266-.419.555-.813.824-1.227L34.44,75.089l-1.584,2.5,14.258,9.049C47.374,86.213,47.608,85.783,47.873,85.365Z"/><path class="cls-2" d="M52.2,79c.291-.4.6-.777.9-1.173L39.435,67.9,37.7,70.294,51.36,80.22C51.646,79.816,51.907,79.4,52.2,79Z"/><path class="cls-2" d="M56.913,72.923c.316-.382.652-.737.971-1.115L44.873,61.044l-1.884,2.278L56,74.085C56.311,73.7,56.6,73.3,56.913,72.923Z"/><path class="cls-2" d="M62,67.152c.339-.361.7-.7,1.039-1.051L50.73,54.541,48.707,56.7l12.31,11.56C61.352,67.891,61.661,67.513,62,67.152Z"/><path class="cls-2" d="M67.441,61.711c.361-.339.739-.649,1.1-.983l-11.56-12.31L54.83,50.441l11.56,12.31C66.746,62.408,67.079,62.051,67.441,61.711Z"/><path class="cls-2" d="M73.212,56.624c.382-.316.778-.6,1.162-.913L63.611,42.7l-2.277,1.884L72.1,57.6C72.475,57.276,72.83,56.94,73.212,56.624Z"/><path class="cls-2" d="M79.291,51.908c.4-.291.815-.551,1.217-.837L70.583,37.409l-2.391,1.737,9.926,13.662C78.515,52.513,78.89,52.2,79.291,51.908Z"/><path class="cls-2" d="M85.654,47.584c.419-.265.848-.5,1.268-.759L77.874,32.567,75.379,34.15l9.048,14.258C84.841,48.138,85.235,47.85,85.654,47.584Z"/><path class="cls-2" d="M92.276,43.668c.434-.239.878-.445,1.313-.679l-8.135-14.8-2.589,1.423L91,44.413C91.43,44.17,91.842,43.907,92.276,43.668Z"/><path class="cls-2" d="M99.131,40.175c.448-.211.9-.389,1.353-.595L93.294,24.3l-2.673,1.258,7.189,15.28C98.255,40.623,98.683,40.386,99.131,40.175Z"/><path class="cls-2" d="M106.192,37.12c.461-.183.926-.332,1.388-.509l-6.217-15.7L98.615,22l6.217,15.7C105.289,37.512,105.731,37.3,106.192,37.12Z"/><path class="cls-2" d="M113.43,34.514c.472-.154.946-.273,1.417-.421l-5.218-16.06-2.81.913,5.218,16.06C112.505,34.848,112.959,34.667,113.43,34.514Z"/><path class="cls-2" d="M120.818,32.367c.48-.123.961-.213,1.441-.33l-4.2-16.357-2.862.735,4.2,16.356C119.874,32.643,120.338,32.491,120.818,32.367Z"/><path class="cls-2" d="M128.326,30.689c.487-.093.973-.152,1.459-.24l-3.164-16.587-2.9.554L126.882,31C127.367,30.905,127.84,30.782,128.326,30.689Z"/><path class="cls-2" d="M135.925,29.485c.492-.062.98-.091,1.471-.147l-2.117-16.753-2.931.37,2.116,16.754C134.954,29.641,135.434,29.548,135.925,29.485Z"/><path class="cls-2" d="M143.585,28.761c.494-.031.983-.029,1.476-.054L144,11.854l-2.949.185,1.06,16.853C142.6,28.856,143.09,28.792,143.585,28.761Z"/><path class="cls-3" d="M128.926,116.712H108.692a1.842,1.842,0,0,0-1.9,1.9v2.606a1.846,1.846,0,0,0,1.9,1.9h14.825L110,175.11a19.963,19.963,0,0,0-.8,4.007,1.734,1.734,0,0,0,1.8,1.8H114.3a1.952,1.952,0,0,0,2-1.7l13.823-55.091a18.278,18.278,0,0,0,.6-3.207v-2.4A1.733,1.733,0,0,0,128.926,116.712Z"/><path class="cls-3" d="M144.061,116.712h-2a1.841,1.841,0,0,0-1.9,1.9v.7c0,3.607-1.7,5.211-4.709,5.211h-.9a1.841,1.841,0,0,0-1.9,1.905v2.2a1.843,1.843,0,0,0,1.9,1.905h4.206v48.479a1.841,1.841,0,0,0,1.9,1.9h3.406a1.84,1.84,0,0,0,1.9-1.9v-60.4A1.838,1.838,0,0,0,144.061,116.712Z"/><path class="cls-3" d="M189.241,116.712h-2a2.891,2.891,0,0,0-2.507,1.9l-28.146,60.4c-.5,1.1.2,1.9,1.3,1.9h2a2.878,2.878,0,0,0,2.5-1.9l28.15-60.4C191.043,117.511,190.342,116.712,189.241,116.712Z"/><path class="cls-3" d="M184.834,150.468c-6.613,0-9.919,5.306-9.919,15.724,0,10.319,3.306,15.728,9.919,15.728,6.811,0,9.915-5.409,9.915-15.728C194.749,155.774,191.645,150.468,184.834,150.468Zm0,26.043c-3.207,0-4.007-3.607-4.007-10.319,0-6.811.8-10.315,4.007-10.315,3.3,0,4.007,3.5,4.007,10.315C188.841,172.9,188.136,176.511,184.834,176.511Z"/><path class="cls-3" d="M172.21,131.434c0-10.418-3.1-15.724-9.915-15.724-6.612,0-9.919,5.306-9.919,15.724,0,10.319,3.307,15.728,9.919,15.728C169.106,147.162,172.21,141.753,172.21,131.434Zm-13.922,0c0-6.811.8-10.315,4.007-10.315,3.307,0,4.008,3.5,4.008,10.315,0,6.711-.7,10.319-4.008,10.319C159.088,141.753,158.288,138.145,158.288,131.434Z"/></svg>