<svg id="Layer_1" data-name="Layer 1" xmlns="http://www.w3.org/2000/svg" viewBox="0 0 300 300"><defs><style>.cls-1{fill:#31f431;}.cls-2{fill:#e6e6e6;}.cls-3{fill:#5e5e5e;}</style></defs><path class="cls-1" d="M151.905,290.3A139.061,139.061,0,0,1,14.752,175.538l16.622-2.96A122.438,122.438,0,1,0,151.905,28.556l-1.4.008-.14-16.886,1.538-.008c76.818,0,139.314,62.5,139.314,139.313S228.723,290.3,151.905,290.3Z"/><path class="cls-2" d="M30.405,166.334c-.063-.492-.091-.979-.148-1.471L13.5,166.98l.37,2.931L30.628,167.8C30.56,167.305,30.467,166.826,30.405,166.334Z"/><path class="cls-2" d="M29.681,158.675c-.031-.5-.03-.984-.055-1.477l-16.853,1.06.185,2.949,16.853-1.06C29.775,159.654,29.712,159.169,29.681,158.675Z"/><path class="cls-2" d="M29.439,150.985c0-.5.033-.983.038-1.478H12.59v2.956H29.477C29.472,151.968,29.439,151.481,29.439,150.985Z"/><path class="cls-2" d="M29.681,143.295c.031-.494.094-.979.13-1.472l-16.853-1.06-.185,2.949,16.853,1.06C29.651,144.279,29.65,143.79,29.681,143.295Z"/><path class="cls-2" d="M30.405,135.636c.062-.492.155-.971.223-1.461l-16.754-2.116-.37,2.932,16.753,2.116C30.314,136.616,30.342,136.128,30.405,135.636Z"/><path class="cls-2" d="M31.608,128.037c.093-.487.217-.96.315-1.444l-16.588-3.164-.554,2.9L31.369,129.5C31.456,129.009,31.515,128.524,31.608,128.037Z"/><path class="cls-2" d="M33.287,120.529c.123-.48.276-.944.4-1.422l-16.356-4.2L16.6,117.77l16.356,4.2C33.073,121.49,33.163,121.009,33.287,120.529Z"/><path class="cls-2" d="M35.433,113.141c.153-.471.335-.925.493-1.393l-16.06-5.218-.914,2.81,16.06,5.218C35.16,114.086,35.28,113.613,35.433,113.141Z"/><path class="cls-2" d="M38.039,105.9c.182-.461.392-.9.58-1.36l-15.7-6.216-1.088,2.747,15.7,6.216C37.707,106.829,37.857,106.363,38.039,105.9Z"/><path class="cls-2" d="M41.094,98.842c.212-.448.448-.876.664-1.321l-15.279-7.19L25.22,93.005,40.5,100.2C40.705,99.745,40.883,99.29,41.094,98.842Z"/><path class="cls-2" d="M44.587,91.987c.239-.435.5-.846.746-1.277l-14.8-8.135-1.424,2.59,14.8,8.135C44.142,92.864,44.349,92.421,44.587,91.987Z"/><path class="cls-2" d="M48.5,85.365c.266-.419.555-.813.825-1.227L35.069,75.089l-1.583,2.5,14.258,9.049C48,86.213,48.238,85.783,48.5,85.365Z"/><path class="cls-2" d="M52.828,79c.291-.4.6-.777.9-1.173L40.066,67.9l-1.738,2.391L51.99,80.22C52.276,79.816,52.536,79.4,52.828,79Z"/><path class="cls-2" d="M57.543,72.923c.316-.382.652-.737.971-1.115L45.5,61.044l-1.884,2.278L56.631,74.085C56.942,73.7,57.227,73.3,57.543,72.923Z"/><path class="cls-2" d="M62.631,67.152c.339-.361.7-.7,1.039-1.051L51.361,54.541,49.338,56.7l12.309,11.56C61.981,67.891,62.292,67.513,62.631,67.152Z"/><path class="cls-2" d="M68.071,61.711c.362-.339.739-.649,1.1-.983L57.615,48.418,55.46,50.441l11.56,12.31C67.377,62.408,67.71,62.051,68.071,61.711Z"/><path class="cls-2" d="M73.842,56.624c.382-.316.779-.6,1.163-.913L64.241,42.7l-2.277,1.884L72.728,57.6C73.105,57.276,73.46,56.94,73.842,56.624Z"/><path class="cls-2" d="M79.921,51.908c.4-.291.815-.551,1.218-.837L71.213,37.409l-2.39,1.737,9.925,13.662C79.144,52.513,79.52,52.2,79.921,51.908Z"/><path class="cls-2" d="M86.284,47.584c.418-.265.848-.5,1.268-.759L78.5,32.567l-2.5,1.583,9.048,14.258C85.471,48.138,85.866,47.85,86.284,47.584Z"/><path class="cls-2" d="M92.906,43.668c.435-.239.878-.445,1.313-.679l-8.135-14.8L83.5,29.615l8.135,14.8C92.06,44.17,92.472,43.907,92.906,43.668Z"/><path class="cls-2" d="M99.761,40.175c.449-.211.9-.389,1.353-.595L93.924,24.3,91.25,25.559l7.19,15.28C98.885,40.623,99.313,40.386,99.761,40.175Z"/><path class="cls-2" d="M106.822,37.12c.461-.183.926-.332,1.388-.509l-6.217-15.7L99.246,22l6.216,15.7C105.92,37.512,106.361,37.3,106.822,37.12Z"/><path class="cls-2" d="M114.061,34.514c.471-.154.945-.273,1.417-.421l-5.219-16.06-2.81.913,5.218,16.06C113.135,34.848,113.589,34.667,114.061,34.514Z"/><path class="cls-2" d="M121.449,32.367c.48-.123.96-.213,1.44-.33l-4.2-16.357-2.863.735,4.2,16.356C120.5,32.643,120.969,32.491,121.449,32.367Z"/><path class="cls-2" d="M128.957,30.689c.487-.093.972-.152,1.458-.24l-3.164-16.587-2.9.554L127.513,31C128,30.905,128.47,30.782,128.957,30.689Z"/><path class="cls-2" d="M136.555,29.485c.492-.062.98-.091,1.471-.147L135.91,12.585l-2.932.37,2.116,16.754C135.584,29.641,136.064,29.548,136.555,29.485Z"/><path class="cls-2" d="M144.215,28.761c.494-.031.983-.029,1.477-.054l-1.06-16.853-2.95.185,1.06,16.853C143.236,28.856,143.72,28.792,144.215,28.761Z"/><path class="cls-3" d="M125.1,116.712H104.861a1.842,1.842,0,0,0-1.905,1.9v2.606a1.846,1.846,0,0,0,1.905,1.9h14.825L106.164,175.11a19.963,19.963,0,0,0-.8,4.007,1.734,1.734,0,0,0,1.8,1.8h3.306a1.953,1.953,0,0,0,2-1.7L126.3,124.124a18.278,18.278,0,0,0,.6-3.207v-2.4A1.733,1.733,0,0,0,125.1,116.712Z"/><path class="cls-3" d="M141.631,116.11c-8.014,0-12.323,3.805-12.323,16.025a2.373,2.373,0,0,0,2.507,2.7h2.4c1.5,0,2.1-1.2,2-3.3-.3-4.91.4-9.116,5.108-9.116,3.8,0,5.71,2.5,5.71,9.916,0,13.922-10.719,25.441-17.228,41.169a7.788,7.788,0,0,0-.6,3.207v2.4a1.733,1.733,0,0,0,1.8,1.8h20.638a1.84,1.84,0,0,0,1.9-1.9v-2.6a1.84,1.84,0,0,0-1.9-1.9H136.523c5.508-14.125,17.728-26.946,17.728-41.169C154.251,121.119,149.744,116.11,141.631,116.11Z"/><path class="cls-3" d="M189.92,150.468c-6.613,0-9.919,5.306-9.919,15.724,0,10.319,3.306,15.728,9.919,15.728,6.811,0,9.915-5.409,9.915-15.728C199.835,155.774,196.731,150.468,189.92,150.468Zm0,26.043c-3.207,0-4.007-3.607-4.007-10.319,0-6.811.8-10.315,4.007-10.315,3.3,0,4.008,3.5,4.008,10.315C193.928,172.9,193.223,176.511,189.92,176.511Z"/><path class="cls-3" d="M177.3,131.434c0-10.418-3.1-15.724-9.915-15.724-6.613,0-9.92,5.306-9.92,15.724,0,10.319,3.307,15.728,9.92,15.728C174.192,147.162,177.3,141.753,177.3,131.434Zm-13.923,0c0-6.811.8-10.315,4.008-10.315,3.306,0,4.007,3.5,4.007,10.315,0,6.711-.7,10.319-4.007,10.319C164.174,141.753,163.374,138.145,163.374,131.434Z"/><path class="cls-3" d="M194.327,116.712h-2a2.886,2.886,0,0,0-2.507,1.9l-28.146,60.4c-.5,1.1.2,1.9,1.3,1.9h2a2.879,2.879,0,0,0,2.5-1.9l28.15-60.4C196.129,117.511,195.428,116.712,194.327,116.712Z"/></svg>