<svg id="Layer_1" data-name="Layer 1" xmlns="http://www.w3.org/2000/svg" viewBox="0 0 300 300"><defs><style>.cls-1{fill:#31f431;}.cls-2{fill:#e6e6e6;}.cls-3{fill:#5e5e5e;}</style></defs><path class="cls-1" d="M152.535,290.3A139.147,139.147,0,0,1,14.12,166.872L30.9,164.967A122.432,122.432,0,1,0,152.535,28.556l-1.406.008-.14-16.886,1.546-.008c76.818,0,139.313,62.5,139.313,139.313S229.353,290.3,152.535,290.3Z"/><path class="cls-2" d="M30.311,158.675c-.031-.5-.029-.984-.055-1.477L13.4,158.258l.185,2.949,16.854-1.06C30.405,159.654,30.342,159.169,30.311,158.675Z"/><path class="cls-2" d="M30.069,150.985c0-.5.033-.983.038-1.478H13.221v2.956H30.107C30.1,151.968,30.069,151.481,30.069,150.985Z"/><path class="cls-2" d="M30.311,143.295c.031-.494.094-.979.131-1.472l-16.854-1.06-.185,2.949,16.853,1.06C30.282,144.279,30.28,143.79,30.311,143.295Z"/><path class="cls-2" d="M31.035,135.636c.062-.492.155-.971.223-1.461l-16.753-2.116-.371,2.932,16.753,2.116C30.944,136.616,30.973,136.128,31.035,135.636Z"/><path class="cls-2" d="M32.238,128.037c.093-.487.216-.96.314-1.444l-16.587-3.164-.554,2.9L32,129.5C32.086,129.009,32.146,128.524,32.238,128.037Z"/><path class="cls-2" d="M33.916,120.529c.124-.48.277-.944.405-1.422l-16.356-4.2-.735,2.862,16.356,4.2C33.7,121.49,33.793,121.009,33.916,120.529Z"/><path class="cls-2" d="M36.063,113.141c.153-.471.335-.925.493-1.393L20.5,106.53l-.913,2.81,16.06,5.218C35.79,114.086,35.91,113.613,36.063,113.141Z"/><path class="cls-2" d="M38.669,105.9c.183-.461.392-.9.579-1.36l-15.7-6.216-1.088,2.747,15.7,6.216C38.337,106.829,38.487,106.363,38.669,105.9Z"/><path class="cls-2" d="M41.724,98.842c.212-.448.449-.876.664-1.321l-15.279-7.19-1.258,2.674L41.13,100.2C41.335,99.745,41.513,99.29,41.724,98.842Z"/><path class="cls-2" d="M45.217,91.987c.239-.435.5-.846.745-1.277l-14.8-8.135-1.424,2.59,14.8,8.135C44.772,92.864,44.978,92.421,45.217,91.987Z"/><path class="cls-2" d="M49.133,85.365c.266-.419.555-.813.824-1.227L35.7,75.089l-1.584,2.5,14.258,9.049C48.634,86.213,48.868,85.783,49.133,85.365Z"/><path class="cls-2" d="M53.458,79c.291-.4.6-.777.9-1.173L40.7,67.9l-1.737,2.391L52.62,80.22C52.906,79.816,53.167,79.4,53.458,79Z"/><path class="cls-2" d="M58.173,72.923c.316-.382.652-.737.971-1.115L46.133,61.044l-1.884,2.278L57.261,74.085C57.572,73.7,57.857,73.3,58.173,72.923Z"/><path class="cls-2" d="M63.261,67.152c.339-.361.7-.7,1.039-1.051L51.991,54.541,49.968,56.7l12.309,11.56C62.612,67.891,62.922,67.513,63.261,67.152Z"/><path class="cls-2" d="M68.7,61.711c.361-.339.739-.649,1.1-.983L58.245,48.418l-2.154,2.023L67.65,62.751C68.007,62.408,68.34,62.051,68.7,61.711Z"/><path class="cls-2" d="M74.472,56.624c.382-.316.778-.6,1.163-.913L64.871,42.7l-2.277,1.884L73.358,57.6C73.735,57.276,74.09,56.94,74.472,56.624Z"/><path class="cls-2" d="M80.551,51.908c.4-.291.815-.551,1.218-.837L71.843,37.409l-2.391,1.737,9.926,13.662C79.775,52.513,80.15,52.2,80.551,51.908Z"/><path class="cls-2" d="M86.914,47.584c.419-.265.848-.5,1.268-.759L79.134,32.567l-2.5,1.583,9.048,14.258C86.1,48.138,86.5,47.85,86.914,47.584Z"/><path class="cls-2" d="M93.536,43.668c.434-.239.878-.445,1.313-.679l-8.135-14.8-2.589,1.423,8.135,14.8C92.69,44.17,93.1,43.907,93.536,43.668Z"/><path class="cls-2" d="M100.391,40.175c.449-.211.9-.389,1.354-.595L94.554,24.3l-2.673,1.258,7.19,15.28C99.516,40.623,99.943,40.386,100.391,40.175Z"/><path class="cls-2" d="M107.452,37.12c.461-.183.926-.332,1.388-.509l-6.217-15.7L99.876,22l6.216,15.7C106.55,37.512,106.991,37.3,107.452,37.12Z"/><path class="cls-2" d="M114.691,34.514c.471-.154.945-.273,1.416-.421l-5.218-16.06-2.81.913,5.218,16.06C113.765,34.848,114.219,34.667,114.691,34.514Z"/><path class="cls-2" d="M122.078,32.367c.48-.123.961-.213,1.441-.33l-4.2-16.357-2.863.735,4.2,16.356C121.134,32.643,121.6,32.491,122.078,32.367Z"/><path class="cls-2" d="M129.587,30.689c.486-.093.972-.152,1.458-.24l-3.164-16.587-2.9.554L128.142,31C128.627,30.905,129.1,30.782,129.587,30.689Z"/><path class="cls-2" d="M137.186,29.485c.491-.062.979-.091,1.47-.147L136.54,12.585l-2.932.37,2.116,16.754C136.214,29.641,136.694,29.548,137.186,29.485Z"/><path class="cls-2" d="M144.845,28.761c.494-.031.983-.029,1.477-.054l-1.06-16.853-2.95.185,1.06,16.853C143.865,28.856,144.35,28.792,144.845,28.761Z"/><path class="cls-3" d="M125.275,116.712H105.041a1.842,1.842,0,0,0-1.905,1.9v2.606a1.846,1.846,0,0,0,1.905,1.9h14.825L106.344,175.11a19.963,19.963,0,0,0-.8,4.007,1.734,1.734,0,0,0,1.8,1.8h3.306a1.952,1.952,0,0,0,2-1.7l13.823-55.091a18.278,18.278,0,0,0,.6-3.207v-2.4A1.733,1.733,0,0,0,125.275,116.712Z"/><path class="cls-3" d="M149.022,147.66c2.906-2.2,4.91-6.509,4.91-14.12,0-12.421-4.609-17.43-12.121-17.43-8.014,0-12.021,3.805-12.021,16.025a2.372,2.372,0,0,0,2.506,2.7h2.4c1.5,0,2.1-1.2,2-3.3-.3-4.91.4-9.116,4.807-9.116,3.006,0,5.211,1.5,5.211,11.119,0,10.118-1.9,11.416-4.708,11.416h-2.807a1.842,1.842,0,0,0-1.9,1.905v2.1a1.84,1.84,0,0,0,1.9,1.905h2.807c3.1,0,5.409,1.3,5.409,12.319s-2.2,12.021-5.71,12.021c-4.407,0-5.31-4.308-5.009-10.216.1-2.1-.5-3.306-2-3.306h-2.4a2.372,2.372,0,0,0-2.506,2.7c0,13.222,4.007,17.13,12.021,17.13,7.512,0,12.822-4.407,12.822-18.333C154.633,154.673,152.427,149.965,149.022,147.66Z"/><path class="cls-3" d="M178.379,131.434c0-10.418-3.1-15.724-9.915-15.724-6.612,0-9.919,5.306-9.919,15.724,0,10.319,3.307,15.728,9.919,15.728C175.275,147.162,178.379,141.753,178.379,131.434Zm-13.922,0c0-6.811.8-10.315,4.007-10.315,3.307,0,4.008,3.5,4.008,10.315,0,6.711-.7,10.319-4.008,10.319C165.257,141.753,164.457,138.145,164.457,131.434Z"/><path class="cls-3" d="M191,150.468c-6.612,0-9.919,5.306-9.919,15.724,0,10.319,3.307,15.728,9.919,15.728,6.811,0,9.915-5.409,9.915-15.728C200.918,155.774,197.814,150.468,191,150.468Zm0,26.043c-3.207,0-4.007-3.607-4.007-10.319,0-6.811.8-10.315,4.007-10.315,3.3,0,4.007,3.5,4.007,10.315C195.01,172.9,194.305,176.511,191,176.511Z"/><path class="cls-3" d="M195.41,116.712h-2a2.886,2.886,0,0,0-2.507,1.9l-28.145,60.4c-.5,1.1.2,1.9,1.3,1.9h2a2.878,2.878,0,0,0,2.5-1.9l28.15-60.4C197.212,117.511,196.511,116.712,195.41,116.712Z"/></svg>