<svg id="Layer_1" data-name="Layer 1" xmlns="http://www.w3.org/2000/svg" viewBox="0 0 300 300"><defs><style>.cls-1{fill:#31f431;}.cls-2{fill:#e6e6e6;}.cls-3{fill:#5e5e5e;}</style></defs><path class="cls-1" d="M153.164,290.3A139.171,139.171,0,0,1,14.036,158.157L30.9,157.3A122.428,122.428,0,1,0,153.164,28.556l-1.406.008-.14-16.886,1.546-.008c76.818,0,139.314,62.5,139.314,139.313S229.982,290.3,153.164,290.3Z"/><path class="cls-2" d="M30.7,150.985c0-.5.032-.983.038-1.478H13.851v2.956H30.738C30.732,151.968,30.7,151.481,30.7,150.985Z"/><path class="cls-2" d="M30.941,143.295c.031-.494.094-.979.131-1.472l-16.853-1.06-.186,2.949,16.853,1.06C30.912,144.279,30.91,143.79,30.941,143.295Z"/><path class="cls-2" d="M31.665,135.636c.062-.492.155-.971.223-1.461l-16.753-2.116-.371,2.932,16.754,2.116C31.574,136.616,31.6,136.128,31.665,135.636Z"/><path class="cls-2" d="M32.869,128.037c.093-.487.216-.96.314-1.444L16.6,123.429l-.554,2.9L32.629,129.5C32.716,129.009,32.776,128.524,32.869,128.037Z"/><path class="cls-2" d="M34.547,120.529c.123-.48.276-.944.4-1.422l-16.356-4.2-.735,2.862,16.356,4.2C34.334,121.49,34.423,121.009,34.547,120.529Z"/><path class="cls-2" d="M36.693,113.141c.153-.471.335-.925.493-1.393l-16.06-5.218-.913,2.81,16.06,5.218C36.42,114.086,36.54,113.613,36.693,113.141Z"/><path class="cls-2" d="M39.3,105.9c.183-.461.393-.9.58-1.36l-15.7-6.216-1.088,2.747,15.7,6.216C38.968,106.829,39.117,106.363,39.3,105.9Z"/><path class="cls-2" d="M42.355,98.842c.211-.448.448-.876.663-1.321l-15.279-7.19-1.258,2.674L41.76,100.2C41.965,99.745,42.144,99.29,42.355,98.842Z"/><path class="cls-2" d="M45.848,91.987c.238-.435.5-.846.745-1.277L31.8,82.575l-1.424,2.59,14.8,8.135C45.4,92.864,45.609,92.421,45.848,91.987Z"/><path class="cls-2" d="M49.764,85.365c.266-.419.554-.813.824-1.227L36.33,75.089l-1.584,2.5L49,86.633C49.265,86.213,49.5,85.783,49.764,85.365Z"/><path class="cls-2" d="M54.088,79c.292-.4.6-.777.9-1.173L41.326,67.9l-1.737,2.391L53.251,80.22C53.536,79.816,53.8,79.4,54.088,79Z"/><path class="cls-2" d="M58.8,72.923c.317-.382.653-.737.972-1.115L46.763,61.044,44.88,63.322,57.891,74.085C58.2,73.7,58.488,73.3,58.8,72.923Z"/><path class="cls-2" d="M63.891,67.152c.34-.361.7-.7,1.04-1.051l-12.31-11.56L50.6,56.7l12.31,11.56C63.242,67.891,63.552,67.513,63.891,67.152Z"/><path class="cls-2" d="M69.331,61.711c.362-.339.739-.649,1.1-.983L58.875,48.418l-2.154,2.023,11.56,12.31C68.637,62.408,68.97,62.051,69.331,61.711Z"/><path class="cls-2" d="M75.1,56.624c.382-.316.779-.6,1.163-.913L65.5,42.7l-2.277,1.884L73.988,57.6C74.366,57.276,74.721,56.94,75.1,56.624Z"/><path class="cls-2" d="M81.181,51.908c.4-.291.815-.551,1.218-.837L72.473,37.409l-2.39,1.737,9.925,13.662C80.405,52.513,80.78,52.2,81.181,51.908Z"/><path class="cls-2" d="M87.545,47.584c.418-.265.847-.5,1.267-.759L79.764,32.567,77.269,34.15l9.048,14.258C86.732,48.138,87.126,47.85,87.545,47.584Z"/><path class="cls-2" d="M94.167,43.668c.434-.239.877-.445,1.313-.679l-8.135-14.8-2.59,1.423,8.135,14.8C93.321,44.17,93.732,43.907,94.167,43.668Z"/><path class="cls-2" d="M101.021,40.175c.449-.211.9-.389,1.354-.595L95.185,24.3l-2.674,1.258,7.19,15.28C100.146,40.623,100.573,40.386,101.021,40.175Z"/><path class="cls-2" d="M108.082,37.12c.461-.183.926-.332,1.388-.509l-6.216-15.7L100.506,22l6.216,15.7C107.18,37.512,107.621,37.3,108.082,37.12Z"/><path class="cls-2" d="M115.321,34.514c.471-.154.945-.273,1.417-.421l-5.218-16.06-2.811.913,5.218,16.06C114.4,34.848,114.849,34.667,115.321,34.514Z"/><path class="cls-2" d="M122.709,32.367c.48-.123.961-.213,1.441-.33l-4.2-16.357-2.862.735,4.2,16.356C121.764,32.643,122.229,32.491,122.709,32.367Z"/><path class="cls-2" d="M130.217,30.689c.487-.093.972-.152,1.458-.24l-3.164-16.587-2.9.554L128.773,31C129.257,30.905,129.73,30.782,130.217,30.689Z"/><path class="cls-2" d="M137.816,29.485c.491-.062.979-.091,1.471-.147L137.17,12.585l-2.932.37,2.117,16.754C136.844,29.641,137.324,29.548,137.816,29.485Z"/><path class="cls-2" d="M145.475,28.761c.494-.031.983-.029,1.477-.054l-1.06-16.853-2.949.185L144,28.892C144.5,28.856,144.98,28.792,145.475,28.761Z"/><path class="cls-3" d="M127.711,116.712H107.476a1.841,1.841,0,0,0-1.9,1.9v2.606a1.845,1.845,0,0,0,1.9,1.9H122.3L108.779,175.11a19.963,19.963,0,0,0-.8,4.007,1.734,1.734,0,0,0,1.8,1.8h3.306a1.952,1.952,0,0,0,2-1.7l13.824-55.091a18.367,18.367,0,0,0,.6-3.207v-2.4A1.733,1.733,0,0,0,127.711,116.712Z"/><path class="cls-3" d="M153.461,160.383h-3.9v-11.42a1.842,1.842,0,0,0-1.905-1.9h-3.207a1.839,1.839,0,0,0-1.9,1.9v11.42H134.83l9.916-37.862a19.8,19.8,0,0,0,.8-4.008,1.734,1.734,0,0,0-1.806-1.8h-3.1a1.948,1.948,0,0,0-2,1.7L128.42,159.381a17.923,17.923,0,0,0-.6,3.208v2.4a1.735,1.735,0,0,0,1.8,1.8h12.921v12.22a1.84,1.84,0,0,0,1.9,1.9h3.207a1.843,1.843,0,0,0,1.905-1.9v-12.22h3.9a1.843,1.843,0,0,0,1.905-1.9v-2.606A1.846,1.846,0,0,0,153.461,160.383Z"/><path class="cls-3" d="M189.831,150.468c-6.613,0-9.919,5.306-9.919,15.724,0,10.319,3.306,15.728,9.919,15.728,6.811,0,9.915-5.409,9.915-15.728C199.746,155.774,196.642,150.468,189.831,150.468Zm0,26.043c-3.207,0-4.007-3.607-4.007-10.319,0-6.811.8-10.315,4.007-10.315,3.3,0,4.008,3.5,4.008,10.315C193.839,172.9,193.134,176.511,189.831,176.511Z"/><path class="cls-3" d="M177.207,131.434c0-10.418-3.1-15.724-9.914-15.724-6.613,0-9.92,5.306-9.92,15.724,0,10.319,3.307,15.728,9.92,15.728C174.1,147.162,177.207,141.753,177.207,131.434Zm-13.922,0c0-6.811.8-10.315,4.008-10.315,3.306,0,4.007,3.5,4.007,10.315,0,6.711-.7,10.319-4.007,10.319C164.085,141.753,163.285,138.145,163.285,131.434Z"/><path class="cls-3" d="M194.238,116.712h-2a2.891,2.891,0,0,0-2.507,1.9l-28.146,60.4c-.5,1.1.2,1.9,1.3,1.9h2a2.879,2.879,0,0,0,2.5-1.9l28.15-60.4C196.04,117.511,195.339,116.712,194.238,116.712Z"/></svg>