<svg id="Layer_1" data-name="Layer 1" xmlns="http://www.w3.org/2000/svg" viewBox="0 0 300 300"><defs><style>.cls-1{fill:#31f431;}.cls-2{fill:#e6e6e6;}.cls-3{fill:#5e5e5e;}</style></defs><path class="cls-1" d="M153.793,290.3C76.975,290.3,14.48,227.8,14.48,150.983l.008-1.546,16.887.141-.009,1.405A122.428,122.428,0,1,0,153.793,28.556l-1.405.008-.141-16.886,1.546-.008c76.818,0,139.314,62.5,139.314,139.313S230.611,290.3,153.793,290.3Z"/><path class="cls-2" d="M31.571,143.295c.031-.494.094-.979.131-1.472l-16.853-1.06-.186,2.949,16.853,1.06C31.542,144.279,31.54,143.79,31.571,143.295Z"/><path class="cls-2" d="M32.3,135.636c.062-.492.156-.971.223-1.461l-16.753-2.116-.371,2.932,16.754,2.116C32.2,136.616,32.233,136.128,32.3,135.636Z"/><path class="cls-2" d="M33.5,128.037c.093-.487.217-.96.315-1.444l-16.588-3.164-.553,2.9L33.259,129.5C33.347,129.009,33.406,128.524,33.5,128.037Z"/><path class="cls-2" d="M35.177,120.529c.123-.48.276-.944.4-1.422l-16.356-4.2-.735,2.862,16.357,4.2C34.964,121.49,35.054,121.009,35.177,120.529Z"/><path class="cls-2" d="M37.323,113.141c.154-.471.335-.925.493-1.393l-16.06-5.218-.913,2.81,16.06,5.218C37.051,114.086,37.17,113.613,37.323,113.141Z"/><path class="cls-2" d="M39.929,105.9c.183-.461.392-.9.58-1.36l-15.7-6.216-1.088,2.747,15.7,6.216C39.6,106.829,39.747,106.363,39.929,105.9Z"/><path class="cls-2" d="M42.985,98.842c.211-.448.448-.876.664-1.321l-15.28-7.19-1.258,2.674L42.39,100.2C42.6,99.745,42.774,99.29,42.985,98.842Z"/><path class="cls-2" d="M46.477,91.987c.239-.435.5-.846.746-1.277l-14.8-8.135L31,85.165,45.8,93.3C46.033,92.864,46.239,92.421,46.477,91.987Z"/><path class="cls-2" d="M50.394,85.365c.265-.419.554-.813.824-1.227L36.96,75.089l-1.583,2.5,14.257,9.049C49.894,86.213,50.128,85.783,50.394,85.365Z"/><path class="cls-2" d="M54.718,79c.291-.4.6-.777.9-1.173L41.956,67.9l-1.737,2.391L53.881,80.22C54.167,79.816,54.427,79.4,54.718,79Z"/><path class="cls-2" d="M59.434,72.923c.315-.382.651-.737.971-1.115L47.394,61.044,45.51,63.322,58.521,74.085C58.832,73.7,59.118,73.3,59.434,72.923Z"/><path class="cls-2" d="M64.522,67.152c.339-.361.7-.7,1.039-1.051l-12.31-11.56L51.228,56.7l12.309,11.56C63.872,67.891,64.182,67.513,64.522,67.152Z"/><path class="cls-2" d="M69.962,61.711c.361-.339.738-.649,1.1-.983l-11.56-12.31-2.154,2.023L68.91,62.751C69.267,62.408,69.6,62.051,69.962,61.711Z"/><path class="cls-2" d="M75.733,56.624c.381-.316.778-.6,1.162-.913L66.131,42.7l-2.277,1.884L74.618,57.6C75,57.276,75.35,56.94,75.733,56.624Z"/><path class="cls-2" d="M81.811,51.908c.4-.291.815-.551,1.218-.837L73.1,37.409l-2.391,1.737,9.926,13.662C81.035,52.513,81.411,52.2,81.811,51.908Z"/><path class="cls-2" d="M88.175,47.584c.418-.265.847-.5,1.268-.759L80.394,32.567,77.9,34.15l9.048,14.258C87.362,48.138,87.756,47.85,88.175,47.584Z"/><path class="cls-2" d="M94.8,43.668c.434-.239.877-.445,1.313-.679l-8.135-14.8-2.59,1.423,8.135,14.8C93.951,44.17,94.362,43.907,94.8,43.668Z"/><path class="cls-2" d="M101.652,40.175c.448-.211.9-.389,1.353-.595L95.815,24.3l-2.674,1.258,7.19,15.28C100.776,40.623,101.2,40.386,101.652,40.175Z"/><path class="cls-2" d="M108.712,37.12c.461-.183.927-.332,1.388-.509l-6.216-15.7L101.136,22l6.217,15.7C107.81,37.512,108.251,37.3,108.712,37.12Z"/><path class="cls-2" d="M115.951,34.514c.471-.154.945-.273,1.417-.421l-5.218-16.06-2.811.913,5.219,16.06C115.026,34.848,115.48,34.667,115.951,34.514Z"/><path class="cls-2" d="M123.339,32.367c.48-.123.96-.213,1.44-.33l-4.2-16.357-2.863.735,4.2,16.356C122.4,32.643,122.859,32.491,123.339,32.367Z"/><path class="cls-2" d="M130.847,30.689c.487-.093.972-.152,1.459-.24l-3.165-16.587-2.9.554L129.4,31C129.887,30.905,130.36,30.782,130.847,30.689Z"/><path class="cls-2" d="M138.446,29.485c.491-.062.98-.091,1.47-.147L137.8,12.585l-2.932.37,2.117,16.754C137.474,29.641,137.954,29.548,138.446,29.485Z"/><path class="cls-2" d="M146.1,28.761c.5-.031.984-.029,1.477-.054l-1.06-16.853-2.95.185,1.061,16.853C145.126,28.856,145.611,28.792,146.1,28.761Z"/><path class="cls-3" d="M126.39,116.712H106.156a1.842,1.842,0,0,0-1.905,1.9v2.606a1.846,1.846,0,0,0,1.905,1.9h14.825L107.459,175.11a19.963,19.963,0,0,0-.8,4.007,1.734,1.734,0,0,0,1.8,1.8h3.307a1.951,1.951,0,0,0,2-1.7l13.824-55.091a18.278,18.278,0,0,0,.6-3.207v-2.4A1.733,1.733,0,0,0,126.39,116.712Z"/><path class="cls-3" d="M145.532,139.251a8.4,8.4,0,0,0-5.211,1.9V123.122h13.625a1.841,1.841,0,0,0,1.9-1.9v-2.606a1.838,1.838,0,0,0-1.9-1.9H135.212a1.841,1.841,0,0,0-1.9,1.9V151.87a2.2,2.2,0,0,0,2.408,2.4h1.7c1.4,0,1.8-1.1,1.8-3,0-3.2,1.4-6.011,4.807-6.011,3.706,0,5.512,2.606,5.512,15.126,0,12.624-2.3,14.925-5.611,14.925-5.611,0-5.009-6.11-4.807-9.215.1-2.1-.5-3.306-2-3.306h-2.4a2.373,2.373,0,0,0-2.507,2.7c0,10.319,2.606,16.029,12.022,16.029,8.814,0,12.121-6.513,12.121-21.137S153.245,139.251,145.532,139.251Z"/><path class="cls-3" d="M192.419,150.468c-6.613,0-9.919,5.306-9.919,15.724,0,10.319,3.306,15.728,9.919,15.728,6.811,0,9.915-5.409,9.915-15.728C202.334,155.774,199.23,150.468,192.419,150.468Zm0,26.043c-3.207,0-4.007-3.607-4.007-10.319,0-6.811.8-10.315,4.007-10.315,3.3,0,4.007,3.5,4.007,10.315C196.426,172.9,195.721,176.511,192.419,176.511Z"/><path class="cls-3" d="M196.826,116.712h-2a2.885,2.885,0,0,0-2.507,1.9l-28.146,60.4c-.5,1.1.2,1.9,1.3,1.9h2a2.879,2.879,0,0,0,2.5-1.9l28.15-60.4C198.628,117.511,197.927,116.712,196.826,116.712Z"/><path class="cls-3" d="M179.8,131.434c0-10.418-3.1-15.724-9.915-15.724-6.612,0-9.919,5.306-9.919,15.724,0,10.319,3.307,15.728,9.919,15.728C176.691,147.162,179.8,141.753,179.8,131.434Zm-13.922,0c0-6.811.8-10.315,4.007-10.315,3.307,0,4.008,3.5,4.008,10.315,0,6.711-.7,10.319-4.008,10.319C166.673,141.753,165.873,138.145,165.873,131.434Z"/></svg>