<svg id="Layer_1" data-name="Layer 1" xmlns="http://www.w3.org/2000/svg" viewBox="0 0 300 300"><defs><style>.cls-1{fill:#31f431;}.cls-2{fill:#e6e6e6;}.cls-3{fill:#5e5e5e;}</style></defs><path class="cls-1" d="M154.427,290.3c-76.818,0-139.314-62.5-139.314-139.314,0-3.466.124-6.934.371-10.31l16.846,1.236c-.219,2.965-.33,6.02-.33,9.074A122.427,122.427,0,1,0,154.427,28.556l-1.41.008-.14-16.886,1.55-.008c76.818,0,139.314,62.5,139.314,139.313S231.245,290.3,154.427,290.3Z"/><path class="cls-2" d="M32.925,135.636c.063-.492.156-.971.224-1.461L16.4,132.059l-.37,2.932,16.753,2.116C32.834,136.616,32.863,136.128,32.925,135.636Z"/><path class="cls-2" d="M34.129,128.037c.093-.487.216-.96.314-1.444l-16.587-3.164-.554,2.9L33.889,129.5C33.977,129.009,34.036,128.524,34.129,128.037Z"/><path class="cls-2" d="M35.807,120.529c.124-.48.276-.944.4-1.422l-16.356-4.2-.734,2.862,16.356,4.2C35.594,121.49,35.684,121.009,35.807,120.529Z"/><path class="cls-2" d="M37.954,113.141c.153-.471.334-.925.492-1.393l-16.06-5.218-.913,2.81,16.06,5.218C37.681,114.086,37.8,113.613,37.954,113.141Z"/><path class="cls-2" d="M40.56,105.9c.182-.461.392-.9.579-1.36l-15.7-6.216-1.088,2.747,15.7,6.216C40.228,106.829,40.377,106.363,40.56,105.9Z"/><path class="cls-2" d="M43.615,98.842c.211-.448.448-.876.664-1.321L29,90.331l-1.258,2.674L43.02,100.2C43.226,99.745,43.4,99.29,43.615,98.842Z"/><path class="cls-2" d="M47.108,91.987c.239-.435.5-.846.745-1.277l-14.8-8.135-1.423,2.59,14.8,8.135C46.663,92.864,46.869,92.421,47.108,91.987Z"/><path class="cls-2" d="M51.024,85.365c.266-.419.554-.813.824-1.227L37.59,75.089l-1.583,2.5,14.258,9.049C50.525,86.213,50.759,85.783,51.024,85.365Z"/><path class="cls-2" d="M55.348,79c.292-.4.605-.777.9-1.173L42.586,67.9l-1.737,2.391L54.511,80.22C54.8,79.816,55.057,79.4,55.348,79Z"/><path class="cls-2" d="M60.064,72.923c.316-.382.652-.737.971-1.115L48.024,61.044,46.14,63.322,59.151,74.085C59.462,73.7,59.748,73.3,60.064,72.923Z"/><path class="cls-2" d="M65.152,67.152c.339-.361.7-.7,1.039-1.051l-12.31-11.56L51.858,56.7l12.31,11.56C64.5,67.891,64.812,67.513,65.152,67.152Z"/><path class="cls-2" d="M70.592,61.711c.361-.339.739-.649,1.1-.983l-11.56-12.31-2.154,2.023,11.56,12.31C69.9,62.408,70.23,62.051,70.592,61.711Z"/><path class="cls-2" d="M76.363,56.624c.381-.316.778-.6,1.162-.913L66.762,42.7l-2.278,1.884L75.248,57.6C75.626,57.276,75.981,56.94,76.363,56.624Z"/><path class="cls-2" d="M82.442,51.908c.4-.291.814-.551,1.217-.837L73.734,37.409l-2.391,1.737,9.926,13.662C81.665,52.513,82.041,52.2,82.442,51.908Z"/><path class="cls-2" d="M88.805,47.584c.418-.265.847-.5,1.268-.759L81.024,32.567l-2.5,1.583,9.049,14.258C87.992,48.138,88.386,47.85,88.805,47.584Z"/><path class="cls-2" d="M95.427,43.668c.434-.239.877-.445,1.313-.679l-8.135-14.8-2.59,1.423,8.136,14.8C94.581,44.17,94.992,43.907,95.427,43.668Z"/><path class="cls-2" d="M102.282,40.175c.448-.211.9-.389,1.353-.595L96.445,24.3l-2.674,1.258,7.19,15.28C101.406,40.623,101.834,40.386,102.282,40.175Z"/><path class="cls-2" d="M109.343,37.12c.46-.183.926-.332,1.387-.509l-6.216-15.7L101.766,22l6.217,15.7C108.44,37.512,108.882,37.3,109.343,37.12Z"/><path class="cls-2" d="M116.581,34.514c.472-.154.945-.273,1.417-.421l-5.218-16.06-2.81.913,5.218,16.06C115.656,34.848,116.11,34.667,116.581,34.514Z"/><path class="cls-2" d="M123.969,32.367c.48-.123.961-.213,1.441-.33l-4.2-16.357-2.862.735,4.2,16.356C123.025,32.643,123.489,32.491,123.969,32.367Z"/><path class="cls-2" d="M131.477,30.689c.487-.093.972-.152,1.459-.24l-3.165-16.587-2.9.554L130.033,31C130.517,30.905,130.991,30.782,131.477,30.689Z"/><path class="cls-2" d="M139.076,29.485c.492-.062.98-.091,1.471-.147L138.43,12.585l-2.931.37,2.116,16.754C138.1,29.641,138.585,29.548,139.076,29.485Z"/><path class="cls-2" d="M146.735,28.761c.495-.031.984-.029,1.477-.054l-1.06-16.853-2.949.185,1.06,16.853C145.756,28.856,146.241,28.792,146.735,28.761Z"/><path class="cls-3" d="M127.32,116.712H107.086a1.841,1.841,0,0,0-1.9,1.9v2.606a1.845,1.845,0,0,0,1.9,1.9h14.826L108.389,175.11a19.963,19.963,0,0,0-.8,4.007,1.734,1.734,0,0,0,1.8,1.8H112.7a1.952,1.952,0,0,0,2-1.7l13.823-55.091a18.278,18.278,0,0,0,.6-3.207v-2.4A1.733,1.733,0,0,0,127.32,116.712Z"/><path class="cls-3" d="M145.46,142.854c-2.506,0-5.71,1.2-7.111,3.908,0-17.332.7-24.341,6.411-24.341,4.205,0,5.107,4.206,4.806,9.116-.1,2.1.5,3.3,2,3.3h2.3a2.37,2.37,0,0,0,2.5-2.7c0-12.22-4.308-16.025-11.617-16.025-12.925,0-13.325,13.221-13.325,37.261,0,20.234,2.906,28.149,13.024,28.149,7.812,0,12.619-4.91,12.619-19.335S152.671,142.854,145.46,142.854Zm-1,32.655c-3.1,0-6.012-1.7-6.012-13.324s2.907-13.321,6.012-13.321,5.408,1.7,5.408,13.321S147.563,175.509,144.459,175.509Z"/><path class="cls-3" d="M180.124,131.434c0-10.418-3.1-15.724-9.915-15.724-6.613,0-9.919,5.306-9.919,15.724,0,10.319,3.306,15.728,9.919,15.728C177.02,147.162,180.124,141.753,180.124,131.434Zm-13.922,0c0-6.811.8-10.315,4.007-10.315,3.306,0,4.007,3.5,4.007,10.315,0,6.711-.7,10.319-4.007,10.319C167,141.753,166.2,138.145,166.2,131.434Z"/><path class="cls-3" d="M197.155,116.712h-2a2.891,2.891,0,0,0-2.507,1.9l-28.145,60.4c-.5,1.1.2,1.9,1.3,1.9h2a2.881,2.881,0,0,0,2.5-1.9l28.149-60.4C198.956,117.511,198.255,116.712,197.155,116.712Z"/><path class="cls-3" d="M192.748,150.468c-6.614,0-9.92,5.306-9.92,15.724,0,10.319,3.306,15.728,9.92,15.728,6.81,0,9.915-5.409,9.915-15.728C202.663,155.774,199.558,150.468,192.748,150.468Zm0,26.043c-3.208,0-4.008-3.607-4.008-10.319,0-6.811.8-10.315,4.008-10.315,3.3,0,4.007,3.5,4.007,10.315C196.755,172.9,196.05,176.511,192.748,176.511Z"/></svg>