<svg id="Layer_1" data-name="Layer 1" xmlns="http://www.w3.org/2000/svg" viewBox="0 0 300 300"><defs><style>.cls-1{fill:#31f431;}.cls-2{fill:#e6e6e6;}.cls-3{fill:#5e5e5e;}</style></defs><path class="cls-1" d="M155.057,290.3c-76.819,0-139.314-62.5-139.314-139.314a141.224,141.224,0,0,1,1.286-19l16.73,2.276a124.5,124.5,0,0,0-1.13,16.729A122.428,122.428,0,1,0,155.057,28.556l-1.4.008-.14-16.886,1.538-.008c76.818,0,139.313,62.5,139.313,139.313S231.875,290.3,155.057,290.3Z"/><path class="cls-2" d="M34.759,128.037c.093-.487.216-.96.314-1.444l-16.587-3.164-.554,2.9L34.519,129.5C34.607,129.009,34.666,128.524,34.759,128.037Z"/><path class="cls-2" d="M36.437,120.529c.123-.48.276-.944.405-1.422l-16.356-4.2-.735,2.862,16.356,4.2C36.224,121.49,36.314,121.009,36.437,120.529Z"/><path class="cls-2" d="M38.583,113.141c.154-.471.336-.925.494-1.393L23.016,106.53l-.913,2.81,16.06,5.218C38.311,114.086,38.431,113.613,38.583,113.141Z"/><path class="cls-2" d="M41.19,105.9c.182-.461.392-.9.579-1.36l-15.7-6.216-1.088,2.747,15.7,6.216C40.858,106.829,41.007,106.363,41.19,105.9Z"/><path class="cls-2" d="M44.245,98.842c.211-.448.448-.876.664-1.321l-15.28-7.19-1.258,2.674L43.65,100.2C43.856,99.745,44.034,99.29,44.245,98.842Z"/><path class="cls-2" d="M47.738,91.987c.239-.435.5-.846.745-1.277l-14.8-8.135-1.423,2.59,14.8,8.135C47.293,92.864,47.5,92.421,47.738,91.987Z"/><path class="cls-2" d="M51.654,85.365c.266-.419.555-.813.824-1.227L38.22,75.089l-1.583,2.5L50.9,86.633C51.155,86.213,51.388,85.783,51.654,85.365Z"/><path class="cls-2" d="M55.979,79c.291-.4.6-.777.9-1.173L43.216,67.9l-1.737,2.391L55.141,80.22C55.427,79.816,55.687,79.4,55.979,79Z"/><path class="cls-2" d="M60.694,72.923c.316-.382.652-.737.971-1.115L48.654,61.044,46.77,63.322,59.781,74.085C60.092,73.7,60.378,73.3,60.694,72.923Z"/><path class="cls-2" d="M65.782,67.152c.339-.361.7-.7,1.039-1.051l-12.31-11.56L52.488,56.7,64.8,68.255C65.132,67.891,65.442,67.513,65.782,67.152Z"/><path class="cls-2" d="M71.222,61.711c.361-.339.739-.649,1.1-.983l-11.56-12.31-2.154,2.023,11.56,12.31C70.527,62.408,70.86,62.051,71.222,61.711Z"/><path class="cls-2" d="M76.993,56.624c.382-.316.778-.6,1.162-.913L67.391,42.7l-2.276,1.884L75.879,57.6C76.256,57.276,76.611,56.94,76.993,56.624Z"/><path class="cls-2" d="M83.072,51.908c.4-.291.815-.551,1.217-.837L74.364,37.409l-2.391,1.737L81.9,52.808C82.3,52.513,82.671,52.2,83.072,51.908Z"/><path class="cls-2" d="M89.435,47.584c.419-.265.847-.5,1.268-.759L81.655,32.567l-2.5,1.583,9.048,14.258C88.622,48.138,89.016,47.85,89.435,47.584Z"/><path class="cls-2" d="M96.057,43.668c.434-.239.877-.445,1.313-.679l-8.135-14.8-2.59,1.423,8.135,14.8C95.211,44.17,95.623,43.907,96.057,43.668Z"/><path class="cls-2" d="M102.912,40.175c.448-.211.9-.389,1.353-.595L97.075,24.3,94.4,25.559l7.19,15.28C102.036,40.623,102.464,40.386,102.912,40.175Z"/><path class="cls-2" d="M109.972,37.12c.461-.183.927-.332,1.389-.509l-6.217-15.7L102.4,22l6.217,15.7C109.07,37.512,109.512,37.3,109.972,37.12Z"/><path class="cls-2" d="M117.211,34.514c.472-.154.946-.273,1.417-.421l-5.218-16.06-2.811.913,5.219,16.06C116.286,34.848,116.74,34.667,117.211,34.514Z"/><path class="cls-2" d="M124.6,32.367c.48-.123.961-.213,1.441-.33l-4.2-16.357-2.862.735,4.2,16.356C123.655,32.643,124.119,32.491,124.6,32.367Z"/><path class="cls-2" d="M132.107,30.689c.487-.093.973-.152,1.459-.24L130.4,13.862l-2.9.554L130.663,31C131.148,30.905,131.621,30.782,132.107,30.689Z"/><path class="cls-2" d="M139.706,29.485c.492-.062.98-.091,1.471-.147L139.06,12.585l-2.932.37,2.117,16.754C138.734,29.641,139.214,29.548,139.706,29.485Z"/><path class="cls-2" d="M147.366,28.761c.494-.031.983-.029,1.476-.054l-1.06-16.853-2.949.185,1.06,16.853C146.386,28.856,146.871,28.792,147.366,28.761Z"/><path class="cls-3" d="M129.051,116.712H108.817a1.842,1.842,0,0,0-1.9,1.9v2.606a1.846,1.846,0,0,0,1.9,1.9h14.825L110.119,175.11a20.034,20.034,0,0,0-.8,4.007,1.734,1.734,0,0,0,1.8,1.8h3.307a1.952,1.952,0,0,0,2-1.7l13.824-55.091a18.367,18.367,0,0,0,.6-3.207v-2.4A1.733,1.733,0,0,0,129.051,116.712Z"/><path class="cls-3" d="M155.6,116.712H135.367a1.842,1.842,0,0,0-1.905,1.9v2.606a1.846,1.846,0,0,0,1.905,1.9h14.825L136.67,175.11a19.893,19.893,0,0,0-.8,4.007,1.733,1.733,0,0,0,1.8,1.8h3.307a1.952,1.952,0,0,0,2-1.7l13.824-55.091a18.275,18.275,0,0,0,.6-3.207v-2.4A1.733,1.733,0,0,0,155.6,116.712Z"/><path class="cls-3" d="M179.648,131.434c0-10.418-3.1-15.724-9.915-15.724-6.612,0-9.919,5.306-9.919,15.724,0,10.319,3.307,15.728,9.919,15.728C176.544,147.162,179.648,141.753,179.648,131.434Zm-13.922,0c0-6.811.8-10.315,4.007-10.315,3.307,0,4.008,3.5,4.008,10.315,0,6.711-.7,10.319-4.008,10.319C166.526,141.753,165.726,138.145,165.726,131.434Z"/><path class="cls-3" d="M192.272,150.468c-6.613,0-9.919,5.306-9.919,15.724,0,10.319,3.306,15.728,9.919,15.728,6.811,0,9.915-5.409,9.915-15.728C202.187,155.774,199.083,150.468,192.272,150.468Zm0,26.043c-3.207,0-4.007-3.607-4.007-10.319,0-6.811.8-10.315,4.007-10.315,3.3,0,4.007,3.5,4.007,10.315C196.279,172.9,195.574,176.511,192.272,176.511Z"/><path class="cls-3" d="M196.679,116.712h-2a2.891,2.891,0,0,0-2.507,1.9l-28.146,60.4c-.5,1.1.2,1.9,1.3,1.9h2a2.878,2.878,0,0,0,2.5-1.9l28.15-60.4C198.481,117.511,197.78,116.712,196.679,116.712Z"/></svg>