<svg id="Layer_1" data-name="Layer 1" xmlns="http://www.w3.org/2000/svg" viewBox="0 0 300 300"><defs><style>.cls-1{fill:#31f431;}.cls-2{fill:#e6e6e6;}.cls-3{fill:#5e5e5e;}</style></defs><path class="cls-1" d="M155.686,290.3c-76.818,0-139.314-62.5-139.314-139.314a140.531,140.531,0,0,1,2.742-27.642l16.557,3.331A122.441,122.441,0,1,0,155.686,28.556l-1.4.008-.14-16.886,1.537-.008C232.5,11.67,295,74.166,295,150.983S232.5,290.3,155.686,290.3Z"/><path class="cls-2" d="M37.068,120.529c.123-.48.276-.944.4-1.422l-16.356-4.2-.735,2.862,16.356,4.2C36.855,121.49,36.944,121.009,37.068,120.529Z"/><path class="cls-2" d="M39.214,113.141c.153-.471.335-.925.493-1.393l-16.06-5.218-.914,2.81,16.061,5.218C38.941,114.086,39.061,113.613,39.214,113.141Z"/><path class="cls-2" d="M41.82,105.9c.183-.461.392-.9.579-1.36L26.7,98.327l-1.088,2.747,15.7,6.216C41.488,106.829,41.637,106.363,41.82,105.9Z"/><path class="cls-2" d="M44.875,98.842c.212-.448.449-.876.664-1.321L30.26,90.331,29,93.005l15.28,7.19C44.486,99.745,44.664,99.29,44.875,98.842Z"/><path class="cls-2" d="M48.368,91.987c.239-.435.5-.846.746-1.277l-14.8-8.135-1.424,2.59L47.69,93.3C47.923,92.864,48.129,92.421,48.368,91.987Z"/><path class="cls-2" d="M52.284,85.365c.266-.419.555-.813.824-1.227L38.851,75.089l-1.584,2.5,14.258,9.049C51.785,86.213,52.019,85.783,52.284,85.365Z"/><path class="cls-2" d="M56.609,79c.291-.4.6-.777.9-1.173L43.847,67.9,42.11,70.294,55.771,80.22C56.057,79.816,56.318,79.4,56.609,79Z"/><path class="cls-2" d="M61.324,72.923c.316-.382.652-.737.972-1.115L49.284,61.044,47.4,63.322,60.412,74.085C60.723,73.7,61.008,73.3,61.324,72.923Z"/><path class="cls-2" d="M66.412,67.152c.34-.361.7-.7,1.039-1.051L55.142,54.541,53.119,56.7l12.309,11.56C65.763,67.891,66.073,67.513,66.412,67.152Z"/><path class="cls-2" d="M71.852,61.711c.361-.339.739-.649,1.1-.983L61.4,48.418l-2.154,2.023L70.8,62.751C71.158,62.408,71.491,62.051,71.852,61.711Z"/><path class="cls-2" d="M77.623,56.624c.382-.316.779-.6,1.163-.913L68.022,42.7l-2.277,1.884L76.509,57.6C76.886,57.276,77.241,56.94,77.623,56.624Z"/><path class="cls-2" d="M83.7,51.908c.4-.291.815-.551,1.218-.837L74.994,37.409,72.6,39.146l9.925,13.662C82.926,52.513,83.3,52.2,83.7,51.908Z"/><path class="cls-2" d="M90.065,47.584c.419-.265.848-.5,1.268-.759L82.285,32.567,79.79,34.15l9.048,14.258C89.252,48.138,89.647,47.85,90.065,47.584Z"/><path class="cls-2" d="M96.688,43.668c.433-.239.877-.445,1.312-.679l-8.135-14.8-2.589,1.423,8.135,14.8C95.841,44.17,96.253,43.907,96.688,43.668Z"/><path class="cls-2" d="M103.542,40.175c.449-.211.9-.389,1.353-.595L97.705,24.3l-2.673,1.258,7.19,15.28C102.666,40.623,103.094,40.386,103.542,40.175Z"/><path class="cls-2" d="M110.6,37.12c.461-.183.926-.332,1.388-.509l-6.216-15.7L103.027,22l6.216,15.7C109.7,37.512,110.142,37.3,110.6,37.12Z"/><path class="cls-2" d="M117.842,34.514c.471-.154.945-.273,1.416-.421l-5.217-16.06-2.811.913,5.218,16.06C116.916,34.848,117.37,34.667,117.842,34.514Z"/><path class="cls-2" d="M125.23,32.367c.48-.123.96-.213,1.44-.33l-4.2-16.357-2.863.735,4.2,16.356C124.285,32.643,124.75,32.491,125.23,32.367Z"/><path class="cls-2" d="M132.738,30.689c.486-.093.972-.152,1.458-.24l-3.164-16.587-2.9.554L131.293,31C131.778,30.905,132.251,30.782,132.738,30.689Z"/><path class="cls-2" d="M140.337,29.485c.491-.062.979-.091,1.47-.147l-2.116-16.753-2.932.37,2.117,16.754C139.365,29.641,139.845,29.548,140.337,29.485Z"/><path class="cls-2" d="M148,28.761c.494-.031.983-.029,1.477-.054l-1.06-16.853-2.95.185,1.06,16.853C147.017,28.856,147.5,28.792,148,28.761Z"/><path class="cls-3" d="M128.18,116.712H107.945a1.841,1.841,0,0,0-1.9,1.9v2.606a1.845,1.845,0,0,0,1.9,1.9h14.826L109.248,175.11a19.95,19.95,0,0,0-.8,4.007,1.733,1.733,0,0,0,1.8,1.8h3.307a1.952,1.952,0,0,0,2-1.7l13.824-55.091a18.367,18.367,0,0,0,.6-3.207v-2.4A1.733,1.733,0,0,0,128.18,116.712Z"/><path class="cls-3" d="M152.425,147.66c2.907-2.2,4.91-6.509,4.91-14.12,0-12.421-4.609-17.43-11.918-17.43s-11.923,5.108-11.923,17.43c0,7.611,2,11.919,4.91,14.12-3.405,2.305-5.611,7.116-5.611,15.527,0,13.225,4.807,18.333,12.624,18.333s12.619-5.108,12.619-18.333C158.036,154.673,155.83,149.965,152.425,147.66Zm-7.008-25.54c2.8,0,4.7,1.3,4.7,11.42s-1.9,11.416-4.7,11.416-4.708-1.3-4.708-11.416S142.609,122.12,145.417,122.12Zm0,53.389c-3.109,0-5.409-1.3-5.409-12.322s2.3-12.319,5.409-12.319,5.409,1.3,5.409,12.319S148.521,175.509,145.417,175.509Z"/><path class="cls-3" d="M181.783,131.434c0-10.418-3.1-15.724-9.915-15.724-6.613,0-9.92,5.306-9.92,15.724,0,10.319,3.307,15.728,9.92,15.728C178.678,147.162,181.783,141.753,181.783,131.434Zm-13.923,0c0-6.811.8-10.315,4.008-10.315,3.306,0,4.007,3.5,4.007,10.315,0,6.711-.7,10.319-4.007,10.319C168.66,141.753,167.86,138.145,167.86,131.434Z"/><path class="cls-3" d="M194.406,150.468c-6.612,0-9.919,5.306-9.919,15.724,0,10.319,3.307,15.728,9.919,15.728,6.811,0,9.916-5.409,9.916-15.728C204.322,155.774,201.217,150.468,194.406,150.468Zm0,26.043c-3.207,0-4.007-3.607-4.007-10.319,0-6.811.8-10.315,4.007-10.315,3.3,0,4.008,3.5,4.008,10.315C198.414,172.9,197.709,176.511,194.406,176.511Z"/><path class="cls-3" d="M198.814,116.712h-2a2.886,2.886,0,0,0-2.507,1.9l-28.145,60.4c-.5,1.1.2,1.9,1.3,1.9h2a2.881,2.881,0,0,0,2.5-1.9l28.15-60.4C200.615,117.511,199.914,116.712,198.814,116.712Z"/></svg>