<svg id="Layer_1" data-name="Layer 1" xmlns="http://www.w3.org/2000/svg" viewBox="0 0 300 300"><defs><style>.cls-1{fill:#f21b16;}.cls-2{fill:#e6e6e6;}.cls-3{fill:#5e5e5e;}</style></defs><path class="cls-1" d="M208.437,36.365a121.227,121.227,0,0,0-53.38-12.218l-1.373.009-.215-16.887,1.588-.008a137.98,137.98,0,0,1,60.751,13.912Z"/><path class="cls-2" d="M214.053,39.257c.434.239.846.5,1.277.745l8.135-14.8-2.59-1.423-8.135,14.8C213.176,38.812,213.619,39.018,214.053,39.257Z"/><path class="cls-2" d="M220.676,43.173c.418.266.812.554,1.226.824l9.049-14.258-2.5-1.583-9.049,14.258C219.828,42.674,220.257,42.907,220.676,43.173Z"/><path class="cls-2" d="M227.038,47.5c.4.291.777.6,1.174.9l9.925-13.662L235.746,33,225.821,46.66C226.224,46.946,226.638,47.206,227.038,47.5Z"/><path class="cls-2" d="M233.118,52.213c.382.316.737.652,1.114.971L245,40.173l-2.276-1.884L231.955,51.3C232.339,51.611,232.735,51.9,233.118,52.213Z"/><path class="cls-2" d="M238.888,57.3c.362.339.695.7,1.052,1.039L251.5,46.03l-2.154-2.023-11.56,12.31C238.149,56.651,238.527,56.961,238.888,57.3Z"/><path class="cls-2" d="M244.328,62.741c.34.361.65.739.984,1.1l12.31-11.56L255.6,50.13,243.29,61.69C243.632,62.046,243.989,62.379,244.328,62.741Z"/><path class="cls-2" d="M249.416,68.512c.316.382.6.778.913,1.162L263.34,58.91l-1.884-2.276L248.445,67.4C248.765,67.775,249.1,68.13,249.416,68.512Z"/><path class="cls-2" d="M254.132,74.591c.291.4.551.814.838,1.217l13.661-9.925-1.737-2.391-13.662,9.926C253.527,73.814,253.84,74.19,254.132,74.591Z"/><path class="cls-2" d="M258.456,80.954c.266.418.5.847.76,1.268l14.257-9.048-1.583-2.5-14.258,9.049C257.9,80.141,258.191,80.535,258.456,80.954Z"/><path class="cls-2" d="M262.373,87.576c.238.434.445.877.678,1.313l14.8-8.135-1.424-2.59-14.8,8.136C261.87,86.73,262.134,87.142,262.373,87.576Z"/><path class="cls-2" d="M265.865,94.431c.211.448.389.9.595,1.353l15.279-7.19-1.258-2.674L265.2,93.11C265.417,93.555,265.654,93.982,265.865,94.431Z"/><path class="cls-2" d="M268.921,101.491c.182.461.331.927.508,1.389l15.7-6.217-1.088-2.748-15.7,6.217C268.528,100.589,268.738,101.031,268.921,101.491Z"/><path class="cls-2" d="M271.527,108.73c.153.471.272.946.42,1.417l16.06-5.218-.913-2.811-16.06,5.219C271.192,107.805,271.374,108.259,271.527,108.73Z"/><path class="cls-2" d="M273.673,116.118c.123.48.213.961.331,1.441l16.355-4.2-.734-2.862-16.356,4.2C273.4,115.174,273.55,115.638,273.673,116.118Z"/><path class="cls-2" d="M275.351,123.626c.093.487.153.972.24,1.459l16.587-3.164-.553-2.9-16.588,3.164C275.135,122.666,275.258,123.14,275.351,123.626Z"/><path class="cls-2" d="M276.555,131.225c.062.492.091.98.147,1.471l16.754-2.117-.371-2.932-16.753,2.117C276.4,130.253,276.493,130.733,276.555,131.225Z"/><path class="cls-2" d="M277.279,138.885c.031.494.029.983.055,1.476l16.853-1.06L294,136.352l-16.853,1.06C277.185,137.905,277.248,138.39,277.279,138.885Z"/><path class="cls-2" d="M277.521,146.574c0,.495-.033.983-.038,1.477h16.886V145.1H277.483C277.488,145.591,277.521,146.078,277.521,146.574Z"/><path class="cls-2" d="M277.279,154.264c-.031.494-.094.979-.131,1.472L294,156.8l.186-2.949-16.853-1.06C277.308,153.28,277.31,153.769,277.279,154.264Z"/><path class="cls-2" d="M276.555,161.923c-.062.492-.156.972-.223,1.461l16.753,2.117.371-2.932L276.7,160.452C276.646,160.943,276.617,161.431,276.555,161.923Z"/><path class="cls-2" d="M275.351,169.522c-.093.487-.216.959-.314,1.444l16.588,3.164.553-2.9-16.587-3.164C275.5,168.55,275.444,169.035,275.351,169.522Z"/><path class="cls-2" d="M273.673,177.03c-.123.48-.276.944-.4,1.422l16.356,4.2.734-2.862L274,175.589C273.886,176.07,273.8,176.55,273.673,177.03Z"/><path class="cls-2" d="M271.527,184.418c-.153.471-.335.925-.493,1.393l16.06,5.219.913-2.811L271.947,183C271.8,183.473,271.68,183.947,271.527,184.418Z"/><path class="cls-2" d="M268.921,191.657c-.183.46-.393.9-.58,1.359l15.7,6.217,1.088-2.748-15.7-6.216C269.252,190.73,269.1,191.2,268.921,191.657Z"/><path class="cls-2" d="M265.865,198.717c-.211.449-.448.876-.664,1.321l15.28,7.19,1.258-2.674-15.279-7.19C266.254,197.813,266.076,198.269,265.865,198.717Z"/><path class="cls-2" d="M262.373,205.572c-.239.434-.5.846-.746,1.277l14.8,8.135,1.424-2.59-14.8-8.135C262.818,204.7,262.611,205.138,262.373,205.572Z"/><path class="cls-2" d="M258.456,212.194c-.265.419-.554.813-.824,1.227l14.258,9.048,1.583-2.5-14.257-9.048C258.956,211.347,258.722,211.776,258.456,212.194Z"/><path class="cls-2" d="M254.132,218.557c-.292.4-.605.777-.9,1.173l13.662,9.926,1.737-2.391L254.97,217.34C254.683,217.743,254.423,218.156,254.132,218.557Z"/><path class="cls-2" d="M249.416,224.636c-.315.382-.651.737-.971,1.115l13.011,10.763,1.884-2.276-13.011-10.764C250.018,223.858,249.732,224.254,249.416,224.636Z"/><path class="cls-2" d="M244.328,230.407c-.339.362-.7.695-1.038,1.051l12.309,11.56,2.023-2.154-12.31-11.56C244.978,229.668,244.668,230.046,244.328,230.407Z"/><path class="cls-2" d="M238.888,235.847c-.361.34-.739.65-1.1.984l11.56,12.31,2.154-2.023-11.559-12.31C239.583,235.15,239.25,235.508,238.888,235.847Z"/><path class="cls-2" d="M233.118,240.935c-.383.316-.779.6-1.163.913l10.764,13.011L245,252.975l-10.763-13.011C233.855,240.283,233.5,240.619,233.118,240.935Z"/><path class="cls-2" d="M227.038,245.65c-.4.292-.814.552-1.217.838l9.925,13.662,2.391-1.737-9.925-13.662C227.815,245.046,227.439,245.359,227.038,245.65Z"/><path class="cls-2" d="M220.676,249.975c-.419.266-.848.5-1.269.76l9.049,14.257,2.5-1.583L221.9,249.151C221.488,249.42,221.094,249.71,220.676,249.975Z"/><path class="cls-2" d="M214.053,253.891c-.434.239-.877.445-1.313.679l8.135,14.8,2.59-1.424-8.135-14.8C214.9,253.389,214.487,253.653,214.053,253.891Z"/><path class="cls-2" d="M207.2,257.384c-.448.211-.9.389-1.353.595l7.19,15.279L215.709,272l-7.19-15.28C208.074,256.936,207.647,257.173,207.2,257.384Z"/><path class="cls-2" d="M200.138,260.439c-.461.183-.927.332-1.388.509l6.216,15.7,2.748-1.088-6.216-15.7C201.04,260.047,200.6,260.257,200.138,260.439Z"/><path class="cls-2" d="M192.9,263.046c-.471.152-.945.272-1.417.42l5.218,16.06,2.811-.913-5.219-16.06C193.824,262.71,193.37,262.892,192.9,263.046Z"/><path class="cls-2" d="M185.511,265.192c-.48.123-.96.213-1.44.33l4.2,16.356,2.862-.735-4.2-16.355C186.455,264.916,185.991,265.069,185.511,265.192Z"/><path class="cls-2" d="M178,266.87c-.487.093-.972.152-1.459.24l3.164,16.587,2.9-.554-3.164-16.587C178.963,266.654,178.49,266.777,178,266.87Z"/><path class="cls-2" d="M170.4,268.074c-.491.062-.98.091-1.471.147l2.117,16.753,2.932-.37-2.117-16.753C171.376,267.918,170.9,268.012,170.4,268.074Z"/><path class="cls-2" d="M162.745,268.8c-.5.031-.984.029-1.477.055l1.06,16.853,2.949-.186-1.06-16.853C163.724,268.7,163.239,268.766,162.745,268.8Z"/><path class="cls-2" d="M155.055,269.04c-.5,0-.983-.033-1.477-.039v16.887h2.955V269C156.038,269.007,155.551,269.04,155.055,269.04Z"/><path class="cls-2" d="M147.366,268.8c-.5-.032-.98-.1-1.473-.131l-1.06,16.853,2.949.186,1.06-16.853C148.349,268.827,147.86,268.829,147.366,268.8Z"/><path class="cls-2" d="M139.706,268.074c-.492-.062-.972-.156-1.461-.223L136.128,284.6l2.932.37,2.117-16.753C140.686,268.165,140.2,268.136,139.706,268.074Z"/><path class="cls-2" d="M132.107,266.87c-.486-.093-.959-.216-1.444-.314L127.5,283.143l2.9.554,3.164-16.587C133.08,267.022,132.594,266.963,132.107,266.87Z"/><path class="cls-2" d="M124.6,265.192c-.48-.123-.944-.276-1.422-.4l-4.2,16.355,2.862.735,4.2-16.356C125.56,265.4,125.079,265.315,124.6,265.192Z"/><path class="cls-2" d="M117.211,263.046c-.471-.154-.925-.336-1.393-.493l-5.219,16.06,2.811.913,5.218-16.06C118.157,263.318,117.683,263.2,117.211,263.046Z"/><path class="cls-2" d="M109.972,260.439c-.46-.182-.9-.392-1.359-.579l-6.217,15.7,2.748,1.088,6.217-15.7C110.9,260.771,110.433,260.622,109.972,260.439Z"/><path class="cls-2" d="M102.912,257.384c-.448-.211-.876-.448-1.321-.664L94.4,272l2.674,1.258,7.19-15.279C103.816,257.773,103.36,257.6,102.912,257.384Z"/><path class="cls-2" d="M96.057,253.891c-.434-.238-.846-.5-1.277-.745l-8.135,14.8,2.59,1.424,8.135-14.8C96.934,254.336,96.491,254.13,96.057,253.891Z"/><path class="cls-2" d="M89.435,249.975c-.419-.265-.813-.555-1.227-.824L79.16,263.409l2.5,1.583L90.7,250.735C90.282,250.474,89.854,250.241,89.435,249.975Z"/><path class="cls-2" d="M83.072,245.65c-.4-.291-.777-.6-1.173-.9l-9.926,13.662,2.391,1.737,9.925-13.662C83.887,246.2,83.473,245.942,83.072,245.65Z"/><path class="cls-2" d="M76.993,240.935c-.382-.316-.737-.652-1.114-.971L65.115,252.975l2.276,1.884,10.764-13.011C77.771,241.537,77.375,241.251,76.993,240.935Z"/><path class="cls-2" d="M71.222,235.847c-.362-.339-.695-.7-1.051-1.039l-11.56,12.31,2.154,2.023,11.56-12.31C71.961,236.5,71.583,236.187,71.222,235.847Z"/><path class="cls-2" d="M65.782,230.407c-.34-.361-.65-.739-.984-1.1l-12.31,11.56,2.023,2.154,12.31-11.56C66.479,231.1,66.121,230.769,65.782,230.407Z"/><path class="cls-2" d="M60.694,224.636c-.316-.382-.6-.778-.913-1.162L46.77,234.238l1.884,2.276,13.011-10.763C61.346,225.373,61.01,225.018,60.694,224.636Z"/><path class="cls-2" d="M55.979,218.557c-.292-.4-.552-.814-.838-1.217l-13.662,9.925,1.737,2.391,13.662-9.926C56.583,219.334,56.27,218.958,55.979,218.557Z"/><path class="cls-2" d="M51.654,212.194c-.266-.418-.5-.847-.759-1.268l-14.258,9.048,1.583,2.5,14.258-9.048C52.209,213.007,51.92,212.613,51.654,212.194Z"/><path class="cls-2" d="M47.738,205.572c-.239-.434-.445-.877-.679-1.313l-14.8,8.135,1.423,2.59,14.8-8.135C48.24,206.418,47.977,206.006,47.738,205.572Z"/><path class="cls-2" d="M44.245,198.717c-.211-.448-.389-.9-.595-1.353l-15.279,7.19,1.258,2.674,15.28-7.19C44.693,199.593,44.456,199.166,44.245,198.717Z"/><path class="cls-2" d="M41.19,191.657c-.183-.461-.332-.927-.509-1.388l-15.7,6.216,1.088,2.748,15.7-6.217C41.582,192.559,41.372,192.117,41.19,191.657Z"/><path class="cls-2" d="M38.583,184.418c-.152-.471-.272-.945-.42-1.417L22.1,188.219l.913,2.811,16.061-5.219C38.919,185.343,38.737,184.889,38.583,184.418Z"/><path class="cls-2" d="M36.437,177.03c-.123-.48-.213-.96-.33-1.441l-16.356,4.2.735,2.862,16.356-4.2C36.713,177.974,36.56,177.51,36.437,177.03Z"/><path class="cls-2" d="M34.759,169.522c-.093-.487-.152-.972-.24-1.459l-16.587,3.164.554,2.9,16.587-3.164C34.975,170.481,34.852,170.009,34.759,169.522Z"/><path class="cls-2" d="M33.555,161.923c-.062-.492-.091-.98-.147-1.471l-16.753,2.117.37,2.932,16.753-2.117C33.711,162.9,33.618,162.415,33.555,161.923Z"/><path class="cls-2" d="M32.831,154.264c-.031-.5-.029-.984-.054-1.477l-16.854,1.06.186,2.949,16.853-1.06C32.926,155.243,32.863,154.758,32.831,154.264Z"/><path class="cls-2" d="M32.59,146.574c0-.5.032-.983.038-1.478H15.741v2.955H32.628C32.622,147.557,32.59,147.069,32.59,146.574Z"/><path class="cls-2" d="M32.831,138.885c.032-.5.095-.98.131-1.473l-16.853-1.06-.186,2.949,16.854,1.06C32.8,139.868,32.8,139.379,32.831,138.885Z"/><path class="cls-2" d="M33.555,131.225c.063-.492.156-.972.223-1.461l-16.753-2.117-.37,2.932L33.408,132.7C33.464,132.205,33.493,131.717,33.555,131.225Z"/><path class="cls-2" d="M34.759,123.626c.093-.486.216-.96.314-1.444l-16.587-3.164-.554,2.9,16.587,3.164C34.607,124.6,34.666,124.113,34.759,123.626Z"/><path class="cls-2" d="M36.437,116.118c.123-.48.276-.944.405-1.422l-16.356-4.2-.735,2.862,16.356,4.2C36.224,117.079,36.314,116.6,36.437,116.118Z"/><path class="cls-2" d="M38.583,108.73c.154-.471.336-.925.494-1.393l-16.061-5.219-.913,2.811,16.06,5.218C38.311,109.676,38.431,109.2,38.583,108.73Z"/><path class="cls-2" d="M41.19,101.491c.182-.46.392-.9.579-1.359l-15.7-6.217L24.98,96.663l15.7,6.217C40.858,102.418,41.007,101.952,41.19,101.491Z"/><path class="cls-2" d="M44.245,94.431c.211-.449.448-.876.664-1.321l-15.28-7.19-1.258,2.674,15.279,7.19C43.856,95.334,44.034,94.879,44.245,94.431Z"/><path class="cls-2" d="M47.738,87.576c.239-.434.5-.846.745-1.276l-14.8-8.136-1.423,2.59,14.8,8.135C47.293,88.453,47.5,88.01,47.738,87.576Z"/><path class="cls-2" d="M51.654,80.954c.266-.419.555-.813.824-1.227L38.22,70.678l-1.583,2.5L50.9,82.222C51.155,81.8,51.388,81.372,51.654,80.954Z"/><path class="cls-2" d="M55.979,74.591c.291-.4.6-.777.9-1.173L43.216,63.492l-1.737,2.391,13.662,9.925C55.427,75.405,55.687,74.991,55.979,74.591Z"/><path class="cls-2" d="M60.694,68.512c.316-.382.652-.737.971-1.114L48.654,56.634,46.77,58.91,59.781,69.674C60.092,69.29,60.378,68.894,60.694,68.512Z"/><path class="cls-2" d="M65.782,62.741c.339-.362.7-.7,1.039-1.051L54.511,50.13l-2.023,2.154L64.8,63.844C65.132,63.48,65.442,63.1,65.782,62.741Z"/><path class="cls-2" d="M71.222,57.3c.361-.34.739-.65,1.1-.984l-11.56-12.31L58.611,46.03l11.56,12.31C70.527,58,70.86,57.64,71.222,57.3Z"/><path class="cls-2" d="M76.993,52.213c.382-.316.778-.6,1.162-.912L67.391,38.289l-2.276,1.884L75.879,53.184C76.256,52.865,76.611,52.529,76.993,52.213Z"/><path class="cls-2" d="M83.072,47.5c.4-.292.815-.552,1.217-.838L74.364,33l-2.391,1.737L81.9,48.4C82.3,48.1,82.671,47.789,83.072,47.5Z"/><path class="cls-2" d="M89.435,43.173c.419-.266.847-.5,1.268-.759L81.655,28.156l-2.5,1.583L88.208,44C88.622,43.727,89.016,43.439,89.435,43.173Z"/><path class="cls-2" d="M96.057,39.257c.434-.239.877-.445,1.313-.679l-8.135-14.8L86.645,25.2,94.78,40C95.211,39.759,95.623,39.5,96.057,39.257Z"/><path class="cls-2" d="M102.912,35.764c.448-.211.9-.389,1.353-.6L97.075,19.89,94.4,21.148l7.19,15.28C102.036,36.212,102.464,35.975,102.912,35.764Z"/><path class="cls-2" d="M109.972,32.708c.461-.182.927-.331,1.389-.508l-6.217-15.7L102.4,17.587l6.217,15.7C109.07,33.1,109.512,32.891,109.972,32.708Z"/><path class="cls-2" d="M117.211,30.1c.472-.152.946-.272,1.417-.42l-5.218-16.06-2.811.913L115.818,30.6C116.286,30.437,116.74,30.256,117.211,30.1Z"/><path class="cls-2" d="M124.6,27.956c.48-.123.961-.213,1.441-.33l-4.2-16.356L118.978,12l4.2,16.357C123.655,28.232,124.119,28.079,124.6,27.956Z"/><path class="cls-2" d="M132.107,26.278c.487-.093.973-.152,1.459-.24L130.4,9.451l-2.9.554,3.164,16.587C131.148,26.494,131.621,26.371,132.107,26.278Z"/><path class="cls-2" d="M139.706,25.074c.492-.062.98-.091,1.471-.147L139.06,8.174l-2.932.37L138.245,25.3C138.734,25.23,139.214,25.137,139.706,25.074Z"/><path class="cls-2" d="M147.366,24.35c.494-.031.983-.029,1.476-.054l-1.06-16.854-2.949.186,1.06,16.853C146.386,24.445,146.871,24.381,147.366,24.35Z"/><path class="cls-3" d="M142.326,112.3H122.091a1.844,1.844,0,0,0-1.9,1.9v2.6a1.842,1.842,0,0,0,1.9,1.9h14.826L123.394,170.7a19.975,19.975,0,0,0-.8,4,1.735,1.735,0,0,0,1.8,1.8H127.7a1.952,1.952,0,0,0,2-1.7l13.824-55.094a18.28,18.28,0,0,0,.6-3.2v-2.4A1.736,1.736,0,0,0,142.326,112.3Z"/><path class="cls-3" d="M166.373,127.025c0-10.418-3.1-15.728-9.914-15.728-6.614,0-9.92,5.31-9.92,15.728,0,10.317,3.306,15.726,9.92,15.726C163.269,142.751,166.373,137.342,166.373,127.025Zm-13.922,0c0-6.813.8-10.317,4.008-10.317,3.306,0,4.007,3.5,4.007,10.317,0,6.71-.7,10.317-4.007,10.317C153.251,137.342,152.451,133.735,152.451,127.025Z"/><path class="cls-3" d="M183.4,112.3h-2a2.893,2.893,0,0,0-2.507,1.9l-28.146,60.4c-.5,1.1.2,1.9,1.3,1.9h2a2.883,2.883,0,0,0,2.5-1.9l28.15-60.4C185.206,113.1,184.505,112.3,183.4,112.3Z"/><path class="cls-3" d="M179,146.058c-6.613,0-9.919,5.307-9.919,15.726,0,10.316,3.306,15.726,9.919,15.726,6.811,0,9.915-5.41,9.915-15.726C188.912,151.365,185.808,146.058,179,146.058Zm0,26.042c-3.207,0-4.007-3.607-4.007-10.316,0-6.813.8-10.318,4.007-10.318,3.3,0,4.007,3.5,4.007,10.318C183,168.493,182.3,172.1,179,172.1Z"/></svg>