<svg id="Layer_1" data-name="Layer 1" xmlns="http://www.w3.org/2000/svg" viewBox="0 0 300 300"><defs><style>.cls-1{fill:#31f431;}.cls-2{fill:#e6e6e6;}.cls-3{fill:#5e5e5e;}</style></defs><path class="cls-1" d="M150.646,290.927c-76.818,0-139.314-62.5-139.314-139.314a138.975,138.975,0,0,1,7.281-44.554l16,5.4A122.45,122.45,0,1,0,150.646,29.186l-1.41.008-.14-16.887,1.55-.008c76.818,0,139.314,62.5,139.314,139.314S227.464,290.927,150.646,290.927Z"/><path class="cls-2" d="M36.779,106.533c.182-.461.392-.9.579-1.36l-15.7-6.217L20.569,101.7l15.7,6.217C36.447,107.459,36.6,106.994,36.779,106.533Z"/><path class="cls-2" d="M39.834,99.472c.211-.449.448-.876.664-1.321l-15.28-7.19L23.96,93.635l15.28,7.19C39.445,100.376,39.623,99.92,39.834,99.472Z"/><path class="cls-2" d="M43.327,92.617c.238-.434.5-.846.745-1.276l-14.8-8.136L27.851,85.8l14.8,8.135C42.882,93.494,43.088,93.051,43.327,92.617Z"/><path class="cls-2" d="M47.243,86c.266-.419.555-.813.824-1.227L33.809,75.72l-1.583,2.5,14.257,9.048C46.744,86.842,46.978,86.413,47.243,86Z"/><path class="cls-2" d="M51.568,79.632c.291-.4.6-.777.9-1.173L38.806,68.533l-1.738,2.391L50.73,80.849C51.016,80.447,51.276,80.033,51.568,79.632Z"/><path class="cls-2" d="M56.283,73.553c.316-.382.652-.737.971-1.114L44.243,61.675l-1.884,2.276L55.37,74.715C55.681,74.331,55.967,73.935,56.283,73.553Z"/><path class="cls-2" d="M61.371,67.782c.339-.362.7-.695,1.039-1.051L50.1,55.171l-2.023,2.154,12.31,11.56C60.721,68.521,61.032,68.143,61.371,67.782Z"/><path class="cls-2" d="M66.811,62.342c.361-.34.739-.65,1.1-.984l-11.56-12.31L54.2,51.071l11.56,12.31C66.116,63.039,66.45,62.681,66.811,62.342Z"/><path class="cls-2" d="M72.582,57.254c.382-.316.778-.6,1.163-.912L62.981,43.33,60.7,45.214,71.467,58.225C71.845,57.906,72.2,57.57,72.582,57.254Z"/><path class="cls-2" d="M78.661,52.539c.4-.292.815-.552,1.218-.838L69.953,38.04l-2.391,1.736,9.926,13.662C77.884,53.143,78.26,52.83,78.661,52.539Z"/><path class="cls-2" d="M85.024,48.214c.418-.265.848-.5,1.268-.759L77.243,33.2,74.749,34.78,83.8,49.038C84.211,48.768,84.606,48.48,85.024,48.214Z"/><path class="cls-2" d="M91.646,44.3c.434-.239.877-.445,1.313-.679l-8.135-14.8-2.59,1.423,8.135,14.8C90.8,44.8,91.212,44.537,91.646,44.3Z"/><path class="cls-2" d="M98.5,40.805c.448-.211.9-.389,1.353-.595l-7.19-15.279L89.99,26.189l7.19,15.28C97.625,41.253,98.052,41.016,98.5,40.805Z"/><path class="cls-2" d="M105.562,37.75c.46-.183.926-.332,1.387-.509l-6.216-15.7-2.747,1.087,6.216,15.7C104.659,38.142,105.1,37.932,105.562,37.75Z"/><path class="cls-2" d="M112.8,35.143c.472-.152.945-.272,1.417-.42L109,18.663l-2.81.913,5.218,16.061C111.875,35.479,112.329,35.3,112.8,35.143Z"/><path class="cls-2" d="M120.188,33c.48-.123.961-.213,1.441-.33l-4.2-16.356-2.862.735,4.2,16.356C119.244,33.273,119.708,33.12,120.188,33Z"/><path class="cls-2" d="M127.7,31.319c.487-.093.972-.152,1.459-.24l-3.164-16.587-2.9.554,3.164,16.587C126.737,31.535,127.209,31.412,127.7,31.319Z"/><path class="cls-2" d="M135.295,30.116c.492-.063.98-.092,1.471-.148l-2.117-16.753-2.931.37,2.116,16.753C134.324,30.271,134.8,30.178,135.295,30.116Z"/><path class="cls-2" d="M142.954,29.391c.5-.031.984-.029,1.478-.054l-1.061-16.854-2.949.186,1.06,16.853C141.975,29.486,142.46,29.423,142.954,29.391Z"/><path class="cls-3" d="M119.029,148.29c2.906-2.2,4.91-6.509,4.91-14.12,0-12.422-4.609-17.431-11.919-17.431S100.1,121.847,100.1,134.17c0,7.611,2,11.919,4.91,14.12C101.6,150.6,99.4,155.406,99.4,163.816c0,13.226,4.807,18.334,12.623,18.334s12.62-5.108,12.62-18.334C124.64,155.3,122.434,150.6,119.029,148.29Zm-7.009-25.54c2.8,0,4.7,1.3,4.7,11.42s-1.9,11.416-4.7,11.416-4.708-1.3-4.708-11.416S109.213,122.75,112.02,122.75Zm0,53.389c-3.108,0-5.413-1.3-5.413-12.323s2.305-12.318,5.413-12.318,5.41,1.3,5.41,12.318S115.125,176.139,112.02,176.139Z"/><path class="cls-3" d="M142.978,116.739c-8.311,0-12.822,5.611-12.822,32.656s4.511,32.755,12.822,32.755S155.8,176.44,155.8,149.4,151.293,116.739,142.978,116.739Zm0,58.9c-3.6,0-5.607-2.3-5.607-26.241s2-26.146,5.607-26.146,5.611,2.206,5.611,26.146S146.585,175.636,142.978,175.636Z"/><path class="cls-3" d="M192.871,151.1c-6.613,0-9.92,5.3-9.92,15.724,0,10.319,3.307,15.728,9.92,15.728,6.81,0,9.914-5.409,9.914-15.728C202.785,156.4,199.681,151.1,192.871,151.1Zm0,26.043c-3.208,0-4.008-3.608-4.008-10.319,0-6.811.8-10.316,4.008-10.316,3.3,0,4.007,3.5,4.007,10.316C196.878,173.533,196.173,177.141,192.871,177.141Z"/><path class="cls-3" d="M180.247,132.063c0-10.418-3.105-15.724-9.915-15.724-6.613,0-9.919,5.306-9.919,15.724,0,10.319,3.306,15.728,9.919,15.728C177.142,147.791,180.247,142.382,180.247,132.063Zm-13.922,0c0-6.811.8-10.315,4.007-10.315,3.306,0,4.007,3.5,4.007,10.315,0,6.712-.7,10.319-4.007,10.319C167.124,142.382,166.325,138.775,166.325,132.063Z"/><path class="cls-3" d="M197.278,117.341h-2a2.889,2.889,0,0,0-2.506,1.9l-28.146,60.4c-.5,1.1.2,1.905,1.3,1.905h2a2.88,2.88,0,0,0,2.5-1.905l28.149-60.4C199.079,118.141,198.379,117.341,197.278,117.341Z"/></svg>