<svg id="Layer_1" data-name="Layer 1" xmlns="http://www.w3.org/2000/svg" viewBox="0 0 300 300"><defs><style>.cls-1{fill:#31f431;}.cls-2{fill:#e6e6e6;}.cls-3{fill:#5e5e5e;}</style></defs><path class="cls-1" d="M151.275,290.927c-76.818,0-139.314-62.5-139.314-139.314A138.562,138.562,0,0,1,22.3,98.855l15.624,6.4A122.451,122.451,0,1,0,151.275,29.186l-1.4.008-.14-16.887,1.537-.008c76.818,0,139.314,62.5,139.314,139.314S228.093,290.927,151.275,290.927Z"/><path class="cls-2" d="M40.464,99.472c.211-.449.449-.876.664-1.321l-15.279-7.19L24.59,93.635l15.28,7.19C40.075,100.376,40.253,99.92,40.464,99.472Z"/><path class="cls-2" d="M43.957,92.617c.239-.434.5-.846.745-1.276l-14.8-8.136L28.481,85.8l14.8,8.135C43.512,93.494,43.718,93.051,43.957,92.617Z"/><path class="cls-2" d="M47.873,86c.266-.419.555-.813.824-1.227L34.44,75.72l-1.584,2.5,14.258,9.048C47.374,86.842,47.608,86.413,47.873,86Z"/><path class="cls-2" d="M52.2,79.632c.291-.4.6-.777.9-1.173L39.435,68.533,37.7,70.924,51.36,80.849C51.646,80.447,51.907,80.033,52.2,79.632Z"/><path class="cls-2" d="M56.913,73.553c.316-.382.652-.737.971-1.114L44.873,61.675l-1.884,2.276L56,74.715C56.311,74.331,56.6,73.935,56.913,73.553Z"/><path class="cls-2" d="M62,67.782c.339-.362.7-.695,1.039-1.051L50.73,55.171l-2.023,2.154,12.31,11.56C61.352,68.521,61.661,68.143,62,67.782Z"/><path class="cls-2" d="M67.441,62.342c.361-.34.739-.65,1.1-.984l-11.56-12.31L54.83,51.071l11.56,12.31C66.746,63.039,67.079,62.681,67.441,62.342Z"/><path class="cls-2" d="M73.212,57.254c.382-.316.778-.6,1.162-.912L63.611,43.33l-2.277,1.884L72.1,58.225C72.475,57.906,72.83,57.57,73.212,57.254Z"/><path class="cls-2" d="M79.291,52.539c.4-.292.815-.552,1.217-.838L70.583,38.04l-2.391,1.736,9.926,13.662C78.515,53.143,78.89,52.83,79.291,52.539Z"/><path class="cls-2" d="M85.654,48.214c.419-.265.848-.5,1.268-.759L77.874,33.2,75.379,34.78l9.048,14.258C84.841,48.768,85.235,48.48,85.654,48.214Z"/><path class="cls-2" d="M92.276,44.3c.434-.239.878-.445,1.313-.679l-8.135-14.8-2.589,1.423L91,45.043C91.43,44.8,91.842,44.537,92.276,44.3Z"/><path class="cls-2" d="M99.131,40.805c.448-.211.9-.389,1.353-.595l-7.19-15.279-2.673,1.258,7.189,15.28C98.255,41.253,98.683,41.016,99.131,40.805Z"/><path class="cls-2" d="M106.192,37.75c.461-.183.926-.332,1.388-.509l-6.217-15.7-2.748,1.087,6.217,15.7C105.289,38.142,105.731,37.932,106.192,37.75Z"/><path class="cls-2" d="M113.43,35.143c.472-.152.946-.272,1.417-.42l-5.218-16.06-2.81.913,5.218,16.061C112.505,35.479,112.959,35.3,113.43,35.143Z"/><path class="cls-2" d="M120.818,33c.48-.123.961-.213,1.441-.33l-4.2-16.356-2.862.735L119.4,33.4C119.874,33.273,120.338,33.12,120.818,33Z"/><path class="cls-2" d="M128.326,31.319c.487-.093.973-.152,1.459-.24l-3.164-16.587-2.9.554,3.164,16.587C127.367,31.535,127.84,31.412,128.326,31.319Z"/><path class="cls-2" d="M135.925,30.116c.492-.063.98-.092,1.471-.148l-2.117-16.753-2.931.37,2.116,16.753C134.954,30.271,135.434,30.178,135.925,30.116Z"/><path class="cls-2" d="M143.585,29.391c.494-.031.983-.029,1.476-.054L144,12.483l-2.949.186,1.06,16.853C142.6,29.486,143.09,29.423,143.585,29.391Z"/><path class="cls-3" d="M125.97,148.29c2.907-2.2,4.911-6.509,4.911-14.12,0-12.422-4.61-17.431-11.919-17.431s-11.923,5.108-11.923,17.431c0,7.611,2,11.919,4.91,14.12-3.405,2.305-5.611,7.116-5.611,15.526,0,13.226,4.807,18.334,12.624,18.334s12.619-5.108,12.619-18.334C131.581,155.3,129.376,150.6,125.97,148.29Zm-7.008-25.54c2.8,0,4.7,1.3,4.7,11.42s-1.9,11.416-4.7,11.416-4.708-1.3-4.708-11.416S116.154,122.75,118.962,122.75Zm0,53.389c-3.109,0-5.409-1.3-5.409-12.323s2.3-12.318,5.409-12.318,5.409,1.3,5.409,12.318S122.066,176.139,118.962,176.139Z"/><path class="cls-3" d="M146.415,117.341h-2a1.842,1.842,0,0,0-1.9,1.9v.7c0,3.607-1.7,5.211-4.708,5.211h-.9a1.84,1.84,0,0,0-1.905,1.9v2.2a1.843,1.843,0,0,0,1.905,1.9h4.2v48.479a1.841,1.841,0,0,0,1.9,1.905h3.406a1.84,1.84,0,0,0,1.9-1.905v-60.4A1.839,1.839,0,0,0,146.415,117.341Z"/><path class="cls-3" d="M187.188,151.1c-6.613,0-9.919,5.3-9.919,15.724,0,10.319,3.306,15.728,9.919,15.728,6.811,0,9.915-5.409,9.915-15.728C197.1,156.4,194,151.1,187.188,151.1Zm0,26.043c-3.207,0-4.007-3.608-4.007-10.319,0-6.811.8-10.316,4.007-10.316,3.3,0,4.007,3.5,4.007,10.316C191.2,173.533,190.49,177.141,187.188,177.141Z"/><path class="cls-3" d="M174.564,132.063c0-10.418-3.1-15.724-9.915-15.724-6.612,0-9.919,5.306-9.919,15.724,0,10.319,3.307,15.728,9.919,15.728C171.46,147.791,174.564,142.382,174.564,132.063Zm-13.922,0c0-6.811.8-10.315,4.007-10.315,3.307,0,4.008,3.5,4.008,10.315,0,6.712-.7,10.319-4.008,10.319C161.442,142.382,160.642,138.775,160.642,132.063Z"/><path class="cls-3" d="M191.6,117.341h-2a2.887,2.887,0,0,0-2.507,1.9l-28.145,60.4c-.5,1.1.2,1.905,1.3,1.905h2a2.878,2.878,0,0,0,2.5-1.905l28.15-60.4C193.4,118.141,192.7,117.341,191.6,117.341Z"/></svg>