<svg id="Layer_1" data-name="Layer 1" xmlns="http://www.w3.org/2000/svg" viewBox="0 0 300 300"><defs><style>.cls-1{fill:#31f431;}.cls-2{fill:#e6e6e6;}.cls-3{fill:#5e5e5e;}</style></defs><path class="cls-1" d="M151.905,290.927c-76.818,0-139.314-62.5-139.314-139.314A138.053,138.053,0,0,1,26.5,90.861l15.2,7.371a121.258,121.258,0,0,0-12.219,53.381A122.427,122.427,0,1,0,151.905,29.186l-1.4.008-.14-16.887,1.538-.008c76.818,0,139.314,62.5,139.314,139.314S228.723,290.927,151.905,290.927Z"/><path class="cls-2" d="M44.587,92.617c.239-.434.5-.846.746-1.276l-14.8-8.136L29.111,85.8l14.8,8.135C44.142,93.494,44.349,93.051,44.587,92.617Z"/><path class="cls-2" d="M48.5,86c.266-.419.555-.813.825-1.227L35.069,75.72l-1.583,2.5,14.258,9.048C48,86.842,48.238,86.413,48.5,86Z"/><path class="cls-2" d="M52.828,79.632c.291-.4.6-.777.9-1.173L40.066,68.533l-1.738,2.391L51.99,80.849C52.276,80.447,52.536,80.033,52.828,79.632Z"/><path class="cls-2" d="M57.543,73.553c.316-.382.652-.737.971-1.114L45.5,61.675l-1.884,2.276L56.631,74.715C56.942,74.331,57.227,73.935,57.543,73.553Z"/><path class="cls-2" d="M62.631,67.782c.339-.362.7-.695,1.039-1.051L51.361,55.171l-2.023,2.154,12.309,11.56C61.981,68.521,62.292,68.143,62.631,67.782Z"/><path class="cls-2" d="M68.071,62.342c.362-.34.739-.65,1.1-.984L57.615,49.048,55.46,51.071l11.56,12.31C67.377,63.039,67.71,62.681,68.071,62.342Z"/><path class="cls-2" d="M73.842,57.254c.382-.316.779-.6,1.163-.912L64.241,43.33l-2.277,1.884L72.728,58.225C73.105,57.906,73.46,57.57,73.842,57.254Z"/><path class="cls-2" d="M79.921,52.539c.4-.292.815-.552,1.218-.838L71.213,38.04l-2.39,1.736,9.925,13.662C79.144,53.143,79.52,52.83,79.921,52.539Z"/><path class="cls-2" d="M86.284,48.214c.418-.265.848-.5,1.268-.759L78.5,33.2l-2.5,1.583,9.048,14.258C85.471,48.768,85.866,48.48,86.284,48.214Z"/><path class="cls-2" d="M92.906,44.3c.435-.239.878-.445,1.313-.679l-8.135-14.8L83.5,30.245l8.135,14.8C92.06,44.8,92.472,44.537,92.906,44.3Z"/><path class="cls-2" d="M99.761,40.805c.449-.211.9-.389,1.353-.595l-7.19-15.279L91.25,26.189l7.19,15.28C98.885,41.253,99.313,41.016,99.761,40.805Z"/><path class="cls-2" d="M106.822,37.75c.461-.183.926-.332,1.388-.509l-6.217-15.7-2.747,1.087,6.216,15.7C105.92,38.142,106.361,37.932,106.822,37.75Z"/><path class="cls-2" d="M114.061,35.143c.471-.152.945-.272,1.417-.42l-5.219-16.06-2.81.913,5.218,16.061C113.135,35.479,113.589,35.3,114.061,35.143Z"/><path class="cls-2" d="M121.449,33c.48-.123.96-.213,1.44-.33l-4.2-16.356-2.863.735,4.2,16.356C120.5,33.273,120.969,33.12,121.449,33Z"/><path class="cls-2" d="M128.957,31.319c.487-.093.972-.152,1.458-.24l-3.164-16.587-2.9.554,3.165,16.587C128,31.535,128.47,31.412,128.957,31.319Z"/><path class="cls-2" d="M136.555,30.116c.492-.063.98-.092,1.471-.148L135.91,13.215l-2.932.37,2.116,16.753C135.584,30.271,136.064,30.178,136.555,30.116Z"/><path class="cls-2" d="M144.215,29.391c.494-.031.983-.029,1.477-.054l-1.06-16.854-2.95.186,1.06,16.853C143.236,29.486,143.72,29.423,144.215,29.391Z"/><path class="cls-3" d="M122.143,148.29c2.907-2.2,4.91-6.509,4.91-14.12,0-12.422-4.609-17.431-11.918-17.431s-11.923,5.108-11.923,17.431c0,7.611,2,11.919,4.91,14.12-3.405,2.305-5.611,7.116-5.611,15.526,0,13.226,4.807,18.334,12.624,18.334s12.619-5.108,12.619-18.334C127.754,155.3,125.549,150.6,122.143,148.29Zm-7.008-25.54c2.8,0,4.7,1.3,4.7,11.42s-1.9,11.416-4.7,11.416-4.708-1.3-4.708-11.416S112.327,122.75,115.135,122.75Zm0,53.389c-3.109,0-5.413-1.3-5.413-12.323s2.3-12.318,5.413-12.318,5.408,1.3,5.408,12.318S118.239,176.139,115.135,176.139Z"/><path class="cls-3" d="M143.99,116.739c-8.015,0-12.323,3.806-12.323,16.025a2.372,2.372,0,0,0,2.506,2.7h2.4c1.5,0,2.1-1.2,2-3.3-.3-4.91.4-9.115,5.109-9.115,3.805,0,5.709,2.5,5.709,9.915,0,13.922-10.719,25.441-17.229,41.169a7.823,7.823,0,0,0-.6,3.208v2.4a1.734,1.734,0,0,0,1.8,1.8h20.639a1.84,1.84,0,0,0,1.9-1.905v-2.6a1.84,1.84,0,0,0-1.9-1.905H138.881c5.508-14.124,17.728-26.946,17.728-41.169C156.609,121.748,152.1,116.739,143.99,116.739Z"/><path class="cls-3" d="M192.278,151.1c-6.612,0-9.919,5.3-9.919,15.724,0,10.319,3.307,15.728,9.919,15.728,6.811,0,9.916-5.409,9.916-15.728C202.194,156.4,199.089,151.1,192.278,151.1Zm0,26.043c-3.207,0-4.007-3.608-4.007-10.319,0-6.811.8-10.316,4.007-10.316,3.3,0,4.007,3.5,4.007,10.316C196.285,173.533,195.581,177.141,192.278,177.141Z"/><path class="cls-3" d="M179.655,132.063c0-10.418-3.1-15.724-9.915-15.724-6.613,0-9.919,5.306-9.919,15.724,0,10.319,3.306,15.728,9.919,15.728C176.55,147.791,179.655,142.382,179.655,132.063Zm-13.923,0c0-6.811.8-10.315,4.008-10.315,3.306,0,4.007,3.5,4.007,10.315,0,6.712-.7,10.319-4.007,10.319C166.532,142.382,165.732,138.775,165.732,132.063Z"/><path class="cls-3" d="M196.686,117.341h-2a2.887,2.887,0,0,0-2.507,1.9l-28.145,60.4c-.5,1.1.2,1.905,1.3,1.905h2a2.88,2.88,0,0,0,2.5-1.905l28.149-60.4C198.487,118.141,197.786,117.341,196.686,117.341Z"/></svg>