<svg id="Layer_1" data-name="Layer 1" xmlns="http://www.w3.org/2000/svg" viewBox="0 0 300 300"><defs><style>.cls-1{fill:#31f431;}.cls-2{fill:#e6e6e6;}.cls-3{fill:#5e5e5e;}</style></defs><path class="cls-1" d="M152.535,290.927c-76.819,0-139.314-62.5-139.314-139.314A139.36,139.36,0,0,1,31.208,83.1L45.9,91.422A122.443,122.443,0,1,0,152.535,29.186l-1.406.008-.14-16.887,1.546-.008c76.818,0,139.313,62.5,139.313,139.314S229.353,290.927,152.535,290.927Z"/><path class="cls-2" d="M49.133,86c.266-.419.555-.813.824-1.227L35.7,75.72l-1.584,2.5,14.258,9.048C48.634,86.842,48.868,86.413,49.133,86Z"/><path class="cls-2" d="M53.458,79.632c.291-.4.6-.777.9-1.173L40.7,68.533l-1.737,2.391L52.62,80.849C52.906,80.447,53.167,80.033,53.458,79.632Z"/><path class="cls-2" d="M58.173,73.553c.316-.382.652-.737.971-1.114L46.133,61.675l-1.884,2.276L57.261,74.715C57.572,74.331,57.857,73.935,58.173,73.553Z"/><path class="cls-2" d="M63.261,67.782c.339-.362.7-.695,1.039-1.051L51.991,55.171l-2.023,2.154,12.309,11.56C62.612,68.521,62.922,68.143,63.261,67.782Z"/><path class="cls-2" d="M68.7,62.342c.361-.34.739-.65,1.1-.984L58.245,49.048l-2.154,2.023L67.65,63.381C68.007,63.039,68.34,62.681,68.7,62.342Z"/><path class="cls-2" d="M74.472,57.254c.382-.316.778-.6,1.163-.912L64.871,43.33l-2.277,1.884L73.358,58.225C73.735,57.906,74.09,57.57,74.472,57.254Z"/><path class="cls-2" d="M80.551,52.539c.4-.292.815-.552,1.218-.838L71.843,38.04l-2.391,1.736,9.926,13.662C79.775,53.143,80.15,52.83,80.551,52.539Z"/><path class="cls-2" d="M86.914,48.214c.419-.265.848-.5,1.268-.759L79.134,33.2l-2.5,1.583,9.048,14.258C86.1,48.768,86.5,48.48,86.914,48.214Z"/><path class="cls-2" d="M93.536,44.3c.434-.239.878-.445,1.313-.679l-8.135-14.8-2.589,1.423,8.135,14.8C92.69,44.8,93.1,44.537,93.536,44.3Z"/><path class="cls-2" d="M100.391,40.805c.449-.211.9-.389,1.354-.595L94.554,24.931l-2.673,1.258,7.19,15.28C99.516,41.253,99.943,41.016,100.391,40.805Z"/><path class="cls-2" d="M107.452,37.75c.461-.183.926-.332,1.388-.509l-6.217-15.7-2.747,1.087,6.216,15.7C106.55,38.142,106.991,37.932,107.452,37.75Z"/><path class="cls-2" d="M114.691,35.143c.471-.152.945-.272,1.416-.42l-5.218-16.06-2.81.913L113.3,35.637C113.765,35.479,114.219,35.3,114.691,35.143Z"/><path class="cls-2" d="M122.078,33c.48-.123.961-.213,1.441-.33l-4.2-16.356-2.863.735,4.2,16.356C121.134,33.273,121.6,33.12,122.078,33Z"/><path class="cls-2" d="M129.587,31.319c.486-.093.972-.152,1.458-.24l-3.164-16.587-2.9.554,3.164,16.587C128.627,31.535,129.1,31.412,129.587,31.319Z"/><path class="cls-2" d="M137.186,30.116c.491-.063.979-.092,1.47-.148L136.54,13.215l-2.932.37,2.116,16.753C136.214,30.271,136.694,30.178,137.186,30.116Z"/><path class="cls-2" d="M144.845,29.391c.494-.031.983-.029,1.477-.054l-1.06-16.854-2.95.186,1.06,16.853C143.865,29.486,144.35,29.423,144.845,29.391Z"/><path class="cls-3" d="M122.319,148.29c2.907-2.2,4.91-6.509,4.91-14.12,0-12.422-4.609-17.431-11.918-17.431s-11.923,5.108-11.923,17.431c0,7.611,2,11.919,4.91,14.12-3.405,2.305-5.611,7.116-5.611,15.526,0,13.226,4.807,18.334,12.624,18.334s12.619-5.108,12.619-18.334C127.93,155.3,125.725,150.6,122.319,148.29Zm-7.008-25.54c2.8,0,4.7,1.3,4.7,11.42s-1.9,11.416-4.7,11.416-4.708-1.3-4.708-11.416S112.5,122.75,115.311,122.75Zm0,53.389c-3.109,0-5.413-1.3-5.413-12.323s2.3-12.318,5.413-12.318,5.409,1.3,5.409,12.318S118.415,176.139,115.311,176.139Z"/><path class="cls-3" d="M151.376,148.29c2.906-2.2,4.91-6.509,4.91-14.12,0-12.422-4.609-17.431-12.12-17.431-8.015,0-12.022,3.806-12.022,16.025a2.372,2.372,0,0,0,2.506,2.7h2.4c1.5,0,2.1-1.2,2-3.3-.3-4.91.4-9.115,4.808-9.115,3,0,5.21,1.5,5.21,11.119,0,10.117-1.9,11.416-4.708,11.416H141.56a1.842,1.842,0,0,0-1.9,1.9v2.1a1.84,1.84,0,0,0,1.9,1.905h2.807c3.105,0,5.41,1.3,5.41,12.318s-2.206,12.022-5.711,12.022c-4.407,0-5.31-4.308-5.009-10.216.1-2.1-.5-3.307-2-3.307h-2.4a2.373,2.373,0,0,0-2.506,2.705c0,13.222,4.007,17.13,12.022,17.13,7.511,0,12.821-4.407,12.821-18.334C156.987,155.3,154.781,150.6,151.376,148.29Z"/><path class="cls-3" d="M180.734,132.063c0-10.418-3.105-15.724-9.916-15.724-6.612,0-9.919,5.306-9.919,15.724,0,10.319,3.307,15.728,9.919,15.728C177.629,147.791,180.734,142.382,180.734,132.063Zm-13.923,0c0-6.811.8-10.315,4.007-10.315,3.307,0,4.008,3.5,4.008,10.315,0,6.712-.7,10.319-4.008,10.319C167.611,142.382,166.811,138.775,166.811,132.063Z"/><path class="cls-3" d="M197.764,117.341h-2a2.892,2.892,0,0,0-2.507,1.9l-28.145,60.4c-.5,1.1.2,1.905,1.3,1.905h2a2.88,2.88,0,0,0,2.5-1.905l28.149-60.4C199.566,118.141,198.865,117.341,197.764,117.341Z"/><path class="cls-3" d="M193.357,151.1c-6.612,0-9.919,5.3-9.919,15.724,0,10.319,3.307,15.728,9.919,15.728,6.811,0,9.915-5.409,9.915-15.728C203.272,156.4,200.168,151.1,193.357,151.1Zm0,26.043c-3.207,0-4.007-3.608-4.007-10.319,0-6.811.8-10.316,4.007-10.316,3.3,0,4.007,3.5,4.007,10.316C197.364,173.533,196.659,177.141,193.357,177.141Z"/></svg>