<svg id="Layer_1" data-name="Layer 1" xmlns="http://www.w3.org/2000/svg" viewBox="0 0 300 300"><defs><style>.cls-1{fill:#31f431;}.cls-2{fill:#e6e6e6;}.cls-3{fill:#5e5e5e;}</style></defs><path class="cls-1" d="M153.164,290.927c-76.818,0-139.314-62.5-139.314-139.314A138.8,138.8,0,0,1,36.376,75.632l14.15,9.218A122.438,122.438,0,1,0,153.164,29.186l-1.406.008-.14-16.887,1.546-.008c76.818,0,139.314,62.5,139.314,139.314S229.982,290.927,153.164,290.927Z"/><path class="cls-2" d="M54.088,79.632c.292-.4.6-.777.9-1.173L41.326,68.533l-1.737,2.391,13.662,9.925C53.536,80.447,53.8,80.033,54.088,79.632Z"/><path class="cls-2" d="M58.8,73.553c.317-.382.653-.737.972-1.114L46.763,61.675,44.88,63.951,57.891,74.715C58.2,74.331,58.488,73.935,58.8,73.553Z"/><path class="cls-2" d="M63.891,67.782c.34-.362.7-.695,1.04-1.051l-12.31-11.56L50.6,57.325l12.31,11.56C63.242,68.521,63.552,68.143,63.891,67.782Z"/><path class="cls-2" d="M69.331,62.342c.362-.34.739-.65,1.1-.984L58.875,49.048l-2.154,2.023,11.56,12.31C68.637,63.039,68.97,62.681,69.331,62.342Z"/><path class="cls-2" d="M75.1,57.254c.382-.316.779-.6,1.163-.912L65.5,43.33l-2.277,1.884L73.988,58.225C74.366,57.906,74.721,57.57,75.1,57.254Z"/><path class="cls-2" d="M81.181,52.539c.4-.292.815-.552,1.218-.838L72.473,38.04l-2.39,1.736,9.925,13.662C80.405,53.143,80.78,52.83,81.181,52.539Z"/><path class="cls-2" d="M87.545,48.214c.418-.265.847-.5,1.267-.759L79.764,33.2,77.269,34.78l9.048,14.258C86.732,48.768,87.126,48.48,87.545,48.214Z"/><path class="cls-2" d="M94.167,44.3c.434-.239.877-.445,1.313-.679l-8.135-14.8-2.59,1.423,8.135,14.8C93.321,44.8,93.732,44.537,94.167,44.3Z"/><path class="cls-2" d="M101.021,40.805c.449-.211.9-.389,1.354-.595l-7.19-15.279-2.674,1.258,7.19,15.28C100.146,41.253,100.573,41.016,101.021,40.805Z"/><path class="cls-2" d="M108.082,37.75c.461-.183.926-.332,1.388-.509l-6.216-15.7-2.748,1.087,6.216,15.7C107.18,38.142,107.621,37.932,108.082,37.75Z"/><path class="cls-2" d="M115.321,35.143c.471-.152.945-.272,1.417-.42l-5.218-16.06-2.811.913,5.218,16.061C114.4,35.479,114.849,35.3,115.321,35.143Z"/><path class="cls-2" d="M122.709,33c.48-.123.961-.213,1.441-.33l-4.2-16.356-2.862.735,4.2,16.356C121.764,33.273,122.229,33.12,122.709,33Z"/><path class="cls-2" d="M130.217,31.319c.487-.093.972-.152,1.458-.24l-3.164-16.587-2.9.554,3.164,16.587C129.257,31.535,129.73,31.412,130.217,31.319Z"/><path class="cls-2" d="M137.816,30.116c.491-.063.979-.092,1.471-.148L137.17,13.215l-2.932.37,2.117,16.753C136.844,30.271,137.324,30.178,137.816,30.116Z"/><path class="cls-2" d="M145.475,29.391c.494-.031.983-.029,1.477-.054l-1.06-16.854-2.949.186L144,29.522C144.5,29.486,144.98,29.423,145.475,29.391Z"/><path class="cls-3" d="M123.25,148.29c2.906-2.2,4.91-6.509,4.91-14.12,0-12.422-4.609-17.431-11.919-17.431s-11.923,5.108-11.923,17.431c0,7.611,2,11.919,4.911,14.12-3.406,2.305-5.611,7.116-5.611,15.526,0,13.226,4.806,18.334,12.623,18.334s12.62-5.108,12.62-18.334C128.861,155.3,126.655,150.6,123.25,148.29Zm-7.009-25.54c2.8,0,4.7,1.3,4.7,11.42s-1.9,11.416-4.7,11.416-4.708-1.3-4.708-11.416S113.434,122.75,116.241,122.75Zm0,53.389c-3.108,0-5.409-1.3-5.409-12.323s2.3-12.318,5.409-12.318,5.409,1.3,5.409,12.318S119.345,176.139,116.241,176.139Z"/><path class="cls-3" d="M157.316,161.013h-3.905v-11.42a1.841,1.841,0,0,0-1.9-1.9H148.3a1.838,1.838,0,0,0-1.9,1.9v11.42h-7.714L148.6,123.15a19.8,19.8,0,0,0,.8-4.007,1.735,1.735,0,0,0-1.806-1.8h-3.1a1.949,1.949,0,0,0-2,1.7l-10.216,40.967a17.909,17.909,0,0,0-.6,3.207v2.4a1.734,1.734,0,0,0,1.805,1.8H146.4v12.219a1.839,1.839,0,0,0,1.9,1.905h3.208a1.843,1.843,0,0,0,1.9-1.905V167.424h3.905a1.842,1.842,0,0,0,1.9-1.9v-2.606A1.845,1.845,0,0,0,157.316,161.013Z"/><path class="cls-3" d="M181.062,132.063c0-10.418-3.1-15.724-9.915-15.724-6.612,0-9.919,5.306-9.919,15.724,0,10.319,3.307,15.728,9.919,15.728C177.958,147.791,181.062,142.382,181.062,132.063Zm-13.922,0c0-6.811.8-10.315,4.007-10.315,3.307,0,4.007,3.5,4.007,10.315,0,6.712-.7,10.319-4.007,10.319C167.94,142.382,167.14,138.775,167.14,132.063Z"/><path class="cls-3" d="M193.686,151.1c-6.613,0-9.919,5.3-9.919,15.724,0,10.319,3.306,15.728,9.919,15.728,6.81,0,9.915-5.409,9.915-15.728C203.6,156.4,200.5,151.1,193.686,151.1Zm0,26.043c-3.207,0-4.007-3.608-4.007-10.319,0-6.811.8-10.316,4.007-10.316,3.3,0,4.007,3.5,4.007,10.316C197.693,173.533,196.988,177.141,193.686,177.141Z"/><path class="cls-3" d="M198.093,117.341h-2a2.886,2.886,0,0,0-2.507,1.9l-28.146,60.4c-.5,1.1.2,1.905,1.3,1.905h2a2.88,2.88,0,0,0,2.5-1.905l28.15-60.4C199.894,118.141,199.194,117.341,198.093,117.341Z"/></svg>