<svg id="Layer_1" data-name="Layer 1" xmlns="http://www.w3.org/2000/svg" viewBox="0 0 300 300"><defs><style>.cls-1{fill:#31f431;}.cls-2{fill:#e6e6e6;}.cls-3{fill:#5e5e5e;}</style></defs><path class="cls-1" d="M153.793,290.927c-76.818,0-139.313-62.5-139.313-139.314A138.176,138.176,0,0,1,42.019,68.45L55.558,78.543a122.431,122.431,0,1,0,98.235-49.357l-1.405.008-.141-16.887,1.546-.008c76.818,0,139.314,62.5,139.314,139.314S230.611,290.927,153.793,290.927Z"/><path class="cls-2" d="M59.434,73.553c.315-.382.651-.737.971-1.114L47.394,61.675,45.51,63.951,58.521,74.715C58.832,74.331,59.118,73.935,59.434,73.553Z"/><path class="cls-2" d="M64.522,67.782c.339-.362.7-.695,1.039-1.051l-12.31-11.56-2.023,2.154,12.309,11.56C63.872,68.521,64.182,68.143,64.522,67.782Z"/><path class="cls-2" d="M69.962,62.342c.361-.34.738-.65,1.1-.984l-11.56-12.31-2.154,2.023L68.91,63.381C69.267,63.039,69.6,62.681,69.962,62.342Z"/><path class="cls-2" d="M75.733,57.254c.381-.316.778-.6,1.162-.912L66.131,43.33l-2.277,1.884L74.618,58.225C75,57.906,75.35,57.57,75.733,57.254Z"/><path class="cls-2" d="M81.811,52.539c.4-.292.815-.552,1.218-.838L73.1,38.04l-2.391,1.736,9.926,13.662C81.035,53.143,81.411,52.83,81.811,52.539Z"/><path class="cls-2" d="M88.175,48.214c.418-.265.847-.5,1.268-.759L80.394,33.2,77.9,34.78l9.048,14.258C87.362,48.768,87.756,48.48,88.175,48.214Z"/><path class="cls-2" d="M94.8,44.3c.434-.239.877-.445,1.313-.679l-8.135-14.8-2.59,1.423,8.135,14.8C93.951,44.8,94.362,44.537,94.8,44.3Z"/><path class="cls-2" d="M101.652,40.805c.448-.211.9-.389,1.353-.595l-7.19-15.279-2.674,1.258,7.19,15.28C100.776,41.253,101.2,41.016,101.652,40.805Z"/><path class="cls-2" d="M108.712,37.75c.461-.183.927-.332,1.388-.509l-6.216-15.7-2.748,1.087,6.217,15.7C107.81,38.142,108.251,37.932,108.712,37.75Z"/><path class="cls-2" d="M115.951,35.143c.471-.152.945-.272,1.417-.42l-5.218-16.06-2.811.913,5.219,16.061C115.026,35.479,115.48,35.3,115.951,35.143Z"/><path class="cls-2" d="M123.339,33c.48-.123.96-.213,1.44-.33l-4.2-16.356-2.863.735,4.2,16.356C122.4,33.273,122.859,33.12,123.339,33Z"/><path class="cls-2" d="M130.847,31.319c.487-.093.972-.152,1.459-.24l-3.165-16.587-2.9.554L129.4,31.633C129.887,31.535,130.36,31.412,130.847,31.319Z"/><path class="cls-2" d="M138.446,30.116c.491-.063.98-.092,1.47-.148L137.8,13.215l-2.932.37,2.117,16.753C137.474,30.271,137.954,30.178,138.446,30.116Z"/><path class="cls-2" d="M146.1,29.391c.5-.031.984-.029,1.477-.054l-1.06-16.854-2.95.186,1.061,16.853C145.126,29.486,145.611,29.423,146.1,29.391Z"/><path class="cls-3" d="M123.43,148.294c2.906-2.2,4.91-6.51,4.91-14.12,0-12.422-4.609-17.431-11.919-17.431S104.5,121.852,104.5,134.174c0,7.61,2,11.919,4.909,14.12C106,150.6,103.8,155.41,103.8,163.82c0,13.226,4.808,18.334,12.624,18.334s12.62-5.108,12.62-18.334C129.041,155.307,126.835,150.6,123.43,148.294Zm-7.009-25.54c2.8,0,4.7,1.3,4.7,11.42s-1.9,11.416-4.7,11.416-4.708-1.3-4.708-11.416S113.614,122.754,116.421,122.754Zm0,53.389c-3.108,0-5.413-1.3-5.413-12.323s2.305-12.318,5.413-12.318,5.409,1.3,5.409,12.318S119.526,176.143,116.421,176.143Z"/><path class="cls-3" d="M147.881,139.88a8.408,8.408,0,0,0-5.211,1.9V123.756H156.3a1.842,1.842,0,0,0,1.9-1.9v-2.606a1.839,1.839,0,0,0-1.9-1.9H137.563a1.842,1.842,0,0,0-1.905,1.9V152.5a2.2,2.2,0,0,0,2.407,2.4h1.7c1.4,0,1.8-1.1,1.8-3.005,0-3.2,1.4-6.011,4.807-6.011,3.706,0,5.512,2.605,5.512,15.126,0,12.623-2.305,14.924-5.611,14.924-5.611,0-5.009-6.11-4.807-9.214.1-2.1-.5-3.307-2-3.307h-2.4a2.373,2.373,0,0,0-2.507,2.705c0,10.319,2.606,16.029,12.022,16.029,8.814,0,12.12-6.514,12.12-21.137S155.6,139.88,147.881,139.88Z"/><path class="cls-3" d="M199.176,117.345h-2a2.887,2.887,0,0,0-2.506,1.9l-28.146,60.4c-.5,1.105.2,1.905,1.3,1.905h2a2.88,2.88,0,0,0,2.5-1.905l28.15-60.4C200.978,118.145,200.277,117.345,199.176,117.345Z"/><path class="cls-3" d="M194.769,151.1c-6.613,0-9.919,5.306-9.919,15.724,0,10.319,3.306,15.728,9.919,15.728,6.81,0,9.915-5.409,9.915-15.728C204.684,156.408,201.579,151.1,194.769,151.1Zm0,26.043c-3.208,0-4.008-3.608-4.008-10.319,0-6.811.8-10.315,4.008-10.315,3.3,0,4.007,3.5,4.007,10.315C198.776,173.537,198.071,177.145,194.769,177.145Z"/><path class="cls-3" d="M182.145,132.067c0-10.418-3.1-15.723-9.915-15.723-6.613,0-9.919,5.305-9.919,15.723,0,10.319,3.306,15.729,9.919,15.729C179.041,147.8,182.145,142.386,182.145,132.067Zm-13.922,0c0-6.81.8-10.315,4.007-10.315,3.307,0,4.007,3.505,4.007,10.315,0,6.712-.7,10.319-4.007,10.319C169.023,142.386,168.223,138.779,168.223,132.067Z"/></svg>