<svg id="Layer_1" data-name="Layer 1" xmlns="http://www.w3.org/2000/svg" viewBox="0 0 300 300"><defs><style>.cls-1{fill:#31f431;}.cls-2{fill:#e6e6e6;}.cls-3{fill:#5e5e5e;}</style></defs><path class="cls-1" d="M154.427,290.927c-76.818,0-139.314-62.5-139.314-139.314A139.356,139.356,0,0,1,48.1,61.6L60.974,72.519a122.43,122.43,0,1,0,93.453-43.333l-1.41.008-.14-16.887,1.55-.008c76.818,0,139.314,62.5,139.314,139.314S231.245,290.927,154.427,290.927Z"/><path class="cls-2" d="M65.152,67.782c.339-.362.7-.695,1.039-1.051l-12.31-11.56-2.023,2.154,12.31,11.56C64.5,68.521,64.812,68.143,65.152,67.782Z"/><path class="cls-2" d="M70.592,62.342c.361-.34.739-.65,1.1-.984l-11.56-12.31-2.154,2.023,11.56,12.31C69.9,63.039,70.23,62.681,70.592,62.342Z"/><path class="cls-2" d="M76.363,57.254c.381-.316.778-.6,1.162-.912L66.762,43.33l-2.278,1.884L75.248,58.225C75.626,57.906,75.981,57.57,76.363,57.254Z"/><path class="cls-2" d="M82.442,52.539c.4-.292.814-.552,1.217-.838L73.734,38.04l-2.391,1.736,9.926,13.662C81.665,53.143,82.041,52.83,82.442,52.539Z"/><path class="cls-2" d="M88.805,48.214c.418-.265.847-.5,1.268-.759L81.024,33.2l-2.5,1.583,9.049,14.258C87.992,48.768,88.386,48.48,88.805,48.214Z"/><path class="cls-2" d="M95.427,44.3c.434-.239.877-.445,1.313-.679l-8.135-14.8-2.59,1.423,8.136,14.8C94.581,44.8,94.992,44.537,95.427,44.3Z"/><path class="cls-2" d="M102.282,40.805c.448-.211.9-.389,1.353-.595l-7.19-15.279-2.674,1.258,7.19,15.28C101.406,41.253,101.834,41.016,102.282,40.805Z"/><path class="cls-2" d="M109.343,37.75c.46-.183.926-.332,1.387-.509l-6.216-15.7-2.748,1.087,6.217,15.7C108.44,38.142,108.882,37.932,109.343,37.75Z"/><path class="cls-2" d="M116.581,35.143c.472-.152.945-.272,1.417-.42l-5.218-16.06-2.81.913,5.218,16.061C115.656,35.479,116.11,35.3,116.581,35.143Z"/><path class="cls-2" d="M123.969,33c.48-.123.961-.213,1.441-.33l-4.2-16.356-2.862.735,4.2,16.356C123.025,33.273,123.489,33.12,123.969,33Z"/><path class="cls-2" d="M131.477,31.319c.487-.093.972-.152,1.459-.24l-3.165-16.587-2.9.554,3.164,16.587C130.517,31.535,130.991,31.412,131.477,31.319Z"/><path class="cls-2" d="M139.076,30.116c.492-.063.98-.092,1.471-.148L138.43,13.215l-2.931.37,2.116,16.753C138.1,30.271,138.585,30.178,139.076,30.116Z"/><path class="cls-2" d="M146.735,29.391c.495-.031.984-.029,1.477-.054l-1.06-16.854-2.949.186,1.06,16.853C145.756,29.486,146.241,29.423,146.735,29.391Z"/><path class="cls-3" d="M123.511,148.29c2.906-2.2,4.91-6.509,4.91-14.12,0-12.422-4.609-17.431-11.919-17.431s-11.922,5.108-11.922,17.431c0,7.611,2,11.919,4.91,14.12-3.406,2.305-5.611,7.116-5.611,15.526,0,13.226,4.807,18.334,12.623,18.334s12.62-5.108,12.62-18.334C129.122,155.3,126.916,150.6,123.511,148.29ZM116.5,122.75c2.8,0,4.7,1.3,4.7,11.42s-1.9,11.416-4.7,11.416-4.707-1.3-4.707-11.416S113.7,122.75,116.5,122.75Zm0,53.389c-3.108,0-5.408-1.3-5.408-12.323s2.3-12.318,5.408-12.318,5.41,1.3,5.41,12.318S119.607,176.139,116.5,176.139Z"/><path class="cls-3" d="M148.664,143.483c-2.507,0-5.71,1.2-7.112,3.909,0-17.332.7-24.341,6.411-24.341,4.205,0,5.108,4.2,4.807,9.115-.1,2.1.5,3.3,2,3.3h2.305a2.369,2.369,0,0,0,2.5-2.7c0-12.219-4.308-16.025-11.617-16.025-12.925,0-13.325,13.222-13.325,37.261,0,20.234,2.907,28.15,13.024,28.15,7.812,0,12.619-4.91,12.619-19.336S155.874,143.483,148.664,143.483Zm-1,32.656c-3.105,0-6.011-1.7-6.011-13.325s2.906-13.32,6.011-13.32,5.409,1.7,5.409,13.32S150.766,176.139,147.662,176.139Z"/><path class="cls-3" d="M183.327,132.063c0-10.418-3.1-15.724-9.915-15.724-6.613,0-9.919,5.306-9.919,15.724,0,10.319,3.306,15.728,9.919,15.728C180.223,147.791,183.327,142.382,183.327,132.063Zm-13.922,0c0-6.811.8-10.315,4.007-10.315,3.307,0,4.007,3.5,4.007,10.315,0,6.712-.7,10.319-4.007,10.319C170.205,142.382,169.405,138.775,169.405,132.063Z"/><path class="cls-3" d="M195.951,151.1c-6.613,0-9.92,5.3-9.92,15.724,0,10.319,3.307,15.728,9.92,15.728,6.81,0,9.915-5.409,9.915-15.728C205.866,156.4,202.761,151.1,195.951,151.1Zm0,26.043c-3.207,0-4.008-3.608-4.008-10.319,0-6.811.8-10.316,4.008-10.316,3.3,0,4.007,3.5,4.007,10.316C199.958,173.533,199.253,177.141,195.951,177.141Z"/><path class="cls-3" d="M200.358,117.341h-2a2.887,2.887,0,0,0-2.506,1.9l-28.146,60.4c-.5,1.1.2,1.905,1.3,1.905h2a2.88,2.88,0,0,0,2.5-1.905l28.15-60.4C202.159,118.141,201.459,117.341,200.358,117.341Z"/></svg>