<svg id="Layer_1" data-name="Layer 1" xmlns="http://www.w3.org/2000/svg" viewBox="0 0 300 300"><defs><style>.cls-1{fill:#31f431;}.cls-2{fill:#e6e6e6;}.cls-3{fill:#5e5e5e;}</style></defs><path class="cls-1" d="M155.057,290.927c-76.819,0-139.314-62.5-139.314-139.314a138.658,138.658,0,0,1,38.84-96.508l12.178,11.7a122.428,122.428,0,1,0,88.3-37.619l-1.4.008-.14-16.887,1.538-.008c76.818,0,139.313,62.5,139.313,139.314S231.875,290.927,155.057,290.927Z"/><path class="cls-2" d="M71.222,62.342c.361-.34.739-.65,1.1-.984l-11.56-12.31-2.154,2.023,11.56,12.31C70.527,63.039,70.86,62.681,71.222,62.342Z"/><path class="cls-2" d="M76.993,57.254c.382-.316.778-.6,1.162-.912L67.391,43.33l-2.276,1.884L75.879,58.225C76.256,57.906,76.611,57.57,76.993,57.254Z"/><path class="cls-2" d="M83.072,52.539c.4-.292.815-.552,1.217-.838L74.364,38.04l-2.391,1.736L81.9,53.438C82.3,53.143,82.671,52.83,83.072,52.539Z"/><path class="cls-2" d="M89.435,48.214c.419-.265.847-.5,1.268-.759L81.655,33.2l-2.5,1.583,9.048,14.258C88.622,48.768,89.016,48.48,89.435,48.214Z"/><path class="cls-2" d="M96.057,44.3c.434-.239.877-.445,1.313-.679l-8.135-14.8-2.59,1.423,8.135,14.8C95.211,44.8,95.623,44.537,96.057,44.3Z"/><path class="cls-2" d="M102.912,40.805c.448-.211.9-.389,1.353-.595l-7.19-15.279L94.4,26.189l7.19,15.28C102.036,41.253,102.464,41.016,102.912,40.805Z"/><path class="cls-2" d="M109.972,37.75c.461-.183.927-.332,1.389-.509l-6.217-15.7L102.4,22.628l6.217,15.7C109.07,38.142,109.512,37.932,109.972,37.75Z"/><path class="cls-2" d="M117.211,35.143c.472-.152.946-.272,1.417-.42l-5.218-16.06-2.811.913,5.219,16.061C116.286,35.479,116.74,35.3,117.211,35.143Z"/><path class="cls-2" d="M124.6,33c.48-.123.961-.213,1.441-.33l-4.2-16.356-2.862.735,4.2,16.356C123.655,33.273,124.119,33.12,124.6,33Z"/><path class="cls-2" d="M132.107,31.319c.487-.093.973-.152,1.459-.24L130.4,14.492l-2.9.554,3.164,16.587C131.148,31.535,131.621,31.412,132.107,31.319Z"/><path class="cls-2" d="M139.706,30.116c.492-.063.98-.092,1.471-.148L139.06,13.215l-2.932.37,2.117,16.753C138.734,30.271,139.214,30.178,139.706,30.116Z"/><path class="cls-2" d="M147.366,29.391c.494-.031.983-.029,1.476-.054l-1.06-16.854-2.949.186,1.06,16.853C146.386,29.486,146.871,29.423,147.366,29.391Z"/><path class="cls-3" d="M126.944,148.29c2.906-2.2,4.91-6.509,4.91-14.12,0-12.422-4.609-17.431-11.919-17.431s-11.922,5.108-11.922,17.431c0,7.611,2,11.919,4.91,14.12-3.406,2.305-5.611,7.116-5.611,15.526,0,13.226,4.807,18.334,12.623,18.334s12.62-5.108,12.62-18.334C132.555,155.3,130.349,150.6,126.944,148.29Zm-7.009-25.54c2.8,0,4.7,1.3,4.7,11.42s-1.9,11.416-4.7,11.416-4.707-1.3-4.707-11.416S117.128,122.75,119.935,122.75Zm0,53.389c-3.108,0-5.409-1.3-5.409-12.323s2.3-12.318,5.409-12.318,5.409,1.3,5.409,12.318S123.04,176.139,119.935,176.139Z"/><path class="cls-3" d="M157.106,117.341H136.871a1.842,1.842,0,0,0-1.9,1.9v2.6a1.846,1.846,0,0,0,1.9,1.905H151.7l-13.523,51.987a19.99,19.99,0,0,0-.8,4.007,1.734,1.734,0,0,0,1.8,1.8h3.306a1.952,1.952,0,0,0,2-1.7l13.823-55.091a18.271,18.271,0,0,0,.6-3.208v-2.4A1.734,1.734,0,0,0,157.106,117.341Z"/><path class="cls-3" d="M181.149,132.063c0-10.418-3.1-15.724-9.915-15.724-6.613,0-9.919,5.306-9.919,15.724,0,10.319,3.306,15.728,9.919,15.728C178.045,147.791,181.149,142.382,181.149,132.063Zm-13.922,0c0-6.811.8-10.315,4.007-10.315,3.307,0,4.007,3.5,4.007,10.315,0,6.712-.7,10.319-4.007,10.319C168.027,142.382,167.227,138.775,167.227,132.063Z"/><path class="cls-3" d="M193.773,151.1c-6.613,0-9.919,5.3-9.919,15.724,0,10.319,3.306,15.728,9.919,15.728,6.811,0,9.915-5.409,9.915-15.728C203.688,156.4,200.584,151.1,193.773,151.1Zm0,26.043c-3.208,0-4.008-3.608-4.008-10.319,0-6.811.8-10.316,4.008-10.316,3.3,0,4.007,3.5,4.007,10.316C197.78,173.533,197.075,177.141,193.773,177.141Z"/><path class="cls-3" d="M198.18,117.341h-2a2.889,2.889,0,0,0-2.506,1.9l-28.146,60.4c-.5,1.1.2,1.905,1.3,1.905h2a2.88,2.88,0,0,0,2.5-1.905l28.15-60.4C199.982,118.141,199.281,117.341,198.18,117.341Z"/></svg>