<svg id="Layer_1" data-name="Layer 1" xmlns="http://www.w3.org/2000/svg" viewBox="0 0 300 300"><defs><style>.cls-1{fill:#31f431;}.cls-2{fill:#e6e6e6;}.cls-3{fill:#5e5e5e;}</style></defs><path class="cls-1" d="M155.686,290.927c-76.818,0-139.314-62.5-139.314-139.314A139.706,139.706,0,0,1,61.512,48.95l11.42,12.442a122.426,122.426,0,1,0,82.754-32.206l-1.4.008-.14-16.887,1.537-.008C232.5,12.3,295,74.8,295,151.613S232.5,290.927,155.686,290.927Z"/><path class="cls-2" d="M77.623,57.254c.382-.316.779-.6,1.163-.912L68.022,43.33l-2.277,1.884L76.509,58.225C76.886,57.906,77.241,57.57,77.623,57.254Z"/><path class="cls-2" d="M83.7,52.539c.4-.292.815-.552,1.218-.838L74.994,38.04,72.6,39.776l9.925,13.662C82.926,53.143,83.3,52.83,83.7,52.539Z"/><path class="cls-2" d="M90.065,48.214c.419-.265.848-.5,1.268-.759L82.285,33.2,79.79,34.78l9.048,14.258C89.252,48.768,89.647,48.48,90.065,48.214Z"/><path class="cls-2" d="M96.688,44.3c.433-.239.877-.445,1.312-.679l-8.135-14.8-2.589,1.423,8.135,14.8C95.841,44.8,96.253,44.537,96.688,44.3Z"/><path class="cls-2" d="M103.542,40.805c.449-.211.9-.389,1.353-.595l-7.19-15.279-2.673,1.258,7.19,15.28C102.666,41.253,103.094,41.016,103.542,40.805Z"/><path class="cls-2" d="M110.6,37.75c.461-.183.926-.332,1.388-.509l-6.216-15.7-2.748,1.087,6.216,15.7C109.7,38.142,110.142,37.932,110.6,37.75Z"/><path class="cls-2" d="M117.842,35.143c.471-.152.945-.272,1.416-.42l-5.217-16.06-2.811.913,5.218,16.061C116.916,35.479,117.37,35.3,117.842,35.143Z"/><path class="cls-2" d="M125.23,33c.48-.123.96-.213,1.44-.33l-4.2-16.356-2.863.735,4.2,16.356C124.285,33.273,124.75,33.12,125.23,33Z"/><path class="cls-2" d="M132.738,31.319c.486-.093.972-.152,1.458-.24l-3.164-16.587-2.9.554,3.164,16.587C131.778,31.535,132.251,31.412,132.738,31.319Z"/><path class="cls-2" d="M140.337,30.116c.491-.063.979-.092,1.47-.148l-2.116-16.753-2.932.37,2.117,16.753C139.365,30.271,139.845,30.178,140.337,30.116Z"/><path class="cls-2" d="M148,29.391c.494-.031.983-.029,1.477-.054l-1.06-16.854-2.95.186,1.06,16.853C147.017,29.486,147.5,29.423,148,29.391Z"/><path class="cls-3" d="M124.976,148.29c2.907-2.2,4.91-6.509,4.91-14.12,0-12.422-4.609-17.431-11.918-17.431s-11.923,5.108-11.923,17.431c0,7.611,2,11.919,4.91,14.12-3.405,2.305-5.611,7.116-5.611,15.526,0,13.226,4.807,18.334,12.624,18.334s12.619-5.108,12.619-18.334C130.587,155.3,128.382,150.6,124.976,148.29Zm-7.008-25.54c2.8,0,4.7,1.3,4.7,11.42s-1.9,11.416-4.7,11.416-4.708-1.3-4.708-11.416S115.16,122.75,117.968,122.75Zm0,53.389c-3.109,0-5.409-1.3-5.409-12.323s2.3-12.318,5.409-12.318,5.409,1.3,5.409,12.318S121.072,176.139,117.968,176.139Z"/><path class="cls-3" d="M155.035,148.29c2.906-2.2,4.91-6.509,4.91-14.12,0-12.422-4.609-17.431-11.919-17.431S136.1,121.847,136.1,134.17c0,7.611,2,11.919,4.91,14.12-3.406,2.305-5.611,7.116-5.611,15.526,0,13.226,4.807,18.334,12.623,18.334s12.62-5.108,12.62-18.334C160.646,155.3,158.44,150.6,155.035,148.29Zm-7.009-25.54c2.8,0,4.7,1.3,4.7,11.42s-1.9,11.416-4.7,11.416-4.708-1.3-4.708-11.416S145.219,122.75,148.026,122.75Zm0,53.389c-3.108,0-5.413-1.3-5.413-12.323s2.305-12.318,5.413-12.318,5.409,1.3,5.409,12.318S151.13,176.139,148.026,176.139Z"/><path class="cls-3" d="M201.423,117.341h-2a2.892,2.892,0,0,0-2.507,1.9l-28.145,60.4c-.5,1.1.2,1.905,1.3,1.905h2a2.88,2.88,0,0,0,2.5-1.905l28.149-60.4C203.225,118.141,202.524,117.341,201.423,117.341Z"/><path class="cls-3" d="M197.016,151.1c-6.613,0-9.919,5.3-9.919,15.724,0,10.319,3.306,15.728,9.919,15.728,6.811,0,9.915-5.409,9.915-15.728C206.931,156.4,203.827,151.1,197.016,151.1Zm0,26.043c-3.207,0-4.007-3.608-4.007-10.319,0-6.811.8-10.316,4.007-10.316,3.3,0,4.007,3.5,4.007,10.316C201.023,173.533,200.318,177.141,197.016,177.141Z"/><path class="cls-3" d="M184.392,132.063c0-10.418-3.1-15.724-9.915-15.724-6.612,0-9.919,5.306-9.919,15.724,0,10.319,3.307,15.728,9.919,15.728C181.288,147.791,184.392,142.382,184.392,132.063Zm-13.922,0c0-6.811.8-10.315,4.007-10.315,3.307,0,4.008,3.5,4.008,10.315,0,6.712-.7,10.319-4.008,10.319C171.27,142.382,170.47,138.775,170.47,132.063Z"/></svg>