<svg id="Layer_1" data-name="Layer 1" xmlns="http://www.w3.org/2000/svg" viewBox="0 0 300 300"><defs><style>.cls-1{fill:#f21b16;}.cls-2{fill:#e6e6e6;}.cls-3{fill:#5e5e5e;}</style></defs><path class="cls-1" d="M215.873,39.94a122.4,122.4,0,0,0-60.187-15.793l-1.373.009L154.1,7.269l1.587-.008a139.349,139.349,0,0,1,68.507,17.981Z"/><path class="cls-2" d="M221.306,43.173c.418.266.812.554,1.227.824l9.048-14.258-2.495-1.583-9.048,14.258C220.458,42.674,220.887,42.907,221.306,43.173Z"/><path class="cls-2" d="M227.669,47.5c.4.291.776.6,1.173.9l9.925-13.662L236.377,33,226.451,46.66C226.854,46.946,227.268,47.206,227.669,47.5Z"/><path class="cls-2" d="M233.748,52.213c.382.316.737.652,1.114.971l10.764-13.011-2.277-1.884L232.585,51.3C232.969,51.611,233.366,51.9,233.748,52.213Z"/><path class="cls-2" d="M239.519,57.3c.361.339.694.7,1.051,1.039l11.56-12.31-2.155-2.023-11.559,12.31C238.78,56.651,239.157,56.961,239.519,57.3Z"/><path class="cls-2" d="M244.959,62.741c.339.361.649.739.983,1.1l12.31-11.56-2.023-2.154L243.92,61.69C244.262,62.046,244.62,62.379,244.959,62.741Z"/><path class="cls-2" d="M250.047,68.512c.315.382.6.778.912,1.162L263.97,58.91l-1.883-2.276L249.075,67.4C249.4,67.775,249.731,68.13,250.047,68.512Z"/><path class="cls-2" d="M254.762,74.591c.292.4.552.814.838,1.217l13.661-9.925-1.737-2.391-13.661,9.926C254.158,73.814,254.471,74.19,254.762,74.591Z"/><path class="cls-2" d="M259.086,80.954c.266.418.5.847.76,1.268L274.1,73.174l-1.584-2.5-14.258,9.049C258.532,80.141,258.821,80.535,259.086,80.954Z"/><path class="cls-2" d="M263,87.576c.238.434.445.877.678,1.313l14.8-8.135-1.424-2.59-14.8,8.136C262.5,86.73,262.764,87.142,263,87.576Z"/><path class="cls-2" d="M266.5,94.431c.211.448.39.9.595,1.353l15.28-7.19-1.259-2.674-15.279,7.19C266.047,93.555,266.284,93.982,266.5,94.431Z"/><path class="cls-2" d="M269.551,101.491c.182.461.331.927.508,1.389l15.7-6.217-1.088-2.748-15.7,6.217C269.158,100.589,269.368,101.031,269.551,101.491Z"/><path class="cls-2" d="M272.157,108.73c.153.471.273.946.421,1.417l16.059-5.218-.913-2.811-16.06,5.219C271.822,107.805,272,108.259,272.157,108.73Z"/><path class="cls-2" d="M274.3,116.118c.124.48.214.961.331,1.441l16.356-4.2-.735-2.862L273.9,114.7C274.027,115.174,274.18,115.638,274.3,116.118Z"/><path class="cls-2" d="M275.981,123.626c.093.487.153.972.24,1.459l16.587-3.164-.553-2.9-16.588,3.164C275.765,122.666,275.889,123.14,275.981,123.626Z"/><path class="cls-2" d="M277.185,131.225c.062.492.091.98.148,1.471l16.753-2.117-.37-2.932-16.754,2.117C277.03,130.253,277.123,130.733,277.185,131.225Z"/><path class="cls-2" d="M277.909,138.885c.031.494.03.983.055,1.476l16.853-1.06-.185-2.949-16.853,1.06C277.815,137.905,277.878,138.39,277.909,138.885Z"/><path class="cls-2" d="M278.151,146.574c0,.495-.033.983-.038,1.477H295V145.1H278.113C278.118,145.591,278.151,146.078,278.151,146.574Z"/><path class="cls-2" d="M277.909,154.264c-.031.494-.094.979-.13,1.472l16.853,1.06.185-2.949-16.853-1.06C277.939,153.28,277.94,153.769,277.909,154.264Z"/><path class="cls-2" d="M277.185,161.923c-.062.492-.155.972-.223,1.461l16.754,2.117.37-2.932-16.753-2.117C277.276,160.943,277.247,161.431,277.185,161.923Z"/><path class="cls-2" d="M275.981,169.522c-.092.487-.216.959-.314,1.444l16.588,3.164.553-2.9-16.587-3.164C276.134,168.55,276.074,169.035,275.981,169.522Z"/><path class="cls-2" d="M274.3,177.03c-.123.48-.276.944-.4,1.422l16.356,4.2.735-2.862-16.356-4.2C274.517,176.07,274.427,176.55,274.3,177.03Z"/><path class="cls-2" d="M272.157,184.418c-.153.471-.335.925-.493,1.393l16.06,5.219.913-2.811L272.578,183C272.43,183.473,272.31,183.947,272.157,184.418Z"/><path class="cls-2" d="M269.551,191.657c-.183.46-.393.9-.58,1.359l15.7,6.217,1.088-2.748-15.7-6.216C269.882,190.73,269.733,191.2,269.551,191.657Z"/><path class="cls-2" d="M266.5,198.717c-.211.449-.448.876-.663,1.321l15.279,7.19,1.259-2.674-15.28-7.19C266.885,197.813,266.706,198.269,266.5,198.717Z"/><path class="cls-2" d="M263,205.572c-.239.434-.5.846-.746,1.277l14.8,8.135,1.424-2.59-14.8-8.135C263.448,204.7,263.241,205.138,263,205.572Z"/><path class="cls-2" d="M259.086,212.194c-.265.419-.554.813-.824,1.227l14.258,9.048,1.584-2.5-14.258-9.048C259.586,211.347,259.352,211.776,259.086,212.194Z"/><path class="cls-2" d="M254.762,218.557c-.291.4-.6.777-.9,1.173l13.661,9.926,1.737-2.391L255.6,217.34C255.314,217.743,255.054,218.156,254.762,218.557Z"/><path class="cls-2" d="M250.047,224.636c-.316.382-.652.737-.972,1.115l13.012,10.763,1.883-2.276-13.011-10.764C250.648,223.858,250.362,224.254,250.047,224.636Z"/><path class="cls-2" d="M244.959,230.407c-.339.362-.7.695-1.039,1.051l12.309,11.56,2.023-2.154-12.31-11.56C245.608,229.668,245.3,230.046,244.959,230.407Z"/><path class="cls-2" d="M239.519,235.847c-.362.34-.739.65-1.1.984l11.559,12.31,2.155-2.023-11.56-12.31C240.213,235.15,239.88,235.508,239.519,235.847Z"/><path class="cls-2" d="M233.748,240.935c-.382.316-.779.6-1.163.913l10.764,13.011,2.277-1.884-10.764-13.011C234.485,240.283,234.13,240.619,233.748,240.935Z"/><path class="cls-2" d="M227.669,245.65c-.4.292-.815.552-1.218.838l9.926,13.662,2.39-1.737-9.925-13.662C228.445,245.046,228.07,245.359,227.669,245.65Z"/><path class="cls-2" d="M221.306,249.975c-.419.266-.848.5-1.268.76l9.048,14.257,2.495-1.583-9.048-14.258C222.118,249.42,221.724,249.71,221.306,249.975Z"/><path class="cls-2" d="M214.684,253.891c-.435.239-.878.445-1.314.679l8.135,14.8,2.59-1.424-8.135-14.8C215.53,253.389,215.118,253.653,214.684,253.891Z"/><path class="cls-2" d="M207.829,257.384c-.449.211-.9.389-1.353.595l7.19,15.279L216.339,272l-7.19-15.28C208.705,256.936,208.277,257.173,207.829,257.384Z"/><path class="cls-2" d="M200.768,260.439c-.461.183-.926.332-1.388.509l6.216,15.7,2.748-1.088-6.216-15.7C201.67,260.047,201.229,260.257,200.768,260.439Z"/><path class="cls-2" d="M193.529,263.046c-.471.152-.945.272-1.417.42l5.219,16.06,2.81-.913-5.218-16.06C194.455,262.71,194,262.892,193.529,263.046Z"/><path class="cls-2" d="M186.141,265.192c-.48.123-.96.213-1.44.33l4.2,16.356,2.862-.735-4.2-16.355C187.086,264.916,186.621,265.069,186.141,265.192Z"/><path class="cls-2" d="M178.633,266.87c-.487.093-.972.152-1.458.24l3.164,16.587,2.9-.554-3.164-16.587C179.593,266.654,179.12,266.777,178.633,266.87Z"/><path class="cls-2" d="M171.035,268.074c-.492.062-.98.091-1.471.147l2.116,16.753,2.932-.37L172.5,267.851C172.006,267.918,171.526,268.012,171.035,268.074Z"/><path class="cls-2" d="M163.375,268.8c-.494.031-.983.029-1.477.055l1.06,16.853,2.95-.186-1.061-16.853C164.354,268.7,163.87,268.766,163.375,268.8Z"/><path class="cls-2" d="M155.686,269.04c-.5,0-.984-.033-1.478-.039v16.887h2.955V269C156.669,269.007,156.181,269.04,155.686,269.04Z"/><path class="cls-2" d="M148,268.8c-.5-.032-.979-.1-1.473-.131l-1.06,16.853,2.95.186,1.06-16.853C148.979,268.827,148.49,268.829,148,268.8Z"/><path class="cls-2" d="M140.337,268.074c-.492-.062-.972-.156-1.461-.223L136.759,284.6l2.932.37,2.116-16.753C141.316,268.165,140.828,268.136,140.337,268.074Z"/><path class="cls-2" d="M132.738,266.87c-.487-.093-.96-.216-1.445-.314l-3.164,16.587,2.9.554L134.2,267.11C133.71,267.022,133.224,266.963,132.738,266.87Z"/><path class="cls-2" d="M125.23,265.192c-.48-.123-.945-.276-1.422-.4l-4.2,16.355,2.863.735,4.2-16.356C126.19,265.4,125.71,265.315,125.23,265.192Z"/><path class="cls-2" d="M117.842,263.046c-.472-.154-.926-.336-1.394-.493l-5.218,16.06,2.811.913,5.217-16.06C118.787,263.318,118.313,263.2,117.842,263.046Z"/><path class="cls-2" d="M110.6,260.439c-.461-.182-.9-.392-1.36-.579l-6.216,15.7,2.748,1.088,6.216-15.7C111.529,260.771,111.064,260.622,110.6,260.439Z"/><path class="cls-2" d="M103.542,257.384c-.448-.211-.876-.448-1.32-.664L95.032,272l2.673,1.258,7.19-15.279C104.446,257.773,103.991,257.6,103.542,257.384Z"/><path class="cls-2" d="M96.688,253.891c-.435-.238-.847-.5-1.277-.745l-8.135,14.8,2.589,1.424L98,254.57C97.565,254.336,97.121,254.13,96.688,253.891Z"/><path class="cls-2" d="M90.065,249.975c-.418-.265-.813-.555-1.227-.824L79.79,263.409l2.495,1.583,9.048-14.257C90.913,250.474,90.484,250.241,90.065,249.975Z"/><path class="cls-2" d="M83.7,245.65c-.4-.291-.776-.6-1.173-.9L72.6,258.413l2.39,1.737,9.926-13.662C84.517,246.2,84.1,245.942,83.7,245.65Z"/><path class="cls-2" d="M77.623,240.935c-.382-.316-.737-.652-1.114-.971L65.745,252.975l2.277,1.884,10.764-13.011C78.4,241.537,78.005,241.251,77.623,240.935Z"/><path class="cls-2" d="M71.852,235.847c-.361-.339-.694-.7-1.051-1.039l-11.559,12.31,2.154,2.023,11.559-12.31C72.591,236.5,72.213,236.187,71.852,235.847Z"/><path class="cls-2" d="M66.412,230.407c-.339-.361-.649-.739-.984-1.1l-12.309,11.56,2.023,2.154,12.309-11.56C67.109,231.1,66.752,230.769,66.412,230.407Z"/><path class="cls-2" d="M61.324,224.636c-.316-.382-.6-.778-.912-1.162L47.4,234.238l1.884,2.276L62.3,225.751C61.976,225.373,61.64,225.018,61.324,224.636Z"/><path class="cls-2" d="M56.609,218.557c-.291-.4-.552-.814-.838-1.217L42.11,227.265l1.737,2.391,13.661-9.926C57.213,219.334,56.9,218.958,56.609,218.557Z"/><path class="cls-2" d="M52.284,212.194c-.265-.418-.5-.847-.759-1.268l-14.258,9.048,1.584,2.5,14.257-9.048C52.839,213.007,52.55,212.613,52.284,212.194Z"/><path class="cls-2" d="M48.368,205.572c-.239-.434-.445-.877-.678-1.313l-14.8,8.135,1.424,2.59,14.8-8.135C48.87,206.418,48.607,206.006,48.368,205.572Z"/><path class="cls-2" d="M44.875,198.717c-.211-.448-.389-.9-.594-1.353L29,204.554l1.259,2.674,15.279-7.19C45.324,199.593,45.087,199.166,44.875,198.717Z"/><path class="cls-2" d="M41.82,191.657c-.183-.461-.332-.927-.508-1.388l-15.7,6.216,1.088,2.748,15.7-6.217C42.212,192.559,42,192.117,41.82,191.657Z"/><path class="cls-2" d="M39.214,184.418c-.153-.471-.273-.945-.42-1.417l-16.061,5.218.914,2.811,16.06-5.219C39.549,185.343,39.367,184.889,39.214,184.418Z"/><path class="cls-2" d="M37.068,177.03c-.124-.48-.213-.96-.331-1.441l-16.356,4.2.735,2.862,16.356-4.2C37.344,177.974,37.191,177.51,37.068,177.03Z"/><path class="cls-2" d="M35.389,169.522c-.092-.487-.152-.972-.239-1.459l-16.588,3.164.554,2.9L35.7,170.966C35.606,170.481,35.482,170.009,35.389,169.522Z"/><path class="cls-2" d="M34.186,161.923c-.062-.492-.091-.98-.147-1.471l-16.754,2.117.37,2.932,16.754-2.117C34.341,162.9,34.248,162.415,34.186,161.923Z"/><path class="cls-2" d="M33.462,154.264c-.031-.5-.029-.984-.055-1.477l-16.853,1.06.186,2.949,16.853-1.06C33.556,155.243,33.493,154.758,33.462,154.264Z"/><path class="cls-2" d="M33.22,146.574c0-.5.033-.983.038-1.478H16.372v2.955H33.258C33.253,147.557,33.22,147.069,33.22,146.574Z"/><path class="cls-2" d="M33.462,138.885c.031-.5.094-.98.131-1.473l-16.853-1.06-.186,2.949,16.853,1.06C33.433,139.868,33.431,139.379,33.462,138.885Z"/><path class="cls-2" d="M34.186,131.225c.062-.492.155-.972.223-1.461l-16.754-2.117-.37,2.932L34.039,132.7C34.1,132.205,34.124,131.717,34.186,131.225Z"/><path class="cls-2" d="M35.389,123.626c.093-.486.217-.96.315-1.444l-16.588-3.164-.554,2.9,16.588,3.164C35.237,124.6,35.3,124.113,35.389,123.626Z"/><path class="cls-2" d="M37.068,116.118c.123-.48.276-.944.4-1.422l-16.356-4.2-.735,2.862,16.356,4.2C36.855,117.079,36.944,116.6,37.068,116.118Z"/><path class="cls-2" d="M39.214,108.73c.153-.471.335-.925.493-1.393l-16.06-5.219-.914,2.811,16.061,5.218C38.941,109.676,39.061,109.2,39.214,108.73Z"/><path class="cls-2" d="M41.82,101.491c.183-.46.392-.9.579-1.359L26.7,93.915l-1.088,2.748,15.7,6.217C41.488,102.418,41.637,101.952,41.82,101.491Z"/><path class="cls-2" d="M44.875,94.431c.212-.449.449-.876.664-1.321L30.26,85.92,29,88.594l15.28,7.19C44.486,95.334,44.664,94.879,44.875,94.431Z"/><path class="cls-2" d="M48.368,87.576c.239-.434.5-.846.746-1.276l-14.8-8.136-1.424,2.59,14.8,8.135C47.923,88.453,48.129,88.01,48.368,87.576Z"/><path class="cls-2" d="M52.284,80.954c.266-.419.555-.813.824-1.227L38.851,70.678l-1.584,2.5,14.258,9.048C51.785,81.8,52.019,81.372,52.284,80.954Z"/><path class="cls-2" d="M56.609,74.591c.291-.4.6-.777.9-1.173L43.847,63.492,42.11,65.883l13.661,9.925C56.057,75.405,56.318,74.991,56.609,74.591Z"/><path class="cls-2" d="M61.324,68.512c.316-.382.652-.737.972-1.114L49.284,56.634,47.4,58.91,60.412,69.674C60.723,69.29,61.008,68.894,61.324,68.512Z"/><path class="cls-2" d="M66.412,62.741c.34-.362.7-.7,1.039-1.051L55.142,50.13l-2.023,2.154,12.309,11.56C65.763,63.48,66.073,63.1,66.412,62.741Z"/><path class="cls-2" d="M71.852,57.3c.361-.34.739-.65,1.1-.984L61.4,44.007,59.242,46.03,70.8,58.34C71.158,58,71.491,57.64,71.852,57.3Z"/><path class="cls-2" d="M77.623,52.213c.382-.316.779-.6,1.163-.912L68.022,38.289l-2.277,1.884L76.509,53.184C76.886,52.865,77.241,52.529,77.623,52.213Z"/><path class="cls-2" d="M83.7,47.5c.4-.292.815-.552,1.218-.838L74.994,33,72.6,34.735,82.529,48.4C82.926,48.1,83.3,47.789,83.7,47.5Z"/><path class="cls-2" d="M90.065,43.173c.419-.266.848-.5,1.268-.759L82.285,28.156,79.79,29.739,88.838,44C89.252,43.727,89.647,43.439,90.065,43.173Z"/><path class="cls-2" d="M96.688,39.257c.433-.239.877-.445,1.312-.679l-8.135-14.8L87.276,25.2,95.411,40C95.841,39.759,96.253,39.5,96.688,39.257Z"/><path class="cls-2" d="M103.542,35.764c.449-.211.9-.389,1.353-.6L97.705,19.89l-2.673,1.258,7.19,15.28C102.666,36.212,103.094,35.975,103.542,35.764Z"/><path class="cls-2" d="M110.6,32.708c.461-.182.926-.331,1.388-.508l-6.216-15.7-2.748,1.088,6.216,15.7C109.7,33.1,110.142,32.891,110.6,32.708Z"/><path class="cls-2" d="M117.842,30.1c.471-.152.945-.272,1.416-.42l-5.217-16.06-2.811.913L116.448,30.6C116.916,30.437,117.37,30.256,117.842,30.1Z"/><path class="cls-2" d="M125.23,27.956c.48-.123.96-.213,1.44-.33l-4.2-16.356L119.608,12l4.2,16.357C124.285,28.232,124.75,28.079,125.23,27.956Z"/><path class="cls-2" d="M132.738,26.278c.486-.093.972-.152,1.458-.24L131.032,9.451l-2.9.554,3.164,16.587C131.778,26.494,132.251,26.371,132.738,26.278Z"/><path class="cls-2" d="M140.337,25.074c.491-.062.979-.091,1.47-.147L139.691,8.174l-2.932.37L138.876,25.3C139.365,25.23,139.845,25.137,140.337,25.074Z"/><path class="cls-2" d="M148,24.35c.494-.031.983-.029,1.477-.054l-1.06-16.854-2.95.186,1.06,16.853C147.017,24.445,147.5,24.381,148,24.35Z"/><path class="cls-3" d="M140,143.252c2.907-2.2,4.911-6.512,4.911-14.124,0-12.42-4.61-17.429-11.919-17.429s-11.923,5.108-11.923,17.429c0,7.612,2,11.92,4.91,14.124-3.405,2.3-5.611,7.112-5.611,15.526,0,13.221,4.807,18.331,12.624,18.331S145.61,172,145.61,158.778C145.61,150.263,143.405,145.556,140,143.252Zm-7.008-25.544c2.8,0,4.7,1.3,4.7,11.42s-1.9,11.419-4.7,11.419-4.708-1.3-4.708-11.419S130.183,117.708,132.991,117.708Zm0,53.391c-3.109,0-5.409-1.3-5.409-12.321s2.3-12.321,5.409-12.321,5.409,1.3,5.409,12.321S136.1,171.1,132.991,171.1Z"/><path class="cls-3" d="M169.357,127.025c0-10.418-3.1-15.728-9.915-15.728-6.613,0-9.919,5.31-9.919,15.728,0,10.317,3.306,15.726,9.919,15.726C166.253,142.751,169.357,137.342,169.357,127.025Zm-13.922,0c0-6.813.8-10.317,4.007-10.317,3.306,0,4.007,3.5,4.007,10.317,0,6.71-.7,10.317-4.007,10.317C156.234,137.342,155.435,133.735,155.435,127.025Z"/><path class="cls-3" d="M181.981,146.058c-6.613,0-9.92,5.307-9.92,15.726,0,10.316,3.307,15.726,9.92,15.726,6.81,0,9.915-5.41,9.915-15.726C191.9,151.365,188.791,146.058,181.981,146.058Zm0,26.042c-3.208,0-4.008-3.607-4.008-10.316,0-6.813.8-10.318,4.008-10.318,3.3,0,4.007,3.5,4.007,10.318C185.988,168.493,185.283,172.1,181.981,172.1Z"/><path class="cls-3" d="M186.388,112.3h-2a2.889,2.889,0,0,0-2.507,1.9l-28.145,60.4c-.5,1.1.2,1.9,1.3,1.9h2a2.884,2.884,0,0,0,2.5-1.9l28.15-60.4C188.19,113.1,187.488,112.3,186.388,112.3Z"/></svg>