<svg id="Layer_1" data-name="Layer 1" xmlns="http://www.w3.org/2000/svg" viewBox="0 0 300 300"><defs><style>.cls-1{fill:#31f431;}.cls-2{fill:#e6e6e6;}.cls-3{fill:#5e5e5e;}</style></defs><path class="cls-1" d="M156.316,290.927C79.5,290.927,17,228.431,17,151.613A138.818,138.818,0,0,1,68.721,43.277L79.349,56.4a122.428,122.428,0,1,0,76.967-27.218l-1.406.008-.14-16.887,1.546-.008c76.818,0,139.314,62.5,139.314,139.314S233.134,290.927,156.316,290.927Z"/><path class="cls-2" d="M84.332,52.539c.4-.292.815-.552,1.218-.838L75.624,38.04l-2.391,1.736,9.926,13.662C83.556,53.143,83.931,52.83,84.332,52.539Z"/><path class="cls-2" d="M90.7,48.214c.419-.265.848-.5,1.268-.759L82.915,33.2l-2.5,1.583,9.048,14.258C89.883,48.768,90.277,48.48,90.7,48.214Z"/><path class="cls-2" d="M97.317,44.3c.435-.239.878-.445,1.314-.679L90.5,28.822l-2.589,1.423,8.135,14.8C96.471,44.8,96.883,44.537,97.317,44.3Z"/><path class="cls-2" d="M104.172,40.805c.449-.211.9-.389,1.353-.595L98.336,24.931l-2.674,1.258,7.19,15.28C103.3,41.253,103.724,41.016,104.172,40.805Z"/><path class="cls-2" d="M111.233,37.75c.461-.183.926-.332,1.388-.509l-6.217-15.7-2.747,1.087,6.216,15.7C110.331,38.142,110.772,37.932,111.233,37.75Z"/><path class="cls-2" d="M118.472,35.143c.471-.152.945-.272,1.417-.42l-5.219-16.06-2.81.913,5.218,16.061C117.547,35.479,118,35.3,118.472,35.143Z"/><path class="cls-2" d="M125.86,33c.48-.123.96-.213,1.44-.33l-4.2-16.356-2.863.735,4.2,16.356C124.915,33.273,125.379,33.12,125.86,33Z"/><path class="cls-2" d="M133.368,31.319c.487-.093.972-.152,1.458-.24l-3.164-16.587-2.9.554,3.164,16.587C132.408,31.535,132.881,31.412,133.368,31.319Z"/><path class="cls-2" d="M140.966,30.116c.492-.063.98-.092,1.471-.148l-2.116-16.753-2.932.37,2.116,16.753C140,30.271,140.475,30.178,140.966,30.116Z"/><path class="cls-2" d="M148.626,29.391c.5-.031.983-.029,1.477-.054l-1.061-16.854-2.949.186,1.061,16.853C147.646,29.486,148.131,29.423,148.626,29.391Z"/><path class="cls-3" d="M125.4,148.29c2.906-2.2,4.91-6.509,4.91-14.12,0-12.422-4.609-17.431-11.919-17.431s-11.923,5.108-11.923,17.431c0,7.611,2,11.919,4.911,14.12-3.406,2.305-5.611,7.116-5.611,15.526,0,13.226,4.807,18.334,12.623,18.334s12.62-5.108,12.62-18.334C131.015,155.3,128.809,150.6,125.4,148.29ZM118.4,122.75c2.8,0,4.7,1.3,4.7,11.42s-1.9,11.416-4.7,11.416-4.708-1.3-4.708-11.416S115.588,122.75,118.4,122.75Zm0,53.389c-3.108,0-5.413-1.3-5.413-12.323S115.287,151.5,118.4,151.5s5.409,1.3,5.409,12.318S121.5,176.139,118.4,176.139Z"/><path class="cls-3" d="M147.749,116.739c-7.813,0-12.62,4.906-12.62,19.331s4.408,19.336,11.618,19.336c2.507,0,5.71-1.2,7.116-3.908,0,17.327-.705,24.34-6.411,24.34-4.209,0-5.112-4.2-4.811-9.115.1-2.1-.5-3.307-2-3.307h-2.3a2.373,2.373,0,0,0-2.507,2.705c0,12.224,4.308,16.029,11.622,16.029,12.92,0,13.32-13.222,13.32-37.265C160.772,124.65,157.866,116.739,147.749,116.739Zm0,32.656c-3.1,0-5.409-1.7-5.409-13.325s2.3-13.32,5.409-13.32,6.011,1.7,6.011,13.32S150.857,149.4,147.749,149.4Z"/><path class="cls-3" d="M197.844,151.1c-6.613,0-9.919,5.3-9.919,15.724,0,10.319,3.306,15.728,9.919,15.728,6.81,0,9.915-5.409,9.915-15.728C207.759,156.4,204.654,151.1,197.844,151.1Zm0,26.043c-3.208,0-4.007-3.608-4.007-10.319,0-6.811.8-10.316,4.007-10.316,3.3,0,4.007,3.5,4.007,10.316C201.851,173.533,201.146,177.141,197.844,177.141Z"/><path class="cls-3" d="M185.22,132.063c0-10.418-3.1-15.724-9.915-15.724-6.613,0-9.919,5.306-9.919,15.724,0,10.319,3.306,15.728,9.919,15.728C182.116,147.791,185.22,142.382,185.22,132.063Zm-13.922,0c0-6.811.8-10.315,4.007-10.315,3.306,0,4.007,3.5,4.007,10.315,0,6.712-.7,10.319-4.007,10.319C172.1,142.382,171.3,138.775,171.3,132.063Z"/><path class="cls-3" d="M202.251,117.341h-2a2.889,2.889,0,0,0-2.506,1.9l-28.146,60.4c-.5,1.1.2,1.905,1.3,1.905h2a2.88,2.88,0,0,0,2.5-1.905l28.149-60.4C204.052,118.141,203.352,117.341,202.251,117.341Z"/></svg>