<svg id="Layer_1" data-name="Layer 1" xmlns="http://www.w3.org/2000/svg" viewBox="0 0 300 300"><defs><style>.cls-1{fill:#31f431;}.cls-2{fill:#e6e6e6;}.cls-3{fill:#5e5e5e;}</style></defs><path class="cls-1" d="M150.646,291.561c-76.818,0-139.314-62.5-139.314-139.314a139.655,139.655,0,0,1,58.7-113.63l9.779,13.762a122.446,122.446,0,1,0,70.84-22.559l-1.34.008-.28-16.887,1.62-.008c76.818,0,139.314,62.5,139.314,139.314S227.464,291.561,150.646,291.561Z"/><path class="cls-2" d="M85.024,48.844c.418-.265.848-.5,1.268-.759L77.243,33.827l-2.494,1.584L83.8,49.668C84.211,49.4,84.606,49.11,85.024,48.844Z"/><path class="cls-2" d="M91.646,44.928c.434-.239.877-.445,1.313-.678l-8.135-14.8-2.59,1.423,8.135,14.8C90.8,45.43,91.212,45.167,91.646,44.928Z"/><path class="cls-2" d="M98.5,41.435c.448-.211.9-.389,1.353-.594l-7.19-15.28L89.99,26.82,97.18,42.1C97.625,41.884,98.052,41.646,98.5,41.435Z"/><path class="cls-2" d="M105.562,38.38c.46-.183.926-.332,1.387-.509l-6.216-15.7-2.747,1.088,6.216,15.7C104.659,38.772,105.1,38.563,105.562,38.38Z"/><path class="cls-2" d="M112.8,35.774c.472-.153.945-.273,1.417-.42L109,19.293l-2.81.913,5.218,16.061C111.875,36.109,112.329,35.927,112.8,35.774Z"/><path class="cls-2" d="M120.188,33.627c.48-.123.961-.212,1.441-.33l-4.2-16.356-2.862.735,4.2,16.356C119.244,33.9,119.708,33.751,120.188,33.627Z"/><path class="cls-2" d="M127.7,31.949c.487-.092.972-.152,1.459-.239l-3.164-16.588-2.9.554,3.164,16.587C126.737,32.166,127.209,32.042,127.7,31.949Z"/><path class="cls-2" d="M135.295,30.746c.492-.062.98-.091,1.471-.148l-2.117-16.753-2.931.37,2.116,16.754C134.324,30.9,134.8,30.808,135.295,30.746Z"/><path class="cls-2" d="M142.954,30.022c.5-.031.984-.029,1.478-.055l-1.061-16.853-2.949.185,1.06,16.854C141.975,30.116,142.46,30.053,142.954,30.022Z"/><path class="cls-3" d="M111.114,117.369c-7.813,0-12.62,4.906-12.62,19.331s4.407,19.335,11.618,19.335c2.506,0,5.71-1.2,7.115-3.908,0,17.328-.7,24.341-6.411,24.341-4.209,0-5.111-4.206-4.811-9.116.1-2.1-.5-3.306-2-3.306h-2.3a2.373,2.373,0,0,0-2.507,2.7c0,12.224,4.308,16.029,11.621,16.029,12.921,0,13.321-13.221,13.321-37.265C124.137,125.28,121.23,117.369,111.114,117.369Zm0,32.656c-3.105,0-5.409-1.7-5.409-13.325s2.3-13.32,5.409-13.32,6.01,1.7,6.01,13.32S114.222,150.025,111.114,150.025Z"/><path class="cls-3" d="M143.176,117.369c-8.312,0-12.822,5.611-12.822,32.656s4.51,32.754,12.822,32.754S156,177.069,156,150.025,151.491,117.369,143.176,117.369Zm0,58.9c-3.6,0-5.607-2.3-5.607-26.24s2-26.147,5.607-26.147,5.611,2.206,5.611,26.147S146.783,176.265,143.176,176.265Z"/><path class="cls-3" d="M193.068,151.727c-6.613,0-9.919,5.306-9.919,15.724,0,10.319,3.306,15.728,9.919,15.728,6.811,0,9.916-5.409,9.916-15.728C202.984,157.033,199.879,151.727,193.068,151.727Zm0,26.043c-3.207,0-4.007-3.607-4.007-10.319,0-6.811.8-10.315,4.007-10.315,3.3,0,4.008,3.5,4.008,10.315C197.076,174.163,196.371,177.77,193.068,177.77Z"/><path class="cls-3" d="M197.476,117.971h-2a2.892,2.892,0,0,0-2.507,1.9l-28.145,60.4c-.5,1.1.2,1.9,1.3,1.9h2a2.877,2.877,0,0,0,2.5-1.9l28.15-60.4C199.277,118.771,198.576,117.971,197.476,117.971Z"/><path class="cls-3" d="M180.445,132.693c0-10.418-3.1-15.724-9.915-15.724-6.613,0-9.919,5.306-9.919,15.724,0,10.319,3.306,15.728,9.919,15.728C177.34,148.421,180.445,143.012,180.445,132.693Zm-13.922,0c0-6.811.8-10.315,4.007-10.315,3.306,0,4.007,3.5,4.007,10.315,0,6.712-.7,10.319-4.007,10.319C167.322,143.012,166.523,139.405,166.523,132.693Z"/></svg>