<svg id="Layer_1" data-name="Layer 1" xmlns="http://www.w3.org/2000/svg" viewBox="0 0 300 300"><defs><style>.cls-1{fill:#31f431;}.cls-2{fill:#e6e6e6;}.cls-3{fill:#5e5e5e;}</style></defs><path class="cls-1" d="M151.275,291.561c-76.818,0-139.314-62.5-139.314-139.314A138.574,138.574,0,0,1,77.945,33.773l8.9,14.347a122.462,122.462,0,1,0,64.433-18.3l-1.339.008-.281-16.887,1.62-.008c76.818,0,139.314,62.5,139.314,139.314S228.093,291.561,151.275,291.561Z"/><path class="cls-2" d="M92.276,44.928c.434-.239.878-.445,1.313-.678l-8.135-14.8-2.589,1.423L91,45.673C91.43,45.43,91.842,45.167,92.276,44.928Z"/><path class="cls-2" d="M99.131,41.435c.448-.211.9-.389,1.353-.594l-7.19-15.28L90.621,26.82,97.81,42.1C98.255,41.884,98.683,41.646,99.131,41.435Z"/><path class="cls-2" d="M106.192,38.38c.461-.183.926-.332,1.388-.509l-6.217-15.7-2.748,1.088,6.217,15.7C105.289,38.772,105.731,38.563,106.192,38.38Z"/><path class="cls-2" d="M113.43,35.774c.472-.153.946-.273,1.417-.42l-5.218-16.061-2.81.913,5.218,16.061C112.505,36.109,112.959,35.927,113.43,35.774Z"/><path class="cls-2" d="M120.818,33.627c.48-.123.961-.212,1.441-.33l-4.2-16.356-2.862.735,4.2,16.356C119.874,33.9,120.338,33.751,120.818,33.627Z"/><path class="cls-2" d="M128.326,31.949c.487-.092.973-.152,1.459-.239l-3.164-16.588-2.9.554,3.164,16.587C127.367,32.166,127.84,32.042,128.326,31.949Z"/><path class="cls-2" d="M135.925,30.746c.492-.062.98-.091,1.471-.148l-2.117-16.753-2.931.37,2.116,16.754C134.954,30.9,135.434,30.808,135.925,30.746Z"/><path class="cls-2" d="M143.585,30.022c.494-.031.983-.029,1.476-.055L144,13.114l-2.949.185,1.06,16.854C142.6,30.116,143.09,30.053,143.585,30.022Z"/><path class="cls-3" d="M118.055,117.369c-7.813,0-12.62,4.906-12.62,19.331s4.407,19.335,11.618,19.335c2.506,0,5.71-1.2,7.116-3.908,0,17.328-.7,24.341-6.411,24.341-4.209,0-5.112-4.206-4.811-9.116.1-2.1-.5-3.306-2-3.306h-2.3a2.373,2.373,0,0,0-2.507,2.7c0,12.224,4.308,16.029,11.622,16.029,12.92,0,13.321-13.221,13.321-37.265C131.079,125.28,128.172,117.369,118.055,117.369Zm0,32.656c-3.105,0-5.409-1.7-5.409-13.325s2.3-13.32,5.409-13.32,6.011,1.7,6.011,13.32S121.163,150.025,118.055,150.025Z"/><path class="cls-3" d="M146.612,117.971h-2a1.842,1.842,0,0,0-1.905,1.9v.7c0,3.607-1.7,5.211-4.708,5.211h-.9a1.841,1.841,0,0,0-1.9,1.905v2.2a1.843,1.843,0,0,0,1.9,1.9h4.2v48.479a1.84,1.84,0,0,0,1.905,1.9h3.405a1.839,1.839,0,0,0,1.9-1.9v-60.4A1.838,1.838,0,0,0,146.612,117.971Z"/><path class="cls-3" d="M174.762,132.693c0-10.418-3.1-15.724-9.915-15.724-6.612,0-9.919,5.306-9.919,15.724,0,10.319,3.307,15.728,9.919,15.728C171.658,148.421,174.762,143.012,174.762,132.693Zm-13.922,0c0-6.811.8-10.315,4.007-10.315,3.307,0,4.008,3.5,4.008,10.315,0,6.712-.7,10.319-4.008,10.319C161.64,143.012,160.84,139.405,160.84,132.693Z"/><path class="cls-3" d="M191.793,117.971h-2a2.888,2.888,0,0,0-2.507,1.9l-28.146,60.4c-.5,1.1.2,1.9,1.3,1.9h2a2.877,2.877,0,0,0,2.5-1.9l28.15-60.4C193.6,118.771,192.894,117.971,191.793,117.971Z"/><path class="cls-3" d="M187.386,151.727c-6.613,0-9.919,5.306-9.919,15.724,0,10.319,3.306,15.728,9.919,15.728,6.811,0,9.915-5.409,9.915-15.728C197.3,157.033,194.2,151.727,187.386,151.727Zm0,26.043c-3.207,0-4.007-3.607-4.007-10.319,0-6.811.8-10.315,4.007-10.315,3.3,0,4.007,3.5,4.007,10.315C191.393,174.163,190.688,177.77,187.386,177.77Z"/></svg>