<svg id="Layer_1" data-name="Layer 1" xmlns="http://www.w3.org/2000/svg" viewBox="0 0 300 300"><defs><style>.cls-1{fill:#31f431;}.cls-2{fill:#e6e6e6;}.cls-3{fill:#5e5e5e;}</style></defs><path class="cls-1" d="M151.905,291.561c-76.818,0-139.314-62.5-139.314-139.314A139.216,139.216,0,0,1,86.152,29.4l7.982,14.883A122.471,122.471,0,1,0,151.905,29.82l-1.34.008-.28-16.887,1.62-.008c76.818,0,139.314,62.5,139.314,139.314S228.723,291.561,151.905,291.561Z"/><path class="cls-2" d="M99.761,41.435c.449-.211.9-.389,1.353-.594l-7.19-15.28L91.25,26.82,98.44,42.1C98.885,41.884,99.313,41.646,99.761,41.435Z"/><path class="cls-2" d="M106.822,38.38c.461-.183.926-.332,1.388-.509l-6.217-15.7-2.747,1.088,6.216,15.7C105.92,38.772,106.361,38.563,106.822,38.38Z"/><path class="cls-2" d="M114.061,35.774c.471-.153.945-.273,1.417-.42l-5.219-16.061-2.81.913,5.218,16.061C113.135,36.109,113.589,35.927,114.061,35.774Z"/><path class="cls-2" d="M121.449,33.627c.48-.123.96-.212,1.44-.33l-4.2-16.356-2.863.735,4.2,16.356C120.5,33.9,120.969,33.751,121.449,33.627Z"/><path class="cls-2" d="M128.957,31.949c.487-.092.972-.152,1.458-.239l-3.164-16.588-2.9.554,3.165,16.587C128,32.166,128.47,32.042,128.957,31.949Z"/><path class="cls-2" d="M136.555,30.746c.492-.062.98-.091,1.471-.148L135.91,13.845l-2.932.37,2.116,16.754C135.584,30.9,136.064,30.808,136.555,30.746Z"/><path class="cls-2" d="M144.215,30.022c.494-.031.983-.029,1.477-.055l-1.06-16.853-2.95.185,1.06,16.854C143.236,30.116,143.72,30.053,144.215,30.022Z"/><path class="cls-3" d="M114.227,117.369c-7.812,0-12.619,4.906-12.619,19.331s4.407,19.335,11.618,19.335c2.506,0,5.71-1.2,7.116-3.908,0,17.328-.7,24.341-6.411,24.341-4.209,0-5.112-4.206-4.811-9.116.1-2.1-.5-3.306-2-3.306h-2.3a2.373,2.373,0,0,0-2.507,2.7c0,12.224,4.308,16.029,11.622,16.029,12.92,0,13.32-13.221,13.32-37.265C127.251,125.28,124.345,117.369,114.227,117.369Zm0,32.656c-3.1,0-5.408-1.7-5.408-13.325s2.3-13.32,5.408-13.32,6.012,1.7,6.012,13.32S117.336,150.025,114.227,150.025Z"/><path class="cls-3" d="M144.187,117.369c-8.014,0-12.322,3.805-12.322,16.024a2.373,2.373,0,0,0,2.506,2.705h2.4c1.5,0,2.1-1.2,2-3.3-.3-4.91.4-9.115,5.108-9.115,3.806,0,5.71,2.5,5.71,9.915,0,13.922-10.719,25.441-17.229,41.169a7.821,7.821,0,0,0-.6,3.207v2.4a1.734,1.734,0,0,0,1.8,1.8h20.638a1.839,1.839,0,0,0,1.9-1.9v-2.6a1.839,1.839,0,0,0-1.9-1.9H139.079c5.508-14.125,17.728-26.946,17.728-41.17C156.807,122.378,152.3,117.369,144.187,117.369Z"/><path class="cls-3" d="M179.853,132.693c0-10.418-3.105-15.724-9.916-15.724-6.612,0-9.919,5.306-9.919,15.724,0,10.319,3.307,15.728,9.919,15.728C176.748,148.421,179.853,143.012,179.853,132.693Zm-13.923,0c0-6.811.8-10.315,4.007-10.315,3.307,0,4.008,3.5,4.008,10.315,0,6.712-.7,10.319-4.008,10.319C166.73,143.012,165.93,139.405,165.93,132.693Z"/><path class="cls-3" d="M192.476,151.727c-6.613,0-9.919,5.306-9.919,15.724,0,10.319,3.306,15.728,9.919,15.728,6.811,0,9.915-5.409,9.915-15.728C202.391,157.033,199.287,151.727,192.476,151.727Zm0,26.043c-3.207,0-4.007-3.607-4.007-10.319,0-6.811.8-10.315,4.007-10.315,3.3,0,4.007,3.5,4.007,10.315C196.483,174.163,195.778,177.77,192.476,177.77Z"/><path class="cls-3" d="M196.884,117.971h-2a2.888,2.888,0,0,0-2.507,1.9l-28.145,60.4c-.5,1.1.2,1.9,1.3,1.9h2a2.879,2.879,0,0,0,2.5-1.9l28.149-60.4C198.685,118.771,197.984,117.971,196.884,117.971Z"/></svg>