<svg id="Layer_1" data-name="Layer 1" xmlns="http://www.w3.org/2000/svg" viewBox="0 0 300 300"><defs><style>.cls-1{fill:#31f431;}.cls-2{fill:#e6e6e6;}.cls-3{fill:#5e5e5e;}</style></defs><path class="cls-1" d="M152.535,291.561c-76.819,0-139.314-62.5-139.314-139.314A139.742,139.742,0,0,1,94.627,25.5l7.025,15.353A122.5,122.5,0,1,0,152.535,29.82l-1.336.008-.28-16.887,1.616-.008c76.818,0,139.313,62.5,139.313,139.314S229.353,291.561,152.535,291.561Z"/><path class="cls-2" d="M107.452,38.38c.461-.183.926-.332,1.388-.509l-6.217-15.7-2.747,1.088,6.216,15.7C106.55,38.772,106.991,38.563,107.452,38.38Z"/><path class="cls-2" d="M114.691,35.774c.471-.153.945-.273,1.416-.42l-5.218-16.061-2.81.913L113.3,36.267C113.765,36.109,114.219,35.927,114.691,35.774Z"/><path class="cls-2" d="M122.078,33.627c.48-.123.961-.212,1.441-.33l-4.2-16.356-2.863.735,4.2,16.356C121.134,33.9,121.6,33.751,122.078,33.627Z"/><path class="cls-2" d="M129.587,31.949c.486-.092.972-.152,1.458-.239l-3.164-16.588-2.9.554,3.164,16.587C128.627,32.166,129.1,32.042,129.587,31.949Z"/><path class="cls-2" d="M137.186,30.746c.491-.062.979-.091,1.47-.148L136.54,13.845l-2.932.37,2.116,16.754C136.214,30.9,136.694,30.808,137.186,30.746Z"/><path class="cls-2" d="M144.845,30.022c.494-.031.983-.029,1.477-.055l-1.06-16.853-2.95.185,1.06,16.854C143.865,30.116,144.35,30.053,144.845,30.022Z"/><path class="cls-3" d="M114.408,117.373c-7.813,0-12.62,4.906-12.62,19.331s4.407,19.336,11.618,19.336c2.507,0,5.71-1.2,7.116-3.909,0,17.328-.705,24.34-6.411,24.34-4.209,0-5.112-4.205-4.811-9.115.1-2.1-.5-3.306-2-3.306H105a2.373,2.373,0,0,0-2.507,2.7c0,12.22,4.308,16.03,11.622,16.03,12.921,0,13.32-13.222,13.32-37.266C127.431,125.284,124.525,117.373,114.408,117.373Zm0,32.656c-3.1,0-5.409-1.7-5.409-13.325s2.305-13.32,5.409-13.32,6.011,1.7,6.011,13.32S117.517,150.029,114.408,150.029Z"/><path class="cls-3" d="M151.578,148.924c2.907-2.2,4.91-6.51,4.91-14.121,0-12.421-4.609-17.43-12.121-17.43-8.014,0-12.022,3.8-12.022,16.025a2.373,2.373,0,0,0,2.507,2.7h2.4c1.5,0,2.1-1.2,2-3.3-.3-4.91.4-9.115,4.807-9.115,3.006,0,5.212,1.5,5.212,11.118,0,10.118-1.905,11.416-4.708,11.416h-2.808a1.842,1.842,0,0,0-1.9,1.905v2.1a1.84,1.84,0,0,0,1.9,1.905h2.808c3.1,0,5.408,1.3,5.408,12.319s-2.205,12.021-5.709,12.021c-4.408,0-5.31-4.308-5.01-10.216.1-2.1-.5-3.306-2-3.306h-2.4a2.373,2.373,0,0,0-2.507,2.7c0,13.222,4.008,17.131,12.022,17.131,7.512,0,12.822-4.408,12.822-18.334C157.189,155.937,154.984,151.229,151.578,148.924Z"/><path class="cls-3" d="M180.936,132.7c0-10.418-3.105-15.724-9.915-15.724-6.613,0-9.92,5.306-9.92,15.724,0,10.319,3.307,15.728,9.92,15.728C177.831,148.425,180.936,143.016,180.936,132.7Zm-13.923,0c0-6.811.8-10.315,4.008-10.315,3.306,0,4.007,3.5,4.007,10.315,0,6.711-.7,10.319-4.007,10.319C167.813,143.016,167.013,139.408,167.013,132.7Z"/><path class="cls-3" d="M193.559,151.731c-6.613,0-9.919,5.306-9.919,15.724,0,10.319,3.306,15.728,9.919,15.728,6.811,0,9.915-5.409,9.915-15.728C203.474,157.037,200.37,151.731,193.559,151.731Zm0,26.043c-3.207,0-4.007-3.607-4.007-10.319,0-6.81.8-10.315,4.007-10.315,3.3,0,4.008,3.505,4.008,10.315C197.567,174.167,196.862,177.774,193.559,177.774Z"/><path class="cls-3" d="M197.966,117.975h-2a2.888,2.888,0,0,0-2.507,1.9l-28.146,60.4c-.5,1.105.2,1.905,1.3,1.905h2a2.878,2.878,0,0,0,2.5-1.905l28.15-60.4C199.768,118.775,199.067,117.975,197.966,117.975Z"/></svg>