<svg id="Layer_1" data-name="Layer 1" xmlns="http://www.w3.org/2000/svg" viewBox="0 0 300 300"><defs><style>.cls-1{fill:#31f431;}.cls-2{fill:#e6e6e6;}.cls-3{fill:#5e5e5e;}</style></defs><path class="cls-1" d="M153.164,291.561c-76.818,0-139.314-62.5-139.314-139.314A140.147,140.147,0,0,1,103.333,22.114l6.044,15.765a122.514,122.514,0,1,0,43.787-8.059l-1.336.008-.28-16.887,1.616-.008c76.818,0,139.314,62.5,139.314,139.314S229.982,291.561,153.164,291.561Z"/><path class="cls-2" d="M115.321,35.774c.471-.153.945-.273,1.417-.42L111.52,19.293l-2.811.913,5.218,16.061C114.4,36.109,114.849,35.927,115.321,35.774Z"/><path class="cls-2" d="M122.709,33.627c.48-.123.961-.212,1.441-.33l-4.2-16.356-2.862.735,4.2,16.356C121.764,33.9,122.229,33.751,122.709,33.627Z"/><path class="cls-2" d="M130.217,31.949c.487-.092.972-.152,1.458-.239l-3.164-16.588-2.9.554,3.164,16.587C129.257,32.166,129.73,32.042,130.217,31.949Z"/><path class="cls-2" d="M137.816,30.746c.491-.062.979-.091,1.471-.148L137.17,13.845l-2.932.37,2.117,16.754C136.844,30.9,137.324,30.808,137.816,30.746Z"/><path class="cls-2" d="M145.475,30.022c.494-.031.983-.029,1.477-.055l-1.06-16.853-2.949.185L144,30.153C144.5,30.116,144.98,30.053,145.475,30.022Z"/><path class="cls-3" d="M115.334,117.369c-7.812,0-12.619,4.906-12.619,19.331s4.407,19.335,11.617,19.335c2.507,0,5.71-1.2,7.116-3.908,0,17.328-.7,24.341-6.411,24.341-4.209,0-5.112-4.206-4.811-9.116.1-2.1-.5-3.306-2-3.306h-2.3a2.373,2.373,0,0,0-2.507,2.7c0,12.224,4.309,16.029,11.622,16.029,12.921,0,13.321-13.221,13.321-37.265C128.358,125.28,125.451,117.369,115.334,117.369Zm0,32.656c-3.1,0-5.409-1.7-5.409-13.325s2.305-13.32,5.409-13.32,6.011,1.7,6.011,13.32S118.443,150.025,115.334,150.025Z"/><path class="cls-3" d="M157.514,161.642h-3.905V150.223a1.842,1.842,0,0,0-1.9-1.9H148.5a1.839,1.839,0,0,0-1.9,1.9v11.419h-7.713L148.8,123.78a19.809,19.809,0,0,0,.8-4.008,1.735,1.735,0,0,0-1.806-1.8h-3.1a1.948,1.948,0,0,0-2,1.7L132.472,160.64a17.923,17.923,0,0,0-.6,3.208v2.4a1.735,1.735,0,0,0,1.806,1.8H146.6v12.22a1.839,1.839,0,0,0,1.9,1.9h3.208a1.842,1.842,0,0,0,1.9-1.9v-12.22h3.905a1.842,1.842,0,0,0,1.9-1.9v-2.6A1.846,1.846,0,0,0,157.514,161.642Z"/><path class="cls-3" d="M181.26,132.693c0-10.418-3.1-15.724-9.915-15.724-6.613,0-9.919,5.306-9.919,15.724,0,10.319,3.306,15.728,9.919,15.728C178.156,148.421,181.26,143.012,181.26,132.693Zm-13.922,0c0-6.811.8-10.315,4.007-10.315,3.306,0,4.007,3.5,4.007,10.315,0,6.712-.7,10.319-4.007,10.319C168.138,143.012,167.338,139.405,167.338,132.693Z"/><path class="cls-3" d="M193.884,151.727c-6.613,0-9.919,5.306-9.919,15.724,0,10.319,3.306,15.728,9.919,15.728,6.81,0,9.915-5.409,9.915-15.728C203.8,157.033,200.694,151.727,193.884,151.727Zm0,26.043c-3.208,0-4.007-3.607-4.007-10.319,0-6.811.8-10.315,4.007-10.315,3.3,0,4.007,3.5,4.007,10.315C197.891,174.163,197.186,177.77,193.884,177.77Z"/><path class="cls-3" d="M198.291,117.971h-2a2.886,2.886,0,0,0-2.506,1.9l-28.146,60.4c-.5,1.1.2,1.9,1.3,1.9h2a2.879,2.879,0,0,0,2.5-1.9l28.149-60.4C200.092,118.771,199.392,117.971,198.291,117.971Z"/></svg>