<svg id="Layer_1" data-name="Layer 1" xmlns="http://www.w3.org/2000/svg" viewBox="0 0 300 300"><defs><style>.cls-1{fill:#31f431;}.cls-2{fill:#e6e6e6;}.cls-3{fill:#5e5e5e;}</style></defs><path class="cls-1" d="M153.793,291.561c-76.818,0-139.313-62.5-139.313-139.314A138.7,138.7,0,0,1,112.237,19.236l5.03,16.12a122.538,122.538,0,1,0,36.526-5.536l-1.335.008-.281-16.887,1.616-.008c76.818,0,139.314,62.5,139.314,139.314S230.611,291.561,153.793,291.561Z"/><path class="cls-2" d="M123.339,33.627c.48-.123.96-.212,1.44-.33l-4.2-16.356-2.863.735,4.2,16.356C122.4,33.9,122.859,33.751,123.339,33.627Z"/><path class="cls-2" d="M130.847,31.949c.487-.092.972-.152,1.459-.239l-3.165-16.588-2.9.554L129.4,32.263C129.887,32.166,130.36,32.042,130.847,31.949Z"/><path class="cls-2" d="M138.446,30.746c.491-.062.98-.091,1.47-.148L137.8,13.845l-2.932.37,2.117,16.754C137.474,30.9,137.954,30.808,138.446,30.746Z"/><path class="cls-2" d="M146.1,30.022c.5-.031.984-.029,1.477-.055l-1.06-16.853-2.95.185,1.061,16.854C145.126,30.116,145.611,30.053,146.1,30.022Z"/><path class="cls-3" d="M115.518,117.369c-7.812,0-12.619,4.906-12.619,19.331s4.407,19.335,11.618,19.335c2.506,0,5.709-1.2,7.115-3.908,0,17.328-.7,24.341-6.41,24.341-4.21,0-5.112-4.206-4.812-9.116.1-2.1-.5-3.306-2-3.306h-2.3a2.373,2.373,0,0,0-2.506,2.7c0,12.224,4.308,16.029,11.622,16.029,12.92,0,13.32-13.221,13.32-37.265C128.542,125.28,125.636,117.369,115.518,117.369Zm0,32.656c-3.1,0-5.408-1.7-5.408-13.325s2.3-13.32,5.408-13.32,6.011,1.7,6.011,13.32S118.627,150.025,115.518,150.025Z"/><path class="cls-3" d="M148.084,140.509a8.4,8.4,0,0,0-5.212,1.9V124.382H156.5a1.842,1.842,0,0,0,1.9-1.905v-2.606a1.838,1.838,0,0,0-1.9-1.9H137.764a1.842,1.842,0,0,0-1.9,1.9v33.258a2.2,2.2,0,0,0,2.408,2.4h1.7c1.4,0,1.8-1.1,1.8-3.006,0-3.2,1.4-6.011,4.807-6.011,3.706,0,5.512,2.606,5.512,15.126,0,12.624-2.305,14.924-5.611,14.924-5.611,0-5.009-6.11-4.807-9.214.1-2.1-.5-3.306-2-3.306h-2.4a2.373,2.373,0,0,0-2.507,2.7c0,10.319,2.606,16.029,12.022,16.029,8.814,0,12.121-6.514,12.121-21.137S155.8,140.509,148.084,140.509Z"/><path class="cls-3" d="M199.378,117.971h-2a2.892,2.892,0,0,0-2.507,1.9l-28.146,60.4c-.5,1.1.2,1.9,1.3,1.9h2a2.878,2.878,0,0,0,2.5-1.9l28.15-60.4C201.18,118.771,200.479,117.971,199.378,117.971Z"/><path class="cls-3" d="M194.971,151.727c-6.613,0-9.919,5.306-9.919,15.724,0,10.319,3.306,15.728,9.919,15.728,6.811,0,9.915-5.409,9.915-15.728C204.886,157.033,201.782,151.727,194.971,151.727Zm0,26.043c-3.207,0-4.007-3.607-4.007-10.319,0-6.811.8-10.315,4.007-10.315,3.3,0,4.007,3.5,4.007,10.315C198.978,174.163,198.273,177.77,194.971,177.77Z"/><path class="cls-3" d="M182.347,132.693c0-10.418-3.1-15.724-9.915-15.724-6.613,0-9.919,5.306-9.919,15.724,0,10.319,3.306,15.728,9.919,15.728C179.243,148.421,182.347,143.012,182.347,132.693Zm-13.922,0c0-6.811.8-10.315,4.007-10.315,3.307,0,4.008,3.5,4.008,10.315,0,6.712-.7,10.319-4.008,10.319C169.225,143.012,168.425,139.405,168.425,132.693Z"/></svg>