<svg id="Layer_1" data-name="Layer 1" xmlns="http://www.w3.org/2000/svg" viewBox="0 0 300 300"><defs><style>.cls-1{fill:#31f431;}.cls-2{fill:#e6e6e6;}.cls-3{fill:#5e5e5e;}</style></defs><path class="cls-1" d="M154.427,291.561c-76.818,0-139.314-62.5-139.314-139.314A138.922,138.922,0,0,1,121.305,16.9l4,16.408a122.54,122.54,0,1,0,29.122-3.483l-1.34.008-.28-16.887,1.62-.008c76.818,0,139.314,62.5,139.314,139.314S231.245,291.561,154.427,291.561Z"/><path class="cls-2" d="M131.477,31.949c.487-.092.972-.152,1.459-.239l-3.165-16.588-2.9.554,3.164,16.587C130.517,32.166,130.991,32.042,131.477,31.949Z"/><path class="cls-2" d="M139.076,30.746c.492-.062.98-.091,1.471-.148L138.43,13.845l-2.931.37,2.116,16.754C138.1,30.9,138.585,30.808,139.076,30.746Z"/><path class="cls-2" d="M146.735,30.022c.495-.031.984-.029,1.477-.055l-1.06-16.853L144.2,13.3l1.06,16.854C145.756,30.116,146.241,30.053,146.735,30.022Z"/><path class="cls-3" d="M115.591,117.373c-7.812,0-12.619,4.906-12.619,19.331s4.407,19.336,11.618,19.336c2.506,0,5.709-1.2,7.115-3.909,0,17.328-.7,24.34-6.41,24.34-4.21,0-5.113-4.205-4.812-9.115.1-2.1-.5-3.306-2-3.306h-2.3a2.373,2.373,0,0,0-2.506,2.7c0,12.22,4.308,16.03,11.622,16.03,12.92,0,13.32-13.222,13.32-37.266C128.615,125.284,125.709,117.373,115.591,117.373Zm0,32.656c-3.1,0-5.409-1.7-5.409-13.325s2.3-13.32,5.409-13.32,6.011,1.7,6.011,13.32S118.7,150.029,115.591,150.029Z"/><path class="cls-3" d="M148.857,144.117c-2.506,0-5.71,1.2-7.111,3.908,0-17.332.7-24.34,6.411-24.34,4.2,0,5.107,4.2,4.806,9.115-.1,2.1.5,3.3,2,3.3h2.3a2.37,2.37,0,0,0,2.5-2.7c0-12.22-4.308-16.025-11.617-16.025-12.925,0-13.325,13.222-13.325,37.261,0,20.234,2.907,28.15,13.024,28.15,7.812,0,12.619-4.911,12.619-19.336S156.068,144.117,148.857,144.117Zm-1,32.655c-3.1,0-6.011-1.7-6.011-13.324s2.906-13.32,6.011-13.32,5.408,1.7,5.408,13.32S150.96,176.772,147.856,176.772Z"/><path class="cls-3" d="M183.521,132.7c0-10.418-3.1-15.724-9.915-15.724-6.613,0-9.919,5.306-9.919,15.724,0,10.319,3.306,15.728,9.919,15.728C180.417,148.425,183.521,143.016,183.521,132.7Zm-13.922,0c0-6.811.8-10.315,4.007-10.315,3.306,0,4.007,3.5,4.007,10.315,0,6.711-.7,10.319-4.007,10.319C170.4,143.016,169.6,139.408,169.6,132.7Z"/><path class="cls-3" d="M200.552,117.975h-2a2.893,2.893,0,0,0-2.507,1.9l-28.145,60.4c-.5,1.105.2,1.905,1.3,1.905h2a2.88,2.88,0,0,0,2.5-1.905l28.15-60.4C202.353,118.775,201.652,117.975,200.552,117.975Z"/><path class="cls-3" d="M196.144,151.731c-6.612,0-9.919,5.306-9.919,15.724,0,10.319,3.307,15.728,9.919,15.728,6.811,0,9.916-5.409,9.916-15.728C206.06,157.037,202.955,151.731,196.144,151.731Zm0,26.043c-3.207,0-4.007-3.607-4.007-10.319,0-6.81.8-10.315,4.007-10.315,3.3,0,4.008,3.505,4.008,10.315C200.152,174.167,199.447,177.774,196.144,177.774Z"/></svg>