<svg id="Layer_1" data-name="Layer 1" xmlns="http://www.w3.org/2000/svg" viewBox="0 0 300 300"><defs><style>.cls-1{fill:#31f431;}.cls-2{fill:#e6e6e6;}.cls-3{fill:#5e5e5e;}</style></defs><path class="cls-1" d="M155.057,291.561c-76.819,0-139.314-62.5-139.314-139.314A139.062,139.062,0,0,1,130.5,15.093l2.96,16.623a122.548,122.548,0,1,0,21.6-1.9l-1.34.008-.281-16.887,1.621-.008c76.818,0,139.313,62.5,139.313,139.314S231.875,291.561,155.057,291.561Z"/><path class="cls-2" d="M139.706,30.746c.492-.062.98-.091,1.471-.148L139.06,13.845l-2.932.37,2.117,16.754C138.734,30.9,139.214,30.808,139.706,30.746Z"/><path class="cls-2" d="M147.366,30.022c.494-.031.983-.029,1.476-.055l-1.06-16.853-2.949.185,1.06,16.854C146.386,30.116,146.871,30.053,147.366,30.022Z"/><path class="cls-3" d="M119.28,117.369c-7.813,0-12.619,4.906-12.619,19.331s4.407,19.335,11.617,19.335c2.507,0,5.71-1.2,7.116-3.908,0,17.328-.705,24.341-6.411,24.341-4.209,0-5.112-4.206-4.811-9.116.1-2.1-.5-3.306-2-3.306h-2.3a2.373,2.373,0,0,0-2.507,2.7c0,12.224,4.309,16.029,11.622,16.029,12.92,0,13.321-13.221,13.321-37.265C132.3,125.28,129.4,117.369,119.28,117.369Zm0,32.656c-3.1,0-5.409-1.7-5.409-13.325s2.305-13.32,5.409-13.32,6.011,1.7,6.011,13.32S122.388,150.025,119.28,150.025Z"/><path class="cls-3" d="M157.052,117.971H136.818a1.842,1.842,0,0,0-1.905,1.9v2.606a1.846,1.846,0,0,0,1.905,1.905h14.825l-13.522,51.986a19.984,19.984,0,0,0-.8,4.008,1.733,1.733,0,0,0,1.8,1.8h3.307a1.951,1.951,0,0,0,2-1.7l13.824-55.092a18.258,18.258,0,0,0,.6-3.207v-2.4A1.733,1.733,0,0,0,157.052,117.971Z"/><path class="cls-3" d="M181.1,132.693c0-10.418-3.1-15.724-9.916-15.724-6.612,0-9.919,5.306-9.919,15.724,0,10.319,3.307,15.728,9.919,15.728C178,148.421,181.1,143.012,181.1,132.693Zm-13.923,0c0-6.811.8-10.315,4.007-10.315,3.307,0,4.008,3.5,4.008,10.315,0,6.712-.7,10.319-4.008,10.319C167.977,143.012,167.177,139.405,167.177,132.693Z"/><path class="cls-3" d="M198.13,117.971h-2a2.892,2.892,0,0,0-2.507,1.9l-28.145,60.4c-.5,1.1.2,1.9,1.3,1.9h2a2.879,2.879,0,0,0,2.5-1.9l28.149-60.4C199.932,118.771,199.231,117.971,198.13,117.971Z"/><path class="cls-3" d="M193.723,151.727c-6.612,0-9.919,5.306-9.919,15.724,0,10.319,3.307,15.728,9.919,15.728,6.811,0,9.915-5.409,9.915-15.728C203.638,157.033,200.534,151.727,193.723,151.727Zm0,26.043c-3.207,0-4.007-3.607-4.007-10.319,0-6.811.8-10.315,4.007-10.315,3.3,0,4.007,3.5,4.007,10.315C197.73,174.163,197.025,177.77,193.723,177.77Z"/></svg>