<svg id="Layer_1" data-name="Layer 1" xmlns="http://www.w3.org/2000/svg" viewBox="0 0 300 300"><defs><style>.cls-1{fill:#31f431;}.cls-2{fill:#e6e6e6;}.cls-3{fill:#5e5e5e;}</style></defs><path class="cls-1" d="M155.686,291.561c-76.818,0-139.314-62.5-139.314-139.314A139.148,139.148,0,0,1,139.8,13.828l1.9,16.779a122.545,122.545,0,1,0,13.984-.787l-1.339.008-.281-16.887,1.62-.008C232.5,12.933,295,75.429,295,152.247S232.5,291.561,155.686,291.561Z"/><path class="cls-2" d="M148,30.022c.494-.031.983-.029,1.477-.055l-1.06-16.853-2.95.185,1.06,16.854C147.017,30.116,147.5,30.053,148,30.022Z"/><path class="cls-3" d="M117.057,117.373c-7.813,0-12.62,4.906-12.62,19.331s4.407,19.336,11.618,19.336c2.506,0,5.71-1.2,7.116-3.909,0,17.328-.705,24.34-6.411,24.34-4.209,0-5.112-4.205-4.811-9.115.1-2.1-.5-3.306-2-3.306h-2.3a2.373,2.373,0,0,0-2.507,2.7c0,12.22,4.308,16.03,11.622,16.03,12.92,0,13.32-13.222,13.32-37.266C130.08,125.284,127.174,117.373,117.057,117.373Zm0,32.656c-3.105,0-5.409-1.7-5.409-13.325s2.3-13.32,5.409-13.32,6.011,1.7,6.011,13.32S120.165,150.029,117.057,150.029Z"/><path class="cls-3" d="M155.228,148.924c2.907-2.2,4.911-6.51,4.911-14.121,0-12.421-4.61-17.43-11.919-17.43S136.3,122.481,136.3,134.8c0,7.611,2,11.919,4.911,14.121-3.406,2.305-5.611,7.116-5.611,15.526,0,13.225,4.806,18.334,12.623,18.334s12.619-5.109,12.619-18.334C160.839,155.937,158.634,151.229,155.228,148.924Zm-7.008-25.54c2.8,0,4.7,1.3,4.7,11.419s-1.9,11.416-4.7,11.416-4.708-1.3-4.708-11.416S145.412,123.384,148.22,123.384Zm0,53.388c-3.108,0-5.409-1.3-5.409-12.322s2.3-12.319,5.409-12.319,5.409,1.3,5.409,12.319S151.324,176.772,148.22,176.772Z"/><path class="cls-3" d="M184.586,132.7c0-10.418-3.1-15.724-9.915-15.724-6.613,0-9.919,5.306-9.919,15.724,0,10.319,3.306,15.728,9.919,15.728C181.482,148.425,184.586,143.016,184.586,132.7Zm-13.922,0c0-6.811.8-10.315,4.007-10.315,3.307,0,4.007,3.5,4.007,10.315,0,6.711-.7,10.319-4.007,10.319C171.464,143.016,170.664,139.408,170.664,132.7Z"/><path class="cls-3" d="M197.21,151.731c-6.613,0-9.919,5.306-9.919,15.724,0,10.319,3.306,15.728,9.919,15.728,6.811,0,9.915-5.409,9.915-15.728C207.125,157.037,204.021,151.731,197.21,151.731Zm0,26.043c-3.208,0-4.007-3.607-4.007-10.319,0-6.81.8-10.315,4.007-10.315,3.3,0,4.007,3.505,4.007,10.315C201.217,174.167,200.512,177.774,197.21,177.774Z"/><path class="cls-3" d="M201.617,117.975h-2a2.887,2.887,0,0,0-2.506,1.9l-28.146,60.4c-.5,1.105.2,1.905,1.3,1.905h2a2.88,2.88,0,0,0,2.5-1.905l28.15-60.4C203.419,118.775,202.718,117.975,201.617,117.975Z"/></svg>