<?xml version="1.0" encoding="utf-8"?>
<!-- Generator: Adobe Illustrator 13.0.2, SVG Export Plug-In . SVG Version: 6.00 Build 14948)  -->
<!DOCTYPE svg PUBLIC "-//W3C//DTD SVG 1.1//EN" "http://www.w3.org/Graphics/SVG/1.1/DTD/svg11.dtd">
<svg version="1.1" id="Layer_1" xmlns="http://www.w3.org/2000/svg" xmlns:xlink="http://www.w3.org/1999/xlink" x="0px" y="0px"
	 width="720px" height="719.992px" viewBox="0 0 720 719.992" enable-background="new 0 0 720 719.992" xml:space="preserve">
<g>
	<g>
		<g>
			<g>
				<g>
					<path fill="#FFFFFF" d="M360.012,5.969c195.525,0,354.035,158.509,354.035,354.02c0,195.541-158.51,354.043-354.035,354.043
						c-195.549,0-354.043-158.502-354.043-354.043C5.969,164.478,164.463,5.969,360.012,5.969"/>
					<path fill="#D1D3D4" d="M360.012,5.969v5.961c96.134,0,183.104,38.946,246.112,101.946
						c63.001,63.009,101.954,149.986,101.954,246.112c0,96.142-38.953,183.127-101.954,246.144
						c-63.009,62.984-149.979,101.931-246.112,101.946c-96.157-0.016-183.127-38.962-246.135-101.946
						C50.875,543.115,11.922,456.13,11.922,359.988c0-96.126,38.954-183.104,101.955-246.112
						c63.008-63,149.978-101.946,246.135-101.946V5.969V0C161.166,0,0,161.181,0,359.988c0,198.83,161.166,360.004,360.012,360.004
						C558.834,719.992,720,558.818,720,359.988C720,161.181,558.834,0,360.012,0V5.969z"/>
					<path fill="#E2E3E4" d="M357.715,3.688V6.07c97.126,0,185.025,39.36,248.675,103.001
						c63.634,63.649,102.993,151.557,102.993,248.675c0,97.095-39.359,185.002-102.993,248.644
						C542.74,670.03,454.841,709.375,357.715,709.375c-97.103,0-185.002-39.345-248.644-102.985
						C45.438,542.748,6.07,454.856,6.07,357.746c0-97.118,39.368-185.025,103.001-248.675C172.713,45.43,260.612,6.07,357.715,6.07
						V3.688V1.297c-196.83,0-356.426,159.58-356.426,356.449c0,196.838,159.596,356.395,356.426,356.395
						c196.861,0,356.434-159.557,356.434-356.395c0-196.87-159.572-356.449-356.434-356.449V3.688z"/>
					<path fill="#0099D8" d="M359.902,84.688c152.674,0,276.464,123.767,276.464,276.44c0,152.697-123.79,276.464-276.464,276.464
						c-152.673,0-276.464-123.767-276.464-276.464C83.438,208.455,207.229,84.688,359.902,84.688"/>
					<path fill="#FFFFFF" d="M349.918,421.809c6.969,5.031,24.039,5.258,43.672,0.773c18.375-4.203,54.883-14.156,88.219-21.461
						c15.415-3.375,21.649-3.047,22.938-3.047c4.531,0,2.109,11.289,2.109,11.289s8.055-8.062,6.773-20.977
						c-0.25-2.555-3.695-6.016-9.656-6.266c-15.227-0.641-23.649-1.039-23.649-1.039s1.469-5.898-5.75-9.789
						c-5.906-3.227-24.57-5.242-41.93-7.203c-19.422-2.164-39.086-3.062-39.086-3.062s-29.25,1.844-42.305-10.445
						c-5.945-5.562-14.016,4.805-13.438,15.094C338.465,377.91,332.582,409.309,349.918,421.809"/>
					<path fill="#E7E8E9" d="M349.918,421.809l-1.398,1.938c4.461,3.156,11.273,4.383,19.711,4.406c7.57,0,16.43-1.086,25.875-3.234
						c18.477-4.227,54.954-14.164,88.204-21.445c12.837-2.836,19.079-3.023,21.423-3.023l1.016,0.008v-0.102l-0.039,0.078
						l0.039,0.023v-0.102l-0.039,0.078l0.133-0.352l-0.219,0.297l0.086,0.055l0.133-0.352l-0.219,0.297l0.047-0.078l-0.07,0.062
						l0.023,0.016l0.047-0.078l-0.07,0.062c0.125,0.023,0.57,1.461,0.516,3.055c0,1.281-0.141,2.68-0.297,3.719
						c-0.156,1.055-0.297,1.734-0.297,1.734l-1.703,7.891l5.719-5.711c0.195-0.211,7.578-7.578,7.625-19.891
						c0-0.969-0.055-1.977-0.156-3.008c-0.25-2.219-1.609-4.149-3.633-5.688c-2.055-1.508-4.867-2.586-8.297-2.734
						c-15.219-0.617-23.618-1.023-23.649-1.023l-0.102,2.375l2.312,0.578c0.039-0.148,0.188-0.812,0.188-1.867
						c0.086-2.523-1.203-7.469-7.117-10.602c-3.609-1.93-9.766-3.141-17.445-4.336c-7.648-1.164-16.68-2.156-25.344-3.125
						c-19.54-2.18-39.227-3.086-39.25-3.086h-0.117h-0.125c-0.016,0-1.484,0.086-3.992,0.086
						c-8.305,0.094-27.641-1.297-36.547-9.875c-1.508-1.422-3.391-2.227-5.258-2.203c-3.766,0.062-6.68,2.656-8.773,5.93
						c-2.102,3.305-3.453,7.578-3.453,12.039l0.039,1.203l0.039,2.148c0.016,4.5-0.508,10.992-0.516,18.023
						c0.055,13.305,1.727,29.094,13.555,37.75L349.918,421.809l1.391-1.938c-9.562-6.773-11.609-20.844-11.57-33.875
						c0-6.82,0.523-13.195,0.523-18.023l-0.062-2.414l-0.016-0.938c-0.016-3.461,1.102-7.008,2.703-9.484
						c1.594-2.555,3.602-3.805,4.742-3.727l1.992,0.922c11.172,10.297,31.094,11.086,39.813,11.172c2.625,0,4.234-0.086,4.273-0.086
						l-0.148-2.391l-0.102,2.391c0,0,4.883,0.219,12.203,0.711s17.055,1.258,26.727,2.336c8.664,0.977,17.656,1.961,25.148,3.102
						c7.469,1.102,13.609,2.523,15.891,3.805c4.344,2.445,4.547,5.047,4.641,6.422l-0.039,0.609l-0.023,0.148l0.562,0.102
						l-0.562-0.141v0.039l0.562,0.102l-0.562-0.141l-0.703,2.812l2.906,0.148c0,0,8.438,0.398,23.657,1.023
						c2.555,0.117,4.43,0.891,5.664,1.797c1.25,0.914,1.719,1.993,1.719,2.329l0.141,2.539c0,5.141-1.586,9.297-3.172,12.18
						c-0.789,1.445-1.586,2.555-2.156,3.297l-0.68,0.82l-0.211,0.211l1.688,1.695l2.32,0.508c0.016-0.094,0.695-3.195,0.711-6.453
						c-0.016-1.531-0.125-3.094-0.75-4.609l-1.555-2.148c-0.758-0.633-1.805-0.992-2.836-0.992h-1.016
						c-2.688,0-9.359,0.25-22.446,3.133c-33.398,7.32-69.954,17.281-88.243,21.461c-9.133,2.094-17.704,3.133-24.813,3.133
						c-7.922,0.023-14.039-1.383-16.922-3.523L349.918,421.809z"/>
					<path fill="#D4D5D7" d="M512.834,409.293c0.125-0.164,5.602-7.617,5.602-19.219c0-1.156-0.055-2.344-0.172-3.571
						c-0.266-2.086-1.625-3.93-3.672-5.516c-2.055-1.57-4.891-2.789-8.273-2.93c-15.203-0.656-21.884-1.023-21.907-1.023
						l-0.102,1.789l1.766-0.281c-0.031-0.125-0.375-2.43-1.828-5.141c-1.445-2.688-4.094-5.867-8.57-7.234
						c-16.75-5.211-38.055-7.359-38.117-7.367c-0.984-0.109-1.867,0.609-1.969,1.586c-0.094,0.992,0.625,1.875,1.609,1.969
						c0.016,0,5.258,0.531,12.602,1.711c7.32,1.164,16.703,2.984,24.812,5.516c3.359,1.039,5.297,3.336,6.477,5.516
						c0.586,1.078,0.961,2.102,1.18,2.844l0.219,0.883l0.055,0.258l0.211,1.438l1.445,0.078c0.016,0,6.743,0.391,21.97,1.031
						c2.594,0.117,4.742,1.047,6.258,2.203c1.523,1.117,2.281,2.562,2.281,3.023c0.102,1.102,0.156,2.18,0.156,3.219
						c0,5.219-1.25,9.539-2.492,12.531c-0.625,1.484-1.25,2.648-1.695,3.43l-0.539,0.875l-0.18,0.273l0.375,2.492L512.834,409.293z"
						/>
					<path fill="#E7E8E9" d="M122.166,444.192c19.234-15.477,48.938-35.243,70.547-43.196c0,0,83.157,43.008,188.752,19.195
						c3.633-0.836,12.297-2.742,17.109-4.867c0,0-4.133-19.656-8.93-32.047c-4.844-12.422-10.516-27.016-10.516-27.016
						s35.398-0.875,51.204,1.227c6.883-23.743,12.195-54.329,12.727-98.774c1.164-96.712-58.165-168.604-58.165-168.604
						s-22.118-4.477-58.782,0.211c-44.657,5.672-107.532,26.188-156.462,73.797c-2.461,2.438-7.664,7.719-10.094,10.313
						c-29.743-4.664-81.118,0.266-84.61,1.289c6.156,0,12.719-0.938,15.172-1.117c1.477-0.133-26.672,137.759-44.516,224.471
						c-1.297,6.25-12.438,23.898-18.211,28.375c9.938-8.656,39.719-29.266,63.485-41.188c1.992,39.907,16.375,71.142,16.375,71.142
						S110.79,453.396,122.166,444.192"/>
					<path fill="#E7E8E9" d="M122.166,444.192l5.984,7.445c18.508-14.977,48.18-34.54,67.875-41.704l-3.312-8.938l-4.383,8.469
						c0.828,0.391,53.055,27.407,128.228,27.454c20.79,0,43.368-2.094,67.001-7.43c1.805-0.414,5.008-1.109,8.445-2.016
						c3.469-0.93,7.094-1.969,10.445-3.43c4.102-1.836,6.375-6.281,5.453-10.703c-0.016-0.07-1.062-5.094-2.734-11.727
						c-1.703-6.672-3.961-14.883-6.617-21.797c-4.844-12.414-10.5-26.977-10.531-27.016l-8.891,3.461l0.25,9.539
						c0,0,1.789-0.039,4.781-0.086c3.008-0.039,7.18-0.094,11.891-0.094c11.133-0.008,25.469,0.305,33.008,1.328
						c4.688,0.617,9.109-2.273,10.422-6.797c7.156-24.61,12.602-56.204,13.141-101.329c0.008-0.961,0.008-1.922,0.008-2.883
						c-0.008-49.603-15.094-92.423-30.078-122.869c-15-30.461-29.961-48.618-30.29-49.04c-1.414-1.695-3.305-2.836-5.477-3.281
						c-0.531-0.102-10.704-2.118-28.36-2.118c-9.227,0-20.508,0.562-33.524,2.211c-46.305,5.914-110.923,26.93-161.908,76.43
						l-0.078,0.07c-2.555,2.539-7.704,7.758-10.344,10.579l6.985,6.508l1.492-9.43c-10.094-1.57-21.829-2.078-33.5-2.094
						c-12.867,0-25.618,0.656-35.516,1.391c-4.961,0.375-9.203,0.766-12.438,1.109c-1.594,0.188-2.961,0.359-4.078,0.523
						l-1.539,0.234l-1.727,0.391c-4.555,1.352-7.43,5.829-6.75,10.532c0.688,4.695,4.696,8.188,9.446,8.188
						c3.555-0.016,7-0.273,9.875-0.547c2.836-0.273,5.258-0.562,5.992-0.609l1.617-0.258l-2.297-9.25l1.984,9.32l0.312-0.07
						l-2.297-9.25l1.984,9.32l-2-9.328v9.539c1.492-0.039,1.703-0.172,2-0.211l-2-9.328v9.539v-9.531l-5.344,7.898
						c1.375,0.953,3.453,1.656,5.344,1.633v-9.531l-5.344,7.898l5.336-7.867l-8.82,3.547c0.422,0.906,1.039,2.562,3.484,4.32
						l5.336-7.867l-8.82,3.547l8.57-3.445l-9.188,0.93c0.078,0.461,0.078,1.055,0.617,2.516l8.57-3.445l-9.188,0.93l8.125-0.812
						h-8.164l0.039,0.812l8.125-0.812h-8.164h4.484l-4.469-0.359l-0.016,0.359h4.484l-4.469-0.359c0,0.086-0.133,1.148-0.367,2.562
						c-1.75,11.102-8.789,46.899-17.344,89.298c-8.562,42.469-18.664,91.798-26.688,130.783l-0.016,0.031
						c-0.094,0.461-0.891,2.469-2.062,4.672c-1.75,3.383-4.352,7.617-6.875,11.172c-1.25,1.766-2.516,3.391-3.579,4.633
						c-1.031,1.25-1.984,2.133-2.18,2.266l5.852,7.531l6.281,7.196c4.312-3.782,14.156-11.071,25.547-18.618
						c11.407-7.562,24.586-15.539,35.938-21.227l-4.281-8.54l-9.531,0.477c2.141,41.922,16.977,74.024,17.234,74.657
						c1.352,2.93,4.086,4.992,7.273,5.461s6.414-0.695,8.54-3.125h0.016c0.438-0.469,4.086-4.273,13.766-12.109l-0.023,0.016
						L122.166,444.192l-6.008-7.406c-11.657,9.445-15.586,13.758-16.055,14.289l7.148,6.328l8.672-3.977l-0.102-0.25
						c-1.344-2.93-13.672-31.875-15.422-67.399c-0.156-3.203-1.93-6.133-4.719-7.758c-2.781-1.625-6.203-1.727-9.086-0.281
						c-12.414,6.227-26.024,14.5-37.922,22.399c-11.93,7.914-21.938,15.25-27.547,20.125c-3.883,3.383-4.367,9.266-1.086,13.25
						c3.266,3.992,9.133,4.648,13.211,1.477c2.578-2.047,4.578-4.36,6.75-7.079c3.172-4.055,6.383-8.883,9.07-13.523
						c1.336-2.336,2.523-4.602,3.539-6.766c0.992-2.203,1.805-4.148,2.336-6.617c8.695-42.274,19.844-96.681,28.829-141.376
						c4.492-22.352,8.438-42.274,11.266-57.04c1.414-7.398,2.547-13.5,3.336-18.031c0.391-2.258,0.703-4.117,0.938-5.625
						l0.266-1.992c0.07-0.648,0.133-1.117,0.141-2.078c-0.023-0.438,0.016-0.898-0.211-2.156c-0.172-0.648-0.297-1.539-1.289-3.188
						c-0.516-0.789-1.328-1.844-2.734-2.821c-1.367-0.969-3.453-1.672-5.367-1.648c-1.492,0.039-1.695,0.172-1.992,0.227
						l-0.32,0.062l2.312,9.266l-0.688-9.516c-1.727,0.133-3.805,0.391-6.406,0.641c-2.562,0.25-5.484,0.453-8.078,0.438v9.555
						l2.703,9.148l-1.562-5.281l1.172,5.383l0.391-0.102l-1.562-5.281l1.172,5.383l0.406-0.062c2.266-0.375,9.43-1.141,18.477-1.766
						c9.086-0.617,20.297-1.141,31.407-1.141c11.062,0,22.078,0.523,30.54,1.859c3.117,0.484,6.297-0.617,8.469-2.922
						c2.203-2.375,7.461-7.703,9.82-10.062l-6.727-6.758l6.648,6.836c46.907-45.719,107.993-65.735,151.017-71.173
						c12.165-1.547,22.649-2.055,31.11-2.055c8.102,0,14.383,0.461,18.578,0.906c2.079,0.227,3.665,0.445,4.672,0.617l1.086,0.164
						l0.234,0.055l1.898-9.359l-7.359,6.07l0.102,0.133c1.375,1.688,15.477,19.484,29.109,47.907
						c13.664,28.438,26.805,67.461,26.805,111.72l-0.023,2.664c-0.539,43.735-5.742,73.336-12.375,96.22l9.18,2.664l1.25-9.461
						c-9.625-1.266-23.993-1.469-35.532-1.5c-9.648,0-17.102,0.203-17.156,0.203c-3.086,0.07-5.993,1.672-7.711,4.258
						c-1.711,2.562-2.055,5.844-0.945,8.727c0,0,5.672,14.602,10.516,27.023c2.141,5.493,4.336,13.29,5.891,19.547
						c0.805,3.133,1.453,5.891,1.898,7.875c0.453,1.969,0.688,3.109,0.688,3.109l9.344-1.945l-3.875-8.742
						c-1.461,0.68-4.578,1.648-7.562,2.414c-3.008,0.789-5.945,1.461-7.805,1.883c-22.118,4.984-43.25,6.945-62.774,6.945
						c-35.258,0-65.321-6.398-86.47-12.781c-10.578-3.195-18.922-6.391-24.586-8.75c-2.82-1.18-4.977-2.156-6.383-2.82l-1.586-0.75
						l-0.359-0.188l-0.07-0.031c-2.383-1.234-5.148-1.406-7.688-0.477c-23.523,8.758-53.29,28.758-73.235,44.743l-0.023,0.016
						L122.166,444.192z"/>
					<path fill="#900028" d="M163.783,165.892c33.734-30.445,67.454-48.954,97.501-61.516
						c61.157-25.508,124.517-15.977,124.517-15.977c93.735,120.774,43.821,273.112,43.821,273.112l-40.68-2.398
						C304.496,177.533,163.783,165.892,163.783,165.892"/>
					<path fill="#D1D3D4" d="M429.724,358.543l-40.68-2.422c-1.023-0.062-1.891,0.703-1.961,1.727
						c-0.047,1.016,0.719,1.898,1.742,1.945l40.672,2.43c1.031,0.055,1.898-0.711,1.961-1.727
						C431.513,359.473,430.747,358.59,429.724,358.543"/>
					<path fill="#D1D3D4" d="M438.614,363.004c7.359-24.196,13.133-57.915,13.672-104.259c0.016-0.961,0.016-1.922,0.016-2.898
						c-0.039-96.244-56.157-169.041-56.274-169.252c-0.805-1.055-2.305-1.25-3.359-0.445c-1.039,0.805-1.234,2.305-0.43,3.352
						c0,0,0.828,1.078,2.336,3.219c10.555,14.977,52.993,80.571,52.969,163.127c0,0.945-0.016,1.898-0.023,2.828
						c-0.539,45.985-6.273,79.266-13.477,102.938c-0.375,1.273,0.32,2.602,1.602,2.984
						C436.903,364.973,438.231,364.262,438.614,363.004"/>
					<path fill="#900028" d="M101.009,464.067c-8.062-20.648-16.102-48.641-17.469-66.18
						c45.813-29.422,104.243-42.258,150.142-40.93c95.962,2.852,160.58,59.54,160.58,59.54
						c-24.985,7.766-55.141,10.773-79.774,10.367c-71.657-1.141-120.501-26.094-120.501-26.094
						C171.15,409.786,133.455,432.403,101.009,464.067"/>
					<path fill="#D1D3D4" d="M108.446,471.521c31.36-29.656,67.048-50.883,88.688-59.43l-0.891-2.219l-1.086,2.109
						c0.203,0.109,49.368,25.188,121.572,26.352c1.492,0.023,3,0.047,4.516,0.047c23.946-0.008,52.18-3.086,75.978-10.485
						l-0.703-2.266l0.562,2.305c0,0,22.297-5.305,45.102-10.742c22.852-5.469,46.017-11.023,48.212-11.664
						c2.938-0.867,7.766-2.266,10.352-2.227l0.992,0.078l0.219,0.062v-0.023l-0.008,0.023h0.008v-0.023l-0.008,0.023l0.531-0.703
						l-0.719,0.508l0.195,0.195l0.523-0.703l-0.719,0.508v0.031c0.195,0.281,0.461,1.914,0.422,3.617
						c0,1.688-0.148,3.562-0.289,4.969c-0.156,1.43-0.297,2.406-0.297,2.406l-0.648,4.375l4.023-1.859
						c0.195-0.141,9.508-4.32,11.562-14.82c0.25-1.281-0.609-2.531-1.906-2.781c-1.297-0.234-2.539,0.609-2.789,1.906
						c-0.719,3.898-2.906,6.727-5.016,8.633c-1.039,0.945-2.031,1.648-2.773,2.109l-0.844,0.492l-0.258,0.125l1.016,2.172
						l2.352,0.344c0-0.062,0.641-4.188,0.641-8.07c0-1.305-0.07-2.594-0.297-3.789c-0.273-1.18-0.516-2.383-1.852-3.492
						c-1.344-0.945-2.703-1.062-4.062-1.086c-3.875,0.023-8.688,1.578-11.68,2.406c-1.798,0.531-25.235,6.164-47.993,11.602
						c-22.797,5.461-45.063,10.75-45.11,10.766l-0.062,0.008l-0.094,0.031c-23.141,7.203-51.032,10.266-74.563,10.25
						c-1.492,0-2.969,0-4.438-0.039c-35.563-0.555-65.477-7.032-86.493-13.36c-10.484-3.156-18.766-6.289-24.398-8.625
						c-2.812-1.148-4.985-2.125-6.43-2.789c-1.445-0.672-2.148-1.039-2.148-1.039l-0.961-0.492l-1.016,0.391
						c-22.391,8.875-58.329,30.305-90.181,60.415c-0.969,0.906-1.016,2.414-0.094,3.383
						C105.985,472.388,107.485,472.427,108.446,471.521"/>
					<path d="M458.849,382.355l14.094-2.961l-3.688,5.086C469.255,384.48,469.083,381.215,458.849,382.355"/>
					<path d="M458.849,382.355l0.125,0.586l12.57-2.656l-2.781,3.844l0.492,0.352l0.586-0.039c0-0.125-0.117-0.93-1.109-1.641
						c-0.969-0.695-2.711-1.289-5.969-1.289c-1.125,0-2.438,0.078-3.984,0.25L458.849,382.355l0.125,0.586L458.849,382.355
						l0.062,0.586c1.5-0.164,2.773-0.227,3.852-0.227c3.117,0,4.609,0.57,5.289,1.062l0.555,0.602l0.039,0.141l0.039-0.008h-0.039
						v0.008l0.039-0.008h-0.039l0.086,1.695l4.695-6.461l0.891-1.266l-15.586,3.289l0.18,1.172L458.849,382.355z"/>
					<path fill="#2FB457" d="M174.893,568.654c4.359-4.297,7.328-7.078,11.688-11.062c70.47-64.259,143.041-84.556,205.854-84.712
						c109.291-0.242,183.299,61.157,183.299,61.157l-3.556,3.852c0,0-66.414,88.524-181.587,99.61
						c-88.751,8.57-163.127-21.281-211.206-65.149L174.893,568.654z"/>
					<path fill="#E7E8E9" d="M174.893,568.654l3.352,3.391c4.312-4.266,7.211-6.945,11.539-10.922
						c69.657-63.47,140.845-83.274,202.667-83.478h0.633c53.579,0,98.548,15.039,130.126,30.126
						c15.781,7.508,28.211,15.047,36.664,20.672c4.219,2.812,7.453,5.148,9.617,6.773c1.078,0.82,1.898,1.438,2.438,1.867
						l0.758,0.625l3.048-3.672l-3.509-3.242l-3.555,3.867l-0.305,0.359l-0.703,0.914c-7.336,9.352-71.758,86.751-177.541,96.821
						c-10.117,0.969-20.055,1.438-29.758,1.438c-74.196,0-136.142-27.383-177.768-65.368l-0.188-0.164l-4.484-3.688L174.893,568.654
						l3.352,3.391L174.893,568.654l-3.031,3.68l4.492,3.703l3.031-3.688l-3.227,3.516c43.399,39.61,107.626,67.876,184.205,67.876
						c10.023,0,20.258-0.484,30.672-1.5c58.735-5.648,104.947-31.023,136.416-54.898c31.5-23.892,48.36-46.353,48.54-46.579
						l-3.813-2.875l3.508,3.234l3.563-3.852c0.883-0.969,1.336-2.25,1.25-3.555c-0.086-1.312-0.703-2.523-1.719-3.352
						c-0.438-0.328-74.915-62.196-185.698-62.259h-0.664c-63.829,0.141-137.751,20.891-209.057,85.97
						c-4.375,4-7.43,6.836-11.828,11.188c-0.961,0.945-1.477,2.258-1.414,3.609c0.07,1.328,0.703,2.602,1.742,3.461L174.893,568.654
						z"/>
					<path fill="#D1D3D4" d="M180.361,573.959c72.438-71.984,147.611-94.071,212.268-94.235h0.734
						c52.766,0,97.017,14.82,128.08,29.634c15.539,7.414,27.773,14.828,36.109,20.383c4.148,2.766,7.344,5.078,9.5,6.688
						c2.125,1.609,3.195,2.492,3.203,2.492c1.031,0.852,2.555,0.703,3.422-0.312c0.859-1.039,0.719-2.57-0.32-3.43
						c-0.227-0.156-72.625-60.29-179.994-60.313h-0.742c-65.759,0.117-142.431,22.789-215.69,95.642
						c-0.961,0.945-0.961,2.477-0.008,3.438C177.877,574.896,179.4,574.896,180.361,573.959"/>
					<path fill="#D1D3D4" d="M89.415,358.355C90.923,210.252,211.463,90.642,359.902,90.657c74.712,0,142.291,30.266,191.275,79.212
						c48.954,48.977,79.22,116.556,79.22,191.26c0,74.728-30.266,142.307-79.22,191.283
						c-48.984,48.946-116.563,79.212-191.275,79.228c-137.095,0.008-250.401-102.056-268.097-234.284
						c-0.422-3.273-3.43-5.562-6.688-5.125c-3.266,0.438-5.562,3.438-5.117,6.695c18.453,138.134,136.751,244.627,279.901,244.635
						c155.979,0,282.425-126.454,282.425-282.433c0-155.963-126.446-282.41-282.425-282.41
						c-154.994,0-280.839,124.869-282.409,279.519c-0.039,3.289,2.609,5.984,5.906,6.023
						C86.681,364.301,89.376,361.652,89.415,358.355"/>
					<path fill="#E2E3E4" d="M83.556,358.863c0.016-75.696,30.68-144.189,80.29-193.799C213.448,115.47,281.94,84.798,357.621,84.79
						c75.704,0.008,144.213,30.68,193.799,80.274c49.603,49.61,80.274,118.103,80.29,193.799
						c-0.016,75.704-30.688,144.205-80.29,193.814c-49.586,49.603-118.095,80.267-193.799,80.267
						c-137.587,0-251.511-101.431-271.081-233.549c-0.211-1.312-1.422-2.219-2.711-2.016c-1.312,0.195-2.203,1.398-2.016,2.711
						c19.922,134.439,135.83,237.627,275.808,237.627c154.01,0,278.854-124.837,278.854-278.854
						c0-154.01-124.845-278.831-278.854-278.831c-153.986,0-278.831,124.821-278.831,278.831c0,1.32,1.062,2.391,2.391,2.391
						C82.493,361.254,83.556,360.184,83.556,358.863"/>
					<path d="M138.431,109.595l20.383,21.571c6.453,6.828,8.883,15.367,2.492,21.414c-6.266,5.914-14.375,2.711-20.25-3.492
						l-20.969-22.18l3.141-2.984l19.797,20.945c6.828,7.227,11.797,6.297,14.61,3.633c2.891-2.711,4.352-7.711-2.493-14.922
						l-19.883-21L138.431,109.595z"/>
					<path d="M138.431,109.595l-0.188,0.156l20.399,21.579c3.797,4.008,6.172,8.617,6.172,12.898c0,2.953-1.117,5.75-3.656,8.18
						c-2.305,2.156-4.797,3.062-7.368,3.062c-4.344,0.016-8.883-2.672-12.547-6.539l-20.82-22.023l2.805-2.648l19.609,20.781
						c3.93,4.148,7.297,5.672,10.023,5.672c2.031,0,3.703-0.859,4.93-2.039c1.414-1.312,2.492-3.18,2.492-5.547
						c0-2.633-1.336-5.875-4.969-9.703l-19.719-20.844l2.984-2.812L138.431,109.595l-0.188,0.156L138.431,109.595l-0.172-0.188
						l-3.172,2.984l-0.164,0.172l20.039,21.196c3.579,3.758,4.86,6.906,4.86,9.367c-0.016,2.219-1.016,3.953-2.352,5.195
						c-1.172,1.109-2.719,1.906-4.61,1.906c-2.539,0-5.773-1.43-9.672-5.523l-19.953-21.118l-3.32,3.133l-0.164,0.172l21.133,22.367
						c3.719,3.93,8.367,6.68,12.906,6.688c2.672,0,5.321-0.969,7.672-3.195c2.648-2.5,3.828-5.461,3.82-8.523
						c0-4.461-2.453-9.148-6.297-13.219l-20.547-21.766l-0.18,0.164L138.431,109.595z"/>
					<polygon points="177.26,136.978 173.682,139.923 169.385,134.72 172.947,131.775 					"/>
					<polygon points="177.26,136.978 177.119,136.798 173.713,139.603 169.721,134.744 172.924,132.111 177.08,137.119 
						177.26,136.978 177.119,136.798 177.26,136.978 177.439,136.822 173.135,131.611 172.971,131.439 169.244,134.525 
						169.049,134.681 173.494,140.08 173.643,140.259 177.416,137.173 177.596,137.001 177.439,136.822 					"/>
					<path d="M180.729,94.11c-4.266-5.656-8.906-5.117-11.883-3.039c-2.203,1.578-5.336,5.109-1.336,10.781
						c2.25,3.18,4.531,3.117,6.453,2.578l9.18-2.836c4.195-1.242,8.828-0.125,13,5.82c6.243,8.859,2.195,15.367-2.281,18.516
						c-4.844,3.414-8.195,2.688-10.438,1.992c-4.258-1.305-6.875-4.117-9.359-7.594l3.336-2.352
						c4.766,6.758,10.039,6.016,13.383,3.664c2.547-1.797,6.188-5.766,2.398-11.141c-2.75-3.906-4.906-4.258-10.242-2.68
						l-6.602,2.008c-2.117,0.641-7.18,1.633-11.789-4.867c-4.109-5.844-5.469-13.461,0.859-17.922
						c9.148-6.469,15.578,0.711,18.625,4.742L180.729,94.11z"/>
					<path d="M180.729,94.11l0.195-0.156c-2.539-3.336-5.234-4.586-7.664-4.57c-1.711,0-3.281,0.609-4.539,1.492
						c-1.469,1.055-3.367,2.961-3.367,5.805c0,1.531,0.539,3.305,1.961,5.305c1.586,2.258,3.258,2.977,4.82,2.977l1.891-0.312
						l9.188-2.836c0.953-0.281,1.938-0.438,2.938-0.438c3.234,0,6.625,1.664,9.781,6.172c2.289,3.234,3.172,6.133,3.172,8.648
						c0,4.312-2.602,7.563-5.391,9.547c-2.773,1.953-5.047,2.523-6.875,2.523c-1.312,0-2.414-0.297-3.336-0.578
						c-4.188-1.273-6.773-4.031-9.242-7.508l-0.195,0.148l0.148,0.188l3.32-2.344l-0.133-0.195l-0.195,0.125
						c2.805,4.016,5.859,5.469,8.586,5.453c1.93,0,3.695-0.727,5.125-1.727c1.789-1.258,4.125-3.578,4.141-6.758
						c0-1.43-0.484-3.016-1.68-4.703c-1.781-2.547-3.398-3.688-5.758-3.672c-1.312,0-2.836,0.344-4.742,0.898l-6.602,2
						c-0.703,0.219-1.719,0.453-2.922,0.453c-2.398,0-5.57-0.961-8.594-5.234c-2.086-2.961-3.453-6.367-3.453-9.562
						c0-3.039,1.227-5.883,4.25-8.039c2.594-1.812,4.953-2.523,7.055-2.523c5.219-0.016,9.078,4.383,11.242,7.258l0.18-0.164
						l-0.141-0.195l-3.305,2.312L180.729,94.11l0.195-0.156L180.729,94.11l0.125,0.18l3.312-2.297l0.211-0.148l-0.148-0.203
						c-2.195-2.883-6.102-7.438-11.617-7.438c-2.203,0-4.672,0.742-7.344,2.625c-3.141,2.234-4.445,5.25-4.445,8.422
						c0,3.336,1.422,6.828,3.555,9.836c3.07,4.383,6.43,5.453,8.977,5.438c1.273,0,2.336-0.258,3.062-0.477l6.594-2
						c1.914-0.562,3.375-0.867,4.609-0.867c2.195,0.008,3.609,0.961,5.367,3.461c1.164,1.625,1.586,3.102,1.586,4.43
						c0.016,2.914-2.203,5.148-3.93,6.375c-1.359,0.953-3.039,1.641-4.852,1.641c-2.562-0.008-5.43-1.336-8.195-5.258l-0.141-0.188
						l-3.516,2.492l-0.211,0.125l0.148,0.211c2.477,3.493,5.148,6.36,9.484,7.672c0.93,0.297,2.094,0.609,3.477,0.609
						c1.938,0,4.312-0.609,7.164-2.625c2.867-2.008,5.586-5.415,5.586-9.93c0-2.633-0.93-5.617-3.258-8.93
						c-3.219-4.594-6.766-6.367-10.18-6.367c-1.055,0-2.078,0.164-3.078,0.461l-9.172,2.836l-1.766,0.266
						c-1.406,0-2.883-0.57-4.43-2.75c-1.375-1.945-1.883-3.625-1.883-5.031c0-2.609,1.75-4.398,3.172-5.414
						c1.195-0.828,2.656-1.414,4.266-1.414c2.266,0.016,4.805,1.125,7.266,4.398l0.133,0.172l0.195-0.133L180.729,94.11z"/>
					<polygon points="210.463,113.681 206.51,116.11 202.971,110.337 206.932,107.923 					"/>
					<polygon points="210.463,113.681 210.346,113.485 206.596,115.774 203.315,110.407 206.854,108.243 210.26,113.79 
						210.463,113.681 210.346,113.485 210.463,113.681 210.667,113.556 207.127,107.79 207.002,107.595 202.854,110.134 
						202.659,110.251 206.323,116.243 206.432,116.431 210.588,113.892 210.792,113.759 210.667,113.556 					"/>
					<path d="M228.432,87.212l1.312,2.922c2.289,4.969,4.75,6.039,7.477,4.805c3.656-1.672,3.242-5.258,1.414-9.32L224.713,54.86
						l3.938-1.773l13.758,30.407c4.415,9.727,1.133,14.383-2.797,16.172c-6.789,3.078-11.242-2.75-12.992-6.648l-1.883-4.125
						L228.432,87.212z"/>
					<path d="M228.432,87.212l-0.203,0.109l1.312,2.906c1.711,3.773,3.602,5.414,5.695,5.414l2.07-0.492
						c2.078-0.938,2.938-2.531,2.922-4.43c0-1.555-0.539-3.336-1.375-5.188l-13.82-30.555l3.508-1.586l13.648,30.196
						c1.492,3.281,2.102,5.969,2.102,8.133c-0.008,4.25-2.25,6.555-4.789,7.742c-1.305,0.578-2.5,0.828-3.617,0.828
						c-4.547,0.023-7.656-4.273-9.055-7.375l-1.773-3.891l3.484-1.586L228.432,87.212l-0.203,0.109L228.432,87.212l-0.086-0.219
						l-3.703,1.68l-0.219,0.102l1.977,4.344c1.422,3.156,4.617,7.633,9.484,7.648c1.18,0,2.453-0.273,3.812-0.883
						c2.664-1.219,5.078-3.742,5.062-8.164c0-2.258-0.617-5-2.125-8.328l-13.859-30.633l-4.156,1.883l-0.219,0.102l14.016,30.985
						c0.812,1.82,1.344,3.539,1.344,4.992c-0.008,1.758-0.719,3.109-2.625,4l-1.898,0.453c-1.805,0-3.562-1.414-5.273-5.141
						l-1.312-2.906l-0.102-0.219l-0.203,0.086L228.432,87.212z"/>
					<path d="M262.542,40.649l9.641,28.062c3.047,8.906,1.734,17.688-6.578,20.547c-8.133,2.797-14.211-3.469-16.984-11.54
						l-9.922-28.883l4.094-1.414l9.352,27.258c3.25,9.415,8.125,10.602,11.812,9.368c3.758-1.305,7.109-5.227,3.891-14.625
						l-9.391-27.383L262.542,40.649z"/>
					<path d="M262.542,40.649l-0.234,0.062l9.641,28.086c0.977,2.805,1.5,5.594,1.5,8.188c-0.016,5.563-2.367,10.125-7.914,12.047
						c-1.328,0.461-2.586,0.664-3.781,0.664c-6.039,0.008-10.609-5.359-12.898-12.055l-9.852-28.656l3.641-1.25l9.266,27.023
						c2.602,7.524,6.312,9.93,9.664,9.93l2.461-0.422c2.766-0.945,5.359-3.344,5.352-8.149c0-1.867-0.398-4.109-1.305-6.789
						l-9.312-27.133l3.852-1.328L262.542,40.649l-0.234,0.062L262.542,40.649l-0.078-0.234l-4.086,1.398l-0.234,0.086l9.484,27.594
						c0.914,2.625,1.273,4.82,1.273,6.625c0,4.618-2.398,6.774-5.016,7.704l-2.312,0.383c-3.094,0-6.617-2.164-9.203-9.602
						l-9.422-27.477l-4.328,1.477l-0.219,0.086l9.993,29.102c2.328,6.774,7,12.375,13.359,12.383c1.242,0,2.555-0.219,3.914-0.68
						c5.781-1.977,8.258-6.836,8.25-12.508c0-2.656-0.531-5.484-1.508-8.336l-9.711-28.312l-0.234,0.078L262.542,40.649z"/>
					<path d="M294.417,46.516c-1.805-6.828-6.305-8.086-9.836-7.258c-2.641,0.602-6.875,2.688-5.328,9.453
						c0.891,3.773,3.047,4.609,5.016,4.805l9.579,0.852c4.344,0.438,8.203,3.188,9.844,10.281
						c2.438,10.555-3.766,15.063-9.094,16.29c-5.782,1.336-8.618-0.602-10.415-2.094c-3.453-2.805-4.828-6.398-5.805-10.578
						l3.969-0.883c1.875,8.039,7.008,9.328,11.008,8.414c3.047-0.703,7.906-3.016,6.438-9.391c-1.078-4.664-2.945-5.797-8.477-6.352
						l-6.86-0.625c-2.211-0.219-7.281-1.211-9.094-8.969c-1.609-6.93-0.023-14.492,7.531-16.266
						c10.915-2.516,14.157,6.555,15.485,11.422L294.417,46.516z"/>
					<path d="M294.417,46.516l0.234-0.047c-1.5-5.734-4.961-7.688-8.165-7.68l-1.961,0.234c-2.281,0.508-5.852,2.18-5.852,6.977
						c0,0.812,0.117,1.734,0.367,2.773c0.883,3.852,3.172,4.805,5.211,4.969l9.571,0.859c4.258,0.438,7.992,3.086,9.625,10.094
						c0.367,1.609,0.539,3.086,0.539,4.414c0,7.266-5,10.563-9.438,11.594c-1.352,0.305-2.516,0.438-3.57,0.438
						c-3.375,0-5.282-1.359-6.649-2.477c-3.398-2.766-4.742-6.281-5.719-10.438l-0.234,0.039l0.047,0.25l3.977-0.906l-0.055-0.227
						l-0.234,0.039c1.547,6.711,5.438,8.883,9.047,8.867l2.258-0.258c2.688-0.609,6.883-2.516,6.883-7.398l-0.273-2.273
						c-1.055-4.734-3.148-6.031-8.695-6.539l-6.852-0.625c-2.18-0.234-7.086-1.141-8.891-8.789c-0.359-1.57-0.562-3.18-0.562-4.734
						c0.031-5.242,2.234-9.906,7.93-11.243c1.273-0.281,2.438-0.43,3.508-0.43c7.899-0.008,10.508,7.391,11.68,11.672l0.234-0.055
						l-0.055-0.25l-3.969,0.914L294.417,46.516l0.234-0.047L294.417,46.516l0.055,0.25l3.953-0.93l0.25-0.047l-0.078-0.25
						c-1.148-4.281-3.852-12-12.133-12c-1.102,0-2.305,0.125-3.617,0.438c-5.961,1.375-8.312,6.336-8.289,11.696
						c0,1.594,0.203,3.25,0.57,4.836c1.82,7.883,7.047,8.961,9.297,9.156l6.868,0.633c5.523,0.586,7.156,1.555,8.281,6.164
						l0.258,2.172c0,4.539-3.898,6.32-6.531,6.93l-2.141,0.242c-3.415-0.008-7.04-1.93-8.579-8.484l-0.047-0.234l-4.211,0.961
						l-0.234,0.055l0.062,0.227c0.969,4.188,2.383,7.852,5.883,10.695c1.375,1.141,3.445,2.618,6.946,2.602
						c1.094,0,2.297-0.133,3.672-0.453c4.57-1.039,9.828-4.532,9.828-12.063c0-1.375-0.188-2.875-0.555-4.516
						c-1.648-7.148-5.609-10.031-10.07-10.469l-9.563-0.859c-1.93-0.211-3.914-0.922-4.805-4.594c-0.234-1-0.32-1.898-0.32-2.672
						c0-4.492,3.258-6,5.461-6.508l1.859-0.219c3,0.016,6.219,1.734,7.704,7.305l0.047,0.234l0.234-0.047L294.417,46.516z"/>
					<polygon points="301.113,31.438 326.878,27.914 327.613,33.352 316.902,34.82 322.363,74.727 318.066,75.297 312.605,35.398 
						301.871,36.875 					"/>
					<polygon points="301.113,31.438 301.152,31.672 326.683,28.188 327.355,33.148 316.878,34.578 316.628,34.602 322.089,74.524 
						318.277,75.032 312.792,35.133 302.066,36.602 301.347,31.398 301.113,31.438 301.152,31.672 301.113,31.438 300.878,31.461 
						301.621,36.899 301.644,37.133 312.394,35.665 317.871,75.563 322.386,74.961 322.621,74.93 317.175,35.016 327.652,33.586 
						327.886,33.555 327.128,27.891 327.082,27.648 300.855,31.227 300.878,31.461 					"/>
					<polygon points="342.215,72.821 337.91,73.133 334.793,27.477 339.121,27.188 					"/>
					<polygon points="342.215,72.821 342.215,72.586 338.129,72.875 335.059,27.695 338.895,27.438 341.996,72.836 342.215,72.821 
						342.215,72.586 342.215,72.821 342.465,72.813 339.34,26.93 334.785,27.242 334.551,27.25 337.676,73.383 342.246,73.055 
						342.488,73.047 342.465,72.813 					"/>
					<path d="M372.41,40.375c-1.141-8.063-5.82-9.54-8.906-9.547c-5.789-0.07-10.516,6.032-10.602,18.071
						c-0.094,10.773,2.516,19.086,10.461,19.148c2.805,0.008,7.672-1.875,9.242-12.484l4.188,0.008
						c-1.922,17.266-11.727,17.969-14.141,17.945c-7.281-0.062-14.344-6.875-14.234-24.461c0.141-14.079,5.844-23.797,15.141-23.75
						c8.25,0.094,12.469,7.445,13.039,15.11L372.41,40.375z"/>
					<path d="M372.41,40.375l0.234-0.023c-1.133-8.165-5.984-9.774-9.125-9.774h-0.094c-5.953,0.016-10.68,6.297-10.758,18.321
						v0.523c-0.016,10.523,2.664,18.781,10.695,18.859h0.039c2.93,0.008,7.891-2.047,9.438-12.695l-0.234-0.023v0.234l4.188,0.023
						v-0.25l-0.234-0.023c-1.922,16.953-11.328,17.688-13.82,17.734h-0.086c-7.039-0.062-13.969-6.562-13.984-23.758v-0.453
						c0.148-14.016,5.758-23.54,14.797-23.516h0.094c8.07,0.062,12.219,7.266,12.797,14.883l0.242-0.023v-0.25l-4.188-0.031V40.375
						l0.234-0.023L372.41,40.375v0.234l4.188,0.055h0.258l-0.023-0.273c-0.555-7.711-4.852-15.227-13.273-15.321h-0.094
						c-9.461,0.016-15.156,9.906-15.266,23.985l-0.016,0.469c-0.008,17.289,7.086,24.18,14.453,24.234h0.102
						c2.609,0.023,12.406-1,14.289-18.156l0.023-0.266l-4.445-0.023h-0.211l-0.039,0.211c-1.555,10.5-6.25,12.258-8.953,12.273
						h-0.039c-7.594-0.023-10.211-7.867-10.227-18.375l0.016-0.523c0.086-11.953,4.734-17.86,10.273-17.844h0.078
						c3.008,0.047,7.516,1.406,8.672,9.344l0.008,0.211h0.227V40.375z"/>
					<polygon points="405.528,75.586 382.043,72.883 387.208,27.422 410.372,30.07 409.762,35.524 390.887,33.367 389.301,47.313 
						406.715,49.29 406.106,54.727 388.684,52.758 386.958,67.954 406.145,70.125 					"/>
					<polygon points="405.528,75.586 405.559,75.352 382.301,72.68 387.411,27.695 410.106,30.281 409.551,35.25 390.684,33.109 
						389.028,47.516 406.45,49.5 405.895,54.469 388.458,52.485 386.7,68.18 405.879,70.344 405.286,75.563 405.528,75.586 
						405.559,75.352 405.528,75.586 405.762,75.61 406.387,70.165 406.411,69.915 387.231,67.75 388.895,53.016 406.309,54.993 
						406.958,49.321 406.973,49.071 389.567,47.102 391.098,33.625 409.965,35.782 410.614,30.094 410.637,29.859 386.997,27.164 
						381.778,73.094 405.739,75.844 405.762,75.61 					"/>
					<path d="M440.911,78.149l7.992,2.516c5.367,1.695,10.766-3.219,14.227-14.243c3.461-10.977,1.672-17.633-3.93-19.398
						l-7.719-2.445L440.911,78.149l-4.055-1.508l12.102-38.391l12.383,3.891c7.953,2.508,10.117,12.68,6.164,25.281
						c-3.102,9.789-10.047,21.469-20.094,18.313L435.2,81.892l1.656-5.25L440.911,78.149z"/>
					<path d="M440.911,78.149l-0.07,0.219l8,2.532l2.141,0.336c4.836-0.031,9.344-5.118,12.383-14.727
						c1.203-3.82,1.773-7.133,1.773-9.906c0.016-5.227-2.086-8.633-5.875-9.797l-7.695-2.453l-0.234-0.07l-10.562,33.555
						l-3.625-1.336l11.984-37.953l12.133,3.828c5.242,1.648,7.914,6.672,7.93,13.68c0,3.375-0.633,7.203-1.922,11.281
						c-2.727,8.672-8.508,18.727-16.547,18.688c-1.039,0-2.117-0.172-3.234-0.523l-11.992-3.773l1.508-4.79l3.828,1.43
						L440.911,78.149l0.094-0.227l-4.062-1.508l-0.234-0.086l-1.742,5.485l-0.062,0.227l12.445,3.922
						c1.164,0.359,2.289,0.547,3.375,0.547c8.477-0.047,14.25-10.329,17-19.024c1.312-4.125,1.945-7.992,1.945-11.43
						c0.016-7.109-2.766-12.422-8.25-14.148l-12.602-3.953L436.56,76.782l4.273,1.586l0.242,0.078l10.578-33.562l7.469,2.367
						c3.555,1.125,5.523,4.227,5.539,9.352c0,2.711-0.57,5.969-1.766,9.758c-3,9.562-7.453,14.415-11.914,14.391l-2-0.312
						l-7.992-2.524L440.911,78.149z"/>
					<polygon points="487.356,101.446 465.7,91.993 483.997,50.032 505.381,59.375 503.17,64.399 485.778,56.797 480.153,69.641 
						496.225,76.641 494.045,81.688 477.974,74.68 471.864,88.712 489.553,96.415 					"/>
					<polygon points="487.356,101.446 487.458,101.22 466.013,91.845 484.13,50.344 505.068,59.493 503.053,64.079 485.646,56.485 
						479.841,69.766 495.912,76.774 493.912,81.376 477.849,74.368 471.552,88.829 489.24,96.548 487.138,101.345 487.356,101.446 
						487.458,101.22 487.356,101.446 487.583,101.548 489.771,96.524 489.865,96.306 472.185,88.579 478.091,74.993 494.17,82.017 
						496.451,76.743 496.537,76.524 480.481,69.516 485.896,57.11 503.295,64.711 505.6,59.469 505.686,59.25 483.88,49.735 
						465.388,92.11 487.489,101.751 487.583,101.548 					"/>
					<path d="M508.428,84.829l7.484,4.242c3.398,1.898,6.68,1.414,9.727-3.969c2.836-5.047,1.336-8.024-1.766-9.766l-7.656-4.32
						L508.428,84.829l-2.602,4.602l-9.477,16.828l-3.758-2.102l22.461-39.875l12.539,7.094c5.172,2.898,5.586,9.415,1.945,15.852
						c-3.125,5.586-8.875,10.594-14.93,7.18l-8.781-4.977L508.428,84.829z"/>
					<path d="M508.428,84.829l-0.133,0.203l7.5,4.234c1.172,0.664,2.352,1.055,3.516,1.055c2.312,0,4.508-1.508,6.531-5.102
						c1.078-1.898,1.547-3.516,1.547-4.922c0-2.375-1.391-4.047-3.383-5.165l-7.664-4.328l-0.227-0.125l-7.914,14.032l-2.578,4.609
						l-9.359,16.609l-3.359-1.867l22.242-39.454l12.328,6.977c2.859,1.602,4.211,4.312,4.219,7.539c0,2.469-0.805,5.235-2.352,7.985
						c-2.414,4.289-6.352,8.18-10.688,8.164c-1.289,0-2.602-0.32-3.938-1.078l-8.562-4.852l2.477-4.398L508.428,84.829l-0.133,0.203
						L508.428,84.829l-0.227-0.117l-2.578,4.609l-0.117,0.211l8.977,5.086c1.406,0.781,2.812,1.141,4.172,1.141
						c4.633-0.016,8.656-4.062,11.094-8.406c1.602-2.82,2.414-5.648,2.414-8.227c0.016-3.352-1.445-6.273-4.438-7.961l-12.758-7.195
						l-22.711,40.274l3.984,2.219l0.211,0.117l9.586-17.023l2.594-4.609l7.672-13.618l7.453,4.211
						c1.922,1.102,3.148,2.594,3.148,4.758c0,1.297-0.422,2.844-1.477,4.703c-1.992,3.516-4.039,4.836-6.117,4.836
						c-1.062,0-2.156-0.344-3.266-0.984l-7.508-4.227l-0.203-0.125l-0.133,0.211L508.428,84.829z"/>
					<polygon points="529.982,104.501 538.209,110.11 545.686,90.837 545.615,90.782 529.982,104.501 525.779,108.267 
						515.514,117.368 511.842,114.845 547.623,83.923 551.654,86.673 535.412,130.955 531.498,128.283 536.389,115.509 
						525.779,108.267 					"/>
					<polygon points="529.982,104.501 529.85,104.688 538.318,110.485 545.959,90.759 545.764,90.603 545.615,90.462 
						529.842,104.329 525.623,108.087 515.498,117.071 512.225,114.821 547.631,84.22 551.389,86.759 535.287,130.58 
						531.787,128.189 536.693,115.415 526.17,108.228 530.146,104.688 529.982,104.501 529.85,104.688 529.982,104.501 
						529.826,104.329 525.623,108.087 525.404,108.282 536.107,115.603 531.217,128.369 535.279,131.15 535.521,131.314 
						551.959,86.579 547.748,83.712 547.592,83.626 511.436,114.86 515.373,117.556 515.537,117.665 525.951,108.454 
						530.146,104.688 545.779,90.97 545.615,90.782 545.451,90.97 545.514,91.017 545.686,90.837 545.467,90.743 538.084,109.751 
						529.975,104.204 529.826,104.329 					"/>
					<path d="M558.131,117.485l7.648,6.5c2.398,2.039,5.695,3.336,10.071-1.774c4.594-5.398,2.211-8.195,0.586-9.57l-8.235-7.008
						L558.131,117.485l-3.438,4.008l-12.703,14.938l-3.297-2.805L568.35,98.79l11.274,9.633c3.984,3.391,6.312,8.789,0.047,16.18
						c-4.407,5.148-7.837,5.484-10.517,5.445c0.688,2,1.336,4.078-2.648,9.031l-5.18,6.5c-1.617,1.977-2.062,2.844-1.742,4.531
						l-0.672,0.781l-4.031-3.453c1.359-2.539,5.734-7.914,6.859-9.227c2.438-2.859,4.883-6.555,0.938-9.922l-7.984-6.797
						L558.131,117.485z"/>
					<path d="M558.131,117.485l-0.141,0.164l7.625,6.508c1.172,1.016,2.602,1.867,4.273,1.867c1.805,0,3.852-0.992,6.142-3.672
						c2-2.352,2.727-4.266,2.727-5.805c0-2-1.227-3.297-2.164-4.086l-8.415-7.156l-10.227,12.008l-3.445,4.023l-12.547,14.774
						l-2.93-2.508l29.344-34.477l11.087,9.492c2.195,1.844,3.844,4.281,3.844,7.305c0,2.438-1.07,5.273-3.828,8.532
						c-4.228,4.93-7.446,5.344-10.048,5.359h-0.273h-0.344l0.109,0.32l0.523,2.367c0,1.453-0.656,3.359-3.133,6.422l-5.164,6.516
						c-1.305,1.555-1.898,2.492-1.898,3.734l0.102,0.977l0.234-0.039l-0.18-0.156l-0.516,0.586l-3.875-3.289l-0.133,0.188
						l0.203,0.102c1.336-2.492,5.727-7.875,6.844-9.18c1.5-1.773,3.055-3.891,3.07-6.141c0-1.375-0.625-2.797-2.156-4.109
						l-7.812-6.641l3.281-3.844L558.131,117.485l-0.141,0.164L558.131,117.485l-0.18-0.172l-3.445,4.023l-0.148,0.18l8.172,6.961
						c1.461,1.258,1.984,2.492,1.984,3.742c0.023,2.016-1.445,4.07-2.961,5.836c-1.141,1.32-5.508,6.68-6.883,9.266l-0.094,0.164
						l4.195,3.57l0.18,0.156l0.82-0.945l0.07-0.094l-0.023-0.109l-0.102-0.891c0-1.047,0.5-1.867,1.805-3.43l5.18-6.516
						c2.477-3.109,3.203-5.117,3.203-6.727c0-0.977-0.273-1.781-0.531-2.531l-0.219,0.078l-0.016,0.25h0.289
						c2.672,0.008,6.148-0.523,10.415-5.531c2.805-3.313,3.938-6.274,3.938-8.844c0-3.203-1.766-5.773-4.008-7.68l-11.446-9.789
						l-29.969,35.204l3.477,2.969l0.18,0.148l12.867-15.125l3.43-4.023l9.93-11.648l8.04,6.844c0.906,0.773,1.992,1.938,1.992,3.727
						c0,1.391-0.641,3.188-2.618,5.492c-2.234,2.625-4.141,3.5-5.766,3.5c-1.5,0-2.828-0.766-3.969-1.734l-7.812-6.672l-0.156,0.18
						L558.131,117.485z"/>
					<polygon points="592.702,120.001 610.749,138.72 606.804,142.517 599.288,134.736 570.295,162.673 567.295,159.564 
						596.288,131.587 588.765,123.806 					"/>
					<polygon points="592.702,120.001 592.53,120.157 610.413,138.72 606.804,142.166 599.288,134.384 570.295,162.337 
						567.631,159.572 596.616,131.603 589.085,123.806 592.866,120.173 592.702,120.001 592.53,120.157 592.702,120.001 
						592.538,119.821 588.593,123.634 588.429,123.806 595.952,131.587 566.959,159.564 570.123,162.83 570.295,163.009 
						599.28,135.056 606.796,142.853 610.921,138.892 611.093,138.728 592.71,119.649 592.538,119.821 					"/>
					<path d="M596.452,194.064l21.383-16.516c1.047-0.82,5.688-4.289,9.07-6.875l-0.047-0.102l-35.914,16.375l-2.617-3.406
						l24.836-30.579l-0.055-0.086c-3.32,2.594-7.859,6.188-8.93,7.023l-21.375,16.516l-2.555-3.32l36.203-27.969l3.789,4.922
						l-25.016,30.875l0.055,0.062l36.172-16.43l3.773,4.875l-36.219,27.961L596.452,194.064z"/>
					<path d="M596.452,194.064l0.148,0.188l21.391-16.508c1.039-0.82,5.672-4.297,9.07-6.891l0.172-0.133l-0.18-0.273l-0.125-0.172
						l-35.922,16.375l-2.383-3.109l24.836-30.563l-0.141-0.219l-0.148-0.234l-0.203,0.164c-3.32,2.586-7.859,6.195-8.922,7.023
						l-21.188,16.36l-2.281-2.938l35.828-27.665l3.531,4.578l-25.008,30.86l0.156,0.227l0.117,0.148l36.172-16.43l3.516,4.532
						l-35.836,27.672l-2.414-3.125L596.452,194.064l0.148,0.188L596.452,194.064l-0.188,0.148l2.555,3.32l0.148,0.195l36.586-28.258
						l-3.922-5.055l-0.102-0.156l-36.352,16.508l0.102,0.219l0.18-0.141l-0.039-0.07l-0.195,0.148l0.195,0.141l25.133-31.016
						l-3.914-5.062l-0.141-0.195l-36.586,28.258l2.711,3.5l0.141,0.195l21.562-16.649c1.078-0.844,5.602-4.43,8.93-7.023
						l-0.148-0.195l-0.203,0.133l0.055,0.086l0.203-0.133l-0.18-0.148l-24.977,30.727l2.742,3.547l0.117,0.156l36.078-16.445
						l-0.086-0.227l-0.195,0.141l0.055,0.086l0.188-0.125l-0.141-0.188c-3.391,2.586-8.023,6.062-9.07,6.867l-21.57,16.68
						l0.141,0.18L596.452,194.064z"/>
					<polygon points="614.796,223.229 602.569,203.01 641.702,179.314 653.804,199.275 649.101,202.119 639.28,185.869 
						627.288,193.111 636.358,208.111 631.663,210.955 622.585,195.947 609.507,203.869 619.499,220.409 					"/>
					<polygon points="614.796,223.229 615.015,223.12 602.897,203.096 641.632,179.65 653.476,199.197 649.179,201.791 
						639.351,185.541 626.944,193.033 636.03,208.033 631.749,210.635 622.663,195.611 609.179,203.791 619.179,220.323 
						614.679,223.026 614.796,223.229 615.015,223.12 614.796,223.229 614.944,223.44 619.624,220.612 619.819,220.495 
						609.843,203.947 622.507,196.291 631.585,211.291 636.491,208.322 636.694,208.197 627.601,193.189 639.187,186.189 
						649.022,202.439 653.913,199.479 654.14,199.354 641.796,178.994 602.233,202.924 614.718,223.565 614.944,223.44 					"/>
					<polygon points="667.773,227.799 669.555,231.62 628.132,251.01 626.062,246.596 652.632,216.198 652.593,216.112 
						619.116,231.776 617.335,227.987 658.772,208.557 660.952,213.213 634.28,243.377 634.312,243.456 					"/>
					<polygon points="667.773,227.799 667.555,227.901 669.25,231.502 628.241,250.698 626.351,246.635 652.905,216.237 
						652.827,216.018 652.733,215.776 619.241,231.463 617.655,228.096 658.655,208.877 660.679,213.174 634.007,243.331 
						634.077,243.542 634.163,243.792 667.883,228.01 667.773,227.799 667.555,227.901 667.773,227.799 667.688,227.581 
						634.202,243.245 634.312,243.456 634.522,243.393 634.499,243.299 634.28,243.377 634.444,243.534 661.233,213.252 
						658.991,208.455 658.882,208.229 617.022,227.862 618.913,231.885 619.007,232.096 652.702,216.315 652.593,216.112 
						652.366,216.174 652.397,216.268 652.632,216.198 652.452,216.034 625.78,246.557 627.905,251.112 628.007,251.331 
						669.883,231.737 667.984,227.698 667.898,227.479 667.688,227.581 					"/>
					<polygon points="672.773,239.393 681.312,263.964 676.164,265.784 672.578,255.542 634.538,268.815 633.124,264.729 
						671.164,251.44 667.586,241.221 					"/>
					<polygon points="672.773,239.393 672.539,239.471 681.016,263.815 676.305,265.479 672.727,255.229 634.694,268.503 
						633.437,264.87 671.461,251.588 667.898,241.362 672.852,239.627 672.773,239.393 672.539,239.471 672.773,239.393 
						672.688,239.174 667.5,240.987 667.289,241.065 670.859,251.292 632.812,264.573 634.319,268.894 634.413,269.112 
						672.438,255.839 676.008,266.081 681.406,264.198 681.633,264.112 672.906,239.096 672.688,239.174 					"/>
					<path d="M44.165,459.856l33.368-11.109l2.555,7.664c1.875,5.594-2.477,10.93-13.407,14.578
						c-10.938,3.656-18.094,2.156-19.867-3.172L44.165,459.856l-1.031-4.227l-5.359,1.812l4.047,12.125
						c3.344,9.992,16.891,8.781,26.641,5.547c12.508-4.188,19.469-11.914,16.829-19.836l-4.102-12.312L43.133,455.63L44.165,459.856
						z"/>
					<path d="M44.165,459.856l0.078,0.234l33.149-11.039l2.477,7.438l0.406,2.414c0.008,4.477-4.391,8.773-13.672,11.859
						c-4.047,1.352-7.578,2-10.5,2c-4.891-0.016-7.977-1.805-9.07-5.023l-2.633-7.945l-1.031-4.211l-0.047-0.25l-5.625,1.898
						l-0.219,0.07l4.117,12.328c2,6,7.633,8.047,13.836,8.039c4.359,0,9.07-1,13.109-2.336c10.774-3.594,17.532-9.828,17.547-16.688
						c0-1.141-0.188-2.289-0.57-3.445l-4.188-12.531l-38.477,12.805l1.078,4.453l0.062,0.25l0.25-0.086L44.165,459.856l0.234-0.062
						l-0.977-4l37.61-12.531l4.023,12.094c0.383,1.109,0.547,2.195,0.547,3.289c0.016,6.5-6.523,12.664-17.204,16.234
						c-4.023,1.336-8.672,2.305-12.969,2.305c-6.141,0-11.461-1.961-13.383-7.703l-3.977-11.875l4.898-1.664l0.961,3.984
						l2.656,7.969c1.156,3.453,4.523,5.352,9.516,5.336c2.984,0,6.555-0.656,10.656-2.016c9.321-3.109,13.977-7.469,13.993-12.312
						l-0.43-2.562l-2.555-7.664l-0.078-0.234L44.102,459.63L44.165,459.856l0.234-0.062L44.165,459.856z"/>
					<path d="M74.493,485.677l4.211,9.125c1.312,2.867,3.75,5.423,9.883,2.609c6.43-2.961,5.438-6.469,4.547-8.438l-4.508-9.797
						L74.493,485.677l-4.805,2.203l-17.829,8.203l-1.805-3.945l41.555-19.102l6.18,13.445c2.211,4.805,2.039,10.664-6.766,14.704
						c-6.117,2.836-9.391,1.672-11.812,0.531c-0.211,2.133-0.484,4.25-6.211,7.07l-7.415,3.703c-2.289,1.117-3.07,1.711-3.492,3.414
						l-0.93,0.43l-2.219-4.844c2.281-1.734,8.539-4.75,10.109-5.5c3.415-1.562,7.18-3.883,5.024-8.579l-4.391-9.531L74.493,485.677z
						"/>
					<path d="M74.493,485.677l-0.219,0.102l4.203,9.109c0.922,2.023,2.453,3.993,5.438,3.978c1.305,0,2.875-0.367,4.781-1.235
						c4.164-1.906,5.328-4.125,5.328-6.047c0-1.055-0.352-1.992-0.672-2.711l-4.617-10.008l-14.344,6.602l-4.805,2.195l-17.61,8.109
						l-1.594-3.516l41.11-18.898l6.07,13.227c0.719,1.531,1.18,3.18,1.18,4.82c-0.016,3.398-1.922,6.845-7.82,9.563
						c-2.797,1.312-5,1.75-6.758,1.75c-2.055,0-3.555-0.609-4.844-1.219l-0.312-0.141l-0.023,0.336
						c-0.242,2.102-0.406,4.039-6.086,6.891l-7.415,3.695c-2.297,1.102-3.188,1.797-3.625,3.555l0.234,0.07l-0.102-0.219
						l-0.711,0.32l-2.133-4.617l-0.203,0.102l0.141,0.18c2.242-1.695,8.516-4.727,10.07-5.461c2.711-1.25,5.782-2.992,5.79-6.203
						c0-0.82-0.203-1.719-0.664-2.696l-4.273-9.312l4.594-2.102L74.493,485.677l-0.219,0.102L74.493,485.677l-0.102-0.211
						l-4.805,2.195l-0.219,0.109l4.492,9.734c0.422,0.931,0.609,1.759,0.609,2.501c0.023,2.844-2.789,4.531-5.516,5.758
						c-1.57,0.758-7.812,3.766-10.148,5.539l-0.156,0.109l2.305,5.023l0.109,0.219l1.141-0.531l0.102-0.055l0.023-0.109
						c0.422-1.625,1.07-2.117,3.367-3.25l7.407-3.711c5.766-2.812,6.156-5.109,6.352-7.258l-0.242-0.023l-0.102,0.211
						c1.312,0.617,2.898,1.273,5.055,1.273c1.859,0,4.109-0.484,6.969-1.797c6-2.734,8.086-6.399,8.086-10.001
						c0-1.727-0.477-3.43-1.211-5.016l-6.281-13.664l-41.985,19.297l1.898,4.156l0.102,0.227l18.04-8.297l4.82-2.211l13.898-6.406
						l4.406,9.586c0.312,0.688,0.641,1.555,0.641,2.508c-0.008,1.695-0.984,3.727-5.047,5.602c-1.875,0.86-3.383,1.196-4.586,1.196
						c-2.734,0-4.102-1.728-5.008-3.688l-4.203-9.102l-0.102-0.211l-0.211,0.086L74.493,485.677z"/>
					<path d="M117.9,522.779l-25.469,15.273c-8.047,4.797-16.938,5.336-21.453-2.172c-4.415-7.375,0.453-14.633,7.789-19.016
						l26.18-15.703l2.219,3.727l-24.703,14.797c-8.523,5.109-8.711,10.172-6.711,13.484c2.039,3.406,6.578,5.875,15.102,0.781
						l24.829-14.867L117.9,522.779z"/>
					<path d="M117.9,522.779l-0.125-0.195L92.298,537.85c-3.727,2.219-7.617,3.523-11.141,3.523
						c-4.039-0.016-7.594-1.68-9.969-5.609c-1.141-1.922-1.648-3.805-1.648-5.633c-0.016-5.117,3.984-9.852,9.352-13.07
						l25.977-15.578l1.961,3.328l-24.5,14.664c-5.867,3.516-7.859,7.047-7.859,10.07c0,1.398,0.43,2.664,1.078,3.75
						c1.219,2.055,3.391,3.805,6.711,3.805c2.32,0,5.188-0.844,8.719-2.945l24.618-14.742l2.094,3.5L117.9,522.779l-0.125-0.195
						L117.9,522.779l0.203-0.109l-2.219-3.719l-0.125-0.195L90.728,533.74c-3.477,2.07-6.266,2.875-8.469,2.875
						c-3.148,0-5.133-1.617-6.297-3.578c-0.609-1.016-1.016-2.195-1.016-3.492c0-2.789,1.844-6.18,7.633-9.656l24.891-14.914
						l-2.336-3.938l-0.117-0.211l-26.383,15.828c-5.438,3.258-9.563,8.102-9.579,13.477c0,1.914,0.547,3.891,1.727,5.867
						c2.438,4.086,6.203,5.852,10.375,5.852c3.641-0.008,7.602-1.336,11.391-3.602l25.672-15.375l-0.117-0.203L117.9,522.779z"/>
					<path d="M112.845,551.975l8.516,11.156l-19.454,14.852l-1.688-2.25l4.07-4.406c-4.742,0.883-9.422-0.602-12.078-4.086
						c-3.328-4.344-2.664-8.219-1.844-10.922c2.281-7.93,8.438-12.766,12.289-15.719c8.852-6.773,21.688-10.625,28.024-2.32
						c3.656,4.75,3.812,12.961-3.781,19.922l-2.523-3.305c5.484-5.938,3.961-10.672,1.82-13.477
						c-3.5-4.555-11.555-4.359-21.11,2.938c-7.383,5.617-13.664,13.148-8.5,19.898c0.969,1.266,2.75,3.172,6.305,3.422
						c4.234,0.297,7.922-1.602,11.797-4.562l-6.047-7.953L112.845,551.975z"/>
					<path d="M112.845,551.975l-0.195,0.133l8.36,10.977l-19.047,14.547l-1.438-1.883l3.953-4.258l0.492-0.531l-0.719,0.133
						l-2.625,0.25c-3.719,0-7.117-1.484-9.227-4.234c-1.883-2.477-2.461-4.781-2.461-6.789c0-1.484,0.312-2.805,0.648-3.922
						c2.273-7.844,8.359-12.664,12.211-15.609c5.242-4.016,11.93-6.984,17.727-6.984c3.938,0,7.453,1.352,9.961,4.617
						c1.508,1.945,2.383,4.484,2.383,7.273c0,3.891-1.734,8.32-6.125,12.32l0.156,0.188l0.195-0.148l-2.547-3.32l-0.172,0.164
						l0.172,0.148c2.836-3.062,3.844-5.82,3.828-8.211c0-2.273-0.914-4.156-1.984-5.555c-1.57-2.055-4.023-3.156-7.055-3.156
						c-3.977,0-8.946,1.883-14.383,6.031c-5.531,4.227-10.484,9.477-10.5,14.836c0,1.836,0.586,3.664,1.938,5.414
						c1,1.289,2.844,3.258,6.484,3.516l0.867,0.031c3.961,0,7.453-1.875,11.086-4.648l0.195-0.148l-6.047-7.938l4.016-3.062
						L112.845,551.975l-0.195,0.133L112.845,551.975l-0.141-0.203l-4.203,3.211l-0.188,0.148l6.196,8.117l0.18-0.133l-0.141-0.188
						c-3.61,2.75-7,4.539-10.805,4.539l-0.844-0.023c-3.477-0.25-5.164-2.078-6.133-3.32c-1.281-1.688-1.828-3.406-1.844-5.133
						c-0.008-5.047,4.812-10.273,10.32-14.453c5.375-4.117,10.274-5.93,14.094-5.93c2.922,0,5.211,1.055,6.688,2.961
						c1.008,1.344,1.891,3.133,1.891,5.266c0,2.242-0.953,4.891-3.711,7.891l-0.148,0.141l2.664,3.484l0.156,0.203l0.195-0.18
						c4.461-4.086,6.297-8.633,6.297-12.68c0-2.898-0.938-5.547-2.492-7.555c-2.602-3.414-6.312-4.82-10.352-4.82
						c-5.969,0.016-12.704,3.023-18.008,7.086c-3.852,2.945-10.055,7.844-12.383,15.852c-0.352,1.156-0.656,2.516-0.656,4.062
						c0,2.102,0.602,4.531,2.555,7.07c2.203,2.898,5.758,4.422,9.594,4.422c0.891,0,1.797-0.07,2.719-0.234l-0.055-0.25
						l-0.164-0.156l-4.086,4.406l-0.133,0.148l1.82,2.398l0.125,0.18l19.836-15.133l-8.805-11.547l-0.18,0.148L112.845,551.975z"/>
					<polygon points="146.666,622.46 128.978,606.718 159.424,572.545 176.846,588.038 173.205,592.147 159.01,579.529 
						149.689,589.991 162.775,601.655 159.143,605.733 146.048,594.093 135.869,605.507 150.306,618.358 					"/>
					<polygon points="146.666,622.46 146.83,622.28 129.33,606.702 159.424,572.881 176.502,588.062 173.182,591.804 
						158.986,579.193 149.345,590.015 162.439,601.671 159.111,605.397 146.025,593.741 135.533,605.538 149.962,618.39 
						146.486,622.288 146.666,622.46 146.83,622.28 146.666,622.46 146.853,622.616 150.486,618.515 150.642,618.343 
						136.197,605.499 146.056,594.429 159.166,606.077 162.955,601.812 163.111,601.632 150.017,589.976 159.025,579.85 
						173.221,592.483 177.025,588.21 177.166,588.022 159.4,572.209 128.658,606.749 146.681,622.796 146.853,622.616 					"/>
					<polygon points="198.275,603.796 201.69,606.265 175.002,643.429 171.064,640.593 179.385,601.038 179.299,600.991 
						157.752,631.038 154.345,628.593 181.01,591.413 185.174,594.413 176.65,633.765 176.729,633.827 					"/>
					<polygon points="198.275,603.796 198.143,603.991 201.346,606.312 174.963,643.093 171.33,640.476 179.65,600.937 
						179.424,600.804 179.252,600.679 157.705,630.702 154.689,628.546 181.064,591.749 184.924,594.515 176.393,633.858 
						176.572,634.007 176.768,634.179 198.471,603.937 198.275,603.796 198.143,603.991 198.275,603.796 198.072,603.655 
						176.533,633.687 176.729,633.827 176.885,633.647 176.822,633.585 176.65,633.765 176.9,633.819 185.455,594.312 
						181.158,591.218 180.947,591.093 154.009,628.655 157.611,631.233 157.807,631.374 179.494,601.14 179.299,600.991 
						179.166,601.21 179.252,601.249 179.385,601.038 179.143,600.991 170.791,640.694 174.869,643.616 175.064,643.757 
						202.026,606.202 198.416,603.601 198.221,603.46 198.072,603.655 					"/>
					<polygon points="188.314,651.569 184.564,649.397 207.362,609.733 226.596,620.741 223.854,625.507 208.377,616.616 
						201.401,628.78 215.018,636.616 212.292,641.358 198.674,633.546 					"/>
					<polygon points="188.314,651.569 188.439,651.366 184.908,649.312 207.448,610.054 226.252,620.843 223.76,625.187 
						208.307,616.312 201.072,628.866 214.69,636.71 212.198,641.03 198.58,633.226 188.111,651.452 188.314,651.569 
						188.439,651.366 188.314,651.569 188.525,651.687 198.752,633.866 212.377,641.679 215.221,636.749 215.338,636.53 
						201.729,628.702 208.479,616.952 223.948,625.835 226.799,620.866 226.901,620.655 207.268,609.397 184.252,649.483 
						188.189,651.78 188.408,651.897 188.525,651.687 					"/>
					<path d="M225.268,665.874c-6.352-2.82-6.984-11.719-2.609-21.547c4.383-9.828,11.422-15.297,17.766-12.445
						c6.36,2.828,7.016,11.68,2.625,21.547C238.659,663.265,231.635,668.702,225.268,665.874l-2.219,5
						c10.93,4.892,20.055-6.625,24.079-15.656c4.008-9.016,6.461-23.492-4.485-28.336c-10.906-4.867-20.031,6.625-24.062,15.641
						c-4.008,9.031-6.445,23.484,4.469,28.352L225.268,665.874z"/>
					<path d="M225.268,665.874l0.102-0.219c-3.555-1.586-5.281-5.102-5.281-9.719c0-3.406,0.938-7.375,2.789-11.516
						c3.57-8.023,8.945-13.07,14.094-13.055c1.133,0,2.25,0.234,3.352,0.719c3.57,1.602,5.297,5.102,5.297,9.727
						c0,3.391-0.946,7.352-2.79,11.516c-3.586,8.047-8.93,13.062-14.109,13.055c-1.117,0-2.25-0.234-3.352-0.727l-0.219-0.094
						l-2.305,5.211l-0.109,0.211l0.219,0.109c1.836,0.82,3.609,1.18,5.32,1.18c8.766-0.023,15.68-9.383,19.063-16.969
						c1.875-4.211,3.422-9.609,3.422-14.695c0-5.844-2.07-11.32-8.016-13.945c-1.812-0.82-3.602-1.18-5.305-1.18
						c-8.758,0.023-15.688,9.375-19.078,16.938c-1.867,4.227-3.398,9.625-3.398,14.719c-0.008,5.844,2.039,11.305,7.992,13.953
						l0.211,0.086l2.328-5.211l0.086-0.227l-0.211-0.086L225.268,665.874l-0.219-0.094l-2.203,4.992l0.203,0.102l0.094-0.227
						c-5.727-2.555-7.703-7.773-7.719-13.508c0-4.984,1.523-10.344,3.383-14.516c3.328-7.516,10.25-16.68,18.633-16.672
						c1.641,0.016,3.352,0.352,5.117,1.141c5.735,2.555,7.704,7.766,7.719,13.516c0,4.992-1.516,10.352-3.375,14.5
						c-3.336,7.531-10.25,16.711-18.625,16.68c-1.633,0-3.352-0.344-5.133-1.141l-0.094,0.227l0.219,0.086l2.227-4.992
						L225.268,665.874l-0.094,0.219c1.156,0.523,2.352,0.766,3.547,0.766c5.5-0.008,10.93-5.211,14.531-13.336
						c1.883-4.211,2.844-8.234,2.844-11.711c0.016-4.727-1.805-8.477-5.579-10.148c-1.156-0.531-2.352-0.781-3.547-0.781
						c-5.484,0.023-10.906,5.242-14.531,13.344c-1.859,4.195-2.828,8.227-2.828,11.711c0,4.719,1.797,8.484,5.562,10.156
						L225.268,665.874l-0.219-0.094L225.268,665.874z"/>
					<path d="M258.089,656.749l4.703-14.805l10.305,3.258c2.031,0.617,5.305,2.281,3.148,9.031c-2.031,6.438-5.578,6.508-8.586,5.57
						L258.089,656.749l-1.609,5.047l9.984,3.156c4.938,1.57,4.109,5.922,2.984,9.524c-0.508,1.633-2.492,8.297-2.75,11.148
						l5.07,1.594l0.312-0.953c-0.977-1.445-0.891-2.391-0.156-4.867l2.25-7.962c1.773-6.109,0.375-7.781-1.039-9.352
						c2.477-1.016,5.516-2.688,7.562-9.102c2.922-9.25-1.297-13.336-6.305-14.922l-14.125-4.453l-13.844,43.587l4.125,1.305
						l5.93-18.704L258.089,656.749z"/>
					<path d="M258.089,656.749l0.227,0.062l4.641-14.57l10.055,3.18c1.547,0.5,3.695,1.477,3.703,4.914
						c0,1.031-0.211,2.281-0.688,3.828c-1.492,4.633-3.656,5.812-5.836,5.836l-2.453-0.43l-9.586-3.055l-0.227-0.078l-1.664,5.281
						l-0.078,0.234l10.219,3.234c2.852,0.922,3.656,2.703,3.664,4.805c0,1.422-0.383,2.969-0.844,4.423
						c-0.516,1.633-2.5,8.266-2.758,11.188l-0.016,0.195l5.242,1.656l0.219,0.07l0.398-1.18l0.031-0.117l-0.062-0.094l-0.672-1.961
						c0-0.672,0.195-1.492,0.555-2.695l2.242-7.978c0.602-2.055,0.852-3.633,0.852-4.875c0.008-2.477-1-3.656-1.953-4.695
						l-0.164,0.156l0.086,0.211c2.508-1.008,5.664-2.758,7.711-9.227c0.664-2.125,0.977-3.992,0.977-5.609
						c0-5.57-3.523-8.406-7.438-9.633l-14.344-4.531l-14,44.048l4.344,1.391l0.234,0.07l6.008-18.946l1.602-5.047L258.089,656.749
						l-0.234-0.078l-1.594,5.047l-5.867,18.485l-3.672-1.172l13.719-43.126l13.875,4.391c3.812,1.219,7.094,3.828,7.109,9.164
						c0,1.562-0.297,3.367-0.945,5.461c-2.055,6.344-4.984,7.93-7.43,8.938l-0.336,0.117l0.234,0.25
						c0.953,1.062,1.812,2.055,1.82,4.398c0,1.18-0.234,2.711-0.812,4.75l-2.25,7.97c-0.375,1.211-0.586,2.062-0.586,2.828
						l0.75,2.234l0.211-0.141l-0.234-0.086l-0.242,0.742l-4.836-1.531l-0.07,0.234l0.242,0.023
						c0.234-2.797,2.219-9.469,2.742-11.109c0.453-1.446,0.867-3.048,0.867-4.548c0.016-2.234-0.969-4.312-3.992-5.258l-9.781-3.086
						l1.461-4.594l9.344,2.969l2.609,0.453c2.398,0.008,4.805-1.43,6.289-6.164c0.508-1.586,0.719-2.883,0.719-3.977
						c0.008-3.688-2.438-4.891-4.039-5.359l-10.516-3.328l-4.789,15.023L258.089,656.749z"/>
					<path d="M309.253,662.585c0.406-8.094-3.891-10.438-6.914-11.055c-5.688-1.164-11.492,3.938-13.852,15.727
						c-2.117,10.556-1.133,19.188,6.641,20.782c2.75,0.531,7.891-0.359,11.453-10.523l4.102,0.828
						c-5.148,16.578-14.945,15.391-17.289,14.93c-7.125-1.445-12.79-9.477-9.336-26.728c2.797-13.781,10.219-22.227,19.36-20.414
						c8.094,1.648,10.844,9.672,9.953,17.297L309.253,662.585z"/>
					<path d="M309.253,662.585l0.242,0.016l0.031-1.039c0.008-7.383-4.18-9.695-7.148-10.281l-1.609-0.148
						c-5.336,0-10.359,5.336-12.516,16.078c-0.625,3.078-0.984,6.008-0.984,8.657c0,6.414,2.157,11.25,7.813,12.406l1.297,0.125
						c3,0.008,7.344-1.984,10.422-10.805l-0.219-0.078l-0.055,0.242l4.102,0.82l0.055-0.234l-0.234-0.078
						c-4.102,13.164-11.023,14.969-14.82,14.984c-0.969,0-1.727-0.125-2.18-0.211c-5.524-1.117-10.18-6.242-10.196-16.898
						c0-2.806,0.328-5.985,1.039-9.556c2.531-12.484,8.86-20.469,16.672-20.453l2.414,0.25c6.984,1.406,9.906,7.672,9.906,14.336
						l-0.133,2.672l0.219,0.039l0.047-0.234l-4.109-0.828L309.253,662.585l0.242,0.016L309.253,662.585l-0.039,0.234l4.109,0.836
						l0.266,0.062l0.031-0.258c0.102-0.906,0.148-1.828,0.148-2.742c0.016-6.789-3.023-13.336-10.305-14.812l-2.5-0.25
						c-8.195,0.016-14.594,8.266-17.141,20.844c-0.719,3.594-1.031,6.797-1.031,9.642c-0.031,10.781,4.789,16.195,10.555,17.359
						c0.484,0.109,1.281,0.227,2.281,0.227c3.969,0.023,11.156-2.008,15.273-15.297l0.078-0.266l-4.359-0.883l-0.195-0.039
						l-0.078,0.211c-3.062,8.703-7.203,10.461-9.969,10.461l-1.195-0.109c-5.391-1.102-7.407-5.602-7.438-11.938
						c0-2.61,0.367-5.501,0.977-8.548c2.141-10.688,7.086-15.742,12.047-15.719l1.516,0.148c2.812,0.602,6.75,2.641,6.766,9.812
						l-0.031,1.023l-0.016,0.203l0.211,0.031L309.253,662.585z"/>
					<polygon points="340.402,698.305 316.863,696.086 321.238,650.538 344.457,652.757 343.934,658.202 325.011,656.397 
						323.691,670.343 341.113,672.015 340.598,677.461 323.152,675.828 321.683,691.023 340.902,692.859 					"/>
					<polygon points="340.402,698.305 340.418,698.062 317.113,695.867 321.441,650.788 344.191,652.952 343.723,657.944 
						324.792,656.14 323.417,670.562 340.855,672.218 340.395,677.188 322.933,675.555 321.425,691.25 340.652,693.062 
						340.16,698.266 340.402,698.305 340.418,698.062 340.402,698.305 340.621,698.32 341.152,692.867 341.168,692.633 
						321.957,690.82 323.363,676.078 340.816,677.711 341.363,672.022 341.387,671.788 323.949,670.116 325.23,656.655 
						344.152,658.46 344.699,652.765 344.707,652.53 321.011,650.272 316.605,696.297 340.605,698.562 340.621,698.32 					"/>
					<path d="M376.809,698.453l-0.43-27.001c-0.039-1.359-0.039-7.141-0.102-11.414h-0.094l-8.398,38.579l-4.281,0.047
						l-9.609-38.204h-0.086c0.047,4.18,0.25,9.977,0.273,11.328l0.414,27.009l-4.18,0.055l-0.719-45.728l6.188-0.109l9.758,38.556
						h0.078l8.484-38.829l6.157-0.109l0.727,45.767L376.809,698.453z"/>
					<path d="M376.809,698.453h0.234l-0.43-27.001c-0.031-1.359-0.031-7.141-0.094-11.414l-0.008-0.25h-0.328h-0.195l-8.398,38.579
						l-3.898,0.062l-9.609-38.22h-0.273h-0.258l0.008,0.266c0.086,4.18,0.25,9.977,0.273,11.312l0.43,26.774l-3.727,0.055
						l-0.695-45.267l5.75-0.094l9.758,38.563h0.273h0.195l8.484-38.845l5.727-0.094l0.711,45.282l-3.946,0.055L376.809,698.453
						h0.234H376.809v0.242l4.18-0.062h0.25l-0.742-46.235l-6.391,0.109h-0.195l-8.523,39.024l0.234,0.039v-0.234h-0.078v0.234
						l0.219-0.055l-9.797-38.751l-6.391,0.117h-0.227l0.734,46.22l4.414-0.07h0.25l-0.43-27.243
						c-0.016-1.359-0.211-7.148-0.289-11.328h-0.219v0.234h0.086v-0.234l-0.227,0.047l9.656,38.392l4.461-0.047h0.203l8.43-38.782
						l-0.234-0.031v0.234h0.094v-0.234h-0.25c0.078,4.273,0.078,10.055,0.109,11.414l0.422,27.243h0.25V698.453z"/>
					<polygon points="415.872,694.242 392.418,697.312 386.543,651.937 409.7,648.913 410.379,654.351 391.543,656.804 
						393.34,670.702 410.723,668.468 411.434,673.882 394.043,676.148 396.004,691.312 415.168,688.82 					"/>
					<polygon points="415.872,694.242 415.848,694.008 392.629,697.039 386.817,652.124 409.489,649.187 410.122,654.14 
						391.278,656.593 393.137,670.96 410.512,668.741 411.161,673.671 393.77,675.945 395.793,691.57 414.965,689.094 
						415.637,694.266 415.872,694.242 415.848,694.008 415.872,694.242 416.122,694.219 415.403,688.797 415.372,688.562 
						396.208,691.047 394.301,676.359 411.708,674.093 410.958,668.429 410.926,668.194 393.551,670.429 391.817,657.015 
						410.653,654.538 409.934,648.866 409.903,648.64 386.278,651.718 392.223,697.586 416.145,694.453 416.122,694.219 					"/>
					<polygon points="435.591,643.03 439.677,642.03 450.317,686.562 445.599,687.703 421.168,655.53 421.075,655.554 
						429.669,691.508 425.599,692.492 414.934,647.991 419.934,646.796 444.114,679 444.192,678.969 					"/>
					<polygon points="435.591,643.03 435.653,643.265 439.505,642.327 450.036,686.383 445.7,687.43 421.247,655.257 
						421.028,655.319 420.778,655.374 429.388,691.32 425.778,692.195 415.239,648.171 419.84,647.069 444.013,679.258 
						444.263,679.203 444.481,679.148 435.825,642.983 435.591,643.03 435.653,643.265 435.591,643.03 435.372,643.085 
						443.966,679.023 444.192,678.969 444.138,678.75 444.052,678.766 444.114,679 444.31,678.852 420.036,646.522 414.887,647.757 
						414.653,647.812 425.411,692.766 429.739,691.742 429.974,691.688 421.301,655.491 421.075,655.554 421.114,655.772 
						421.208,655.765 421.168,655.53 420.973,655.671 445.505,687.977 450.372,686.797 450.606,686.727 439.856,641.749 
						435.536,642.812 435.31,642.858 435.372,643.085 					"/>
					<polygon points="442.997,641.108 467.56,632.53 469.364,637.687 459.13,641.265 472.411,679.297 468.325,680.734 
						455.044,642.71 444.817,646.28 					"/>
					<polygon points="442.997,641.108 443.075,641.343 467.411,632.827 469.06,637.546 458.825,641.14 472.114,679.148 
						468.466,680.422 455.185,642.39 444.974,645.976 443.231,641.046 442.997,641.108 443.075,641.343 442.997,641.108 
						442.778,641.187 444.599,646.351 444.661,646.577 454.888,643.007 468.161,681.031 472.497,679.531 472.724,679.445 
						459.442,641.421 469.669,637.827 467.778,632.452 467.692,632.233 442.7,640.968 442.778,641.187 					"/>
					<polygon points="511.436,641.28 520.076,636.374 506.037,621.179 505.959,621.226 511.436,641.28 512.982,646.733 
						516.639,659.937 512.764,662.147 500.639,616.413 504.92,613.983 537.592,648.062 533.475,650.374 524.139,640.358 
						512.982,646.733 					"/>
					<polygon points="511.436,641.28 511.545,641.483 520.451,636.437 506.061,620.866 505.818,621.038 505.686,621.14 
						511.201,641.343 512.748,646.796 516.35,659.835 512.92,661.78 500.92,616.53 504.881,614.288 537.209,647.999 
						533.529,650.077 524.193,640.062 513.123,646.366 511.654,641.226 511.436,641.28 511.545,641.483 511.436,641.28 
						511.201,641.358 512.748,646.796 512.826,647.093 524.107,640.655 533.42,650.687 537.717,648.272 537.975,648.124 
						504.975,613.694 500.537,616.21 500.381,616.296 512.6,662.499 516.756,660.163 516.92,660.069 513.201,646.663 
						511.654,641.226 506.193,621.179 505.959,621.226 506.1,621.421 506.17,621.382 506.037,621.179 505.85,621.343 
						519.709,636.312 511.311,641.077 511.154,641.179 511.201,641.358 					"/>
					<path d="M545.037,636.655l6.828-4.891c4.57-3.242,3.867-10.523-2.82-19.914c-6.719-9.367-13.094-11.922-17.891-8.508
						l-6.57,4.711L545.037,636.655l-3.617,2.375l-23.43-32.766l10.562-7.555c6.781-4.844,16.227-0.469,23.883,10.25
						c5.969,8.352,11.133,20.945,2.57,27.062l-10.422,7.469l-3.164-4.461L545.037,636.655z"/>
					<path d="M545.037,636.655l0.141,0.188l6.828-4.883c1.984-1.414,3.008-3.594,3.008-6.305c0-3.727-1.891-8.477-5.781-13.93
						c-4.859-6.773-9.555-10.055-13.695-10.07c-1.625,0-3.141,0.508-4.516,1.492l-6.578,4.711l-0.18,0.125l20.445,28.609
						l-3.227,2.117l-23.164-32.398l10.383-7.406c1.812-1.297,3.828-1.906,5.938-1.922c5.609,0,12.062,4.375,17.586,12.109
						c3.703,5.164,7.078,11.945,7.078,17.758c-0.016,3.539-1.242,6.711-4.422,8.977l-10.234,7.328l-2.891-4.062l3.414-2.242
						L545.037,636.655l-0.125-0.203l-3.625,2.383l-0.203,0.133l3.32,4.656l0.133,0.203l10.609-7.609
						c3.32-2.359,4.633-5.711,4.625-9.367c0-5.984-3.43-12.828-7.141-18.023c-5.578-7.82-12.117-12.297-17.992-12.312
						c-2.211,0-4.328,0.648-6.227,2l-10.758,7.688l23.695,33.156l3.82-2.508l0.211-0.141l-20.461-28.602l6.375-4.57
						c1.305-0.938,2.727-1.398,4.242-1.398c3.867-0.023,8.492,3.133,13.305,9.859c3.867,5.414,5.703,10.094,5.703,13.656
						c0,2.602-0.953,4.586-2.82,5.914l-6.828,4.898L545.037,636.655z"/>
					<path d="M593.515,604.085l-18.157-20.001c-0.898-1-4.742-5.352-7.594-8.531l-0.078,0.086l19.157,34.517l-3.156,2.867
						l-32.47-22.359l-0.055,0.062c2.812,3.141,6.773,7.352,7.672,8.336l18.188,20.008l-3.118,2.82l-30.766-33.906l4.594-4.149
						l32.767,22.517l0.078-0.062l-19.274-34.774l4.562-4.133l30.751,33.884L593.515,604.085z"/>
					<path d="M593.515,604.085l0.18-0.172l-18.173-20.001c-0.875-0.969-4.719-5.352-7.578-8.516l-0.18-0.18l-0.242,0.25
						l-0.125,0.125l19.134,34.524l-2.867,2.602l-32.446-22.352l-0.227,0.18l-0.172,0.156l0.164,0.18
						c2.82,3.141,6.781,7.375,7.688,8.344l17.993,19.836l-2.751,2.484l-30.445-33.547l4.297-3.868l32.751,22.509l0.211-0.156
						l0.164-0.133l-19.274-34.774l4.227-3.859l30.438,33.532l-2.938,2.648L593.515,604.085l0.18-0.172L593.515,604.085l0.156,0.18
						l3.117-2.82l0.172-0.172l-31.095-34.228l-4.719,4.297l-0.148,0.125l19.368,34.923l0.211-0.102l-0.148-0.195l-0.078,0.062
						l0.148,0.195l0.141-0.211l-32.915-22.618l-4.734,4.29l-0.188,0.164l31.086,34.25l3.282-2.969l0.172-0.164l-18.329-20.188
						c-0.891-0.984-4.867-5.211-7.68-8.344l-0.172,0.164l0.148,0.18l0.078-0.062l-0.172-0.18l-0.133,0.211l32.618,22.445
						l3.297-2.984l0.141-0.141l-19.243-34.681l-0.211,0.125l0.172,0.164l0.078-0.07l-0.172-0.18l-0.18,0.172
						c2.852,3.164,6.695,7.531,7.594,8.508l18.329,20.188l0.164-0.156L593.515,604.085z"/>
					<polygon points="606.718,590.304 603.757,593.483 570.295,562.24 573.256,559.092 					"/>
					<polygon points="606.718,590.304 606.53,590.14 603.741,593.14 570.631,562.24 573.256,559.428 606.562,590.468 
						606.718,590.304 606.53,590.14 606.718,590.304 606.882,590.132 573.24,558.748 570.115,562.076 569.959,562.248 
						603.772,593.819 606.882,590.468 607.054,590.288 606.882,590.132 					"/>
					<polygon points="591.413,537.436 594.038,534.178 629.765,562.756 626.726,566.537 587.671,556.201 587.624,556.256 
						616.491,579.342 613.874,582.615 578.132,554.021 581.343,550.029 620.21,560.639 620.265,560.553 					"/>
					<polygon points="591.413,537.436 591.608,537.592 594.077,534.529 629.429,562.795 626.632,566.264 587.601,555.936 
						587.437,556.107 587.288,556.303 616.155,579.381 613.827,582.279 578.468,553.982 581.429,550.295 620.343,560.912 
						620.468,560.67 620.577,560.482 591.569,537.256 591.413,537.436 591.608,537.592 591.413,537.436 591.257,537.631 
						620.108,560.732 620.265,560.553 620.069,560.436 620.015,560.514 620.21,560.639 620.288,560.404 581.257,549.756 
						577.952,553.865 577.812,554.053 613.905,582.951 616.679,579.49 616.835,579.303 587.765,556.084 587.624,556.256 
						587.819,556.428 587.858,556.342 587.671,556.201 587.624,556.436 626.819,566.811 629.944,562.896 630.101,562.717 
						593.991,533.857 591.226,537.295 591.085,537.475 591.257,537.631 					"/>
					<polygon points="638.14,550.498 635.694,554.053 597.929,528.256 600.382,524.693 					"/>
					<polygon points="638.14,550.498 637.937,550.365 635.624,553.725 598.249,528.209 600.429,525.014 637.991,550.686 
						638.14,550.498 637.937,550.365 638.14,550.498 638.265,550.295 600.319,524.357 597.718,528.131 597.593,528.342 
						635.757,554.389 638.327,550.631 638.476,550.428 638.265,550.295 					"/>
					<path d="M625.702,508.912c-6.219-3.367-10.203-0.93-12.023,2.188c-1.383,2.352-2.75,6.852,3.25,10.359
						c3.359,1.961,5.422,0.914,6.93-0.352l7.195-6.414c3.289-2.859,7.938-3.773,14.203-0.125c9.375,5.453,8.414,13.055,5.664,17.789
						c-3,5.117-6.359,5.844-8.672,6.141c-4.383,0.594-7.969-0.867-11.656-3l2.039-3.516c7.164,4.188,11.641,1.289,13.703-2.242
						c1.562-2.711,3.219-7.828-2.461-11.133c-4.117-2.391-6.234-1.836-10.414,1.836l-5.164,4.555
						c-1.672,1.477-5.875,4.508-12.742,0.5c-6.18-3.586-10.602-9.93-6.68-16.641c5.609-9.672,14.438-5.828,18.875-3.453
						L625.702,508.912z"/>
					<path d="M625.702,508.912l0.117-0.227c-2.148-1.148-4.055-1.633-5.711-1.633c-3.18,0-5.414,1.82-6.633,3.93
						c-0.609,1.023-1.219,2.5-1.219,4.117c-0.016,2.133,1.086,4.562,4.555,6.555c1.375,0.805,2.539,1.125,3.578,1.125
						c1.539,0,2.703-0.727,3.625-1.484l7.188-6.414c1.734-1.523,3.852-2.469,6.391-2.469c2.18,0,4.68,0.703,7.555,2.367
						c5.602,3.266,7.422,7.25,7.43,10.938c0,2.398-0.789,4.68-1.867,6.523c-2.977,5.055-6.203,5.711-8.484,6.008l-1.938,0.148
						c-3.461,0-6.461-1.297-9.578-3.117l-0.117,0.219l0.195,0.125l2.039-3.516l-0.195-0.125l-0.133,0.211
						c2.547,1.492,4.781,2.102,6.703,2.102c3.539,0,5.969-2.102,7.344-4.438c0.742-1.305,1.523-3.148,1.523-5.117
						c0-2.203-1.008-4.57-4.07-6.328c-1.672-0.977-3.047-1.484-4.383-1.484c-2,0-3.805,1.133-6.32,3.336l-5.164,4.562
						c-1.039,0.906-3.055,2.422-6.094,2.422c-1.758,0-3.875-0.508-6.367-1.961c-4.516-2.617-8.047-6.719-8.047-11.289
						c0-1.625,0.438-3.297,1.438-5.023c2.734-4.695,6.18-6.117,9.523-6.125c3.453,0,6.82,1.555,9.047,2.766l0.117-0.211
						l-0.203-0.117l-2.039,3.492L625.702,508.912l0.117-0.227L625.702,508.912l0.203,0.109l2.055-3.5l0.133-0.211l-0.227-0.117
						c-2.273-1.211-5.68-2.82-9.281-2.82c-3.492,0-7.133,1.539-9.922,6.367c-1.055,1.781-1.508,3.555-1.508,5.258
						c0,4.82,3.672,9.031,8.266,11.703c2.555,1.477,4.766,2.023,6.617,2.023c3.211,0,5.336-1.586,6.414-2.539l5.164-4.555
						c2.492-2.211,4.211-3.234,6-3.219c1.203,0,2.5,0.453,4.133,1.406c2.945,1.719,3.836,3.859,3.852,5.922
						c0,1.828-0.758,3.625-1.477,4.883c-1.32,2.234-3.578,4.195-6.922,4.195c-1.82,0-3.961-0.57-6.453-2.031l-0.211-0.125
						l-2.148,3.711l-0.133,0.219l0.203,0.117c3.148,1.82,6.242,3.172,9.828,3.172l2-0.148c2.336-0.281,5.82-1.062,8.852-6.242
						c1.102-1.906,1.922-4.273,1.922-6.773c0-3.844-1.961-8.039-7.688-11.359c-2.914-1.68-5.5-2.422-7.781-2.422
						c-2.664,0-4.891,1.008-6.703,2.578l-7.188,6.414c-0.883,0.742-1.922,1.375-3.312,1.375c-0.914,0-2.008-0.289-3.328-1.055
						c-3.367-1.969-4.328-4.188-4.336-6.148c0-1.508,0.578-2.883,1.164-3.883c1.164-1.992,3.219-3.68,6.219-3.68
						c1.57,0,3.391,0.445,5.484,1.586l0.195,0.102l0.117-0.203L625.702,508.912z"/>
					<polygon points="617.593,496.138 628.429,472.505 633.421,474.802 628.897,484.638 665.492,501.459 663.687,505.381 
						627.093,488.552 622.546,498.42 					"/>
					<polygon points="617.593,496.138 617.796,496.239 628.538,472.81 633.101,474.927 628.569,484.755 665.188,501.568 
						663.577,505.068 626.968,488.247 622.429,498.1 617.679,495.935 617.593,496.138 617.796,496.239 617.593,496.138 
						617.483,496.356 622.46,498.631 622.679,498.732 627.202,488.888 663.797,505.693 665.719,501.553 665.82,501.342 
						629.21,484.521 633.733,474.692 628.53,472.278 628.304,472.192 617.265,496.255 617.483,496.356 					"/>
					<path d="M651.296,470.56l-14.719-5l3.453-10.211c0.695-2.016,2.391-5.258,9.094-2.984c6.398,2.164,6.43,5.711,5.414,8.68
						L651.296,470.56l5.008,1.68l3.375-9.906c1.68-4.93,6.009-4,9.571-2.812c1.617,0.547,8.25,2.664,11.109,2.961l1.695-5.016
						l-0.961-0.328c-1.469,0.938-2.438,0.828-4.867,0.047l-7.93-2.422c-6.095-1.867-7.774-0.477-9.384,0.898
						c-0.977-2.508-2.555-5.57-8.969-7.727c-9.156-3.125-13.328,1.023-15.031,6.023l-4.734,14.023l43.353,14.664l1.391-4.078
						l-18.618-6.328L651.296,470.56z"/>
					<path d="M651.296,470.56l0.078-0.227l-14.5-4.914l3.391-10.008c0.531-1.492,1.531-3.578,4.844-3.578
						c1.047,0,2.344,0.219,3.938,0.742c4.547,1.547,5.727,3.703,5.734,5.844l-0.461,2.547l-3.242,9.531l-0.086,0.211l5.25,1.766
						l0.219,0.07l3.438-10.141c0.977-2.781,2.703-3.578,4.743-3.578c1.453-0.016,3.047,0.43,4.539,0.922
						c1.641,0.555,8.242,2.672,11.148,2.969l0.18,0.016l1.766-5.188l0.078-0.227l-1.18-0.414l-0.109-0.039l-0.102,0.055
						l-1.906,0.648c-0.703,0-1.531-0.211-2.75-0.594l-7.938-2.445c-2.133-0.648-3.742-0.914-5.017-0.914
						c-2.375-0.008-3.539,0.969-4.594,1.859l0.156,0.188l0.219-0.102c-0.961-2.523-2.641-5.695-9.109-7.859
						c-2.203-0.75-4.156-1.094-5.844-1.094c-5.367,0-8.188,3.414-9.484,7.273l-4.828,14.234l43.806,14.836l1.469-4.305l0.078-0.234
						l-18.821-6.391l-5.023-1.688L651.296,470.56l-0.078,0.234l5.023,1.68l18.368,6.234l-1.234,3.633l-42.899-14.508l4.672-13.781
						c1.281-3.766,3.898-6.961,9.031-6.961c1.625,0,3.508,0.312,5.703,1.062c6.336,2.156,7.836,5.117,8.812,7.594l0.117,0.312
						l0.242-0.219c1.062-0.898,2.055-1.742,4.297-1.742c1.204,0,2.774,0.25,4.884,0.891l7.93,2.414
						c1.219,0.406,2.102,0.641,2.891,0.641l2.172-0.711l-0.133-0.195l-0.078,0.219l0.742,0.25l-1.633,4.797l0.234,0.078l0.023-0.242
						c-2.789-0.273-9.438-2.391-11.062-2.938c-1.484-0.508-3.125-0.969-4.68-0.969c-2.173-0.016-4.212,0.969-5.181,3.914
						l-3.305,9.695l-4.562-1.531l3.164-9.289c0.297-0.859,0.508-1.766,0.508-2.703c0.016-2.352-1.422-4.734-6.055-6.289
						c-1.641-0.562-2.984-0.781-4.102-0.781c-3.578-0.016-4.781,2.375-5.297,3.914l-3.547,10.453l14.953,5.078L651.296,470.56z"/>
					<polygon points="666.969,440.13 648.507,430.622 648.515,430.52 669.219,430.458 666.969,440.13 672.023,442.677 
						674.906,430.184 688.609,430.09 689.656,425.489 642.46,426.481 641.358,431.247 683.219,453.294 684.219,448.95 
						672.023,442.677 					"/>
					<polygon points="666.969,440.13 667.078,439.927 648.608,430.418 648.507,430.622 648.741,430.668 648.749,430.567 
						648.515,430.52 648.515,430.762 668.922,430.684 666.742,440.083 666.688,440.263 671.906,442.903 672.18,443.028 
						675.094,430.418 688.789,430.325 689.891,425.551 689.953,425.247 642.272,426.231 641.132,431.192 641.085,431.372 
						683.391,453.646 684.453,448.997 684.492,448.817 672.109,442.474 667.07,439.927 666.969,440.13 666.859,440.341 
						671.906,442.903 683.945,449.075 683.07,452.935 641.632,431.129 642.647,426.7 689.359,425.739 688.414,429.84 
						674.719,429.934 671.836,442.333 667.242,440.005 669.453,430.504 669.516,430.208 648.319,430.286 648.272,430.567 
						648.233,430.754 666.859,440.341 					"/>
					<polygon points="644.96,415.458 648.444,389.7 653.874,390.426 652.405,401.161 692.336,406.583 691.75,410.864 
						651.835,405.458 650.39,416.2 					"/>
					<polygon points="644.96,415.458 645.21,415.489 648.647,389.973 653.608,390.629 652.194,401.129 652.155,401.379 
						692.062,406.793 691.555,410.59 651.647,405.184 650.179,415.942 644.999,415.223 644.96,415.458 645.21,415.489 
						644.96,415.458 644.937,415.692 650.351,416.434 650.593,416.473 652.046,405.715 691.969,411.137 692.57,406.629 
						692.594,406.395 652.687,400.965 654.124,390.458 654.147,390.231 648.476,389.45 648.241,389.426 644.702,415.661 
						644.937,415.692 					"/>
					<polygon points="694.5,383.879 694.203,388.192 648.538,385.105 648.827,380.77 					"/>
					<polygon points="694.5,383.879 694.266,383.855 693.969,387.942 648.788,384.887 649.046,381.027 694.484,384.113 
						694.5,383.879 694.266,383.855 694.5,383.879 694.516,383.637 648.608,380.52 648.296,385.082 648.28,385.324 694.422,388.465 
						694.75,383.895 694.758,383.645 694.516,383.637 					"/>
					<path d="M690.828,359.434c0.078,6.93-7.695,11.211-18.469,11.328c-10.79,0.102-18.665-4-18.743-10.93
						c-0.062-6.977,7.727-11.25,18.485-11.367C682.883,348.363,690.773,352.465,690.828,359.434l5.492-0.078
						c-0.133-11.945-14.383-15.477-24.258-15.344c-9.892,0.102-24.056,3.922-23.931,15.875s14.375,15.445,24.267,15.328
						c9.891-0.117,24.047-3.906,23.922-15.859L690.828,359.434z"/>
					<path d="M690.828,359.434h-0.234v0.086c0.016,6.664-7.555,10.898-18.234,11h-0.414c-10.54,0-18.032-4.062-18.095-10.688v-0.086
						c-0.023-6.711,7.578-10.93,18.259-11.047h0.406c10.523,0,18.039,4.07,18.078,10.734v0.234l5.734-0.062h0.234v-0.25
						c-0.164-11.984-14.102-15.586-23.984-15.586h-0.516c-9.86,0.102-24.126,3.891-24.165,15.961v0.156
						c0.164,12.016,14.141,15.57,24.024,15.57h0.477c9.875-0.125,24.133-3.875,24.164-15.945v-0.156v-0.234l-5.734,0.062
						l-0.234,0.016v0.234H690.828v0.234l5.5-0.062l-0.008-0.25h-0.227v0.156c0.039,11.578-13.883,15.352-23.711,15.469h-0.461
						c-9.845,0-23.454-3.57-23.548-15.094l-0.008-0.156c-0.031-11.578,13.867-15.383,23.696-15.469l0.516-0.016
						c9.828,0.016,23.414,3.625,23.516,15.125l0.227-0.016v-0.234l-5.492,0.062V359.434h0.234
						c-0.078-7.102-7.945-11.211-18.547-11.211l-0.414,0.016c-10.743,0.102-18.704,4.359-18.72,11.508v0.086
						c0.094,7.062,7.961,11.18,18.563,11.164h0.414c10.758-0.102,18.688-4.367,18.703-11.477v-0.086H690.828v0.234V359.434z"/>
					<polygon points="646.116,318.8 645.593,314.644 690.984,308.98 691.594,313.808 656.929,334.542 656.952,334.628 
						693.609,330.05 694.141,334.23 648.741,339.878 648.108,334.785 682.797,314.332 682.781,314.253 					"/>
					<polygon points="646.116,318.8 646.351,318.777 645.866,314.847 690.773,309.253 691.328,313.699 656.663,334.417 
						656.702,334.683 656.765,334.902 693.398,330.316 693.867,334.035 648.96,339.613 648.351,334.925 683.039,314.464 
						683.016,314.214 682.992,313.996 646.093,318.566 646.116,318.8 646.351,318.777 646.116,318.8 646.124,319.042 
						682.82,314.488 682.781,314.253 682.547,314.277 682.547,314.355 682.797,314.332 682.672,314.121 647.843,334.667 
						648.515,339.917 648.538,340.152 694.398,334.433 693.852,330.019 693.828,329.785 656.929,334.394 656.952,334.628 
						657.187,334.589 657.163,334.488 656.929,334.542 657.062,334.746 691.836,313.941 691.227,308.957 691.195,308.722 
						645.335,314.441 645.866,318.824 645.905,319.074 646.124,319.042 					"/>
					<path fill="#900028" d="M348.59,309.167c-27.321-42.946-58.563-72.29-89.501-92.267
						c-36.454-23.532-72.493-34.055-101.181-38.508c-12.836-2-24.196-2.75-33.469-2.953c-16.235-0.305-56.759,4.641-56.759,4.641
						C43,213.932,27.602,263.261,21.031,304.183c-11.07,69.219,1.039,121.54,1.039,121.54c17-14.477,41.133-30,62.915-42.125
						c11.391-6.344,22.18-11.766,30.946-15.625c60.665-26.649,118.321-26.024,165.033-16.156
						c66.079,13.984,110.314,46.516,110.314,46.516C378.911,363.504,364.41,334.035,348.59,309.167"/>
					<path fill="#D1D3D4" d="M158.182,174.338c-12.93-1.984-24.36-2.789-33.704-2.969h-1.523c-17.313,0-55.446,4.648-55.493,4.648
						c-0.969,0.117-1.68,1.008-1.562,2c0.125,0.977,1.016,1.672,1.992,1.555c0.023-0.008,9.54-1.172,21.204-2.312
						c11.656-1.164,25.461-2.32,33.86-2.305h1.461c9.188,0.18,20.469,0.969,33.219,2.938c0.977,0.148,1.883-0.523,2.039-1.5
						C159.83,175.408,159.166,174.502,158.182,174.338"/>
					<path fill="#D1D3D4" d="M395.84,412.997c-0.211-0.156-65.204-57.227-162.096-60.102c-2.219-0.055-4.461-0.094-6.742-0.094
						c-43.219,0.008-95.688,11.914-138.791,37.688l1.219,2.039l-1.156-2.07l-4.445,2.438
						c-21.899,12.188-41.547,25.352-55.915,38.336c-0.977,0.883-1.055,2.383-0.172,3.375c0.891,0.977,2.391,1.055,3.375,0.172
						c13.938-12.618,33.344-25.665,55.016-37.711l4.445-2.453l0.039-0.008l0.047-0.023c42.172-25.243,93.985-37.016,136.337-37.008
						c2.242,0,4.43,0.023,6.602,0.094c47.524,1.391,87.329,16.141,115.259,30.54c13.953,7.203,24.945,14.328,32.422,19.633
						c3.742,2.648,6.602,4.844,8.516,6.375c1.93,1.531,2.883,2.359,2.883,2.359c1,0.875,2.5,0.781,3.367-0.203
						C396.918,415.372,396.817,413.864,395.84,412.997"/>
					<path fill="#D1D3D4" d="M393.528,396.958c-12.422-34.985-27.555-66.845-43.493-91.892c-27.508-43.243-59-72.853-90.212-93.009
						c-36.813-23.758-73.181-34.391-102.118-38.868c-1.305-0.211-2.516,0.688-2.719,1.984s0.672,2.531,1.984,2.727
						c28.415,4.398,64.118,14.828,100.267,38.172c30.648,19.789,61.618,48.875,88.767,91.556
						c15.695,24.672,30.711,56.227,43.024,90.923c0.445,1.242,1.812,1.898,3.055,1.453
						C393.317,399.559,393.965,398.2,393.528,396.958"/>
				</g>
			</g>
		</g>
	</g>
</g>
</svg>
