<svg id="Layer_1" data-name="Layer 1" xmlns="http://www.w3.org/2000/svg" viewBox="0 0 2160 720"><defs><style>.cls-1{fill:#02c7fd;}.cls-2{fill:#3d3d3d;}.cls-3{fill:#5e5e5e;}</style></defs><path class="cls-1" d="M373.928,119.156c-117.791,0-213.278,95.488-213.278,213.279s95.487,213.278,213.278,213.278,213.279-95.488,213.279-213.278S491.719,119.156,373.928,119.156Zm-160.945,304.8L308.57,240.916h47.794L260.777,423.953ZM383.37,213.71h47.794L335.577,396.747H287.783ZM365.657,451.16H317.863L413.45,268.123h47.794Zm73.629-27.207H391.493L487.08,240.916h47.794Z"/><path class="cls-2" d="M749.234,286.123c36.333,0,64.765,28.959,64.765,75.3s-28.7,75.82-64.765,75.82c-21.588,0-37.117-9.744-45.28-22.642v20.534H658.935V240.316h45.019v68.715C712.117,295.868,728.173,286.123,749.234,286.123Zm-13.425,39.226c-16.849,0-32.117,12.907-32.117,36.329s15.268,36.337,32.117,36.337c17.11,0,32.382-13.163,32.382-36.594S752.919,325.349,735.809,325.349Z"/><path class="cls-2" d="M837.7,240.316h45.019V435.133H837.7Z"/><path class="cls-2" d="M1060.421,435.133H1015.4V415.121c-8.952,12.641-24.746,21.589-44.492,21.589-33.959,0-56.863-23.431-56.863-62.657V288.232H958.8V368c0,20,11.322,31.067,28.17,31.067,17.376,0,28.432-11.065,28.432-31.067V288.232h45.019Z"/><path class="cls-2" d="M1158.1,437.241c-43.176,0-74.243-28.959-74.243-75.563s30.54-75.555,74.243-75.555c42.911,0,73.185,28.436,73.185,73.19a113.678,113.678,0,0,1-.788,13.163H1128.614c1.577,19.215,13.425,28.17,27.9,28.17,12.637,0,19.746-6.316,23.431-14.217h47.916C1220.756,415.121,1194.69,437.241,1158.1,437.241Zm-29.224-89.772h56.34c0-16.061-12.636-25.274-27.643-25.274C1142.827,322.2,1131.506,331.142,1128.875,347.469Z"/><path class="cls-3" d="M1264.2,310.608h-18.691V290.863H1264.2V254.534h23.958v36.329h37.649v19.745h-37.649v85.033c0,14.218,5.266,19.223,20.007,19.223h17.642v20.269h-21.589c-25.534,0-40.018-10.533-40.018-39.492Z"/><path class="cls-3" d="M1378.721,435.133h-23.954V290.863h23.954v23.43c8.163-16.06,23.7-26.061,46.6-26.061v24.742H1419c-22.9,0-40.28,10.275-40.28,43.708Z"/><path class="cls-3" d="M1512.463,288.5c26.85,0,45.28,13.687,53.7,28.693V290.863h24.219v144.27h-24.219V408.282c-8.691,15.53-27.382,29.216-53.971,29.216-38.437,0-68.184-30.27-68.184-75.023C1444.013,317.456,1473.76,288.5,1512.463,288.5Zm4.735,20.792c-26.324,0-48.7,19.222-48.7,53.186s22.38,53.966,48.7,53.966,48.97-19.745,48.97-53.709C1566.168,329.3,1543.525,309.289,1517.2,309.289Z"/><path class="cls-3" d="M1690.7,288.5c22.643,0,43.438,11.579,53.444,28.17V240.316h24.219V435.133H1744.14V408.017c-8.69,16.06-27.382,29.481-53.705,29.481-38.7,0-68.45-30.27-68.45-75.023C1621.985,317.456,1651.732,288.5,1690.7,288.5Zm4.474,20.792c-26.323,0-48.7,19.222-48.7,53.186s22.377,53.966,48.7,53.966,48.97-19.745,48.97-53.709C1744.14,329.3,1721.5,309.289,1695.17,309.289Z"/><path class="cls-3" d="M1871.3,437.5c-41.069,0-71.343-28.958-71.343-74.766,0-45.542,29.22-74.235,71.343-74.235,41.861,0,69.238,29.482,69.238,68.973a129.678,129.678,0,0,1-.789,14.484H1824.438c1.847,29.215,22.381,45.276,46.862,45.276,21.588,0,35.279-11.056,40.545-26.585h25.8C1930.271,416.964,1907.106,437.5,1871.3,437.5Zm-46.6-85.033h91.088c.265-28.17-20.8-43.7-45.542-43.7C1846.819,308.766,1827.335,324.3,1824.7,352.465Z"/></svg>