<svg id="Layer_1" data-name="Layer 1" xmlns="http://www.w3.org/2000/svg" viewBox="0 0 2160 720"><defs><style>.cls-1{fill:#3d3d3d;}.cls-2{fill:#5e5e5e;}.cls-3{fill:#00c9ff;}</style></defs><path class="cls-1" d="M752.828,310.533c37.777,0,67.341,30.111,67.341,78.295s-29.838,78.838-67.341,78.838c-22.447,0-38.6-10.132-47.084-23.544v21.351H658.935V262.9h46.809v71.446C714.23,320.665,730.929,310.533,752.828,310.533Zm-13.96,40.792c-17.52,0-33.4,13.411-33.4,37.774s15.878,37.775,33.4,37.775c17.793,0,33.67-13.687,33.67-38.046S756.661,351.325,738.868,351.325Z"/><path class="cls-1" d="M844.809,262.9h46.81v202.57h-46.81Z"/><path class="cls-1" d="M1076.4,465.473h-46.81v-20.8c-9.308,13.14-25.733,22.448-46.263,22.448-35.313,0-59.129-24.364-59.129-65.155V312.725h46.536v82.942c0,20.808,11.772,32.3,29.292,32.3,18.066,0,29.564-11.5,29.564-32.3V312.725h46.81Z"/><path class="cls-1" d="M1177.964,467.666c-44.894,0-77.2-30.116-77.2-78.567s31.754-78.566,77.2-78.566c44.619,0,76.1,29.568,76.1,76.1a118.44,118.44,0,0,1-.821,13.688H1147.3c1.642,19.984,13.961,29.292,29.017,29.292,13.139,0,20.53-6.573,24.363-14.784h49.821C1243.114,444.67,1216.014,467.666,1177.964,467.666Zm-30.387-93.35h58.582c0-16.7-13.14-26.28-28.743-26.28C1162.086,348.036,1150.315,357.344,1147.577,374.316Z"/><path class="cls-2" d="M1363.84,313c40.241,0,71.174,30.111,71.174,76.922,0,46.539-30.933,78.018-71.174,78.018-27.374,0-46.809-14.783-56.116-30.111v98.822h-24.912V315.461h24.912v27.647C1316.757,327.233,1336.466,313,1363.84,313Zm-5.2,21.628c-27.1,0-50.916,20.8-50.916,55.571,0,35.31,23.815,55.842,50.916,55.842,27.648,0,50.916-20.8,50.916-56.119S1386.288,334.625,1358.64,334.625Z"/><path class="cls-2" d="M1529.735,313c27.922,0,47.084,14.236,55.843,29.84V315.461h25.185V465.473h-25.185V437.55c-9.032,16.152-28.469,30.387-56.116,30.387-39.967,0-70.9-31.479-70.9-78.018C1458.562,343.108,1489.5,313,1529.735,313Zm4.928,21.628c-27.375,0-50.643,19.983-50.643,55.294s23.268,56.119,50.643,56.119,50.915-20.532,50.915-55.842C1585.578,355.428,1562.037,334.625,1534.663,334.625Z"/><path class="cls-2" d="M1652.925,262.9h24.912v202.57h-24.912Z"/><path class="cls-2" d="M1720.265,262.9h24.911v202.57h-24.911Z"/><path class="cls-2" d="M1852.483,467.937c-42.7,0-74.185-30.111-74.185-77.741,0-47.359,30.386-77.2,74.185-77.2,43.525,0,71.994,30.659,71.994,71.723a135.1,135.1,0,0,1-.821,15.055h-119.9c1.916,30.388,23.269,47.083,48.727,47.083,22.446,0,36.681-11.5,42.156-27.647h26.827C1913.8,446.586,1889.712,467.937,1852.483,467.937ZM1804.03,379.52h94.715c.274-29.291-21.626-45.443-47.357-45.443C1827.025,334.077,1806.767,350.229,1804.03,379.52Z"/><path class="cls-2" d="M1962.807,335.993h-19.436V315.461h19.436V277.686h24.91v37.775h39.145v20.532h-39.145V424.41c0,14.784,5.475,19.984,20.8,19.984h18.341v21.079h-22.446c-26.554,0-41.609-10.951-41.609-41.063Z"/><polygon class="cls-3" points="469.599 500.915 612.405 227.461 541.002 227.461 398.196 500.915 469.599 500.915"/><polygon class="cls-3" points="359.597 541.562 502.403 268.107 431 268.107 288.194 541.562 359.597 541.562"/><polygon class="cls-3" points="314.658 460.269 457.464 186.814 386.061 186.814 243.255 460.269 314.658 460.269"/><polygon class="cls-3" points="202.908 500.915 345.714 227.461 274.311 227.461 131.505 500.915 202.908 500.915"/></svg>