<?xml version="1.0" encoding="UTF-8"?>
<svg width="19px" height="24px" viewBox="0 0 19 24" version="1.1" xmlns="http://www.w3.org/2000/svg" xmlns:xlink="http://www.w3.org/1999/xlink">
    <!-- Generator: sketchtool 62 (101010) - https://sketch.com -->
    <title>303E563D-030A-4882-BCE9-092B4F598D61</title>
    <desc>Created with sketchtool.</desc>
    <g id="04_Sales_Order" stroke="none" stroke-width="1" fill="none" fill-rule="evenodd">
        <g id="04_01_01_Sales_Order_Table" transform="translate(-1935.000000, -258.000000)" fill="#848893">
            <g id="PAGES/Sales-Order">
                <g id="PAGES/Sales-Order---Main-Content" transform="translate(300.000000, 0.000000)">
                    <g id="Table" transform="translate(30.000000, 210.000000)">
                        <g id="Table-content" transform="translate(90.000000, 40.000000)">
                            <g id="Doc-Icons" transform="translate(1305.000000, 8.000000)">
                                <path d="M222.005152,0 L228.4,6.41734027 L228.4,22 C228.4,23.1045695 227.504569,24 226.4,24 L212,24 C210.895431,24 210,23.1045695 210,22 L210,2 C210,0.8954305 210.895431,2.02906125e-16 212,0 L222.005152,0 Z M219.6,1.599 L211.6,1.6 L211.6,22.4 L226.8,22.4 L226.799,8.8 L222.6,8.8 C220.943146,8.8 219.6,7.45685425 219.6,5.8 L219.6,1.599 Z M225.2,19.2 L225.2,20.8 L220.4,20.8 L220.4,19.2 L225.2,19.2 Z M224.2,10.4 C224.752285,10.4 225.2,10.8477153 225.2,11.4 L225.2,15.4 C225.2,15.9522847 224.752285,16.4 224.2,16.4 L214.2,16.4 C213.647715,16.4 213.2,15.9522847 213.2,15.4 L213.2,11.4 C213.2,10.8477153 213.647715,10.4 214.2,10.4 L224.2,10.4 Z M223.6,12 L214.8,12 L214.8,14.8 L223.6,14.8 L223.6,12 Z M218,6.4 L218,8 L213.2,8 L213.2,6.4 L218,6.4 Z M221.227166,1.6 L221.199,1.599 L221.2,6.2 C221.2,6.71283584 221.58604,7.13550716 222.083379,7.19327227 L222.2,7.2 L226.79,7.2 L221.227166,1.6 Z M218,3.2 L218,4.8 L213.2,4.8 L213.2,3.2 L218,3.2 Z" id="Doc_icon"></path>
                            </g>
                        </g>
                    </g>
                </g>
            </g>
        </g>
    </g>
</svg>