<?xml version="1.0" encoding="UTF-8"?>
<svg width="22px" height="24px" viewBox="0 0 22 24" version="1.1" xmlns="http://www.w3.org/2000/svg" xmlns:xlink="http://www.w3.org/1999/xlink">
    <!-- Generator: sketchtool 62 (101010) - https://sketch.com -->
    <title>2859CC22-69DC-465A-BCBE-2DBC05CFAB0C</title>
    <desc>Created with sketchtool.</desc>
    <g id="04_Sales_Order" stroke="none" stroke-width="1" fill="none" fill-rule="evenodd">
        <g id="04_01_01_Sales_Order_Table" transform="translate(-1725.000000, -378.000000)">
            <g id="PAGES/Sales-Order">
                <g id="PAGES/Sales-Order---Main-Content" transform="translate(300.000000, 0.000000)">
                    <g id="Table" transform="translate(30.000000, 210.000000)">
                        <g id="Table-content" transform="translate(90.000000, 40.000000)">
                            <g id="Doc-Icons" transform="translate(1305.000000, 8.000000)">
                                <g id="Doc_icon_gray-Copy" transform="translate(0.000000, 120.000000)">
                                    <path d="M10.8051515,0 L17.2,6.41734027 L17.2007756,10.4612784 C19.6924679,10.8464097 21.6,13.0004408 21.6,15.6 C21.6,18.1995592 19.6924679,20.3535903 17.2007756,20.7387216 L17.2,22 C17.2,23.1045695 16.3045695,24 15.2,24 L2,24 C0.8954305,24 5.91103178e-14,23.1045695 5.89750471e-14,22 L5.89750471e-14,2 C5.83956871e-14,0.8954305 0.8954305,2.02906125e-16 2,0 L10.8051515,0 Z M8.399,1.599 L1.6,1.6 L1.6,22.4 L15.6,22.4 L15.6002232,20.7388759 C13.1080419,20.354166 11.2,18.1999065 11.2,15.6 C11.2,13.0000935 13.1080419,10.845834 15.6002232,10.4611241 L15.6,8.8 L11.4,8.8 C9.74314575,8.8 8.4,7.45685425 8.4,5.8 L8.399,1.599 Z M16.4,12 L16.1382699,12.0093688 C16.1298945,12.0099706 16.1215271,12.010601 16.1131676,12.01126 C16.0362202,12.0173171 15.9595602,12.0258503 15.8836647,12.0367509 L16.1131676,12.01126 C16.0249531,12.0182139 15.9376328,12.0283475 15.8513215,12.0415464 L15.8836647,12.0367509 C15.7896647,12.0502518 15.6968377,12.0673842 15.6053302,12.0880014 L15.8513215,12.0415464 C14.1235114,12.3057664 12.8,13.7983219 12.8,15.6 C12.8,17.4127123 14.1397725,18.912504 15.8831122,19.1631697 C15.9595602,19.1741497 16.0362202,19.1826829 16.1135677,19.1887715 L15.8831122,19.1631697 C15.9675877,19.175316 16.0530108,19.1845293 16.139275,19.1907032 L16.1395582,19.1907235 L16.4,19.2 L16.4,19.2 L16.660725,19.1907032 C16.6694361,19.1900798 16.6781386,19.1894253 16.6868324,19.18874 C16.764248,19.1826381 16.8410048,19.1740828 16.9169948,19.1631543 L16.6868324,19.18874 C16.7750469,19.1817861 16.8623672,19.1716525 16.9486785,19.1584536 L16.9169948,19.1631543 C17.0097664,19.1498123 17.1013951,19.132933 17.1917398,19.1126575 L16.9486785,19.1584536 C18.6764886,18.8942336 20,17.4016781 20,15.6 C20,13.7872877 18.6602275,12.287496 16.9168878,12.0368303 C16.8410048,12.0259172 16.764248,12.0173619 16.6868019,12.0112576 L16.9168878,12.0368303 C16.8327404,12.0247312 16.7476527,12.0155423 16.6617301,12.0093688 L16.6617281,12.0093687 L16.4,12 L16.4,12 Z M16.4,14.8 C16.8418278,14.8 17.2,15.1581722 17.2,15.6 C17.2,16.0418278 16.8418278,16.4 16.4,16.4 C15.9581722,16.4 15.6,16.0418278 15.6,15.6 C15.6,15.1581722 15.9581722,14.8 16.4,14.8 Z M14.4,14.8 C14.8418278,14.8 15.2,15.1581722 15.2,15.6 C15.2,16.0418278 14.8418278,16.4 14.4,16.4 C13.9581722,16.4 13.6,16.0418278 13.6,15.6 C13.6,15.1581722 13.9581722,14.8 14.4,14.8 Z M18.4,14.8 C18.8418278,14.8 19.2,15.1581722 19.2,15.6 C19.2,16.0418278 18.8418278,16.4 18.4,16.4 C17.9581722,16.4 17.6,16.0418278 17.6,15.6 C17.6,15.1581722 17.9581722,14.8 18.4,14.8 Z M10.0271661,1.6 L9.998,1.599 L10,6.2 C10,6.71283584 10.3860402,7.13550716 10.8833789,7.19327227 L11,7.2 L15.591,7.2 L10.0271661,1.6 Z" id="Combined-Shape" fill="#848893"></path>
                                    <path d="M8.4,1.6 L8.4,5.8 C8.4,7.39768088 9.64891996,8.70366088 11.2237272,8.79490731 L11.4,8.8 L15.6,8.8 L15.6,1.6 L15.6,1.6 L15.6002232,10.4611241 C13.1080419,10.845834 11.2,13.0000935 11.2,15.6 C11.2,18.1999065 13.1080419,20.354166 15.6002232,20.7388759 L15.6,22.4 L1.6,22.4 L1.6,1.6 L8.4,1.6 Z" id="Combined-Shape" fill="#E8E9EB"></path>
                                </g>
                            </g>
                        </g>
                    </g>
                </g>
            </g>
        </g>
    </g>
</svg>