<?xml version="1.0" encoding="UTF-8"?>
<svg width="19px" height="24px" viewBox="0 0 19 24" version="1.1" xmlns="http://www.w3.org/2000/svg" xmlns:xlink="http://www.w3.org/1999/xlink">
    <!-- Generator: sketchtool 62 (101010) - https://sketch.com -->
    <title>4EAE95A1-7619-48A2-854B-3B7C2494349D</title>
    <desc>Created with sketchtool.</desc>
    <g id="04_Sales_Order" stroke="none" stroke-width="1" fill="none" fill-rule="evenodd">
        <g id="04_01_01_Sales_Order_Table" transform="translate(-1935.000000, -378.000000)" fill="#84C225">
            <g id="PAGES/Sales-Order">
                <g id="PAGES/Sales-Order---Main-Content" transform="translate(300.000000, 0.000000)">
                    <g id="Table" transform="translate(30.000000, 210.000000)">
                        <g id="Table-content" transform="translate(90.000000, 40.000000)">
                            <g id="Doc-Icons" transform="translate(1305.000000, 8.000000)">
                                <path d="M222.005152,120 L228.4,126.41734 L228.4,142 C228.4,143.104569 227.504569,144 226.4,144 L212,144 C210.895431,144 210,143.104569 210,142 L210,122 C210,120.895431 210.895431,120 212,120 L222.005152,120 Z M219.6,121.599 L211.6,121.6 L211.6,142.4 L226.8,142.4 L226.799,128.8 L222.6,128.8 C220.943146,128.8 219.6,127.456854 219.6,125.8 L219.6,121.599 Z M225.2,139.2 L225.2,140.8 L220.4,140.8 L220.4,139.2 L225.2,139.2 Z M224.2,130.4 C224.752285,130.4 225.2,130.847715 225.2,131.4 L225.2,135.4 C225.2,135.952285 224.752285,136.4 224.2,136.4 L214.2,136.4 C213.647715,136.4 213.2,135.952285 213.2,135.4 L213.2,131.4 C213.2,130.847715 213.647715,130.4 214.2,130.4 L224.2,130.4 Z M223.6,132 L214.8,132 L214.8,134.8 L223.6,134.8 L223.6,132 Z M218,126.4 L218,128 L213.2,128 L213.2,126.4 L218,126.4 Z M221.227166,121.6 L221.199,121.599 L221.2,126.2 C221.2,126.712836 221.58604,127.135507 222.083379,127.193272 L222.2,127.2 L226.79,127.2 L221.227166,121.6 Z M218,123.2 L218,124.8 L213.2,124.8 L213.2,123.2 L218,123.2 Z" id="Doc_icon-Copy"></path>
                            </g>
                        </g>
                    </g>
                </g>
            </g>
        </g>
    </g>
</svg>