<svg xmlns="http://www.w3.org/2000/svg" width="240" height="216" viewBox="0 0 240 216">
    <g fill="none" fill-rule="evenodd">
        <path fill="#2599D5" fill-rule="nonzero" d="M228 4H12c-4.418 0-8 3.582-8 8v32h232V12c0-4.418-3.582-8-8-8zM24 28c-2.21 0-4-1.79-4-4s1.79-4 4-4 4 1.79 4 4-1.79 4-4 4zm24 0c-2.21 0-4-1.79-4-4s1.79-4 4-4 4 1.79 4 4-1.79 4-4 4zm24 0c-2.21 0-4-1.79-4-4s1.79-4 4-4 4 1.79 4 4-1.79 4-4 4zm140 4H100c-4.418 0-8-3.582-8-8s3.582-8 8-8h112c4.418 0 8 3.582 8 8s-3.582 8-8 8z"/>
        <circle cx="24" cy="24" r="4" fill="#9BC9FF" fill-rule="nonzero"/>
        <circle cx="48" cy="24" r="4" fill="#9BC9FF" fill-rule="nonzero"/>
        <circle cx="72" cy="24" r="4" fill="#9BC9FF" fill-rule="nonzero"/>
        <g fill="#1B3454" fill-rule="nonzero" transform="translate(16 12)">
            <path d="M196 0H84c-6.627 0-12 5.373-12 12s5.373 12 12 12h112c6.627 0 12-5.373 12-12s-5.373-12-12-12zm0 16H84c-2.21 0-4-1.79-4-4s1.79-4 4-4h112c2.21 0 4 1.79 4 4s-1.79 4-4 4z"/>
            <circle cx="8" cy="12" r="8"/>
            <circle cx="32" cy="12" r="8"/>
            <circle cx="56" cy="12" r="8"/>
        </g>
        <circle cx="121" cy="124" r="42" fill="#84C225"/>
        <path fill="#1B3454" d="M156.355 88.645c19.527 19.526 19.527 51.184 0 70.71-19.526 19.527-51.184 19.527-70.71 0-19.527-19.526-19.527-51.184 0-70.71 19.526-19.527 51.184-19.527 70.71 0zm-65.053 5.657c-15.449 15.448-16.347 39.936-2.696 56.435l59.131-59.13c-16.5-13.652-40.987-12.754-56.435 2.695zm62.093 2.962l-59.131 59.13c16.5 13.651 40.987 12.752 56.434-2.696 15.448-15.447 16.347-39.935 2.697-56.434z"/>
        <path fill="#1B3454" d="M228 0c6.627 0 12 5.373 12 12v192c0 6.627-5.373 12-12 12H12c-6.627 0-12-5.373-12-12V12C0 5.373 5.373 0 12 0h216zM8 48v156c0 2.142 1.684 3.891 3.8 3.995l.2.005h216c2.142 0 3.891-1.684 3.995-3.8l.005-.2V48H8zm0-8h224V12c0-2.21-1.79-4-4-4H12c-2.142 0-3.891 1.684-3.995 3.8L8 12v28z"/>
    </g>
</svg>
