<svg xmlns="http://www.w3.org/2000/svg" width="240" height="240" viewBox="0 0 240 240">
    <g fill="none">
        <path fill="#2599D5" d="M228 4H12c-4.418 0-8 3.582-8 8v32h232V12c0-4.418-3.582-8-8-8zM24 28c-2.21 0-4-1.79-4-4s1.79-4 4-4 4 1.79 4 4-1.79 4-4 4zm24 0c-2.21 0-4-1.79-4-4s1.79-4 4-4 4 1.79 4 4-1.79 4-4 4zm24 0c-2.21 0-4-1.79-4-4s1.79-4 4-4 4 1.79 4 4-1.79 4-4 4zm140 4H100c-4.418 0-8-3.582-8-8s3.582-8 8-8h112c4.418 0 8 3.582 8 8s-3.582 8-8 8z"/>
        <circle cx="24" cy="24" r="4" fill="#9BC9FF"/>
        <circle cx="48" cy="24" r="4" fill="#9BC9FF"/>
        <circle cx="72" cy="24" r="4" fill="#9BC9FF"/>
        <path fill="#84C225" d="M88.88 228.08l12.64-12.64c2.069 1.11 4.239 2.021 6.48 2.72V236h24v-17.84c2.241-.699 4.411-1.61 6.48-2.72l12.64 12.64 16.96-16.96-12.64-12.64c1.11-2.069 2.021-4.239 2.72-6.48H176v-24h-17.84c-.699-2.241-1.61-4.411-2.72-6.48l12.64-12.64-16.96-16.96-12.64 12.64c-2.069-1.11-4.239-2.021-6.48-2.72V124h-24v17.84c-2.241.699-4.411 1.61-6.48 2.72l-12.64-12.64-16.96 16.96 12.64 12.64c-1.11 2.069-2.021 4.239-2.72 6.48H64v24h17.84c.699 2.241 1.61 4.411 2.72 6.48l-12.64 12.64 16.96 16.96zM120 160c11.046 0 20 8.954 20 20s-8.954 20-20 20-20-8.954-20-20 8.954-20 20-20zM172 92.148L180 80h25.28c-3.947-8.311-11.725-14.153-20.807-15.627-9.081-1.475-18.308 1.607-24.681 8.243-4.507 4.717-10.748 7.385-17.272 7.384H48c-6.627 0-12 5.373-12 12s5.373 12 12 12h94.52c6.524-.001 12.765 2.667 17.272 7.384 6.373 6.636 15.6 9.718 24.681 8.243 9.082-1.474 16.86-7.316 20.807-15.627H180l-8-11.852z"/>
        <g fill="#1B3454">
            <path d="M228 0H12C5.373 0 0 5.373 0 12v192c0 6.627 5.373 12 12 12h59.144l14.908 14.908c1.562 1.562 4.094 1.562 5.656 0l10.616-10.616c.544.236 1.1.468 1.676.696V236c0 2.21 1.79 4 4 4h24c2.21 0 4-1.79 4-4v-15.012c.576-.228 1.132-.46 1.676-.696l10.616 10.616c1.587 1.5 4.07 1.5 5.656 0L168.856 216H228c6.627 0 12-5.373 12-12V12c0-6.627-5.373-12-12-12zm-76.88 222.424l-9.812-9.812c-1.257-1.258-3.193-1.535-4.752-.68-1.845.991-3.782 1.802-5.784 2.42-1.653.533-2.773 2.072-2.772 3.808V232h-16v-13.84c0-1.736-1.12-3.275-2.772-3.808-2.002-.618-3.939-1.429-5.784-2.42-1.56-.855-3.495-.578-4.752.68l-9.812 9.812L77.6 211.12l9.808-9.812c1.256-1.256 1.533-3.19.68-4.748-.989-1.847-1.8-3.783-2.42-5.784-.534-1.661-2.083-2.785-3.828-2.776H68v-16h13.84c1.738 0 3.276-1.122 3.808-2.776.62-2 1.431-3.937 2.42-5.784.853-1.558.576-3.492-.68-4.748L77.6 148.88l11.3-11.304 9.812 9.812c1.257 1.258 3.193 1.535 4.752.68 1.845-.991 3.782-1.802 5.784-2.42 1.645-.54 2.755-2.077 2.752-3.808V128h16v13.84c0 1.736 1.12 3.275 2.772 3.808 2.002.618 3.939 1.429 5.784 2.42 1.56.855 3.495.578 4.752-.68l9.812-9.812 11.3 11.304-9.808 9.812c-1.256 1.256-1.533 3.19-.68 4.748.989 1.847 1.8 3.783 2.42 5.784.532 1.654 2.07 2.776 3.808 2.776H172v16h-13.84c-1.738 0-3.276 1.122-3.808 2.776-.62 2-1.431 3.937-2.42 5.784-.853 1.558-.576 3.492.68 4.748l9.808 9.812-11.3 11.304zM232 204c0 2.21-1.79 4-4 4h-57.384l-10.324-10.328c.24-.54.468-1.096.696-1.672H176c2.21 0 4-1.79 4-4v-24c0-2.21-1.79-4-4-4h-15.012c-.228-.576-.456-1.132-.696-1.676l10.616-10.616c1.562-1.562 1.562-4.094 0-5.656l-16.96-16.96c-1.562-1.562-4.094-1.562-5.656 0l-10.616 10.616c-.544-.236-1.1-.468-1.676-.696V124c0-2.21-1.79-4-4-4h-24c-2.21 0-4 1.79-4 4v15.012c-.576.228-1.132.46-1.676.696l-10.616-10.616c-1.587-1.5-4.07-1.5-5.656 0l-16.96 16.96c-1.562 1.562-1.562 4.094 0 5.656l10.616 10.616c-.24.544-.468 1.1-.696 1.676H64c-2.21 0-4 1.79-4 4v24c0 2.21 1.79 4 4 4h15.012c.228.576.456 1.132.696 1.672L69.384 208H12c-2.21 0-4-1.79-4-4V48h224v156zM8 40V12c0-2.21 1.79-4 4-4h216c2.21 0 4 1.79 4 4v28H8z"/>
            <path d="M212 12H100c-6.627 0-12 5.373-12 12s5.373 12 12 12h112c6.627 0 12-5.373 12-12s-5.373-12-12-12zm0 16H100c-2.21 0-4-1.79-4-4s1.79-4 4-4h112c2.21 0 4 1.79 4 4s-1.79 4-4 4z"/>
            <circle cx="24" cy="24" r="8"/>
            <circle cx="48" cy="24" r="8"/>
            <circle cx="72" cy="24" r="8"/>
            <path d="M120 156c-13.255 0-24 10.745-24 24s10.745 24 24 24 24-10.745 24-24c-.013-13.25-10.75-23.987-24-24zm0 40c-8.837 0-16-7.163-16-16s7.163-16 16-16 16 7.163 16 16-7.163 16-16 16zM48 108h94.52c5.436.007 10.635 2.227 14.4 6.148 7.283 7.59 17.832 11.116 28.216 9.43 10.383-1.685 19.275-8.366 23.784-17.87.587-1.243.495-2.7-.244-3.859-.74-1.159-2.022-1.857-3.396-1.849h-23.156l-5.324-7.88 5.356-8.12h23.124c1.37.001 2.647-.7 3.381-1.858.734-1.157.824-2.61.239-3.85-4.509-9.504-13.401-16.185-23.784-17.87-10.384-1.686-20.933 1.84-28.216 9.43-3.76 3.916-8.95 6.135-14.38 6.148H48c-8.837 0-16 7.163-16 16s7.163 16 16 16zm0-24h94.52c7.613-.015 14.893-3.127 20.164-8.62 4.632-4.821 11.064-7.494 17.75-7.377 6.684.118 13.018 3.016 17.478 7.997H180c-1.345 0-2.6.677-3.34 1.8l-8 12.148c-.888 1.348-.878 3.098.024 4.436l8 11.856c.744 1.101 1.987 1.76 3.316 1.76h17.912c-4.46 4.981-10.794 7.88-17.479 7.997-6.685.117-13.117-2.556-17.749-7.377-5.271-5.493-12.55-8.605-20.164-8.62H48c-4.418 0-8-3.582-8-8s3.582-8 8-8z"/>
            <path d="M52 96h4c2.21 0 4-1.79 4-4s-1.79-4-4-4h-4c-2.21 0-4 1.79-4 4s1.79 4 4 4zM68 96h56c2.21 0 4-1.79 4-4s-1.79-4-4-4H68c-2.21 0-4 1.79-4 4s1.79 4 4 4zM136 96h4c2.21 0 4-1.79 4-4s-1.79-4-4-4h-4c-2.21 0-4 1.79-4 4s1.79 4 4 4z"/>
        </g>
    </g>
</svg>
