<svg xmlns="http://www.w3.org/2000/svg" width="240" height="216" viewBox="0 0 240 216">
    <g fill="none" fill-rule="evenodd">
        <path fill="#2599D5" fill-rule="nonzero" d="M228 4H12c-4.418 0-8 3.582-8 8v32h232V12c0-4.418-3.582-8-8-8zM24 28c-2.21 0-4-1.79-4-4s1.79-4 4-4 4 1.79 4 4-1.79 4-4 4zm24 0c-2.21 0-4-1.79-4-4s1.79-4 4-4 4 1.79 4 4-1.79 4-4 4zm24 0c-2.21 0-4-1.79-4-4s1.79-4 4-4 4 1.79 4 4-1.79 4-4 4zm140 4H100c-4.418 0-8-3.582-8-8s3.582-8 8-8h112c4.418 0 8 3.582 8 8s-3.582 8-8 8z"/>
        <circle cx="24" cy="24" r="4" fill="#9BC9FF" fill-rule="nonzero"/>
        <circle cx="48" cy="24" r="4" fill="#9BC9FF" fill-rule="nonzero"/>
        <circle cx="72" cy="24" r="4" fill="#9BC9FF" fill-rule="nonzero"/>
        <g fill="#1B3454" fill-rule="nonzero" transform="translate(16 12)">
            <path d="M196 0H84c-6.627 0-12 5.373-12 12s5.373 12 12 12h112c6.627 0 12-5.373 12-12s-5.373-12-12-12zm0 16H84c-2.21 0-4-1.79-4-4s1.79-4 4-4h112c2.21 0 4 1.79 4 4s-1.79 4-4 4z"/>
            <circle cx="8" cy="12" r="8"/>
            <circle cx="32" cy="12" r="8"/>
            <circle cx="56" cy="12" r="8"/>
        </g>
        <g>
            <path fill="#84C225" d="M8 29H92V99H8z" transform="translate(71 66)"/>
            <path fill="#1B3454" d="M68 0c6.627 0 12 5.373 12 12v9h8c6.627 0 12 5.373 12 12v62c0 6.627-5.373 12-12 12H77l-.2-.005c-2.116-.104-3.8-1.853-3.8-3.995 0-2.142 1.684-3.891 3.8-3.995L77 99h11c2.142 0 3.891-1.684 3.995-3.8L92 95V33c0-2.21-1.79-4-4-4H12c-2.142 0-3.891 1.684-3.995 3.8L8 33v62c0 2.142 1.684 3.891 3.8 3.995L12 99h45c2.21 0 4 1.79 4 4 0 2.142-1.684 3.891-3.8 3.995L57 107H12c-6.627 0-12-5.373-12-12V33c0-6.627 5.373-12 12-12h8v-9c0-6.627 5.373-12 12-12h36zm3 78c2.21 0 4 1.79 4 4s-1.79 4-4 4H29c-2.21 0-4-1.79-4-4s1.79-4 4-4h42zm7.485-33.485c1.562 1.562 1.562 4.094 0 5.657L75.657 53l2.828 2.828c1.562 1.563 1.562 4.095 0 5.657-1.562 1.562-4.094 1.562-5.657 0L70 58.657l-2.828 2.828c-1.563 1.562-4.095 1.562-5.657 0-1.562-1.562-1.562-4.094 0-5.657L64.344 53l-2.83-2.827c-1.561-1.563-1.561-4.095 0-5.657 1.563-1.562 4.095-1.562 5.658 0L70 47.342l2.827-2.827c1.563-1.562 4.095-1.562 5.657 0zm-40 0c1.562 1.562 1.562 4.094 0 5.657L35.657 53l2.828 2.828c1.562 1.563 1.562 4.095 0 5.657-1.562 1.562-4.094 1.562-5.657 0L30 58.657l-2.828 2.828c-1.563 1.562-4.095 1.562-5.657 0-1.562-1.562-1.562-4.094 0-5.657L24.344 53l-2.83-2.827c-1.561-1.563-1.561-4.095 0-5.657 1.563-1.562 4.095-1.562 5.658 0L30 47.342l2.827-2.827c1.563-1.562 4.095-1.562 5.657 0zM68 8H32c-2.142 0-3.891 1.684-3.995 3.8L28 12v9h44v-9c0-2.142-1.684-3.891-3.8-3.995L68 8z" transform="translate(71 66)"/>
        </g>
        <path fill="#1B3454" d="M228 0c6.627 0 12 5.373 12 12v192c0 6.627-5.373 12-12 12H12c-6.627 0-12-5.373-12-12V12C0 5.373 5.373 0 12 0h216zM8 48v156c0 2.142 1.684 3.891 3.8 3.995l.2.005h216c2.142 0 3.891-1.684 3.995-3.8l.005-.2V48H8zm0-8h224V12c0-2.21-1.79-4-4-4H12c-2.142 0-3.891 1.684-3.995 3.8L8 12v28z"/>
    </g>
</svg>
