<svg xmlns="http://www.w3.org/2000/svg" width="33" height="36" viewBox="0 0 33 36">
    <g fill="none" fill-rule="evenodd">
        <g fill="#00C9FF" fill-rule="nonzero">
            <path d="M16.138 0c1.59 0 4.246.597 6.75 1.26 2.234.6 4.452 1.251 6.654 1.956 1.282.404 2.219 1.51 2.407 2.841 1.375 10.073-1.814 17.537-5.681 22.476-1.648 2.12-3.605 3.98-5.805 5.52-.765.536-1.573 1.007-2.417 1.407-.594.307-1.243.49-1.91.54-.666-.05-1.316-.233-1.91-.54-.843-.4-1.652-.87-2.417-1.407-2.198-1.54-4.154-3.4-5.8-5.52C2.138 23.595-1.05 16.13.326 6.058.515 4.726 1.452 3.62 2.734 3.216 4.937 2.512 7.155 1.86 9.387 1.26 11.89.597 14.549 0 16.138 0zm5.148 13.55l-6.35 6.353-2.75-2.753c-.47-.463-1.226-.46-1.693.006-.467.467-.47 1.223-.007 1.693l3.6 3.6c.225.226.53.353.85.353.318 0 .624-.127.85-.353l7.2-7.2c.463-.47.46-1.226-.007-1.693-.467-.466-1.223-.469-1.693-.006z" transform="translate(-989 -363) translate(150 300) translate(0 41) translate(815) translate(24 22)"/>
        </g>
    </g>
</svg>
