<svg xmlns="http://www.w3.org/2000/svg" width="29" height="36" viewBox="0 0 29 36">
    <g fill="none" fill-rule="evenodd">
        <g fill="#00C9FF" fill-rule="nonzero">
            <path d="M24.027 12.054c1.851.03 3.345 1.523 3.375 3.375v17.197c-.03 1.851-1.524 3.345-3.375 3.374H3.456c-.921.018-1.808-.347-2.451-1.006-.648-.617-1.011-1.475-1.005-2.37V15.43c-.007-.895.357-1.753 1.005-2.37.643-.66 1.53-1.023 2.451-1.005h1.688V8.598c-.03-2.286.886-4.481 2.53-6.068C9.262.886 11.458-.03 13.742.002c2.274-.035 4.459.882 6.027 2.53 1.624 1.597 2.524 3.79 2.49 6.067v3.456h1.769v-.001zM13.702 27.482c.908.013 1.781-.35 2.412-1.004 1.34-1.36 1.34-3.543 0-4.902-.638-.643-1.505-1.005-2.41-1.005-.906 0-1.774.362-2.411 1.005-1.34 1.359-1.34 3.542 0 4.902.63.653 1.504 1.017 2.412 1.004h-.003zm5.342-15.428V8.598c.016-1.408-.55-2.76-1.565-3.736-.989-1.022-2.356-1.589-3.777-1.567-1.411-.027-2.768.542-3.738 1.567-.994.987-1.545 2.335-1.527 3.736v3.456h10.607z" transform="translate(-1191 -363) translate(150 300) translate(0 41) translate(1015) translate(26 22)"/>
        </g>
    </g>
</svg>
