<svg xmlns="http://www.w3.org/2000/svg" width="36" height="36" viewBox="0 0 36 36">
    <g fill="none" fill-rule="evenodd">
        <g fill="#00C9FF" fill-rule="nonzero">
            <path d="M0 18C0 8.059 8.059 0 18 0s18 8.059 18 18-8.059 18-18 18c-4.774 0-9.352-1.896-12.728-5.272C1.896 27.352 0 22.774 0 18zm4.771 0C4.78 25.303 10.697 31.221 18 31.229c7.306 0 13.229-5.923 13.229-13.229 0-7.306-5.923-13.229-13.229-13.229-7.306 0-13.229 5.923-13.229 13.229zm2.398 0c0-4.378 2.636-8.324 6.68-10 4.045-1.675 8.7-.75 11.796 2.346 3.095 3.095 4.021 7.75 2.346 11.795-1.675 4.045-5.622 6.681-10 6.681-2.87 0-5.623-1.14-7.652-3.17-2.03-2.029-3.17-4.782-3.17-7.652zm4.77 0c.001 3.342 2.71 6.052 6.053 6.052 3.342 0 6.052-2.71 6.052-6.053 0-3.342-2.71-6.052-6.053-6.051-1.605 0-3.144.637-4.279 1.772-1.135 1.135-1.772 2.675-1.772 4.28zm2.396 0c0-1.307.697-2.515 1.829-3.168 1.132-.654 2.526-.654 3.658 0 1.132.653 1.83 1.861 1.83 3.168 0 1.307-.698 2.514-1.83 3.168-1.131.653-2.525.653-3.657 0-1.132-.654-1.829-1.861-1.829-3.168h-.001z" transform="translate(-1087 -363) translate(150 300) translate(0 41) translate(915) translate(22 22)"/>
        </g>
    </g>
</svg>
