<svg id="Layer_1" data-name="Layer 1" xmlns="http://www.w3.org/2000/svg" viewBox="0 0 2160 720"><defs><style>.cls-1{fill:#00c7f9;fill-rule:evenodd;}.cls-2{fill:#3d3d3d;}.cls-3{fill:#5e5e5e;}</style></defs><polygon class="cls-1" points="546.799 410.011 546.799 464.85 373.927 564.661 326.43 537.241 546.799 410.011"/><polygon class="cls-1" points="201.057 265.249 201.057 210.399 334.993 287.728 287.494 315.148 201.057 265.249"/><path class="cls-1" d="M546.8,210.4v54.847Q417.141,340.1,287.494,414.951l-86.437-49.905V310.2l86.437,49.906Q417.144,285.241,546.8,210.4"/><path class="cls-1" d="M546.8,310.2v54.85Q417.141,439.9,287.494,514.76l-86.437-49.91V410.011l86.437,49.9Q417.144,385.054,546.8,310.2"/><path class="cls-2" d="M676.571,345.309H658.935V314.577h17.636V277.97h37.678v36.607h33.136v30.732H714.249v71.613c0,9.89,4.009,14.163,15.765,14.163h17.371v31.533H723.87c-28.326,0-47.3-12.025-47.3-45.961Z"/><path class="cls-2" d="M811.772,462.618H774.361V314.577h37.411v22.98c9.352-15.232,24.853-25.118,45.429-25.118V351.72h-9.889c-22.179,0-35.54,8.553-35.54,37.144Z"/><path class="cls-2" d="M940.294,312.174c23.783,0,40.083,11.22,48.9,23.513v-21.11h37.678V462.618H989.2V440.975c-8.819,12.826-25.653,24.05-49.168,24.05-37.412,0-67.342-30.733-67.342-76.962S902.616,312.174,940.294,312.174Zm9.62,32.867c-20.041,0-39.015,14.964-39.015,43.022s18.974,44.091,39.015,44.091c20.576,0,39.282-15.5,39.282-43.555S970.49,345.041,949.914,345.041Z"/><path class="cls-2" d="M1121.721,312.174c19.506,0,38.212,9.086,48.365,22.981V264.876h37.946V462.618h-37.946V440.707c-8.817,13.626-25.385,24.318-48.634,24.318-37.678,0-67.607-30.733-67.607-76.962S1083.774,312.174,1121.721,312.174Zm9.352,32.867c-20.042,0-39.016,14.964-39.016,43.022s18.974,44.091,39.016,44.091c20.576,0,39.281-15.5,39.281-43.555S1151.649,345.041,1131.073,345.041Z"/><path class="cls-2" d="M1309.292,465.025c-43.024,0-74.289-29.932-74.289-76.426,0-46.765,30.464-76.425,74.289-76.425,42.755,0,72.951,29.127,72.951,73.218a87.5,87.5,0,0,1-1.069,14.428H1272.949c1.87,21.915,16.836,34.2,35.54,34.2,16.033,0,24.852-8.017,29.662-17.9h40.35C1370.485,443.378,1345.9,465.025,1309.292,465.025ZM1273.216,374.7h70.28c-.534-19.5-16.033-31.8-35.273-31.8C1290.318,342.9,1276.157,354.4,1273.216,374.7Z"/><path class="cls-3" d="M1490.718,313.776c39.282,0,69.478,29.395,69.478,75.088,0,45.428-30.2,76.161-69.478,76.161-26.722,0-45.694-14.432-54.78-29.4V532.1H1411.62V316.182h24.318v26.989C1444.756,327.671,1464,313.776,1490.718,313.776Zm-5.077,21.11c-26.454,0-49.7,20.31-49.7,54.246,0,34.473,23.249,54.514,49.7,54.514,26.989,0,49.7-20.31,49.7-54.782S1512.63,334.886,1485.641,334.886Z"/><path class="cls-3" d="M1652.636,313.776c27.257,0,45.963,13.895,54.514,29.127V316.182h24.584V462.618H1707.15V435.361c-8.819,15.765-27.791,29.664-54.78,29.664-39.016,0-69.212-30.733-69.212-76.161C1583.158,343.171,1613.354,313.776,1652.636,313.776Zm4.809,21.11c-26.72,0-49.434,19.509-49.434,53.978s22.714,54.782,49.434,54.782,49.705-20.041,49.705-54.514C1707.15,355.2,1684.168,334.886,1657.445,334.886Z"/><path class="cls-3" d="M1824.711,465.025c-34.2,0-58.254-18.708-59.858-45.429h25.119c1.335,14.163,13.895,24.851,34.472,24.851,19.239,0,29.928-9.618,29.928-21.643,0-32.6-86.58-13.631-86.58-68.144,0-22.444,21.111-40.884,53.711-40.884,32.335,0,53.713,17.37,55.315,45.961H1852.5c-1.069-14.7-12.293-25.383-31.8-25.383-17.9,0-28.592,8.549-28.592,20.306,0,34.74,84.976,15.768,86.045,68.144C1878.155,446.853,1857.045,465.025,1824.711,465.025Z"/><path class="cls-3" d="M1964.184,465.025c-34.2,0-58.253-18.708-59.857-45.429h25.119c1.335,14.163,13.894,24.851,34.472,24.851,19.239,0,29.928-9.618,29.928-21.643,0-32.6-86.58-13.631-86.58-68.144,0-22.444,21.11-40.884,53.711-40.884,32.334,0,53.713,17.37,55.315,45.961h-24.316c-1.069-14.7-12.293-25.383-31.8-25.383-17.9,0-28.592,8.549-28.592,20.306,0,34.74,84.976,15.768,86.045,68.144C2017.629,446.853,1996.519,465.025,1964.184,465.025Z"/></svg>