<svg xmlns="http://www.w3.org/2000/svg" width="80" height="36" viewBox="0 0 80 36">
    <g fill="none" fill-rule="evenodd">
        <g fill="#20273A">
            <g>
                <path d="M72.225 33.981c.3-.518.36-1.079.242-1.588-.229-.98-1.123-1.772-2.26-1.715L69 28.59l-.004.002-.815-1.411c2.001-1.476 3.309-3.739 3.585-6.21h4.042c.63 1.148 1.695 1.389 2.595 1.091 1.201-.399 2.106-1.758 1.275-3.198-.3-.519-.754-.851-1.254-1.003-.964-.293-2.096.086-2.616 1.1h-4.043c-.275-2.415-1.525-4.693-3.584-6.21l4.815-8.34c1.485.076 2.558-1.298 2.272-2.65-.047-.22-.13-.44-.253-.653C74.39.025 73.31-.184 72.412.138c-1.188.427-2.06 1.78-1.156 3.269l-4.816 8.34c-1.8-.788-3.75-.937-5.569-.524l-1.623-1.81-3.723 2.149.755 2.307c-.91.982-1.594 2.165-1.99 3.444l-2.374.5v4.298l2.373.5c.392 1.269 1.064 2.452 1.989 3.45l-.753 2.3 3.723 2.15 1.616-1.801c1.886.43 3.842.228 5.576-.526l.82 1.41 1.206 2.089c-.68 1.12-.355 2.162.352 2.792.946.842 2.575.946 3.407-.494zm-33.277-5.237v-9.527c.005-.643.1-1.287.334-1.89.213-.556.517-1.058.924-1.491.399-.42.87-.746 1.404-.974.583-.253 1.205-.357 1.836-.361.776.004 1.63.122 2.305.53.561.34.96.808 1.223 1.407.327.747.435 1.587.431 2.397v9.91h3.56v-9.906c0-1.047-.134-2.094-.458-3.092-.298-.935-.77-1.79-1.423-2.526-.67-.747-1.49-1.302-2.417-1.677-.894-.357-1.85-.522-2.81-.562l-.416-.009c-.823.006-1.64.131-2.427.368-.768.233-1.484.594-2.128 1.068v-7.68h-3.528v24.015h3.59zm-30.05.22c.937 0 1.867-.126 2.77-.37.914-.242 1.79-.616 2.6-1.109.819-.504 1.536-1.14 2.126-1.898l.622-.799-2.713-2.17-.636.841c-.234.31-.524.57-.842.79-.368.253-.765.462-1.18.626-.44.175-.897.309-1.363.395-.455.085-.918.135-1.38.135-.665 0-1.322-.106-1.95-.328-.596-.208-1.14-.523-1.62-.932-.484-.414-.864-.92-1.152-1.488-.153-.3-.272-.616-.362-.94H17.49l.089-.93c.112-1.181.091-2.39-.167-3.552-.227-1.003-.607-1.963-1.191-2.81-.538-.787-1.208-1.46-2.005-1.985-.77-.517-1.624-.896-2.522-1.139-.911-.242-1.852-.36-2.794-.36-1.19.006-2.36.219-3.46.675-1.065.438-2.02 1.072-2.837 1.883-.823.823-1.463 1.792-1.908 2.866C.222 17.51.005 18.731 0 19.966c.005 1.273.21 2.538.694 3.718.443 1.076 1.083 2.047 1.922 2.855.824.788 1.783 1.393 2.847 1.802 1.097.424 2.26.617 3.435.623zm18.698-.063c.77 0 1.534-.096 2.279-.282.757-.197 1.484-.49 2.163-.873.712-.393 1.355-.892 1.931-1.463l.734-.726-2.486-2.487-.726.717c-.352.348-.744.65-1.173.895-.414.233-.858.417-1.32.537-.457.121-.926.186-1.398.186-.732 0-1.455-.112-2.144-.362-.636-.232-1.21-.575-1.71-1.035-.505-.465-.88-1.033-1.144-1.665-.317-.75-.434-1.567-.438-2.376.004-.807.121-1.624.437-2.372.263-.63.637-1.203 1.143-1.664.5-.46 1.076-.805 1.713-1.037.688-.25 1.412-.362 2.143-.362.48 0 .958.06 1.423.17.467.115.917.29 1.343.518.424.232.81.526 1.156.867l.714.706 2.486-2.409-.76-.737c-.578-.56-1.22-1.051-1.923-1.445-.678-.382-1.403-.676-2.158-.872-.746-.192-1.512-.294-2.282-.294-1.196.005-2.38.19-3.5.616-1.07.4-2.044.995-2.874 1.783-.844.802-1.48 1.767-1.925 2.84-.49 1.169-.69 2.428-.696 3.691.006 1.272.217 2.532.715 3.703.456 1.074 1.105 2.039 1.959 2.837.834.782 1.804 1.377 2.873 1.78 1.101.42 2.268.61 3.445.615zm32.466-4.096c-2.671-1.543-3.587-4.96-2.045-7.633 1.007-1.743 2.797-2.735 4.675-2.788H63l.575.044.226.035.514.112.224.065.254.086.22.085.257.116c.128.061.254.128.38.2l.714.49c1.293 1.04 1.908 2.396 2.066 3.962.107 1.058-.228 2.302-.735 3.181l-.158.256-.147.216-.086.115-.09.115-.17.202-.18.195-.128.127-.179.164-.228.191-.215.162-.222.15-.228.14-.234.129-.239.117-.245.106-.25.094-.253.082-.257.07-.26.058-.264.045-.265.033-.187.016c-1.056.07-2.148-.16-3.148-.738zm-45.997-6.49H3.811c.094-.363.22-.716.386-1.053.29-.588.67-1.12 1.162-1.557.474-.422 1.011-.746 1.61-.964.621-.23 1.273-.334 1.932-.334.967 0 1.951.158 2.824.59.748.367 1.333.902 1.757 1.62.309.521.49 1.102.583 1.697z" transform="translate(-80 -22) translate(80 22)"/>
            </g>
        </g>
    </g>
</svg>
